<svg style="display: none;" aria-hidden="true" xmlns="http://www.w3.org/2000/svg" xmlns:xlink="http://www.w3.org/1999/xlink"><symbol viewBox="0 0 8 5" id="svg-arrow-dropdown"><path fill-rule="evenodd" d="M7.02038 0.979821C7.21565 1.17508 7.21565 1.49167 7.02038 1.68693L4.35372 4.35359C4.15845 4.54886 3.84187 4.54886 3.64661 4.35359L0.979943 1.68693C0.784681 1.49167 0.784681 1.17508 0.979943 0.979821C1.1752 0.784559 1.49179 0.784559 1.68705 0.979821L4.00016 3.29293L6.31328 0.979821C6.50854 0.784558 6.82512 0.784558 7.02038 0.979821Z" clip-rule="evenodd"/></symbol><symbol viewBox="0 0 5 8" id="svg-arrow-left"><path fill-rule="evenodd" d="M4.52532 7.77527C4.28124 8.01935 3.88551 8.01935 3.64143 7.77527L0.308098 4.44194C0.064021 4.19786 0.064021 3.80213 0.308099 3.55806L3.64143 0.224722C3.88551 -0.0193553 4.28124 -0.0193553 4.52532 0.224722C4.76939 0.4688 4.76939 0.864528 4.52532 1.10861L1.63392 4L4.52532 6.89139C4.76939 7.13547 4.76939 7.53119 4.52532 7.77527Z" clip-rule="evenodd"/></symbol><symbol fill="none" viewBox="0 0 32 8" id="svg-arrow-long-right"><path fill="currentColor" d="M1 3.5C0.723858 3.5 0.5 3.72386 0.5 4C0.5 4.27614 0.723858 4.5 1 4.5V3.5ZM31.3536 4.35355C31.5488 4.15829 31.5488 3.84171 31.3536 3.64645L28.1716 0.464466C27.9763 0.269204 27.6597 0.269204 27.4645 0.464466C27.2692 0.659728 27.2692 0.976311 27.4645 1.17157L30.2929 4L27.4645 6.82843C27.2692 7.02369 27.2692 7.34027 27.4645 7.53553C27.6597 7.7308 27.9763 7.7308 28.1716 7.53553L31.3536 4.35355ZM1 4.5H31V3.5H1V4.5Z"/></symbol><symbol viewBox="0 0 5 8" id="svg-arrow-right"><path fill-rule="evenodd" d="M0.474684 0.224728C0.718762 -0.0193499 1.11449 -0.0193499 1.35857 0.224728L4.6919 3.55806C4.93598 3.80214 4.93598 4.19787 4.6919 4.44194L1.35857 7.77528C1.11449 8.01936 0.718762 8.01936 0.474685 7.77528C0.230607 7.5312 0.230607 7.13547 0.474685 6.89139L3.36608 4L0.474684 1.10861C0.230607 0.864534 0.230607 0.468805 0.474684 0.224728Z" clip-rule="evenodd"/></symbol><symbol fill="none" viewBox="0 0 8 8" id="svg-cancel"><path fill="currentColor" d="M4.73292 4.00006L7.84796 0.884861C8.05068 0.68223 8.05068 0.354604 7.84796 0.151973C7.64533 -0.0506577 7.31771 -0.0506577 7.11509 0.151973L3.99995 3.26717L0.884913 0.151973C0.682192 -0.0506577 0.354668 -0.0506577 0.152041 0.151973C-0.0506804 0.354604 -0.0506804 0.68223 0.152041 0.884861L3.26708 4.00006L0.152041 7.11526C-0.0506804 7.31789 -0.0506804 7.64552 0.152041 7.84815C0.253022 7.94922 0.385797 8 0.518477 8C0.651157 8 0.783837 7.94922 0.884913 7.84815L3.99995 4.73295L7.11509 7.84815C7.21616 7.94922 7.34884 8 7.48152 8C7.6142 8 7.74688 7.94922 7.84796 7.84815C8.05068 7.64552 8.05068 7.31789 7.84796 7.11526L4.73292 4.00006Z"/></symbol><symbol fill="none" viewBox="0 0 19 17" id="svg-cart"><path d="M4.31 1H1.31M4.55 1L6.71 8.84C6.89029 9.45825 7.26474 10.0021 7.77799 10.3911C8.29123 10.78 8.91603 10.9936 9.56 11H18.3V1H4.55ZM11.31 14.5C11.31 15.3284 10.6384 16 9.81 16C8.98157 16 8.31 15.3284 8.31 14.5C8.31 13.6716 8.98157 13 9.81 13C10.6384 13 11.31 13.6716 11.31 14.5ZM18.31 14.5C18.31 15.3284 17.6384 16 16.81 16C15.9816 16 15.31 15.3284 15.31 14.5C15.31 13.6716 15.9816 13 16.81 13C17.6384 13 18.31 13.6716 18.31 14.5Z"/></symbol><symbol viewBox="0 0 24 24" id="svg-chat"><path fill="currentColor" d="M6 14h8v-2H6Zm0-3h12V9H6Zm0-3h12V6H6ZM2 22V4q0-.825.588-1.413Q3.175 2 4 2h16q.825 0 1.413.587Q22 3.175 22 4v12q0 .825-.587 1.413Q20.825 18 20 18H6Z"/></symbol><symbol fill="none" viewBox="0 0 10 8" id="svg-check"><path fill="currentColor" d="M8.49373 0.258435C8.83831 -0.0861451 9.39698 -0.0861451 9.74156 0.258435C10.0861 0.603016 10.0861 1.16169 9.74156 1.50627L4.44745 6.80039C4.10287 7.14497 3.54419 7.14497 3.19961 6.80039L0.258435 3.85921C-0.0861451 3.51463 -0.0861451 2.95596 0.258435 2.61138C0.603015 2.2668 1.16169 2.2668 1.50627 2.61138L3.82353 4.92864L8.49373 0.258435Z"/></symbol><symbol fill="none" viewBox="0 0 12 12" id="svg-close"><path stroke="currentColor" d="M11.603.396484L.397353 11.5967M.400513.394531L11.6007 11.6002"/></symbol><symbol fill="none" viewBox="0 0 20 20" id="svg-discount"><path stroke="#000" d="M1.646 18.646L18.646 1.646"/><circle cx="4" cy="4" r="3.5" stroke="#000"/><circle cx="16" cy="16" r="3.5" stroke="#000"/></symbol><symbol viewBox="0 0 20 18" id="svg-favourites"><path d="M10 16.8C10 16.8 19 12.49 19 5.93996C18.9922 4.8697 18.6217 3.83372 17.9489 3.00129C17.2762 2.16886 16.341 1.5892 15.2962 1.35702C14.2514 1.12485 13.1587 1.25388 12.1968 1.72303C11.2348 2.19218 10.4603 2.97373 10 3.93996C9.53965 2.97373 8.76522 2.19218 7.80324 1.72303C6.84125 1.25388 5.7486 1.12485 4.7038 1.35702C3.65899 1.5892 2.72381 2.16886 2.05107 3.00129C1.37833 3.83372 1.00779 4.8697 1 5.93996C1 12.49 10 16.8 10 16.8Z"/></symbol><symbol fill="none" viewBox="0 0 20 18" id="svg-heart"><path d="M10 16.8C10 16.8 19 12.49 19 5.93996C18.9922 4.8697 18.6217 3.83372 17.9489 3.00129C17.2762 2.16886 16.341 1.5892 15.2962 1.35702C14.2514 1.12485 13.1587 1.25388 12.1968 1.72303C11.2348 2.19218 10.4603 2.97373 10 3.93996C9.53965 2.97373 8.76522 2.19218 7.80324 1.72303C6.84125 1.25388 5.7486 1.12485 4.7038 1.35702C3.65899 1.5892 2.72381 2.16886 2.05107 3.00129C1.37833 3.83372 1.00779 4.8697 1 5.93996C1 12.49 10 16.8 10 16.8Z"/></symbol><symbol viewBox="0 0 24 24" id="svg-mail"><path fill="currentColor" d="M4 20q-.825 0-1.412-.587Q2 18.825 2 18V6q0-.825.588-1.412Q3.175 4 4 4h16q.825 0 1.413.588Q22 5.175 22 6v12q0 .825-.587 1.413Q20.825 20 20 20Zm8-7l8-5V6l-8 5l-8-5v2Z"/></symbol><symbol viewBox="0 0 24 24" id="svg-phone"><path fill="currentColor" d="M20 12q-.4 0-.712-.288q-.313-.287-.363-.712q-.325-2.325-1.962-3.963Q15.325 5.4 13 5.075q-.425-.05-.712-.35Q12 4.425 12 4t.3-.713q.3-.287.7-.237q3.15.35 5.375 2.575T20.95 11q.05.4-.238.7q-.287.3-.712.3Zm-4.175 0q-.325 0-.575-.225q-.25-.225-.375-.6q-.2-.725-.762-1.288q-.563-.562-1.288-.762q-.375-.125-.6-.375Q12 8.5 12 8.15q0-.5.35-.813q.35-.312.775-.212q1.4.325 2.413 1.337q1.012 1.013 1.337 2.413q.1.425-.225.775q-.325.35-.825.35Zm4.125 9q-3.225 0-6.287-1.438q-3.063-1.437-5.425-3.8q-2.363-2.362-3.8-5.425Q3 7.275 3 4.05q0-.45.3-.75t.75-.3H8.1q.35 0 .625.225t.325.575l.65 3.5q.05.35-.012.637q-.063.288-.288.513L7 10.9q1.05 1.8 2.625 3.375T13.1 17l2.35-2.35q.225-.225.588-.338q.362-.112.712-.062l3.45.7q.35.075.575.337q.225.263.225.613v4.05q0 .45-.3.75t-.75.3Z"/></symbol><symbol fill="none" viewBox="0 0 10 10" id="svg-plus"><path fill="#000" d="M10 4.44446H0V5.55557H10V4.44446Z"/><path fill="#000" d="M4.44434 0L4.44434 10H5.55545L5.55545 0H4.44434Z"/></symbol><symbol fill="none" viewBox="0 0 20 18" id="svg-profile"><circle cx="9.818" cy="5.333" r="4.833" stroke="#000"/><path fill="#000" fill-rule="evenodd" d="M18.6364 18C18.6364 18 18.6364 18 18.6364 18C18.6364 17.0218 17.911 15.926 16.2751 15.0172C14.6731 14.1272 12.3922 13.5454 9.81821 13.5454C7.24421 13.5454 4.96332 14.1272 3.36133 15.0172C1.72546 15.926 1 17.0218 1 18C1 18 1 18 1 18H1.64846e-10C1.64846e-10 18 0 18 0 18C0 14.9875 4.39576 12.5454 9.81821 12.5454C15.2407 12.5454 19.6364 14.9875 19.6364 18C19.6364 18 19.6364 18 19.6364 18H18.6364Z" clip-rule="evenodd"/></symbol><symbol fill="none" viewBox="0 0 9 9" id="svg-refresh"><path fill="currentColor" d="M7.6773 1.32187C6.86116 0.50625 5.74109 0 4.49719 0C2.00938 0 0 2.01375 0 4.5C0 6.98625 2.00938 9 4.49719 9C6.59662 9 8.34709 7.56563 8.84803 5.625H7.6773C7.21576 6.93562 5.96623 7.875 4.49719 7.875C2.63415 7.875 1.12008 6.36187 1.12008 4.5C1.12008 2.63813 2.63415 1.125 4.49719 1.125C5.43152 1.125 6.26454 1.51312 6.87242 2.12625L5.06004 3.9375H9V0L7.6773 1.32187Z"/></symbol><symbol fill="none" viewBox="0 0 18 19" id="svg-search"><path d="M14.55 14.91L17.39 17.74M17 9C17 13.4183 13.4183 17 9 17C4.58172 17 1 13.4183 1 9C1 4.58172 4.58172 1 9 1C13.4183 1 17 4.58172 17 9Z"/></symbol><symbol viewBox="0 0 24 24" id="svg-tg"><path fill="currentColor" d="m20.665 3.717l-17.73 6.837c-1.21.486-1.203 1.161-.222 1.462l4.552 1.42l10.532-6.645c.498-.303.953-.14.579.192l-8.533 7.701h-.002l.002.001l-.314 4.692c.46 0 .663-.211.921-.46l2.211-2.15l4.599 3.397c.848.467 1.457.227 1.668-.785l3.019-14.228c.309-1.239-.473-1.8-1.282-1.434z"/></symbol><symbol viewBox="0 0 512 512" id="svg-vk"><path fill="currentColor" fill-rule="evenodd" d="M484.7 132c3.56-11.28 0-19.48-15.75-19.48h-52.37c-13.21 0-19.31 7.18-22.87 14.86c0 0-26.94 65.6-64.56 108.13c-12.2 12.3-17.79 16.4-24.4 16.4c-3.56 0-8.14-4.1-8.14-15.37V131.47c0-13.32-4.06-19.47-15.25-19.47H199c-8.14 0-13.22 6.15-13.22 12.3c0 12.81 18.81 15.89 20.84 51.76V254c0 16.91-3 20-9.66 20c-17.79 0-61-66.11-86.92-141.44C105 117.64 99.88 112 86.66 112H33.79C18.54 112 16 119.17 16 126.86c0 13.84 17.79 83.53 82.86 175.77c43.21 63 104.72 96.86 160.13 96.86c33.56 0 37.62-7.69 37.62-20.5v-47.66c0-15.37 3.05-17.93 13.73-17.93c7.62 0 21.35 4.09 52.36 34.33C398.28 383.6 404.38 400 424.21 400h52.36c15.25 0 22.37-7.69 18.3-22.55c-4.57-14.86-21.86-36.38-44.23-62c-12.2-14.34-30.5-30.23-36.09-37.92c-7.62-10.25-5.59-14.35 0-23.57c-.51 0 63.55-91.22 70.15-122"/></symbol><symbol viewBox="0 0 24 24" id="svg-whatsapp"><path fill="currentColor" d="M19.05 4.91A9.816 9.816 0 0 0 12.04 2c-5.46 0-9.91 4.45-9.91 9.91c0 1.75.46 3.45 1.32 4.95L2.05 22l5.25-1.38c1.45.79 3.08 1.21 4.74 1.21c5.46 0 9.91-4.45 9.91-9.91c0-2.65-1.03-5.14-2.9-7.01zm-7.01 15.24c-1.48 0-2.93-.4-4.2-1.15l-.3-.18l-3.12.82l.83-3.04l-.2-.31a8.264 8.264 0 0 1-1.26-4.38c0-4.54 3.7-8.24 8.24-8.24c2.2 0 4.27.86 5.82 2.42a8.183 8.183 0 0 1 2.41 5.83c.02 4.54-3.68 8.23-8.22 8.23zm4.52-6.16c-.25-.12-1.47-.72-1.69-.81c-.23-.08-.39-.12-.56.12c-.17.25-.64.81-.78.97c-.14.17-.29.19-.54.06c-.25-.12-1.05-.39-1.99-1.23c-.74-.66-1.23-1.47-1.38-1.72c-.14-.25-.02-.38.11-.51c.11-.11.25-.29.37-.43s.17-.25.25-.41c.08-.17.04-.31-.02-.43s-.56-1.34-.76-1.84c-.2-.48-.41-.42-.56-.43h-.48c-.17 0-.43.06-.66.31c-.22.25-.86.85-.86 2.07c0 1.22.89 2.4 1.01 2.56c.12.17 1.75 2.67 4.23 3.74c.59.26 1.05.41 1.41.52c.59.19 1.13.16 1.56.1c.48-.07 1.47-.6 1.67-1.18c.21-.58.21-1.07.14-1.18s-.22-.16-.47-.28z"/></symbol></svg>