<svg style="display: none;" aria-hidden="true" xmlns="http://www.w3.org/2000/svg" xmlns:xlink="http://www.w3.org/1999/xlink"><symbol viewBox="0 0 8 5" id="svg-arrow-dropdown"><path fill-rule="evenodd" d="M7.02038 0.979821C7.21565 1.17508 7.21565 1.49167 7.02038 1.68693L4.35372 4.35359C4.15845 4.54886 3.84187 4.54886 3.64661 4.35359L0.979943 1.68693C0.784681 1.49167 0.784681 1.17508 0.979943 0.979821C1.1752 0.784559 1.49179 0.784559 1.68705 0.979821L4.00016 3.29293L6.31328 0.979821C6.50854 0.784558 6.82512 0.784558 7.02038 0.979821Z" clip-rule="evenodd"/></symbol><symbol viewBox="0 0 5 8" id="svg-arrow-left"><path fill-rule="evenodd" d="M4.52532 7.77527C4.28124 8.01935 3.88551 8.01935 3.64143 7.77527L0.308098 4.44194C0.064021 4.19786 0.064021 3.80213 0.308099 3.55806L3.64143 0.224722C3.88551 -0.0193553 4.28124 -0.0193553 4.52532 0.224722C4.76939 0.4688 4.76939 0.864528 4.52532 1.10861L1.63392 4L4.52532 6.89139C4.76939 7.13547 4.76939 7.53119 4.52532 7.77527Z" clip-rule="evenodd"/></symbol><symbol fill="none" viewBox="0 0 32 8" id="svg-arrow-long-right"><path fill="currentColor" d="M1 3.5C0.723858 3.5 0.5 3.72386 0.5 4C0.5 4.27614 0.723858 4.5 1 4.5V3.5ZM31.3536 4.35355C31.5488 4.15829 31.5488 3.84171 31.3536 3.64645L28.1716 0.464466C27.9763 0.269204 27.6597 0.269204 27.4645 0.464466C27.2692 0.659728 27.2692 0.976311 27.4645 1.17157L30.2929 4L27.4645 6.82843C27.2692 7.02369 27.2692 7.34027 27.4645 7.53553C27.6597 7.7308 27.9763 7.7308 28.1716 7.53553L31.3536 4.35355ZM1 4.5H31V3.5H1V4.5Z"/></symbol><symbol viewBox="0 0 5 8" id="svg-arrow-right"><path fill-rule="evenodd" d="M0.474684 0.224728C0.718762 -0.0193499 1.11449 -0.0193499 1.35857 0.224728L4.6919 3.55806C4.93598 3.80214 4.93598 4.19787 4.6919 4.44194L1.35857 7.77528C1.11449 8.01936 0.718762 8.01936 0.474685 7.77528C0.230607 7.5312 0.230607 7.13547 0.474685 6.89139L3.36608 4L0.474684 1.10861C0.230607 0.864534 0.230607 0.468805 0.474684 0.224728Z" clip-rule="evenodd"/></symbol><symbol fill="none" viewBox="0 0 8 8" id="svg-cancel"><path fill="currentColor" d="M4.73292 4.00006L7.84796 0.884861C8.05068 0.68223 8.05068 0.354604 7.84796 0.151973C7.64533 -0.0506577 7.31771 -0.0506577 7.11509 0.151973L3.99995 3.26717L0.884913 0.151973C0.682192 -0.0506577 0.354668 -0.0506577 0.152041 0.151973C-0.0506804 0.354604 -0.0506804 0.68223 0.152041 0.884861L3.26708 4.00006L0.152041 7.11526C-0.0506804 7.31789 -0.0506804 7.64552 0.152041 7.84815C0.253022 7.94922 0.385797 8 0.518477 8C0.651157 8 0.783837 7.94922 0.884913 7.84815L3.99995 4.73295L7.11509 7.84815C7.21616 7.94922 7.34884 8 7.48152 8C7.6142 8 7.74688 7.94922 7.84796 7.84815C8.05068 7.64552 8.05068 7.31789 7.84796 7.11526L4.73292 4.00006Z"/></symbol><symbol fill="none" viewBox="0 0 19 17" id="svg-cart"><path d="M4.31 1H1.31M4.55 1L6.71 8.84C6.89029 9.45825 7.26474 10.0021 7.77799 10.3911C8.29123 10.78 8.91603 10.9936 9.56 11H18.3V1H4.55ZM11.31 14.5C11.31 15.3284 10.6384 16 9.81 16C8.98157 16 8.31 15.3284 8.31 14.5C8.31 13.6716 8.98157 13 9.81 13C10.6384 13 11.31 13.6716 11.31 14.5ZM18.31 14.5C18.31 15.3284 17.6384 16 16.81 16C15.9816 16 15.31 15.3284 15.31 14.5C15.31 13.6716 15.9816 13 16.81 13C17.6384 13 18.31 13.6716 18.31 14.5Z"/></symbol><symbol fill="none" viewBox="0 0 10 8" id="svg-check"><path fill="currentColor" d="M8.49373 0.258435C8.83831 -0.0861451 9.39698 -0.0861451 9.74156 0.258435C10.0861 0.603016 10.0861 1.16169 9.74156 1.50627L4.44745 6.80039C4.10287 7.14497 3.54419 7.14497 3.19961 6.80039L0.258435 3.85921C-0.0861451 3.51463 -0.0861451 2.95596 0.258435 2.61138C0.603015 2.2668 1.16169 2.2668 1.50627 2.61138L3.82353 4.92864L8.49373 0.258435Z"/></symbol><symbol fill="none" viewBox="0 0 12 12" id="svg-close"><path stroke="currentColor" d="M11.603.396484L.397353 11.5967M.400513.394531L11.6007 11.6002"/></symbol><symbol fill="none" viewBox="0 0 20 20" id="svg-discount"><path stroke="#000" d="M1.646 18.646L18.646 1.646"/><circle cx="4" cy="4" r="3.5" stroke="#000"/><circle cx="16" cy="16" r="3.5" stroke="#000"/></symbol><symbol viewBox="0 0 20 18" id="svg-favourites"><path d="M10 16.8C10 16.8 19 12.49 19 5.93996C18.9922 4.8697 18.6217 3.83372 17.9489 3.00129C17.2762 2.16886 16.341 1.5892 15.2962 1.35702C14.2514 1.12485 13.1587 1.25388 12.1968 1.72303C11.2348 2.19218 10.4603 2.97373 10 3.93996C9.53965 2.97373 8.76522 2.19218 7.80324 1.72303C6.84125 1.25388 5.7486 1.12485 4.7038 1.35702C3.65899 1.5892 2.72381 2.16886 2.05107 3.00129C1.37833 3.83372 1.00779 4.8697 1 5.93996C1 12.49 10 16.8 10 16.8Z"/></symbol><symbol fill="none" viewBox="0 0 20 18" id="svg-heart"><path d="M10 16.8C10 16.8 19 12.49 19 5.93996C18.9922 4.8697 18.6217 3.83372 17.9489 3.00129C17.2762 2.16886 16.341 1.5892 15.2962 1.35702C14.2514 1.12485 13.1587 1.25388 12.1968 1.72303C11.2348 2.19218 10.4603 2.97373 10 3.93996C9.53965 2.97373 8.76522 2.19218 7.80324 1.72303C6.84125 1.25388 5.7486 1.12485 4.7038 1.35702C3.65899 1.5892 2.72381 2.16886 2.05107 3.00129C1.37833 3.83372 1.00779 4.8697 1 5.93996C1 12.49 10 16.8 10 16.8Z"/></symbol><symbol fill="none" viewBox="0 0 10 10" id="svg-plus"><path fill="#000" d="M10 4.44446H0V5.55557H10V4.44446Z"/><path fill="#000" d="M4.44434 0L4.44434 10H5.55545L5.55545 0H4.44434Z"/></symbol><symbol fill="none" viewBox="0 0 20 18" id="svg-profile"><circle cx="9.818" cy="5.333" r="4.833" stroke="#000"/><path fill="#000" fill-rule="evenodd" d="M18.6364 18C18.6364 18 18.6364 18 18.6364 18C18.6364 17.0218 17.911 15.926 16.2751 15.0172C14.6731 14.1272 12.3922 13.5454 9.81821 13.5454C7.24421 13.5454 4.96332 14.1272 3.36133 15.0172C1.72546 15.926 1 17.0218 1 18C1 18 1 18 1 18H1.64846e-10C1.64846e-10 18 0 18 0 18C0 14.9875 4.39576 12.5454 9.81821 12.5454C15.2407 12.5454 19.6364 14.9875 19.6364 18C19.6364 18 19.6364 18 19.6364 18H18.6364Z" clip-rule="evenodd"/></symbol><symbol fill="none" viewBox="0 0 9 9" id="svg-refresh"><path fill="currentColor" d="M7.6773 1.32187C6.86116 0.50625 5.74109 0 4.49719 0C2.00938 0 0 2.01375 0 4.5C0 6.98625 2.00938 9 4.49719 9C6.59662 9 8.34709 7.56563 8.84803 5.625H7.6773C7.21576 6.93562 5.96623 7.875 4.49719 7.875C2.63415 7.875 1.12008 6.36187 1.12008 4.5C1.12008 2.63813 2.63415 1.125 4.49719 1.125C5.43152 1.125 6.26454 1.51312 6.87242 2.12625L5.06004 3.9375H9V0L7.6773 1.32187Z"/></symbol><symbol fill="none" viewBox="0 0 18 19" id="svg-search"><path d="M14.55 14.91L17.39 17.74M17 9C17 13.4183 13.4183 17 9 17C4.58172 17 1 13.4183 1 9C1 4.58172 4.58172 1 9 1C13.4183 1 17 4.58172 17 9Z"/></symbol><symbol fill="none" viewBox="0 0 15 13" id="svg-tg"><path fill="#fff" d="M13.9199 0.450447L0.933913 5.43237C0.435771 5.62465 0.470126 6.34135 0.985444 6.48119L5.52025 7.77474C5.58896 7.79222 5.64049 7.82718 5.69202 7.86214L11.0513 12.2497C11.5667 12.6867 12.3396 12.4071 12.4771 11.7428L14.5212 0.939898C14.5727 0.60777 14.2291 0.328084 13.9199 0.450447Z"/><path fill="#fff" d="M6.41345 11.5855L8.04529 9.80249L6.12144 8.22925L5.70918 11.7603C5.94966 11.8477 6.2245 11.8127 6.41345 11.5855Z"/><path fill="#000" d="M11.6182 2.74036L4.12888 7.39015L5.31411 11.3407C5.38282 11.5505 5.53741 11.7078 5.70919 11.7777L6.12144 8.24669L11.7384 2.93264C11.8415 2.82776 11.7212 2.67044 11.6182 2.74036Z"/></symbol><symbol fill="none" viewBox="0 0 15 9" id="svg-vk"><path fill="#fff" d="M14.8663 7.85447C14.826 7.78697 14.5766 7.24505 13.3765 6.13122C12.1201 4.96488 12.2889 5.15427 13.8021 3.13756C14.7238 1.90935 15.0922 1.15929 14.9769 0.838641C14.8672 0.532993 14.1894 0.613624 14.1894 0.613624L11.9354 0.62675C11.9354 0.62675 11.7686 0.604249 11.6439 0.678317C11.5229 0.751447 11.4451 0.920209 11.4451 0.920209C11.4451 0.920209 11.0879 1.87091 10.6116 2.67909C9.60746 4.38453 9.20524 4.47454 9.04117 4.36859C8.65958 4.12201 8.75521 3.37664 8.75521 2.84785C8.75521 1.19492 9.00554 0.505804 8.26674 0.327665C8.02109 0.268599 7.84108 0.229221 7.21385 0.222658C6.40941 0.21422 5.7278 0.22547 5.34246 0.413922C5.08557 0.539556 4.88774 0.81989 5.00869 0.835828C5.15776 0.855517 5.49528 0.926773 5.67436 1.17054C5.90594 1.48463 5.8975 2.19155 5.8975 2.19155C5.8975 2.19155 6.03063 4.13701 5.58716 4.3789C5.28246 4.54485 4.86524 4.20639 3.96986 2.65846C3.51139 1.86622 3.16449 0.98959 3.16449 0.98959C3.16449 0.98959 3.09792 0.826453 2.97885 0.739259C2.83446 0.633313 2.63195 0.599561 2.63195 0.599561L0.488667 0.612687C0.488667 0.612687 0.167081 0.622063 0.0489476 0.761761C-0.0560601 0.886457 0.0405095 1.14335 0.0405095 1.14335C0.0405095 1.14335 1.71876 5.06895 3.61827 7.04816C5.36121 8.86236 7.33948 8.74329 7.33948 8.74329H8.2358C8.2358 8.74329 8.50675 8.71329 8.64458 8.56421C8.77209 8.42733 8.7674 8.17044 8.7674 8.17044C8.7674 8.17044 8.74958 6.96753 9.30838 6.79033C9.85873 6.61594 10.5657 7.95292 11.3148 8.46764C11.8811 8.85674 12.3114 8.77142 12.3114 8.77142L14.315 8.74329C14.315 8.74329 15.3632 8.6786 14.8663 7.85447Z"/></symbol><symbol fill="none" viewBox="0 0 14 14" id="svg-whatsapp"><path fill="#fff" fill-rule="evenodd" d="M11.9602 2.03455C10.6442 0.723242 8.8939 0.000769042 7.02928 0C3.18704 0 0.0600162 3.11197 0.0584707 6.93685C0.0579556 8.15955 0.378901 9.3531 0.988936 10.4052L0 14L3.69533 13.0353C4.71355 13.588 5.85986 13.8793 7.02645 13.8797H7.02936C10.8712 13.8797 13.9985 10.7675 14 6.94241C14.0008 5.08867 13.2764 3.34576 11.9602 2.03455ZM7.02928 12.7081H7.02687C5.98728 12.7077 4.96769 12.4296 4.07801 11.9044L3.86654 11.7793L1.67367 12.3519L2.25898 10.2241L2.12117 10.0059C1.54119 9.08787 1.23493 8.02676 1.23544 6.93728C1.23664 3.75814 3.8358 1.17168 7.0316 1.17168C8.57914 1.17219 10.0339 1.77273 11.1277 2.86263C12.2216 3.95254 12.8236 5.40125 12.8231 6.94198C12.8217 10.1214 10.2228 12.7081 7.02928 12.7081ZM10.2073 8.38958C10.0332 8.30276 9.17681 7.88354 9.01711 7.82561C8.85758 7.76776 8.74133 7.73896 8.62533 7.91243C8.50916 8.08589 8.17542 8.47639 8.07377 8.592C7.97211 8.7077 7.87062 8.72223 7.69641 8.63541C7.5222 8.54868 6.96102 8.36556 6.29569 7.77502C5.77795 7.31539 5.42842 6.74775 5.32676 6.57429C5.22527 6.40066 5.3259 6.31589 5.40317 6.22053C5.59172 5.98751 5.78053 5.74321 5.83857 5.6276C5.8967 5.5119 5.86759 5.41064 5.82397 5.32391C5.78053 5.23718 5.4322 4.38397 5.28709 4.03679C5.14559 3.69893 5.00212 3.74456 4.89514 3.73926C4.79365 3.73422 4.67749 3.73319 4.56132 3.73319C4.44523 3.73319 4.25651 3.77651 4.09681 3.95015C3.9372 4.12369 3.48729 4.54299 3.48729 5.3962C3.48729 6.24941 4.11141 7.07366 4.19847 7.18936C4.28553 7.30505 5.4267 9.05591 7.17387 9.80666C7.58943 9.98542 7.91381 10.092 8.16684 10.1719C8.58412 10.3038 8.96371 10.2852 9.26387 10.2406C9.59856 10.1908 10.2943 9.82119 10.4396 9.41633C10.5847 9.01139 10.5847 8.66438 10.541 8.592C10.4976 8.51971 10.3814 8.47639 10.2073 8.38958Z" clip-rule="evenodd"/></symbol></svg>