<svg style="display: none;" aria-hidden="true" xmlns="http://www.w3.org/2000/svg" xmlns:xlink="http://www.w3.org/1999/xlink"><symbol viewBox="0 0 8 5" id="svg-arrow-dropdown"><path fill-rule="evenodd" d="M7.02038 0.979821C7.21565 1.17508 7.21565 1.49167 7.02038 1.68693L4.35372 4.35359C4.15845 4.54886 3.84187 4.54886 3.64661 4.35359L0.979943 1.68693C0.784681 1.49167 0.784681 1.17508 0.979943 0.979821C1.1752 0.784559 1.49179 0.784559 1.68705 0.979821L4.00016 3.29293L6.31328 0.979821C6.50854 0.784558 6.82512 0.784558 7.02038 0.979821Z" clip-rule="evenodd"/></symbol><symbol fill="none" viewBox="0 0 19 17" id="svg-cart"><path d="M4.31 1H1.31M4.55 1L6.71 8.84C6.89029 9.45825 7.26474 10.0021 7.77799 10.3911C8.29123 10.78 8.91603 10.9936 9.56 11H18.3V1H4.55ZM11.31 14.5C11.31 15.3284 10.6384 16 9.81 16C8.98157 16 8.31 15.3284 8.31 14.5C8.31 13.6716 8.98157 13 9.81 13C10.6384 13 11.31 13.6716 11.31 14.5ZM18.31 14.5C18.31 15.3284 17.6384 16 16.81 16C15.9816 16 15.31 15.3284 15.31 14.5C15.31 13.6716 15.9816 13 16.81 13C17.6384 13 18.31 13.6716 18.31 14.5Z"/></symbol><symbol class="ciconify ciconify--ion" viewBox="0 0 512 512" id="svg-close"><path fill="currentColor" d="M340.2 160l-84.4 84.3-84-83.9-11.8 11.8 84 83.8-84 83.9 11.8 11.7 84-83.8 84.4 84.2 11.8-11.7-84.4-84.3 84.4-84.2z"/></symbol><symbol fill="none" viewBox="0 0 20 18" id="svg-heart"><path d="M10 16.8C10 16.8 19 12.49 19 5.93996C18.9922 4.8697 18.6217 3.83372 17.9489 3.00129C17.2762 2.16886 16.341 1.5892 15.2962 1.35702C14.2514 1.12485 13.1587 1.25388 12.1968 1.72303C11.2348 2.19218 10.4603 2.97373 10 3.93996C9.53965 2.97373 8.76522 2.19218 7.80324 1.72303C6.84125 1.25388 5.7486 1.12485 4.7038 1.35702C3.65899 1.5892 2.72381 2.16886 2.05107 3.00129C1.37833 3.83372 1.00779 4.8697 1 5.93996C1 12.49 10 16.8 10 16.8Z"/></symbol><symbol fill="none" viewBox="0 0 20 18" id="svg-profile"><circle cx="9.818" cy="5.333" r="4.833" stroke="#000"/><path fill="#000" fill-rule="evenodd" d="M18.6364 18C18.6364 18 18.6364 18 18.6364 18C18.6364 17.0218 17.911 15.926 16.2751 15.0172C14.6731 14.1272 12.3922 13.5454 9.81821 13.5454C7.24421 13.5454 4.96332 14.1272 3.36133 15.0172C1.72546 15.926 1 17.0218 1 18C1 18 1 18 1 18H1.64846e-10C1.64846e-10 18 0 18 0 18C0 14.9875 4.39576 12.5454 9.81821 12.5454C15.2407 12.5454 19.6364 14.9875 19.6364 18C19.6364 18 19.6364 18 19.6364 18H18.6364Z" clip-rule="evenodd"/></symbol><symbol fill="none" viewBox="0 0 18 19" id="svg-search"><path d="M14.55 14.91L17.39 17.74M17 9C17 13.4183 13.4183 17 9 17C4.58172 17 1 13.4183 1 9C1 4.58172 4.58172 1 9 1C13.4183 1 17 4.58172 17 9Z"/></symbol></svg>