<svg width="20" height="18" viewBox="0 0 20 18" fill="none" xmlns="http://www.w3.org/2000/svg">
<path d="M10 16.8C10 16.8 19 12.49 19 5.93996C18.9922 4.8697 18.6217 3.83372 17.9489 3.00129C17.2762 2.16886 16.341 1.5892 15.2962 1.35702C14.2514 1.12485 13.1587 1.25388 12.1968 1.72303C11.2348 2.19218 10.4603 2.97373 10 3.93996C9.53965 2.97373 8.76522 2.19218 7.80324 1.72303C6.84125 1.25388 5.7486 1.12485 4.7038 1.35702C3.65899 1.5892 2.72381 2.16886 2.05107 3.00129C1.37833 3.83372 1.00779 4.8697 1 5.93996C1 12.49 10 16.8 10 16.8Z" stroke-linecap="round" stroke-linejoin="round"/>
</svg>
