<svg width="20" height="18" viewBox="0 0 20 18" fill="none" xmlns="http://www.w3.org/2000/svg">
<circle cx="9.81821" cy="5.33335" r="4.83335" stroke="black"/>
<path fill-rule="evenodd" clip-rule="evenodd" d="M18.6364 18C18.6364 18 18.6364 18 18.6364 18C18.6364 17.0218 17.911 15.926 16.2751 15.0172C14.6731 14.1272 12.3922 13.5454 9.81821 13.5454C7.24421 13.5454 4.96332 14.1272 3.36133 15.0172C1.72546 15.926 1 17.0218 1 18C1 18 1 18 1 18H1.64846e-10C1.64846e-10 18 0 18 0 18C0 14.9875 4.39576 12.5454 9.81821 12.5454C15.2407 12.5454 19.6364 14.9875 19.6364 18C19.6364 18 19.6364 18 19.6364 18H18.6364Z" fill="black"/>
</svg>
