<svg width="15" height="13" viewBox="0 0 15 13" fill="none" xmlns="http://www.w3.org/2000/svg">
<path d="M13.9199 0.450447L0.933913 5.43237C0.435771 5.62465 0.470126 6.34135 0.985444 6.48119L5.52025 7.77474C5.58896 7.79222 5.64049 7.82718 5.69202 7.86214L11.0513 12.2497C11.5667 12.6867 12.3396 12.4071 12.4771 11.7428L14.5212 0.939898C14.5727 0.60777 14.2291 0.328084 13.9199 0.450447Z" fill="white"/>
<path d="M6.41345 11.5855L8.04529 9.80249L6.12144 8.22925L5.70918 11.7603C5.94966 11.8477 6.2245 11.8127 6.41345 11.5855Z" fill="white"/>
<path d="M11.6182 2.74036L4.12888 7.39015L5.31411 11.3407C5.38282 11.5505 5.53741 11.7078 5.70919 11.7777L6.12144 8.24669L11.7384 2.93264C11.8415 2.82776 11.7212 2.67044 11.6182 2.74036Z" fill="black"/>
</svg>
