<svg width="15" height="9" viewBox="0 0 15 9" fill="none" xmlns="http://www.w3.org/2000/svg">
<path d="M14.8663 7.85447C14.826 7.78697 14.5766 7.24505 13.3765 6.13122C12.1201 4.96488 12.2889 5.15427 13.8021 3.13756C14.7238 1.90935 15.0922 1.15929 14.9769 0.838641C14.8672 0.532993 14.1894 0.613624 14.1894 0.613624L11.9354 0.62675C11.9354 0.62675 11.7686 0.604249 11.6439 0.678317C11.5229 0.751447 11.4451 0.920209 11.4451 0.920209C11.4451 0.920209 11.0879 1.87091 10.6116 2.67909C9.60746 4.38453 9.20524 4.47454 9.04117 4.36859C8.65958 4.12201 8.75521 3.37664 8.75521 2.84785C8.75521 1.19492 9.00554 0.505804 8.26674 0.327665C8.02109 0.268599 7.84108 0.229221 7.21385 0.222658C6.40941 0.21422 5.7278 0.22547 5.34246 0.413922C5.08557 0.539556 4.88774 0.81989 5.00869 0.835828C5.15776 0.855517 5.49528 0.926773 5.67436 1.17054C5.90594 1.48463 5.8975 2.19155 5.8975 2.19155C5.8975 2.19155 6.03063 4.13701 5.58716 4.3789C5.28246 4.54485 4.86524 4.20639 3.96986 2.65846C3.51139 1.86622 3.16449 0.98959 3.16449 0.98959C3.16449 0.98959 3.09792 0.826453 2.97885 0.739259C2.83446 0.633313 2.63195 0.599561 2.63195 0.599561L0.488667 0.612687C0.488667 0.612687 0.167081 0.622063 0.0489476 0.761761C-0.0560601 0.886457 0.0405095 1.14335 0.0405095 1.14335C0.0405095 1.14335 1.71876 5.06895 3.61827 7.04816C5.36121 8.86236 7.33948 8.74329 7.33948 8.74329H8.2358C8.2358 8.74329 8.50675 8.71329 8.64458 8.56421C8.77209 8.42733 8.7674 8.17044 8.7674 8.17044C8.7674 8.17044 8.74958 6.96753 9.30838 6.79033C9.85873 6.61594 10.5657 7.95292 11.3148 8.46764C11.8811 8.85674 12.3114 8.77142 12.3114 8.77142L14.315 8.74329C14.315 8.74329 15.3632 8.6786 14.8663 7.85447Z" fill="white"/>
</svg>
