<?xml version="1.0" encoding="iso-8859-1"?>
<!-- Generator: Adobe Illustrator 19.0.0, SVG Export Plug-In . SVG Version: 6.00 Build 0)  -->
<svg xmlns="http://www.w3.org/2000/svg" xmlns:xlink="http://www.w3.org/1999/xlink" version="1.1" id="Layer_1" x="0px" y="0px" viewBox="0 0 496.195 496.195" style="enable-background:new 0 0 496.195 496.195;" xml:space="preserve" width="512" height="512">
<g>
	<path d="M481.18,91.637H125.59c-7.73-30.29-34.8-51.65-66.65-51.65H15c-8.29,0-15,6.71-15,15c0,8.28,6.71,15,15,15h43.94   c19.21,0,35.33,13.76,38.34,32.73c1.299,8.675,8.148,41.812,38.81,193.75v0.01l-9.33,45.73c9.609-0.677,19.972,0.689,29.74,4.32   l7.14-35.03h247.94c6.29,0,11.91-3.93,14.08-9.84l69.61-189.86C498.851,101.992,491.581,91.637,481.18,91.637z M270.91,216.747   v28.48c0,8.29-6.71,15-15,15c-8.28,0-15-6.71-15-15v-28.48h-33.7c-8.29,0-15-6.71-15-15c0-8.28,6.71-15,15-15h33.7v-25.88   c0-8.29,6.72-15,15-15c8.29,0,15,6.71,15,15v25.88h36.45v-25.88c0-8.29,6.71-15,15-15c8.28,0,15,6.71,15,15v25.88h33.7   c8.29,0,15,6.72,15,15c0,8.29-6.71,15-15,15h-33.7v28.48c0,8.29-6.72,15-15,15c-8.29,0-15-6.71-15-15v-28.48H270.91z"/>
	<path d="M201.97,399.127c2.058,9.578,2.156,19.964,0,30h98.59c-2.062-9.598-2.152-19.984,0-30H201.97z"/>
	<path d="M131.47,372.047c-23.104,0-42.08,18.797-42.08,42.08c0,23.2,18.88,42.08,42.08,42.08c23.297,0,42.08-18.977,42.08-42.08   C173.55,391.026,154.767,372.047,131.47,372.047z"/>
	<path d="M371.06,372.047c-23.264,0-42.08,18.95-42.08,42.08c0,23.165,18.848,42.08,42.08,42.08c23.21,0,42.08-18.88,42.08-42.08   C413.14,390.927,394.27,372.047,371.06,372.047z"/>
</g>















</svg>
