<?xml version="1.0" encoding="iso-8859-1"?>
<!-- Generator: Adobe Illustrator 19.0.0, SVG Export Plug-In . SVG Version: 6.00 Build 0)  -->
<svg xmlns="http://www.w3.org/2000/svg" xmlns:xlink="http://www.w3.org/1999/xlink" version="1.1" id="Layer_1" x="0px" y="0px" viewBox="0 0 498.72 498.72" style="enable-background:new 0 0 498.72 498.72;" xml:space="preserve" width="512" height="512">
<g>
	<path d="M157.92,288.73c28.14,0,51.03-30.24,51.03-67.41s-22.89-67.4-51.03-67.4c-28.14,0-51.03,30.23-51.03,67.4   S129.78,288.73,157.92,288.73z"/>
	<path d="M339.32,288.73c28.14,0,51.03-30.24,51.03-67.41s-22.89-67.4-51.03-67.4c-28.14,0-51.03,30.23-51.03,67.4   S311.18,288.73,339.32,288.73z"/>
	<path d="M75.36,288.84c-25.07,0-45.97,24-50.23,55.52h100.46C121.33,312.84,100.43,288.84,75.36,288.84z"/>
	<path d="M248.62,288.84c-25.07,0-45.97,24-50.23,55.52h100.46C294.59,312.84,273.69,288.84,248.62,288.84z"/>
	<path d="M248.62,143.17c28.14,0,51.03-30.24,51.03-67.4c0-37.17-22.89-67.41-51.03-67.41s-51.03,30.24-51.03,67.41   C197.59,112.93,220.48,143.17,248.62,143.17z"/>
	<path d="M472.11,344.36c-4.26-31.52-25.16-55.52-50.23-55.52s-45.98,24-50.24,55.52H472.11z"/>
	<path d="M31.829,476.816c0.75,7.684,7.209,13.544,14.929,13.544h58.154c7.72,0,14.179-5.86,14.929-13.544l3.899-39.966H27.93   L31.829,476.816z"/>
	<path d="M203.679,476.816c0.75,7.684,7.209,13.543,14.929,13.543h58.154c7.72,0,14.179-5.86,14.929-13.544l3.899-39.966h-95.81   L203.679,476.816z"/>
	<path d="M377.391,476.813c0.748,7.685,7.208,13.546,14.929,13.546h58.162c7.72,0,14.18-5.86,14.929-13.544l3.899-39.966H373.5   L377.391,476.813z"/>
	<path d="M482.475,374.36H16.245C7.273,374.36,0,381.633,0,390.605v0c0,8.972,7.273,16.245,16.245,16.245h466.229   c8.972,0,16.245-7.273,16.245-16.245v0C498.72,381.633,491.447,374.36,482.475,374.36z"/>
</g>















</svg>
