<?xml version="1.0" encoding="iso-8859-1"?>
<!-- Generator: Adobe Illustrator 19.0.0, SVG Export Plug-In . SVG Version: 6.00 Build 0)  -->
<svg xmlns="http://www.w3.org/2000/svg" xmlns:xlink="http://www.w3.org/1999/xlink" version="1.1" id="Layer_1" x="0px" y="0px" viewBox="0 0 493.298 493.298" style="enable-background:new 0 0 493.298 493.298;" xml:space="preserve" width="512" height="512">
<g>
	<path d="M2.929,402.479l87.888,87.888c3.905,3.905,10.237,3.905,14.142,0l8.569-8.569l-102.03-102.03l-8.569,8.569   C-0.976,392.242-0.976,398.573,2.929,402.479z"/>
	<path d="M388.337,2.934l-8.099,8.104l102.03,102.03l8.104-8.109c3.903-3.906,3.902-10.235-0.002-14.14L402.481,2.931   C398.575-0.975,392.242-0.974,388.337,2.934z"/>
	<path d="M34.638,310.428c-3.299,19.286-3.128,18.334-7.31,42.75c5.145,5.145,104.395,104.4,112.47,112.46   c37.311-6.381,34.691-5.941,42.74-7.31C175.888,451.678,43.18,318.97,34.638,310.428z"/>
	<path d="M279.318,45.958l-233.36,233.36c2.891,2.893,164.807,164.807,167.7,167.7l233.36-233.36   C447.016,213.656,279.318,45.958,279.318,45.958z M246.488,325.758c-43.3,0-78.53-35.22-78.53-78.52   c0-32.826,20.019-61.645,49.93-73.16c8.171-3.197,17.356,1.284,19.85,9.73c7.849,26.633,37.363,41.939,64.23,31.44   c8.201-3.188,17.362,1.329,19.84,9.72C336.685,275.256,298.78,325.758,246.488,325.758z"/>
	<path d="M216.248,209.218c-11.41,9.03-18.29,22.84-18.29,38.02c0,26.75,21.77,48.52,48.53,48.52c26.55,0,48.2-21.44,48.52-47.92   C262.607,252.323,231.775,236,216.248,209.218z"/>
	<path d="M353.638,26.868c-46.297,7.905-42.69,7.285-43.53,7.44c120.375,120.39,147.996,148.006,148.56,148.57   c0.05-0.3,7.39-43.25,7.44-43.55C457.908,131.148,353.638,26.868,353.638,26.868z"/>
</g>















</svg>
