<?xml version="1.0" encoding="iso-8859-1"?>
<!-- Generator: Adobe Illustrator 19.0.0, SVG Export Plug-In . SVG Version: 6.00 Build 0)  -->
<svg xmlns="http://www.w3.org/2000/svg" xmlns:xlink="http://www.w3.org/1999/xlink" version="1.1" id="Layer_1" x="0px" y="0px" viewBox="0 0 502.5 502.5" style="enable-background:new 0 0 502.5 502.5;" xml:space="preserve" width="512" height="512">
<g>
	<path d="M276.54,45.44V15c0-8.284-6.716-15-15-15h-20.58c-8.284,0-15,6.716-15,15v30.44   C226.617,45.407,275.883,45.407,276.54,45.44z"/>
	<path d="M214.34,126.24c11.81-3,24.18-4.6,36.91-4.6s25.1,1.6,36.91,4.6c8.45-4.57,14.21-13.52,14.21-23.78   c0-14.899-12.127-27.04-27.04-27.04h-48.16c-14.969,0-27.04,12.201-27.04,27.04C200.13,112.72,205.89,121.67,214.34,126.24z"/>
	<path d="M251.25,151.64c-65.993,0-119.86,53.677-119.86,119.86v16.47h239.72V271.5C371.11,205.296,317.222,151.64,251.25,151.64z"/>
	<path d="M131.39,481.74c0,11.45,9.31,20.76,20.76,20.76h198.2c11.45,0,20.76-9.31,20.76-20.76v-36.35H131.39V481.74z"/>
	<rect x="131.39" y="317.97" width="239.72" height="97.42"/>
</g>















</svg>
