<?xml version="1.0" encoding="iso-8859-1"?>
<!-- Generator: Adobe Illustrator 19.0.0, SVG Export Plug-In . SVG Version: 6.00 Build 0)  -->
<svg xmlns="http://www.w3.org/2000/svg" xmlns:xlink="http://www.w3.org/1999/xlink" version="1.1" id="Layer_1" x="0px" y="0px" viewBox="0 0 504.043 504.043" style="enable-background:new 0 0 504.043 504.043;" xml:space="preserve" width="512" height="512">
<g>
	<path d="M419.092,46.203c-91.898-61.602-242.239-61.604-334.14,0c-84.157,56.421-87.547,142.703-11.85,201.67   c3.65,2.85,5.78,7.21,5.78,11.84v224.8c0,10.771,8.76,19.53,19.53,19.53h307.22c10.77,0,19.52-8.76,19.52-19.53v-224.8   c0-4.63,2.14-8.99,5.79-11.84C506.612,188.927,503.277,102.643,419.092,46.203z M153.082,133.003c0,8.28-6.71,15-15,15   c-8.28,0-15-6.72-15-15v-12.16c0-8.28,6.72-15,15-15c8.29,0,15,6.72,15,15V133.003z M204.872,426.473c0,8.28-6.71,15-15,15   c-8.28,0-15-6.72-15-15v-12.16c0-8.28,6.72-15,15-15c8.29,0,15,6.72,15,15V426.473z M204.872,267.003c0,8.29-6.71,15-15,15   c-8.28,0-15-6.71-15-15v-14.96c0-8.28,6.72-15,15-15c8.29,0,15,6.72,15,15V267.003z M267.332,116.023v-12.16c0-8.28,6.71-15,15-15   c8.28,0,15,6.72,15,15v12.16c0,8.28-6.72,15-15,15C274.042,131.023,267.332,124.303,267.332,116.023z M315.462,315.913   c0,8.29-6.72,15-15,15c-8.29,0-15-6.71-15-15v-14.96c0-8.28,6.71-15,15-15c8.28,0,15,6.72,15,15V315.913z M368.972,447.423   c0,8.29-6.72,15-15,15s-15-6.71-15-15v-14.96c0-8.28,6.72-15,15-15s15,6.72,15,15V447.423z M398.222,169.283c0,8.28-6.72,15-15,15   c-8.29,0-15-6.72-15-15v-12.16c0-8.28,6.71-15,15-15c8.28,0,15,6.72,15,15V169.283z"/>
</g>















</svg>
