<?xml version="1.0" encoding="iso-8859-1"?>
<!-- Generator: Adobe Illustrator 19.0.0, SVG Export Plug-In . SVG Version: 6.00 Build 0)  -->
<svg xmlns="http://www.w3.org/2000/svg" xmlns:xlink="http://www.w3.org/1999/xlink" version="1.1" id="Layer_1" x="0px" y="0px" viewBox="0 0 500 500" style="enable-background:new 0 0 500 500;" xml:space="preserve" width="512" height="512">
<g>
	<path d="M234.83,146.17l-6.89,317.3c-0.435,20.097,15.713,36.53,35.75,36.53c20.014,0,36.176-16.417,35.74-36.53l-6.89-317.3   H234.83z"/>
	<rect x="122.22" y="38.2" width="35.04" height="39.77"/>
	<path d="M336.73,0H202.26c-8.284,0-15,6.716-15,15v86.17c0,8.284,6.716,15,15,15h228.08c6.23,0,11.28-5.05,11.28-11.28v0   C441.62,47.05,394.56,0,336.73,0z"/>
	<path d="M68.38,116.17h13.84c5.523,0,10-4.477,10-10V10c0-5.523-4.477-10-10-10H68.38c-5.523,0-10,4.477-10,10v96.17   C58.38,111.693,62.857,116.17,68.38,116.17z"/>
</g>















</svg>
