<?xml version="1.0" encoding="iso-8859-1"?>
<!-- Generator: Adobe Illustrator 19.0.0, SVG Export Plug-In . SVG Version: 6.00 Build 0)  -->
<svg xmlns="http://www.w3.org/2000/svg" xmlns:xlink="http://www.w3.org/1999/xlink" version="1.1" id="Layer_1" x="0px" y="0px" viewBox="0 0 502 502" style="enable-background:new 0 0 502 502;" xml:space="preserve" width="512" height="512">
<g>
	<path d="M0,226.233v208.31c0,8.284,6.716,15,15,15h421.975c6.545,0,12.391-4.227,14.299-10.488   c5.852-19.205,21.033-34.385,40.237-40.238c6.261-1.908,10.488-7.754,10.488-14.299V241.233c0-8.284-6.716-15-15-15H0z    M81.29,424.844c-28.98,0-52.55-23.57-52.55-52.55c0-28.97,23.57-52.55,52.55-52.55c28.97,0,52.54,23.58,52.54,52.55   C133.83,401.273,110.26,424.844,81.29,424.844z M234.21,358.533c-29.66,0-53.78-24.12-53.78-53.78s24.12-53.79,53.78-53.79   c29.66,0,53.79,24.13,53.79,53.79S263.87,358.533,234.21,358.533z M390.77,406.853c-29.65,0-53.78-24.12-53.78-53.78   s24.13-53.79,53.78-53.79c29.66,0,53.79,24.13,53.79,53.79S420.43,406.853,390.77,406.853z"/>
	<path d="M94.041,59.703L11.58,196.223h432.59L112.808,53.679C105.926,50.719,97.915,53.29,94.041,59.703z"/>
	<path d="M81.29,349.743c-12.44,0-22.55,10.12-22.55,22.55c0,12.43,10.11,22.55,22.55,22.55c12.43,0,22.54-10.12,22.54-22.55   C103.83,359.864,93.72,349.743,81.29,349.743z"/>
	<path d="M234.21,280.963c-13.11,0-23.78,10.67-23.78,23.79c0,13.11,10.67,23.78,23.78,23.78c13.12,0,23.79-10.67,23.79-23.78   C258,291.634,247.33,280.963,234.21,280.963z"/>
	<path d="M390.77,329.283c-13.11,0-23.78,10.67-23.78,23.79c0,13.11,10.67,23.78,23.78,23.78c13.12,0,23.79-10.67,23.79-23.78   C414.56,339.953,403.89,329.283,390.77,329.283z"/>
</g>















</svg>
