<?xml version="1.0" encoding="iso-8859-1"?>
<!-- Generator: Adobe Illustrator 19.0.0, SVG Export Plug-In . SVG Version: 6.00 Build 0)  -->
<svg xmlns="http://www.w3.org/2000/svg" xmlns:xlink="http://www.w3.org/1999/xlink" version="1.1" id="Layer_1" x="0px" y="0px" viewBox="0 0 502 502" style="enable-background:new 0 0 502 502;" xml:space="preserve" width="512" height="512">
<g>
	<path d="M482.79,102.64H19.21C8.62,102.64,0,111.26,0,121.85v25.89h502v-25.89C502,111.26,493.38,102.64,482.79,102.64z"/>
	<path d="M0,380.15c0,10.59,8.62,19.21,19.21,19.21h463.58c10.59,0,19.21-8.62,19.21-19.21V255.74H0V380.15z M417.51,280.48   c27.76,0,50.35,22.59,50.35,50.35c0,27.77-22.59,50.36-50.35,50.36c-27.77,0-50.36-22.59-50.36-50.36   C367.15,303.07,389.74,280.48,417.51,280.48z M50.28,315.83h133.43c8.29,0,15,6.72,15,15c0,8.29-6.71,15-15,15H50.28   c-8.29,0-15-6.71-15-15C35.28,322.55,41.99,315.83,50.28,315.83z"/>
	<rect y="177.74" width="502" height="48"/>
	<path d="M417.51,351.19c11.22,0,20.35-9.13,20.35-20.36c0-11.22-9.13-20.35-20.35-20.35c-11.23,0-20.36,9.13-20.36,20.35   C397.15,342.06,406.28,351.19,417.51,351.19z"/>
</g>















</svg>
