<?xml version="1.0" encoding="iso-8859-1"?>
<!-- Generator: Adobe Illustrator 19.0.0, SVG Export Plug-In . SVG Version: 6.00 Build 0)  -->
<svg xmlns="http://www.w3.org/2000/svg" xmlns:xlink="http://www.w3.org/1999/xlink" version="1.1" id="Layer_1" x="0px" y="0px" viewBox="0 0 502.66 502.66" style="enable-background:new 0 0 502.66 502.66;" xml:space="preserve" width="512" height="512">
<g>
	<path d="M125.08,502.66h252.5c8.284,0,15-6.716,15-15v-20.9h-282.5v20.9C110.08,495.944,116.796,502.66,125.08,502.66z"/>
	<path d="M377.58,0h-252.5c-8.284,0-15,6.716-15,15v20.9h282.5V15C392.58,6.716,385.864,0,377.58,0z"/>
	<path d="M394.78,65.9c-3.689,0-285.663,0-286.9,0c-18.866,123.079-18.896,247.587,0,370.86c3.689,0,285.663,0,286.9,0   C413.655,313.626,413.667,189.116,394.78,65.9z M365.3,281.44c0,47.702-50.577,103.23-113.97,103.23   c-62.782,0-113.97-54.976-113.97-103.23c0-12.69,3.69-22.45,10.96-29.01c-7.07-13.22-10.96-27.15-10.96-40.31   c0-12.97,3.85-22.87,11.43-29.44c13.66-11.83,33.29-9,58.14-5.42c38.14,5.509,50.627,5.514,88.8,0   c24.85-3.58,44.48-6.41,58.14,5.42c7.58,6.57,11.43,16.47,11.43,29.44c0,13.16-3.89,27.09-10.96,40.31   C361.61,258.99,365.3,268.75,365.3,281.44z"/>
	<path d="M251.33,315.34c-31.711,0-61.737-13.918-83.84-36.8c-2.878,29.509,34.216,76.13,83.84,76.13   c49.296,0,86.749-46.305,83.84-76.13C313.256,301.226,283.294,315.34,251.33,315.34z"/>
	<path d="M325.7,204.17c-6.81,0.06-15.56,1.32-25.68,2.78c-41.158,5.933-56.185,5.938-97.38,0c-9.244-1.334-19.128-2.79-26.2-2.79   c-8.665,0-9.08,0.692-9.08,7.96c0,30.807,36.814,73.22,83.97,73.22c47.183,0,83.97-42.457,83.97-73.22   C335.3,204.568,334.785,204.17,325.7,204.17z"/>
</g>















</svg>
