<?xml version="1.0" encoding="iso-8859-1"?>
<!-- Generator: Adobe Illustrator 19.0.0, SVG Export Plug-In . SVG Version: 6.00 Build 0)  -->
<svg xmlns="http://www.w3.org/2000/svg" xmlns:xlink="http://www.w3.org/1999/xlink" version="1.1" id="Layer_1" x="0px" y="0px" viewBox="0 0 501.9 501.9" style="enable-background:new 0 0 501.9 501.9;" xml:space="preserve" width="512" height="512">
<g>
	<path d="M139.84,208.79l83.4-113.94c-9.386-4.386-17.393-10.875-23.55-18.61l-97.03,132.55   C116.098,208.79,126.386,208.79,139.84,208.79z"/>
	<path d="M362.06,208.79c13.454,0,23.726,0,37.18,0L302.21,76.24c-6.157,7.735-14.164,14.224-23.55,18.61L362.06,208.79z"/>
	<path d="M472.12,238.79c-19.482,0-429.612,0-442.34,0c-10.93,0-19.83,8.89-19.83,19.83v223.45c0,10.94,8.9,19.83,19.83,19.83   h442.34c10.93,0,19.83-8.89,19.83-19.83V258.62C491.95,247.68,483.05,238.79,472.12,238.79z M127.72,383.2   c0,26.58-21.62,48.21-48.2,48.21c-26.58,0-48.21-21.63-48.21-48.21v-25.71c0-26.58,21.63-48.21,48.21-48.21   c26.58,0,48.2,21.63,48.2,48.21V383.2z M203.98,385.34H175.6v31.07c0,8.28-6.71,15-15,15c-8.28,0-15-6.72-15-15v-92.13   c0-8.28,6.72-15,15-15h43.38c20.97,0,38.03,17.06,38.03,38.03C242.01,368.28,224.95,385.34,203.98,385.34z M321.39,355.34   c8.28,0,15,6.72,15,15c0,8.29-6.72,15-15,15h-31.5v16.07h51.41c8.28,0,15,6.71,15,15c0,8.28-6.72,15-15,15h-66.41   c-8.29,0-15-6.72-15-15v-92.13c0-8.28,6.71-15,15-15h66.41c8.28,0,15,6.72,15,15c0,8.29-6.72,15-15,15h-51.41v16.06H321.39z    M470.59,416.41c0,14.512-18.697,20.548-27.17,8.77c-37.054-51.408-28.869-40.053-39.24-54.44c0,4.612,0,40.625,0,45.67   c0,8.28-6.72,15-15,15c-8.29,0-15-6.72-15-15v-92.13c0-14.539,18.702-20.523,27.16-8.77c35.638,49.427,27.649,38.346,39.25,54.44   c0-4.612,0-40.625,0-45.67c0-8.28,6.71-15,15-15c8.28,0,15,6.72,15,15V416.41z"/>
	<path d="M79.52,339.28c-10.04,0-18.21,8.17-18.21,18.21v25.71c0,10.04,8.17,18.21,18.21,18.21c10.04,0,18.2-8.17,18.2-18.21v-25.71   C97.72,347.45,89.56,339.28,79.52,339.28z"/>
	<path d="M203.98,339.28H175.6v16.06h28.38c4.43,0,8.03-3.6,8.03-8.03C212.01,342.88,208.41,339.28,203.98,339.28z"/>
	<path d="M250.95,71.01c19.663,0,35.51-16.015,35.51-35.51c0-19.58-15.93-35.5-35.51-35.5s-35.51,15.92-35.51,35.5   C215.44,55.044,231.334,71.01,250.95,71.01z"/>
</g>















</svg>
