<?xml version="1.0" encoding="iso-8859-1"?>
<!-- Generator: Adobe Illustrator 19.0.0, SVG Export Plug-In . SVG Version: 6.00 Build 0)  -->
<svg xmlns="http://www.w3.org/2000/svg" xmlns:xlink="http://www.w3.org/1999/xlink" version="1.1" id="Layer_1" x="0px" y="0px" viewBox="0 0 490.66 490.66" style="enable-background:new 0 0 490.66 490.66;" xml:space="preserve" width="512" height="512">
<g>
	<rect x="131.42" y="151.35" width="227.82" height="95.14"/>
	<path d="M146.42,490.66h197.82c8.284,0,15-6.716,15-15v-62.43H131.42v62.43C131.42,483.944,138.136,490.66,146.42,490.66z"/>
	<polygon points="334.33,59.41 156.33,59.41 136.86,121.35 353.8,121.35  "/>
	<path d="M315.34,0H175.32c-8.284,0-15,6.716-15,15v14.41h170.02V15C330.34,6.716,323.624,0,315.34,0z"/>
	<path d="M131.42,383.23h227.82V276.49H131.42V383.23z M180.31,314.86h129.28c8.29,0,15,6.71,15,15c0,8.28-6.71,15-15,15H180.31   c-8.29,0-15-6.72-15-15C165.31,321.57,172.02,314.86,180.31,314.86z"/>
</g>















</svg>
