<?xml version="1.0" encoding="iso-8859-1"?>
<!-- Generator: Adobe Illustrator 19.0.0, SVG Export Plug-In . SVG Version: 6.00 Build 0)  -->
<svg xmlns="http://www.w3.org/2000/svg" xmlns:xlink="http://www.w3.org/1999/xlink" version="1.1" id="Layer_1" x="0px" y="0px" viewBox="0 0 496 496" style="enable-background:new 0 0 496 496;" xml:space="preserve" width="512" height="512">
<g>
	<rect x="111.27" y="122.715" width="32.96" height="92.2"/>
	<path d="M221.01,8.185H34.49c-8.284,0-15,6.716-15,15v54.53c0,8.284,6.716,15,15,15h186.52c8.284,0,15-6.716,15-15v-54.53   C236.01,14.901,229.294,8.185,221.01,8.185z M190.99,65.445H64.51c-8.28,0-15-6.71-15-15c0-8.28,6.72-15,15-15h126.48   c8.28,0,15,6.72,15,15C205.99,58.735,199.27,65.445,190.99,65.445z"/>
	<path d="M465.21,244.915v36.99c0,8.198-6.625,14.99-15,14.99H302.47c-8.364,0-15-6.785-15-14.99v-36.99H15c-8.284,0-15,6.716-15,15   v212.9c0,8.284,6.716,15,15,15h466c8.284,0,15-6.716,15-15v-212.9c0-8.284-6.716-15-15-15H465.21z M116.28,447.945   c0,8.28-6.71,15-15,15H40.45c-8.29,0-15-6.72-15-15v-60.84c0-8.28,6.71-15,15-15h60.83c8.29,0,15,6.72,15,15V447.945z    M116.28,342.735c0,8.28-6.71,15-15,15H40.45c-8.29,0-15-6.72-15-15v-60.83c0-8.29,6.71-15,15-15h60.83c8.29,0,15,6.71,15,15   V342.735z M230.05,447.945c0,8.28-6.72,15-15,15h-60.83c-8.29,0-15-6.72-15-15v-60.84c0-8.28,6.71-15,15-15h60.83   c8.28,0,15,6.72,15,15V447.945z M230.05,342.735c0,8.28-6.72,15-15,15h-60.83c-8.29,0-15-6.72-15-15v-60.83c0-8.29,6.71-15,15-15   h60.83c8.28,0,15,6.71,15,15V342.735z M343.67,438.715h-15.25c-8.28,0-15-6.71-15-15c0-8.28,6.72-15,15-15h15.25   c8.29,0,15,6.72,15,15C358.67,432.005,351.96,438.715,343.67,438.715z M343.67,373.805h-15.25c-8.28,0-15-6.72-15-15   c0-8.29,6.72-15,15-15h15.25c8.29,0,15,6.71,15,15C358.67,367.085,351.96,373.805,343.67,373.805z M418.29,438.715h-15.25   c-8.29,0-15-6.71-15-15c0-8.28,6.71-15,15-15h15.25c8.28,0,15,6.72,15,15C433.29,432.005,426.57,438.715,418.29,438.715z    M418.29,373.805h-15.25c-8.29,0-15-6.72-15-15c0-8.29,6.71-15,15-15h15.25c8.28,0,15,6.71,15,15   C433.29,367.085,426.57,373.805,418.29,373.805z"/>
	<path d="M435.21,266.895v-149.8c0-8.284-6.716-15-15-15h-87.74c-8.284,0-15,6.716-15,15v149.8v0.01h117.74V266.895z    M351.34,139.655h50c8.28,0,15,6.72,15,15c0,8.29-6.72,15-15,15h-50c-8.28,0-15-6.71-15-15   C336.34,146.375,343.06,139.655,351.34,139.655z M351.34,195.755h50c8.28,0,15,6.71,15,15c0,8.28-6.72,15-15,15h-50   c-8.28,0-15-6.72-15-15C336.34,202.465,343.06,195.755,351.34,195.755z"/>
	<rect x="55.45" y="296.905" width="30.83" height="30.83"/>
	<rect x="169.22" y="296.905" width="30.83" height="30.83"/>
	<rect x="55.45" y="402.105" width="30.83" height="30.84"/>
	<rect x="169.22" y="402.105" width="30.83" height="30.84"/>
</g>















</svg>
