<?xml version="1.0" encoding="iso-8859-1"?>
<!-- Generator: Adobe Illustrator 19.0.0, SVG Export Plug-In . SVG Version: 6.00 Build 0)  -->
<svg xmlns="http://www.w3.org/2000/svg" xmlns:xlink="http://www.w3.org/1999/xlink" version="1.1" id="Layer_1" x="0px" y="0px" viewBox="0 0 492.444 492.444" style="enable-background:new 0 0 492.444 492.444;" xml:space="preserve" width="512" height="512">
<g>
	<path d="M187.92,7.854c0-5.785-6.063-9.584-11.26-7.06l-64.11,31c-2.69,1.3-4.43,4.069-4.43,7.06v84.09h79.8V7.854z"/>
	<path d="M203.6,162.944c0-5.522-4.477-10-10-10h-91.17c-5.523,0-10,4.478-10,10v69.49H203.6V162.944z"/>
	<path d="M391.124,223.094h-93.4c-16.569,0-30,13.432-30,30v229.35c0,5.523,4.477,10,10,10h133.4c5.523,0,10-4.477,10-10v-229.35   C421.124,236.526,407.693,223.094,391.124,223.094z"/>
	<path d="M209.72,262.434H86.32c-8.284,0-15,6.716-15,15v196.47c0,10.239,8.301,18.54,18.54,18.54h116.31   c10.245,0,18.55-8.305,18.55-18.55v-196.46C224.72,269.15,218.004,262.434,209.72,262.434z"/>
</g>















</svg>
