<?xml version="1.0" encoding="iso-8859-1"?>
<!-- Generator: Adobe Illustrator 19.0.0, SVG Export Plug-In . SVG Version: 6.00 Build 0)  -->
<svg xmlns="http://www.w3.org/2000/svg" xmlns:xlink="http://www.w3.org/1999/xlink" version="1.1" id="Layer_1" x="0px" y="0px" viewBox="0 0 500.316 500.316" style="enable-background:new 0 0 500.316 500.316;" xml:space="preserve" width="512" height="512">
<g>
	<path d="M222.986,306.121c-11.512-6.93-21.362-16.478-28.75-28.75l-115.28,115.28c-5.85,5.86-15.35,5.86-21.21,0   c-13.18-13.18-34.64-13.18-47.82,0c-13.18,13.19-13.18,34.64,0,47.82c6.823,6.833,15.052,9.88,25.08,9.88   c8.488,0,15.203,6.995,15,15.36c-0.23,9.35,3.28,18.13,9.88,24.72c13.18,13.18,34.63,13.18,47.82,0   c13.18-13.18,13.18-34.64,0-47.82c-5.86-5.86-5.86-15.36,0-21.21L222.986,306.121z"/>
	<path d="M469.397,30.961c-50.442-50.466-135.105-35.166-186.83,16.54c-58.767,58.767-98.846,180.482-54.52,224.81   c44.484,44.486,166.266,4.025,224.81-54.52C510.139,160.468,515.361,76.926,469.397,30.961z"/>
</g>















</svg>
