<?xml version="1.0" encoding="iso-8859-1"?>
<!-- Generator: Adobe Illustrator 19.0.0, SVG Export Plug-In . SVG Version: 6.00 Build 0)  -->
<svg xmlns="http://www.w3.org/2000/svg" xmlns:xlink="http://www.w3.org/1999/xlink" version="1.1" id="Layer_1" x="0px" y="0px" viewBox="0 0 501.42 501.42" style="enable-background:new 0 0 501.42 501.42;" xml:space="preserve" width="512" height="512">
<g>
	<rect x="220.757" y="73.62" width="30" height="30.81"/>
	<path d="M191.077,142.24v20.43c7.17-1.33,14.55-2.03,22.1-2.03h45.16c7.55,0,14.93,0.7,22.1,2.03v-20.43c0-4.31-3.5-7.81-7.81-7.81   c-22.952,0-50.765,0-73.74,0C194.577,134.43,191.077,137.93,191.077,142.24z"/>
	<path d="M376.377,44.9l-13.73-19.49c-7.1-10.08-18.71-16.1-31.04-16.1h-24.11c0.572,3.827,0.749,25.207,0,30   c9.213,0,15.125,0,24.11,0c2.59,0,5.02,1.26,6.51,3.38c4.335,6.16,1.539,2.19,13.73,19.49c4.782,6.779,14.15,8.386,20.9,3.62   C379.517,61.03,381.147,51.67,376.377,44.9z"/>
	<path d="M296.927,199.25c-11.72-5.52-24.8-8.61-38.59-8.61h-45.16c-13.79,0-26.87,3.09-38.59,8.61   c-30.87,14.54-52.28,45.95-52.28,82.27v19.1h226.9v-19.1C349.207,245.2,327.797,213.79,296.927,199.25z"/>
	<path d="M137.307,501.42h196.9c8.284,0,15-6.716,15-15v-36.69h-226.9v36.69C122.307,494.704,129.023,501.42,137.307,501.42z"/>
	<path d="M203.837,48.62c7.275,0,56.553,0,63.84,0c8.381,0,15.26-6.795,15.26-15.26c0-13.485,0-4.82,0-18.1   c0-8.386-6.812-15.26-15.26-15.26h-63.84c-8.42,0-15.26,6.85-15.26,15.26v18.1C188.577,41.78,195.417,48.62,203.837,48.62z"/>
	<path d="M122.307,419.73h226.9v-89.11h-226.9V419.73z M193.297,360.18h84.92c8.29,0,15,6.71,15,15c0,8.28-6.71,15-15,15h-84.92   c-8.29,0-15-6.72-15-15C178.297,366.89,185.007,360.18,193.297,360.18z"/>
</g>















</svg>
