<?xml version="1.0" encoding="iso-8859-1"?>
<!-- Generator: Adobe Illustrator 19.0.0, SVG Export Plug-In . SVG Version: 6.00 Build 0)  -->
<svg xmlns="http://www.w3.org/2000/svg" xmlns:xlink="http://www.w3.org/1999/xlink" version="1.1" id="Layer_1" x="0px" y="0px" viewBox="0 0 502 502" style="enable-background:new 0 0 502 502;" xml:space="preserve" width="512" height="512">
<g>
	<path d="M375.37,0H126.63c-10.73,0-19.46,8.73-19.46,19.47v41.76h287.66V19.47C394.83,8.73,386.1,0,375.37,0z M284.03,44.84h-66.06   c-8.28,0-15-6.71-15-15c0-8.28,6.72-15,15-15h66.06c8.28,0,15,6.72,15,15C299.03,38.13,292.31,44.84,284.03,44.84z"/>
	<path d="M107.17,482.53c0,10.74,8.73,19.47,19.46,19.47h248.74c10.73,0,19.46-8.73,19.46-19.47v-41.76H107.17V482.53z    M217.97,457.16h66.06c8.28,0,15,6.71,15,15c0,8.28-6.72,15-15,15h-66.06c-8.28,0-15-6.72-15-15   C202.97,463.87,209.69,457.16,217.97,457.16z"/>
	<rect x="107.17" y="91.23" width="287.66" height="319.54"/>
</g>















</svg>
