<?xml version="1.0" encoding="iso-8859-1"?>
<!-- Generator: Adobe Illustrator 19.0.0, SVG Export Plug-In . SVG Version: 6.00 Build 0)  -->
<svg xmlns="http://www.w3.org/2000/svg" xmlns:xlink="http://www.w3.org/1999/xlink" version="1.1" id="Layer_1" x="0px" y="0px" viewBox="0 0 494.719 494.719" style="enable-background:new 0 0 494.719 494.719;" xml:space="preserve" width="512" height="512">
<g>
	<path d="M232.359,437.049v42.67c0,8.28,6.72,15,15,15s15-6.72,15-15v-42.67H232.359z"/>
	<path d="M232.359,276.739v70.01c5.72,6.06,10.77,12.77,15,20c4.23-7.23,9.28-13.94,15-20v-70.01H232.359z"/>
	<path d="M236.749,150.539l-4.39-4.39v45.3c5.71,5.49,10.76,11.66,15,18.39c4.24-6.73,9.29-12.9,15-18.39v-45.3l-4.39,4.39   C252.134,156.374,242.621,156.41,236.749,150.539z"/>
	<path d="M342.019,342.389c-38.8,0-71.21,27.88-78.24,64.66h58.96c33.811,0,62.77-21.172,74.317-50.955   c2.555-6.592-2.224-13.705-9.293-13.705H342.019z"/>
	<path d="M152.7,342.389h-45.743c-7.07,0-11.849,7.114-9.293,13.705c11.546,29.783,40.505,50.955,74.317,50.955h58.96   C223.91,370.269,191.499,342.389,152.7,342.389z"/>
	<path d="M313.059,246.739c26.759,0,49.932-15.644,60.842-38.27c3.178-6.59-1.746-14.23-9.063-14.23h-34.979   c-32.06,0-58.98,22.47-65.82,52.5H313.059z"/>
	<path d="M181.66,246.739h49.02c-6.84-30.03-33.76-52.5-65.82-52.5h-34.979c-7.316,0-12.24,7.64-9.063,14.23   C131.727,231.095,154.901,246.739,181.66,246.739z"/>
	<path d="M247.359,118.719c3.932-3.932,1.679-1.677,10.92-10.93c27.28-27.27,27.28-71.66,0-98.94l-7.384-7.384   c-1.953-1.953-5.118-1.953-7.071,0l-7.384,7.384c-27.324,27.324-27.324,71.626,0,98.95L247.359,118.719z"/>
</g>















</svg>
