<?xml version="1.0" encoding="iso-8859-1"?>
<!-- Generator: Adobe Illustrator 19.0.0, SVG Export Plug-In . SVG Version: 6.00 Build 0)  -->
<svg xmlns="http://www.w3.org/2000/svg" xmlns:xlink="http://www.w3.org/1999/xlink" version="1.1" id="Layer_1" x="0px" y="0px" viewBox="0 0 499.92 499.92" style="enable-background:new 0 0 499.92 499.92;" xml:space="preserve" width="512" height="512">
<g>
	<path d="M123.81,132.42V55.89c0-14.28,11.61-25.89,25.89-25.89h139.79c14.28,0,25.89,11.61,25.89,25.89v76.53   c10.856,0,19.144,0,30,0V55.89C345.38,25.07,320.31,0,289.49,0H149.7c-30.82,0-55.89,25.07-55.89,55.89v76.53   C104.666,132.42,112.954,132.42,123.81,132.42z"/>
	<path d="M358.93,291.59l4.15-50.26H76.11l11.574,140.243c0.642,7.78,7.143,13.766,14.949,13.766H254.39   C261.21,341.07,304.54,298,358.93,291.59z"/>
	<path d="M395.66,211.29c3.49-0.36,6.22-3.31,6.22-6.9v-35.03c0-3.83-3.11-6.94-6.94-6.94c-11.386,0-332.036,0-350.69,0   c-3.83,0-6.94,3.11-6.94,6.94v35.03c0,3.59,2.73,6.54,6.22,6.9C43.907,211.337,395.039,211.367,395.66,211.29z"/>
	<path d="M373.03,320.76c-49.441,0-89.58,40.224-89.58,89.58c0,49.35,40.144,89.58,89.58,89.58c49.4,0,89.58-40.19,89.58-89.58   C462.61,360.913,422.414,320.76,373.03,320.76z M415.17,425.34h-27.14v27.13c0,8.29-6.71,15-15,15c-8.28,0-15-6.71-15-15v-27.13   h-27.14c-8.28,0-15-6.72-15-15c0-8.29,6.72-15,15-15c24.616,0,11.76,0,27.14,0V368.2c0-8.398,6.844-15,15-15   c8.237,0,15,6.668,15,15v27.14h27.14c8.28,0,15,6.71,15,15C430.17,418.62,423.45,425.34,415.17,425.34z"/>
</g>















</svg>
