<?xml version="1.0" encoding="iso-8859-1"?>
<!-- Generator: Adobe Illustrator 19.0.0, SVG Export Plug-In . SVG Version: 6.00 Build 0)  -->
<svg xmlns="http://www.w3.org/2000/svg" xmlns:xlink="http://www.w3.org/1999/xlink" version="1.1" id="Layer_1" x="0px" y="0px" viewBox="0 0 498 498" style="enable-background:new 0 0 498 498;" xml:space="preserve" width="512" height="512">
<g>
	<path d="M281.15,111.96c-5.89-2.17-9.81-7.79-9.81-14.07V62.08h-44.68v35.81c0,6.28-3.92,11.9-9.81,14.07   c-36.33,13.41-60.73,48.44-60.73,87.17V488c0,5.523,4.477,10,10,10h165.76c5.523,0,10-4.477,10-10V199.13   C341.88,160.4,317.48,125.37,281.15,111.96z M249,374.15c-33.07,0-59.98-26.9-59.98-59.98c0-25.664,34.32-84.269,47.25-104.9   c5.873-9.41,19.596-9.396,25.46,0c11.496,18.344,47.25,78.59,47.25,104.9C308.98,347.25,282.07,374.15,249,374.15z"/>
	<path d="M219.02,314.17c0,16.53,13.45,29.98,29.98,29.98s29.98-13.45,29.98-29.98c0-10.06-13.95-39.46-29.98-67.63   C232.97,274.71,219.02,304.11,219.02,314.17z"/>
	<path d="M299.31,22.08V10c0-5.523-4.477-10-10-10h-80.62c-5.523,0-10,4.477-10,10v12.08c0,5.523,4.477,10,10,10h80.62   C294.833,32.08,299.31,27.603,299.31,22.08z"/>
</g>















</svg>
