<?xml version="1.0" encoding="iso-8859-1"?>
<!-- Generator: Adobe Illustrator 19.0.0, SVG Export Plug-In . SVG Version: 6.00 Build 0)  -->
<svg xmlns="http://www.w3.org/2000/svg" xmlns:xlink="http://www.w3.org/1999/xlink" version="1.1" id="Layer_1" x="0px" y="0px" viewBox="0 0 490.66 490.66" style="enable-background:new 0 0 490.66 490.66;" xml:space="preserve" width="512" height="512">
<g>
	<g>
		<g>
			<path d="M245.33,0C110.05,0,0,110.05,0,245.33c0,135.28,110.05,245.33,245.33,245.33s245.33-110.05,245.33-245.33     C490.66,110.05,380.61,0,245.33,0z M358.59,88.08c5.86-5.86,15.36-5.86,21.22,0l27.61,27.62c5.86,5.85,5.86,15.35,0,21.21     c-5.82,5.84-15.343,5.867-21.21,0l-27.62-27.62C352.74,103.43,352.74,93.94,358.59,88.08z M214.99,69.85l27.61-27.61     c5.86-5.86,15.36-5.86,21.22,0c5.85,5.85,5.85,15.35,0,21.21L236.2,91.06c-5.859,5.859-15.338,5.873-21.21,0     C209.13,85.21,209.13,75.71,214.99,69.85z M85.14,255.94l-27.62,27.61c-5.856,5.857-15.333,5.878-21.21,0     c-5.86-5.85-5.86-15.35,0-21.21l27.61-27.62c5.86-5.85,15.36-5.85,21.22,0C91,240.58,91,250.08,85.14,255.94z M155.56,408.93     c-5.857,5.857-15.333,5.876-21.21,0l-27.62-27.61c-5.86-5.86-5.86-15.36,0-21.22c5.86-5.85,15.36-5.85,21.21,0l27.62,27.62     C161.42,393.58,161.42,403.08,155.56,408.93z M277.63,421.77l-27.62,27.62c-5.874,5.874-15.372,5.858-21.21,0     c-5.86-5.86-5.86-15.35,0-21.21l27.61-27.62c5.86-5.86,15.36-5.86,21.22,0C283.48,406.42,283.48,415.92,277.63,421.77z      M245.33,358.98c-62.67,0-113.65-50.98-113.65-113.65s50.98-113.65,113.65-113.65s113.65,50.98,113.65,113.65     S308,358.98,245.33,358.98z M425.65,279.13c-5.849,5.849-15.326,5.884-21.21,0c-5.86-5.85-5.86-15.35,0-21.21l27.61-27.62     c5.86-5.85,15.36-5.85,21.22,0c5.86,5.86,5.86,15.36,0,21.22L425.65,279.13z"/>
		</g>
	</g>
	<g>
		<path style="fill:rgb(0,0,0);" d="M106.73,150.993l-27.617-27.617c-5.857-5.857-5.857-15.355,0-21.213    c5.858-5.858,15.355-5.858,21.213,0l27.617,27.617c5.858,5.857,5.858,15.355,0,21.213    C122.086,156.85,112.589,156.853,106.73,150.993z"/>
	</g>
	<g>
		<path style="fill:rgb(0,0,0);" d="M386.487,395.125l-27.617-27.617c-5.858-5.857-5.858-15.355,0-21.213    c5.858-5.858,15.355-5.858,21.213,0l27.617,27.617c5.857,5.857,5.857,15.355,0,21.213    C401.844,400.982,392.346,400.985,386.487,395.125z"/>
	</g>
</g>















</svg>