<?xml version="1.0" encoding="iso-8859-1"?>
<!-- Generator: Adobe Illustrator 19.0.0, SVG Export Plug-In . SVG Version: 6.00 Build 0)  -->
<svg xmlns="http://www.w3.org/2000/svg" xmlns:xlink="http://www.w3.org/1999/xlink" version="1.1" id="Layer_1" x="0px" y="0px" viewBox="0 0 496 496" style="enable-background:new 0 0 496 496;" xml:space="preserve" width="512" height="512">
<g>
	<path d="M203.6,336.745v-75.38h-54.3v75.38c8.49-3.05,17.63-4.7,27.15-4.7S195.11,333.695,203.6,336.745z"/>
	<path d="M3,385.755v54.3h97.29c-6.27-17.453-6.27-36.846,0-54.3H3z"/>
	<rect x="354.42" y="83.435" width="32.59" height="96.73"/>
	<path d="M114.37,231.365h195.05c8.284,0,15-6.716,15-15V47.235c0-8.284-6.716-15-15-15H114.37V231.365z M203.6,169.895   c16.442,0,64.268,0,67.41,0c8.28,0,15,6.72,15,15c0,8.278-6.706,15-15,15c-6.717,0-60.834,0-67.41,0c-8.29,0-15-6.71-15-15   C188.6,176.698,195.244,169.895,203.6,169.895z"/>
	<path d="M50.36,231.365h34.01V32.235H50.36C22.59,32.235,0,54.835,0,82.615v98.37C0,208.765,22.59,231.365,50.36,231.365z"/>
	<path d="M417.01,76.755v110.09c30.657,19.12-1.235-0.768,63.691,39.728c6.661,4.154,15.299-0.631,15.299-8.481V45.508   c0-7.85-8.639-12.635-15.3-8.48C443.355,60.321,419.07,75.47,417.01,76.755z"/>
	<path d="M176.45,362.045c-28.135,0-50.86,22.897-50.86,50.86c0,27.989,22.757,50.86,50.86,50.86c28.04,0,50.85-22.82,50.85-50.86   C227.3,384.896,204.518,362.045,176.45,362.045z"/>
</g>















</svg>
