<?xml version="1.0" encoding="iso-8859-1"?>
<!-- Generator: Adobe Illustrator 19.0.0, SVG Export Plug-In . SVG Version: 6.00 Build 0)  -->
<svg xmlns="http://www.w3.org/2000/svg" xmlns:xlink="http://www.w3.org/1999/xlink" version="1.1" id="Layer_1" x="0px" y="0px" viewBox="0 0 496 496" style="enable-background:new 0 0 496 496;" xml:space="preserve" width="512" height="512">
<g>
	<rect x="226.086" y="388.09" width="43.82" height="43.83"/>
	<rect x="101.076" y="264.31" width="43.82" height="43.83"/>
	<rect x="101.076" y="388.09" width="43.82" height="43.83"/>
	<rect x="349.826" y="264.31" width="43.83" height="167.61"/>
	<rect x="226.086" y="264.31" width="43.82" height="43.83"/>
	<rect x="101.076" y="64.08" width="293.85" height="57.16"/>
	<path d="M437.039,0H58.961C41.66,0,27.635,14.025,27.635,31.326v433.347C27.635,481.975,41.66,496,58.961,496h378.078   c17.301,0,31.326-14.025,31.326-31.326V31.326C468.365,14.025,454.34,0,437.039,0z M174.896,446.92c0,8.28-6.71,15-15,15h-73.82   c-8.29,0-15-6.72-15-15v-73.83c0-8.28,6.71-15,15-15h73.82c8.29,0,15,6.72,15,15V446.92z M71.074,191.719c0-8.284,6.716-15,15-15   h145.28c8.284,0,15,6.716,15,15s-6.716,15-15,15H86.074C77.789,206.719,71.074,200.003,71.074,191.719z M174.896,323.14   c0,8.28-6.71,15-15,15h-73.82c-8.29,0-15-6.72-15-15v-73.83c0-8.28,6.71-15,15-15h73.82c8.29,0,15,6.72,15,15V323.14z    M299.906,446.92c0,8.28-6.71,15-15,15h-73.82c-8.29,0-15-6.72-15-15v-73.83c0-8.28,6.71-15,15-15h73.82c8.29,0,15,6.72,15,15   V446.92z M299.906,323.14c0,8.28-6.71,15-15,15h-73.82c-8.29,0-15-6.72-15-15v-73.83c0-8.28,6.71-15,15-15h73.82   c8.29,0,15,6.72,15,15V323.14z M423.656,446.92c0,8.28-6.72,15-15,15h-73.83c-8.28,0-15-6.72-15-15V249.31c0-8.28,6.72-15,15-15   h73.83c8.28,0,15,6.72,15,15V446.92z M319.828,200.81v-18.143c0-8.284,6.716-15,15-15s15,6.716,15,15v18.143   c0,8.284-6.716,15-15,15S319.828,209.094,319.828,200.81z M356.741,200.81v-18.143c0-8.284,6.716-15,15-15s15,6.716,15,15v18.143   c0,8.284-6.716,15-15,15S356.741,209.094,356.741,200.81z M393.654,200.81v-18.143c0-8.284,6.716-15,15-15s15,6.716,15,15v18.143   c0,8.284-6.716,15-15,15S393.654,209.094,393.654,200.81z M424.926,136.24c0,8.29-6.72,15-15,15H86.076c-8.29,0-15-6.71-15-15   V49.08c0-8.28,6.71-15,15-15h323.85c8.28,0,15,6.72,15,15V136.24z"/>
</g>















</svg>
