<?xml version="1.0" encoding="iso-8859-1"?>
<!-- Generator: Adobe Illustrator 19.0.0, SVG Export Plug-In . SVG Version: 6.00 Build 0)  -->
<svg xmlns="http://www.w3.org/2000/svg" xmlns:xlink="http://www.w3.org/1999/xlink" version="1.1" id="Layer_1" x="0px" y="0px" viewBox="0 0 496.67 496.67" style="enable-background:new 0 0 496.67 496.67;" xml:space="preserve" width="512" height="512">
<g>
	<path d="M218.335,0h-43.47c-8.284,0-15,6.716-15,15v27.05h73.47V15C233.335,6.716,226.619,0,218.335,0z"/>
	<path d="M321.095,239.28h-34.42c-20.71,0-38.08-16.13-39.63-36.77l-12.36-130.46h-76.38l-18.9,172.89   c-1.1,10.84-1.66,21.86-1.66,32.76v203.97c0,8.284,6.716,15,15,15h191.18c8.284,0,15-6.716,15-15V277.11   C358.925,256.217,341.988,239.28,321.095,239.28z M330.155,416.14c0,8.29-6.71,15-15,15h-133.64c-8.29,0-15-6.71-15-15V315.98   c0-8.28,6.71-15,15-15h133.64c8.29,0,15,6.72,15,15V416.14z"/>
	<rect x="196.515" y="330.98" width="103.64" height="70.16"/>
</g>















</svg>
