<?xml version="1.0" encoding="iso-8859-1"?>
<!-- Generator: Adobe Illustrator 19.0.0, SVG Export Plug-In . SVG Version: 6.00 Build 0)  -->
<svg xmlns="http://www.w3.org/2000/svg" xmlns:xlink="http://www.w3.org/1999/xlink" version="1.1" id="Layer_1" x="0px" y="0px" viewBox="0 0 496 496" style="enable-background:new 0 0 496 496;" xml:space="preserve" width="512" height="512">
<g>
	<rect x="109.71" y="74.89" width="276.58" height="85.56"/>
	<rect x="109.71" y="335.55" width="276.58" height="85.56"/>
	<path d="M94.87,0h306.26c8.284,0,15,6.716,15,15v14.89c0,8.284-6.716,15-15,15H94.87c-8.284,0-15-6.716-15-15V15   C79.87,6.716,86.586,0,94.87,0z"/>
	<path d="M416.13,466.11V481c0,8.284-6.716,15-15,15H94.87c-8.284,0-15-6.716-15-15v-14.89c0-8.284,6.716-15,15-15h306.26   C409.414,451.11,416.13,457.826,416.13,466.11z"/>
	<path d="M109.71,305.55h276.58v-115.1H109.71V305.55z M183.64,233h128.72c8.28,0,15,6.72,15,15c0,8.28-6.72,15-15,15H183.64   c-8.28,0-15-6.72-15-15C168.64,239.72,175.36,233,183.64,233z"/>
</g>















</svg>
