<?xml version="1.0" encoding="iso-8859-1"?>
<!-- Generator: Adobe Illustrator 19.0.0, SVG Export Plug-In . SVG Version: 6.00 Build 0)  -->
<svg xmlns="http://www.w3.org/2000/svg" xmlns:xlink="http://www.w3.org/1999/xlink" version="1.1" id="Layer_1" x="0px" y="0px" viewBox="0 0 498 498" style="enable-background:new 0 0 498 498;" xml:space="preserve" width="512" height="512">
<g>
	<path d="M264.453,42.258V15.453C264.453,6.923,257.53,0,249,0s-15.453,6.923-15.453,15.453v26.805   C243.63,39.648,254.37,39.648,264.453,42.258z"/>
	<path d="M279.205,108.458c0.443-2.06,0.669-4.193,0.669-6.377c0-17.092-13.93-30.874-30.875-30.874   c-16.956,0-30.875,13.793-30.875,30.874c0,2.184,0.227,4.316,0.67,6.377C237.952,103.684,258.892,103.396,279.205,108.458z"/>
	<path d="M249,135.676c-52.033,0-94.406,42.333-94.406,94.406c0,13.836,2.988,26.98,8.365,38.838h172.082   c5.378-11.858,8.365-25.003,8.365-38.838C343.406,178.032,301.061,135.676,249,135.676z M220.042,241.053   c-5.994,6.013-15.803,6.046-21.85,0l-8.241-8.241c-6.037-6.037-6.037-15.813,0-21.851c6.037-6.037,15.824-6.037,21.861,0   l8.231,8.241C226.078,225.229,226.078,235.016,220.042,241.053z M264.051,186c-6.011,6.012-15.812,6.049-21.861,0l-8.241-8.241   c-6.07-6.069-5.98-15.869,0-21.85c6.037-6.037,15.824-6.037,21.861,0c9.658,9.659,4.548,4.548,8.241,8.241   C270.078,170.187,270.078,179.963,264.051,186z M310.636,241.053c-6.004,6.003-15.793,6.056-21.85,0l-8.241-8.241   c-6.037-6.037-6.037-15.813,0-21.851c6.037-6.037,15.813-6.037,21.85,0l8.241,8.241   C316.673,225.229,316.673,235.016,310.636,241.053z"/>
	<path d="M175.404,299.825c0.055,0.156,69.103,195.77,68.739,194.738c1.617,4.582,8.097,4.582,9.714,0   c3.329-9.431,66.983-189.762,68.739-194.738C317.958,299.825,180.419,299.825,175.404,299.825z"/>
</g>















</svg>
