<?xml version="1.0" encoding="iso-8859-1"?>
<!-- Generator: Adobe Illustrator 19.0.0, SVG Export Plug-In . SVG Version: 6.00 Build 0)  -->
<svg xmlns="http://www.w3.org/2000/svg" xmlns:xlink="http://www.w3.org/1999/xlink" version="1.1" id="Layer_1" x="0px" y="0px" viewBox="0 0 504.21 504.21" style="enable-background:new 0 0 504.21 504.21;" xml:space="preserve" width="512" height="512">
<g>
	<path d="M11.715,435.845c-15.62,15.62-15.62,41.03,0,56.65c15.62,15.62,41.03,15.62,56.65,0c6.774-6.76,31.578-44.385,50.89-77.92   l-29.62-29.62C55.731,404.48,18.384,429.162,11.715,435.845z"/>
	<path d="M492.495,11.715c-15.62-15.62-41.03-15.62-56.65,0c-6.63,6.616-31.205,43.74-50.89,77.92l29.62,29.62   c33.904-19.525,71.252-44.208,77.92-50.89C508.115,52.745,508.115,27.335,492.495,11.715z"/>
	<path d="M337.015,84.135c-3.678-3.698-9.72-3.689-13.39,0l-239.49,239.49c-3.7,3.69-3.7,9.7,0,13.39   c2.654,2.654,49.987,49.988,83.06,83.06c3.69,3.7,9.7,3.7,13.39,0l239.49-239.49c3.7-3.69,3.7-9.7,0-13.39   C404.127,151.247,355.722,102.842,337.015,84.135z"/>
</g>















</svg>
