<?xml version="1.0" encoding="iso-8859-1"?>
<!-- Generator: Adobe Illustrator 19.0.0, SVG Export Plug-In . SVG Version: 6.00 Build 0)  -->
<svg xmlns="http://www.w3.org/2000/svg" xmlns:xlink="http://www.w3.org/1999/xlink" version="1.1" id="Layer_1" x="0px" y="0px" viewBox="0 0 501 501" style="enable-background:new 0 0 501 501;" xml:space="preserve" width="512" height="512">
<g>
	<path d="M366.943,128.22h-48.15c0,10.856,0,19.144,0,30h48.15c7.11,0,12.89,5.78,12.89,12.89v37.54   c0,29.24-23.79,53.04-53.04,53.04h-8.07c-0.211,9.792-1.012,20.151-2.54,30h10.61c45.79,0,83.04-37.25,83.04-83.04v-37.54   C409.833,147.46,390.593,128.22,366.943,128.22z"/>
	<path d="M226.883,29.67V15c0-8.28-6.72-15-15-15c-8.29,0-15,6.72-15,15v14.67H226.883z"/>
	<path d="M136.953,153.2v102.55c0,34.74,7.49,63.65,23.48,90.3h104.88c16.926-28.209,23.48-57.676,23.48-90.3   c0-6.85,0-131.819,0-138.64H123.255c-4.15,0-6.493,4.763-3.961,8.051l14.549,18.889C135.863,146.67,136.953,149.89,136.953,153.2z    M194.413,158.48h31.1c8.29,0,15,6.72,15,15c0,8.29-6.71,15-15,15h-31.1c-8.28,0-15-6.71-15-15   C179.413,165.2,186.133,158.48,194.413,158.48z M194.413,210.08h31.1c8.29,0,15,6.72,15,15c0,8.29-6.71,15-15,15h-31.1   c-8.28,0-15-6.71-15-15C179.413,216.8,186.133,210.08,194.413,210.08z M194.413,261.69h31.1c8.29,0,15,6.71,15,15   c0,8.28-6.71,15-15,15h-31.1c-8.28,0-15-6.72-15-15C179.413,268.4,186.133,261.69,194.413,261.69z"/>
	<path d="M288.003,376.06h-153.48c-17.02,0-31.51,12.71-33.73,29.59l-9.515,78.546C90.196,493.13,97.17,501,106.169,501h210.187   c9,0,15.973-7.87,14.891-16.804l-9.515-78.546C319.523,388.78,305.023,376.06,288.003,376.06z M169.183,446.38   c0,8.28-6.71,15-15,15c-8.28,0-15-6.72-15-15v-10.46c0-8.28,6.72-15,15-15c8.29,0,15,6.72,15,15V446.38z M226.263,446.38   c0,8.28-6.72,15-15,15s-15-6.72-15-15v-10.46c0-8.28,6.72-15,15-15s15,6.72,15,15V446.38z M283.343,446.38c0,8.28-6.72,15-15,15   c-8.29,0-15-6.72-15-15v-10.46c0-8.28,6.71-15,15-15c8.28,0,15,6.72,15,15V446.38z"/>
	<path d="M288.793,68.85c0-5.06-4.12-9.18-9.19-9.18c-34.674,0-127.466,0-135.45,0c-5.06,0-9.18,4.12-9.18,9.18v18.26h153.82V68.85z   "/>
</g>















</svg>
