<?xml version="1.0" encoding="iso-8859-1"?>
<!-- Generator: Adobe Illustrator 19.0.0, SVG Export Plug-In . SVG Version: 6.00 Build 0)  -->
<svg xmlns="http://www.w3.org/2000/svg" xmlns:xlink="http://www.w3.org/1999/xlink" version="1.1" id="Layer_1" x="0px" y="0px" viewBox="0 0 494.942 494.942" style="enable-background:new 0 0 494.942 494.942;" xml:space="preserve" width="512" height="512">
<g>
	<path d="M442.291,204.676c-75.45-17.414-117.946-82.766-121.6-115.87c-9.977-0.817-135.851-0.867-146.44,0   c-3.554,32.199-45.124,98.219-121.6,115.87l-23.16,5.34c-6.499,24.543-5.41,40.372-5.41,72.02c0,51.07,29.7,95.33,72.74,116.41   c-6.178-56.44,38.306-106.79,95.95-106.79h109.4c57.754,0,102.117,50.45,95.95,106.79c43.04-21.08,72.74-65.34,72.74-116.41   c0-31.696,1.082-47.503-5.41-72.02L442.291,204.676z M151.051,247.106c0,8.29-6.71,15-15,15c-8.28,0-15-6.71-15-15v-24.25   c0-8.29,6.72-15,15-15c8.29,0,15,6.71,15,15V247.106z M373.891,247.106c0,8.29-6.72,15-15,15c-8.29,0-15-6.71-15-15v-24.25   c0-8.29,6.71-15,15-15c8.28,0,15,6.71,15,15V247.106z"/>
	<path d="M302.171,321.656h-109.4c-36.67,0-66.5,29.83-66.5,66.5c0,36.792,29.951,66.5,66.5,66.5h109.4   c36.597,0,66.5-29.76,66.5-66.5C368.671,351.486,338.841,321.656,302.171,321.656z M293.451,369.096c0-8.28,6.72-15,15-15   c8.29,0,15,6.72,15,15v37.7c0,8.278-6.702,15-15,15c-8.4,0-15-6.855-15-15V369.096z M171.491,369.096c0-8.28,6.71-15,15-15   c8.28,0,15,6.72,15,15v37.7c0,8.158-6.613,15-15,15c-8.293,0-15-6.717-15-15V369.096z"/>
	<path d="M142.031,94.726c8.313-19.868-4.139-42.404-25.48-45.85l-48.19-7.83c-34.47-5.535-65.254,20.559-66.25,54.69l-2.104,70.998   c-0.291,9.825,8.779,17.272,18.356,15.063c4.961-1.144,12.489-2.881,24.268-5.6C88.442,165.552,123.841,137.108,142.031,94.726z"/>
	<path d="M492.831,95.736c-1.006-34.457-32.233-60.267-66.25-54.69l-48.19,7.83c-21.636,3.494-33.833,26.429-25.39,46.06   c16.435,38.618,49.912,69.783,99.31,81.26c11.803,2.724,19.323,4.46,24.268,5.6c9.578,2.209,18.647-5.238,18.356-15.063   L492.831,95.736z"/>
</g>















</svg>
