<?xml version="1.0" encoding="iso-8859-1"?>
<!-- Generator: Adobe Illustrator 19.0.0, SVG Export Plug-In . SVG Version: 6.00 Build 0)  -->
<svg xmlns="http://www.w3.org/2000/svg" xmlns:xlink="http://www.w3.org/1999/xlink" version="1.1" id="Layer_1" x="0px" y="0px" viewBox="0 0 501 501" style="enable-background:new 0 0 501 501;" xml:space="preserve" width="512" height="512">
<g>
	<path d="M185.76,151.41V92.99c0-34.73,28.26-62.99,62.99-62.99s62.99,28.26,62.99,62.99v58.42c10.856,0,19.144,0,30,0V92.99   C341.74,41.71,300.02,0,248.75,0s-92.99,41.71-92.99,92.99v58.42C166.616,151.41,174.904,151.41,185.76,151.41z"/>
	<path d="M383.777,181.41H117.223c-7.954,0-14.525,6.209-14.976,14.15L85.81,485.15c-0.488,8.605,6.357,15.85,14.976,15.85h299.429   c8.618,0,15.464-7.245,14.976-15.85l-16.437-289.59C398.302,187.619,391.731,181.41,383.777,181.41z M167.78,250.56   c17.168-17.169,44.932-16.999,61.93,0c17.07,17.07,17.07,44.85,0,61.92c-17.077,17.077-44.846,17.084-61.93,0   C150.71,295.41,150.719,267.617,167.78,250.56z M188.14,395.64c-5.86-5.86-5.86-15.36,0-21.21l103.51-103.52   c5.86-5.85,15.35-5.85,21.21,0c5.86,5.86,5.86,15.36,0,21.22L209.35,395.64C203.522,401.467,194.02,401.519,188.14,395.64z    M333.22,416c-17.131,17.09-44.867,17.042-61.93,0c-17.07-17.08-17.07-44.86,0-61.93c17.08-17.08,44.86-17.08,61.93,0   C350.29,371.14,350.29,398.92,333.22,416z"/>
	<path d="M208.5,291.27c5.374-5.374,5.38-14.119,0-19.5c-5.353-5.353-14.116-5.394-19.51,0c-5.37,5.38-5.37,14.12,0,19.5   C194.37,296.65,203.12,296.65,208.5,291.27z"/>
	<path d="M292.5,375.28c-5.421,5.442-5.335,14.166,0,19.5c5.38,5.38,14.13,5.38,19.51,0c5.341-5.321,5.406-14.094,0-19.5   C306.634,369.904,297.872,369.908,292.5,375.28z"/>
</g>















</svg>
