<?xml version="1.0" encoding="iso-8859-1"?>
<!-- Generator: Adobe Illustrator 19.0.0, SVG Export Plug-In . SVG Version: 6.00 Build 0)  -->
<svg xmlns="http://www.w3.org/2000/svg" xmlns:xlink="http://www.w3.org/1999/xlink" version="1.1" id="Layer_1" x="0px" y="0px" viewBox="0 0 506 506" style="enable-background:new 0 0 506 506;" xml:space="preserve" width="512" height="512">
<g>
	<path d="M213.81,75.74c10.445-1.076,40.423-0.848,48.65,0l4.83-22.88c3.93-18.762-10.398-35.97-29.16-35.97   c-18.94,0-33.07,17.44-29.16,35.97L213.81,75.74z"/>
	<path d="M382.1,324.27l7.05,67.34l115.572-128.805c0.823-0.917,1.278-2.107,1.278-3.339v-24.604c0-4.201-4.867-6.529-8.138-3.893   L382.1,324.27z"/>
	<path d="M87.25,226.67C39.14,226.67,0,265.81,0,313.92c0,47.73,38.53,86.64,86.12,87.23l3.14-29.98   c-36.443,0-59.26-27.85-59.26-57.25c0-31.57,25.68-57.25,57.25-57.25h14c1.924-18.384,1.216-11.619,3.14-30H87.25z"/>
	<path d="M339.76,208.05H136.51c-9.578,91.465-25.72,245.46-25.72,245.46c-1.987,19.041,12.868,35.6,32.07,35.6   c8.393,0,183.019,0,190.55,0c18.954,0,34.063-16.304,32.07-35.6C363.367,433.278,343.362,242.444,339.76,208.05z"/>
	<path d="M250.34,105.12h-24.42c-43.37,0-79.5,31.57-86.64,72.93h197.71C329.85,136.69,293.71,105.12,250.34,105.12z"/>
</g>















</svg>
