<?xml version="1.0" encoding="iso-8859-1"?>
<!-- Generator: Adobe Illustrator 19.0.0, SVG Export Plug-In . SVG Version: 6.00 Build 0)  -->
<svg xmlns="http://www.w3.org/2000/svg" xmlns:xlink="http://www.w3.org/1999/xlink" version="1.1" id="Layer_1" x="0px" y="0px" viewBox="0 0 496.997 496.997" style="enable-background:new 0 0 496.997 496.997;" xml:space="preserve" width="512" height="512">
<g>
	<path d="M0,259.223L0,259.223c0,14.144,11.466,25.609,25.609,25.609h188.588v-51.218H25.609C11.466,233.614,0,245.079,0,259.223z"/>
	<path d="M244.197,233.613c0,20.297,0,157.128,0,175.42c0,6.64,5.4,12.04,12.04,12.04h228.72c6.64,0,12.04-5.4,12.04-12.04v-175.42   C487.259,233.613,252.118,233.613,244.197,233.613z"/>
	<path d="M478.197,161.503h-215.2c-10.37,0-18.8,8.44-18.8,18.8v23.31h252.8v-23.31   C496.997,169.943,488.567,161.503,478.197,161.503z"/>
	<path d="M390.027,131.503l4.988-39.428c1.085-8.572-5.597-16.152-14.237-16.152h-20.364c-8.641,0-15.322,7.58-14.237,16.152   l4.988,39.428H390.027z"/>
</g>















</svg>
