<?xml version="1.0" encoding="iso-8859-1"?>
<!-- Generator: Adobe Illustrator 19.0.0, SVG Export Plug-In . SVG Version: 6.00 Build 0)  -->
<svg xmlns="http://www.w3.org/2000/svg" xmlns:xlink="http://www.w3.org/1999/xlink" version="1.1" id="Layer_1" x="0px" y="0px" viewBox="0 0 502.439 502.439" style="enable-background:new 0 0 502.439 502.439;" xml:space="preserve" width="512" height="512">
<g>
	<path d="M389.67,107.819L377.15,86.13H125.29l-12.52,21.689c-15.67,27.11-24.28,57.83-25.02,89.11h326.94   C413.95,165.649,405.34,134.93,389.67,107.819z"/>
	<path d="M87.69,449.189v33.24c0,11.03,8.98,20.01,20.01,20.01h287.04c11.03,0,20.01-8.979,20.01-20.01v-33.24H87.69z"/>
	<path d="M414.74,226.93H87.7v192.26h327.04V226.93z M309.68,288.41l-11.65,11.649c15.95,22,15.44,44.521-2.1,62.07   c-10.3,10.29-27.01,19.02-43.62,22.77c-17.744,3.999-37.245,2.845-50.21-10.12c-11.29-11.29-14.88-29.119-10.12-50.22   c3.75-16.6,12.47-33.31,22.77-43.61c17.54-17.55,40.07-18.05,62.07-2.1l11.65-11.65c5.85-5.859,15.35-5.859,21.21,0   C315.54,273.05,315.54,282.55,309.68,288.41z"/>
	<path d="M370.8,15c0-8.25-6.75-15-15-15H146.64c-8.284,0-15,6.715-15,15v41.13H370.8V15z"/>
	<path d="M245.68,297.439c-4.99,0-7.95,2.96-9.72,4.721c-6.31,6.319-12.23,17.97-14.72,29.01c-2.31,10.229-1.52,18.81,2.07,22.399   c3.58,3.58,12.17,4.37,22.4,2.061c11.03-2.49,22.69-8.4,29-14.72c1.77-1.761,4.73-4.721,4.73-9.721c0-4.89-2.84-11.74-12.43-21.33   C257.43,300.279,250.58,297.439,245.68,297.439z"/>
</g>















</svg>
