<?xml version="1.0" encoding="iso-8859-1"?>
<!-- Generator: Adobe Illustrator 19.0.0, SVG Export Plug-In . SVG Version: 6.00 Build 0)  -->
<svg xmlns="http://www.w3.org/2000/svg" xmlns:xlink="http://www.w3.org/1999/xlink" version="1.1" id="Layer_1" x="0px" y="0px" viewBox="0 0 493.465 493.465" style="enable-background:new 0 0 493.465 493.465;" xml:space="preserve" width="512" height="512">
<g>
	<path d="M116.435,157.225c20.369,126.611,129.89,228.527,267.64,229.96c21.31-7.71,41.33-18.19,59.81-31.31l-12.46-49.77   C300.633,335.708,172.441,269.262,116.435,157.225z"/>
	<path d="M483.975,302.715c-3.39-5.15-10.16-9.53-18.97-6.37c-1.56,0.56-3.12,1.1-4.68,1.63c0.004,0.015,9.25,36.965,9.25,36.98   c2.578-2.44,6.592-6.148,12.82-12.8C488.053,316.074,487.929,308.733,483.975,302.715z"/>
	<path d="M82.955,108.605c-8.748-0.919-46.195-4.854-50.58-5.31c-16.382,35.063-25.72,74.796-25.72,116.05   c0,151.15,122.97,274.12,274.13,274.12c34.74,0,68.44-6.37,100.35-18.95c0-4.555,0-50.449,0-57.37   C212.775,414.011,79.597,274.11,82.955,108.605z"/>
	<path d="M417.535,415.705c-1.233,0.129-4.404,0.411-6.4,0.56c0,6.133,0,38.069,0,44.28c4.596-2.479,18.399-10.168,22.12-13.89   c5.49-5.61,5.69-12.96,3.74-18.51C434.635,421.425,428.275,414.645,417.535,415.705z"/>
	<path d="M97.925,80.015c16.24-67.848,2.718-11.347,14.019-58.568c2.119-8.856-4.076-17.546-13.139-18.425L68.38,0.071   c-7.781-0.755-14.836,4.59-16.213,12.285c-3.294,18.411-8.65,48.347-11.033,61.689C41.135,74.045,93.417,79.539,97.925,80.015z"/>
</g>















</svg>
