<?xml version="1.0" encoding="iso-8859-1"?>
<!-- Generator: Adobe Illustrator 19.0.0, SVG Export Plug-In . SVG Version: 6.00 Build 0)  -->
<svg xmlns="http://www.w3.org/2000/svg" xmlns:xlink="http://www.w3.org/1999/xlink" version="1.1" id="Layer_1" x="0px" y="0px" viewBox="0 0 501.998 501.998" style="enable-background:new 0 0 501.998 501.998;" xml:space="preserve" width="512" height="512">
<g>
	<path d="M131.499,200.678l-127.11,127.1c-5.85,5.86-5.85,15.35,0,21.21c5.862,5.861,15.348,5.872,21.22,0l127.1-127.1   C144.741,216.091,137.518,208.952,131.499,200.678z"/>
	<path d="M259.749,58.807l33.21-33.2c5.85-5.86,5.85-15.36,0-21.22c-5.86-5.85-15.36-5.85-21.22,0l-33.21,33.21   C251.574,50.631,246.732,45.791,259.749,58.807z"/>
	<path d="M315.789,114.848l33.2-33.21c5.86-5.85,5.86-15.35,0-21.21c-5.86-5.86-15.35-5.86-21.21,0l-33.21,33.21   C307.615,106.671,302.772,101.831,315.789,114.848z"/>
	<path d="M255.949,190.897l46.73-46.73c-9.255-9.255-84.469-84.469-93.46-93.46l-46.73,46.73c-25.708,25.708-25.831,67.629,0,93.46   C188.277,216.684,230.203,216.643,255.949,190.897z"/>
	<path d="M497.609,153.007c-5.86-5.86-15.36-5.86-21.22,0l-127.1,127.1c8.04,5.835,15.279,13.057,21.21,21.21l127.11-127.1   C503.459,168.357,503.459,158.868,497.609,153.007z"/>
	<path d="M242.249,443.187l-33.21,33.2c-5.85,5.86-5.85,15.36,0,21.22c5.835,5.835,15.349,5.872,21.22,0l33.21-33.21   C250.423,451.364,255.265,456.204,242.249,443.187z"/>
	<path d="M186.209,387.147l-33.2,33.21c-5.86,5.85-5.86,15.35,0,21.21c5.857,5.857,15.361,5.85,21.21,0l33.21-33.21   C194.383,395.324,199.225,400.163,186.209,387.147z"/>
	<path d="M246.049,311.098l-46.73,46.73c9.255,9.255,84.469,84.469,93.46,93.46l46.73-46.73c25.708-25.708,25.831-67.628,0-93.46   C313.71,285.301,271.787,285.371,246.049,311.098z"/>
</g>















</svg>
