<?xml version="1.0" encoding="iso-8859-1"?>
<!-- Generator: Adobe Illustrator 19.0.0, SVG Export Plug-In . SVG Version: 6.00 Build 0)  -->
<svg xmlns="http://www.w3.org/2000/svg" xmlns:xlink="http://www.w3.org/1999/xlink" version="1.1" id="Layer_1" x="0px" y="0px" viewBox="0 0 493.333 493.333" style="enable-background:new 0 0 493.333 493.333;" xml:space="preserve" width="512" height="512">
<g>
	<path d="M301.548,104.287c0-20.499-11.314-39.151-29.514-48.668c-6.054-3.156-9.858-9.418-9.858-16.255V15.509   c0-8.55-6.96-15.509-15.509-15.509c-8.55,0-15.509,6.959-15.509,15.509v23.855c0,6.837-3.804,13.099-9.858,16.255   c-18.2,9.516-29.514,28.169-29.514,48.668v1.627h109.762V104.287z"/>
	<path d="M268.117,276.213h77.32v-30c0-23.152-18.768-41.92-41.92-41.92h-113.7c-23.152,0-41.92,18.768-41.92,41.92v232.12   c0,8.284,6.716,15,15,15h167.54c8.284,0,15-6.716,15-15v-42.67h-77.32c-8.535,0-15.395-7.123-14.982-15.737   c0.386-8.063,7.334-14.263,15.406-14.263l76.896,0v-34.72h-76.901c-8.081,0-15.03-6.216-15.402-14.288   c-0.397-8.614,6.457-15.712,14.984-15.712h77.32v-34.73H268.54c-8.072,0-15.02-6.2-15.406-14.263   C252.722,283.336,259.582,276.213,268.117,276.213z"/>
	<path d="M203.987,135.913v38.38h-18.52c-8.284,0-15-6.716-15-15v-8.38c0-8.284,6.716-15,15-15H203.987z"/>
	<path d="M289.347,174.293h18.52c8.284,0,15-6.716,15-15v-8.38c0-8.25-6.75-15-15-15h-18.52   C289.347,151.013,289.347,160.076,289.347,174.293z"/>
	<path d="M233.987,174.293h25.36c0-14.211,0-23.284,0-38.38h-25.36C233.987,151.013,233.987,160.076,233.987,174.293z"/>
</g>















</svg>
