<?xml version="1.0" encoding="iso-8859-1"?>
<!-- Generator: Adobe Illustrator 19.0.0, SVG Export Plug-In . SVG Version: 6.00 Build 0)  -->
<svg xmlns="http://www.w3.org/2000/svg" xmlns:xlink="http://www.w3.org/1999/xlink" version="1.1" id="Layer_1" x="0px" y="0px" viewBox="0 0 496.2 496.2" style="enable-background:new 0 0 496.2 496.2;" xml:space="preserve" width="512" height="512">
<g>
	<path d="M394.211,0h-292.22c-8.284,0-15,6.716-15,15v29.42h322.22V15C409.211,6.716,402.495,0,394.211,0z"/>
	<path d="M411.411,74.42H84.791c-20.791,133.943-21.785,271.923-1.925,408.928c1.069,7.378,7.398,12.852,14.853,12.852h300.764   c7.455,0,13.783-5.474,14.853-12.852C433.141,346.72,432.257,208.718,411.411,74.42z M300.441,439.08h-37.34v25.05   c0,8.28-6.72,15-15,15c-8.28,0-15-6.72-15-15v-25.05h-37.34c-44.52,0-80.73-36.22-80.73-80.73c0-8.29,6.71-15,15-15h52.34   c19.19,0,36.86,6.73,50.73,17.98v-33.56h-30.62c-39.86,0-72.29-32.43-72.29-72.29c0-8.29,6.72-15,15-15h45.62   c15.78,0,30.39,5.08,42.29,13.69V234.4l-10.56-10.56c-28.85-28.85-28.85-75.8,0-104.65l14.95-14.94c5.86-5.86,15.36-5.86,21.22,0   l14.94,14.94c13.98,13.98,21.68,32.56,21.68,52.33c0,19.76-7.7,38.34-21.68,52.32l-10.55,10.56v19.77   c11.9-8.61,26.51-13.69,42.29-13.69h45.62c8.28,0,15,6.71,15,15c0,39.86-32.43,72.29-72.29,72.29h-30.62v33.56   c13.87-11.25,31.54-17.98,50.73-17.98h52.34c8.29,0,15,6.71,15,15C381.171,402.86,344.961,439.08,300.441,439.08z"/>
	<path d="M265.361,409.08h35.08c22.76,0,42.06-15.06,48.47-35.73h-35.08C291.081,373.35,271.771,388.4,265.361,409.08z"/>
	<path d="M182.371,373.35h-35.08c6.41,20.67,25.71,35.73,48.47,35.73h35.08C224.431,388.4,205.121,373.35,182.371,373.35z"/>
	<path d="M333.261,270.48h-27.87c-18.04,0-33.48,11.35-39.54,27.29h27.87C311.761,297.77,327.201,286.41,333.261,270.48z"/>
	<path d="M190.811,270.48h-27.87c6.06,15.93,21.5,27.29,39.54,27.29h27.87C224.291,281.83,208.851,270.48,190.811,270.48z"/>
	<path d="M248.101,136.06c-5.076,5.088-17.23,15.44-17.23,35.46c0,19.745,11.728,29.948,17.23,35.45   c4.961-4.962,17.23-15.375,17.23-35.45C265.331,151.839,253.706,141.678,248.101,136.06z"/>
</g>















</svg>
