<?xml version="1.0" encoding="iso-8859-1"?>
<!-- Generator: Adobe Illustrator 19.0.0, SVG Export Plug-In . SVG Version: 6.00 Build 0)  -->
<svg xmlns="http://www.w3.org/2000/svg" xmlns:xlink="http://www.w3.org/1999/xlink" version="1.1" id="Layer_1" x="0px" y="0px" viewBox="0 0 486.88 486.88" style="enable-background:new 0 0 486.88 486.88;" xml:space="preserve" width="512" height="512">
<g>
	<path d="M264.032,90.79c0-33.52,27.27-60.79,60.79-60.79s60.79,27.27,60.79,60.79v56.35h30V90.79c0-50.06-40.73-90.79-90.79-90.79   c-50.06,0-90.79,40.73-90.79,90.79v56.35h30V90.79z"/>
	<path d="M455.24,177.14h-39.627v57.116c0,8.073-6.2,15.02-14.263,15.406c-8.614,0.412-15.737-6.448-15.737-14.982v-57.54h-121.58   v57.116c0,8.072-6.2,15.02-14.263,15.406c-8.614,0.412-15.737-6.448-15.737-14.982v-57.54h-36.227   c-7.954,0-14.525,6.209-14.976,14.15l-15.877,279.74c-0.488,8.605,6.358,15.85,14.976,15.85h289.189   c8.618,0,15.464-7.245,14.976-15.85l-15.877-279.74C469.765,183.349,463.194,177.14,455.24,177.14z"/>
	<path d="M99.33,243.438H15.762c-8.284,0-15,6.716-15,15s6.716,15,15,15H99.33c8.284,0,15-6.716,15-15   S107.614,243.438,99.33,243.438z"/>
	<path d="M99.33,321.862H48.167c-8.284,0-15,6.716-15,15s6.716,15,15,15H99.33c8.284,0,15-6.716,15-15   S107.614,321.862,99.33,321.862z"/>
	<path d="M99.33,400.287H15.762c-8.284,0-15,6.716-15,15s6.716,15,15,15H99.33c8.284,0,15-6.716,15-15   S107.614,400.287,99.33,400.287z"/>
</g>















</svg>
