<?xml version="1.0" encoding="iso-8859-1"?>
<!-- Generator: Adobe Illustrator 19.0.0, SVG Export Plug-In . SVG Version: 6.00 Build 0)  -->
<svg xmlns="http://www.w3.org/2000/svg" xmlns:xlink="http://www.w3.org/1999/xlink" version="1.1" id="Layer_1" x="0px" y="0px" viewBox="0 0 495.07 495.07" style="enable-background:new 0 0 495.07 495.07;" xml:space="preserve" width="512" height="512">
<g>
	<path d="M31.705,204.28v275.79c0,8.284,6.716,15,15,15h401.66c8.284,0,15-6.716,15-15V204.28H31.705z M154.185,398.11   c0,8.28-6.72,15-15,15c-8.28,0-15-6.72-15-15v-57.12l-10.69,12.11c-5.961,6.734-16.469,6.78-22.49,0l-10.69-12.11v57.12   c0,8.28-6.71,15-15,15c-8.28,0-15-6.72-15-15v-96.76c0-13.844,17.178-20.223,26.24-9.93l25.69,29.09l25.7-29.09   c9.11-10.323,26.24-3.872,26.24,9.93V398.11z M210.885,398.11c0,8.28-6.72,15-15,15c-8.29,0-15-6.72-15-15v-96.76   c0-8.29,6.71-15,15-15c8.28,0,15,6.71,15,15V398.11z M303.445,413.33h-51.09c-8.28,0-15-6.72-15-15v-96.76c0-8.29,6.72-15,15-15   s15,6.71,15,15c0,5.735,0,79.256,0,81.76c9.453,0,15.546,0,36.09,0c8.29,0,15,6.71,15,15   C318.445,406.61,311.735,413.33,303.445,413.33z M438.785,410.08c-6.612,4.996-16.019,3.675-21.01-2.94l-35.52-47.08l-14.53,15.57   v22.48c0,8.28-6.72,15-15,15c-8.29,0-15-6.72-15-15v-96.76c0-8.29,6.71-15,15-15c8.28,0,15,6.71,15,15v30.31l38.13-40.87   c5.65-6.06,15.14-6.39,21.2-0.73c6.06,5.65,6.39,15.14,0.74,21.2l-24.75,26.53l38.68,51.28   C446.715,395.69,445.405,405.09,438.785,410.08z"/>
	<path d="M383.315,18.95c0-10.45-8.5-18.95-18.95-18.95h-233.66c-10.45,0-18.95,8.5-18.95,18.95v39.96h271.56V18.95z"/>
	<polygon points="389.785,88.91 105.285,88.91 45.515,174.28 449.555,174.28  "/>
</g>















</svg>
