<?xml version="1.0" encoding="iso-8859-1"?>
<!-- Generator: Adobe Illustrator 19.0.0, SVG Export Plug-In . SVG Version: 6.00 Build 0)  -->
<svg xmlns="http://www.w3.org/2000/svg" xmlns:xlink="http://www.w3.org/1999/xlink" version="1.1" id="Layer_1" x="0px" y="0px" viewBox="0 0 467.473 467.473" style="enable-background:new 0 0 467.473 467.473;" xml:space="preserve" width="512" height="512">
<g>
	<g>
		<path d="M127.895,47.938c-69.969,80.692-67.495,203.686,10.23,281.41c77.763,77.763,200.755,80.167,281.41,10.23L127.895,47.938z     M148.485,177.998c-5.86-5.85-5.86-15.35,0-21.21l5.01-5.01c5.86-5.86,15.35-5.86,21.21,0c5.86,5.86,5.86,15.35,0,21.21    l-5.01,5.01C163.822,183.872,154.324,183.856,148.485,177.998z M202.595,286.098l-5.02,5.01c-5.851,5.851-15.355,5.855-21.21,0    c-5.86-5.86-5.86-15.36,0-21.21l5.01-5.02c5.86-5.85,15.36-5.85,21.22,0C208.445,270.738,208.445,280.238,202.595,286.098z     M310.685,318.988c-5.876,5.875-15.372,5.857-21.21,0c-5.86-5.85-5.86-15.35,0-21.21l5.01-5.01c5.86-5.86,15.35-5.86,21.21,0    c5.86,5.86,5.86,15.35,0,21.21L310.685,318.988z"/>
		<path d="M463.075,383.117c6.317,6.317,5.759,16.737-1.218,22.317c-111.581,89.243-275.327,82.21-378.682-21.136    C-20.171,280.952-27.204,117.207,62.039,5.617c5.579-6.977,16-7.535,22.317-1.218l22.279,22.279    c-81.915,92.765-78.912,234.688,10.27,323.89c89.048,89.028,230.96,92.33,323.89,10.27L463.075,383.117z"/>
	</g>
	<g>
		<path d="M127.895,47.938c-69.969,80.692-67.495,203.686,10.23,281.41c77.763,77.763,200.755,80.167,281.41,10.23L127.895,47.938z     M148.485,177.998c-5.86-5.85-5.86-15.35,0-21.21l5.01-5.01c5.86-5.86,15.35-5.86,21.21,0c5.86,5.86,5.86,15.35,0,21.21    l-5.01,5.01C163.822,183.872,154.324,183.856,148.485,177.998z M202.595,286.098l-5.02,5.01c-5.851,5.851-15.355,5.855-21.21,0    c-5.86-5.86-5.86-15.36,0-21.21l5.01-5.02c5.86-5.85,15.36-5.85,21.22,0C208.445,270.738,208.445,280.238,202.595,286.098z     M310.685,318.988c-5.876,5.875-15.372,5.857-21.21,0c-5.86-5.85-5.86-15.35,0-21.21l5.01-5.01c5.86-5.86,15.35-5.86,21.21,0    c5.86,5.86,5.86,15.35,0,21.21L310.685,318.988z"/>
	</g>
</g>















</svg>
