<?xml version="1.0" encoding="iso-8859-1"?>
<!-- Generator: Adobe Illustrator 19.0.0, SVG Export Plug-In . SVG Version: 6.00 Build 0)  -->
<svg xmlns="http://www.w3.org/2000/svg" xmlns:xlink="http://www.w3.org/1999/xlink" version="1.1" id="Layer_1" x="0px" y="0px" viewBox="0 0 500.2 500.2" style="enable-background:new 0 0 500.2 500.2;" xml:space="preserve" width="512" height="512">
<g>
	<path d="M332.44,94.083c-6.765-21.366-22.019-38.993-41.787-48.905c-10.017-5.023-21.823,2.159-21.823,13.364v38.581   C290.251,93.797,312.286,92.882,332.44,94.083z"/>
	<path d="M268.83,397.133v44.492c0,11.143,11.726,18.408,21.696,13.432c21.653-10.807,37.917-30.869,43.564-54.974   C312.648,401.418,290.517,400.5,268.83,397.133z"/>
	<path d="M182.37,161.493c-69.463,48.128-69.53,123.095,0,171.27c43.806,30.335,101.696,41.145,153.9,37.1   c0-25.165,0-221.184,0-245.47C283.466,120.297,225.713,131.452,182.37,161.493z M207.4,259.083c8.28,0,15,6.72,15,15   c0,8.28-6.72,15-15,15c-23.14,0-41.96-18.82-41.96-41.96c0-23.13,18.82-41.95,41.96-41.95c8.28,0,15,6.71,15,15   c0,8.28-6.72,15-15,15c-6.6,0-11.96,5.36-11.96,11.95C195.44,253.723,200.8,259.083,207.4,259.083z M285.41,312.863   c8.29,0,15,6.71,15,15c0,8.28-6.71,15-15,15c-23.13,0-41.95-18.82-41.95-41.96c0-23.13,18.82-41.96,41.95-41.96   c8.29,0,15,6.72,15,15c0,8.29-6.71,15-15,15c-6.59,0-11.95,5.37-11.95,11.96C273.46,307.493,278.82,312.863,285.41,312.863z    M304.18,166.393c0,8.28-6.72,15-15,15c-6.6,0-11.96,5.36-11.96,11.96c0,6.59,5.36,11.95,11.96,11.95c8.28,0,15,6.72,15,15   c0,8.29-6.72,15-15,15c-23.14,0-41.96-18.82-41.96-41.95c0-23.215,18.905-41.96,41.96-41.96   C297.458,151.393,304.18,158.11,304.18,166.393z"/>
	<path d="M366.27,128.403c0,6.053,0,205.782,0,237.44c65.453-16.376,133.93-51.08,133.93-118.72   C500.2,183.763,431.338,140.905,366.27,128.403z M446.39,257.823c0,8.28-6.71,15-15,15c-8.28,0-15-6.72-15-15v-21.39   c0-8.28,6.72-15,15-15c8.29,0,15,6.72,15,15V257.823z"/>
	<path d="M33.41,149.253H9.99c-5.517,0-9.99,4.473-9.99,9.99v0.01c0,36.528,29.612,66.14,66.14,66.14h33.41v-10   C99.55,178.865,69.938,149.253,33.41,149.253z"/>
	<path d="M0,321.533L0,321.533c0,5.517,4.473,9.99,9.99,9.99h23.42c36.528,0,66.14-29.612,66.14-66.14v-9.99H66.14   C29.612,255.393,0,285.005,0,321.533z"/>
</g>















</svg>
