<?xml version="1.0" encoding="iso-8859-1"?>
<!-- Generator: Adobe Illustrator 19.0.0, SVG Export Plug-In . SVG Version: 6.00 Build 0)  -->
<svg xmlns="http://www.w3.org/2000/svg" xmlns:xlink="http://www.w3.org/1999/xlink" version="1.1" id="Layer_1" x="0px" y="0px" viewBox="0 0 497.726 497.726" style="enable-background:new 0 0 497.726 497.726;" xml:space="preserve" width="512" height="512">
<g>
	<path d="M178.6,265.535l-13.12,57.95h29.864c6.603,0,11.378-6.282,9.634-12.651c-3.979-14.532-5.427-29.808-5.528-45.299H178.6z"/>
	<path d="M67.33,264.455L33.888,412.111c-2.125,9.384,5.008,18.313,14.629,18.313h49.999c7.008,0,13.083-4.856,14.631-11.692   c28.373-125.313,10.074-44.464,34.693-153.198C77.341,265.535,77.389,265.877,67.33,264.455z"/>
	<path d="M0,152.635c0,45.64,37.117,82.9,82.9,82.9c17.733,0,161.184,0,192.89,0v-165.8H82.9C37.19,69.735,0,106.925,0,152.635z"/>
	<path d="M305.79,69.735v165.8h39.96c8.284,0,15-6.716,15-15v-135.8c0-8.284-6.716-15-15-15H305.79z"/>
	<g>
		<path d="M410.075,97.301h72.65c8.284,0,15-6.716,15-15s-6.716-15-15-15h-72.65c-8.284,0-15,6.716-15,15    S401.791,97.301,410.075,97.301z"/>
		<path d="M482.726,114.19h-72.65c-8.284,0-15,6.716-15,15s6.716,15,15,15h72.65c8.284,0,15-6.716,15-15    S491.01,114.19,482.726,114.19z"/>
		<path d="M482.726,161.079h-72.65c-8.284,0-15,6.716-15,15s6.716,15,15,15h72.65c8.284,0,15-6.716,15-15    S491.01,161.079,482.726,161.079z"/>
		<path d="M482.726,207.968h-72.65c-8.284,0-15,6.716-15,15s6.716,15,15,15h72.65c8.284,0,15-6.716,15-15    S491.01,207.968,482.726,207.968z"/>
	</g>
</g>















</svg>
