<?xml version="1.0" encoding="iso-8859-1"?>
<!-- Generator: Adobe Illustrator 19.0.0, SVG Export Plug-In . SVG Version: 6.00 Build 0)  -->
<svg xmlns="http://www.w3.org/2000/svg" xmlns:xlink="http://www.w3.org/1999/xlink" version="1.1" id="Layer_1" x="0px" y="0px" viewBox="0 0 489.498 489.498" style="enable-background:new 0 0 489.498 489.498;" xml:space="preserve" width="512" height="512">
<g>
	<path d="M106.419,15v346.153c0,4.198,1.759,8.204,4.85,11.044l123.33,113.344c5.739,5.274,14.561,5.274,20.3,0l123.33-113.344   c3.091-2.841,4.85-6.846,4.85-11.044V15c0-8.284-6.716-15-15-15h-246.66C113.134,0,106.419,6.716,106.419,15z M155.549,124.29   c18.08-18.09,47.51-18.09,65.59,0c18.08,18.08,18.08,47.5,0,65.58c-18.083,18.083-47.513,18.076-65.59,0   C137.469,171.79,137.469,142.37,155.549,124.29z M198.949,280.5c-5.86,5.84-15.326,5.864-21.21,0c-5.86-5.86-5.86-15.36,0-21.22   l112.81-112.81c5.86-5.86,15.36-5.86,21.21,0c5.86,5.86,5.86,15.36,0,21.21L198.949,280.5z M333.949,302.68   c-18.074,18.074-47.505,18.085-65.59,0c-18.08-18.08-18.08-47.5,0-65.58c18.09-18.09,47.51-18.08,65.59,0   C352.029,255.18,352.029,284.6,333.949,302.68z"/>
	<path d="M199.919,145.5c-6.374-6.374-16.75-6.4-23.15,0c-6.39,6.38-6.39,16.77,0,23.16c6.38,6.38,16.77,6.38,23.15,0   C206.309,162.27,206.309,151.88,199.919,145.5z"/>
	<path d="M289.579,258.31c-6.39,6.38-6.39,16.77,0,23.16c6.38,6.38,16.77,6.38,23.15,0c6.39-6.39,6.39-16.78,0-23.16   C306.375,251.956,295.998,251.891,289.579,258.31z"/>
</g>















</svg>
