<?xml version="1.0" encoding="iso-8859-1"?>
<!-- Generator: Adobe Illustrator 16.0.0, SVG Export Plug-In . SVG Version: 6.00 Build 0)  -->
<!DOCTYPE svg PUBLIC "-//W3C//DTD SVG 1.1//EN" "http://www.w3.org/Graphics/SVG/1.1/DTD/svg11.dtd">
<svg version="1.1" id="Capa_1" xmlns="http://www.w3.org/2000/svg" xmlns:xlink="http://www.w3.org/1999/xlink" x="0px" y="0px"
	 width="46.553px" height="46.553px" viewBox="0 0 46.553 46.553" style="enable-background:new 0 0 46.553 46.553;"
	 xml:space="preserve">
<g>
	<path d="M46.211,25.585c-0.546-1.058-1.647-1.713-2.837-1.69c-8.433,0.16-13.262,4.646-21.188,2.549
		c-10.21-2.704-12.521-9.645-13.019-10.558c-1.481-2.72-3.373-2.131-4.126-3.399c-0.124-0.238-0.874-1.856-1.375-2.94
		C3.411,8.996,2.767,8.746,2.208,8.981l-1.52,0.64c-0.5,0.21-0.777,0.746-0.662,1.276c0.247,1.135,0.638,2.976,0.674,3.422
		c0.037,0.411-0.574,1.869-0.66,3.531c-0.071,1.363,0.281,2.972,1.018,4.313C1.72,23.539,6.98,34.818,18.644,36.963
		c16.104,2.962,24.666-4.224,27.411-8.346c0.598-0.896,0.662-2.049,0.169-3.005L46.211,25.585z M6.383,26.515
		c-0.358,0-0.715-0.149-0.968-0.442c-1.839-2.118-3.479-5.59-3.547-5.737c-0.304-0.645-0.029-1.414,0.613-1.718
		c0.639-0.305,1.407-0.03,1.71,0.617c0.016,0.033,1.56,3.296,3.16,5.142c0.465,0.538,0.412,1.354-0.126,1.821
		C6.983,26.41,6.682,26.515,6.383,26.515z M8.583,29.268c-0.721,0-1.308-0.588-1.308-1.314s0.587-1.313,1.308-1.313
		c0.724,0,1.31,0.588,1.31,1.313C9.894,28.68,9.308,29.268,8.583,29.268z"/>
</g>
<g>
</g>
<g>
</g>
<g>
</g>
<g>
</g>
<g>
</g>
<g>
</g>
<g>
</g>
<g>
</g>
<g>
</g>
<g>
</g>
<g>
</g>
<g>
</g>
<g>
</g>
<g>
</g>
<g>
</g>
</svg>
