<?xml version="1.0" encoding="iso-8859-1"?>
<!-- Generator: Adobe Illustrator 16.0.0, SVG Export Plug-In . SVG Version: 6.00 Build 0)  -->
<!DOCTYPE svg PUBLIC "-//W3C//DTD SVG 1.1//EN" "http://www.w3.org/Graphics/SVG/1.1/DTD/svg11.dtd">
<svg version="1.1" id="Capa_1" xmlns="http://www.w3.org/2000/svg" xmlns:xlink="http://www.w3.org/1999/xlink" x="0px" y="0px"
	 width="46.548px" height="46.548px" viewBox="0 0 46.548 46.548" style="enable-background:new 0 0 46.548 46.548;"
	 xml:space="preserve">
<g>
	<g>
		<path d="M46.004,0.544c-3.455-3.455-22.81,10.301-32.258,19.748c-9.447,9.448-6.434,12.035-2.979,15.489
			c3.453,3.454,6.041,6.468,15.489-2.979C35.703,23.354,49.458,4,46.004,0.544z M27.663,14.812c-0.874,0.088-1.65-0.549-1.738-1.423
			c-0.089-0.873,0.55-1.652,1.423-1.74c0.874-0.087,1.651,0.55,1.739,1.423C29.173,13.946,28.537,14.726,27.663,14.812z
			 M39.404,6.728c-0.026,0.014-2.674,1.441-7.725,5.242c-0.28,0.21-0.608,0.313-0.936,0.313c-0.472,0-0.938-0.214-1.243-0.621
			C28.984,10.975,29.122,10,29.81,9.482c5.279-3.973,8.02-5.441,8.134-5.501c0.756-0.403,1.699-0.116,2.103,0.643
			C40.448,5.381,40.162,6.325,39.404,6.728z"/>
		<path d="M10.773,39.383c-0.475-0.391-0.951-0.814-1.429-1.29l-0.666-0.666l-0.221-0.224c-0.006-0.004-0.011-0.011-0.016-0.015
			c-0.413-0.412-0.85-0.881-1.268-1.405c-1.605,0.523-3.429,0.699-5.285-0.01c-0.719-0.272-1.522,0.087-1.796,0.807
			c-0.202,0.528-0.06,1.104,0.316,1.479c0.135,0.134,0.312,0.255,0.501,0.327c1.176,0.447,2.167,0.479,3.302,0.521
			c0.25,0.009,0.471,0.166,0.562,0.399c0.091,0.231,0.036,0.497-0.141,0.674l-3.589,3.587c-0.544,0.543-0.544,1.424,0,1.968
			c0.544,0.543,1.425,0.543,1.969,0l3.596-3.595c0.178-0.177,0.443-0.232,0.677-0.14c0.233,0.092,0.389,0.313,0.396,0.564
			c0.034,1.13,0.055,2.114,0.503,3.294c0.074,0.189,0.173,0.347,0.31,0.481c0.376,0.377,0.949,0.516,1.477,0.313
			c0.72-0.272,1.079-1.078,0.806-1.797C10.072,42.811,10.248,40.988,10.773,39.383z"/>
	</g>
</g>
<g>
</g>
<g>
</g>
<g>
</g>
<g>
</g>
<g>
</g>
<g>
</g>
<g>
</g>
<g>
</g>
<g>
</g>
<g>
</g>
<g>
</g>
<g>
</g>
<g>
</g>
<g>
</g>
<g>
</g>
</svg>
