<?xml version="1.0" encoding="iso-8859-1"?>
<!-- Generator: Adobe Illustrator 16.0.0, SVG Export Plug-In . SVG Version: 6.00 Build 0)  -->
<!DOCTYPE svg PUBLIC "-//W3C//DTD SVG 1.1//EN" "http://www.w3.org/Graphics/SVG/1.1/DTD/svg11.dtd">
<svg version="1.1" id="Capa_1" xmlns="http://www.w3.org/2000/svg" xmlns:xlink="http://www.w3.org/1999/xlink" x="0px" y="0px"
	 width="46.775px" height="46.775px" viewBox="0 0 46.775 46.775" style="enable-background:new 0 0 46.775 46.775;"
	 xml:space="preserve">
<g>
	<g>
		<path d="M43.379,3.396c-4.989-4.99-13.176-4.893-21.135,3.066s-11.172,22.271-7.688,25.756c3.871,3.871,17.797,0.271,25.756-7.688
			C48.272,16.571,48.368,8.385,43.379,3.396z M24.495,11.559c-0.858,0-1.554-0.696-1.554-1.555c0-0.859,0.696-1.554,1.554-1.554
			c0.858,0,1.556,0.696,1.556,1.554C26.05,10.862,25.353,11.559,24.495,11.559z M34.163,5.766c-1.714,0-3.493,0.842-5.602,2.648
			c-0.287,0.246-0.639,0.366-0.99,0.366c-0.428,0-0.854-0.18-1.156-0.531c-0.547-0.638-0.473-1.599,0.165-2.146
			c2.69-2.306,5.101-3.38,7.582-3.38c0.841,0,1.521,0.681,1.521,1.521S35.003,5.766,34.163,5.766z"/>
		<path d="M13.122,33.654c-0.802-0.803-1.337-1.934-1.644-3.288L7.85,33.994c-0.116-0.15-0.24-0.296-0.378-0.436
			c-1.709-1.708-4.481-1.709-6.19,0s-1.708,4.481,0,6.191c0.851,0.851,1.965,1.274,3.08,1.276c0.767,0.001,1.388,0.621,1.388,1.389
			c0,1.114,0.424,2.228,1.275,3.079c1.709,1.709,4.481,1.709,6.191,0.001c1.709-1.709,1.709-4.481,0-6.191
			c-0.127-0.126-0.262-0.242-0.399-0.35l3.543-3.542C15.034,35.058,13.945,34.476,13.122,33.654z"/>
	</g>
</g>
<g>
</g>
<g>
</g>
<g>
</g>
<g>
</g>
<g>
</g>
<g>
</g>
<g>
</g>
<g>
</g>
<g>
</g>
<g>
</g>
<g>
</g>
<g>
</g>
<g>
</g>
<g>
</g>
<g>
</g>
</svg>
