<?xml version="1.0" encoding="iso-8859-1"?>
<!-- Generator: Adobe Illustrator 16.0.0, SVG Export Plug-In . SVG Version: 6.00 Build 0)  -->
<!DOCTYPE svg PUBLIC "-//W3C//DTD SVG 1.1//EN" "http://www.w3.org/Graphics/SVG/1.1/DTD/svg11.dtd">
<svg version="1.1" id="Capa_1" xmlns="http://www.w3.org/2000/svg" xmlns:xlink="http://www.w3.org/1999/xlink" x="0px" y="0px"
	 width="47.484px" height="47.485px" viewBox="0 0 47.484 47.485" style="enable-background:new 0 0 47.484 47.485;"
	 xml:space="preserve">
<g>
	<path d="M44.849,8.593c-2.059-2.341-4.495-3.656-5.845-3.253c-3.023-3.293-6.577-4.902-8.053-3.605
		c-1.207,1.061-2.854,1.484-4.421,1.134c-0.902-0.201-1.842-0.308-2.805-0.308c-0.962,0-1.899,0.106-2.802,0.306
		c-1.559,0.347-3.189-0.074-4.387-1.13c-0.002-0.001-0.003-0.002-0.004-0.003c-1.478-1.297-5.029,0.312-8.054,3.605
		C7.132,4.936,4.694,6.251,2.636,8.593c-2.344,2.666-3.303,5.652-2.145,6.67c0.87,0.764,2.685,0.202,4.527-1.253
		c0.093,0.164,0.209,0.308,0.349,0.431c1.111,0.977,3.399,0.306,5.75-1.488c-0.153,0.793-0.233,1.612-0.233,2.451
		c0,0.792,0.071,1.567,0.209,2.319c0.19,1.043-0.384,2.077-1.371,2.464c0.001,0,0,0,0,0c-3.527,1.382-5.264,5.36-3.882,8.885
		c1.119,2.854,4.862,6.864,8.116,7.556l1.032,2.531c0.447,1.098,0.387,2.339-0.163,3.388c-0.191,0.365-0.295,0.783-0.284,1.224
		c0.037,1.379,1.182,2.465,2.56,2.429c1.035-0.027,1.906-0.684,2.259-1.593c0.878,0.422,1.963,0.305,2.735-0.384
		c1.03-0.917,1.123-2.493,0.206-3.521c-0.293-0.331-0.654-0.563-1.043-0.698c-1.119-0.388-2.014-1.253-2.438-2.359l-0.986-2.564
		c0.839-1.213,1.304-2.962,1.464-4.78c0.058-0.651,0.379-1.252,0.89-1.661c0.511-0.41,1.168-0.593,1.816-0.507
		c0.563,0.075,1.138,0.114,1.722,0.114c0.593,0,1.176-0.04,1.748-0.118c0.649-0.088,1.309,0.093,1.82,0.503
		c0.513,0.41,0.834,1.011,0.893,1.665c0.16,1.819,0.625,3.569,1.463,4.784l-0.983,2.564c-0.427,1.106-1.318,1.972-2.438,2.359
		c-0.391,0.135-0.752,0.368-1.045,0.698c-0.917,1.028-0.824,2.604,0.205,3.521c0.774,0.688,1.856,0.807,2.735,0.384
		c0.354,0.909,1.224,1.564,2.259,1.593c1.377,0.036,2.523-1.05,2.562-2.429c0.011-0.44-0.093-0.857-0.285-1.224
		c-0.55-1.049-0.61-2.291-0.162-3.388l1.031-2.531c3.255-0.69,6.996-4.702,8.116-7.556c1.382-3.525-0.355-7.503-3.881-8.885
		c-0.009-0.003-0.018-0.006-0.024-0.01c-0.994-0.385-1.57-1.417-1.38-2.466c0.136-0.749,0.207-1.52,0.207-2.308
		c0-0.85-0.083-1.68-0.24-2.482c2.366,1.818,4.675,2.501,5.792,1.519c0.139-0.123,0.255-0.268,0.348-0.431
		c1.843,1.455,3.659,2.017,4.527,1.253C48.151,14.245,47.191,11.259,44.849,8.593z"/>
</g>
<g>
</g>
<g>
</g>
<g>
</g>
<g>
</g>
<g>
</g>
<g>
</g>
<g>
</g>
<g>
</g>
<g>
</g>
<g>
</g>
<g>
</g>
<g>
</g>
<g>
</g>
<g>
</g>
<g>
</g>
</svg>
