<?xml version="1.0" encoding="iso-8859-1"?>
<!-- Generator: Adobe Illustrator 16.0.0, SVG Export Plug-In . SVG Version: 6.00 Build 0)  -->
<!DOCTYPE svg PUBLIC "-//W3C//DTD SVG 1.1//EN" "http://www.w3.org/Graphics/SVG/1.1/DTD/svg11.dtd">
<svg version="1.1" id="Capa_1" xmlns="http://www.w3.org/2000/svg" xmlns:xlink="http://www.w3.org/1999/xlink" x="0px" y="0px"
	 width="45.159px" height="45.158px" viewBox="0 0 45.159 45.158" style="enable-background:new 0 0 45.159 45.158;"
	 xml:space="preserve">
<g>
	<g>
		<path d="M40.799,4.408c-0.038-0.554-0.499-0.984-1.056-0.984H5.414c-0.556,0-1.017,0.43-1.055,0.984L2.267,34.76
			c-0.021,0.293,0.082,0.58,0.282,0.795c0.199,0.213,0.479,0.336,0.771,0.336h38.517c0.293,0,0.573-0.123,0.772-0.336
			c0.2-0.215,0.302-0.502,0.282-0.795L40.799,4.408z M22.582,27.608c-4.241,0-7.682-3.439-7.682-7.682
			c0-4.243,3.44-7.682,7.682-7.682c4.242,0,7.683,3.439,7.683,7.682C30.264,24.169,26.824,27.608,22.582,27.608z"/>
		<path d="M38.959,0.409c-0.545-0.545-1.429-0.545-1.975,0l-0.267,0.268c-0.546,0.545-1.43,0.545-1.976,0L34.476,0.41
			c-0.545-0.545-1.43-0.545-1.976,0l-0.196,0.197c-0.545,0.545-1.43,0.545-1.976,0L30.13,0.409c-0.545-0.545-1.429-0.545-1.974,0
			l-0.268,0.268c-0.545,0.545-1.43,0.545-1.975,0l-0.268-0.268C25.385,0.147,25.03,0,24.66,0s-0.726,0.147-0.987,0.409l-0.104,0.106
			c-0.262,0.262-0.617,0.409-0.987,0.409c-0.371,0-0.726-0.147-0.986-0.409l-0.108-0.106c-0.545-0.545-1.429-0.545-1.974,0
			l-0.27,0.268c-0.545,0.545-1.429,0.545-1.974,0L17,0.409C16.739,0.147,16.384,0,16.014,0s-0.727,0.147-0.987,0.409l-0.198,0.198
			c-0.545,0.545-1.429,0.545-1.975,0l-0.198-0.198c-0.545-0.545-1.429-0.545-1.975,0l-0.268,0.268c-0.545,0.545-1.429,0.545-1.974,0
			L8.171,0.409C7.91,0.147,7.555,0,7.184,0.001c-0.37,0-0.726,0.147-0.987,0.409L5.25,1.357C5.136,1.472,5.102,1.645,5.164,1.795
			c0.062,0.15,0.208,0.248,0.371,0.248h34.089c0.162,0,0.31-0.098,0.371-0.248c0.062-0.15,0.027-0.323-0.087-0.438L38.959,0.409z"/>
		<path d="M3.641,40.896c0.579,1.447,1.449,2.761,2.557,3.857c0.546,0.541,1.426,0.539,1.969-0.004l0.273-0.273
			c0.545-0.545,1.429-0.545,1.974,0l0.269,0.269c0.545,0.545,1.429,0.545,1.975,0l0.198-0.198c0.545-0.545,1.429-0.545,1.975,0
			l0.197,0.198c0.262,0.263,0.617,0.409,0.987,0.409c0.371,0,0.726-0.146,0.986-0.409l0.269-0.269c0.545-0.545,1.429-0.545,1.974,0
			l0.27,0.269c0.545,0.545,1.429,0.545,1.974,0l0.106-0.106c0.262-0.262,0.616-0.408,0.986-0.408s0.727,0.146,0.987,0.408
			l0.104,0.106c0.263,0.263,0.617,0.409,0.987,0.409c0.371,0,0.727-0.146,0.987-0.409l0.268-0.269c0.545-0.545,1.43-0.545,1.975,0
			l0.269,0.269c0.545,0.545,1.429,0.545,1.974,0l0.198-0.198c0.545-0.545,1.43-0.545,1.976,0l0.197,0.198
			c0.545,0.545,1.43,0.545,1.976,0l0.267-0.267c0.545-0.545,1.429-0.545,1.976,0l0.267,0.267c0.545,0.545,1.429,0.545,1.975,0
			l0.02-0.019c1.08-1.08,1.931-2.364,2.503-3.779l1.265-3.125c0.05-0.124,0.036-0.264-0.039-0.375
			c-0.074-0.111-0.199-0.178-0.333-0.178H2.782c-0.133,0-0.258,0.066-0.333,0.177s-0.09,0.251-0.04,0.375L3.641,40.896z"/>
	</g>
</g>
<g>
</g>
<g>
</g>
<g>
</g>
<g>
</g>
<g>
</g>
<g>
</g>
<g>
</g>
<g>
</g>
<g>
</g>
<g>
</g>
<g>
</g>
<g>
</g>
<g>
</g>
<g>
</g>
<g>
</g>
</svg>
