<?xml version="1.0" encoding="iso-8859-1"?>
<!-- Generator: Adobe Illustrator 16.0.0, SVG Export Plug-In . SVG Version: 6.00 Build 0)  -->
<!DOCTYPE svg PUBLIC "-//W3C//DTD SVG 1.1//EN" "http://www.w3.org/Graphics/SVG/1.1/DTD/svg11.dtd">
<svg version="1.1" id="Capa_1" xmlns="http://www.w3.org/2000/svg" xmlns:xlink="http://www.w3.org/1999/xlink" x="0px" y="0px"
	 width="46.853px" height="46.852px" viewBox="0 0 46.853 46.852" style="enable-background:new 0 0 46.853 46.852;"
	 xml:space="preserve">
<g>
	<g>
		<path d="M25.89,1.532c2.03-2.032,5.324-2.043,7.354-0.013l5.984,5.986c0.988,0.988,0.968,2.583-0.02,3.57l-1.883,1.884
			c-0.988,0.987-2.566,0.992-3.556,0.004l-9.657-9.657L25.89,1.532z"/>
		<path d="M37.518,2.008c2.031-2.031,5.321-2.05,7.352-0.019l1.091,1.09c1.194,1.196,1.188,3.142-0.007,4.337
			c-1.155,1.155-3.036,1.163-4.191,0.008l-4.831-4.831L37.518,2.008z"/>
		<path d="M5.545,16.418l5.433-5.434l5.433-5.433c1.973-1.973,5.14-1.962,7.11,0.01l8.806,8.805
			c0.987,0.988,1.015,2.577,0.026,3.565l-7.214,7.213l-7.215,7.216c-0.988,0.986-2.607,0.991-3.596,0.004l-8.806-8.806
			C3.553,21.588,3.572,18.388,5.545,16.418z"/>
		<path d="M1.521,33.244c-2.029-2.032-2.025-5.315,0.003-7.346l1.785-1.785l9.657,9.656c0.988,0.988,0.975,2.575-0.014,3.563
			l-1.884,1.884c-0.987,0.988-2.572,1-3.562,0.012L1.521,33.244z"/>
		<path d="M2.596,36.929l4.832,4.83c1.154,1.155,1.147,3.036-0.008,4.191c-1.196,1.194-3.144,1.203-4.337,0.008l-1.09-1.09
			c-2.031-2.031-2.021-5.313,0.01-7.344L2.596,36.929z"/>
	</g>
</g>
<g>
</g>
<g>
</g>
<g>
</g>
<g>
</g>
<g>
</g>
<g>
</g>
<g>
</g>
<g>
</g>
<g>
</g>
<g>
</g>
<g>
</g>
<g>
</g>
<g>
</g>
<g>
</g>
<g>
</g>
</svg>
