<?xml version="1.0" encoding="iso-8859-1"?>
<!-- Generator: Adobe Illustrator 16.0.0, SVG Export Plug-In . SVG Version: 6.00 Build 0)  -->
<!DOCTYPE svg PUBLIC "-//W3C//DTD SVG 1.1//EN" "http://www.w3.org/Graphics/SVG/1.1/DTD/svg11.dtd">
<svg version="1.1" id="Capa_1" xmlns="http://www.w3.org/2000/svg" xmlns:xlink="http://www.w3.org/1999/xlink" x="0px" y="0px"
	 width="46.887px" height="46.887px" viewBox="0 0 46.887 46.887" style="enable-background:new 0 0 46.887 46.887;"
	 xml:space="preserve">
<g>
	<g>
		<path d="M42.402,10.048c-0.217-0.807-0.949-1.369-1.785-1.369H6.273c-0.836,0-1.568,0.561-1.785,1.368l-0.885,3.289
			c-0.724,2.692-1.091,5.467-1.091,8.254v20.807c0,0.738,0.44,1.407,1.118,1.699c2.22,0.955,8.026,2.791,19.866,2.791
			c11.82,0,17.57-1.83,19.768-2.787c0.674-0.293,1.111-0.96,1.111-1.695V21.586c0-2.784-0.366-5.556-1.088-8.245L42.402,10.048z
			 M8.261,13.963c0.097-0.363,0.426-0.616,0.802-0.616h28.763c0.376,0,0.705,0.253,0.802,0.616l0.002,0.008
			c0.715,2.675,1.077,5.432,1.077,8.201v1.531h-7.116c-1.685-3.344-5.146-5.638-9.146-5.638c-4,0-7.462,2.294-9.146,5.638H7.18
			v-1.522C7.18,19.406,7.543,16.644,8.261,13.963z M33.428,26.037h6.279v4.666h-6.312c0.186-0.77,0.285-1.575,0.285-2.403
			C33.68,27.523,33.592,26.765,33.428,26.037z M13.496,30.705H7.18v-4.668h6.282c-0.164,0.729-0.251,1.486-0.251,2.264
			C13.211,29.129,13.31,29.934,13.496,30.705z M23.496,42.24c-8.033,0-12.988-0.891-15.705-1.639c-0.36-0.099-0.61-0.427-0.61-0.8
			v-6.836h7.154c1.696,3.308,5.14,5.569,9.111,5.569c3.971,0,7.416-2.262,9.111-5.569h7.15v6.849c0,0.375-0.25,0.703-0.611,0.801
			C36.389,41.357,31.501,42.24,23.496,42.24z"/>
		<path d="M42.042,2.931C42.042,1.312,40.73,0,39.111,0H7.949C6.235,0,4.846,1.389,4.846,3.103v0.81
			c0,1.021,0.828,1.849,1.849,1.849h33.499c1.021,0,1.849-0.828,1.849-1.849V2.931z"/>
	</g>
</g>
<g>
</g>
<g>
</g>
<g>
</g>
<g>
</g>
<g>
</g>
<g>
</g>
<g>
</g>
<g>
</g>
<g>
</g>
<g>
</g>
<g>
</g>
<g>
</g>
<g>
</g>
<g>
</g>
<g>
</g>
</svg>
