<?xml version="1.0" encoding="iso-8859-1"?>
<!-- Generator: Adobe Illustrator 16.0.0, SVG Export Plug-In . SVG Version: 6.00 Build 0)  -->
<!DOCTYPE svg PUBLIC "-//W3C//DTD SVG 1.1//EN" "http://www.w3.org/Graphics/SVG/1.1/DTD/svg11.dtd">
<svg version="1.1" id="Capa_1" xmlns="http://www.w3.org/2000/svg" xmlns:xlink="http://www.w3.org/1999/xlink" x="0px" y="0px"
	 width="46.874px" height="46.874px" viewBox="0 0 46.874 46.874" style="enable-background:new 0 0 46.874 46.874;"
	 xml:space="preserve">
<g>
	<g>
		<path d="M7.883,27.502C3.528,27.502,0,31.03,0,35.383c0,4.354,3.527,7.883,7.883,7.883c4.353,0,7.881-3.528,7.881-7.883
			C15.764,31.03,12.236,27.502,7.883,27.502z M7.74,40.096c0,0-5.468-2.449-5.468-5.793c0-1.637,1.325-2.965,2.963-2.965
			c1.06,0,1.981,0.561,2.506,1.396c0.528-0.839,1.457-1.4,2.521-1.396c1.637,0.01,2.949,1.344,2.949,2.98
			C13.21,37.581,7.74,40.096,7.74,40.096z"/>
		<g>
			<path d="M1.395,7.768h44.208c0.234,0,0.445-0.145,0.527-0.365c0.084-0.221,0.02-0.468-0.158-0.623l-2.465-2.151
				c-0.746-0.646-1.701-1.021-2.688-1.021H6.127c-1.003,0-1.973,0.386-2.723,1.051L1.02,6.78C0.845,6.935,0.784,7.184,0.868,7.403
				C0.951,7.622,1.16,7.768,1.395,7.768z"/>
			<path d="M35.717,16.46l-1.884,1.372c-1.879,1.382-4.405,1.289-6.284-0.093l-1.836-1.325c-1.153-0.848-2.704-0.799-3.859,0.045
				l-1.883,1.36c-1.881,1.382-4.405,1.275-6.283-0.107l-1.839-1.352c-1.152-0.849-2.716-0.852-3.87-0.008l-3.387,2.526v7.785
				c1.053-0.369,2.098-0.576,3.229-0.576c0.971,0,1.918,0.158,2.797,0.42H38.34v6.635c0,1.097-0.906,2-2.004,2H17.119
				c0.003,0.053,0.004,0.162,0.004,0.246c0,1.756-0.487,3.395-1.334,4.793l22.528-0.008c2.253,0,4.073-1.818,4.073-4.07v-17.67
				l-2.818-2.018C38.419,15.567,36.873,15.615,35.717,16.46z M38.338,23.982H8.858v-1.277c0-1.096,0.89-1.986,1.985-1.986h25.492
				c1.097,0,2.003,0.89,2.003,1.986V23.982z"/>
			<path d="M46.623,9.167c-0.208-0.251-0.52-0.398-0.844-0.398H1.349c-0.342,0-0.666,0.161-0.872,0.433
				c-0.208,0.272-0.275,0.627-0.185,0.957l1.378,4.964c0.178,0.639,0.659,1.149,1.286,1.363s1.32,0.104,1.849-0.293l1.984-1.485
				c1.878-1.369,4.396-1.364,6.269,0.012l1.837,1.353c1.156,0.85,2.712,0.849,3.867,0l1.858-1.367
				c1.644-1.209,3.796-1.353,5.567-0.438c0.015,0.008,0.029,0.019,0.045,0.027c0.212,0.112,0.422,0.233,0.621,0.377l2.252,1.616
				c1.107,0.62,2.474,0.551,3.52-0.216l1.858-1.367c1.644-1.211,3.794-1.356,5.565-0.44c0.018,0.009,0.029,0.016,0.045,0.024
				c0.213,0.113,0.422,0.225,0.623,0.369l2.078,1.482c0.557,0.397,1.275,0.483,1.909,0.229c0.636-0.254,1.097-0.813,1.226-1.484
				l0.924-4.811C46.917,9.751,46.832,9.419,46.623,9.167z"/>
		</g>
	</g>
</g>
<g>
</g>
<g>
</g>
<g>
</g>
<g>
</g>
<g>
</g>
<g>
</g>
<g>
</g>
<g>
</g>
<g>
</g>
<g>
</g>
<g>
</g>
<g>
</g>
<g>
</g>
<g>
</g>
<g>
</g>
</svg>
