<?xml version="1.0" encoding="iso-8859-1"?>
<!-- Generator: Adobe Illustrator 16.0.0, SVG Export Plug-In . SVG Version: 6.00 Build 0)  -->
<!DOCTYPE svg PUBLIC "-//W3C//DTD SVG 1.1//EN" "http://www.w3.org/Graphics/SVG/1.1/DTD/svg11.dtd">
<svg version="1.1" id="Capa_1" xmlns="http://www.w3.org/2000/svg" xmlns:xlink="http://www.w3.org/1999/xlink" x="0px" y="0px"
	 width="47.256px" height="47.257px" viewBox="0 0 47.256 47.257" style="enable-background:new 0 0 47.256 47.257;"
	 xml:space="preserve">
<g>
	<g>
		<path d="M26.381,19.67L26.381,19.67c-2.629-0.942-4.355-3.428-4.355-6.215V6.011c0-0.804-0.683-1.486-1.486-1.486h-5.537
			c-0.733,0-1.362,0.561-1.454,1.289l-2.332,18.499v19.586c0,1.867,1.532,3.358,3.4,3.358h18.067c1.867,0,3.355-1.491,3.355-3.358
			v-10.56C36.04,27.188,32.183,21.681,26.381,19.67z M32.452,42.871c0,0.426-0.324,0.753-0.75,0.753H15.593
			c-0.426,0-0.789-0.327-0.789-0.753V25.55c2.688,2.724,10.924-3.278,15.685,1.729c1.391,1.459,1.963,3.953,1.963,6.179V42.871
			L32.452,42.871z"/>
		<path d="M21.711,1.499C21.711,0.671,21.04,0,20.212,0h-4.731c-0.828,0-1.499,0.671-1.499,1.499v0.559
			c0,0.495,0.401,0.896,0.896,0.896h5.937c0.495,0,0.896-0.401,0.896-0.896V1.499z"/>
	</g>
</g>
<g>
</g>
<g>
</g>
<g>
</g>
<g>
</g>
<g>
</g>
<g>
</g>
<g>
</g>
<g>
</g>
<g>
</g>
<g>
</g>
<g>
</g>
<g>
</g>
<g>
</g>
<g>
</g>
<g>
</g>
</svg>
