<?xml version="1.0" encoding="iso-8859-1"?>
<!-- Generator: Adobe Illustrator 16.0.0, SVG Export Plug-In . SVG Version: 6.00 Build 0)  -->
<!DOCTYPE svg PUBLIC "-//W3C//DTD SVG 1.1//EN" "http://www.w3.org/Graphics/SVG/1.1/DTD/svg11.dtd">
<svg version="1.1" id="Capa_1" xmlns="http://www.w3.org/2000/svg" xmlns:xlink="http://www.w3.org/1999/xlink" x="0px" y="0px"
	 width="47.354px" height="47.354px" viewBox="0 0 47.354 47.354" style="enable-background:new 0 0 47.354 47.354;"
	 xml:space="preserve">
<g>
	<path d="M45.429,41.621l-1.748-27.312c-0.12-1.88-1.68-3.343-3.562-3.343h-4.191V5.49c0-3.034-2.484-5.49-5.52-5.49h-13.46
		c-3.033,0-5.515,2.457-5.515,5.49v5.475H7.236c-1.884,0-3.443,1.463-3.563,3.343L1.924,41.621
		c-0.095,1.483,0.428,2.945,1.443,4.029c1.018,1.082,2.437,1.703,3.923,1.703h32.771c1.486,0,2.906-0.619,3.924-1.703
		C45.001,44.566,45.525,43.104,45.429,41.621z M14.923,6.067c0-1.423,1.175-2.575,2.599-2.575h12.309c1.423,0,2.55,1.152,2.55,2.575
		v4.899H14.923V6.067z"/>
</g>
<g>
</g>
<g>
</g>
<g>
</g>
<g>
</g>
<g>
</g>
<g>
</g>
<g>
</g>
<g>
</g>
<g>
</g>
<g>
</g>
<g>
</g>
<g>
</g>
<g>
</g>
<g>
</g>
<g>
</g>
</svg>
