<?xml version="1.0" encoding="iso-8859-1"?>
<!-- Generator: Adobe Illustrator 16.0.0, SVG Export Plug-In . SVG Version: 6.00 Build 0)  -->
<!DOCTYPE svg PUBLIC "-//W3C//DTD SVG 1.1//EN" "http://www.w3.org/Graphics/SVG/1.1/DTD/svg11.dtd">
<svg version="1.1" id="Capa_1" xmlns="http://www.w3.org/2000/svg" xmlns:xlink="http://www.w3.org/1999/xlink" x="0px" y="0px"
	 width="47.18px" height="47.18px" viewBox="0 0 47.18 47.18" style="enable-background:new 0 0 47.18 47.18;" xml:space="preserve"
	>
<g>
	<g>
		<path d="M24.833,13.383c-2.671,0-4.836,2.166-4.836,4.836c0,2.671,2.165,4.837,4.836,4.837c2.67,0,4.836-2.167,4.836-4.837
			C29.669,15.549,27.503,13.383,24.833,13.383z M27.569,18.135c0,0.336-0.273,0.609-0.609,0.609h-4.301
			c-0.337,0-0.61-0.273-0.61-0.609c0-0.337,0.273-0.61,0.61-0.61h4.301C27.296,17.525,27.569,17.798,27.569,18.135z"/>
		<path d="M11.65,3.081C11.65,1.379,10.271,0,8.569,0H8.504C6.802,0,5.423,1.379,5.423,3.081H11.65L11.65,3.081z"/>
		<path d="M35.684,7.575H10.623V5.071H6.45v37.295c-1.17,0-2.118,0.948-2.118,2.118v2.695h8.473v-2.695
			c0-1.17-0.948-2.118-2.118-2.118h-0.064V28.438h25.062c3.963,0,7.161-3.248,7.161-7.212v-6.436
			C42.846,10.824,39.649,7.575,35.684,7.575z M38.739,21.225c0,1.669-1.387,3.041-3.055,3.041H10.624V11.748h25.062
			c1.668,0,3.053,1.372,3.053,3.041V21.225L38.739,21.225z"/>
	</g>
</g>
<g>
</g>
<g>
</g>
<g>
</g>
<g>
</g>
<g>
</g>
<g>
</g>
<g>
</g>
<g>
</g>
<g>
</g>
<g>
</g>
<g>
</g>
<g>
</g>
<g>
</g>
<g>
</g>
<g>
</g>
</svg>
