<?xml version="1.0" encoding="iso-8859-1"?>
<!-- Generator: Adobe Illustrator 16.0.0, SVG Export Plug-In . SVG Version: 6.00 Build 0)  -->
<!DOCTYPE svg PUBLIC "-//W3C//DTD SVG 1.1//EN" "http://www.w3.org/Graphics/SVG/1.1/DTD/svg11.dtd">
<svg version="1.1" id="Capa_1" xmlns="http://www.w3.org/2000/svg" xmlns:xlink="http://www.w3.org/1999/xlink" x="0px" y="0px"
	 width="47.386px" height="47.387px" viewBox="0 0 47.386 47.387" style="enable-background:new 0 0 47.386 47.387;"
	 xml:space="preserve">
<g>
	<g>
		<path d="M45.03,28.229c-0.198-0.428-0.56-0.758-1.003-0.918c-0.442-0.161-0.932-0.139-1.358,0.062l-12.151,5.71
			c-1.96-2.204-4.878-3.234-7.78-2.768L13.149,9.76L3.524,6.427C3.078,6.273,2.588,6.302,2.164,6.51
			c-0.424,0.208-0.748,0.575-0.9,1.022L0.728,9.107c-0.315,0.926,0.179,1.933,1.104,2.25l7.576,2.597l8.716,18.687
			c-2.62,2.524-3.38,6.396-1.796,9.79c2.009,4.307,7.105,6.152,11.412,4.145c3.438-1.604,5.308-5.175,4.89-8.779l12.23-5.749
			c0.886-0.416,1.268-1.469,0.854-2.354L45.03,28.229z M25.522,41.854c-1.682,0.784-3.688,0.055-4.472-1.626
			c-0.784-1.683-0.054-3.688,1.626-4.473c1.682-0.784,3.688-0.055,4.472,1.626C27.933,39.064,27.204,41.071,25.522,41.854z"/>
		<path d="M33.941,11.003l-4.654-9.979c-0.414-0.888-1.471-1.271-2.357-0.857L16.106,5.215c-0.888,0.414-1.272,1.47-0.858,2.358
			l4.655,9.978L33.941,11.003z"/>
		<path d="M24.574,27.566c2.215,0.094,4.325,0.845,6.136,2.171l15.019-7.006c0.888-0.414,1.272-1.47,0.858-2.358l-3.904-8.371
			c-0.199-0.427-0.559-0.756-1.001-0.917s-0.93-0.139-1.356,0.06l-19.226,8.968L24.574,27.566z"/>
	</g>
</g>
<g>
</g>
<g>
</g>
<g>
</g>
<g>
</g>
<g>
</g>
<g>
</g>
<g>
</g>
<g>
</g>
<g>
</g>
<g>
</g>
<g>
</g>
<g>
</g>
<g>
</g>
<g>
</g>
<g>
</g>
</svg>
