<?xml version="1.0" encoding="iso-8859-1"?>
<!-- Generator: Adobe Illustrator 16.0.0, SVG Export Plug-In . SVG Version: 6.00 Build 0)  -->
<!DOCTYPE svg PUBLIC "-//W3C//DTD SVG 1.1//EN" "http://www.w3.org/Graphics/SVG/1.1/DTD/svg11.dtd">
<svg version="1.1" id="Capa_1" xmlns="http://www.w3.org/2000/svg" xmlns:xlink="http://www.w3.org/1999/xlink" x="0px" y="0px"
	 width="45.756px" height="45.755px" viewBox="0 0 45.756 45.755" style="enable-background:new 0 0 45.756 45.755;"
	 xml:space="preserve">
<g>
	<g>
		<path d="M14.909,26.248h15.939c0.723,0,1.413-0.289,1.908-0.816c0.493-0.527,0.748-1.227,0.701-1.948l-0.855-13.355
			c-0.055-0.868-0.775-1.544-1.646-1.544h-2.127V5.912c0-1.476-1.202-2.674-2.679-2.674h-6.545c-1.475,0-2.677,1.199-2.677,2.674
			v2.672h-2.127c-0.87,0-1.59,0.676-1.646,1.544l-0.856,13.36c-0.046,0.721,0.208,1.418,0.703,1.945
			C13.496,25.96,14.186,26.248,14.909,26.248z M18.602,6.191c0-0.692,0.59-1.234,1.283-1.234h5.986c0.691,0,1.236,0.542,1.236,1.234
			v2.392h-8.506L18.602,6.191L18.602,6.191z"/>
		<path d="M38.76,28.526H6.997C3.139,28.526,0,31.671,0,35.522s3.139,6.996,6.997,6.996H38.76c3.858,0,6.996-3.146,6.996-6.996
			S42.618,28.526,38.76,28.526z M38.76,38.798H6.997c-1.808,0-3.28-1.471-3.28-3.276c0-1.808,1.472-3.276,3.28-3.276H38.76
			c1.809,0,3.279,1.469,3.279,3.276C42.039,37.328,40.568,38.798,38.76,38.798z"/>
		<circle cx="6.988" cy="35.446" r="2.312"/>
		<circle cx="38.695" cy="35.446" r="2.312"/>
	</g>
</g>
<g>
</g>
<g>
</g>
<g>
</g>
<g>
</g>
<g>
</g>
<g>
</g>
<g>
</g>
<g>
</g>
<g>
</g>
<g>
</g>
<g>
</g>
<g>
</g>
<g>
</g>
<g>
</g>
<g>
</g>
</svg>
