<?xml version="1.0" encoding="iso-8859-1"?>
<!-- Generator: Adobe Illustrator 16.0.0, SVG Export Plug-In . SVG Version: 6.00 Build 0)  -->
<!DOCTYPE svg PUBLIC "-//W3C//DTD SVG 1.1//EN" "http://www.w3.org/Graphics/SVG/1.1/DTD/svg11.dtd">
<svg version="1.1" id="Capa_1" xmlns="http://www.w3.org/2000/svg" xmlns:xlink="http://www.w3.org/1999/xlink" x="0px" y="0px"
	 width="47.014px" height="47.013px" viewBox="0 0 47.014 47.013" style="enable-background:new 0 0 47.014 47.013;"
	 xml:space="preserve">
<g>
	<g>
		<path d="M24.164,8.91c-0.765,0-1.385,0.62-1.385,1.385v15.648c0,0.766,0.62,1.385,1.385,1.385h21.464
			c0.765,0,1.386-0.619,1.386-1.385V10.295c0-0.765-0.621-1.385-1.386-1.385H24.164z M42.409,17.715H27.385v-4.604h15.024V17.715z"
			/>
		<g>
			<circle cx="10.751" cy="33.246" r="4.858"/>
		</g>
		<g>
			<circle cx="36.166" cy="33.246" r="4.858"/>
		</g>
		<path d="M20.356,12.718c0-0.765-0.62-1.385-1.385-1.385h-5.493c-3.578,0-6.853,2.008-8.475,5.197l-2.18,4.285
			c-0.635,1.25-0.967,2.632-0.967,4.034v4.9H1.385C0.62,29.75,0,30.37,0,31.134v0.705c0,0.765,0.62,1.385,1.385,1.385h2.894
			c0.011-3.561,2.91-6.453,6.473-6.453s6.462,2.893,6.473,6.453h12.468c0.004-1.278,0.382-2.471,1.027-3.475h-7.53
			c-1.565,0-2.833-1.269-2.833-2.832v-14.2H20.356z M17.448,21.189H6.17l1.628-3.321c1.089-2.22,3.346-3.626,5.818-3.626h3.832
			V21.189z"/>
		<path d="M42.639,33.224h1.616c0.765,0,1.386-0.619,1.386-1.385v-0.703c0-0.766-0.621-1.385-1.386-1.385h-2.644
			C42.258,30.755,42.635,31.946,42.639,33.224z"/>
	</g>
</g>
<g>
</g>
<g>
</g>
<g>
</g>
<g>
</g>
<g>
</g>
<g>
</g>
<g>
</g>
<g>
</g>
<g>
</g>
<g>
</g>
<g>
</g>
<g>
</g>
<g>
</g>
<g>
</g>
<g>
</g>
</svg>
