<?xml version="1.0" encoding="iso-8859-1"?>
<!-- Generator: Adobe Illustrator 16.0.0, SVG Export Plug-In . SVG Version: 6.00 Build 0)  -->
<!DOCTYPE svg PUBLIC "-//W3C//DTD SVG 1.1//EN" "http://www.w3.org/Graphics/SVG/1.1/DTD/svg11.dtd">
<svg version="1.1" id="Capa_1" xmlns="http://www.w3.org/2000/svg" xmlns:xlink="http://www.w3.org/1999/xlink" x="0px" y="0px"
	 width="46.469px" height="46.468px" viewBox="0 0 46.469 46.468" style="enable-background:new 0 0 46.469 46.468;"
	 xml:space="preserve">
<g>
	<g>
		<path d="M22.508,15.341c0-4.66-3.778-8.438-8.438-8.438H8.438C3.778,6.903,0,10.682,0,15.341v22.104
			c0,4.66,3.778,8.438,8.438,8.438h5.633c4.659,0,8.438-3.778,8.438-8.438L22.508,15.341L22.508,15.341z M19.28,37.216
			c0,3.003-2.436,5.438-5.439,5.438H8.714c-3.004,0-5.438-2.435-5.438-5.438V15.572c0-3.004,2.435-5.439,5.438-5.439h5.126
			c3.004,0,5.439,2.435,5.439,5.439L19.28,37.216L19.28,37.216z"/>
		<polygon points="4.446,30.109 18.157,16.397 18.157,13.894 4.446,27.605 		"/>
		<path d="M9.07,11.254c-2.557,0-4.624,2.061-4.624,4.617v4.891l9.533-9.507L9.07,11.254L9.07,11.254z"/>
		<path d="M4.446,36.904c0,2.557,2.071,4.629,4.627,4.629h4.456c2.556,0,4.628-2.072,4.628-4.629V18.604L4.446,32.316V36.904z"/>
		<path d="M46.468,15.341c0-4.66-3.778-8.438-8.438-8.438h-5.584c-4.662,0-8.438,3.778-8.438,8.438v22.104
			c0,4.66,3.776,8.438,8.438,8.438h5.584c4.66,0,8.438-3.778,8.438-8.438V15.341z M43.238,37.216c0,3.003-2.435,5.438-5.438,5.438
			h-5.126c-3.005,0-5.438-2.435-5.438-5.438V15.572c0-3.004,2.435-5.439,5.438-5.439h5.126c3.004,0,5.438,2.435,5.438,5.439V37.216z
			"/>
		<polygon points="28.404,30.109 42.115,16.397 42.115,13.894 28.404,27.605 		"/>
		<path d="M33.025,11.254c-2.557,0-4.621,2.061-4.621,4.617v4.891l9.545-9.507L33.025,11.254L33.025,11.254z"/>
		<path d="M28.404,36.904c0,2.557,2.072,4.629,4.629,4.629h4.455c2.557,0,4.627-2.072,4.627-4.629V18.604L28.404,32.316V36.904z"/>
		<path d="M1.006,0.585C0.45,0.585,0,1.037,0,1.591c0,0.555,0.45,1.006,1.006,1.006h16.637v0.194c0,1.585,1.284,2.848,2.869,2.848
			h5.46c1.587,0,2.854-1.262,2.854-2.848V2.599h16.637c0.557,0,1.006-0.451,1.006-1.006c0-0.556-0.449-1.006-1.006-1.006
			L1.006,0.585L1.006,0.585z"/>
	</g>
</g>
<g>
</g>
<g>
</g>
<g>
</g>
<g>
</g>
<g>
</g>
<g>
</g>
<g>
</g>
<g>
</g>
<g>
</g>
<g>
</g>
<g>
</g>
<g>
</g>
<g>
</g>
<g>
</g>
<g>
</g>
</svg>
