<?xml version="1.0" encoding="iso-8859-1"?>
<!-- Generator: Adobe Illustrator 16.0.0, SVG Export Plug-In . SVG Version: 6.00 Build 0)  -->
<!DOCTYPE svg PUBLIC "-//W3C//DTD SVG 1.1//EN" "http://www.w3.org/Graphics/SVG/1.1/DTD/svg11.dtd">
<svg version="1.1" id="Capa_1" xmlns="http://www.w3.org/2000/svg" xmlns:xlink="http://www.w3.org/1999/xlink" x="0px" y="0px"
	 width="47.196px" height="47.196px" viewBox="0 0 47.196 47.196" style="enable-background:new 0 0 47.196 47.196;"
	 xml:space="preserve">
<g>
	<g>
		<path d="M46.7,36.217c-0.317-0.321-0.754-0.502-1.207-0.503l-1.518-0.002c-0.995-3.433-4.156-5.944-7.908-5.944
			c-3.745,0-6.9,2.501-7.901,5.923l-11.674-0.016c-0.795-2.72-2.904-4.814-5.616-5.602l0.101-17.856
			c0.014-2.513-0.991-4.925-2.786-6.685l-4.18-4.097c-0.323-0.317-0.76-0.492-1.214-0.487C2.344,0.954,1.911,1.14,1.595,1.466
			L0.482,2.613c-0.655,0.674-0.64,1.751,0.033,2.407l4.09,3.984c0.908,0.885,1.417,2.101,1.41,3.369l-0.1,17.824
			c-3.314,1.116-5.563,4.163-5.585,7.764c-0.024,4.564,3.642,8.262,8.206,8.287c3.644,0.021,6.735-2.312,7.854-5.611l11.883,0.016
			c1.104,3.25,4.174,5.592,7.796,5.592c3.615,0,6.682-2.333,7.789-5.571l1.624,0.002c0.938,0.001,1.7-0.756,1.706-1.695l0.009-1.552
			C47.198,36.974,47.021,36.537,46.7,36.217z M8.551,41.238c-1.782-0.01-3.225-1.468-3.215-3.25
			c0.011-1.783,1.469-3.224,3.251-3.214c1.782,0.01,3.225,1.469,3.215,3.251C11.792,39.807,10.333,41.249,8.551,41.238z
			 M36.068,41.16c-1.739,0-3.156-1.415-3.156-3.154c0-1.74,1.417-3.156,3.156-3.156c1.74,0,3.156,1.416,3.156,3.156
			C39.225,39.745,37.809,41.16,36.068,41.16z"/>
		<path d="M18.035,32.851l9.133,0.052c1.715-2.979,4.876-5.014,8.521-5.147l0.03-5.383c0.006-0.941-0.754-1.708-1.694-1.713
			l-20.38-0.115l-0.044,7.9C15.485,29.436,17.009,30.955,18.035,32.851z"/>
	</g>
</g>
<g>
</g>
<g>
</g>
<g>
</g>
<g>
</g>
<g>
</g>
<g>
</g>
<g>
</g>
<g>
</g>
<g>
</g>
<g>
</g>
<g>
</g>
<g>
</g>
<g>
</g>
<g>
</g>
<g>
</g>
</svg>
