<?xml version="1.0" encoding="iso-8859-1"?>
<!-- Generator: Adobe Illustrator 16.0.0, SVG Export Plug-In . SVG Version: 6.00 Build 0)  -->
<!DOCTYPE svg PUBLIC "-//W3C//DTD SVG 1.1//EN" "http://www.w3.org/Graphics/SVG/1.1/DTD/svg11.dtd">
<svg version="1.1" id="Capa_1" xmlns="http://www.w3.org/2000/svg" xmlns:xlink="http://www.w3.org/1999/xlink" x="0px" y="0px"
	 width="47.332px" height="47.332px" viewBox="0 0 47.332 47.332" style="enable-background:new 0 0 47.332 47.332;"
	 xml:space="preserve">
<g>
	<g>
		<path d="M8.163,33.192c-2.957,0-5.355,2.397-5.355,5.355s2.398,5.355,5.355,5.355c2.958,0,5.357-2.398,5.357-5.355
			C13.52,35.59,11.121,33.192,8.163,33.192z M8.163,40.685c-1.179,0-2.136-0.959-2.136-2.137s0.957-2.137,2.136-2.137
			c1.181,0,2.14,0.959,2.14,2.137C10.302,39.726,9.343,40.685,8.163,40.685z"/>
		<path d="M31.209,30.013c-3.835,0-6.944,3.11-6.944,6.945c0,3.836,3.109,6.945,6.944,6.945c3.836,0,6.947-3.108,6.947-6.945
			C38.157,33.123,35.045,30.013,31.209,30.013z M31.21,39.077c-1.169,0-2.12-0.95-2.12-2.119c0-1.168,0.951-2.119,2.12-2.119
			s2.119,0.951,2.119,2.119C33.33,38.127,32.379,39.077,31.21,39.077z"/>
		<path d="M31.209,28.403c0.861,0,1.691,0.14,2.479,0.377L30.122,7.716h0.017c0.549,0,0.993-0.445,0.993-0.994
			c0-1.819-1.475-3.293-3.294-3.293H12.921c-1.818,0-3.293,1.475-3.293,3.293c0,0.549,0.445,0.994,0.994,0.994h1.183v10.751H8.989
			c-0.823,0-1.61,0.11-2.384,0.316v-5.702c0-0.208,0.176-2.067-1.012-3.269C5.463,9.681,5.34,9.563,5.216,9.458
			C4.883,9.177,4.417,9.114,4.022,9.297c-0.396,0.184-0.648,0.58-0.648,1.016c0,0.381,0.214,0.729,0.553,0.902
			c0.066,0.034,0.122,0.068,0.153,0.1c0.482,0.481,0.418,1.423,0.418,1.752v6.61C1.827,21.226,0,24.104,0,27.419v10.213
			c0,0.67,0.543,1.213,1.213,1.213c-0.003-0.141-0.015-0.191-0.015-0.283c0-3.84,3.125-6.973,6.965-6.973
			c3.842,0,6.966,3.136,6.966,6.977c0,0.09-0.01,0.139-0.013,0.279h7.749c-0.135-0.632-0.21-1.234-0.21-1.873
			C22.655,32.256,26.494,28.403,31.209,28.403z M16.104,18.467c-0.589,0-1.065-0.477-1.065-1.065V8.781
			c0-0.588,0.477-1.065,1.065-1.065h9.851c0.52,0,0.964,0.375,1.051,0.888l1.458,8.62c0.052,0.309-0.034,0.626-0.237,0.865
			c-0.201,0.24-0.5,0.378-0.812,0.378H16.104z"/>
		<path d="M39.703,34.56v-9.309c0-0.797-0.646-1.443-1.443-1.443h-1.787V7.715c0-0.583-0.473-1.055-1.056-1.055
			c-0.582,0-1.056,0.472-1.056,1.055v21.286c3.164,1.251,5.422,4.331,5.422,7.945c0,0.266-0.033,0.565-0.057,0.775h2.619
			c1.176,0,2.317-0.388,3.25-1.104l1.547-1.188c0.166-0.127,0.23-0.345,0.164-0.542c-0.066-0.196-0.252-0.33-0.461-0.33
			L39.703,34.56L39.703,34.56z"/>
	</g>
</g>
<g>
</g>
<g>
</g>
<g>
</g>
<g>
</g>
<g>
</g>
<g>
</g>
<g>
</g>
<g>
</g>
<g>
</g>
<g>
</g>
<g>
</g>
<g>
</g>
<g>
</g>
<g>
</g>
<g>
</g>
</svg>
