<?xml version="1.0" encoding="iso-8859-1"?>
<!-- Generator: Adobe Illustrator 16.0.0, SVG Export Plug-In . SVG Version: 6.00 Build 0)  -->
<!DOCTYPE svg PUBLIC "-//W3C//DTD SVG 1.1//EN" "http://www.w3.org/Graphics/SVG/1.1/DTD/svg11.dtd">
<svg version="1.1" id="Capa_1" xmlns="http://www.w3.org/2000/svg" xmlns:xlink="http://www.w3.org/1999/xlink" x="0px" y="0px"
	 width="47.496px" height="47.496px" viewBox="0 0 47.496 47.496" style="enable-background:new 0 0 47.496 47.496;"
	 xml:space="preserve">
<g>
	<g>
		<path d="M17.258,26.64c0,0.685,0.554,1.238,1.238,1.238h24.518c0.685,0,1.238-0.554,1.238-1.238c0-1.597-1.294-2.892-2.891-2.892
			H20.149C18.552,23.749,17.258,25.042,17.258,26.64z"/>
		<path d="M42.682,30.165H13.496v-18.07h5.065c2.335,0,4.264-1.924,4.264-4.259V4.522c0-2.335-1.929-4.228-4.264-4.228H4.255
			C1.92,0.294,0,2.188,0,4.522v3.314c0,2.335,1.92,4.259,4.255,4.259h5.037v18.07H4.854C2.188,30.166,0,32.355,0,35.019V45.3
			c0,1.049,0.852,1.901,1.902,1.901h43.692c1.051,0,1.902-0.853,1.902-1.901V35.019C47.496,32.353,45.346,30.165,42.682,30.165z
			 M4.278,7.819v-3.32h14.269v3.32H4.278z M30.682,42.972c0,0.543-0.441,0.984-0.985,0.984h-2.16c-0.544,0-0.985-0.441-0.985-0.984
			v-2.234c0-0.544,0.441-0.985,0.985-0.985h2.16c0.544,0,0.985,0.441,0.985,0.985V42.972z M30.682,36.703
			c0,0.544-0.441,0.984-0.985,0.984h-2.16c-0.544,0-0.985-0.44-0.985-0.984v-2.16c0-0.544,0.441-0.984,0.985-0.984h2.16
			c0.544,0,0.985,0.44,0.985,0.984V36.703z M36.95,42.972c0,0.543-0.44,0.984-0.985,0.984H33.73c-0.543,0-0.984-0.441-0.984-0.984
			v-2.234c0-0.544,0.441-0.985,0.984-0.985h2.234c0.545,0,0.985,0.441,0.985,0.985V42.972z M36.95,36.703
			c0,0.544-0.44,0.984-0.985,0.984H33.73c-0.543,0-0.984-0.44-0.984-0.984v-2.16c0-0.544,0.441-0.984,0.984-0.984h2.234
			c0.545,0,0.985,0.44,0.985,0.984V36.703z M43.145,42.972c0,0.543-0.44,0.984-0.984,0.984H40c-0.544,0-0.984-0.441-0.984-0.984
			v-2.234c0-0.544,0.44-0.985,0.984-0.985h2.16c0.544,0,0.984,0.441,0.984,0.985V42.972z M43.145,36.703
			c0,0.544-0.44,0.984-0.984,0.984H40c-0.544,0-0.984-0.44-0.984-0.984v-2.16c0-0.544,0.44-0.984,0.984-0.984h2.16
			c0.544,0,0.984,0.44,0.984,0.984V36.703z"/>
	</g>
</g>
<g>
</g>
<g>
</g>
<g>
</g>
<g>
</g>
<g>
</g>
<g>
</g>
<g>
</g>
<g>
</g>
<g>
</g>
<g>
</g>
<g>
</g>
<g>
</g>
<g>
</g>
<g>
</g>
<g>
</g>
</svg>
