<?xml version="1.0" encoding="iso-8859-1"?>
<!-- Generator: Adobe Illustrator 16.0.0, SVG Export Plug-In . SVG Version: 6.00 Build 0)  -->
<!DOCTYPE svg PUBLIC "-//W3C//DTD SVG 1.1//EN" "http://www.w3.org/Graphics/SVG/1.1/DTD/svg11.dtd">
<svg version="1.1" id="Capa_1" xmlns="http://www.w3.org/2000/svg" xmlns:xlink="http://www.w3.org/1999/xlink" x="0px" y="0px"
	 width="47.138px" height="47.138px" viewBox="0 0 47.138 47.138" style="enable-background:new 0 0 47.138 47.138;"
	 xml:space="preserve">
<g>
	<g>
		<path d="M4.387,13.009c-0.396,0-0.781-0.129-1.034-0.258l-0.191,0.772c0.232,0.129,0.7,0.25,1.171,0.25
			c1.134,0,1.666-0.587,1.666-1.279c0-0.582-0.342-0.962-1.072-1.23c-0.533-0.202-0.766-0.318-0.766-0.582
			c0-0.214,0.194-0.398,0.6-0.398c0.403,0,0.698,0.117,0.863,0.196l0.209-0.754c-0.245-0.11-0.588-0.208-1.054-0.208
			c-0.976,0-1.563,0.54-1.563,1.245c0,0.599,0.447,0.979,1.133,1.218c0.498,0.178,0.693,0.325,0.693,0.582
			C5.043,12.832,4.817,13.009,4.387,13.009z"/>
		<path d="M8.241,13.78c1.078,0,1.72-0.606,1.72-1.88V9.644H9.047v2.317c0,0.729-0.285,1.072-0.775,1.072
			c-0.479,0-0.766-0.362-0.766-1.072V9.644H6.591v2.244C6.591,13.206,7.201,13.78,8.241,13.78z"/>
		<path d="M11.733,12.237c0.115,0.013,0.197,0.018,0.318,0.018c0.552,0,1.024-0.134,1.344-0.435c0.245-0.233,0.379-0.576,0.379-0.98
			s-0.175-0.747-0.438-0.955c-0.276-0.22-0.711-0.33-1.286-0.33c-0.57,0-1.002,0.037-1.287,0.086V13.7h0.971L11.733,12.237
			L11.733,12.237z M11.733,10.296c0.057-0.021,0.197-0.038,0.385-0.038c0.467,0,0.723,0.227,0.723,0.606
			c0,0.423-0.296,0.674-0.792,0.674c-0.135,0-0.2-0.006-0.315-0.025L11.733,10.296L11.733,10.296z"/>
		<polygon points="16.931,12.957 15.273,12.957 15.273,11.929 16.759,11.929 16.759,11.186 15.273,11.186 15.273,10.329 
			16.874,10.329 16.874,9.644 14.36,9.644 14.36,13.7 16.931,13.7 		"/>
		<path d="M18.53,12.1h0.319c0.381,0,0.56,0.136,0.669,0.65c0.122,0.508,0.22,0.893,0.287,0.95h0.955
			c-0.08-0.114-0.225-0.691-0.353-1.157c-0.104-0.38-0.279-0.649-0.564-0.765v-0.019c0.343-0.129,0.744-0.49,0.744-1.016
			c0-0.38-0.129-0.668-0.373-0.864c-0.293-0.233-0.732-0.325-1.346-0.325c-0.494,0-0.968,0.037-1.253,0.086v4.059h0.914L18.53,12.1
			L18.53,12.1z M18.53,10.276c0.114-0.01,0.214-0.029,0.44-0.029c0.429,0.006,0.697,0.194,0.697,0.575
			c0,0.361-0.266,0.593-0.731,0.593H18.53V10.276z"/>
		<path d="M22.124,12.114c0.029-0.515,0.049-1.156,0.073-1.727h0.012c0.098,0.571,0.238,1.15,0.374,1.634l0.44,1.622h0.729
			l0.501-1.634c0.161-0.484,0.332-1.051,0.459-1.622h0.021c0,0.628,0.019,1.219,0.035,1.713l0.061,1.6h0.915l-0.227-4.056h-1.219
			l-0.445,1.344c-0.132,0.46-0.272,0.941-0.391,1.456h-0.017c-0.095-0.514-0.222-0.972-0.352-1.448l-0.403-1.351h-1.242
			l-0.266,4.056h0.863L22.124,12.114z"/>
		<path d="M27.406,12.671h1.181l0.321,1.028h1.002l-1.28-4.056h-1.224l-1.264,4.056h0.971L27.406,12.671z M27.785,11.061
			c0.066-0.24,0.129-0.561,0.189-0.789h0.014c0.062,0.229,0.133,0.543,0.207,0.789l0.258,0.868H27.54L27.785,11.061z"/>
		<path d="M31.324,12.1h0.347c0.379,0,0.558,0.136,0.667,0.65c0.124,0.508,0.221,0.893,0.287,0.95h0.956
			c-0.08-0.114-0.206-0.691-0.334-1.157c-0.104-0.38-0.267-0.649-0.552-0.765v-0.019c0.344-0.129,0.729-0.49,0.729-1.016
			c0-0.38-0.134-0.668-0.38-0.864c-0.293-0.233-0.748-0.325-1.362-0.325c-0.496,0-0.984,0.037-1.271,0.086v4.059h0.914V12.1z
			 M31.324,10.276c0.115-0.01,0.229-0.029,0.455-0.029c0.431,0.006,0.701,0.194,0.701,0.575c0,0.361-0.26,0.593-0.724,0.593h-0.435
			v-1.139H31.324z"/>
		<path d="M35.039,12.365l0.348-0.441l1.001,1.776h1.093l-1.439-2.334l1.365-1.721h-1.146l-0.94,1.343
			c-0.092,0.146-0.225,0.259-0.28,0.422V9.644h-0.974V13.7h0.974L35.039,12.365L35.039,12.365z"/>
		<polygon points="40.406,12.957 38.752,12.957 38.752,11.929 40.293,11.929 40.293,11.186 38.752,11.186 38.752,10.329 
			40.406,10.329 40.406,9.644 37.779,9.644 37.779,13.7 40.406,13.7 		"/>
		<polygon points="41.949,13.7 42.92,13.7 42.92,10.329 43.949,10.329 43.949,9.644 40.809,9.644 40.809,10.329 41.949,10.329 		"/>
		<path d="M0,17.532L0,17.532c0.001-0.009,0-0.016,0-0.023V17.532z"/>
		<path d="M0.781,17.07h17.538h10.476h17.537c0.15,0,0.283-0.086,0.336-0.226c0.053-0.139,0.013-0.293-0.102-0.391l-1.562-1.364
			c-0.474-0.41-1.079-0.647-1.704-0.647H25.763h-4.444H3.78c-0.637,0-1.251,0.247-1.727,0.668l-1.51,1.345
			c-0.112,0.098-0.15,0.25-0.097,0.389C0.498,16.982,0.633,17.07,0.781,17.07z"/>
		<path d="M40.068,22.589l-1.195,0.871c-1.188,0.875-2.79,0.816-3.979-0.059l-1.166-0.84c-0.729-0.538-1.713-0.506-2.443,0.028
			l-1.192,0.862c-1.108,0.815-2.569,0.813-3.728,0.104l-0.813-0.581l-0.607-0.446c-0.73-0.539-1.713-0.54-2.445-0.005l-1.638,1.227
			c-1.118,0.558-2.468,0.414-3.507-0.349l-1.166-0.84c-0.729-0.538-1.712-0.506-2.442,0.028l-1.195,0.862
			c-1.189,0.876-2.79,0.809-3.981-0.067l-1.165-0.856c-0.729-0.539-1.713-0.54-2.443-0.005l-2.141,1.6v10.914
			c0,1.428,1.179,2.584,2.595,2.584l17.435-0.002c0.035,0.002,0.068,0.002,0.103,0.002l18.76-0.005c1.428,0,2.578-1.151,2.578-2.579
			V23.839l-1.784-1.278C41.777,22.024,40.8,22.055,40.068,22.589z M41.722,33.162c0,0.694-0.567,1.273-1.262,1.273H6.768
			c-0.694,0-1.263-0.58-1.263-1.273v-4.211h36.217V33.162z M41.722,27.352H5.505v-0.806c0-0.694,0.568-1.252,1.263-1.252H40.46
			c0.694,0,1.262,0.558,1.262,1.252V27.352z"/>
		<path d="M46.443,17.698H28.906l0,0H0.752c-0.218,0-0.423,0.111-0.555,0.284c-0.13,0.172-0.173,0.402-0.114,0.61l0.872,3.148
			c0.112,0.405,0.418,0.729,0.815,0.864c0.397,0.136,0.836,0.066,1.172-0.186l1.257-0.94c1.189-0.867,2.785-0.864,3.971,0.007
			l1.166,0.857c0.731,0.539,1.717,0.538,2.45,0l1.176-0.867c1.044-0.766,2.407-0.857,3.529-0.277
			c0.01,0.004,0.019,0.012,0.028,0.017c0.135,0.071,0.268,0.147,0.394,0.239l1.428,1.025c0.501,0.279,1.083,0.336,1.616,0.171
			c0.188-0.036,0.368-0.113,0.524-0.231l0.935-0.7l0.332-0.245c0.122-0.09,0.25-0.171,0.381-0.243
			c0.019-0.01,0.038-0.021,0.059-0.03c0.007-0.005,0.015-0.008,0.023-0.013c1.116-0.564,2.463-0.464,3.499,0.296l1.165,0.857
			c0.73,0.539,1.716,0.538,2.449,0l1.179-0.867c1.041-0.766,2.403-0.857,3.526-0.277c0.011,0.004,0.019,0.012,0.029,0.017
			c0.135,0.071,0.266,0.147,0.395,0.239l1.428,1.025c0.701,0.392,1.566,0.349,2.229-0.138l1.178-0.867
			c1.041-0.767,2.404-0.858,3.525-0.279c0.012,0.006,0.021,0.01,0.03,0.015c0.134,0.072,0.267,0.144,0.396,0.234l1.314,0.939
			c0.352,0.252,0.809,0.307,1.211,0.146c0.402-0.16,0.694-0.515,0.776-0.94l0.586-3.052c0.038-0.204-0.017-0.418-0.147-0.578
			C46.848,17.798,46.65,17.698,46.443,17.698z"/>
	</g>
</g>
<g>
</g>
<g>
</g>
<g>
</g>
<g>
</g>
<g>
</g>
<g>
</g>
<g>
</g>
<g>
</g>
<g>
</g>
<g>
</g>
<g>
</g>
<g>
</g>
<g>
</g>
<g>
</g>
<g>
</g>
</svg>
