<svg height="512pt" viewBox="0 -16 512 512" width="512pt" xmlns="http://www.w3.org/2000/svg"><path d="m145.269531 60-15-30h320.730469v-30c-12.09375 0-411.8125 0-420 0v60h-31v390h61v30h90v-30h210v30h90v-30h61v-390zm-54.269531 30h210v30h-210zm240 0h90v30h-90zm-270-60h35.730469l15 30h-50.730469zm421 390h-61v30h-30v-30h-270v30h-30v-30h-61v-330h31v60h390v-60h31zm0 0"/><path d="m166 180c-57.898438 0-105 47.101562-105 105s47.101562 105 105 105 105-47.101562 105-105-47.101562-105-105-105zm0 180c-41.355469 0-75-33.644531-75-75s33.644531-75 75-75 75 33.644531 75 75-33.644531 75-75 75zm0 0"/><path d="m166 240c-24.8125 0-45 20.1875-45 45s20.1875 45 45 45 45-20.1875 45-45-20.1875-45-45-45zm0 60c-8.269531 0-15-6.730469-15-15s6.730469-15 15-15 15 6.730469 15 15-6.730469 15-15 15zm0 0"/><path d="m301 240h30v30h-30zm0 0"/><path d="m361 240h30v30h-30zm0 0"/><path d="m421 240h30v30h-30zm0 0"/><path d="m421 300h30v30h-30zm0 0"/><path d="m361 300h30v30h-30zm0 0"/><path d="m301 300h30v30h-30zm0 0"/><path d="m301 180h150v30h-150zm0 0"/><path d="m301 360h150v30h-150zm0 0"/></svg>