<svg height="512pt" viewBox="0 0 512 512" width="512pt" xmlns="http://www.w3.org/2000/svg"><path d="m512 206.328125v-146.328125h-61v-60h-390v30h-61v90h61v30h45c8.269531 0 15 6.730469 15 15v30c0 24.8125 20.1875 45 45 45s45-20.1875 45-45v-30c0-8.269531 6.730469-15 15-15s15 6.730469 15 15c0 24.8125 20.1875 45 45 45s45-20.1875 45-45c0-8.269531 6.730469-15 15-15h105v-60h31v93.671875l-211 60v58.328125h-30v210h90v-210h-30v-35.671875zm-482-116.328125v-30h31v30zm391 30h-75c-24.8125 0-45 20.1875-45 45 0 8.269531-6.730469 15-15 15s-15-6.730469-15-15c0-24.8125-20.1875-45-45-45s-45 20.1875-45 45v30c0 8.269531-6.730469 15-15 15s-15-6.730469-15-15v-30c0-24.8125-20.1875-45-45-45h-15v-90h330zm-120 212v30h-30v-30zm-30 150v-90h30v90zm0 0"/></svg>