<svg height="512pt" viewBox="0 0 512 512" width="512pt" xmlns="http://www.w3.org/2000/svg"><path d="m209.421875 92c-4.527344-12.765625-14.65625-22.894531-27.421875-27.421875v-64.578125h-30v62h-45c-19.554688 0-36.226562 12.539062-42.421875 30h-64.578125v420h512v-420zm-117.421875 15c0-8.269531 6.730469-15 15-15h60c8.269531 0 15 6.730469 15 15v300c0 8.269531-6.730469 15-15 15h-60c-8.269531 0-15-6.730469-15-15zm390 375h-452v-360h32v285c0 24.8125 20.1875 45 45 45h60c24.8125 0 45-20.1875 45-45v-285h270zm0 0"/><path d="m452 152h-210v120h210zm-30 90h-150v-60h150zm0 0"/><path d="m242 302h30v30h-30zm0 0"/><path d="m302 302h30v30h-30zm0 0"/><path d="m362 302h30v30h-30zm0 0"/><path d="m242 362h30v30h-30zm0 0"/><path d="m302 362h30v30h-30zm0 0"/><path d="m362 362h30v30h-30zm0 0"/><path d="m422 302h30v30h-30zm0 0"/><path d="m422 362h30v30h-30zm0 0"/><path d="m242 422h30v30h-30zm0 0"/><path d="m302 422h30v30h-30zm0 0"/><path d="m362 422h30v30h-30zm0 0"/><path d="m422 422h30v30h-30zm0 0"/></svg>