<svg height="511pt" viewBox="-31 1 511 511.99999" width="511pt" xmlns="http://www.w3.org/2000/svg"><path d="m418.871094 239.078125c-6.964844-34.183594-37.261719-59.984375-73.46875-59.984375h-14.996094v-14.996094c0-57.878906-47.089844-104.96875-104.972656-104.96875h-134.960938v-25.386718l-89.972656-33.742188v208.230469l89.972656-33.738281v-25.390626h134.964844c8.265625 0 14.996094 6.726563 14.996094 14.996094v14.996094h-14.996094c-36.210938 0-66.503906 25.800781-73.472656 59.984375h-31.5v92.972656h329.90625v-92.972656zm-358.386719-85.371094-29.992187 11.246094v-121.675781l29.992187 11.246094zm164.953125 55.378907h44.984375v-44.988282c0-24.804687-20.179687-44.988281-44.984375-44.988281h-134.964844v-29.988281h134.964844c41.34375 0 74.976562 33.632812 74.976562 74.976562l.003907 44.988282h44.984375c19.550781 0 36.21875 12.539062 42.40625 29.992187h-204.78125c6.191406-17.453125 22.859375-29.992187 42.410156-29.992187zm194.945312 92.972656h-269.925781v-32.988282h269.925781zm0 0"/><path d="m330.40625 362.042969h29.992188v29.992187h-29.992188zm0 0"/><path d="m270.421875 362.042969h29.992187v29.992187h-29.992187zm0 0"/><path d="m210.441406 362.042969h29.992188v29.992187h-29.992188zm0 0"/><path d="m270.421875 422.027344h29.992187v29.988281h-29.992187zm0 0"/><path d="m210.441406 422.027344h29.992188v29.988281h-29.992188zm0 0"/><path d="m150.457031 422.027344h29.992188v29.988281h-29.992188zm0 0"/><path d="m390.390625 422.027344h29.992187v29.988281h-29.992187zm0 0"/><path d="m330.40625 422.027344h29.992188v29.988281h-29.992188zm0 0"/><path d="m300.414062 482.007812h29.992188v29.992188h-29.992188zm0 0"/><path d="m240.433594 482.007812h29.988281v29.992188h-29.988281zm0 0"/><path d="m180.449219 482.007812h29.992187v29.992188h-29.992187zm0 0"/><path d="m420.382812 482.007812h29.988282v29.992188h-29.988282zm0 0"/><path d="m360.398438 482.007812h29.992187v29.992188h-29.992187zm0 0"/><path d="m120.464844 482.007812h29.992187v29.992188h-29.992187zm0 0"/></svg>