<svg height="512pt" viewBox="0 0 512 512" width="512pt" xmlns="http://www.w3.org/2000/svg"><path d="m512 107c0-41.355469-33.644531-75-75-75s-75 33.644531-75 75c0 24.484375 11.796875 46.261719 30 59.960938v135.039062h30v165c0 8.269531-6.730469 15-15 15h-152c-8.269531 0-15-6.730469-15-15v-45h90v-422h-330v422h90v30h-30v30h90v-30h-30v-30h90v45c0 24.8125 20.1875 45 45 45h152c24.8125 0 45-20.1875 45-45v-165h30v-135.039062c18.203125-13.699219 30-35.476563 30-59.960938zm-392-15h90v180h-90zm120 210v-210h60v240h-270v-240h60v210zm60-272v32h-270v-32zm-270 332h270v30h-270zm422-90h-30v-91.507812c4.847656.988281 9.863281 1.507812 15 1.507812s10.152344-.519531 15-1.507812zm-15-120c-24.8125 0-45-20.1875-45-45s20.1875-45 45-45 45 20.1875 45 45-20.1875 45-45 45zm0 0"/><path d="m150 182h30v30h-30zm0 0"/><path d="m422 92h30v30h-30zm0 0"/><path d="m150 122h30v30h-30zm0 0"/></svg>