<svg height="512pt" viewBox="0 -106 512 512" width="512pt" xmlns="http://www.w3.org/2000/svg"><path d="m467 60h-60v-30h30v-30h-150v30h30v30h-60c-24.8125 0-45 20.1875-45 45v15c-14.976562 0-145.453125 0-167 0-24.8125 0-45 20.1875-45 45s20.1875 45 45 45h118.460938l48.539062 24.269531v-9.269531c0 41.355469 33.644531 75 75 75h150c41.355469 0 75-33.644531 75-75 0-13.839844 0-101.984375 0-120 0-24.8125-20.1875-45-45-45zm-437 105c0-8.269531 6.730469-15 15-15h107v30h-107c-8.269531 0-15-6.730469-15-15zm317-135h30v30h-30zm-165 155.730469v-35.730469h30v50.730469zm300 39.269531c0 24.8125-20.1875 45-45 45h-150c-24.8125 0-45-20.1875-45-45v-75h240zm-240-105v-15c0-8.269531 6.730469-15 15-15h210c8.269531 0 15 6.730469 15 15v15zm0 0"/></svg>