<svg height="512pt" viewBox="0 -16 512 512" width="512pt" xmlns="http://www.w3.org/2000/svg"><path d="m286 390c90.980469 0 165-74.019531 165-165s-74.019531-165-165-165-165 74.019531-165 165 74.019531 165 165 165zm89.996094-174.925781c16.601562 0 32.304687 5.777343 44.847656 16.359375-1.113281 23.609375-8.324219 45.644531-20.078125 64.578125-4.925781-13.222657-12.675781-25.351563-22.953125-35.628907-13.332031-13.328124-29.769531-22.410156-47.683594-26.582031.117188-.582031.222656-1.167969.316406-1.757812 12.65625-10.96875 28.636719-16.96875 45.550782-16.96875zm-89.996094 24.925781c-8.269531 0-15-6.730469-15-15s6.730469-15 15-15 15 6.730469 15 15-6.730469 15-15 15zm-8.855469 29.121094c.59375.117187 1.1875.226562 1.789063.320312 10.929687 12.644532 16.910156 28.597656 16.910156 45.480469 0 16.632813-5.800781 32.363281-16.421875 44.917969-23.625-1.140625-45.671875-8.386719-64.605469-20.183594 30.90625-11.542969 54.609375-37.980469 62.328125-70.535156zm33.796875-6.6875c.503906-.335938.996094-.6875 1.484375-1.042969 16.691407 1.203125 32.222657 8.253906 44.171875 20.207031 11.738282 11.738282 18.757813 26.925782 20.144532 43.273438-16.699219 15.1875-37.210938 26.25-59.90625 31.574218 5.898437-12.859374 9.007812-26.949218 9.007812-41.523437 0-18.839844-5.199219-36.878906-14.902344-52.488281zm-16.089844-81.554688c-.585937-.117187-1.179687-.222656-1.773437-.316406-22.296875-25.867188-22.503906-64.304688-.617187-90.40625 23.574218 1.117188 45.582031 8.3125 64.496093 20.042969-13.171875 4.929687-25.253906 12.664062-35.496093 22.90625-13.355469 13.355469-22.445313 29.828125-26.609376 47.773437zm-33.765624 6.671875c-.484376.320313-.957032.65625-1.425782 1-34.050781-2.511719-61.382812-29.523437-64.382812-63.441406 16.695312-15.171875 37.195312-26.226563 59.878906-31.550781-13.667969 30.046875-11.691406 65.519531 5.929688 93.992187zm-19.195313 28.542969c-.121094.597656-.230469 1.199219-.324219 1.804688-25.890625 22.257812-64.328125 22.425781-90.402344.5 1.140626-23.59375 8.371094-45.613282 20.148438-64.527344 11.574219 30.871094 38.023438 54.535156 70.578125 62.222656zm-45.816406 48.628906c18.21875 0 36.445312-4.949218 52.457031-14.835937.347656.523437.707031 1.035156 1.078125 1.539062-2.589844 34.019531-29.640625 61.292969-63.5625 64.226563-15.167969-16.714844-26.214844-37.230469-31.519531-59.933594 13.152344 6 27.347656 9.003906 41.546875 9.003906zm221.335937-70.691406c-12.832031-5.863281-26.882812-8.957031-41.414062-8.957031-18.878906 0-36.949219 5.214843-52.582032 14.957031-.308593-.464844-.632812-.917969-.960937-1.371094 1.164063-16.753906 8.226563-32.347656 20.21875-44.339844 11.703125-11.707031 26.835937-18.71875 43.132813-20.132812 15.191406 16.679688 26.261718 37.167969 31.605468 59.84375zm0 0"/><path d="m0 0v450h61v30h90v-30h210v30h90v-30h61v-450zm482 420h-61v30h-30v-30h-270v30h-30v-30h-61v-390h452zm0 0"/><path d="m61 270h30v30h-30zm0 0"/><path d="m61 210h30v30h-30zm0 0"/><path d="m61 330h30v30h-30zm0 0"/><path d="m61 57h30v120h-30zm0 0"/></svg>