<svg height="512pt" viewBox="-31 0 512 512" width="512pt" xmlns="http://www.w3.org/2000/svg"><path d="m420 392v-197c0-107.523438-87.476562-195-195-195s-195 87.476562-195 195v197h-30v90h60v30h90v-30h150v30h90v-30h60v-90zm-360-197c0-90.980469 74.019531-165 165-165s165 74.019531 165 165v197h-330zm360 257h-60v30h-30v-30h-210v30h-30v-30h-60v-30h390zm0 0"/><path d="m225 60c-74.4375 0-135 60.5625-135 135v167h270v-167c0-74.4375-60.5625-135-135-135zm105 272h-210v-137c0-57.898438 47.101562-105 105-105s105 47.101562 105 105zm0 0"/></svg>