<svg height="512pt" viewBox="-54 0 511 512" width="512pt" xmlns="http://www.w3.org/2000/svg"><path d="m307.082031 437c0-41.800781-24.558593-77.972656-60-94.855469v-70.144531h156.582031l-101.15625-272h-200.851562l-101.15625 272h36.582031v90h30v-90h90v70.144531c-35.441406 16.882813-60 53.054688-60 94.855469v45h-90v30h390v-30h-90zm-184.574219-407h159.148438l78.84375 212h-316.835938zm64.574219 242h30v61.074219c-4.902343-.703125-9.90625-1.074219-15-1.074219s-10.097656.371094-15 1.074219zm15 90c36.21875 0 66.523438 25.808594 73.492188 60h-146.984375c6.96875-34.191406 37.273437-60 73.492187-60zm-75 90h150v30h-150zm0 0"/></svg>