<svg height="512pt" viewBox="0 0 512 512" width="512pt" xmlns="http://www.w3.org/2000/svg"><path d="m437 242c-10.878906 0-20.070312 0-31 0-24.8125 0-45-20.1875-45-45v-75h-30v-47c0-41.355469-33.644531-75-75-75s-75 33.644531-75 75v47h-30v75c0 24.8125-20.1875 45-45 45-10.929688 0-20.121094 0-31 0-41.355469 0-75 33.644531-75 75v135h30v-135c0-24.8125 20.1875-45 45-45h16v240h330v-240h16c24.8125 0 45 20.1875 45 45v135h30v-135c0-41.355469-33.644531-75-75-75zm-226-167c0-24.8125 20.1875-45 45-45s45 20.1875 45 45v47h-90zm180 407h-270.101562v-211.507812c34.191406-6.96875 60.101562-37.273438 60.101562-73.492188v-45h150v45c0 36.21875 25.808594 66.523438 60 73.492188zm0 0"/><path d="m181 377c0 41.355469 33.644531 75 75 75s75-33.644531 75-75v-105h-150zm75 45c-24.8125 0-45-20.1875-45-45v-15h90v15c0 24.8125-20.1875 45-45 45zm45-120v30h-90v-30zm0 0"/></svg>