<svg height="512pt" viewBox="-61 0 512 512.001" width="512pt" xmlns="http://www.w3.org/2000/svg"><path d="m354.074219 206.730469h36.269531v-30.023438h-30.71875c.449219-4.949219.691406-9.953125.691406-15.015625v-45.039062h-62.3125c1.484375-4.824219 2.261719-9.859375 2.261719-15.011719 0-15.894531-7.265625-30.664063-20.449219-41.589844-6.179687-5.113281-9.578125-11.671875-9.578125-18.464843 0-6.789063 3.398438-13.347657 9.578125-18.464844l-19.15625-23.121094c-13.1875 10.921875-20.449218 25.695312-20.449218 41.585938 0 15.894531 7.261718 30.664062 20.449218 41.589843 6.175782 5.117188 9.578125 11.675781 9.578125 18.464844 0 5.347656-2.117187 10.546875-6.027343 15.015625h-41.273438c1.484375-4.828125 2.257812-9.859375 2.257812-15.015625 0-15.894531-7.261718-30.664063-20.445312-41.585937-6.179688-5.117188-9.578125-11.675782-9.578125-18.464844 0-6.792969 3.398437-13.351563 9.578125-18.464844l-19.15625-23.125c-13.1875 10.921875-20.449219 25.695312-20.449219 41.585938 0 15.894531 7.261719 30.664062 20.449219 41.589843 6.175781 5.117188 9.578125 11.675781 9.578125 18.464844 0 5.347656-2.117187 10.546875-6.027344 15.015625h-41.269531c1.480469-4.828125 2.257812-9.859375 2.257812-15.015625 0-15.894531-7.265624-30.664063-20.449218-41.585937-6.179688-5.117188-9.578125-11.675782-9.578125-18.464844 0-6.792969 3.398437-13.351563 9.578125-18.464844l-19.15625-23.125c-13.1875 10.921875-20.449219 25.695312-20.449219 41.585938 0 15.894531 7.261719 30.664062 20.449219 41.589843 6.175781 5.117188 9.578125 11.675781 9.578125 18.464844 0 5.347656-2.117188 10.546875-6.027344 15.015625h-84.050781v45.039062c0 5.058594.242187 10.066407.6875 15.011719h-30.714844v30.027344h36.269531c9.136719 32.179687 27.8125 60.386719 52.757813 81.367187l-26.980469 193.875h-62.046875v30.023438h88.085938l12.867187-95.082031h79.207031v95.082031h30.023438v-95.082031h79.203125l12.871093 95.082031h88.085938v-30.023438h-62.046875l-26.980469-193.875c24.945313-20.980468 43.621094-49.1875 52.757813-81.371093zm-294.019531-45.039063v-15.011718h270.234374v15.011718c0 5.074219-.289062 10.082032-.835937 15.015625h-268.5625c-.546875-4.933593-.835937-9.941406-.835937-15.015625zm7.726562 45.039063h254.78125c-18.589844 52.429687-68.671875 90.082031-127.390625 90.082031s-108.800781-37.652344-127.390625-90.082031zm37.464844 180.160156 11.417968-79.9375c19.199219 10.417969 40.6875 17.128906 63.496094 19.195313v60.742187zm179.851562 0h-74.914062v-60.742187c22.808594-2.066407 44.296875-8.777344 63.492187-19.195313zm0 0"/></svg>