<svg height="512pt" viewBox="-58 0 512 512" width="512pt" xmlns="http://www.w3.org/2000/svg"><path d="m197.972656 212c-57.898437 0-105 47.101562-105 105s47.101563 105 105 105c57.898438 0 105-47.101562 105-105s-47.101562-105-105-105zm0 180c-41.355468 0-75-33.644531-75-75s33.644532-75 75-75c41.355469 0 75 33.644531 75 75s-33.644531 75-75 75zm0 0"/><path d="m330.492188 122h-57.519532v-32h45c41.355469 0 75-33.644531 75-75v-15h-390v15c0 41.355469 33.644532 75 75 75h45v32h-57.519531l-65.453125 360h62.972656v30h90v-30h90v30h90v-30h62.972656zm-294.949219-92h324.859375c-6.191406 17.460938-22.871094 30-42.429688 30h-240c-19.554687 0-36.238281-12.539062-42.429687-30zm117.429687 60h90v32h-90zm150 362v30h-30v-30h-150v30h-30v-30h-57.027344l43.636719-240h43.390625v-30h-37.9375l5.457032-30h214.960937l5.457031 30h-37.9375v30h43.390625l43.636719 240zm0 0"/><path d="m182.972656 272h30v60h-30zm0 0"/></svg>