<svg height="512pt" viewBox="-86 0 512 512" width="512pt" xmlns="http://www.w3.org/2000/svg"><path d="m129.269531 422h60v30h-60zm0 0"/><path d="m129.269531 242h60v30h-60zm0 0"/><path d="m129.269531 182h60v30h-60zm0 0"/><path d="m129.269531 122h60v30h-60zm0 0"/><path d="m339.269531 92h-60v-30h-30v-62h-180v62h-69.269531l39.269531 78.539062v146.460938c0 19.554688 12.542969 36.226562 30 42.421875v41.613281c-19.386719 21.570313-30 49.164063-30 78.390625v62.574219h240v-62.574219c0-29.226562-10.609375-56.820312-30-78.390625v-41.613281c17.460938-6.195313 30-22.867187 30-42.421875v-15h60zm-240-62h120v32h-120zm0 302h120v30h-120zm150 150h-180v-32.574219c0-21.34375 7.617188-41.503906 21.53125-57.425781h136.9375c13.914063 15.921875 21.53125 36.082031 21.53125 57.425781zm0-195c0 8.269531-6.730469 15-15 15h-150c-8.269531 0-15-6.730469-15-15v-153.539062l-20.730469-41.460938h200.730469zm60-45h-30v-120h30zm0 0"/></svg>