<svg height="511pt" viewBox="-45 0 511 511.99848" width="511pt" xmlns="http://www.w3.org/2000/svg"><path d="m360.515625 135.003906c0-41.355468-33.648437-75-75.003906-75h-105.003907v90.003906h180.007813zm-150.007813-15v-30h75.003907c19.554687 0 36.238281 12.539063 42.429687 30zm0 0"/><path d="m60.5 90.003906h30.003906v30h-30.003906zm0 0"/><path d="m120.503906 90.003906h30v30h-30zm0 0"/><path d="m150.503906 332.011719v-62h270.011719v-135.007813c0-74.441406-60.5625-135.003906-135.003906-135.003906h-240.011719c-24.8125 0-45 20.1875-45 45v180.007812c0 24.816407 20.1875 45.003907 45 45.003907h15v62h30.003906v32.578125c-14.921875 5.167968-28.882812 17.992187-40.339844 37.363281-12.128906 20.507813-19.664062 45.339844-19.664062 64.964844 0 13.738281 3.871094 24.546875 11.503906 32.121093 13.355469 13.25 33.917969 13.09375 55.683594 12.921876l22.886719.035156c19.023437 0 36.570312-1.1875 48.429687-12.957032 7.632813-7.574218 11.503906-18.382812 11.503906-32.121093 0-19.625-7.535156-44.457031-19.664062-64.964844-11.460938-19.375-25.421875-32.195313-40.339844-37.363281v-32.578125zm-87.367187 145.730469c-2.175781-2.160157-2.632813-7.078126-2.632813-10.824219 0-14.121094 6.222656-34.03125 15.484375-49.691407 4.570313-7.730468 9.550781-13.921874 14.515625-18.242187v83.011719c-11.910156-.007813-23.617187-.53125-27.367187-4.253906zm71.882812-60.515626c9.261719 15.660157 15.484375 35.570313 15.484375 49.691407 0 3.746093-.457031 8.664062-2.632812 10.824219-3.75 3.722656-15.453125 4.246093-27.367188 4.253906v-83.011719c4.964844 4.320313 9.945313 10.511719 14.515625 18.242187zm-89.519531-387.226562h240.011719c57.898437 0 105.003906 47.105469 105.003906 105.003906v45.003906h-360.015625v-135.007812c0-8.269531 6.730469-15 15-15zm0 210.011719c-8.269531 0-15-6.730469-15-15.003907v-15h360.015625v30.003907c-41.96875 0-308.035156 0-345.015625 0zm75.003906 30v32h-30v-32zm0 0"/></svg>