<svg height="512pt" viewBox="0 -46 512 512" width="512pt" xmlns="http://www.w3.org/2000/svg"><path d="m377 255h30v30h-30zm0 0"/><path d="m377 315h30v30h-30zm0 0"/><path d="m407 285h30v30h-30zm0 0"/><path d="m347 285h30v30h-30zm0 0"/><path d="m392 180h-91v-30h-30v-15c0-8.269531 6.730469-15 15-15h181c24.8125 0 45-20.1875 45-45s-20.1875-45-45-45h-286v-30h-120v30h-61v30h61v30h120v-30h286c8.269531 0 15 6.730469 15 15s-6.730469 15-15 15h-181c-24.8125 0-45 20.1875-45 45v15h-30v30h-91c-66.167969 0-120 53.832031-120 120s53.832031 120 120 120c43.855469 0 82.597656-23.808594 103.546875-60h64.90625c20.949219 36.191406 59.6875 60 103.546875 60 66.167969 0 120-53.832031 120-120s-53.832031-120-120-120zm-241-120h-60v-30h60zm90 120h30v30h-30zm151 210c-64.515625 0-83.492188-58.144531-85.046875-60h-101.90625c-1.539063 1.839844-20.503906 60-85.046875 60-49.625 0-90-40.375-90-90s40.375-90 90-90h91v30h90v-30h91c49.625 0 90 40.375 90 90s-40.375 90-90 90zm0 0"/><path d="m211 270h30v30h-30zm0 0"/><path d="m271 270h30v30h-30zm0 0"/><path d="m120 240c-33.085938 0-60 26.914062-60 60s26.914062 60 60 60 60-26.914062 60-60-26.914062-60-60-60zm0 90c-16.542969 0-30-13.457031-30-30s13.457031-30 30-30 30 13.457031 30 30-13.457031 30-30 30zm0 0"/></svg>