<svg height="512pt" viewBox="-91 0 512 512" width="512pt" xmlns="http://www.w3.org/2000/svg"><path d="m0 0v512h330v-512zm300 482h-270v-452h270zm0 0"/><path d="m165 452c57.898438 0 105-47.101562 105-105s-47.101562-105-105-105-105 47.101562-105 105 47.101562 105 105 105zm0-180c41.355469 0 75 33.644531 75 75s-33.644531 75-75 75-75-33.644531-75-75 33.644531-75 75-75zm0 0"/><path d="m165 392c24.8125 0 45-20.1875 45-45s-20.1875-45-45-45-45 20.1875-45 45 20.1875 45 45 45zm0-60c8.269531 0 15 6.730469 15 15s-6.730469 15-15 15-15-6.730469-15-15 6.730469-15 15-15zm0 0"/><path d="m165 212c41.355469 0 75-33.644531 75-75s-33.644531-75-75-75-75 33.644531-75 75 33.644531 75 75 75zm0-120c24.8125 0 45 20.1875 45 45s-20.1875 45-45 45-45-20.1875-45-45 20.1875-45 45-45zm0 0"/><path d="m60 62h30v30h-30zm0 0"/><path d="m240 62h30v30h-30zm0 0"/><path d="m150 122h30v30h-30zm0 0"/><path d="m60 212h30v30h-30zm0 0"/><path d="m240 212h30v30h-30zm0 0"/></svg>