<svg height="512pt" viewBox="0 0 512 512.00125" width="512pt" xmlns="http://www.w3.org/2000/svg"><path d="m494.414062 17.589844c-23.449218-23.449219-61.40625-23.457032-84.859374 0-7.605469 7.605468-6.773438 8.730468-51.410157 75.875l-33.449219-33.449219-264.675781 264.679687 33.449219 33.449219c-67.632812 44.957031-68.320312 43.851563-75.878906 51.410157-23.449219 23.449218-23.453125 61.40625 0 84.859374 23.445312 23.449219 61.402344 23.453126 84.859375 0 7.605469-7.609374 6.773437-8.730468 51.410156-75.878906l33.449219 33.449219 264.675781-264.675781-33.449219-33.449219c67.226563-44.6875 68.289063-43.820313 75.878906-51.410156 23.394532-23.398438 23.394532-61.464844 0-84.859375zm-413.179687 455.609375c-11.726563 11.722656-30.703125 11.726562-42.429687 0-11.726563-11.726563-11.726563-30.703125 0-42.433594 3.910156-3.910156.816406-1.03125 76.324218-50.960937l17.066406 17.066406c-50.308593 76.085937-47.078124 72.441406-50.960937 76.328125zm106.070313-63.644531-84.855469-84.859376 222.246093-222.246093 84.859376 84.855469zm285.894531-328.320313c-3.894531 3.890625-.230469.644531-76.328125 50.960937l-17.0625-17.066406c50.308594-76.082031 47.074218-72.4375 50.960937-76.324218 11.722657-11.726563 30.703125-11.730469 42.429688 0 11.695312 11.695312 11.695312 30.730468 0 42.429687zm0 0"/></svg>