<svg height="512pt" viewBox="0 -16 512 512" width="512pt" xmlns="http://www.w3.org/2000/svg"><path d="m452 210v-60h-30v-30h65.8125l-40-120h-81.625l-40 120h65.8125v30h-30v60h-121v-90h-150v90h-91v270h30v-180h61v180h30v-60h90v60h30c0-17.527344 0-160.023438 0-180h61v180h210c0-27.816406 0-240.988281 0-270zm-64.1875-180h38.375l20 60h-78.375zm4.1875 150h30v30h-30zm-181-30v120h-90v-120zm-181 120v-30h61v30zm91 120v-30h90v30zm90-60h-90v-30h90zm30-90h241v30h-241zm241 210h-150v-60h60v30h30v-30h60zm0-90h-150v-60h60v30h30v-30h60zm0 0"/></svg>