<svg height="512pt" viewBox="0 -91 512 512" width="512pt" xmlns="http://www.w3.org/2000/svg"><path d="m452 60c-.503906 0-1 .027344-1.503906.039062-6.953125-34.210937-37.261719-60.039062-73.496094-60.039062h-242c-36.234375 0-66.542969 25.828125-73.496094 60.039062-.503906-.011718-1-.039062-1.503906-.039062-33.085938 0-60 26.914062-60 60 0 21.527344 11.703125 41.1875 30 51.769531v158.230469h90v-60h272v60h90v-158.230469c18.296875-10.582031 30-30.242187 30-51.769531 0-33.085938-26.914062-60-60-60zm-317-30h242c22.554688 0 41.285156 16.683594 44.507812 38.355469-17.648437 10.460937-29.507812 29.6875-29.507812 51.644531v2.578125c-4.695312-1.664063-9.742188-2.578125-15-2.578125h-91c-11.515625 0-22.03125 4.355469-30 11.496094-7.96875-7.140625-18.484375-11.496094-30-11.496094h-91c-5.257812 0-10.304688.914062-15 2.578125v-2.578125c0-21.957031-11.859375-41.183594-29.507812-51.644531 3.222656-21.671875 21.953124-38.355469 44.507812-38.355469zm-15 135c0-8.269531 6.730469-15 15-15h91c8.269531 0 15 6.730469 15 15v15h-121zm151 0c0-8.269531 6.730469-15 15-15h91c8.269531 0 15 6.730469 15 15v15h-121zm190.976562-16.886719-9.976562 3.546875v148.339844h-30v-60h-332v60h-30v-148.339844l-9.976562-3.546875c-11.976563-4.257812-20.023438-15.554687-20.023438-28.113281 0-16.542969 13.457031-30 30-30s30 13.457031 30 30v90h332v-90c0-16.542969 13.457031-30 30-30s30 13.457031 30 30c0 12.558594-8.046875 23.855469-20.023438 28.113281zm0 0"/><path d="m151 60h30v30h-30zm0 0"/><path d="m211 60h30v30h-30zm0 0"/><path d="m271 60h30v30h-30zm0 0"/><path d="m331 60h30v30h-30zm0 0"/></svg>