<svg height="512pt" viewBox="0 0 512 512" width="512pt" xmlns="http://www.w3.org/2000/svg"><path d="m512 182v-122h-66.730469l-30-60h-318.539062l-30 60h-66.730469v122h31v240h-31v90h512v-90h-31v-240zm-396.730469-152h281.460938l15 30h-311.460938zm-85.269531 60h452v62h-452zm421 242h-60.839844c-2.445312-22.019531-10.203125-42.460938-21.964844-60h82.804688zm-90 15v75h-44.988281c9.65625-12.847656 14.988281-28.546875 14.988281-45 0-18.476562-6.777344-36.226562-19.085938-49.984375l-55.914062-62.515625-55.914062 62.515625c-16.085938 17.980469-22.429688 42.054687-17.40625 66.039063 2.222656 10.613281 6.832031 20.460937 13.210937 28.945312h-44.890625v-75c0-57.898438 47.101562-105 105-105s105 47.101562 105 105zm-148.957031 39.902344c-3.050781-14.550782.742187-29.089844 10.402343-39.890625l33.554688-37.511719 33.554688 37.515625c7.382812 8.25 11.445312 18.898437 11.445312 29.984375 0 24.445312-19.605469 44.574219-44.117188 45h-.140624c-22.808594.324219-40.691407-15.96875-44.699219-35.097656zm-90.203125-54.902344h-60.839844v-60h82.804688c-11.761719 17.539062-19.523438 37.980469-21.964844 60zm-60.839844 30h60v60h-60zm421 120h-452v-30h452zm-91-60v-60h60v60zm60-180h-110.25c-23.1875-18.75-52.675781-30-84.75-30s-61.5625 11.25-84.75 30h-110.25v-60h390zm0 0"/></svg>