<svg height="512pt" viewBox="0 -16 512 512" width="512pt" xmlns="http://www.w3.org/2000/svg"><path d="m512 480h-512v-480h512zm-482-30h452v-420h-452zm0 0"/><path d="m452 420h-392v-360h392zm-362-30h332v-300h-332zm0 0"/><path d="m211 210h30v60h-30zm0 0"/><path d="m271 210h30v60h-30zm0 0"/><path d="m241 360.808594-17.144531-2.472656c-58.242188-8.410157-102.855469-58.097657-102.855469-118.335938 0-60.269531 44.640625-109.929688 102.855469-118.332031l17.144531-2.476563v30.808594h30v-30.808594l17.144531 2.472656c58.242188 8.410157 102.855469 58.097657 102.855469 118.335938 0 60.269531-44.640625 109.929688-102.855469 118.335938l-17.144531 2.472656v-30.808594h-30zm-30-60.808594h90v24.40625c35.175781-12.5 60-46.179688 60-84.40625 0-38.230469-24.824219-71.90625-60-84.40625v24.40625h-90v-24.40625c-35.175781 12.5-60 46.175781-60 84.40625s24.824219 71.90625 60 84.40625zm0 0"/></svg>