<svg height="512pt" viewBox="0 0 512 512" width="512pt" xmlns="http://www.w3.org/2000/svg"><path d="m435.898438.132812-74.898438 101.117188v50.746094h-30v-50.746094l-75-101.25-75 101.25v50.746094h-30v-50.746094l-74.902344-101.117188-76.097656 101.050782v410.8125h151v-60h30v60h150v-60h30v60h151v-410.8125zm-74.898438 181.863282v30h-30v-30zm0 60v120h-30v-120zm-180-60v30h-30v-30zm0 60v120h-30v-120zm-60 240h-91v-370.777344l45.898438-60.949219 45.101562 60.882813zm30-60v-30h30v30zm150 60h-90v-370.84375l45-60.75 45 60.75zm30-60v-30h30v30zm151 60h-91v-370.84375l45.101562-60.882813 45.898438 60.949219zm0 0"/><path d="m241 391.996094h30v30h-30zm0 0"/><path d="m241 181.996094h30v30h-30zm0 0"/><path d="m61 181.996094h30v30h-30zm0 0"/><path d="m61 391.996094h30v30h-30zm0 0"/><path d="m421 391.996094h30v30h-30zm0 0"/><path d="m421 181.996094h30v30h-30zm0 0"/></svg>