<svg height="512pt" viewBox="-91 0 512 512" width="512pt" xmlns="http://www.w3.org/2000/svg"><path d="m90 120h60v30h-60zm0 0"/><path d="m330 90v-45c0-24.8125-20.1875-45-45-45h-240c-24.8125 0-45 20.1875-45 45v45h30v150h-30v90h30.839844c3.882812 34.519531 21.019531 66.4375 47.8125 88.773438l-22.753906 93.226562h218.203124l-22.75-93.226562c26.789063-22.335938 43.929688-54.253907 47.808594-88.773438h30.839844v-90h-30v-150zm-300-45c0-8.269531 6.730469-15 15-15h240c8.269531 0 15 6.730469 15 15v15h-270zm187.480469 361.535156 18.417969 75.464844h-141.796876l18.417969-75.464844c-2.886719-2.949218-43.804687-24.003906-51.429687-76.535156h207.816406c-7.589844 52.3125-48.75 73.800781-51.425781 76.535156zm82.519531-106.535156h-270v-30h270zm-30-60h-210v-150h210zm0 0"/></svg>