<svg height="512pt" viewBox="-31 0 512 512" width="512pt" xmlns="http://www.w3.org/2000/svg"><path d="m390 482c-16.542969 0-30-13.457031-30-30v-60c0-33.085938-26.914062-60-60-60s-60 26.914062-60 60v45c0 24.8125-20.1875 45-45 45s-45-20.1875-45-45v-45h30v-18.902344c0-33.027344 17.539062-59.007812 32.253906-74.988281 17.890625-19.425781 27.746094-44.679687 27.746094-71.109375v-45h30v-90h-60v-92h-30v92h-90v-92h-30v92h-60v90h30v45c0 26.425781 9.855469 51.679688 27.746094 71.109375 14.714844 15.980469 32.253906 41.960937 32.253906 74.988281v18.902344h30v45c0 41.355469 33.644531 75 75 75s75-33.644531 75-75v-45c0-16.542969 13.457031-30 30-30s30 13.457031 30 30v60c0 33.085938 26.914062 60 60 60h60v-30zm-360-360h210v30h-210zm49.8125 155.789062c-12.777344-13.875-19.8125-31.914062-19.8125-50.789062v-45h150v45c0 18.878906-7.035156 36.914062-19.8125 50.789062-23.402344 25.414063-36.984375 54.324219-39.6875 84.210938h-31c-2.699219-29.886719-16.28125-58.796875-39.6875-84.210938zm0 0"/><path d="m120 212h30v30h-30zm0 0"/></svg>