<svg height="512pt" viewBox="-61 0 512 512" width="512pt" xmlns="http://www.w3.org/2000/svg"><path d="m270 150v-60h-30v-30c0-16.542969 13.457031-30 30-30s30 13.457031 30 30h30c0-33.085938-26.914062-60-60-60s-60 26.914062-60 60v30h-30v-30c0-33.085938-26.914062-60-60-60s-60 26.914062-60 60h30c0-16.542969 13.457031-30 30-30s30 13.457031 30 30v30h-30v60h-120v45c0 19.773438 12.828125 36.601562 30.59375 42.621094 5.832031 62.578125 54.550781 112.890625 116.394531 121.175781l-30.238281 153.203125h156.5l-30.238281-153.203125c61.847656-8.285156 110.5625-58.597656 116.394531-121.175781 17.765625-6.019532 30.59375-22.847656 30.59375-42.621094v-45zm-120-30h90v30h-90zm3.25 362 24.078125-122h35.34375l24.078125 122zm71.75-152h-60c-52.804688 0-96.621094-39.183594-103.925781-90h267.851562c-7.304687 50.816406-51.121093 90-103.925781 90zm135-135c0 8.269531-6.730469 15-15 15h-300c-8.269531 0-15-6.730469-15-15v-15h330zm0 0"/></svg>