<svg height="512pt" viewBox="0 -31 512 512" width="512pt" xmlns="http://www.w3.org/2000/svg"><path d="m512 210h-69.519531c-38.34375 0-75.472657 11.246094-107.375 32.519531-26.957031 17.976563-58.332031 27.480469-90.730469 27.480469h-153.375v-30h30v-30h-30v-135c0-24.8125 20.1875-45 45-45s45 20.1875 45 45v17.578125c-17.460938 6.195313-30 22.867187-30 42.421875v15h-30v30h150v-30h-30v-15c0-19.554688-12.539062-36.226562-30-42.421875v-17.578125c0-41.355469-33.644531-75-75-75s-75 33.644531-75 75v135h-30v30h30v30h-61v30h31v45c0 36.21875 25.808594 66.523438 60 73.492188v31.507812h30v-30h270v30h30v-31.507812c34.191406-6.96875 60-37.273438 60-73.492188v-105h31zm-331-60v-15c0-8.269531 6.730469-15 15-15s15 6.730469 15 15v15zm270 195c0 24.8125-20.1875 45-45 45h-300c-24.8125 0-45-20.1875-45-45v-45h183.375c38.34375 0 75.472656-11.246094 107.375-32.519531 26.957031-17.976563 58.328125-27.480469 90.730469-27.480469h8.519531zm0 0"/></svg>