<svg height="512pt" viewBox="0 -31 512 512" width="512pt" xmlns="http://www.w3.org/2000/svg"><path d="m0 0v270h512v-270zm391 150v30h-270v-30zm-270 60h270v30h-270zm361 30h-61v-90h30v-30h-390v30h30v90h-61v-210h452zm0 0"/><path d="m361 60h60v30h-60zm0 0"/><path d="m271 60h60v30h-60zm0 0"/><path d="m91 60h30v30h-30zm0 0"/><path d="m151 60h30v30h-30zm0 0"/><path d="m151 420h30v30h-30zm0 0"/><path d="m151 300h30v90h-30zm0 0"/><path d="m211 300h30v30h-30zm0 0"/><path d="m211 360h30v90h-30zm0 0"/><path d="m271 420h30v30h-30zm0 0"/><path d="m271 300h30v90h-30zm0 0"/><path d="m331 300h30v30h-30zm0 0"/><path d="m331 360h30v90h-30zm0 0"/></svg>