<svg height="512pt" viewBox="0 0 512 512.001" width="512pt" xmlns="http://www.w3.org/2000/svg"><path d="m363.480469 0-137.882813 137.882812c-17.582031 17.582032-17.589844 46.050782 0 63.636719l31.820313 31.820313-85.164063 85.164062-21.210937-21.214844-137.882813 137.882813c-17.546875 17.546875-17.546875 46.09375-.003906 63.636719 17.585938 17.585937 46.050781 17.589844 63.640625 0l137.882813-137.878906-21.214844-21.214844 85.164062-85.164063 31.820313 31.820313c17.585937 17.585937 46.050781 17.585937 63.636719 0l137.882812-137.882813zm-307.898438 477.597656c-5.859375 5.859375-15.347656 5.863282-21.210937 0-5.847656-5.847656-5.847656-15.363281 0-21.210937l74.246094-74.246094 21.210937 21.214844zm95.460938-95.457031-21.214844-21.210937 21.214844-21.214844 21.210937 21.214844zm170.011719-212.4375 84.851562-84.851563 21.214844 21.210938-84.851563 84.851562zm127.277343-42.425781 21.210938 21.210937-84.847657 84.851563-21.214843-21.210938zm-63.636719-63.640625-84.851562 84.851562-21.214844-21.210937 84.851563-84.851563zm-53.03125 201.523437-84.851562-84.851562c-5.851562-5.847656-5.851562-15.363282 0-21.214844l10.605469-10.605469 106.0625 106.0625-10.605469 10.609375c-5.863281 5.859375-15.351562 5.859375-21.210938 0zm0 0"/></svg>