<svg height="512pt" viewBox="-91 0 512 512.002" width="512pt" xmlns="http://www.w3.org/2000/svg"><path d="m266.488281 294.910156c40.359375-31.5 63.507813-78.851562 63.507813-129.914062 0-91.1875-73.796875-164.996094-164.996094-164.996094-.003906 0 0 0-.003906 0-91.1875 0-164.996094 73.796875-164.996094 165 0 51.058594 23.148438 98.410156 63.507812 129.910156 16.585938 12.949219 26.492188 34.265625 26.492188 57.023438v10.070312h-30v30h30v30h-30v30h30v15c0 24.8125 20.1875 45 45 45h59.996094c24.8125 0 45-20.1875 45-45v-15h30v-30h-30v-30h30v-30h-30v-10.070312c0-22.757813 9.90625-44.074219 26.492187-57.023438zm-56.492187 172.089844c0 8.273438-6.726563 15-15 15h-59.996094c-8.273438 0-15-6.726562-15-15v-14.996094h89.996094zm0-44.996094h-90v-30h90zm-44.996094-224.046875-16.699219-25.046875 16.699219-16.699218 16.695312 16.699218zm14.996094 164.046875v-132.464844l23.332031-34.996093 21.667969 21.667969 40.605468-40.605469-21.210937-21.214844-19.394531 19.394531-60-60-59.996094 60-19.394531-19.394531-21.214844 21.214844 40.605469 40.605469 21.667968-21.667969 23.332032 34.996093v132.464844h-30v-10.074218c0-31.921876-14.21875-62.078126-38.03125-80.667969-33.023438-25.777344-51.964844-64.507813-51.964844-106.265625 0-74.609375 60.375-134.996094 134.996094-134.996094 74.609375 0 134.996094 60.375 134.996094 134.996094 0 41.757812-18.9375 80.488281-51.964844 106.265625-23.8125 18.589843-38.03125 48.746093-38.03125 80.667969v10.074218zm0 0"/></svg>