<svg height="512pt" viewBox="0 -46 512 512" width="512pt" xmlns="http://www.w3.org/2000/svg"><path d="m482 120v-15c0-24.8125-20.1875-45-45-45h-136v-15c0-24.8125-20.1875-45-45-45s-45 20.1875-45 45v15h-136c-24.8125 0-45 20.1875-45 45v15h-30v75c0 36.21875 25.808594 66.523438 60 73.492188v151.507812h392v-151.507812c34.191406-6.96875 60-37.273438 60-73.492188v-75zm-241-75c0-8.269531 6.730469-15 15-15s15 6.730469 15 15v15h-30zm-181 60c0-8.269531 6.730469-15 15-15h362c8.269531 0 15 6.730469 15 15v15c-39.015625 0-352.746094 0-392 0zm-30 90v-45h30v87.421875c-17.460938-6.195313-30-22.867187-30-42.421875zm60 195v-240h332v240zm392-195c0 19.554688-12.539062 36.226562-30 42.421875v-87.421875h30zm0 0"/></svg>