<svg height="512pt" viewBox="0 0 512 512" width="512pt" xmlns="http://www.w3.org/2000/svg"><path d="m481 332v-270h-150v-32h30v-30h-210v30h30v32h-181v150h61v60h30v30h30v-30h30v-60h56.710938l2.839843-11.363281c2.746094-10.972657 12.5625-18.636719 23.875-18.636719h96.574219v150h-286c-24.8125 0-45 20.1875-45 45v75h61v60h180v-60h271v-120zm-420 90h-31v-45c0-8.269531 6.730469-15 15-15h16zm150 60h-120v-120h120zm0-452h90v32c-27.351562 0-60.417969 0-90 0zm-90 212h-30v-30h30zm113.425781-90c-20.980469 0-39.644531 11.882812-48.761719 30h-155.664062v-90h421v60h-60v150h60v30h-90v-180zm186.574219 60v-30h30v30zm30 30v30h-30v-30zm31 180h-241v-60h241zm0 0"/></svg>