<svg height="512pt" viewBox="-61 0 512 512" width="512pt" xmlns="http://www.w3.org/2000/svg"><path d="m0 0v512h390v-512zm360 60h-150v-30h150zm-150 30h150v30h-150zm-30-60v90h-150v-90zm-150 452v-332h330v332zm0 0"/><path d="m195 181c-74.4375 0-135 60.5625-135 135s60.5625 135 135 135 135-60.5625 135-135-60.5625-135-135-135zm0 240c-57.898438 0-105-47.101562-105-105s47.101562-105 105-105c52.804688 0 96.621094 39.183594 103.925781 90h-30.433593c-6.96875-34.191406-37.273438-60-73.492188-60-41.355469 0-75 33.644531-75 75s33.644531 75 75 75c36.21875 0 66.523438-25.808594 73.492188-60h30.433593c-7.304687 50.816406-51.121093 90-103.925781 90zm42.421875-90c-6.195313 17.460938-22.867187 30-42.421875 30-24.8125 0-45-20.1875-45-45s20.1875-45 45-45c19.554688 0 36.226562 12.539062 42.421875 30h-27.421875v30zm0 0"/><path d="m60 60h30v30h-30zm0 0"/><path d="m120 60h30v30h-30zm0 0"/></svg>