<svg height="512pt" viewBox="0 -31 512 512" width="512pt" xmlns="http://www.w3.org/2000/svg"><path d="m482 242.578125v-197.578125c0-24.8125-20.1875-45-45-45-19.558594 0-36.238281 12.539062-42.429688 30h-277.140624c-6.191407-17.460938-22.871094-30-42.429688-30-24.8125 0-45 20.1875-45 45v197.578125c-17.460938 6.195313-30 22.867187-30 42.421875v165h90v-60h332v60h90c0-29.011719 0-123.636719 0-165 0-19.554688-12.539062-36.226562-30-42.421875zm-407-212.578125c8.269531 0 15 6.730469 15 15v15h332v-15c0-8.269531 6.730469-15 15-15s15 6.730469 15 15v195h-32.578125c1.664063-4.695312 2.578125-9.742188 2.578125-15v-30c0-24.8125-20.1875-45-45-45h-91c-11.515625 0-22.03125 4.355469-30 11.496094-7.96875-7.140625-18.484375-11.496094-30-11.496094h-91c-24.8125 0-45 20.1875-45 45v30c0 5.257812.914062 10.304688 2.578125 15h-32.578125v-195c0-8.269531 6.730469-15 15-15zm45 195v-30c0-8.269531 6.730469-15 15-15h91c8.269531 0 15 6.730469 15 15v45h-106c-8.269531 0-15-6.730469-15-15zm151-30c0-8.269531 6.730469-15 15-15h91c8.269531 0 15 6.730469 15 15v30c0 8.269531-6.730469 15-15 15h-106c0-14.09375 0-30.949219 0-45zm211 225h-30v-60h-392v60h-30v-90h452zm-452-120v-15c0-8.269531 6.730469-15 15-15h422c8.269531 0 15 6.730469 15 15v15zm0 0"/></svg>