<svg height="512pt" viewBox="-91 0 512 512" width="512pt" xmlns="http://www.w3.org/2000/svg"><path d="m255 330c24.8125 0 45-20.1875 45-45v-17.578125c17.460938-6.195313 30-22.867187 30-42.421875 0-24.8125-20.1875-45-45-45s-45 20.1875-45 45c0 19.554688 12.539062 36.226562 30 42.421875v17.578125c0 8.269531-6.730469 15-15 15h-45v-150h45c24.8125 0 45-20.1875 45-45v-17.578125c17.460938-6.195313 30-22.867187 30-42.421875 0-24.8125-20.1875-45-45-45s-45 20.1875-45 45c0 19.554688 12.539062 36.226562 30 42.421875v17.578125c0 8.269531-6.730469 15-15 15h-45v-75c0-24.8125-20.1875-45-45-45s-45 20.1875-45 45v75h-45c-8.269531 0-15-6.730469-15-15v-17.578125c17.460938-6.195313 30-22.867187 30-42.421875 0-24.8125-20.1875-45-45-45s-45 20.1875-45 45c0 19.554688 12.539062 36.226562 30 42.421875v17.578125c0 24.8125 20.1875 45 45 45h45v150h-45c-8.269531 0-15-6.730469-15-15v-17.578125c17.460938-6.195313 30-22.867187 30-42.421875 0-24.8125-20.1875-45-45-45s-45 20.1875-45 45c0 19.554688 12.539062 36.226562 30 42.421875v17.578125c0 24.8125 20.1875 45 45 45h45v92h-24.269531l-30 60h-65.730469v30h330v-30h-65.730469l-30-60h-24.269531v-92zm30-120c8.269531 0 15 6.730469 15 15s-6.730469 15-15 15-15-6.730469-15-15 6.730469-15 15-15zm0-180c8.269531 0 15 6.730469 15 15s-6.730469 15-15 15-15-6.730469-15-15 6.730469-15 15-15zm-240 0c8.269531 0 15 6.730469 15 15s-6.730469 15-15 15-15-6.730469-15-15 6.730469-15 15-15zm0 180c8.269531 0 15 6.730469 15 15s-6.730469 15-15 15-15-6.730469-15-15 6.730469-15 15-15zm185.730469 272h-131.460938l15-30h101.460938zm-80.730469-60v-377c0-8.269531 6.730469-15 15-15s15 6.730469 15 15v377zm0 0"/></svg>