<svg height="512pt" viewBox="0 0 512 512" width="512pt" xmlns="http://www.w3.org/2000/svg"><path d="m181 302h30v30h-30zm0 0"/><path d="m181 242h30v30h-30zm0 0"/><path d="m467 422h-16v-150h-30v-167c0-57.898438-47.101562-105-105-105h-30c-57.898438 0-105 47.101562-105 105v47.839844c-67.40625 7.484375-120 64.792968-120 134.160156v75h-16c-24.8125 0-45 20.1875-45 45v60c0 24.8125 20.1875 45 45 45h467v-45c0-24.8125-20.1875-45-45-45zm-76 0v-120h30v120zm-60-30h15c8.269531 0 15 6.730469 15 15v15h-15c-5.257812 0-10.304688.914062-15 2.578125zm-45-362h30c41.355469 0 75 33.644531 75 75v167h-30v92.578125c-4.695312-1.664063-9.742188-2.578125-15-2.578125h-15v-75c0-69.367188-52.59375-126.675781-120-134.160156v-47.839844c0-41.355469 33.644531-75 75-75zm-135 162.144531c13.644531-6.5 28.90625-10.144531 45-10.144531s31.355469 3.644531 45 10.144531v124.855469c0 24.8125-20.1875 45-45 45s-45-20.1875-45-45zm-30 21.453125v103.402344c0 41.355469 33.644531 75 75 75s75-33.644531 75-75v-103.402344c18.546875 18.945313 30 44.859375 30 73.402344v135h-210v-135c0-28.542969 11.453125-54.457031 30-73.402344zm-76 268.402344c-8.269531 0-15-6.730469-15-15v-60c0-8.269531 6.730469-15 15-15h16v90zm256 0h-210v-30h210zm181 0h-151v-15c0-8.269531 6.730469-15 15-15h121c8.269531 0 15 6.730469 15 15zm0 0"/></svg>