<svg height="512pt" viewBox="0 0 512 512" width="512pt" xmlns="http://www.w3.org/2000/svg"><path d="m178.101562 135h121.898438v-30h-121.898438c-6.675781-25.847656-30.195312-45-58.101562-45-33.085938 0-60 26.914062-60 60s26.914062 60 60 60c27.90625 0 51.425781-19.152344 58.101562-45zm-88.101562-15c0-16.542969 13.457031-30 30-30s30 13.457031 30 30-13.457031 30-30 30-30-13.457031-30-30zm0 0"/><path d="m180 360v-131.179688l197.824219-48.820312h134.175781v-120h-134.175781c-236.902344-57.308594-232.152344-60-257.824219-60-66.167969 0-120 53.832031-120 120 0 44.324219 24.160156 83.113281 60 103.890625v136.109375c0 27.90625 19.152344 51.425781 45 58.101562v11.398438c0 45.492188 37.011719 82.5 82.5 82.5s82.5-37.007812 82.5-82.5v-54.5c0-24.8125 20.1875-45 45-45h17.898438c6.675781 25.847656 30.195312 45 58.101562 45h30v15h30v-30h61v-30h-61v-30h61v-30h-61v-30h-30v15h-30c-27.90625 0-51.425781 19.152344-58.101562 45h-17.898438c-41.355469 0-75 33.644531-75 75v54.5c0 28.949219-23.550781 52.5-52.5 52.5s-52.5-23.550781-52.5-52.5v-11.398438c25.847656-6.675781 45-30.195312 45-58.101562zm211-75h30v60h-30c-16.542969 0-30-13.457031-30-30s13.457031-30 30-30zm0-195h91v60h-91zm-361 30c0-49.625 40.375-90 90-90 19.328125 0 10.660156.800781 241 56.746094v66.507812c-230.660156 56.023438-221.664062 56.746094-241 56.746094-49.625 0-90-40.375-90-90zm60 240h30v-30h-30v-30h30v-30h-30v-33.796875c9.59375 2.476563 19.644531 3.796875 30 3.796875 16.285156 0 29.46875-3.679688 30-3.777344v123.777344c0 16.542969-13.457031 30-30 30s-30-13.457031-30-30zm0 0"/></svg>