<svg height="512pt" viewBox="0 0 512 512" width="512pt" xmlns="http://www.w3.org/2000/svg"><path d="m210 390-.003906-270h61.003906v60h30v60h30v30h30v-30h30v-60h30v-60h60v-120h-481v512h512v-122zm151-180h-30v-30h30zm30-60h-90v-30h90zm-361-120h421v60h-271.003906l.003906 300h-150zm452 452h-452v-62h452zm0 0"/><path d="m105 90c-24.8125 0-45 20.1875-45 45s20.1875 45 45 45 45-20.1875 45-45-20.1875-45-45-45zm0 60c-8.269531 0-15-6.730469-15-15s6.730469-15 15-15 15 6.730469 15 15-6.730469 15-15 15zm0 0"/><path d="m60 210h90v30h-90zm0 0"/><path d="m60 270h90v30h-90zm0 0"/><path d="m60 330h90v30h-90zm0 0"/></svg>