<svg height="512pt" viewBox="0 0 512 512" width="512pt" xmlns="http://www.w3.org/2000/svg"><path d="m255.953125 122c-90.984375 0-165 74.019531-165 165s74.015625 165 165 165c90.980469 0 165-74.019531 165-165s-74.019531-165-165-165zm0 300c-74.441406 0-135-60.5625-135-135s60.558594-135 135-135c74.4375 0 135 60.5625 135 135s-60.5625 135-135 135zm0 0"/><path d="m491.730469 51.289062c-24.902344-24.898437-64.398438-27.097656-91.871094-5.113281l-13.082031 10.46875 39.15625 39.160157-21.921875 21.925781c-36.074219-31.59375-82.289063-51.859375-133.058594-55.21875v-32.511719h30v-30h-90v30h30v32.511719c-50.769531 3.359375-96.988281 23.625-133.0625 55.214843l-21.886719-21.886718 39.191406-39.195313-13.082031-10.46875c-27.472656-21.980469-66.964843-19.78125-91.871093 5.113281-24.894532 24.902344-27.09375 64.398438-5.113282 91.871094l10.46875 13.085938 39.195313-39.195313 21.886719 21.890625c-34.679688 39.59375-55.726563 91.414063-55.726563 148.058594 0 66.332031 28.859375 126.046875 74.671875 167.261719l-10.15625 27.738281h-34.515625v30h55.480469l14.035156-38.328125c35.871094 24.191406 79.054688 38.328125 125.484375 38.328125 46.425781 0 89.609375-14.136719 125.484375-38.328125l14.03125 38.328125h55.484375v-30h-34.519531l-10.15625-27.738281c45.8125-41.21875 74.671875-100.929688 74.671875-167.261719 0-56.644531-21.050781-108.464844-55.726563-148.058594l21.921875-21.921875 39.226563 39.226563 10.472656-13.085938c21.980469-27.472656 19.78125-66.96875-5.113281-91.871094zm-450.277344 21.214844c9.617187-9.613281 23.230469-13.351562 35.988281-10.535156l-46.519531 46.523438c-2.785156-12.625.816406-26.273438 10.53125-35.988282zm214.5 409.496094c-107.523437 0-195-87.476562-195-195s87.476563-195 195-195c107.519531 0 195 87.476562 195 195s-87.476563 195-195 195zm225.09375-373.507812-46.519531-46.523438c12.625-2.785156 26.273437.820312 35.988281 10.535156s13.320313 23.363282 10.53125 35.988282zm0 0"/><path d="m270.953125 244.578125v-62.578125h-30v62.578125c-17.460937 6.195313-30 22.867187-30 42.421875 0 24.8125 20.183594 45 45 45 19.554687 0 36.226563-12.542969 42.417969-30h32.582031v-30h-32.582031c-4.527344-12.765625-14.65625-22.894531-27.417969-27.421875zm-15 57.421875c-8.273437 0-15-6.730469-15-15s6.726563-15 15-15c8.269531 0 15 6.730469 15 15s-6.730469 15-15 15zm0 0"/></svg>