<?xml version="1.0" encoding="iso-8859-1"?>
<!-- Generator: Adobe Illustrator 19.0.0, SVG Export Plug-In . SVG Version: 6.00 Build 0)  -->
<svg version="1.1" id="Capa_1" xmlns="http://www.w3.org/2000/svg" xmlns:xlink="http://www.w3.org/1999/xlink" x="0px" y="0px"
	 viewBox="0 0 512.001 512.001" style="enable-background:new 0 0 512.001 512.001;" xml:space="preserve">
<g>
	<g>
		<g>
			<polygon points="15.059,15.06 207.909,15.06 207.909,0.001 0,0.001 0,512 304.092,512 304.092,496.941 15.059,496.941 			"/>
			<path d="M496.942,231.955v254.337l-40.561-40.561l-40.562,40.562V25.709l33.032,33.032v197.26h15.059V58.741l33.031-33.031
				v182.201H512v-0.001V0.001H231.955V15.06h168.804v481.881h-72.622V512h183.864V231.955H496.942z M486.293,15.06L456.38,44.974
				L426.467,15.06H486.293z M426.467,496.941l29.913-29.913l29.913,29.913H426.467z"/>
			<rect x="448.846" y="272.031" width="15.059" height="16.03"/>
			<rect x="448.846" y="304.087" width="15.059" height="16.03"/>
			<rect x="448.846" y="336.153" width="15.059" height="16.03"/>
			<rect x="448.846" y="368.21" width="15.059" height="16.03"/>
			<polygon points="55.136,55.136 111.727,55.136 111.727,40.076 40.077,40.076 40.077,215.924 55.136,215.924 			"/>
			<rect x="40.077" y="231.953" width="15.059" height="16.03"/>
			<rect x="368.701" y="464.398" width="15.059" height="16.03"/>
			<rect x="368.701" y="432.332" width="15.059" height="16.03"/>
			<path d="M335.323,256.603c0.234-2.616,0.344-5.357,0.344-8.618c0-66.026-53.716-119.742-119.742-119.742
				c-66.027,0-119.742,53.716-119.742,119.742s53.716,119.742,119.742,119.742C278.472,367.728,330.902,318.92,335.323,256.603z
				 M215.925,143.303c57.722,0,104.683,46.961,104.683,104.683c0,0.169-0.003,0.32-0.004,0.485H307.21l-16.03-16.03h-13.615
				c-6.941-27.835-32.34-48.091-61.641-48.091c-26.203,0-49.682,16.224-59.132,40.076h-16.124l-16.03,16.03h-13.125
				C115.387,186.234,160.735,143.303,215.925,143.303z M264.501,247.985c0,26.785-21.791,48.576-48.576,48.576
				s-48.577-21.792-48.577-48.576c0-4.675,0.624-9.163,1.878-13.417c5.865-20.701,25.069-35.159,46.699-35.159
				c24.084,0,44.722,17.916,48.005,41.672l0.059,0.357C264.338,243.301,264.501,245.38,264.501,247.985z M215.925,352.668
				c-55.19,0-100.538-42.932-104.41-97.153h19.361l16.03-16.03h5.941c-0.367,2.779-0.558,5.617-0.558,8.5
				c0,35.089,28.547,63.635,63.636,63.635c35.088,0,63.635-28.547,63.635-63.635c0-0.169-0.007-0.319-0.009-0.485h5.391l16.03,16.03
				h18.447C311.878,314.124,267.899,352.668,215.925,352.668z"/>
			<path d="M40.077,471.925h63.15v-63.151h-63.15V471.925z M55.136,423.834h33.031v33.032H55.136V423.834z"/>
			<rect x="119.741" y="416.791" width="16.03" height="15.059"/>
			<rect x="151.807" y="416.791" width="88.167" height="15.059"/>
			<rect x="119.741" y="448.847" width="112.212" height="15.059"/>
		</g>
	</g>
</g>
<g>
</g>
<g>
</g>
<g>
</g>
<g>
</g>
<g>
</g>
<g>
</g>
<g>
</g>
<g>
</g>
<g>
</g>
<g>
</g>
<g>
</g>
<g>
</g>
<g>
</g>
<g>
</g>
<g>
</g>
</svg>
