<?xml version="1.0" encoding="iso-8859-1"?>
<!-- Generator: Adobe Illustrator 19.0.0, SVG Export Plug-In . SVG Version: 6.00 Build 0)  -->
<svg version="1.1" id="Capa_1" xmlns="http://www.w3.org/2000/svg" xmlns:xlink="http://www.w3.org/1999/xlink" x="0px" y="0px"
	 viewBox="0 0 512.001 512.001" style="enable-background:new 0 0 512.001 512.001;" xml:space="preserve">
<g>
	<g>
		<g>
			<path d="M440.35,152.288v15.059h56.592v41.048H15.06v-41.048h401.244v-15.059h-32.546V0H200.38v40.076h-56.592v15.059h120.713
				v97.153H71.166V55.135h48.576V40.076H56.106v112.213H0.001v71.166h16.03v32.06h16.03v40.562H47.12v-40.562h313.078v-15.059
				H31.091v-17.001h449.82v17.001h-16.03v256.486h-80.637v15.059h95.697V255.515h16.03v-32.06H512v-71.166H440.35z M215.439,40.076
				V15.059h153.259v137.229h-89.138V40.076H215.439z"/>
			<polygon points="47.121,320.122 32.062,320.122 32.062,512 360.198,512 360.198,496.941 47.121,496.941 			"/>
			<rect x="376.231" y="240.456" width="16.03" height="15.059"/>
			<rect x="408.287" y="240.456" width="16.03" height="15.059"/>
			<rect x="72.137" y="288.064" width="15.059" height="176.334"/>
			<rect x="192.368" y="288.064" width="15.059" height="176.334"/>
			<rect x="304.579" y="288.064" width="15.059" height="176.334"/>
			<rect x="424.802" y="288.064" width="15.059" height="176.334"/>
			<path d="M232.441,288.547V463.91h47.119V288.547H232.441z M264.501,448.849h-17.001V303.606h17.001V448.849z"/>
			<path d="M344.653,463.909h47.12V288.547h-47.12V463.909z M359.712,303.606h17.002V448.85h-17.002V303.606z"/>
			<path d="M120.229,288.547V463.91h47.12V288.547H120.229z M152.289,448.849h-17.002V303.606h17.002V448.849z"/>
			<path d="M199.409,103.712c0-17.411-14.165-31.575-31.575-31.575s-31.575,14.165-31.575,31.575s14.165,31.575,31.575,31.575
				C185.245,135.286,199.409,121.123,199.409,103.712z M151.318,103.712c0-9.107,7.409-16.516,16.516-16.516
				c9.107,0,16.516,7.409,16.516,16.516c0,9.107-7.409,16.516-16.516,16.516C158.727,120.227,151.318,112.819,151.318,103.712z"/>
			<rect x="304.087" y="48.091" width="48.091" height="15.059"/>
			<rect x="336.153" y="80.155" width="16.03" height="15.059"/>
			<rect x="304.087" y="80.155" width="16.03" height="15.059"/>
			<rect x="336.153" y="112.212" width="16.03" height="15.059"/>
		</g>
	</g>
</g>
<g>
</g>
<g>
</g>
<g>
</g>
<g>
</g>
<g>
</g>
<g>
</g>
<g>
</g>
<g>
</g>
<g>
</g>
<g>
</g>
<g>
</g>
<g>
</g>
<g>
</g>
<g>
</g>
<g>
</g>
</svg>
