<?xml version="1.0" encoding="iso-8859-1"?>
<!-- Generator: Adobe Illustrator 19.0.0, SVG Export Plug-In . SVG Version: 6.00 Build 0)  -->
<svg version="1.1" id="Capa_1" xmlns="http://www.w3.org/2000/svg" xmlns:xlink="http://www.w3.org/1999/xlink" x="0px" y="0px"
	 viewBox="0 0 512.001 512.001" style="enable-background:new 0 0 512.001 512.001;" xml:space="preserve">
<g>
	<g>
		<g>
			<path d="M407.803,96.183V0H224.426v40.076H191.88v15.059h96.667v41.047H95.212V55.135h72.622V40.076H80.153v56.106H24.046v71.651
				h15.059v-56.592h337.609v385.7H39.105V191.879H24.046v320.122h463.909V360.198h-15.059v126.095l-33.032-33.032V280.045h-15.059
				v173.216l-33.032,33.032V111.242h81.123v224.91h15.059V96.183H407.803z M432.334,467.028l29.913,29.913h-59.825L432.334,467.028z
				 M392.744,96.183h-89.138V40.076h-64.121V15.059h153.259V96.183z"/>
			<path d="M143.302,167.834c0-17.411-14.165-31.575-31.575-31.575c-17.411,0-31.575,14.165-31.575,31.575
				c0,14.815,10.259,27.274,24.046,30.661v81.552c0,9.47,6.275,23.56,23.56,23.56h160.304c9.47,0,23.56-6.275,23.56-23.56v-81.552
				c13.786-3.386,24.046-15.845,24.046-30.661c0-17.411-14.165-31.575-31.575-31.575s-31.575,14.165-31.575,31.575
				c0,14.815,10.259,27.274,24.046,30.661v81.552c0,7.221-5.377,8.426-8.5,8.5H127.758c-7.221,0-8.426-5.378-8.5-8.5v-81.552
				C133.043,195.108,143.302,182.649,143.302,167.834z M287.576,167.834c0-9.107,7.409-16.516,16.516-16.516
				c9.107,0,16.516,7.409,16.516,16.516c0,9.107-7.409,16.516-16.516,16.516C294.984,184.35,287.576,176.94,287.576,167.834z
				 M111.728,184.35c-9.107,0-16.516-7.409-16.516-16.516c0-9.107,7.409-16.516,16.516-16.516c9.107,0,16.516,7.409,16.516,16.516
				C128.244,176.94,120.835,184.35,111.728,184.35z"/>
			<rect x="424.802" y="247.986" width="15.059" height="16.03"/>
			<rect x="424.802" y="215.92" width="15.059" height="16.03"/>
			<rect x="424.802" y="183.864" width="15.059" height="16.03"/>
			<polygon points="64.122,416.303 64.122,471.924 215.924,471.924 215.924,456.865 79.181,456.865 79.181,416.303 			"/>
			<rect x="231.953" y="456.868" width="16.03" height="15.059"/>
			<rect x="328.142" y="32.061" width="48.091" height="15.059"/>
			<rect x="360.198" y="64.121" width="16.03" height="15.059"/>
			<rect x="328.142" y="64.121" width="16.03" height="15.059"/>
			<rect x="119.742" y="72.137" width="144.278" height="15.059"/>
		</g>
	</g>
</g>
<g>
</g>
<g>
</g>
<g>
</g>
<g>
</g>
<g>
</g>
<g>
</g>
<g>
</g>
<g>
</g>
<g>
</g>
<g>
</g>
<g>
</g>
<g>
</g>
<g>
</g>
<g>
</g>
<g>
</g>
</svg>
