<?xml version="1.0" encoding="iso-8859-1"?>
<!-- Generator: Adobe Illustrator 19.0.0, SVG Export Plug-In . SVG Version: 6.00 Build 0)  -->
<svg version="1.1" id="Capa_1" xmlns="http://www.w3.org/2000/svg" xmlns:xlink="http://www.w3.org/1999/xlink" x="0px" y="0px"
	 viewBox="0 0 512 512" style="enable-background:new 0 0 512 512;" xml:space="preserve">
<g>
	<g>
		<g>
			<polygon points="360.198,0 360.198,15.059 400.758,15.059 400.758,64.121 111.242,64.121 111.242,15.059 336.152,15.059 
				336.152,0 96.183,0 96.183,512 183.864,512 183.864,496.941 111.242,496.941 111.242,79.181 400.758,79.181 400.758,432.819 
				135.772,432.819 135.772,447.879 400.758,447.879 400.758,496.941 207.909,496.941 207.909,512 415.817,512 415.817,0 			"/>
			<rect x="175.852" y="32.061" width="160.301" height="15.059"/>
			<rect x="247.986" y="464.88" width="16.03" height="15.059"/>
			<polygon points="235.073,96.183 207.909,96.183 207.909,111.242 228.836,111.242 232.44,114.846 232.44,219.043 252.881,239.484 
				272.03,239.484 272.03,255.515 288.061,255.515 288.061,239.484 336.152,239.484 336.152,255.515 352.182,255.515 
				352.182,239.484 376.228,239.484 376.228,224.425 259.119,224.425 247.499,212.806 247.499,207.423 375.742,207.423 
				375.742,128.243 264.015,128.243 264.015,143.302 360.682,143.302 360.682,192.364 247.499,192.364 247.499,108.607 			"/>
			<rect x="207.908" y="352.668" width="16.03" height="15.059"/>
			<rect x="239.974" y="352.668" width="40.076" height="15.059"/>
			<rect x="207.908" y="384.724" width="72.137" height="15.059"/>
			<rect x="207.908" y="272.513" width="16.03" height="15.059"/>
			<rect x="239.974" y="272.513" width="40.076" height="15.059"/>
			<rect x="207.908" y="304.579" width="72.137" height="15.059"/>
			<path d="M136.258,407.803h55.135v-63.151h-55.135V407.803z M151.317,359.712h25.016v33.032h-25.016V359.712z"/>
			<path d="M136.258,327.651h55.135V264.5h-55.135V327.651z M151.317,279.559h25.016v33.032h-25.016V279.559z"/>
			<path d="M191.393,184.35h-55.135V247.5h55.135V184.35z M176.334,232.44h-25.016v-33.032h25.016V232.44z"/>
			<polygon points="368.698,400.759 336.152,400.759 336.152,415.818 383.757,415.818 383.757,376.228 368.698,376.228 			"/>
		</g>
	</g>
</g>
<g>
</g>
<g>
</g>
<g>
</g>
<g>
</g>
<g>
</g>
<g>
</g>
<g>
</g>
<g>
</g>
<g>
</g>
<g>
</g>
<g>
</g>
<g>
</g>
<g>
</g>
<g>
</g>
<g>
</g>
</svg>
