<?xml version="1.0" encoding="iso-8859-1"?>
<!-- Generator: Adobe Illustrator 19.0.0, SVG Export Plug-In . SVG Version: 6.00 Build 0)  -->
<svg version="1.1" id="Capa_1" xmlns="http://www.w3.org/2000/svg" xmlns:xlink="http://www.w3.org/1999/xlink" x="0px" y="0px"
	 viewBox="0 0 512.001 512.001" style="enable-background:new 0 0 512.001 512.001;" xml:space="preserve">
<g>
	<g>
		<g>
			<path d="M437.017,74.984C388.663,26.63,324.377,0,255.999,0c-53.697,0-105.101,16.446-148.652,47.561l8.755,12.253
				c40.981-29.279,89.358-44.755,139.897-44.755c132.855,0,240.94,108.085,240.94,240.941c0,132.855-108.085,240.94-240.94,240.94
				s-240.94-108.085-240.94-240.94c0-71.068,31.163-138.167,85.497-184.094l-9.722-11.501C33.108,109.2,0,180.492,0,256.001
				c0,68.377,26.629,132.663,74.983,181.016S187.623,512,256,512s132.663-26.63,181.017-74.983
				c48.353-48.353,74.983-112.639,74.983-181.016S485.37,123.338,437.017,74.984z"/>
			<path d="M437.978,372.274c22.207-34.688,33.947-74.894,33.947-116.273c0-57.678-22.459-111.901-63.241-152.684
				C367.902,62.535,313.677,40.076,256,40.076s-111.902,22.459-152.684,63.241c-40.782,40.781-63.241,95.006-63.241,152.684
				s22.459,111.901,63.241,152.684c40.781,40.781,95.006,63.241,152.683,63.241c64.361,0,124.901-28.408,166.094-77.941
				l-11.579-9.629c-36.711,44.144-89.941,70.235-146.985,72.353V263.531h193.193c-1.328,35.83-12.124,70.471-31.428,100.623
				L437.978,372.274z M248.47,456.71c-104.78-3.882-189.297-88.399-193.179-193.179H248.47V456.71z M263.529,248.471V135.773H248.47
				V248.47H55.291C59.173,143.69,143.689,59.173,248.47,55.291v56.436h15.059V55.291c104.78,3.882,189.297,88.399,193.179,193.18
				H263.529z"/>
			<path d="M191.878,151.318c12.991,0,23.561-10.569,23.561-23.56s-10.569-23.56-23.561-23.56c-12.99,0-23.56,10.569-23.56,23.56
				S178.888,151.318,191.878,151.318z M191.878,119.257c4.687,0,8.501,3.813,8.501,8.5c0,4.687-3.814,8.5-8.501,8.5
				c-4.688,0-8.5-3.813-8.5-8.5C183.378,123.07,187.191,119.257,191.878,119.257z"/>
			<path d="M335.666,119.743c0-12.991-10.569-23.56-23.56-23.56c-12.991,0-23.561,10.569-23.561,23.56
				c0,12.991,10.57,23.56,23.561,23.56C325.096,143.302,335.666,132.734,335.666,119.743z M303.605,119.743
				c0-4.687,3.814-8.5,8.501-8.5s8.5,3.813,8.5,8.5c0,4.688-3.813,8.5-8.5,8.5C307.419,128.243,303.605,124.43,303.605,119.743z"/>
			<path d="M288.546,384.243c0,12.991,10.569,23.56,23.561,23.56c12.99,0,23.56-10.569,23.56-23.56
				c0-12.991-10.569-23.56-23.56-23.56C299.115,360.683,288.546,371.253,288.546,384.243z M320.607,384.243
				c0,4.687-3.813,8.5-8.5,8.5c-4.688,0-8.501-3.813-8.501-8.5c0-4.688,3.814-8.5,8.501-8.5
				C316.794,375.742,320.607,379.556,320.607,384.243z"/>
			<path d="M191.878,415.819c12.991,0,23.561-10.569,23.561-23.56c0-12.991-10.569-23.56-23.561-23.56
				c-12.99,0-23.56,10.569-23.56,23.56C168.318,405.25,178.888,415.819,191.878,415.819z M191.878,383.758
				c4.687,0,8.501,3.813,8.501,8.5c0,4.688-3.814,8.5-8.501,8.5c-4.688,0-8.5-3.813-8.5-8.5
				C183.378,387.571,187.191,383.758,191.878,383.758z"/>
			<rect x="103.708" y="200.379" width="16.03" height="15.059"/>
			<rect x="119.741" y="184.346" width="16.03" height="15.059"/>
			<rect x="95.697" y="296.558" width="16.031" height="15.059"/>
			<rect x="111.73" y="312.591" width="16.03" height="15.059"/>
			<rect x="392.254" y="344.657" width="16.031" height="15.059"/>
			<rect x="376.231" y="360.68" width="16.03" height="15.059"/>
			<rect x="376.231" y="168.323" width="16.03" height="15.059"/>
			<rect x="360.198" y="152.29" width="16.031" height="15.059"/>
			<polygon points="191.866,197.26 181.175,186.558 170.522,197.201 191.858,218.56 207.9,202.525 218.616,213.236 229.262,202.584 
				207.9,181.234 			"/>
			<polygon points="207.9,330.767 218.616,341.477 229.262,330.826 207.9,309.475 191.866,325.503 181.175,314.8 170.522,325.443 
				191.858,346.802 			"/>
			<polygon points="360.189,306.722 370.906,317.433 381.551,306.781 360.189,285.431 344.153,301.457 333.463,290.755 
				322.809,301.398 344.145,322.757 			"/>
			<polygon points="328.123,205.274 317.433,194.573 306.78,205.215 328.115,226.574 344.158,210.54 354.875,221.25 365.52,210.599 
				344.158,189.248 			"/>
		</g>
	</g>
</g>
<g>
</g>
<g>
</g>
<g>
</g>
<g>
</g>
<g>
</g>
<g>
</g>
<g>
</g>
<g>
</g>
<g>
</g>
<g>
</g>
<g>
</g>
<g>
</g>
<g>
</g>
<g>
</g>
<g>
</g>
</svg>
