<?xml version="1.0" encoding="iso-8859-1"?>
<!-- Generator: Adobe Illustrator 19.0.0, SVG Export Plug-In . SVG Version: 6.00 Build 0)  -->
<svg version="1.1" id="Capa_1" xmlns="http://www.w3.org/2000/svg" xmlns:xlink="http://www.w3.org/1999/xlink" x="0px" y="0px"
	 viewBox="0 0 512 512" style="enable-background:new 0 0 512 512;" xml:space="preserve">
<g>
	<g>
		<g>
			<path d="M408.288,80.151h-64.121c-11.415,0-18.716,7.013-24.544,13.184c-7.882-6.123-20.024-13.184-31.562-13.184H263.53V31.575
				c0-1.691,0.464-16.516,16.516-16.516h64.121V0h-64.121c-23.166,0-31.575,18.883-31.575,31.575v48.576h-24.531
				c-11.538,0-23.68,7.062-31.562,13.184c-5.829-6.171-13.129-13.184-24.543-13.184h-64.121c-26.249,0-47.606,21.355-47.606,47.605
				v24.046h15.059v-24.046c0-17.946,14.6-32.546,32.547-32.546h64.121c5.393,0,9.111,3.675,14.729,9.673
				c0.584,0.623,1.181,1.258,1.786,1.893v221.359h15.059V107.017c6.952-6.008,17.457-11.807,24.532-11.807h64.121
				c7.879,0,20.028,7.192,26.766,13.855l5.294,5.236l5.294-5.236c1.406-1.391,2.737-2.81,4.023-4.183
				c5.618-5.997,9.335-9.671,14.729-9.671h64.121c17.946,0,32.546,14.599,32.546,32.546v192.364h15.059V127.757
				C455.894,101.507,434.539,80.151,408.288,80.151z"/>
			<path d="M440.833,464.395h0.001c0,17.946-14.6,32.546-32.546,32.546h-64.121c-5.394,0-9.111-3.675-14.729-9.671
				c-0.584-0.624-1.182-1.259-1.787-1.895V264.015h-15.059v221.12c-6.952,6.008-17.457,11.806-24.532,11.806h-64.121
				c-7.879,0-20.028-7.192-26.766-13.854l-5.294-5.236l-5.294,5.236c-1.406,1.389-2.736,2.809-4.022,4.181
				c-5.618,5.998-9.336,9.673-14.729,9.673h-64.121c-17.947,0-32.547-14.6-32.547-32.546V175.848H56.106v288.547
				c0,26.249,21.356,47.605,47.606,47.605h64.121c11.414,0,18.715-7.013,24.543-13.184C200.26,504.939,212.4,512,223.939,512h64.121
				c11.538,0,23.681-7.062,31.562-13.184c5.829,6.171,13.129,13.184,24.544,13.184h64.121c26.249,0,47.605-21.356,47.605-47.605
				V344.167h-15.059V464.395z"/>
			<rect x="184.345" y="376.231" width="15.059" height="16.03"/>
			<rect x="184.345" y="344.164" width="15.059" height="16.03"/>
			<rect x="184.345" y="408.287" width="15.059" height="16.03"/>
			<rect x="312.59" y="199.897" width="15.059" height="16.031"/>
			<rect x="312.59" y="231.953" width="15.059" height="16.03"/>
			<rect x="312.59" y="167.83" width="15.059" height="16.03"/>
		</g>
	</g>
</g>
<g>
</g>
<g>
</g>
<g>
</g>
<g>
</g>
<g>
</g>
<g>
</g>
<g>
</g>
<g>
</g>
<g>
</g>
<g>
</g>
<g>
</g>
<g>
</g>
<g>
</g>
<g>
</g>
<g>
</g>
</svg>
