<?xml version="1.0" encoding="iso-8859-1"?>
<!-- Generator: Adobe Illustrator 19.0.0, SVG Export Plug-In . SVG Version: 6.00 Build 0)  -->
<svg version="1.1" id="Capa_1" xmlns="http://www.w3.org/2000/svg" xmlns:xlink="http://www.w3.org/1999/xlink" x="0px" y="0px"
	 viewBox="0 0 512 512" style="enable-background:new 0 0 512 512;" xml:space="preserve">
<g>
	<g>
		<g>
			<path d="M167.833,0v15.059h232.926v361.653H39.591v15.059h361.168V496.94h-385.7V63.151h361.168V48.091H15.059V15.059h128.729V0
				H0v512h512V231.955h-15.059v254.338l-40.562-40.561l-40.561,40.561V25.708l33.031,33.032V256h15.059V58.739l33.032-33.032
				v174.185H512V0H167.833z M456.379,467.028l29.913,29.913h-59.825L456.379,467.028z M456.379,44.972l-29.913-29.913h59.825
				L456.379,44.972z"/>
			<rect x="448.846" y="272.031" width="15.059" height="16.03"/>
			<rect x="448.846" y="304.087" width="15.059" height="16.031"/>
			<rect x="448.846" y="336.153" width="15.059" height="16.03"/>
			<rect x="448.846" y="368.209" width="15.059" height="16.03"/>
			<path d="M40.076,416.789v55.135h191.393v-55.135H40.076z M216.41,456.865H55.135v-25.016H216.41V456.865z"/>
			<rect x="247.986" y="416.79" width="104.2" height="15.059"/>
			<rect x="247.986" y="448.846" width="16.03" height="15.059"/>
			<rect x="280.042" y="448.846" width="16.03" height="15.059"/>
			<rect x="312.108" y="448.846" width="16.03" height="15.059"/>
			<polygon points="47.12,135.772 47.12,95.211 87.681,95.211 87.681,80.151 32.061,80.151 32.061,135.772 			"/>
			<path d="M303.607,167.833L303.607,167.833c-0.001-12.99-10.57-23.56-23.561-23.56h-0.928
				c-3.736-31.554-30.651-56.107-63.194-56.107c-32.543,0-59.458,24.553-63.193,56.107h-32.989c-12.99,0-23.56,10.569-23.56,23.56
				v16.03c0,6.185,2.396,11.823,6.309,16.03c-3.912,4.208-6.309,9.845-6.309,16.03v16.03c0,6.187,2.401,11.823,6.316,16.03
				c-3.914,4.209-6.316,9.843-6.316,16.03v16.03c0,6.187,2.401,11.823,6.316,16.03c-3.914,4.209-6.316,9.843-6.316,16.03v16.03
				c0,12.991,10.569,23.56,23.56,23.56h160.304c12.991,0,23.56-10.569,23.56-23.56v-16.03c0-6.187-2.401-11.823-6.316-16.03
				c3.914-4.208,6.316-9.843,6.316-16.03v-16.03c0-6.187-2.401-11.823-6.316-16.03c3.914-4.209,6.316-9.843,6.316-16.03v-16.03
				c0-6.185-2.396-11.823-6.31-16.03c3.912-4.208,6.31-9.845,6.31-16.03V167.833z M215.924,103.226
				c24.224,0,44.362,17.825,47.991,41.048h-15.444v32.06h-16.516c-0.146,0-0.261-0.007-0.349-0.016
				c-0.057-0.167-0.107-0.383-0.13-0.564l0.445-7.434h-24.496v-16.516h-15.059v32.06c0,0.147-0.007,0.261-0.016,0.35
				c-0.183,0.063-0.427,0.118-0.617,0.136h-23.898c-0.146,0-0.261-0.007-0.349-0.016c-0.063-0.183-0.118-0.427-0.136-0.617v-31.913
				h-0.001C167.348,125.018,189.139,103.226,215.924,103.226z M191.879,184.35h-0.117C191.837,184.348,191.88,184.35,191.879,184.35
				z M167.348,183.746c0.002,0.076,0,0.117,0,0.117V183.746z M111.242,215.924c0-4.687,3.813-8.5,8.5-8.5h24.046v-15.059h-24.046
				c-4.686,0-8.5-3.813-8.5-8.5v-16.03c0-4.686,3.813-8.5,8.5-8.5h32.546v24.531c0,7.536,5.448,15.545,15.544,15.545h24.046
				c7.536,0,15.544-5.448,15.544-15.545v-0.485h10.852c2.385,4.533,7.023,8.015,13.68,8.015h31.575v-32.06h0.971h7.53h8.015
				c4.688,0,8.5,3.813,8.5,8.5v16.03c0,4.687-3.813,8.5-8.5,8.5v15.059c4.688,0,8.5,3.813,8.5,8.5v16.03c0,4.688-3.813,8.5-8.5,8.5
				H135.772h-16.03c-4.686,0-8.5-3.813-8.5-8.5V215.924z M288.547,328.136c0,4.687-3.813,8.5-8.5,8.5H119.742
				c-4.686,0-8.5-3.813-8.5-8.5v-16.03c0-4.688,3.813-8.5,8.5-8.5h160.304c4.687,0,8.5,3.813,8.5,8.5V328.136z M288.547,280.045
				c0,4.687-3.813,8.5-8.5,8.5H119.742c-4.686,0-8.5-3.813-8.5-8.5v-16.03c0-4.687,3.813-8.501,8.5-8.501h16.03h144.274
				c4.686,0,8.5,3.813,8.5,8.501V280.045z"/>
		</g>
	</g>
</g>
<g>
</g>
<g>
</g>
<g>
</g>
<g>
</g>
<g>
</g>
<g>
</g>
<g>
</g>
<g>
</g>
<g>
</g>
<g>
</g>
<g>
</g>
<g>
</g>
<g>
</g>
<g>
</g>
<g>
</g>
</svg>
