<?xml version="1.0" encoding="iso-8859-1"?>
<!-- Generator: Adobe Illustrator 19.0.0, SVG Export Plug-In . SVG Version: 6.00 Build 0)  -->
<svg version="1.1" id="Capa_1" xmlns="http://www.w3.org/2000/svg" xmlns:xlink="http://www.w3.org/1999/xlink" x="0px" y="0px"
	 viewBox="0 0 512 512" style="enable-background:new 0 0 512 512;" xml:space="preserve">
<g>
	<g>
		<g>
			<polygon points="295.59,32.061 295.59,0 216.41,0 216.41,32.061 135.772,32.061 135.772,47.12 255.999,47.12 255.999,32.061 
				231.469,32.061 231.469,15.059 280.531,15.059 280.531,47.12 496.941,47.12 496.941,336.638 416.303,336.638 416.303,351.697 
				512,351.697 512,32.061 			"/>
			<path d="M15.059,47.12h96.667V32.061H0v319.636h224.425v25.016h-16.516v15.059h16.516V512h63.151V391.773h16.516v-15.059h-16.516
				v-25.016h104.683v-15.059H15.059V47.12z M239.484,351.697h33.032v25.016h-33.032V351.697z M239.484,391.773h33.032v105.168
				h-33.032V391.773z"/>
			<rect x="31.575" y="64.121" width="16.03" height="15.059"/>
			<rect x="63.63" y="64.121" width="16.03" height="15.059"/>
			<rect x="31.575" y="96.179" width="16.03" height="15.059"/>
			<rect x="464.398" y="304.579" width="16.03" height="15.059"/>
			<rect x="464.398" y="272.513" width="16.03" height="15.059"/>
			<path d="M160.303,112.213v143.302h71.166V112.213H160.303z M216.41,240.455h-41.048V127.272h41.048V240.455z"/>
			<path d="M256.486,112.213v143.302h71.165V112.213H256.486z M312.592,240.455h-41.047V127.272h41.047V240.455z"/>
			<path d="M431.849,243.089v-118.45l-12.426-12.426h-66.755v143.302h66.755L431.849,243.089z M416.789,236.851l-3.604,3.604
				h-45.458V127.272h45.458l3.604,3.604V236.851z"/>
			<polygon points="135.772,127.272 135.772,112.213 80.152,112.213 80.152,256 95.212,256 95.212,191.393 135.772,191.393 
				135.772,176.334 95.212,176.334 95.212,127.272 			"/>
		</g>
	</g>
</g>
<g>
</g>
<g>
</g>
<g>
</g>
<g>
</g>
<g>
</g>
<g>
</g>
<g>
</g>
<g>
</g>
<g>
</g>
<g>
</g>
<g>
</g>
<g>
</g>
<g>
</g>
<g>
</g>
<g>
</g>
</svg>
