<?xml version="1.0" encoding="iso-8859-1"?>
<!-- Generator: Adobe Illustrator 19.0.0, SVG Export Plug-In . SVG Version: 6.00 Build 0)  -->
<svg version="1.1" id="Capa_1" xmlns="http://www.w3.org/2000/svg" xmlns:xlink="http://www.w3.org/1999/xlink" x="0px" y="0px"
	 viewBox="0 0 512.001 512.001" style="enable-background:new 0 0 512.001 512.001;" xml:space="preserve">
<g>
	<g>
		<g>
			<path d="M479.94,408.289V116.624l-28.457-28.457h-51.695V55.135h32.061V0H288.547v55.135h32.061v33.032h-51.695l-28.457,28.456
				v99.787H32.061v47.12h16.03v56.592h15.059V263.53h104.683v-15.059H47.12v-17.002h193.335v265.472H63.151V344.167H48.091v167.833
				H479.94v-79.667h-15.059v64.607H255.515V367.727h209.366v40.562H479.94z M303.606,40.076V15.059h113.182v25.016h-32.061v48.091
				h-49.061V55.135h32.546V40.076H303.606z M255.515,352.668V207.423h128.728v-15.059H255.515v-69.504l19.635-19.634h170.096
				l19.635,19.634v69.504H408.29v15.059h56.592v145.245H255.515z"/>
			<polygon points="272.515,440.349 272.515,479.94 336.152,479.94 336.152,464.881 287.575,464.881 287.575,440.349 			"/>
			<rect x="352.186" y="464.88" width="16.031" height="15.059"/>
			<rect x="288.064" y="152.289" width="144.278" height="15.059"/>
			<rect x="183.864" y="248.468" width="16.03" height="15.059"/>
			<path d="M360.197,232.44c-26.249,0-47.605,21.355-47.605,47.605c0,26.25,21.355,47.605,47.605,47.605
				c26.25,0,47.606-21.356,47.606-47.605C407.803,253.796,386.447,232.44,360.197,232.44z M360.197,312.592
				c-17.946,0-32.546-14.6-32.546-32.546s14.6-32.546,32.546-32.546c17.947,0,32.547,14.599,32.547,32.546
				S378.143,312.592,360.197,312.592z"/>
			<path d="M96.183,368.213c0,30.67,24.951,55.621,55.621,55.621c30.669,0,55.62-24.951,55.62-55.621s-24.951-55.621-55.62-55.621
				C121.134,312.592,96.183,337.543,96.183,368.213z M192.364,368.213c0,22.366-18.196,40.562-40.561,40.562
				c-22.366,0-40.562-18.196-40.562-40.562s18.196-40.562,40.562-40.562C174.168,327.651,192.364,345.847,192.364,368.213z"/>
			<rect x="87.685" y="448.846" width="128.245" height="15.059"/>
		</g>
	</g>
</g>
<g>
</g>
<g>
</g>
<g>
</g>
<g>
</g>
<g>
</g>
<g>
</g>
<g>
</g>
<g>
</g>
<g>
</g>
<g>
</g>
<g>
</g>
<g>
</g>
<g>
</g>
<g>
</g>
<g>
</g>
</svg>
