<?xml version="1.0" encoding="iso-8859-1"?>
<!-- Generator: Adobe Illustrator 19.0.0, SVG Export Plug-In . SVG Version: 6.00 Build 0)  -->
<svg version="1.1" id="Capa_1" xmlns="http://www.w3.org/2000/svg" xmlns:xlink="http://www.w3.org/1999/xlink" x="0px" y="0px"
	 viewBox="0 0 512.001 512.001" style="enable-background:new 0 0 512.001 512.001;" xml:space="preserve">
<g>
	<g>
		<g>
			<path d="M304.092,0H207.91c-43.928,0-79.667,35.738-79.667,79.667v16.03h15.059v-16.03c0-35.624,28.982-64.607,64.607-64.607
				h96.182c35.624,0,64.607,28.983,64.607,64.607V239.97c0,35.624-28.982,64.607-64.607,64.607H207.91
				c-35.624,0-64.607-28.983-64.607-64.607V119.742h-15.059v120.227c0,43.928,35.739,79.667,79.667,79.667h16.516v113.188
				c-0.161-0.002-0.322-0.004-0.485-0.004c-21.83,0-39.591,17.76-39.591,39.591c0,21.831,17.76,39.591,39.591,39.591
				c13.175,0,24.86-6.475,32.061-16.404c7.2,9.929,18.885,16.404,32.061,16.404c21.83,0,39.591-17.76,39.591-39.591
				c0-21.831-17.76-39.591-39.591-39.591c-0.163,0-0.325,0.001-0.486,0.004v-56.596h-15.059v74.888l9.356-2.339
				c2.482-0.62,4.391-0.898,6.189-0.898c13.527,0,24.532,11.004,24.532,24.532s-11.004,24.532-24.532,24.532
				s-24.532-11.004-24.532-24.532c0-4.225,1.145-8.354,3.402-12.27l-13.047-7.52c-3.541,6.145-5.414,12.989-5.414,19.79
				c0,13.526-11.004,24.531-24.532,24.531c-13.527,0-24.531-11.004-24.531-24.531c0-13.527,11.004-24.532,24.531-24.532
				c1.798,0,3.707,0.277,6.188,0.898l9.356,2.339V319.636h33.031v32.546h15.059v-32.546h16.516
				c43.928,0,79.667-35.738,79.667-79.667V79.667C383.758,35.738,348.019,0,304.092,0z"/>
			<path d="M202.846,52.548c10.302-5.293,21.014-5.427,21.12-5.427l-0.025-15.059c-0.564,0-13.955,0.077-27.414,6.806
				c-12.868,6.434-28.208,20.126-28.208,48.815h15.059C183.378,71.005,189.928,59.184,202.846,52.548z"/>
			<rect x="168.323" y="103.708" width="15.059" height="16.03"/>
			<rect x="328.624" y="111.73" width="15.059" height="16.03"/>
			<rect x="312.591" y="127.753" width="15.059" height="16.03"/>
			<rect x="232.445" y="215.92" width="15.059" height="16.03"/>
			<rect x="248.468" y="199.897" width="15.059" height="16.03"/>
			<rect x="248.468" y="71.652" width="15.059" height="16.03"/>
			<rect x="176.334" y="167.83" width="15.059" height="16.03"/>
		</g>
	</g>
</g>
<g>
</g>
<g>
</g>
<g>
</g>
<g>
</g>
<g>
</g>
<g>
</g>
<g>
</g>
<g>
</g>
<g>
</g>
<g>
</g>
<g>
</g>
<g>
</g>
<g>
</g>
<g>
</g>
<g>
</g>
</svg>
