<?xml version="1.0" encoding="iso-8859-1"?>
<!-- Generator: Adobe Illustrator 19.0.0, SVG Export Plug-In . SVG Version: 6.00 Build 0)  -->
<svg version="1.1" id="Capa_1" xmlns="http://www.w3.org/2000/svg" xmlns:xlink="http://www.w3.org/1999/xlink" x="0px" y="0px"
	 viewBox="0 0 512 512" style="enable-background:new 0 0 512 512;" xml:space="preserve">
<g>
	<g>
		<g>
			<polygon points="224.425,448.849 193.839,448.849 216.409,482.705 216.409,496.941 167.833,496.941 167.833,512 231.468,512 
				231.468,478.145 221.978,463.909 239.484,463.909 239.484,135.772 224.425,135.772 			"/>
			<polygon points="231.468,33.855 231.468,0 104.197,0 104.197,33.855 113.687,48.091 96.182,48.091 96.182,463.909 
				113.687,463.909 104.197,478.145 104.197,512 143.787,512 143.787,496.941 119.256,496.941 119.256,482.705 131.786,463.909 
				167.833,463.909 167.833,448.849 111.241,448.849 111.241,63.151 141.827,63.151 119.256,29.295 119.256,15.059 216.409,15.059 
				216.409,29.295 203.879,48.091 167.833,48.091 167.833,63.151 224.425,63.151 224.425,111.728 239.484,111.728 239.484,48.091 
				221.978,48.091 			"/>
			<polygon points="287.574,63.151 318.161,63.151 295.59,29.295 295.59,15.059 328.136,15.059 328.136,0 280.531,0 280.531,33.855 
				290.021,48.091 272.515,48.091 272.515,320.122 287.574,320.122 			"/>
			<polygon points="415.818,48.091 398.312,48.091 407.802,33.855 407.802,0 352.181,0 352.181,15.059 392.743,15.059 
				392.743,29.295 380.213,48.091 344.167,48.091 344.167,63.151 400.759,63.151 400.759,448.849 370.173,448.849 392.743,482.705 
				392.743,496.941 295.59,496.941 295.59,482.705 308.121,463.909 344.167,463.909 344.167,448.849 287.574,448.849 
				287.574,344.167 272.515,344.167 272.515,463.909 290.021,463.909 280.531,478.145 280.531,512 407.802,512 407.802,478.145 
				398.312,463.909 415.818,463.909 			"/>
			<polygon points="336.151,80.151 304.576,80.151 304.576,344.167 319.635,344.167 319.635,95.211 336.151,95.211 			"/>
			<rect x="304.578" y="360.198" width="15.059" height="16.03"/>
			<rect x="304.578" y="392.254" width="15.059" height="16.03"/>
			<polygon points="159.817,80.151 128.242,80.151 128.242,344.167 143.301,344.167 143.301,95.211 159.817,95.211 			"/>
			<rect x="128.244" y="360.198" width="15.059" height="16.03"/>
			<rect x="128.244" y="392.254" width="15.059" height="16.03"/>
		</g>
	</g>
</g>
<g>
</g>
<g>
</g>
<g>
</g>
<g>
</g>
<g>
</g>
<g>
</g>
<g>
</g>
<g>
</g>
<g>
</g>
<g>
</g>
<g>
</g>
<g>
</g>
<g>
</g>
<g>
</g>
<g>
</g>
</svg>
