<?xml version="1.0" encoding="iso-8859-1"?>
<!-- Generator: Adobe Illustrator 19.0.0, SVG Export Plug-In . SVG Version: 6.00 Build 0)  -->
<svg version="1.1" id="Capa_1" xmlns="http://www.w3.org/2000/svg" xmlns:xlink="http://www.w3.org/1999/xlink" x="0px" y="0px"
	 viewBox="0 0 512.001 512.001" style="enable-background:new 0 0 512.001 512.001;" xml:space="preserve">
<g>
	<g>
		<g>
			<path d="M15.059,95.697c0-35.624,28.982-64.607,64.607-64.607h208.395V16.031H79.667C35.739,16.031,0,51.769,0,95.697v40.076
				h15.059V95.697z"/>
			<path d="M432.334,16.031H312.106V31.09h120.228c35.624,0,64.607,28.983,64.607,64.607v232.44
				c0,35.624-28.982,64.607-64.607,64.607H207.909c-35.624,0-64.607-28.982-64.607-64.607v-8.5h96.667v-15.059H79.667
				c-35.625,0-64.607-28.983-64.607-64.607v-80.151H0v168.318c0,43.928,35.739,79.667,79.667,79.667h48.577v8.5
				c0,43.928,35.739,79.667,79.667,79.667h88.167v-15.059H207.91c-35.624,0-64.607-28.983-64.607-64.607v-23.56H79.667
				c-35.625,0-64.607-28.983-64.607-64.607v-41.639c14.482,20.052,38.038,33.138,64.607,33.138h48.577v8.5
				c0,43.928,35.739,79.667,79.667,79.667h224.425c26.569,0,50.125-13.086,64.607-33.138v41.639
				c0,35.624-28.982,64.607-64.607,64.607H320.122v15.059h112.213c43.928,0,79.667-35.739,79.667-79.667v-88.167V95.697
				C512,51.769,476.262,16.031,432.334,16.031z"/>
			<rect x="255.997" y="304.579" width="16.03" height="15.059"/>
			<rect x="288.064" y="304.579" width="16.03" height="15.059"/>
			<path d="M392.258,440.835H199.894c-7.22,0-8.426-5.377-8.501-8.583l-7.529,0.083h-7.53c0,9.47,6.275,23.56,23.56,23.56h192.364
				V440.835z"/>
			<rect x="408.287" y="440.835" width="16.031" height="15.059"/>
			<path d="M463.911,103.713h-0.001c0-24.549-13.16-36.281-24.2-41.8c-11.477-5.739-22.924-5.805-23.405-5.805h-32.06v15.059h32.06
				c1.328,0,32.547,0.37,32.547,32.546v40.076h15.059V103.713z"/>
			<path d="M56.107,167.834c0,39.508,32.143,71.651,71.651,71.651s71.651-32.142,71.651-71.651s-32.143-71.651-71.651-71.651
				S56.107,128.325,56.107,167.834z M184.35,167.834c0,31.205-25.387,56.592-56.592,56.592c-31.205,0-56.592-25.387-56.592-56.592
				c0-31.205,25.387-56.592,56.592-56.592C158.963,111.242,184.35,136.629,184.35,167.834z"/>
			<path d="M96.183,167.834c0,17.41,14.165,31.575,31.575,31.575s31.575-14.165,31.575-31.575s-14.165-31.575-31.575-31.575
				S96.183,150.423,96.183,167.834z M144.274,167.834c0,9.107-7.409,16.516-16.516,16.516c-9.107,0-16.516-7.409-16.516-16.516
				c0-9.107,7.409-16.516,16.516-16.516C136.865,151.318,144.274,158.727,144.274,167.834z"/>
			<rect x="448.846" y="159.819" width="15.059" height="16.03"/>
		</g>
	</g>
</g>
<g>
</g>
<g>
</g>
<g>
</g>
<g>
</g>
<g>
</g>
<g>
</g>
<g>
</g>
<g>
</g>
<g>
</g>
<g>
</g>
<g>
</g>
<g>
</g>
<g>
</g>
<g>
</g>
<g>
</g>
</svg>
