<?xml version="1.0" encoding="iso-8859-1"?>
<!-- Generator: Adobe Illustrator 19.0.0, SVG Export Plug-In . SVG Version: 6.00 Build 0)  -->
<svg version="1.1" id="Capa_1" xmlns="http://www.w3.org/2000/svg" xmlns:xlink="http://www.w3.org/1999/xlink" x="0px" y="0px"
	 viewBox="0 0 512 512" style="enable-background:new 0 0 512 512;" xml:space="preserve">
<g>
	<g>
		<g>
			<path d="M472.409,72.137H296.561v7.53c0,26.785-21.792,48.576-48.576,48.576s-48.576-21.792-48.576-48.576v-7.53H87.681v15.059
				h97.111c3.736,31.554,30.651,56.106,63.193,56.106c32.542,0,59.458-24.552,63.193-56.106h161.232
				c13.526,0,24.532,11.004,24.532,24.532v88.167H512v-88.167C512,89.897,494.239,72.137,472.409,72.137z"/>
			<path d="M496.94,365.602c-7.716-3.24-16.018-4.92-24.531-4.92c-35.089,0-63.635,28.547-63.635,63.635
				c0,0.162,0,0.323,0.002,0.486h-80.639v15.059H425.7l-1.311-8.657c-0.374-2.473-0.556-4.727-0.556-6.888
				c0-26.785,21.792-48.576,48.576-48.576c9.973,0,19.567,3.023,27.746,8.741l11.844,8.281V223.939H496.94V365.602z"/>
			<path d="M15.059,400.273V375.3c31.554-3.736,56.106-30.651,56.106-63.193c0-32.542-24.552-59.459-56.106-63.195V111.727
				c0-13.526,11.004-24.532,24.532-24.532h24.046V72.136H39.591C17.76,72.137,0,89.897,0,111.727v151.802h7.53
				c26.785,0,48.576,21.792,48.576,48.577S34.314,360.682,7.53,360.682H0v39.591c0,21.83,17.76,39.591,39.591,39.591h264.5v-15.059
				h-264.5C26.064,424.804,15.059,413.799,15.059,400.273z"/>
			<path d="M88.167,215.924c0,21.83,17.76,39.591,39.591,39.591s39.591-17.76,39.591-39.591c0-21.831-17.76-39.591-39.591-39.591
				S88.167,194.094,88.167,215.924z M127.757,191.393c13.526,0,24.532,11.004,24.532,24.532s-11.004,24.532-24.532,24.532
				c-13.527,0-24.531-11.004-24.531-24.532S114.231,191.393,127.757,191.393z"/>
			<path d="M376.228,335.666c17.411,0,31.575-14.165,31.575-31.575s-14.165-31.575-31.575-31.575s-31.575,14.165-31.575,31.575
				C344.652,321.501,358.817,335.666,376.228,335.666z M376.228,287.575c9.107,0,16.516,7.409,16.516,16.516
				c0,9.107-7.409,16.516-16.516,16.516s-16.516-7.409-16.516-16.516S367.121,287.575,376.228,287.575z"/>
			<path d="M176.334,336.152c0,21.83,17.76,39.591,39.591,39.591c21.831,0,39.591-17.76,39.591-39.591
				c0-21.831-17.76-39.591-39.591-39.591C194.094,296.561,176.334,314.321,176.334,336.152z M215.924,311.62
				c13.526,0,24.532,11.004,24.532,24.532c0,13.527-11.004,24.531-24.532,24.531c-13.527,0-24.531-11.004-24.531-24.531
				C191.392,322.625,202.398,311.62,215.924,311.62z"/>
			<path d="M400.273,223.453c26.249,0,47.605-21.355,47.605-47.605s-21.355-47.605-47.605-47.605s-47.605,21.356-47.605,47.605
				C352.668,202.097,374.023,223.453,400.273,223.453z M400.273,143.302c17.946,0,32.546,14.6,32.546,32.546
				s-14.599,32.546-32.546,32.546c-17.947,0-32.546-14.599-32.546-32.546S382.327,143.302,400.273,143.302z"/>
			<path d="M40.076,135.772v64.121h15.059v-64.121c0-7.221,5.378-8.426,8.5-8.5h32.061v-15.059H63.635
				C54.165,112.213,40.076,118.486,40.076,135.772z"/>
			<rect x="111.73" y="112.212" width="16.03" height="15.059"/>
			<rect x="280.042" y="224.423" width="16.03" height="15.059"/>
			<rect x="264.019" y="240.456" width="16.03" height="15.059"/>
			<rect x="199.897" y="160.301" width="16.03" height="15.059"/>
			<rect x="199.897" y="192.367" width="16.03" height="15.059"/>
			<rect x="71.652" y="384.724" width="16.03" height="15.059"/>
			<rect x="87.685" y="368.701" width="16.03" height="15.059"/>
			<rect x="312.108" y="368.701" width="16.03" height="15.059"/>
			<rect x="448.365" y="240.456" width="16.03" height="15.059"/>
		</g>
	</g>
</g>
<g>
</g>
<g>
</g>
<g>
</g>
<g>
</g>
<g>
</g>
<g>
</g>
<g>
</g>
<g>
</g>
<g>
</g>
<g>
</g>
<g>
</g>
<g>
</g>
<g>
</g>
<g>
</g>
<g>
</g>
</svg>
