<?xml version="1.0" encoding="iso-8859-1"?>
<!-- Generator: Adobe Illustrator 19.0.0, SVG Export Plug-In . SVG Version: 6.00 Build 0)  -->
<svg version="1.1" id="Capa_1" xmlns="http://www.w3.org/2000/svg" xmlns:xlink="http://www.w3.org/1999/xlink" x="0px" y="0px"
	 viewBox="0 0 512 512" style="enable-background:new 0 0 512 512;" xml:space="preserve">
<g>
	<g>
		<g>
			<path d="M441.013,256V141.974h-26.62V106.48h-35.494V86.079h36.821c9.054,0,16.419-7.366,16.419-16.418V16.419
				C432.139,7.366,424.774,0,415.72,0H264.873v15.091H415.72c0.707,0,1.328,0.621,1.328,1.328v53.24
				c0,0.707-0.621,1.327-1.328,1.327H96.279c-0.707,0-1.327-0.621-1.327-1.327v-53.24c0-0.707,0.621-1.328,1.327-1.328h141.974V0
				H96.279c-9.054,0-16.418,7.366-16.418,16.419v53.24c0,9.054,7.366,16.418,16.418,16.418h36.822v20.402H97.607v35.494h-26.62
				v334.533h26.62V512h316.786v-35.494h26.62V282.621h-15.091v125.554H114.025v15.091h311.896v38.149h-26.62v35.494H112.697v-35.494
				H86.078V210.306h339.844V256H441.013z M148.191,86.079h215.617v20.402H148.191V86.079z M86.078,195.215v-38.149h26.62v-35.494
				h286.604v35.494h26.62v38.149H86.078z"/>
			<rect x="140.64" y="141.979" width="230.706" height="15.091"/>
			<rect x="140.64" y="461.411" width="230.706" height="15.091"/>
			<path d="M204.087,309.241c0,28.624,23.288,51.912,51.913,51.912c28.625,0,51.913-23.288,51.913-51.912
				c0-28.625-23.288-51.913-51.913-51.913C227.375,257.328,204.087,280.615,204.087,309.241z M292.821,309.241
				c0,20.303-16.518,36.821-36.822,36.821c-20.304,0-36.822-16.518-36.822-36.821c0-20.304,16.518-36.822,36.822-36.822
				C276.303,272.419,292.821,288.937,292.821,309.241z"/>
			<polygon points="140.645,230.708 106.48,230.708 106.48,273.747 121.571,273.747 121.571,245.8 140.645,245.8 			"/>
			<rect x="106.484" y="291.493" width="15.091" height="17.747"/>
			<rect x="390.431" y="371.356" width="15.091" height="17.746"/>
			<rect x="390.431" y="335.862" width="15.091" height="17.746"/>
			<rect x="354.936" y="371.356" width="15.091" height="17.746"/>
		</g>
	</g>
</g>
<g>
</g>
<g>
</g>
<g>
</g>
<g>
</g>
<g>
</g>
<g>
</g>
<g>
</g>
<g>
</g>
<g>
</g>
<g>
</g>
<g>
</g>
<g>
</g>
<g>
</g>
<g>
</g>
<g>
</g>
</svg>
