<?xml version="1.0" encoding="iso-8859-1"?>
<!-- Generator: Adobe Illustrator 19.0.0, SVG Export Plug-In . SVG Version: 6.00 Build 0)  -->
<svg version="1.1" id="Capa_1" xmlns="http://www.w3.org/2000/svg" xmlns:xlink="http://www.w3.org/1999/xlink" x="0px" y="0px"
	 viewBox="0 0 511.999 511.999" style="enable-background:new 0 0 511.999 511.999;" xml:space="preserve">
<g>
	<g>
		<g>
			<path d="M400.273,144.272H239.969v15.059h104.337c-14.219,8.263-26.454,19.575-35.813,33.032H167.833v15.059H299.67
				c-6.089,12.558-9.887,26.422-10.866,41.047h-56.851v15.059h56.851c0.774,11.578,3.316,22.678,7.364,33.032h-88.259v15.059H303.4
				c9.799,17,23.945,31.19,40.906,41.048H151.802c-43.916,0-82.35-29.723-93.466-72.281l-2.348-8.991l-40.929,20.503v-71.796
				l40.93,20.503l2.348-8.991c11.116-42.558,49.55-72.281,93.466-72.281h64.121v-15.059h-64.121
				c-47.672,0-89.753,30.292-105.343,74.716L0,195.716v120.568l46.46-23.273c15.588,44.424,57.671,74.716,105.343,74.716h248.471
				c26.047,0,51.402-9.157,71.398-25.784l-9.63-11.579c-17.296,14.383-39.232,22.304-61.768,22.304
				c-53.304,0-96.668-43.365-96.668-96.668c0-53.303,43.365-96.667,96.668-96.667c53.303,0,96.667,43.365,96.667,96.667
				c0,21.792-7.076,42.361-20.463,59.484l11.865,9.274c15.476-19.798,23.656-43.573,23.656-68.76
				C512,194.394,461.881,144.272,400.273,144.272z"/>
			<path d="M328.622,255.999c0,39.508,32.143,71.651,71.651,71.651s71.651-32.143,71.651-71.651s-32.143-71.651-71.651-71.651
				v15.059c31.205,0,56.592,25.387,56.592,56.592c0,31.205-25.387,56.592-56.592,56.592c-31.205,0-56.592-25.387-56.592-56.592
				H328.622z"/>
			<rect x="368.209" y="184.345" width="16.03" height="15.059"/>
			<rect x="352.186" y="208.39" width="16.031" height="15.059"/>
			<rect x="400.275" y="232.444" width="16.03" height="15.059"/>
			<rect x="416.308" y="248.467" width="16.031" height="15.059"/>
			<rect x="376.231" y="272.512" width="16.03" height="15.059"/>
			<rect x="199.897" y="248.467" width="16.03" height="15.059"/>
			<rect x="175.852" y="296.557" width="16.03" height="15.059"/>
			<rect x="135.774" y="192.367" width="16.03" height="15.059"/>
		</g>
	</g>
</g>
<g>
</g>
<g>
</g>
<g>
</g>
<g>
</g>
<g>
</g>
<g>
</g>
<g>
</g>
<g>
</g>
<g>
</g>
<g>
</g>
<g>
</g>
<g>
</g>
<g>
</g>
<g>
</g>
<g>
</g>
</svg>
