<?xml version="1.0" encoding="iso-8859-1"?>
<!-- Generator: Adobe Illustrator 19.0.0, SVG Export Plug-In . SVG Version: 6.00 Build 0)  -->
<svg version="1.1" id="Capa_1" xmlns="http://www.w3.org/2000/svg" xmlns:xlink="http://www.w3.org/1999/xlink" x="0px" y="0px"
	 viewBox="0 0 512.001 512.001" style="enable-background:new 0 0 512.001 512.001;" xml:space="preserve">
<g>
	<g>
		<g>
			<polygon points="107.235,15.059 340.16,15.059 340.16,0 92.175,0 92.175,416.304 107.235,416.304 			"/>
			<path d="M364.206,0v15.059h96.667v433.305c0,26.785-21.792,48.576-48.577,48.576c-40.885,0-48.356-47.628-48.652-49.641
				l-0.924-6.464H36.068v7.53c0,35.089,28.547,63.635,63.636,63.635h144.273v-15.059H99.705c-24.225,0-44.365-17.824-47.995-41.047
				h298.36c1.467,5.896,4.343,15.057,9.601,24.259c3.768,6.593,8.167,12.199,13.133,16.788h-104.78v15.059h144.273
				c35.089,0,63.636-28.547,63.636-63.635V0H364.206z"/>
			<rect x="268.025" y="80.155" width="16.03" height="15.059"/>
			<rect x="300.082" y="80.155" width="16.03" height="15.059"/>
			<rect x="332.148" y="80.155" width="16.03" height="15.059"/>
			<rect x="268.025" y="112.212" width="136.256" height="15.059"/>
			<rect x="268.025" y="184.346" width="16.03" height="15.059"/>
			<rect x="300.082" y="184.346" width="16.03" height="15.059"/>
			<rect x="332.148" y="184.346" width="16.03" height="15.059"/>
			<rect x="268.025" y="216.412" width="136.256" height="15.059"/>
			<path d="M195.887,143.302c21.83,0,39.591-17.76,39.591-39.591s-17.76-39.591-39.591-39.591c-21.831,0-39.591,17.76-39.591,39.591
				S174.058,143.302,195.887,143.302z M195.887,79.181c13.527,0,24.532,11.004,24.532,24.531c0,13.527-11.004,24.532-24.532,24.532
				c-13.527,0-24.531-11.004-24.531-24.532C171.356,90.185,182.36,79.181,195.887,79.181z"/>
			<path d="M195.887,247.499c21.83,0,39.591-17.76,39.591-39.591c0-21.831-17.76-39.591-39.591-39.591
				c-21.831,0-39.591,17.76-39.591,39.591C156.297,229.739,174.058,247.499,195.887,247.499z M195.887,183.378
				c13.527,0,24.532,11.004,24.532,24.532s-11.004,24.532-24.532,24.532c-13.527,0-24.531-11.004-24.531-24.532
				S182.36,183.378,195.887,183.378z"/>
			<path d="M195.887,351.697c21.83,0,39.591-17.76,39.591-39.591c0-21.831-17.76-39.591-39.591-39.591
				c-21.831,0-39.591,17.76-39.591,39.591C156.297,333.937,174.058,351.697,195.887,351.697z M195.887,287.575
				c13.527,0,24.532,11.004,24.532,24.532s-11.004,24.532-24.532,24.532c-13.527,0-24.531-11.004-24.531-24.532
				S182.36,287.575,195.887,287.575z"/>
			<rect x="268.025" y="288.546" width="16.03" height="15.059"/>
			<rect x="300.082" y="288.546" width="16.03" height="15.059"/>
			<rect x="332.148" y="288.546" width="16.03" height="15.059"/>
			<rect x="268.025" y="320.612" width="136.256" height="15.059"/>
			<rect x="139.781" y="392.746" width="288.546" height="15.059"/>
		</g>
	</g>
</g>
<g>
</g>
<g>
</g>
<g>
</g>
<g>
</g>
<g>
</g>
<g>
</g>
<g>
</g>
<g>
</g>
<g>
</g>
<g>
</g>
<g>
</g>
<g>
</g>
<g>
</g>
<g>
</g>
<g>
</g>
</svg>
