<?xml version="1.0" encoding="iso-8859-1"?>
<!-- Generator: Adobe Illustrator 19.0.0, SVG Export Plug-In . SVG Version: 6.00 Build 0)  -->
<svg version="1.1" id="Capa_1" xmlns="http://www.w3.org/2000/svg" xmlns:xlink="http://www.w3.org/1999/xlink" x="0px" y="0px"
	 viewBox="0 0 512 512" style="enable-background:new 0 0 512 512;" xml:space="preserve">
<g>
	<g>
		<g>
			<polygon points="295.59,32.061 295.59,0 216.41,0 216.41,32.061 159.817,32.061 159.817,47.12 255.999,47.12 255.999,32.061 
				231.469,32.061 231.469,15.06 280.531,15.06 280.531,47.12 496.941,47.12 496.941,336.637 416.303,336.637 416.303,351.697 
				512,351.697 512,32.061 			"/>
			<path d="M15.059,336.637V47.12h120.713V32.061H0v319.636h224.425v25.016h-16.516v15.059h16.516v120.227h63.15V391.773h16.516
				v-15.059h-16.516v-25.016h104.683v-15.059H15.059V336.637z M239.484,351.698h33.031v25.016h-33.031V351.698z M239.484,391.773
				h33.031v105.168h-33.031V391.773z"/>
			<rect x="31.575" y="64.122" width="16.03" height="15.059"/>
			<rect x="63.64" y="64.122" width="16.03" height="15.059"/>
			<rect x="31.575" y="96.179" width="16.03" height="15.059"/>
			<rect x="464.398" y="304.579" width="16.031" height="15.059"/>
			<rect x="464.398" y="272.513" width="16.031" height="15.059"/>
			<path d="M199.894,111.241h16.03V96.182h-16.03c-17.286,0-23.561,14.089-23.561,23.56v31.312
				c-6.425-3.843-14.684-6.782-24.531-6.782h-24.045c-17.41,0-31.575,14.165-31.575,31.575v80.151
				c0,17.411,14.165,31.575,31.575,31.575h40.076c7.6,0,12.529-4.487,16.03-9.294c3.501,4.807,8.43,9.294,16.031,9.294h48.09
				c9.303,0,17.981-4.076,23.902-10.928c12.173,7.155,25.976,10.928,40.219,10.928c43.928,0,79.667-35.739,79.667-79.667
				c0-41.388-31.729-75.493-72.137-79.3l-0.001-16.799c0.075-3.206,1.28-8.584,8.501-8.584h24.046V88.165h-24.046
				c-17.285,0-23.56,14.089-23.56,23.56v16.875c-16.088,1.522-31.339,7.908-43.779,18.375c-3.984-1.768-8.361-2.706-12.812-2.706
				h-32.061c-9.847,0-18.105,2.939-24.532,6.782l-0.001-31.23C191.468,116.619,192.672,111.241,199.894,111.241z M312.105,143.303
				c35.625-0.001,64.607,28.982,64.607,64.606s-28.982,64.607-64.607,64.607c-11.854,0-23.328-3.218-33.379-9.318
				c0.542-2.344,0.833-4.759,0.833-7.198V175.85c0-7.128-2.396-13.888-6.601-19.328
				C284.185,147.973,297.899,143.303,312.105,143.303z M215.924,159.333h32.061c2.79,0,5.504,0.678,7.846,1.961l0.024,0.013
				c5.333,2.893,8.645,8.466,8.645,14.542V256c0,2.79-0.678,5.504-1.974,7.87c-2.894,5.333-8.466,8.646-14.542,8.646h-48.09
				c-2.115,0-16.032-22.075-16.032-22.075s-13.913,22.075-16.029,22.075h-40.076c-9.107,0-16.516-7.409-16.516-16.516v-80.151
				c0-9.107,7.409-16.516,16.516-16.516h24.045c12.726,0,22.399,7.581,25.796,12.677l6.264,9.398l6.266-9.397
				C193.526,166.914,203.199,159.333,215.924,159.333z"/>
			<path d="M128.243,191.88v24.046h15.059V191.88c0-0.146,0.007-0.261,0.017-0.35c0.183-0.063,0.427-0.118,0.616-0.135h15.881
				v-15.059h-16.03C136.252,176.334,128.243,181.783,128.243,191.88z M143.905,191.394c-0.076,0.003-0.118,0-0.117,0H143.905z"/>
			<rect x="304.087" y="224.424" width="16.03" height="15.059"/>
			<rect x="320.12" y="208.391" width="16.031" height="15.059"/>
		</g>
	</g>
</g>
<g>
</g>
<g>
</g>
<g>
</g>
<g>
</g>
<g>
</g>
<g>
</g>
<g>
</g>
<g>
</g>
<g>
</g>
<g>
</g>
<g>
</g>
<g>
</g>
<g>
</g>
<g>
</g>
<g>
</g>
</svg>
