<?xml version="1.0" encoding="iso-8859-1"?>
<!-- Generator: Adobe Illustrator 19.0.0, SVG Export Plug-In . SVG Version: 6.00 Build 0)  -->
<svg version="1.1" id="Capa_1" xmlns="http://www.w3.org/2000/svg" xmlns:xlink="http://www.w3.org/1999/xlink" x="0px" y="0px"
	 viewBox="0 0 512.001 512.001" style="enable-background:new 0 0 512.001 512.001;" xml:space="preserve">
<g>
	<g>
		<g>
			<polygon points="71.166,15.059 231.955,15.059 231.955,0 56.106,0 56.106,416.303 71.166,416.303 			"/>
			<path d="M479.939,304.578v-0.001v-8.016h-40.076V0H256v15.059h168.804v281.502H212.806l-31.575,31.575l31.575,31.575h99.301
				v-15.059H247.5V311.62H464.88v0.486v32.061v0.485H336.152v15.059h88.653v88.653c0,26.785-21.792,48.576-48.576,48.576
				c-40.886,0-48.357-47.627-48.652-49.64l-0.924-6.464H0v7.53c0,35.088,28.547,63.635,63.635,63.635h312.592
				c35.089,0,63.635-28.547,63.635-63.635v-88.653h40.076v-8.015H512v-47.12H479.939z M232.44,344.652h-13.397l-16.516-16.516
				l16.516-16.516h13.397V344.652z M63.636,496.941c-24.224,0-44.365-17.824-47.994-41.047h298.36
				c1.466,5.896,4.343,15.058,9.601,24.258c3.767,6.592,8.162,12.2,13.127,16.788H63.636z M496.941,336.638h-17.002v-17.002h17.002
				V336.638z"/>
			<path d="M104.198,359.712h63.151v-63.151h-63.151V359.712z M119.257,311.62h33.032v33.032h-33.032V311.62z"/>
			<rect x="264.02" y="320.612" width="16.03" height="15.059"/>
			<rect x="296.076" y="320.612" width="16.03" height="15.059"/>
			<polygon points="194.57,66.327 143.788,117.109 125.067,98.386 114.418,109.036 143.788,138.406 205.218,76.976 			"/>
			<polygon points="194.57,170.524 143.788,221.306 125.067,202.584 114.418,213.234 143.788,242.603 205.218,181.173 			"/>
			<rect x="223.942" y="80.155" width="16.03" height="15.059"/>
			<rect x="255.998" y="80.155" width="16.03" height="15.059"/>
			<rect x="223.942" y="112.212" width="136.256" height="15.059"/>
			<rect x="223.942" y="192.367" width="16.03" height="15.059"/>
			<rect x="255.998" y="192.367" width="16.03" height="15.059"/>
			<rect x="223.942" y="224.423" width="136.256" height="15.059"/>
			<rect x="103.709" y="392.746" width="288.546" height="15.059"/>
		</g>
	</g>
</g>
<g>
</g>
<g>
</g>
<g>
</g>
<g>
</g>
<g>
</g>
<g>
</g>
<g>
</g>
<g>
</g>
<g>
</g>
<g>
</g>
<g>
</g>
<g>
</g>
<g>
</g>
<g>
</g>
<g>
</g>
</svg>
