<?xml version="1.0" encoding="iso-8859-1"?>
<!-- Generator: Adobe Illustrator 19.0.0, SVG Export Plug-In . SVG Version: 6.00 Build 0)  -->
<svg version="1.1" id="Capa_1" xmlns="http://www.w3.org/2000/svg" xmlns:xlink="http://www.w3.org/1999/xlink" x="0px" y="0px"
	 viewBox="0 0 512.001 512.001" style="enable-background:new 0 0 512.001 512.001;" xml:space="preserve">
<g>
	<g>
		<g>
			<path d="M64.122,7.53c0,23.662-3.717,35.185-7.652,47.382c-4.119,12.77-8.379,25.974-8.379,52.006
				c0,26.032,4.26,39.237,8.379,52.008c1.179,3.653,2.292,7.104,3.318,10.883l14.533-3.95c-1.118-4.117-2.339-7.899-3.519-11.557
				c-3.934-12.198-7.652-23.72-7.652-47.384c0-23.662,3.717-35.185,7.652-47.382c3.702-11.476,7.517-23.304,8.253-44.476h57.066
				c-0.703,18.724-4.021,29.025-7.514,39.852c-4.119,12.77-8.379,25.974-8.379,52.006h15.059c0-23.662,3.717-35.185,7.652-47.382
				c3.702-11.475,7.515-23.307,8.249-44.476h73.101c-0.702,18.728-4.023,29.024-7.516,39.852
				c-4.119,12.77-8.379,25.974-8.379,52.006c0,26.032,4.26,39.237,8.379,52.007c3.934,12.198,7.652,23.719,7.652,47.382
				c0,23.612-3.714,35.116-7.646,47.295c-4.121,12.768-8.384,25.97-8.384,52.014c0,26.02,4.257,39.226,8.373,51.999
				c3.938,12.216,7.657,23.755,7.657,47.469c0,9.807-0.648,18.3-1.98,25.963l14.836,2.578c1.482-8.525,2.202-17.861,2.202-28.542
				c0-26.081-4.262-39.302-8.383-52.089c-3.932-12.201-7.647-23.725-7.647-47.379c0-23.672,3.719-35.192,7.656-47.387
				c4.117-12.752,8.374-25.94,8.374-51.922c0-26.031-4.26-39.235-8.379-52.006c-3.935-12.198-7.652-23.719-7.652-47.383
				c0-23.662,3.717-35.185,7.652-47.382c4.119-12.77,8.379-25.974,8.379-52.006V0H64.122V7.53z"/>
			<path d="M216.774,452.467c-3.703,11.476-7.517,23.303-8.253,44.475h-73.096c0.703-18.724,4.021-29.025,7.514-39.852
				c4.119-12.77,8.379-25.974,8.379-52.007h-15.059c0,23.663-3.717,35.185-7.652,47.383c-3.702,11.475-7.515,23.307-8.25,44.476
				H63.287c0.702-18.728,4.023-29.024,7.516-39.852c4.119-12.77,8.379-25.974,8.379-52.007c0-26.081-4.262-39.302-8.383-52.089
				c-3.932-12.201-7.647-23.725-7.647-47.379c0-23.672,3.719-35.192,7.656-47.387c4.117-12.752,8.374-25.94,8.374-51.922
				c0-5.295-0.181-10.344-0.538-15.002l-15.015,1.151c0.328,4.278,0.494,8.938,0.494,13.852c0,23.612-3.714,35.116-7.646,47.295
				c-4.121,12.768-8.384,25.97-8.384,52.014c0,26.02,4.257,39.226,8.373,51.999c3.938,12.216,7.657,23.756,7.657,47.469
				c0,23.663-3.717,35.185-7.652,47.383c-4.119,12.77-8.379,25.974-8.379,52.006v7.53h175.363v-7.53
				c0-23.661,3.717-35.184,7.651-47.382c0.696-2.156,1.391-4.313,2.066-6.532l-14.407-4.384
				C218.114,448.311,217.444,450.388,216.774,452.467z"/>
			<path d="M120.228,305.614h15.059v0c0-23.672,3.719-35.192,7.656-47.387c4.117-12.752,8.374-25.94,8.374-51.922h-15.059
				c0,23.612-3.714,35.116-7.646,47.295C124.491,266.369,120.228,279.571,120.228,305.614z"/>
			<rect x="120.224" y="127.753" width="15.059" height="16.031"/>
			<rect x="136.257" y="167.831" width="15.059" height="16.031"/>
			<rect x="120.224" y="320.12" width="15.059" height="16.03"/>
			<rect x="136.257" y="368.21" width="15.059" height="16.031"/>
			<path d="M463.91,7.53V0H288.547v7.53c0,23.662-3.717,35.185-7.652,47.382c-4.119,12.77-8.379,25.974-8.379,52.006
				c0,26.032,4.26,39.237,8.379,52.008c1.909,5.917,3.712,11.506,5.107,18.414l14.761-2.983c-1.564-7.74-3.583-14.001-5.537-20.056
				c-3.935-12.198-7.652-23.72-7.652-47.384c0-23.662,3.717-35.185,7.652-47.382c3.702-11.476,7.517-23.304,8.253-44.476h57.066
				c-0.703,18.724-4.021,29.025-7.514,39.852c-4.119,12.77-8.379,25.974-8.379,52.006h15.059c0-23.662,3.717-35.185,7.652-47.382
				c3.702-11.475,7.515-23.307,8.25-44.476h73.101c-0.702,18.728-4.023,29.024-7.516,39.852c-4.119,12.77-8.379,25.974-8.379,52.006
				c0,26.033,4.26,39.237,8.379,52.007c3.935,12.198,7.652,23.719,7.652,47.382c0,23.612-3.714,35.116-7.646,47.295
				c-4.121,12.768-8.384,25.97-8.384,52.014c0,26.02,4.257,39.226,8.373,51.999c3.938,12.216,7.657,23.755,7.657,47.469
				c0,23.663-3.717,35.185-7.652,47.383c-3.703,11.476-7.517,23.304-8.253,44.476h-73.096c0.703-18.724,4.021-29.025,7.514-39.852
				c4.119-12.77,8.379-25.974,8.379-52.007h-15.059c0,23.663-3.717,35.185-7.652,47.383c-3.702,11.475-7.515,23.307-8.25,44.476
				H287.71c0.702-18.728,4.023-29.024,7.516-39.852c4.119-12.77,8.379-25.974,8.379-52.007c0-26.081-4.262-39.302-8.383-52.089
				c-3.932-12.201-7.647-23.725-7.647-47.379c0-23.672,3.719-35.192,7.656-47.387c4.117-12.752,8.374-25.94,8.374-51.922h-15.059
				c0,23.612-3.714,35.116-7.646,47.295c-4.121,12.768-8.384,25.97-8.384,52.014c0,26.021,4.257,39.227,8.373,51.999
				c3.938,12.216,7.657,23.756,7.657,47.469c0,23.663-3.717,35.185-7.652,47.383c-4.119,12.77-8.379,25.974-8.379,52.006V512
				h175.362v-7.53c0-23.662,3.717-35.184,7.652-47.382c4.119-12.77,8.379-25.974,8.379-52.007c0-26.081-4.262-39.302-8.383-52.089
				c-3.932-12.201-7.647-23.725-7.647-47.379c0-23.672,3.719-35.192,7.656-47.387c4.117-12.752,8.374-25.94,8.374-51.922
				c0-26.032-4.26-39.236-8.379-52.006c-3.935-12.198-7.652-23.719-7.652-47.383c0-23.662,3.717-35.185,7.652-47.382
				C459.65,46.765,463.91,33.561,463.91,7.53z"/>
			<path d="M359.713,305.614L359.713,305.614c0-23.672,3.719-35.192,7.656-47.387c4.117-12.752,8.374-25.94,8.374-51.922h-15.059
				c0,23.612-3.714,35.116-7.646,47.295c-4.121,12.768-8.384,25.97-8.384,52.014H359.713z"/>
			<rect x="344.658" y="127.753" width="15.059" height="16.031"/>
			<rect x="360.681" y="167.831" width="15.059" height="16.031"/>
			<rect x="344.658" y="320.12" width="15.059" height="16.03"/>
			<rect x="360.681" y="368.21" width="15.059" height="16.031"/>
		</g>
	</g>
</g>
<g>
</g>
<g>
</g>
<g>
</g>
<g>
</g>
<g>
</g>
<g>
</g>
<g>
</g>
<g>
</g>
<g>
</g>
<g>
</g>
<g>
</g>
<g>
</g>
<g>
</g>
<g>
</g>
<g>
</g>
</svg>
