<?xml version="1.0" encoding="iso-8859-1"?>
<!-- Generator: Adobe Illustrator 19.0.0, SVG Export Plug-In . SVG Version: 6.00 Build 0)  -->
<svg version="1.1" id="Capa_1" xmlns="http://www.w3.org/2000/svg" xmlns:xlink="http://www.w3.org/1999/xlink" x="0px" y="0px"
	 viewBox="0 0 512 512" style="enable-background:new 0 0 512 512;" xml:space="preserve">
<g>
	<g>
		<g>
			<path d="M476.082,264.501c7.781-19.928,11.873-42.024,11.873-64.608c0-38.044-11.388-73.887-32.066-100.926
				c-21.137-27.639-49.428-42.861-79.661-42.861c-30.234,0-58.522,15.222-79.66,42.861c-20.679,27.04-32.066,62.883-32.066,100.926
				c0,22.585,4.092,44.681,11.874,64.608h-40.747c7.781-19.927,11.873-42.023,11.873-64.608c0-38.044-11.388-73.887-32.066-100.926
				c-21.137-27.639-49.427-42.861-79.661-42.861c-23.151,0-45.341,8.985-64.174,25.985L81.69,93.27
				c16.02-14.461,34.721-22.105,54.083-22.105c53.303,0,96.667,57.748,96.667,128.729c0,22.824-4.52,45.051-13.096,64.608H52.201
				c-8.577-19.556-13.097-41.783-13.097-64.608c0-34.67,10.245-67.208,28.849-91.62l-11.978-9.128
				c-20.59,27.018-31.93,62.798-31.93,100.747c0,22.585,4.092,44.681,11.873,64.608H0v63.15h24.564l7.715,108.019l20.223,20.224
				h166.54l20.223-20.223l7.716-108.021h18.038l7.715,108.019l20.224,20.225h91.286v-15.059h-85.049l-11.837-11.838l-4.92-69.286
				h93.789v-15.059h-94.869l-1.233-17.002h192.213l-7.24,101.344l-11.839,11.841h-44.973v15.059h51.211l20.222-20.223l7.716-108.021
				H512v-63.15H476.082z M376.228,71.165c53.304,0,96.668,57.748,96.668,128.729c0,22.823-4.52,45.051-13.096,64.608H292.657
				c-8.577-19.554-13.098-41.782-13.098-64.608C279.559,128.913,322.925,71.165,376.228,71.165z M224.644,428.995l-11.839,11.84
				H58.739l-11.838-11.838l-4.919-69.286h93.79v-15.059H40.903l-1.233-17.002h192.212L224.644,428.995z M496.941,312.592H15.059
				V279.56h481.881V312.592z"/>
			<rect x="151.807" y="344.656" width="16.03" height="15.059"/>
			<rect x="183.864" y="344.656" width="16.03" height="15.059"/>
			<rect x="392.254" y="344.656" width="16.03" height="15.059"/>
			<rect x="424.32" y="344.656" width="16.03" height="15.059"/>
			<path d="M143.788,111.241V96.182c-39.508,0-71.651,39.334-71.651,87.682h15.059C87.196,143.819,112.583,111.241,143.788,111.241z
				"/>
			<path d="M384.243,111.241V96.182c-39.51,0-71.651,39.334-71.651,87.682h15.059C327.651,143.819,353.038,111.241,384.243,111.241z
				"/>
		</g>
	</g>
</g>
<g>
</g>
<g>
</g>
<g>
</g>
<g>
</g>
<g>
</g>
<g>
</g>
<g>
</g>
<g>
</g>
<g>
</g>
<g>
</g>
<g>
</g>
<g>
</g>
<g>
</g>
<g>
</g>
<g>
</g>
</svg>
