<?xml version="1.0" encoding="iso-8859-1"?>
<!-- Generator: Adobe Illustrator 19.0.0, SVG Export Plug-In . SVG Version: 6.00 Build 0)  -->
<svg version="1.1" id="Capa_1" xmlns="http://www.w3.org/2000/svg" xmlns:xlink="http://www.w3.org/1999/xlink" x="0px" y="0px"
	 viewBox="0 0 512 512" style="enable-background:new 0 0 512 512;" xml:space="preserve">
<g>
	<g>
		<g>
			<polygon points="512,159.332 512,80.152 487.955,80.152 487.955,48.09 272.031,48.09 272.031,63.15 472.896,63.15 
				472.896,80.152 39.104,80.152 39.104,63.15 247.985,63.15 247.985,48.09 24.045,48.09 24.045,80.152 0,80.152 0,159.332 
				24.045,159.332 24.045,215.924 39.104,215.924 39.104,159.332 384.243,159.332 384.243,144.273 15.059,144.273 15.059,95.211 
				496.941,95.211 496.941,144.273 472.896,144.273 472.896,384.729 127.757,384.729 127.757,399.788 496.941,399.788 
				496.941,448.85 448.365,448.85 448.365,463.91 512,463.91 512,384.729 487.955,384.729 487.955,159.332 			"/>
			<polygon points="15.059,399.788 39.104,399.788 39.104,239.97 24.045,239.97 24.045,384.729 0,384.729 0,463.91 424.319,463.91 
				424.319,448.85 15.059,448.85 			"/>
			<rect x="408.288" y="144.278" width="16.03" height="15.059"/>
			<rect x="440.354" y="144.278" width="16.03" height="15.059"/>
			<rect x="87.685" y="384.725" width="16.031" height="15.059"/>
			<rect x="55.619" y="384.725" width="16.031" height="15.059"/>
			<path d="M257.786,322.998c1.559,0,3.124-0.044,4.69-0.135c22.528-1.316,42.274-12.078,58.794-32.018l38.441,32.291V208.88
				l-38.939,29.205c-12.971-11.549-39.256-27.543-72.088-27.543c-0.025,0-0.058,0-0.083,0c-33.725,0.027-65.48,16.324-94.382,48.437
				l-4.59,5.102l4.655,5.042C156.372,271.384,204.643,323,257.786,322.998z M248.615,225.601c0.025,0,0.047,0,0.072,0
				c32.487,0,57.276,17.939,65.846,27.43l4.607,5.102l25.512-19.135v51.82l-25.872-21.732l-4.749,6.531
				c-14.681,20.187-32.309,31.022-52.392,32.208c-38.903,2.304-77.876-31.138-91.353-43.995
				C194.837,238.48,221.161,225.623,248.615,225.601z"/>
			<polygon points="111.727,184.349 64.121,184.349 64.121,272.031 79.181,272.031 79.181,199.408 111.727,199.408 			"/>
			<rect x="64.121" y="288.064" width="15.059" height="16.031"/>
			<polygon points="432.82,344.653 408.29,344.653 408.29,359.712 447.88,359.712 447.88,312.107 432.82,312.107 			"/>
			<rect x="215.92" y="248.468" width="16.03" height="15.059"/>
			<rect x="31.574" y="112.212" width="448.847" height="15.059"/>
			<rect x="31.574" y="416.791" width="448.847" height="15.059"/>
		</g>
	</g>
</g>
<g>
</g>
<g>
</g>
<g>
</g>
<g>
</g>
<g>
</g>
<g>
</g>
<g>
</g>
<g>
</g>
<g>
</g>
<g>
</g>
<g>
</g>
<g>
</g>
<g>
</g>
<g>
</g>
<g>
</g>
</svg>
