<?xml version="1.0" encoding="iso-8859-1"?>
<!-- Generator: Adobe Illustrator 19.0.0, SVG Export Plug-In . SVG Version: 6.00 Build 0)  -->
<svg version="1.1" id="Capa_1" xmlns="http://www.w3.org/2000/svg" xmlns:xlink="http://www.w3.org/1999/xlink" x="0px" y="0px"
	 viewBox="0 0 512 512" style="enable-background:new 0 0 512 512;" xml:space="preserve">
<g>
	<g>
		<g>
			<path d="M375.14,192.978L351.542,77.026c-4.476-21.751-13.471-40.334-26.012-53.74C311.28,8.053,292.78,0,272.03,0h-32.06
				c-20.75,0-39.249,8.053-53.5,23.286c-12.542,13.407-21.537,31.991-26.015,53.757l-5.123,25.168l14.757,3.003l5.119-25.152
				c8.375-40.702,32.585-65.002,64.762-65.002h32.06c32.177,0,56.387,24.301,64.759,64.986l24.662,121.185l2.089,1.7
				c38.933,31.674,61.263,78.332,61.263,128.013c0,91.531-75.725,165.998-168.804,165.998S87.196,422.474,87.196,330.942
				c0-49.68,22.33-96.339,61.263-128.013l2.09-1.7l14.647-71.971l-14.757-3.003l-13.578,66.723
				c-41.172,34.503-64.724,84.629-64.724,137.964C72.136,430.778,154.617,512,256,512c101.382,0,183.864-81.222,183.864-181.058
				C439.864,277.608,416.312,227.481,375.14,192.978z"/>
			<path d="M152.288,328.136c0,57.187,46.525,103.712,103.712,103.712c20.52,0,40.358-5.979,57.37-17.289l-8.338-12.54
				c-14.533,9.663-31.488,14.77-49.032,14.77c-48.883,0-88.653-39.77-88.653-88.653c0-48.883,39.77-88.653,88.653-88.653
				c48.882,0,88.653,39.77,88.653,88.653c0,21.634-7.87,42.464-22.16,58.653l11.29,9.966c16.72-18.943,25.929-43.311,25.929-68.619
				c0-57.187-46.525-103.712-103.712-103.712C198.813,224.424,152.288,270.949,152.288,328.136z"/>
			<path d="M256,272.516L256,272.516c-30.67,0-55.621,24.951-55.621,55.621h15.059c0-22.366,18.196-40.562,40.562-40.562V272.516z"
				/>
			<rect x="256" y="352.668" width="16.03" height="15.059"/>
			<rect x="272.033" y="336.635" width="16.031" height="15.059"/>
			<rect x="288.056" y="320.612" width="16.03" height="15.059"/>
			<path d="M192.402,127.008l14.984,1.498c3.799-37.988,14.961-55.99,23.656-64.402c8.873-8.585,16.74-8.958,17.07-8.97
				l-0.128,0.001V40.075C246.07,40.076,200.997,41.064,192.402,127.008z"/>
		</g>
	</g>
</g>
<g>
</g>
<g>
</g>
<g>
</g>
<g>
</g>
<g>
</g>
<g>
</g>
<g>
</g>
<g>
</g>
<g>
</g>
<g>
</g>
<g>
</g>
<g>
</g>
<g>
</g>
<g>
</g>
<g>
</g>
</svg>
