<?xml version="1.0" encoding="iso-8859-1"?>
<!-- Generator: Adobe Illustrator 19.0.0, SVG Export Plug-In . SVG Version: 6.00 Build 0)  -->
<svg version="1.1" id="Capa_1" xmlns="http://www.w3.org/2000/svg" xmlns:xlink="http://www.w3.org/1999/xlink" x="0px" y="0px"
	 viewBox="0 0 512.001 512.001" style="enable-background:new 0 0 512.001 512.001;" xml:space="preserve">
<g>
	<g>
		<g>
			<path d="M414.25,77.783l-11.916,9.208c25.188,32.591,38.503,71.632,38.503,112.902v8.502H71.165v-8.502
				C71.165,97.976,154.082,15.059,256,15.059c49.481,0,95.978,19.317,130.924,54.394l10.669-10.63C359.8,20.891,309.515,0,256,0
				C145.778,0,56.106,89.671,56.106,199.893v23.561h32.061v152.775h15.059V223.454h305.549v241.428h-21.17l-16.029,32.06h-231.15
				l-8.499-17.001h116.06v-15.059H103.225v-64.608H88.166v79.668h26.921l16.031,32.06h249.762l16.031-32.06h26.921V223.454h32.062
				v-23.561C455.895,155.26,441.494,113.035,414.25,77.783z"/>
			<rect x="264.02" y="464.88" width="16.031" height="15.059"/>
			<rect x="296.076" y="464.88" width="16.031" height="15.059"/>
			<rect x="328.142" y="464.88" width="16.031" height="15.059"/>
			<path d="M280.046,263.531L280.046,263.531v-15.06H128.242v191.394h255.516V248.47H304.09v15.059h64.608v94.52l-29.429-29.428
				h-54.328l-36.958,36.959l-28.942-28.942h-75.741v-73.108H280.046z M212.806,351.698l35.18,35.18l43.194-43.195h41.853
				l35.665,35.666v45.456H143.3v-73.107H212.806z"/>
			<rect x="159.819" y="384.725" width="16.031" height="15.059"/>
			<rect x="175.852" y="368.702" width="16.03" height="15.059"/>
			<rect x="199.897" y="392.746" width="16.031" height="15.059"/>
			<rect x="288.064" y="392.746" width="16.03" height="15.059"/>
			<rect x="304.087" y="376.713" width="16.031" height="15.059"/>
			<rect x="320.12" y="392.746" width="16.03" height="15.059"/>
			<path d="M176.334,79.667c0,17.411,14.165,31.575,31.575,31.575c17.411,0,31.574-14.165,31.574-31.575
				S225.32,48.091,207.91,48.091C190.499,48.091,176.334,62.256,176.334,79.667z M224.425,79.667
				c0,9.107-7.409,16.516-16.515,16.516c-9.107,0-16.516-7.409-16.516-16.516s7.409-16.516,16.516-16.516
				C217.016,63.15,224.425,70.559,224.425,79.667z"/>
			<path d="M272.516,79.667c0,17.411,14.164,31.575,31.574,31.575c17.411,0,31.575-14.165,31.575-31.575
				s-14.165-31.575-31.575-31.575C286.68,48.091,272.516,62.256,272.516,79.667z M320.607,79.667
				c0,9.107-7.409,16.516-16.516,16.516c-9.106,0-16.515-7.409-16.515-16.516s7.409-16.516,16.515-16.516
				C313.198,63.15,320.607,70.559,320.607,79.667z"/>
		</g>
	</g>
</g>
<g>
</g>
<g>
</g>
<g>
</g>
<g>
</g>
<g>
</g>
<g>
</g>
<g>
</g>
<g>
</g>
<g>
</g>
<g>
</g>
<g>
</g>
<g>
</g>
<g>
</g>
<g>
</g>
<g>
</g>
</svg>
