<?xml version="1.0" encoding="iso-8859-1"?>
<!-- Generator: Adobe Illustrator 19.0.0, SVG Export Plug-In . SVG Version: 6.00 Build 0)  -->
<svg version="1.1" id="Capa_1" xmlns="http://www.w3.org/2000/svg" xmlns:xlink="http://www.w3.org/1999/xlink" x="0px" y="0px"
	 viewBox="0 0 512 512" style="enable-background:new 0 0 512 512;" xml:space="preserve">
<g>
	<g>
		<g>
			<path d="M359.712,36.864V0H160.303v36.472l-48.091,48.09v27.165h15.059V90.799l43.681-43.68h122.976l-37.442,37.442v236.044
				H127.271V175.362h104.683v-15.059H127.271v-24.532h-15.059V512h287.576V84.955L359.712,36.864z M256.486,496.941H127.271V335.666
				h129.215V496.941z M175.363,32.061V15.059h169.291v17.002H175.363z M384.73,496.941h-0.001H271.545V90.799l43.681-43.68h33.43
				l36.074,43.287V496.941z"/>
			<rect x="296.076" y="424.803" width="64.121" height="15.059"/>
			<rect x="296.076" y="456.869" width="16.03" height="15.059"/>
			<rect x="344.165" y="456.869" width="16.03" height="15.059"/>
			<polygon points="296.562,312.107 311.621,312.107 311.621,119.257 344.653,119.257 344.653,392.743 311.621,392.743 
				311.621,336.152 296.562,336.152 296.562,407.803 359.712,407.803 359.712,104.197 296.562,104.197 			"/>
			<path d="M152.289,247.985c0,21.83,17.76,39.591,39.591,39.591c21.831,0,39.591-17.76,39.591-39.591
				c0-21.831-17.76-39.591-39.591-39.591C170.049,208.395,152.289,226.156,152.289,247.985z M216.41,247.985
				c0,13.527-11.004,24.532-24.532,24.532s-24.532-11.004-24.532-24.532c0-13.527,11.004-24.532,24.532-24.532
				S216.41,234.458,216.41,247.985z"/>
			<polygon points="183.863,464.88 159.332,464.88 159.332,440.349 144.273,440.349 144.273,479.94 183.863,479.94 			"/>
			<rect x="199.897" y="464.88" width="16.03" height="15.059"/>
			<rect x="207.909" y="80.156" width="16.03" height="15.059"/>
			<rect x="167.831" y="80.156" width="16.03" height="15.059"/>
		</g>
	</g>
</g>
<g>
</g>
<g>
</g>
<g>
</g>
<g>
</g>
<g>
</g>
<g>
</g>
<g>
</g>
<g>
</g>
<g>
</g>
<g>
</g>
<g>
</g>
<g>
</g>
<g>
</g>
<g>
</g>
<g>
</g>
</svg>
