<?xml version="1.0" encoding="iso-8859-1"?>
<!-- Generator: Adobe Illustrator 19.0.0, SVG Export Plug-In . SVG Version: 6.00 Build 0)  -->
<svg version="1.1" id="Capa_1" xmlns="http://www.w3.org/2000/svg" xmlns:xlink="http://www.w3.org/1999/xlink" x="0px" y="0px"
	 viewBox="0 0 512 512" style="enable-background:new 0 0 512 512;" xml:space="preserve">
<g>
	<g>
		<g>
			<path d="M408.289,104.197h-24.046v15.059h24.046c35.624,0,64.607,28.982,64.607,64.607v248.47
				c0,35.624-28.983,64.607-64.607,64.607H296.076c-12.846,0-25.252-3.771-35.879-10.905L256,483.22l-4.197,2.818
				c-10.627,7.133-23.034,10.904-35.879,10.904H103.711c-35.624,0-64.607-28.982-64.607-64.607v-48.091H24.045v48.09
				c0,43.928,35.738,79.667,79.667,79.667h112.213c14.184,0,27.939-3.73,40.076-10.828C268.138,508.27,281.893,512,296.076,512
				h112.213c43.928,0,79.667-35.739,79.667-79.667V183.864C487.955,139.936,452.217,104.197,408.289,104.197z"/>
			<path d="M39.104,183.864c0-35.624,28.983-64.607,64.607-64.607h112.213c12.846,0,25.252,3.771,35.879,10.904l4.197,2.818
				l4.197-2.817c10.627-7.134,23.034-10.905,35.879-10.905h64.121v-15.059h-64.121c-11.325,0-22.373,2.384-32.546,6.956V87.196
				V63.666c0-0.086,0.122-8.789,4.42-17.106c5.379-10.41,14.579-15.47,28.126-15.47h80.152V16.03h-80.152
				c-15.457,0-25.83,5.219-32.773,11.839C261.826,15.514,252.952,0,231.954,0H112.212v63.636c0,9.471,6.275,23.561,23.56,23.561
				h112.698v23.957c-10.173-4.571-21.221-6.956-32.546-6.956H103.711c-43.928,0-79.667,35.739-79.667,79.667v176.334h15.059V183.864
				z M135.773,72.137c-7.221,0-8.426-5.378-8.5-8.501V15.059h104.683c15.489,0,16.476,13.801,16.516,16.515v8.501h-88.652v15.059
				h88.652v8.5v8.501H135.773z"/>
			<path d="M79.181,183.864c0-23.589,22.055-24.504,24.531-24.532h24.046v-15.059h-24.046c-1.003,0-10.062,0.135-19.397,4.802
				c-9.211,4.606-20.193,14.381-20.193,34.788v80.152h15.059V183.864z"/>
			<rect x="64.121" y="280.043" width="15.059" height="16.03"/>
			<rect x="392.746" y="440.354" width="15.059" height="16.031"/>
			<rect x="408.78" y="408.288" width="15.059" height="16.031"/>
			<rect x="392.746" y="376.231" width="15.059" height="16.031"/>
			<rect x="416.791" y="344.165" width="15.059" height="16.03"/>
		</g>
	</g>
</g>
<g>
</g>
<g>
</g>
<g>
</g>
<g>
</g>
<g>
</g>
<g>
</g>
<g>
</g>
<g>
</g>
<g>
</g>
<g>
</g>
<g>
</g>
<g>
</g>
<g>
</g>
<g>
</g>
<g>
</g>
</svg>
