<?xml version="1.0" encoding="iso-8859-1"?>
<!-- Generator: Adobe Illustrator 19.0.0, SVG Export Plug-In . SVG Version: 6.00 Build 0)  -->
<svg version="1.1" id="Capa_1" xmlns="http://www.w3.org/2000/svg" xmlns:xlink="http://www.w3.org/1999/xlink" x="0px" y="0px"
	 viewBox="0 0 512 512" style="enable-background:new 0 0 512 512;" xml:space="preserve">
<g>
	<g>
		<g>
			<path d="M368.212,0v15.059h64.607v65.092H79.181V15.059h264.986V0H64.121v512h119.742v-15.059H79.181v-65.093h353.639v65.093
				h-224.91V512h239.969V0H368.212z M432.819,416.788H79.181V95.211h353.639V416.788z"/>
			<rect x="175.852" y="40.076" width="128.245" height="15.059"/>
			<rect x="320.12" y="40.076" width="16.03" height="15.059"/>
			<rect x="247.986" y="456.868" width="16.03" height="15.059"/>
			<path d="M351.696,272.031h-15.059v80.636H175.362V191.393h13.397l16.031,16.031h30.283l8.016-8.016h9.792l8.016,8.016h54.328
				l16.031-16.031h5.381v56.592h15.059v-71.651h-26.678l-5.382,5.382v-29.429h-56.106v-24.045h-79.181v48.09h-24.046v191.393
				h191.393V272.031z M263.53,167.347h41.047v25.017h-37.442l-3.604-3.604V167.347z M199.409,143.302h49.062v41.047h-11.62
				l-8.016,8.016h-17.807l-11.62-11.62V143.302z"/>
			<polygon points="192.364,288.061 192.364,335.666 231.955,335.666 231.955,320.607 207.423,320.607 207.423,288.061 			"/>
			<rect x="247.986" y="320.612" width="16.03" height="15.059"/>
			<rect x="400.275" y="384.724" width="16.031" height="15.059"/>
			<rect x="368.209" y="384.724" width="16.031" height="15.059"/>
			<rect x="400.275" y="352.668" width="16.031" height="15.059"/>
			<polygon points="111.241,127.272 143.788,127.272 143.788,112.213 96.181,112.213 96.181,183.864 111.241,183.864 			"/>
			<rect x="96.179" y="199.897" width="15.059" height="16.03"/>
		</g>
	</g>
</g>
<g>
</g>
<g>
</g>
<g>
</g>
<g>
</g>
<g>
</g>
<g>
</g>
<g>
</g>
<g>
</g>
<g>
</g>
<g>
</g>
<g>
</g>
<g>
</g>
<g>
</g>
<g>
</g>
<g>
</g>
</svg>
