<?xml version="1.0" encoding="iso-8859-1"?>
<!-- Generator: Adobe Illustrator 19.0.0, SVG Export Plug-In . SVG Version: 6.00 Build 0)  -->
<svg version="1.1" id="Capa_1" xmlns="http://www.w3.org/2000/svg" xmlns:xlink="http://www.w3.org/1999/xlink" x="0px" y="0px"
	 viewBox="0 0 512 512" style="enable-background:new 0 0 512 512;" xml:space="preserve">
<g>
	<g>
		<g>
			<path d="M438.712,48.09L430.697,0H328.136v15.059h89.803l5.505,33.031H239.969V63.15H448.85v33.032H63.15V63.15h22.894
				l8.016-48.09H304.09V0H81.302l-8.016,48.09H48.091v415.818h25.196L81.302,512h349.395l8.015-48.091h25.197V48.09H438.712z
				 M448.85,400.759L448.85,400.759H247.983v15.059h200.866v33.031h-22.895l-8.015,48.091H94.06l-5.506-33.032H272.03v-15.059H63.15
				v-33.031h160.789v-15.059H63.15V111.242h385.7V400.759z"/>
			<rect x="288.063" y="448.846" width="16.03" height="15.059"/>
			<rect x="320.119" y="448.846" width="16.03" height="15.059"/>
			<rect x="207.908" y="48.09" width="16.031" height="15.059"/>
			<rect x="175.852" y="48.09" width="16.031" height="15.059"/>
			<path d="M179.195,300.323c-7.752-13.405-11.848-28.73-11.848-44.322c0-48.882,39.769-88.653,88.653-88.653
				c1.402,0,2.822,0.037,4.252,0.112l-5.291,8.867l24.284,32.377l-10.344,20.685l53.694,10.738l8.659-8.659h9.859
				c2.349,7.981,3.537,16.21,3.537,24.532c0,48.882-39.768,88.653-88.652,88.653c-25.2,0-49.29-10.771-66.094-29.551l-11.222,10.042
				c19.656,21.969,47.837,34.569,77.316,34.569c57.186,0,103.711-46.525,103.711-103.712c0-11.806-2.037-23.45-6.055-34.611
				l-1.792-4.98h-26.846l-7.371,7.371l-26.458-5.292l5.687-11.375l-23.809-31.744l11.649-19.521l-10.718-1.92
				c-6.082-1.089-12.137-1.641-17.999-1.641c-57.187,0-103.712,46.525-103.712,103.712c0,18.236,4.796,36.168,13.869,51.86
				L179.195,300.323z"/>
			<rect x="207.908" y="280.534" width="16.031" height="15.059"/>
			<rect x="223.941" y="264.501" width="16.03" height="15.059"/>
			<rect x="312.108" y="264.501" width="16.031" height="15.059"/>
			<rect x="264.019" y="288.546" width="16.03" height="15.059"/>
			<rect x="199.896" y="216.412" width="16.03" height="15.059"/>
			<polygon points="95.21,143.302 119.742,143.302 119.742,128.243 80.151,128.243 80.151,223.939 95.21,223.939 			"/>
			<rect x="416.308" y="368.701" width="16.031" height="15.059"/>
			<rect x="416.308" y="336.635" width="16.031" height="15.059"/>
			<rect x="384.242" y="368.701" width="16.031" height="15.059"/>
		</g>
	</g>
</g>
<g>
</g>
<g>
</g>
<g>
</g>
<g>
</g>
<g>
</g>
<g>
</g>
<g>
</g>
<g>
</g>
<g>
</g>
<g>
</g>
<g>
</g>
<g>
</g>
<g>
</g>
<g>
</g>
<g>
</g>
</svg>
