<?xml version="1.0" encoding="iso-8859-1"?>
<!-- Generator: Adobe Illustrator 19.0.0, SVG Export Plug-In . SVG Version: 6.00 Build 0)  -->
<svg version="1.1" id="Capa_1" xmlns="http://www.w3.org/2000/svg" xmlns:xlink="http://www.w3.org/1999/xlink" x="0px" y="0px"
	 viewBox="0 0 512 512" style="enable-background:new 0 0 512 512;" xml:space="preserve">
<g>
	<g>
		<g>
			<path d="M478.918,216.409v0.001c-9.196-58.792-35.51-112.547-74.526-151.959C363.25,22.889,310.55,0,256,0
				c-31.877,0-62.702,7.555-91.617,22.456l6.898,13.387C198.043,22.052,226.546,15.059,256,15.059
				c102.31,0,188.491,84.165,207.664,201.35H48.34c11.44-69.611,47.478-129.972,99.764-166.552l-8.634-12.34
				C83.253,76.85,44.726,141.783,33.082,216.41H0V256c0,36.83,7.656,72.379,22.757,105.659
				c14.587,32.15,35.315,60.505,61.605,84.278l10.101-11.171C44,389.137,15.059,323.98,15.059,256v-24.532h481.881V256
				c0,132.856-108.085,240.941-240.94,240.941c-50.539,0-98.915-15.476-139.9-44.755l-8.753,12.253
				C150.9,495.553,202.303,512,255.999,512c68.376,0,132.663-26.629,181.017-74.983C485.37,388.664,512,324.377,512,255.999v-39.591
				H478.918z"/>
			<path d="M56.107,247.985c0,110.222,89.672,199.894,199.894,199.894s199.894-89.672,199.894-199.894h-15.059
				c0,101.919-82.916,184.834-184.833,184.834c-101.919,0-184.834-82.916-184.834-184.834H56.107z"/>
			<path d="M163.826,280.531c-15.201,0-27.568,12.367-27.568,27.567s12.367,27.568,27.568,27.568
				c15.202,0,27.568-12.367,27.568-27.568S179.027,280.531,163.826,280.531z M163.826,320.607c-6.897,0-12.508-5.611-12.508-12.508
				c0-6.897,5.611-12.508,12.508-12.508s12.509,5.611,12.509,12.508C176.335,314.996,170.723,320.607,163.826,320.607z"/>
			<path d="M383.757,284.054c0-15.202-12.367-27.568-27.568-27.568s-27.567,12.367-27.567,27.568
				c0,15.201,12.367,27.568,27.567,27.568S383.757,299.254,383.757,284.054z M356.19,296.562c-6.897,0-12.508-5.611-12.508-12.508
				s5.611-12.509,12.508-12.509c6.897,0,12.508,5.612,12.508,12.509S363.087,296.562,356.19,296.562z"/>
			<path d="M240.455,372.22c0,15.201,12.367,27.567,27.568,27.567c15.201,0,27.568-12.367,27.568-27.567
				s-12.367-27.568-27.568-27.568C252.822,344.652,240.455,357.019,240.455,372.22z M280.532,372.22
				c0,6.897-5.611,12.508-12.508,12.508c-6.897,0-12.509-5.611-12.509-12.508s5.612-12.508,12.509-12.508
				C274.921,359.712,280.532,365.323,280.532,372.22z"/>
			<rect x="103.708" y="256.489" width="16.031" height="15.059"/>
			<rect x="239.974" y="264.501" width="16.031" height="15.059"/>
			<rect x="255.997" y="280.534" width="16.03" height="15.059"/>
			<rect x="183.864" y="368.701" width="16.03" height="15.059"/>
			<rect x="352.186" y="352.668" width="16.03" height="15.059"/>
			<rect x="336.153" y="336.635" width="16.031" height="15.059"/>
			<path d="M240.455,159.795c0,12.665,5.359,19.367,9.664,24.751c3.697,4.622,6.367,7.963,6.367,15.346h15.059
				c0-12.664-5.358-19.366-9.664-24.75c-3.697-4.622-6.367-7.963-6.367-15.347c0-7.383,2.67-10.724,6.367-15.346
				c4.305-5.384,9.664-12.087,9.664-24.751c0-12.659-5.359-19.357-9.666-24.739c-3.696-4.619-6.365-7.955-6.365-15.331
				c0-7.365,2.669-10.697,6.363-15.31c4.307-5.378,9.668-12.073,9.668-24.725h-15.059c0,7.366-2.669,10.698-6.363,15.311
				c-4.307,5.378-9.668,12.071-9.668,24.724c0,12.659,5.36,19.358,9.666,24.74c3.696,4.619,6.365,7.955,6.365,15.331
				c0,7.384-2.671,10.725-6.367,15.347C245.813,140.429,240.455,147.131,240.455,159.795z"/>
			<path d="M336.638,159.795c0,12.665,5.359,19.367,9.664,24.751c3.697,4.622,6.367,7.963,6.367,15.346h15.059
				c0-12.664-5.358-19.366-9.664-24.75c-3.697-4.622-6.367-7.963-6.367-15.347c0-7.383,2.67-10.724,6.367-15.346
				c4.305-5.384,9.664-12.087,9.664-24.751c0-12.659-5.359-19.357-9.666-24.739c-3.696-4.619-6.365-7.955-6.365-15.331h-15.059
				c0,12.659,5.36,19.358,9.666,24.74c3.696,4.619,6.365,7.955,6.365,15.331c0,7.384-2.67,10.725-6.367,15.347
				C341.995,140.429,336.638,147.131,336.638,159.795z"/>
			<path d="M175.363,119.697c0-12.659-5.359-19.356-9.665-24.739c-3.696-4.619-6.365-7.955-6.365-15.331h-15.059
				c0,12.659,5.359,19.357,9.665,24.74c3.696,4.618,6.365,7.955,6.365,15.331c0,7.384-2.671,10.725-6.367,15.347
				c-4.305,5.384-9.663,12.087-9.663,24.75c0,12.665,5.358,19.366,9.664,24.751c3.696,4.622,6.366,7.962,6.366,15.346h15.059
				c0-12.664-5.358-19.366-9.663-24.75c-3.697-4.622-6.367-7.963-6.367-15.347s2.671-10.724,6.366-15.346
				C170.005,139.063,175.363,132.362,175.363,119.697z"/>
		</g>
	</g>
</g>
<g>
</g>
<g>
</g>
<g>
</g>
<g>
</g>
<g>
</g>
<g>
</g>
<g>
</g>
<g>
</g>
<g>
</g>
<g>
</g>
<g>
</g>
<g>
</g>
<g>
</g>
<g>
</g>
<g>
</g>
</svg>
