<?xml version="1.0" encoding="iso-8859-1"?>
<!-- Generator: Adobe Illustrator 19.0.0, SVG Export Plug-In . SVG Version: 6.00 Build 0)  -->
<svg version="1.1" id="Capa_1" xmlns="http://www.w3.org/2000/svg" xmlns:xlink="http://www.w3.org/1999/xlink" x="0px" y="0px"
	 viewBox="0 0 512.002 512.002" style="enable-background:new 0 0 512.002 512.002;" xml:space="preserve">
<g>
	<g>
		<g>
			<path d="M379.348,263.53l12.426-12.426V100.593l-28.457-28.457h-59.71V47.121h32.06V0h-63.636v15.059h48.576v17.002H191.394
				V15.059h56.592V0h-71.651v47.121h32.061v25.016h-59.711l-28.456,28.457v150.511l12.426,12.426h19.634v81.123h-32.06v154.922
				l12.426,12.426h91.285v-15.059h-85.048l-3.604-3.604V359.712h32.06V263.53h64.607V248.47h-93.063l-3.604-3.604v-69.504h67.726
				l20.926-20.926l44.972,44.972h83.271v-15.059h-77.033l-51.21-51.21l-27.164,27.164h-61.488v-53.473l19.635-19.635H357.08
				l19.635,19.635v138.036l-3.604,3.604h-28.456v96.183h-64.607v15.059h96.668v133.625l-3.604,3.604H247.986v15.059h131.361
				l12.426-12.426V344.653h-32.061V263.53H379.348z M288.547,72.137h-65.092V47.121h65.092V72.137z"/>
			<rect x="247.987" y="248.468" width="16.03" height="15.059"/>
			<rect x="280.044" y="248.468" width="16.03" height="15.059"/>
			<rect x="215.921" y="344.657" width="16.03" height="15.059"/>
			<rect x="247.987" y="344.657" width="16.03" height="15.059"/>
			<polygon points="152.289,432.334 152.289,479.94 191.88,479.94 191.88,464.88 167.348,464.88 167.348,432.334 			"/>
			<rect x="207.91" y="464.88" width="16.03" height="15.059"/>
		</g>
	</g>
</g>
<g>
</g>
<g>
</g>
<g>
</g>
<g>
</g>
<g>
</g>
<g>
</g>
<g>
</g>
<g>
</g>
<g>
</g>
<g>
</g>
<g>
</g>
<g>
</g>
<g>
</g>
<g>
</g>
<g>
</g>
</svg>
