<?xml version="1.0" encoding="iso-8859-1"?>
<!-- Generator: Adobe Illustrator 19.0.0, SVG Export Plug-In . SVG Version: 6.00 Build 0)  -->
<svg version="1.1" id="Capa_1" xmlns="http://www.w3.org/2000/svg" xmlns:xlink="http://www.w3.org/1999/xlink" x="0px" y="0px"
	 viewBox="0 0 512.001 512.001" style="enable-background:new 0 0 512.001 512.001;" xml:space="preserve">
<g>
	<g>
		<g>
			<path d="M431.85,328.137L431.85,328.137h-15.06v56.592h-57.078V280.532h-32.061V263.53h89.138v40.562h15.059V248.47H312.592
				v32.061h-81.123v-40.076H64.121v144.273H0v63.151h32.061V512h63.151v-64.121h120.713V432.82H80.151v64.121H47.12v-49.062h16.516
				V432.82H15.059v-33.032h481.881v33.032h-48.576v15.059h16.516v49.062h-33.032V432.82H239.969v15.059h176.82V512h63.151v-64.121
				h32.061v-63.151H431.85V328.137z M216.41,384.729H79.181V255.515H216.41V384.729z M344.652,384.729H231.469v-89.138h113.183
				V384.729z"/>
			<rect x="103.708" y="296.558" width="88.167" height="15.059"/>
			<rect x="103.708" y="328.624" width="16.03" height="15.059"/>
			<rect x="135.774" y="328.624" width="16.03" height="15.059"/>
			<path d="M288.061,367.727c12.991,0,23.56-10.569,23.56-23.56c0-12.991-10.569-23.561-23.56-23.561
				c-12.991,0-23.56,10.569-23.56,23.561C264.501,357.158,275.07,367.727,288.061,367.727z M288.061,335.667
				c4.688,0,8.5,3.814,8.5,8.501s-3.813,8.5-8.5,8.5c-4.687,0-8.5-3.813-8.5-8.5S283.373,335.667,288.061,335.667z"/>
			<polygon points="399.787,360.197 399.787,280.532 376.228,280.532 376.228,295.591 384.728,295.591 384.728,360.197 			"/>
			<path d="M415.818,88.167V24.046h-96.183V0h-95.697V15.06h80.637v73.108H95.211V15.06h104.683V0H80.151v88.167H0v63.15h32.061
				v64.121h63.151v-64.121h232.926v-15.059H80.151v64.121H47.12v-49.062h16.516v-15.059H15.059v-33.031h481.881v33.031h-48.576
				v15.059h16.516v49.062h-33.032v-64.121h-79.667v15.059h64.607v64.121h63.151v-64.121h32.061v-63.15H415.818z M400.759,88.167
				h-81.123V39.105h81.123V88.167z"/>
			<rect x="127.753" y="40.076" width="80.155" height="15.059"/>
			<rect x="223.941" y="40.076" width="16.03" height="15.059"/>
			<rect x="255.997" y="40.076" width="16.03" height="15.059"/>
			<rect x="336.153" y="56.107" width="48.091" height="15.059"/>
		</g>
	</g>
</g>
<g>
</g>
<g>
</g>
<g>
</g>
<g>
</g>
<g>
</g>
<g>
</g>
<g>
</g>
<g>
</g>
<g>
</g>
<g>
</g>
<g>
</g>
<g>
</g>
<g>
</g>
<g>
</g>
<g>
</g>
</svg>
