<?xml version="1.0" encoding="iso-8859-1"?>
<!-- Generator: Adobe Illustrator 19.0.0, SVG Export Plug-In . SVG Version: 6.00 Build 0)  -->
<svg version="1.1" id="Capa_1" xmlns="http://www.w3.org/2000/svg" xmlns:xlink="http://www.w3.org/1999/xlink" x="0px" y="0px"
	 viewBox="0 0 512 512" style="enable-background:new 0 0 512 512;" xml:space="preserve">
<g>
	<g>
		<g>
			<path d="M311.621,96.182V71.165h32.061V15.544C343.681,6.973,336.707,0,328.137,0H167.832c-8.572,0-15.545,6.973-15.545,15.544
				v55.62h32.061v25.017H80.151v119.742H95.21V111.241h241.428v337.124h15.059V121.89l25.016,25.016v301.459h15.059V146.906
				l25.016-25.016v158.156h15.059V96.182H311.621z M167.346,56.105V15.544c0-0.249,0.236-0.485,0.486-0.485h24.532v24.532h15.059
				V15.059h33.032v24.532h15.059V15.059h33.031v24.532h15.059V15.059h24.532c0.249,0,0.485,0.236,0.485,0.485v40.561H167.346z
				 M296.561,96.182h-97.154V71.165h97.154V96.182z M384.242,133.139l-21.897-21.899h43.795L384.242,133.139z"/>
			<polygon points="416.789,464.88 394.394,464.88 386.379,496.941 256,496.941 256,512 398.136,512 406.152,479.94 431.848,479.94 
				431.848,304.091 416.789,304.091 			"/>
			<polygon points="121.37,479.94 304.091,479.94 304.091,464.88 95.21,464.88 95.21,239.97 80.151,239.97 80.151,479.94 
				105.847,479.94 113.863,512 231.955,512 231.955,496.941 125.62,496.941 			"/>
			<rect x="320.12" y="464.88" width="16.03" height="15.059"/>
			<rect x="352.186" y="464.88" width="16.03" height="15.059"/>
			<path d="M120.227,288.061c0,25.58,9.949,49.617,28.014,67.682s42.102,28.014,67.682,28.014c25.58,0,49.616-9.949,67.682-28.014
				c18.065-18.064,28.014-42.102,28.014-67.682c0-25.581-9.949-49.618-28.013-67.683c-18.066-18.065-42.103-28.014-67.682-28.014
				c-25.581,0-49.617,9.949-67.682,28.014S120.227,262.481,120.227,288.061z M278.03,339.518l-43.928-43.928h62.104
				C294.717,311.811,288.429,327.009,278.03,339.518z M296.207,280.532h-62.104l43.928-43.928
				C288.429,249.114,294.717,264.311,296.207,280.532z M223.453,207.777c16.219,1.489,31.417,7.778,43.928,18.177l-43.928,43.928
				V207.777z M223.453,306.24l43.928,43.928c-12.511,10.399-27.708,16.688-43.928,18.177V306.24z M135.641,295.591h62.104
				l-43.928,43.928C143.418,327.009,137.129,311.811,135.641,295.591z M208.394,368.344c-16.22-1.49-31.417-7.778-43.928-18.177
				l43.928-43.928V368.344z M208.394,207.777v62.105l-43.929-43.928C176.976,215.555,192.174,209.267,208.394,207.777z
				 M197.745,280.532h-62.104c1.49-16.22,7.778-31.418,18.177-43.929L197.745,280.532z"/>
			<polygon points="112.212,183.864 127.272,183.864 127.272,143.301 159.817,143.301 159.817,128.242 112.212,128.242 			"/>
			<rect x="175.852" y="128.245" width="16.03" height="15.059"/>
			<rect x="127.753" y="416.791" width="176.334" height="15.059"/>
		</g>
	</g>
</g>
<g>
</g>
<g>
</g>
<g>
</g>
<g>
</g>
<g>
</g>
<g>
</g>
<g>
</g>
<g>
</g>
<g>
</g>
<g>
</g>
<g>
</g>
<g>
</g>
<g>
</g>
<g>
</g>
<g>
</g>
</svg>
