<?xml version="1.0" encoding="iso-8859-1"?>
<!-- Generator: Adobe Illustrator 19.0.0, SVG Export Plug-In . SVG Version: 6.00 Build 0)  -->
<svg version="1.1" id="Capa_1" xmlns="http://www.w3.org/2000/svg" xmlns:xlink="http://www.w3.org/1999/xlink" x="0px" y="0px"
	 viewBox="0 0 512 512" style="enable-background:new 0 0 512 512;" xml:space="preserve">
<g>
	<g>
		<g>
			<path d="M353.103,163.657l-12.529,8.353l20.108,30.163v270.723h-16.03v24.045H167.347v-8.985H288.06v-15.059H151.316V202.173
				l64.121-96.183V71.165h81.123v34.825l27.982,41.974l12.529-8.353l-25.453-38.179V71.165h16.031V0H184.349v71.165h16.03v30.266
				l-64.122,96.183v290.341h16.031V512h207.424v-24.045h16.03V197.614L353.103,163.657z M239.484,15.059h33.031v8.985h-33.031
				V15.059z M199.408,56.106V15.059h25.016v24.045h63.15V15.059h25.018v41.047H199.408z"/>
			<polygon points="335.666,232.439 176.333,232.439 176.333,439.864 223.939,439.864 223.939,424.805 191.393,424.805 
				191.393,247.499 320.606,247.499 320.606,424.805 247.983,424.805 247.983,439.864 335.666,439.864 			"/>
			<rect x="215.919" y="312.591" width="80.156" height="15.059"/>
			<rect x="280.042" y="344.657" width="16.031" height="15.059"/>
			<rect x="247.985" y="344.657" width="16.031" height="15.059"/>
			<rect x="215.919" y="344.657" width="16.031" height="15.059"/>
			<rect x="191.874" y="200.379" width="128.245" height="15.059"/>
		</g>
	</g>
</g>
<g>
</g>
<g>
</g>
<g>
</g>
<g>
</g>
<g>
</g>
<g>
</g>
<g>
</g>
<g>
</g>
<g>
</g>
<g>
</g>
<g>
</g>
<g>
</g>
<g>
</g>
<g>
</g>
<g>
</g>
</svg>
