<?xml version="1.0" encoding="iso-8859-1"?>
<!-- Generator: Adobe Illustrator 19.0.0, SVG Export Plug-In . SVG Version: 6.00 Build 0)  -->
<svg version="1.1" id="Capa_1" xmlns="http://www.w3.org/2000/svg" xmlns:xlink="http://www.w3.org/1999/xlink" x="0px" y="0px"
	 viewBox="0 0 512 512" style="enable-background:new 0 0 512 512;" xml:space="preserve">
<g>
	<g>
		<g>
			<polygon points="463.909,48.091 426.749,48.091 442.782,0 247.984,0 247.984,15.059 421.886,15.059 410.876,48.091 
				239.969,48.091 239.969,63.151 448.849,63.151 448.849,448.849 405.855,448.849 421.886,496.941 215.924,496.941 215.924,512 
				442.782,512 426.749,463.909 463.909,463.909 			"/>
			<polygon points="101.124,463.909 272.03,463.909 272.03,448.849 63.151,448.849 63.151,63.151 106.144,63.151 90.113,15.059 
				223.939,15.059 223.939,0 69.218,0 85.249,48.091 48.091,48.091 48.091,463.909 85.249,463.909 69.218,512 191.879,512 
				191.879,496.941 90.113,496.941 			"/>
			<rect x="288.064" y="448.846" width="16.03" height="15.059"/>
			<rect x="320.12" y="448.846" width="16.03" height="15.059"/>
			<rect x="207.908" y="48.091" width="16.031" height="15.059"/>
			<rect x="175.852" y="48.091" width="16.031" height="15.059"/>
			<path d="M288.061,128.243h-64.121c-35.089,0-63.636,28.547-63.636,63.635v128.243c0,35.089,28.547,63.635,63.636,63.635h64.121
				c35.088,0,63.635-28.547,63.635-63.635v-56.106h-15.059v56.106c0,26.785-21.791,48.576-48.576,48.576h-20.199
				c-4.08-5.871-13.181-20.061-18.861-37.281c-9.509-28.824-5.363-52.407,12.324-70.093c21.635-21.635,28.555-51.131,20.015-85.298
				c-3.32-13.28-8.342-24.758-12.402-32.724h19.123c26.785,0,48.576,21.792,48.576,48.576v48.091h15.06v-48.091
				C351.696,156.789,323.149,128.243,288.061,128.243z M250.676,250.676c-21.816,21.816-27.295,51.504-15.845,85.853
				c4.332,12.997,10.281,24.247,15.079,32.169h-25.97c-26.785,0-48.577-21.792-48.577-48.576V191.879
				c0-26.785,21.792-48.576,48.577-48.576h27.839C259.986,157.415,288.346,213.005,250.676,250.676z"/>
			<polygon points="103.226,103.226 135.772,103.226 135.772,88.167 88.167,88.167 88.167,183.864 103.226,183.864 			"/>
			<rect x="88.167" y="207.908" width="15.059" height="16.03"/>
		</g>
	</g>
</g>
<g>
</g>
<g>
</g>
<g>
</g>
<g>
</g>
<g>
</g>
<g>
</g>
<g>
</g>
<g>
</g>
<g>
</g>
<g>
</g>
<g>
</g>
<g>
</g>
<g>
</g>
<g>
</g>
<g>
</g>
</svg>
