<?xml version="1.0" encoding="iso-8859-1"?>
<!-- Generator: Adobe Illustrator 19.0.0, SVG Export Plug-In . SVG Version: 6.00 Build 0)  -->
<svg version="1.1" id="Capa_1" xmlns="http://www.w3.org/2000/svg" xmlns:xlink="http://www.w3.org/1999/xlink" x="0px" y="0px"
	 viewBox="0 0 511.999 511.999" style="enable-background:new 0 0 511.999 511.999;" xml:space="preserve">
<g>
	<g>
		<g>
			<path d="M311.621,100.784V71.165h24.046V0H176.334v71.165h24.046v29.619l-38.096,41.56l11.101,10.177l37.838-41.277H256V96.184
				h-40.561V71.165h81.123v35.476l87.913,95.905l-1.859,21.878h-46.464v15.059h45.178l-15.22,177.305H207.909v15.059h156.91
				l-3.518,41.047h-16.648v24.046H167.348v-8.986H288.06v-15.059H150.7l-3.518-41.047h36.682v-15.059h-37.973l-15.219-177.305
				h181.436v-15.059H129.384l-1.859-21.878l27.157-29.625l-11.101-10.177l-31.621,34.495l24.916,290.714h15.414v24.046h207.422
				v-24.046h15.414l5.399-62.992l19.516-227.722L311.621,100.784z M191.393,56.106V15.059h25.017v24.532h15.059V15.059h17.001
				v24.532h15.059V15.059h17.002v24.532h15.059V15.059h25.017v41.047H191.393z"/>
			<rect x="175.852" y="192.367" width="160.301" height="15.059"/>
			<path d="M264.738,275.397c0.953-1.905,2.564-3.853,7.293-3.853h16.03v-15.059H272.03c-17.286,0-23.561,14.089-23.561,23.561
				v9.036c-20.952,2.93-39.075,17.86-45.497,38.312c-1.721,5.45-2.593,11.095-2.593,16.774c0,30.67,24.951,55.62,55.62,55.62
				s55.621-24.951,55.621-55.62c0-5.921-0.906-11.693-2.694-17.156c-6.69-20.584-24.422-35.115-45.399-37.95v-9.016
				C263.53,280.023,263.638,277.598,264.738,275.397z M296.39,340.434c0.11,1.232,0.172,2.476,0.172,3.733
				c0,22.365-18.196,40.561-40.562,40.561c-22.365,0-40.561-18.196-40.561-40.561c0-0.643,0.021-1.286,0.052-1.929l15.355,10.235
				l24.576-8.191l16.603,8.302L296.39,340.434z M292.144,325.724l-20.108,10.027l-15.458-7.728l-23.514,7.839l-13.687-9.107
				c6.619-13.859,20.967-23.148,36.622-23.148C271.463,303.605,285.293,312.275,292.144,325.724z"/>
			<rect x="151.807" y="256.489" width="16.031" height="15.059"/>
			<rect x="151.807" y="288.546" width="16.031" height="15.059"/>
			<rect x="336.152" y="384.724" width="16.03" height="15.059"/>
			<rect x="183.863" y="256.489" width="16.031" height="15.059"/>
		</g>
	</g>
</g>
<g>
</g>
<g>
</g>
<g>
</g>
<g>
</g>
<g>
</g>
<g>
</g>
<g>
</g>
<g>
</g>
<g>
</g>
<g>
</g>
<g>
</g>
<g>
</g>
<g>
</g>
<g>
</g>
<g>
</g>
</svg>
