<?xml version="1.0" encoding="iso-8859-1"?>
<!-- Generator: Adobe Illustrator 19.0.0, SVG Export Plug-In . SVG Version: 6.00 Build 0)  -->
<svg version="1.1" id="Capa_1" xmlns="http://www.w3.org/2000/svg" xmlns:xlink="http://www.w3.org/1999/xlink" x="0px" y="0px"
	 viewBox="0 0 512 512" style="enable-background:new 0 0 512 512;" xml:space="preserve">
<g>
	<g>
		<g>
			<path d="M429.177,322.257V132.517H404.33V99.388h-33.129v-18.07h33.882c8.719,0,15.812-7.093,15.812-15.813V15.812
				C420.894,7.093,413.8,0,405.082,0H289.129v15.06h115.953c0.394,0,0.752,0.358,0.752,0.752v49.694
				c0,0.395-0.358,0.753-0.752,0.753H106.918c-0.394,0-0.753-0.358-0.753-0.753V15.812c0-0.394,0.358-0.752,0.753-0.752h157.364V0
				H106.918C98.2,0,91.105,7.093,91.105,15.812v49.694c0,8.72,7.093,15.813,15.813,15.813h33.881v18.07H107.67v33.128H82.824V441.33
				l24.847,24.847V512h296.659v-45.824l24.847-24.847v-94.225h-15.06v58.728H123.483v15.06h290.634v14.199l-24.847,24.847v37.001
				H122.73v-37.001l-24.847-24.847V188.989h316.233v133.269H429.177z M155.859,81.319H356.14v18.07H155.859V81.319z
				 M414.116,173.929H97.883v-26.353h24.847v-33.128h266.539v33.128h24.847V173.929z"/>
			<rect x="148.328" y="132.516" width="215.344" height="15.06"/>
			<rect x="148.328" y="455.527" width="215.344" height="15.06"/>
			<path d="M244.806,367.184c11.18,11.133,25.846,16.698,40.503,16.698c14.66,0,29.313-5.571,40.452-16.709
				c22.274-22.275,22.279-58.59,0.011-80.955l-0.029-0.029c-11.24-11.162-26.339-17.066-41.841-16.678
				c0.394-15.485-5.521-30.606-16.708-41.87c-22.364-22.269-58.681-22.262-80.954,0.011c-22.274,22.275-22.279,58.59,0.018,80.984
				c11.241,11.163,26.358,17.091,41.841,16.679C227.704,340.799,233.619,355.92,244.806,367.184z M196.899,297.979
				c-16.421-16.492-16.426-43.265-0.011-59.679c16.416-16.418,43.187-16.409,59.651-0.019
				c10.011,10.079,14.297,24.375,11.464,38.244l-2.28,11.162l11.163-2.279c13.861-2.827,28.151,1.451,38.229,11.449
				c16.406,16.493,16.407,43.255-0.003,59.665c-16.416,16.416-43.188,16.411-59.651,0.019
				c-10.011-10.079-14.297-24.375-11.465-38.244l2.28-11.163l-11.163,2.28C221.243,312.248,206.948,307.96,196.899,297.979z"/>
			
				<rect x="218.441" y="248.888" transform="matrix(0.7071 0.7071 -0.7071 0.7071 247.7191 -85.2149)" width="16.565" height="15.059"/>
			
				<rect x="219.187" y="271.54" transform="matrix(0.7071 -0.7071 0.7071 0.7071 -131.4608 242.2695)" width="15.059" height="16.565"/>
			
				<rect x="282.853" y="313.305" transform="matrix(0.7071 0.7071 -0.7071 0.7071 312.1363 -111.8935)" width="16.565" height="15.06"/>
			<polygon points="131.013,222.117 156.612,222.117 156.612,207.057 115.953,207.057 115.953,289.129 131.013,289.129 			"/>
			<rect x="115.95" y="305.693" width="15.06" height="16.564"/>
			<rect x="380.991" y="371.956" width="15.06" height="16.565"/>
			<rect x="380.991" y="338.824" width="15.06" height="16.565"/>
			<rect x="347.86" y="371.956" width="15.06" height="16.565"/>
		</g>
	</g>
</g>
<g>
</g>
<g>
</g>
<g>
</g>
<g>
</g>
<g>
</g>
<g>
</g>
<g>
</g>
<g>
</g>
<g>
</g>
<g>
</g>
<g>
</g>
<g>
</g>
<g>
</g>
<g>
</g>
<g>
</g>
</svg>
