<?xml version="1.0" encoding="iso-8859-1"?>
<!-- Generator: Adobe Illustrator 19.0.0, SVG Export Plug-In . SVG Version: 6.00 Build 0)  -->
<svg version="1.1" id="Capa_1" xmlns="http://www.w3.org/2000/svg" xmlns:xlink="http://www.w3.org/1999/xlink" x="0px" y="0px"
	 viewBox="0 0 512 512" style="enable-background:new 0 0 512 512;" xml:space="preserve">
<g>
	<g>
		<g>
			<rect x="263.31" y="467.715" width="14.616" height="15.05"/>
			<rect x="292.536" y="467.715" width="14.616" height="15.05"/>
			<path d="M380.454,212.151V95.005h-36.541V73.08h-36.54V51.59h29.233V0h-44.066v15.05h29.016v21.491H190.444V15.05h80.173V0
				h-95.222v51.59h29.233v21.49h-36.54v21.925h-21.708c-8.179,0-14.833,6.654-14.833,14.832v117.147h14.616v14.4h15.05v-14.4
				h189.576v65.339H161.211v-29.016h-15.05v29.027c-8.079,0.117-14.616,6.716-14.616,14.822v175.61h30.882L169.736,512h108.188
				v-15.05h-96.438l-3.546-14.184h70.752v-15.05H146.595v-43.415h218.809v43.414h-27.583l-7.308,29.234h-30.664v15.05h42.415
				l7.308-29.234h16.049c8.179,0,14.833-6.654,14.833-14.832V292.322h-14.615v-65.35
				C373.917,226.855,380.454,220.256,380.454,212.151z M219.676,51.59h72.648v21.49h-72.648V51.59z M146.595,211.934V168.52h218.809
				v43.414H146.595z M146.595,307.373h218.809v43.414H146.595V307.373z M146.595,409.252v-43.414h218.809v43.414H146.595z
				 M365.405,153.47h-218.81v-43.414h160.561v-15.05H183.136V88.13h145.728v21.925h36.541V153.47z"/>
			<polygon points="175.394,241.383 175.394,278.141 256,278.141 256,263.091 190.444,263.091 190.444,241.383 			"/>
			<rect x="270.614" y="263.089" width="14.616" height="15.05"/>
			<rect x="299.85" y="263.089" width="14.616" height="15.05"/>
		</g>
	</g>
</g>
<g>
</g>
<g>
</g>
<g>
</g>
<g>
</g>
<g>
</g>
<g>
</g>
<g>
</g>
<g>
</g>
<g>
</g>
<g>
</g>
<g>
</g>
<g>
</g>
<g>
</g>
<g>
</g>
<g>
</g>
</svg>
