<?xml version="1.0" encoding="iso-8859-1"?>
<!-- Generator: Adobe Illustrator 19.0.0, SVG Export Plug-In . SVG Version: 6.00 Build 0)  -->
<svg version="1.1" id="Capa_1" xmlns="http://www.w3.org/2000/svg" xmlns:xlink="http://www.w3.org/1999/xlink" x="0px" y="0px"
	 viewBox="0 0 512 512" style="enable-background:new 0 0 512 512;" xml:space="preserve">
<g>
	<g>
		<g>
			<polygon points="438.713,48.091 430.697,0 320.122,0 320.122,15.059 417.94,15.059 423.445,48.091 239.969,48.091 
				239.969,63.151 448.849,63.151 448.849,96.183 63.151,96.183 63.151,63.151 86.046,63.151 94.06,15.059 296.076,15.059 
				296.076,0 81.303,0 73.288,48.091 48.091,48.091 48.091,463.909 73.288,463.909 81.303,512 143.788,512 143.788,496.941 
				94.06,496.941 88.554,463.909 272.031,463.909 272.031,448.849 63.151,448.849 63.151,111.242 448.849,111.242 448.849,400.759 
				87.681,400.759 87.681,415.818 448.849,415.818 448.849,448.849 425.955,448.849 417.94,496.941 167.834,496.941 167.834,512 
				430.697,512 438.713,463.909 463.909,463.909 463.909,48.091 			"/>
			<rect x="288.064" y="448.846" width="16.031" height="15.059"/>
			<rect x="320.12" y="448.846" width="16.031" height="15.059"/>
			<rect x="207.908" y="48.091" width="16.03" height="15.059"/>
			<rect x="175.852" y="48.091" width="16.03" height="15.059"/>
			<polygon points="95.211,143.302 119.742,143.302 119.742,128.243 80.151,128.243 80.151,175.848 95.211,175.848 			"/>
			<path d="M223.939,176.334h-71.651v159.333h207.423V176.334H247.985v15.059h48.577v129.215H167.348V191.393h56.592V176.334z
				 M311.621,191.393h33.031v129.215h-33.031V191.393z"/>
			<rect x="191.875" y="272.513" width="16.03" height="15.059"/>
			<rect x="207.908" y="256.489" width="16.03" height="15.059"/>
			<rect x="255.997" y="280.534" width="16.031" height="15.059"/>
			<rect x="255.997" y="248.468" width="16.031" height="15.059"/>
			<rect x="223.941" y="216.412" width="16.03" height="15.059"/>
			<rect x="80.155" y="191.875" width="15.059" height="16.03"/>
			<polygon points="416.789,344.167 416.789,368.698 384.243,368.698 384.243,383.757 431.849,383.757 431.849,344.167 			"/>
		</g>
	</g>
</g>
<g>
</g>
<g>
</g>
<g>
</g>
<g>
</g>
<g>
</g>
<g>
</g>
<g>
</g>
<g>
</g>
<g>
</g>
<g>
</g>
<g>
</g>
<g>
</g>
<g>
</g>
<g>
</g>
<g>
</g>
</svg>
