<?xml version="1.0" encoding="iso-8859-1"?>
<!-- Generator: Adobe Illustrator 19.0.0, SVG Export Plug-In . SVG Version: 6.00 Build 0)  -->
<svg version="1.1" id="Capa_1" xmlns="http://www.w3.org/2000/svg" xmlns:xlink="http://www.w3.org/1999/xlink" x="0px" y="0px"
	 viewBox="0 0 512 512" style="enable-background:new 0 0 512 512;" xml:space="preserve">
<g>
	<g>
		<g>
			<polygon points="15.059,55.135 136.258,55.135 136.258,79.667 151.317,79.667 151.317,40.076 15.059,40.076 15.059,15.059 
				63.635,15.059 63.635,0 0,0 0,512 231.955,512 231.955,496.941 15.059,496.941 			"/>
			<polygon points="496.941,496.941 256,496.941 256,512 512,512 512,223.939 496.941,223.939 			"/>
			<path d="M87.681,0v15.059h80.637v208.394h55.62v-15.059h-40.561v-33.031h145.244v33.031h-80.636v15.059h95.696V15.059H496.94
				v25.016H360.682v39.591h15.059V55.135h121.199v144.758H512V0H87.681z M328.622,160.304H183.379V15.059h145.244V160.304z"/>
			<rect x="207.908" y="48.09" width="96.179" height="15.059"/>
			<rect x="215.92" y="80.155" width="16.03" height="15.059"/>
			<rect x="247.986" y="80.155" width="16.03" height="15.059"/>
			<rect x="280.042" y="80.155" width="16.03" height="15.059"/>
			<rect x="167.83" y="376.713" width="16.031" height="15.059"/>
			<rect x="199.897" y="376.713" width="16.031" height="15.059"/>
			<rect x="231.953" y="376.713" width="112.212" height="15.059"/>
			<path d="M48.091,463.909h95.211v-95.211H48.091V463.909z M128.243,448.849H73.799l54.443-54.443V448.849z M63.151,383.757h54.443
				L63.15,438.201C63.15,438.201,63.15,383.757,63.151,383.757z"/>
			<path d="M168.319,455.894h159.332v-47.12H168.319V455.894z M183.379,423.833h129.214v17.002H183.379V423.833z"/>
			<rect x="136.256" y="95.697" width="15.059" height="16.031"/>
			<rect x="360.68" y="95.697" width="15.059" height="16.031"/>
		</g>
	</g>
</g>
<g>
</g>
<g>
</g>
<g>
</g>
<g>
</g>
<g>
</g>
<g>
</g>
<g>
</g>
<g>
</g>
<g>
</g>
<g>
</g>
<g>
</g>
<g>
</g>
<g>
</g>
<g>
</g>
<g>
</g>
</svg>
