<?xml version="1.0" encoding="iso-8859-1"?>
<!-- Generator: Adobe Illustrator 19.0.0, SVG Export Plug-In . SVG Version: 6.00 Build 0)  -->
<svg version="1.1" id="Capa_1" xmlns="http://www.w3.org/2000/svg" xmlns:xlink="http://www.w3.org/1999/xlink" x="0px" y="0px"
	 viewBox="0 0 512 512" style="enable-background:new 0 0 512 512;" xml:space="preserve">
<g>
	<g>
		<g>
			<path d="M512,207.007v-34.996c0-38.887-31.638-70.524-70.525-70.524h-13.999h-139.98v15.066h82.496
				c-16.445,12.922-27.037,32.97-27.037,55.458v167.978c0,22.488,10.593,42.536,27.038,55.459H196.508
				c-30.58,0-55.459-24.879-55.459-55.459V172.011c0-30.579,24.879-55.458,55.459-55.458H266.5v-15.066h-69.992
				c-38.887,0-70.525,31.637-70.525,70.524v97.453H52.898l2.339,9.36c0.523,2.088,0.755,3.683,0.755,5.172
				c0,11.283-9.18,20.464-20.463,20.464s-20.464-9.179-20.464-20.463c0-11.284,9.181-20.463,20.464-20.463
				c3.519,0,6.964,0.956,10.238,2.843l7.521-13.055c-5.512-3.176-11.654-4.854-17.759-4.854c-11.283,0-20.464-9.181-20.464-20.464
				s9.181-20.463,20.464-20.463c11.283,0,20.463,9.18,20.463,20.463c0,1.49-0.232,3.084-0.755,5.172l-2.34,9.36h52.624v-15.066
				H71.054c-0.286-19.346-16.112-34.995-35.525-34.995C15.938,192.475,0,208.413,0,228.003C0,239.366,5.367,249.492,13.694,256
				C5.367,262.508,0,272.634,0,283.996c0,19.591,15.938,35.53,35.53,35.53c19.412,0,35.238-15.65,35.525-34.996h54.929v55.459
				c0,38.887,31.638,70.525,70.525,70.525h244.967c38.887,0,70.525-31.638,70.525-70.525V228.003h-15.066v111.985
				c0,30.58-24.879,55.459-55.459,55.459h-6.999h-20.996c-30.58,0-55.459-24.879-55.459-55.459V172.011
				c0-30.579,24.879-55.458,55.459-55.458h27.996c30.58,0,55.459,24.879,55.459,55.458v34.996H512z"/>
			<path d="M470.006,193.008c0-23.45-19.078-42.528-42.529-42.528c-23.45,0-42.528,19.078-42.528,42.528
				c0,23.45,19.078,42.528,42.528,42.528C450.928,235.536,470.006,216.458,470.006,193.008z M427.477,220.47
				c-15.143,0-27.463-12.319-27.463-27.463c0-15.143,12.32-27.463,27.463-27.463s27.464,12.32,27.464,27.463
				S442.62,220.47,427.477,220.47z"/>
			<path d="M377.951,339.988c0,14.282,9.462,35.53,35.53,35.53h13.998v-15.066H413.48c-8.481,0-14.228-3.094-17.567-9.459
				c-2.794-5.326-2.896-10.993-2.897-11.005v-34.995h-15.066V339.988z"/>
			<rect x="377.955" y="276.995" width="15.066" height="13.999"/>
			<rect x="377.955" y="249.004" width="15.066" height="13.999"/>
			<rect x="419.947" y="186.009" width="15.066" height="13.999"/>
			<path d="M178.941,357.992c-2.794-5.325-2.896-10.992-2.897-11.049l-15.066,0.045c0,14.282,9.462,35.529,35.53,35.529h104.986
				v-15.066H196.508C188.027,367.451,182.28,364.357,178.941,357.992z"/>
		</g>
	</g>
</g>
<g>
</g>
<g>
</g>
<g>
</g>
<g>
</g>
<g>
</g>
<g>
</g>
<g>
</g>
<g>
</g>
<g>
</g>
<g>
</g>
<g>
</g>
<g>
</g>
<g>
</g>
<g>
</g>
<g>
</g>
</svg>
