<?xml version="1.0" encoding="iso-8859-1"?>
<!-- Generator: Adobe Illustrator 19.0.0, SVG Export Plug-In . SVG Version: 6.00 Build 0)  -->
<svg version="1.1" id="Capa_1" xmlns="http://www.w3.org/2000/svg" xmlns:xlink="http://www.w3.org/1999/xlink" x="0px" y="0px"
	 viewBox="0 0 512 512" style="enable-background:new 0 0 512 512;" xml:space="preserve">
<g>
	<g>
		<g>
			<rect x="31.659" y="308.173" width="15.059" height="80.155"/>
			<path d="M512,231.955V88.167H239.969v15.059h160.789v105.169H290.86c-17.063-29.78-48.433-48.091-82.951-48.091
				c-34.519,0-65.888,18.311-82.951,48.091H15.059V103.226h200.865V88.167H0v335.666h103.711v-15.059H15.059V303.606h109.898
				c17.062,29.78,48.433,48.09,82.951,48.09s65.888-18.31,82.951-48.09h109.898v105.168H127.757v15.059h384.242V256H496.94v152.773
				h-81.123V113.875l33.032,33.031v197.26h15.059v-197.26l33.032-33.031v118.08H512z M400.759,248.471h-0.001h-72.622v15.059h72.622
				v25.016H281.77l-2.097,4.102c-13.872,27.133-41.37,43.988-71.764,43.988s-57.894-16.855-71.764-43.988l-2.097-4.102H15.059
				V263.53h72.622v-15.059H15.059v-25.016h118.988l2.097-4.102c13.872-27.134,41.371-43.989,71.764-43.989
				s57.893,16.855,71.764,43.989l2.097,4.102h118.988V248.471z M456.379,133.139l-29.913-29.913h59.825L456.379,133.139z"/>
			<path d="M207.909,208.395c-26.249,0-47.605,21.355-47.605,47.605c0,26.25,21.356,47.605,47.605,47.605
				c26.249,0,47.605-21.355,47.605-47.605C255.515,229.75,234.159,208.395,207.909,208.395z M207.909,288.547
				c-17.946,0-32.546-14.6-32.546-32.546c0-17.946,14.6-32.546,32.546-32.546s32.546,14.6,32.546,32.546
				C240.455,273.946,225.855,288.547,207.909,288.547z"/>
			<rect x="296.075" y="248.468" width="16.03" height="15.059"/>
			<rect x="103.708" y="248.468" width="16.03" height="15.059"/>
			<rect x="448.846" y="360.198" width="15.059" height="16.03"/>
			<polygon points="47.119,175.848 47.119,135.287 71.651,135.287 71.651,120.228 32.06,120.228 32.06,175.848 			"/>
			<rect x="368.209" y="376.713" width="16.03" height="15.059"/>
			<rect x="336.153" y="376.713" width="16.03" height="15.059"/>
		</g>
	</g>
</g>
<g>
</g>
<g>
</g>
<g>
</g>
<g>
</g>
<g>
</g>
<g>
</g>
<g>
</g>
<g>
</g>
<g>
</g>
<g>
</g>
<g>
</g>
<g>
</g>
<g>
</g>
<g>
</g>
<g>
</g>
</svg>
