<?xml version="1.0" encoding="iso-8859-1"?>
<!-- Generator: Adobe Illustrator 19.0.0, SVG Export Plug-In . SVG Version: 6.00 Build 0)  -->
<svg version="1.1" id="Capa_1" xmlns="http://www.w3.org/2000/svg" xmlns:xlink="http://www.w3.org/1999/xlink" x="0px" y="0px"
	 viewBox="0 0 512 512" style="enable-background:new 0 0 512 512;" xml:space="preserve">
<g>
	<g>
		<g>
			<path d="M495.515,496.485L495.515,496.485v-32.001h-24V215.516h11.598l28.403-28.403V0.484H0.484v55.515h15.031V15.515h72.969
				v80.484h15.031V15.515h64.969v136.968h-64.485v15.031h304v-15.031h-64.485V15.515h64.969v80.484h15.031V15.515h72.969v165.372
				l-19.598,19.598H280v15.031h176.484v248.969h-32.969v-192H264.484v191.999H55.516V215.516H256v-15.031H35.113l-19.598-19.598
				V79.999H0.484v107.113l28.403,28.403h11.598v248.969h-24v32H0v15.031h512v-15.031H495.515z M183.516,152.484V15.515h64.969
				v80.484h15.031V15.515h64.969v136.968H183.516z M279.515,287.515h56.97v80.484h15.031v-80.484h56.97v176.968h-56.97v-72.484
				h-15.031v72.484h-56.97V287.515z M480.485,496.484L480.485,496.484H31.516v-16.97h448.97V496.484z"/>
			<rect x="88.481" y="111.999" width="15.031" height="16"/>
			<rect x="248.489" y="111.999" width="15.031" height="16"/>
			<rect x="408.486" y="111.999" width="15.031" height="16"/>
			<rect x="368.003" y="368.484" width="16" height="15.031"/>
			<rect x="304.002" y="368.484" width="16" height="15.031"/>
			<rect x="328.001" y="240.482" width="95.996" height="15.031"/>
			<path d="M239.515,439.515V248.484H80.485v191.031H239.515z M167.515,263.515h56.97v72.969h-56.97V263.515z M167.515,351.515
				h56.97v72.968h-56.97V351.515z M95.516,263.515h56.97v72.969h-56.97V263.515z M95.516,351.515h56.97v72.968h-56.97V351.515z"/>
			<rect x="264" y="240.482" width="16" height="15.031"/>
			<rect x="295.996" y="240.482" width="16" height="15.031"/>
		</g>
	</g>
</g>
<g>
</g>
<g>
</g>
<g>
</g>
<g>
</g>
<g>
</g>
<g>
</g>
<g>
</g>
<g>
</g>
<g>
</g>
<g>
</g>
<g>
</g>
<g>
</g>
<g>
</g>
<g>
</g>
<g>
</g>
</svg>
