<?xml version="1.0" encoding="iso-8859-1"?>
<!-- Generator: Adobe Illustrator 19.0.0, SVG Export Plug-In . SVG Version: 6.00 Build 0)  -->
<svg version="1.1" id="Capa_1" xmlns="http://www.w3.org/2000/svg" xmlns:xlink="http://www.w3.org/1999/xlink" x="0px" y="0px"
	 viewBox="0 0 512.001 512.001" style="enable-background:new 0 0 512.001 512.001;" xml:space="preserve">
<g>
	<g>
		<g>
			<path d="M312.107,0v15.059h184.834v145.245H183.864v15.059h224.911v33.031h-16.516v15.059h16.516v49.062H103.227v-49.062h16.516
				v-15.059h-16.516v-33.031h56.592v-15.059H15.06V15.059h273.001V0H0v175.363h40.076v33.031H23.561v15.059h16.516v49.062H20.442
				L0,292.958v38.298l12.912,12.912L0,357.079v38.298l12.912,12.912L0,421.201v38.297l20.44,20.441h3.604V512h167.834v-15.059
				H39.105v-17.002h305.063V464.88H26.68l-11.62-11.619v-25.823l11.62-11.62h458.642l11.619,11.62v25.823l-11.619,11.62h-12.426
				v32.061H215.924v15.059h272.031V479.94h3.604L512,459.498v-38.297l-12.911-12.912L512,395.378V357.08l-12.911-12.912L512,331.258
				V292.96l-20.44-20.441h-19.635v-49.062h16.516v-15.059h-16.516v-33.031H512v-0.003V0H312.107z M423.834,175.363h33.031v33.031
				h-33.031V175.363z M423.834,223.453h33.031v49.062h-33.031V223.453z M55.136,175.363h33.032v33.031H55.136V175.363z
				 M55.136,223.453h33.032v49.062H55.136V223.453z M485.321,400.758H26.68l-11.62-11.619v-25.824l11.62-11.62h458.642l11.619,11.62
				v25.824h0.001L485.321,400.758z M485.323,287.575l11.619,11.62v25.824l-11.619,11.619H26.68l-11.62-11.619v-25.824l11.62-11.62
				H485.323z"/>
			<rect x="360.198" y="464.88" width="16.03" height="15.059"/>
			<rect x="392.254" y="464.88" width="16.03" height="15.059"/>
			<rect x="456.377" y="432.823" width="16.03" height="15.059"/>
			<rect x="39.591" y="432.823" width="16.03" height="15.059"/>
			<rect x="39.591" y="368.701" width="16.03" height="15.059"/>
			<rect x="39.591" y="304.579" width="16.03" height="15.059"/>
			<rect x="456.377" y="304.579" width="16.03" height="15.059"/>
			<rect x="456.377" y="368.701" width="16.03" height="15.059"/>
			<polygon points="159.333,71.651 159.333,40.076 96.183,40.076 96.183,95.212 144.273,95.212 144.273,120.228 111.242,120.228 
				111.242,111.727 96.183,111.727 96.183,135.287 159.333,135.287 159.333,80.152 111.242,80.152 111.242,55.135 144.273,55.135 
				144.273,71.651 			"/>
			<polygon points="247.501,135.772 247.501,39.591 232.441,39.591 232.441,80.152 191.394,80.152 191.394,39.591 176.334,39.591 
				176.334,135.772 191.394,135.772 191.394,95.212 232.441,95.212 232.441,135.772 			"/>
			<path d="M264.501,135.287h71.166V40.076h-71.166V135.287z M279.561,55.135h41.048v65.093h-41.048V55.135z"/>
			<path d="M415.818,103.226V40.076h-63.149v95.697h15.059v-32.546H415.818z M367.728,55.135h33.031v33.032h-33.031V55.135z"/>
			<polygon points="47.121,47.12 63.636,47.12 63.636,32.061 32.062,32.061 32.062,95.697 47.121,95.697 			"/>
			<rect x="32.062" y="111.73" width="15.059" height="16.031"/>
			<rect x="464.398" y="128.245" width="16.031" height="15.059"/>
			<rect x="464.398" y="96.179" width="16.031" height="15.059"/>
			<rect x="432.332" y="128.245" width="16.031" height="15.059"/>
		</g>
	</g>
</g>
<g>
</g>
<g>
</g>
<g>
</g>
<g>
</g>
<g>
</g>
<g>
</g>
<g>
</g>
<g>
</g>
<g>
</g>
<g>
</g>
<g>
</g>
<g>
</g>
<g>
</g>
<g>
</g>
<g>
</g>
</svg>
