<?xml version="1.0" encoding="iso-8859-1"?>
<!-- Generator: Adobe Illustrator 19.0.0, SVG Export Plug-In . SVG Version: 6.00 Build 0)  -->
<svg version="1.1" id="Capa_1" xmlns="http://www.w3.org/2000/svg" xmlns:xlink="http://www.w3.org/1999/xlink" x="0px" y="0px"
	 viewBox="0 0 512.001 512.001" style="enable-background:new 0 0 512.001 512.001;" xml:space="preserve">
<g>
	<g>
		<g>
			<rect x="115.736" y="64.121" width="80.156" height="15.059"/>
			<polygon points="251.993,47.121 276.524,47.121 276.524,55.62 291.584,55.62 291.584,32.061 251.993,32.061 			"/>
			<rect x="276.529" y="71.652" width="15.059" height="16.03"/>
			<path d="M470.338,259.531c-12.813-18.265-30.213-32.426-50.512-41.203V98.283l-31.055-10.351l-17.036,3.237V64.121h-48.091V0
				H172.326v31.574h15.059V15.059h121.199v88.13l-4.504,0.87L235.478,90.99V32.061H76.144v60.644l-25.052-4.772L20.038,98.284
				v141.685h15.059V109.138l17.036-5.678l83.639,15.933l84.089-16.032l0.557,0.105v0.245h1.287l82.396,15.683l83.628-15.935
				l17.037,5.679v103.782c-10.536-3.006-21.441-4.526-32.546-4.526c-66.026,0-119.742,53.716-119.742,119.742
				s53.716,119.742,119.742,119.742c11.11,0,22.02-1.521,32.546-4.524v53.586H35.098V264.016H20.038v247.985h399.788v-74.05
				c10.603-4.591,20.466-10.682,29.374-18.16l-9.681-11.535c-8.965,7.524-19.028,13.448-29.941,17.617
				c-11.904,4.609-24.473,6.946-37.357,6.946c-57.722,0-104.683-46.96-104.683-104.683s46.96-104.683,104.683-104.683
				c12.882,0,25.451,2.337,37.388,6.958c40.25,15.381,67.294,54.653,67.294,97.725c0,23.739-7.755,46.114-22.425,64.702l11.822,9.33
				c16.789-21.273,25.663-46.873,25.663-74.031C491.963,303.42,484.485,279.696,470.338,259.531z M220.418,88.14l-0.574-0.108
				l-84.071,16.03l-44.57-8.489V47.121h129.215V88.14z M356.676,94.031l-33.032,6.277V79.181h33.032V94.031z"/>
			<polygon points="403.796,312.107 403.796,280.532 379.751,280.532 379.751,264.016 364.691,264.016 364.691,280.532 
				340.646,280.532 340.646,335.667 388.737,335.667 388.737,360.683 355.705,360.683 355.705,352.183 340.646,352.183 
				340.646,375.742 364.691,375.742 364.691,392.259 379.751,392.259 379.751,375.742 403.796,375.742 403.796,320.607 
				355.705,320.607 355.705,295.591 388.737,295.591 388.737,312.107 			"/>
			<rect x="292.071" y="320.612" width="16.03" height="15.059"/>
			<rect x="436.339" y="320.612" width="16.03" height="15.059"/>
			<rect x="59.625" y="136.257" width="16.03" height="15.059"/>
			<rect x="59.625" y="464.88" width="16.03" height="15.059"/>
			<rect x="364.205" y="464.88" width="16.03" height="15.059"/>
			<rect x="91.692" y="136.257" width="16.03" height="15.059"/>
			<rect x="131.769" y="136.257" width="248.468" height="15.059"/>
		</g>
	</g>
</g>
<g>
</g>
<g>
</g>
<g>
</g>
<g>
</g>
<g>
</g>
<g>
</g>
<g>
</g>
<g>
</g>
<g>
</g>
<g>
</g>
<g>
</g>
<g>
</g>
<g>
</g>
<g>
</g>
<g>
</g>
</svg>
