<?xml version="1.0" encoding="iso-8859-1"?>
<!-- Generator: Adobe Illustrator 19.0.0, SVG Export Plug-In . SVG Version: 6.00 Build 0)  -->
<svg version="1.1" id="Capa_1" xmlns="http://www.w3.org/2000/svg" xmlns:xlink="http://www.w3.org/1999/xlink" x="0px" y="0px"
	 viewBox="0 0 512 512" style="enable-background:new 0 0 512 512;" xml:space="preserve">
<g>
	<g>
		<g>
			<polygon points="295.59,32.061 295.59,0 216.411,0 216.411,32.061 151.802,32.061 151.802,47.12 256,47.12 256,32.061 
				231.47,32.061 231.47,15.059 280.531,15.059 280.531,47.12 496.941,47.12 496.941,336.638 432.334,336.638 432.334,351.697 
				512,351.697 512,32.061 			"/>
			<path d="M15.059,47.12h112.699V32.061H0v319.636h224.425v25.016h-16.516v15.059h16.516v32.546h15.059v-32.546h33.031v105.168
				h-33.031v-48.576h-15.059V512h63.15V391.773h16.516v-15.059h-16.516v-25.016h120.713v-15.059H15.059V47.12z M239.484,351.697
				h33.031v25.016h-33.031V351.697z"/>
			<rect x="31.575" y="64.121" width="16.03" height="15.059"/>
			<rect x="63.641" y="64.121" width="16.03" height="15.059"/>
			<rect x="31.575" y="96.179" width="16.03" height="15.059"/>
			<rect x="464.398" y="304.579" width="16.03" height="15.059"/>
			<rect x="464.398" y="272.513" width="16.03" height="15.059"/>
			<polygon points="159.332,143.788 159.332,112.213 96.183,112.213 96.183,191.393 144.273,191.393 144.273,240.455 
				111.242,240.455 111.242,223.939 96.183,223.939 96.183,255.515 159.332,255.515 159.332,176.334 111.242,176.334 
				111.242,127.272 144.273,127.272 144.273,143.788 			"/>
			<path d="M255.515,256.001L255.515,256.001V112.213H184.35v143.788h15.059v-56.592h41.047v56.592H255.515z M199.409,184.35
				v-57.078h41.047v57.078H199.409z"/>
			<polygon points="280.531,111.728 280.531,255.515 336.152,255.515 336.152,240.455 295.59,240.455 295.59,111.728 			"/>
			<polygon points="352.668,255.515 408.289,255.515 408.289,240.455 367.727,240.455 367.727,191.393 408.289,191.393 
				408.289,176.334 367.727,176.334 367.727,127.272 408.289,127.272 408.289,112.213 352.668,112.213 			"/>
		</g>
	</g>
</g>
<g>
</g>
<g>
</g>
<g>
</g>
<g>
</g>
<g>
</g>
<g>
</g>
<g>
</g>
<g>
</g>
<g>
</g>
<g>
</g>
<g>
</g>
<g>
</g>
<g>
</g>
<g>
</g>
<g>
</g>
</svg>
