<?xml version="1.0" encoding="iso-8859-1"?>
<!-- Generator: Adobe Illustrator 19.0.0, SVG Export Plug-In . SVG Version: 6.00 Build 0)  -->
<svg version="1.1" id="Capa_1" xmlns="http://www.w3.org/2000/svg" xmlns:xlink="http://www.w3.org/1999/xlink" x="0px" y="0px"
	 viewBox="0 0 512 512" style="enable-background:new 0 0 512 512;" xml:space="preserve">
<g>
	<g>
		<g>
			<path d="M472.41,160.302c-0.044,0-0.088,0-0.133,0C446.432,93.696,358.525,24.045,256,24.045
				c-11.009,0-22.159,0.807-33.141,2.399l2.161,14.905c10.269-1.489,20.691-2.244,30.98-2.244
				c45.728,0,92.558,15.216,131.868,42.845c35.254,24.779,61.567,57.16,72.193,88.84l2.09,6.233l6.457-1.231
				c1.536-0.292,2.744-0.429,3.801-0.429c13.527,0,24.531,11.004,24.531,24.532c0,13.527-11.004,24.531-24.531,24.531
				c-1.046,0-2.289-0.141-3.801-0.428l-6.452-1.23l-2.093,6.225c-11.252,33.461-39.653,67.257-77.034,92.196
				c-3.433-35.201-18.898-67.83-44.338-92.986c-28.599-28.28-66.505-43.856-106.736-43.856c-34.578,0-67.148,11.328-94.186,32.758
				c-22.797,18.068-40.013,42.515-49.368,69.76c-17.167-18.336-29.955-38.547-36.465-57.876l-2.095-6.223l-6.45,1.23
				c-1.51,0.287-2.753,0.428-3.8,0.428c-13.527,0-24.532-11.004-24.532-24.532c0-13.527,11.004-24.531,24.532-24.531
				c1.058,0,2.266,0.137,3.8,0.429l6.458,1.231l2.09-6.232C67.702,123.791,124.227,65.836,201.76,46.001l-3.732-14.588
				c-37.681,9.64-73.305,28.39-103.017,54.224c-25.779,22.413-45.221,48.721-55.288,74.667c-0.044,0-0.088,0-0.133,0
				C17.76,160.302,0,178.063,0,199.893s17.76,39.591,39.591,39.591c0.047,0,0.094,0,0.142,0
				c8.537,21.895,23.922,44.341,43.96,64.128c-2.348,10.485-3.539,21.409-3.539,32.539c0,83.704,68.098,151.803,151.802,151.803
				c43.118,0,84.355-18.442,113.138-50.597l-11.22-10.044c-25.93,28.968-63.078,45.581-101.919,45.581
				c-75.401,0-136.743-61.343-136.743-136.744c0-11.39,1.376-22.517,4.108-33.135c15.113-61.003,69.655-103.608,132.635-103.608
				c74.492,0,135.836,60.592,136.743,134.98v1.763c0,24.041-6.326,47.682-18.294,68.367l13.035,7.542
				c12.877-22.257,19.852-47.588,20.276-73.412c41.699-25.767,74.249-62.259,88.561-99.164c0.044,0,0.089,0,0.134,0
				c21.83,0,39.591-17.76,39.591-39.591S494.24,160.302,472.41,160.302z"/>
			<path d="M80.152,207.909h15.059c0-66.562,72.13-120.713,160.789-120.713V72.136c-46.608,0-90.5,13.883-123.589,39.092
				C98.711,136.902,80.152,171.237,80.152,207.909z"/>
			<rect x="272.031" y="72.136" width="16.031" height="15.059"/>
			<rect x="288.064" y="88.166" width="16.03" height="15.059"/>
			<rect x="400.275" y="216.411" width="16.031" height="15.059"/>
			<rect x="384.242" y="232.444" width="16.03" height="15.059"/>
			<path d="M231.955,224.425c-29.818,0-57.869,11.629-78.984,32.743c-21.114,21.115-32.743,49.166-32.743,78.984
				c0,31.06,12.428,59.852,34.97,81.047c20.859,19.785,48.119,30.681,76.757,30.681c29.819,0,57.871-11.628,78.985-32.743
				s32.742-49.165,32.742-78.984c0-28.638-10.896-55.898-30.658-76.733C291.805,236.852,263.014,224.425,231.955,224.425z
				 M158.501,273.346l55.276,55.276h-78.198C137.149,308.149,145.111,288.95,158.501,273.346z M135.572,343.681h82.213
				l-57.375,57.375C145.841,385.172,137.205,365.223,135.572,343.681z M224.425,432.502c-19.419-1.511-37.806-8.841-53.021-21.142
				l53.021-53.021V432.502z M224.425,317.972l-55.276-55.276c15.603-13.39,34.803-21.351,55.276-22.922V317.972z M239.484,239.768
				c21.534,1.632,41.479,10.265,57.374,24.839l-57.374,57.374V239.768z M239.484,432.528V354.33l55.277,55.277
				C279.158,422.995,259.957,430.957,239.484,432.528z M305.41,398.957l-55.277-55.276h78.198
				C326.761,364.153,318.799,383.353,305.41,398.957z M254.142,328.622l53.022-53.022c12.296,15.203,19.63,33.594,21.141,53.022
				H254.142z"/>
		</g>
	</g>
</g>
<g>
</g>
<g>
</g>
<g>
</g>
<g>
</g>
<g>
</g>
<g>
</g>
<g>
</g>
<g>
</g>
<g>
</g>
<g>
</g>
<g>
</g>
<g>
</g>
<g>
</g>
<g>
</g>
<g>
</g>
</svg>
