<?xml version="1.0" encoding="iso-8859-1"?>
<!-- Generator: Adobe Illustrator 19.0.0, SVG Export Plug-In . SVG Version: 6.00 Build 0)  -->
<svg version="1.1" id="Capa_1" xmlns="http://www.w3.org/2000/svg" xmlns:xlink="http://www.w3.org/1999/xlink" x="0px" y="0px"
	 viewBox="0 0 512 512" style="enable-background:new 0 0 512 512;" xml:space="preserve">
<g>
	<g>
		<g>
			<path d="M39.155,143.341h433.69v216.845h15.112V128.229H383.77V95.255h32.057V0H272.029v15.112h128.687v65.031H111.284V15.112
				h136.702V0H96.172v95.255h32.057v32.974H24.042V199.9h15.112V143.341z M351.713,95.255h16.945v32.974h-16.945V95.255z
				 M175.398,95.255h161.203v32.974H175.398V95.255z M143.341,95.255h16.945v32.974h-16.945V95.255z"/>
			<polygon points="304.544,384.687 304.544,416.744 207.456,416.744 207.456,384.687 39.155,384.687 39.155,223.942 
				24.042,223.942 24.042,384.687 0,384.687 0,512 159.829,512 159.829,496.888 15.112,496.888 15.112,399.799 192.344,399.799 
				192.344,416.744 143.8,416.744 143.8,431.856 368.2,431.856 368.2,416.744 319.656,416.744 319.656,399.799 496.888,399.799 
				496.888,496.888 183.871,496.888 183.871,512 512,512 512,384.687 			"/>
			<rect x="111.74" y="416.744" width="16.029" height="15.112"/>
			<rect x="384.232" y="416.744" width="16.029" height="15.112"/>
			<polygon points="303.628,480.4 303.628,448.802 208.372,448.802 208.372,480.4 223.484,480.4 223.484,463.914 288.516,463.914 
				288.516,480.4 			"/>
			<polygon points="47.169,472.386 47.169,431.856 63.657,431.856 63.657,416.744 32.057,416.744 32.057,472.386 			"/>
			<path d="M239.513,184.329H64.115v63.198h175.398V184.329z M144.258,232.415H79.227v-32.974h65.031V232.415z M224.401,232.414
				H159.37v-32.974h65.031V232.414z"/>
			<path d="M239.513,264.472H64.115v47.169h175.398V264.472z M79.227,296.529v-16.945h145.174v16.945H79.227z"/>
			<rect x="151.817" y="40.071" width="144.261" height="15.112"/>
			<rect x="312.097" y="40.071" width="16.029" height="15.112"/>
			<rect x="344.155" y="40.071" width="16.029" height="15.112"/>
			<path d="M447.885,351.713V176.315H256.458v175.398H447.885z M376.673,296.529h-49.003V271.57h49.003V296.529z M391.785,191.427
				h40.988v24.959h-40.988V191.427z M391.785,231.499h40.988v24.959h-40.988V231.499z M391.785,271.57h40.988v24.959h-40.988V271.57
				z M391.785,311.642h40.988v24.959h-40.988V311.642z M327.671,191.427h49.003v24.959h-49.003V191.427z M327.67,231.499h49.003
				v24.959H327.67V231.499z M327.67,311.642h49.003v24.959H327.67V311.642z M271.57,191.427h40.988v24.959H271.57V191.427z
				 M271.57,231.499h40.988v24.959H271.57V231.499z M271.57,271.57h40.988v24.959H271.57V271.57z M271.57,311.642h40.988v24.959
				H271.57V311.642z"/>
			<rect x="63.653" y="328.589" width="16.029" height="15.112"/>
			<rect x="95.711" y="328.589" width="16.029" height="15.112"/>
			<rect x="135.788" y="328.589" width="104.183" height="15.112"/>
		</g>
	</g>
</g>
<g>
</g>
<g>
</g>
<g>
</g>
<g>
</g>
<g>
</g>
<g>
</g>
<g>
</g>
<g>
</g>
<g>
</g>
<g>
</g>
<g>
</g>
<g>
</g>
<g>
</g>
<g>
</g>
<g>
</g>
</svg>
