<?xml version="1.0" encoding="iso-8859-1"?>
<!-- Generator: Adobe Illustrator 19.0.0, SVG Export Plug-In . SVG Version: 6.00 Build 0)  -->
<svg version="1.1" id="Capa_1" xmlns="http://www.w3.org/2000/svg" xmlns:xlink="http://www.w3.org/1999/xlink" x="0px" y="0px"
	 viewBox="0 0 512 512" style="enable-background:new 0 0 512 512;" xml:space="preserve">
<g>
	<g>
		<g>
			<polygon points="455.9,79.227 455.9,0 376.215,0 376.215,15.112 440.787,15.112 440.787,64.115 424.758,64.115 424.758,126.319 
				361.79,112.009 291.185,128.036 220.738,112.007 150.21,128.036 87.241,113.725 87.241,79.227 312.1,79.227 312.1,64.115 
				71.213,64.115 71.213,15.112 352.171,15.112 352.171,0 56.1,0 56.1,79.227 72.128,79.227 72.128,239.971 87.241,239.971 
				87.241,129.222 150.21,143.534 220.736,127.506 291.181,143.534 361.788,127.506 424.758,141.817 424.758,382.777 
				361.79,368.465 291.185,384.494 220.738,368.465 150.21,384.494 87.241,370.183 87.241,264.014 72.128,264.014 72.128,432.773 
				56.1,432.773 56.1,512 336.142,512 336.142,496.888 71.213,496.888 71.213,447.885 87.241,447.885 87.241,385.68 150.21,399.991 
				220.736,383.964 291.181,399.991 361.788,383.962 424.758,398.275 424.758,432.773 199.899,432.773 199.899,447.885 
				440.787,447.885 440.787,496.888 360.186,496.888 360.186,512 455.9,512 455.9,432.773 439.871,432.773 439.871,79.227 			"/>
			<rect x="328.126" y="64.116" width="16.029" height="15.112"/>
			<rect x="360.184" y="64.116" width="16.029" height="15.112"/>
			<rect x="167.846" y="432.773" width="16.028" height="15.112"/>
			<rect x="135.788" y="432.773" width="16.029" height="15.112"/>
			<path d="M327.671,255.999c0-39.519-32.152-71.67-71.67-71.67c-39.519,0-71.671,32.152-71.671,71.67
				c0,39.519,32.152,71.671,71.671,71.671C295.519,327.671,327.671,295.519,327.671,255.999z M199.442,255.999
				c0-31.187,25.372-56.558,56.559-56.558s56.558,25.372,56.558,56.558c0,31.187-25.372,56.559-56.558,56.559
				C224.813,312.558,199.442,287.186,199.442,255.999z"/>
			<polygon points="119.298,175.398 151.814,175.398 151.814,160.286 104.185,160.286 104.185,255.999 119.298,255.999 			"/>
			<rect x="104.183" y="272.03" width="15.112" height="16.029"/>
		</g>
	</g>
</g>
<g>
</g>
<g>
</g>
<g>
</g>
<g>
</g>
<g>
</g>
<g>
</g>
<g>
</g>
<g>
</g>
<g>
</g>
<g>
</g>
<g>
</g>
<g>
</g>
<g>
</g>
<g>
</g>
<g>
</g>
</svg>
