<?xml version="1.0" encoding="iso-8859-1"?>
<!-- Generator: Adobe Illustrator 19.0.0, SVG Export Plug-In . SVG Version: 6.00 Build 0)  -->
<svg version="1.1" id="Capa_1" xmlns="http://www.w3.org/2000/svg" xmlns:xlink="http://www.w3.org/1999/xlink" x="0px" y="0px"
	 viewBox="0 0 512 512" style="enable-background:new 0 0 512 512;" xml:space="preserve">
<g>
	<g>
		<g>
			<rect x="264.282" y="41.415" width="16.567" height="15.009"/>
			<rect x="297.412" y="41.415" width="16.567" height="15.009"/>
			<rect x="330.552" y="41.415" width="16.567" height="15.009"/>
			<path d="M256,437.451c72.648,0,131.752-59.104,131.752-131.753S328.649,173.946,256,173.946S124.248,233.05,124.248,305.699
				S183.352,437.451,256,437.451z M256,188.956c64.372,0,116.742,52.371,116.742,116.743S320.372,422.442,256,422.442
				c-64.372,0-116.743-52.371-116.743-116.743S191.628,188.956,256,188.956z"/>
			<path d="M256,338.054c17.841,0,32.354-14.514,32.354-32.354c0-15.256-10.617-28.071-24.849-31.466v-59.648h-15.009v59.648
				c-14.232,3.394-24.849,16.21-24.849,31.466C223.646,323.539,238.161,338.054,256,338.054z M256,288.354
				c9.564,0,17.345,7.781,17.345,17.345c0,9.564-7.781,17.345-17.345,17.345s-17.345-7.781-17.345-17.345
				C238.656,296.135,246.437,288.354,256,288.354z"/>
			<rect x="322.267" y="298.192" width="16.566" height="15.009"/>
			<rect x="173.166" y="298.192" width="16.566" height="15.009"/>
			<rect x="247.711" y="372.738" width="16.566" height="15.009"/>
			<path d="M57.204,0v15.009h17.345v12.17l24.849,24.849v54.095h124.248v29.443c-34.435,6.559-66.644,23.767-91.307,48.911
				l10.716,10.51c24.319-24.793,55.251-40.599,89.417-45.703c8.026-1.158,15.943-1.745,23.529-1.745
				c7.587,0,15.503,0.587,23.491,1.74c76.774,11.468,134.667,78.714,134.667,156.42c0,40.232-15.107,78.535-42.558,107.876
				c-29.672,31.956-71.807,50.283-115.601,50.283s-85.929-18.327-115.62-50.303C112.949,384.235,97.842,345.93,97.842,305.7
				c0-34.561,10.936-67.379,31.626-94.909l-11.998-9.017c-22.66,30.149-34.637,66.086-34.637,103.926
				c0,42.614,15.484,83.257,43.675,114.915l-2.113-0.422l-15.359,76.799H82.053V512h347.894v-15.009h-26.981l-15.36-76.799
				l-2.114,0.423c28.197-31.674,43.676-72.308,43.676-114.915c0-41.768-15.069-82.097-42.429-113.558
				c-25.591-29.426-60.309-49.338-98.384-56.57v-29.447h33.912V91.116H114.407v-34.69h133.31V41.416H110.011L89.558,20.963v-5.954
				h332.884v5.954l-24.849,24.849v45.303h-50.478v15.009h65.487V52.029l24.849-24.849v-12.17h17.345V0H57.204z M387.66,496.991
				H124.34l13.037-65.186c31.85,30.027,74.466,47.062,118.623,47.062c44.165,0,86.786-17.04,118.622-47.061L387.66,496.991z
				 M238.656,106.124h34.69v27.297h-0.001c-5.887-0.586-11.694-0.89-17.345-0.89c-5.646,0-11.451,0.303-17.345,0.891V106.124z"/>
		</g>
	</g>
</g>
<g>
</g>
<g>
</g>
<g>
</g>
<g>
</g>
<g>
</g>
<g>
</g>
<g>
</g>
<g>
</g>
<g>
</g>
<g>
</g>
<g>
</g>
<g>
</g>
<g>
</g>
<g>
</g>
<g>
</g>
</svg>
