<?xml version="1.0" encoding="iso-8859-1"?>
<!-- Generator: Adobe Illustrator 19.0.0, SVG Export Plug-In . SVG Version: 6.00 Build 0)  -->
<svg version="1.1" id="Capa_1" xmlns="http://www.w3.org/2000/svg" xmlns:xlink="http://www.w3.org/1999/xlink" x="0px" y="0px"
	 viewBox="0 0 512 512" style="enable-background:new 0 0 512 512;" xml:space="preserve">
<g>
	<g>
		<g>
			<path d="M487.953,324.13v-32.555H512v-63.137h-32.062V123.487l-0.075-0.529c-0.161-1.125-4.113-27.852-19.573-54.907
				c-20.945-36.654-52.88-56.028-92.351-56.028H144.061c-39.471,0-71.406,19.374-92.351,56.028
				c-15.46,27.055-19.411,53.781-19.573,54.907l-0.075,0.529v104.952H0v63.137h24.047v187.964l20.437,20.437h423.032l20.437-20.437
				V348.177H472.91v125.131l-11.625,11.625H50.714L39.09,473.308V291.576h433.82v32.555H487.953z M47.106,124.611
				c0.597-3.607,4.808-26.766,17.881-49.471c18.366-31.9,44.971-48.074,79.074-48.074H367.94c34.103,0,60.707,16.174,79.074,48.074
				c13.08,22.716,17.289,45.887,17.881,49.47v103.829h-49.08v-96.185h-40.078v-17.018h24.047V91.683
				c0-8.567-6.97-15.537-15.537-15.537h-80.154c-8.567,0-15.537,6.97-15.537,15.537v23.552h24.047v17.017h-40.078v32.061h-41.063
				V76.146h-47.599V91.19h32.556v73.126H160.31v64.123h-49.08V91.19h48.586V76.146H96.185v152.293H47.106V124.611z M327.646,115.236
				h33.048v17.017h-33.048V115.236z M303.599,100.192v-8.509c0-0.254,0.24-0.493,0.493-0.493h80.154c0.254,0,0.493,0.24,0.493,0.493
				v8.509H303.599z M400.771,147.298v81.141H287.567v-81.141H400.771z M272.524,179.359v49.08h-97.173v-49.08H272.524z
				 M15.044,276.532v-33.049h481.912v33.049H15.044z"/>
			<path d="M448.371,395.776v-15.044h-24.54v-25.033h24.539v-15.044h-24.54v-24.54h-15.044v24.54h-65.11v-24.54h-15.044v24.54
				h-65.11v-24.54h-15.044v24.54h-65.111v-24.54h-15.044v24.54h-65.11v-24.54H88.168v24.54H63.63v15.044h24.539v25.033H63.63v15.044
				h24.539v25.033H63.63v15.044h24.539v24.54h15.044v-24.54h65.11v24.54h15.044v-24.54h65.111v24.54h15.044v-24.54h65.11v24.54
				h15.044v-24.54h65.11v24.54h15.044v-24.54h24.54v-15.044h-24.54v-25.033H448.371z M168.324,420.808h-65.11v-25.033h65.11V420.808
				z M168.324,380.732h-65.11v-25.033h65.11V380.732z M248.479,420.808h-65.111v-25.033h65.111V420.808z M248.479,380.732h-65.111
				v-25.033h65.111V380.732z M328.633,420.808h-65.11v-25.033h65.11V420.808z M328.633,380.732h-65.11v-25.033h65.11V380.732z
				 M408.787,420.808h-65.11v-25.033h65.11V420.808z M408.787,380.732h-65.11v-25.033h65.11V380.732z"/>
			<rect x="304.094" y="164.317" width="80.154" height="15.044"/>
			<rect x="304.094" y="196.381" width="16.031" height="15.044"/>
			<rect x="336.158" y="196.381" width="16.031" height="15.044"/>
			<rect x="368.211" y="196.381" width="16.031" height="15.044"/>
			<rect x="199.891" y="196.381" width="48.093" height="15.044"/>
			<polygon points="128.247,147.791 143.291,147.791 143.291,123.252 167.83,123.252 167.83,108.208 128.247,108.208 			"/>
		</g>
	</g>
</g>
<g>
</g>
<g>
</g>
<g>
</g>
<g>
</g>
<g>
</g>
<g>
</g>
<g>
</g>
<g>
</g>
<g>
</g>
<g>
</g>
<g>
</g>
<g>
</g>
<g>
</g>
<g>
</g>
<g>
</g>
</svg>
