<?xml version="1.0" encoding="iso-8859-1"?>
<!-- Generator: Adobe Illustrator 19.0.0, SVG Export Plug-In . SVG Version: 6.00 Build 0)  -->
<svg version="1.1" id="Capa_1" xmlns="http://www.w3.org/2000/svg" xmlns:xlink="http://www.w3.org/1999/xlink" x="0px" y="0px"
	 viewBox="0 0 512 512" style="enable-background:new 0 0 512 512;" xml:space="preserve">
<g>
	<g>
		<g>
			<path d="M365.049,65.598h58.959V50.536h-58.959c-5.045,0-6.843-2.115-7.845-3.956c-1.379-2.531-1.467-5.358-1.469-5.358V24.376
				C355.734,6.492,341.157,0,331.358,0H272.4c-17.886,0-24.376,14.578-24.376,24.376v34.582h-54.547L87.992,164.442V512h335.124
				V164.442L317.632,58.959h-54.547V24.376c0-0.024,0.098-2.629,1.311-5.055c0.991-1.983,2.797-4.26,8.004-4.26h58.881
				c0.028,0,2.882,0.079,5.435,1.469c1.843,1.003,3.956,2.801,3.956,7.845v16.845C340.672,51.02,347.164,65.598,365.049,65.598z
				 M311.394,74.021l96.66,96.66v326.257h-305V170.681l96.661-96.66H311.394z"/>
			<polygon points="248.023,386.551 263.085,386.551 263.085,360.392 288.353,360.392 288.353,277.948 237.817,277.948 
				237.817,225.629 273.291,225.629 273.291,243.366 288.353,243.366 288.353,210.567 263.085,210.567 263.085,184.407 
				248.023,184.407 248.023,210.567 222.755,210.567 222.755,293.01 273.291,293.01 273.291,345.329 237.817,345.329 
				237.817,327.592 222.755,327.592 222.755,360.392 248.023,360.392 			"/>
			<path d="M255.554,158.248c18.086,0,32.799-14.714,32.799-32.799S273.64,92.65,255.554,92.65s-32.799,14.714-32.799,32.799
				S237.469,158.248,255.554,158.248z M255.554,107.712c9.78,0,17.737,7.957,17.737,17.737s-7.957,17.737-17.737,17.737
				c-9.78,0-17.737-7.957-17.737-17.737S245.773,107.712,255.554,107.712z"/>
			<path d="M138.528,469.887h82.444v-65.598h-82.444V469.887z M153.59,419.35h52.32v35.474h-52.32V419.35z"/>
			<rect x="238.713" y="412.71" width="16.844" height="15.062"/>
			<rect x="272.402" y="412.71" width="101.076" height="15.062"/>
			<rect x="238.713" y="446.399" width="134.765" height="15.062"/>
		</g>
	</g>
</g>
<g>
</g>
<g>
</g>
<g>
</g>
<g>
</g>
<g>
</g>
<g>
</g>
<g>
</g>
<g>
</g>
<g>
</g>
<g>
</g>
<g>
</g>
<g>
</g>
<g>
</g>
<g>
</g>
<g>
</g>
</svg>
