<?xml version="1.0" encoding="iso-8859-1"?>
<!-- Generator: Adobe Illustrator 19.0.0, SVG Export Plug-In . SVG Version: 6.00 Build 0)  -->
<svg version="1.1" id="Capa_1" xmlns="http://www.w3.org/2000/svg" xmlns:xlink="http://www.w3.org/1999/xlink" x="0px" y="0px"
	 viewBox="0 0 512 512" style="enable-background:new 0 0 512 512;" xml:space="preserve">
<g>
	<g>
		<g>
			<polygon points="434.972,496.905 158.685,496.905 158.685,512 450.067,512 450.067,90.866 434.972,90.866 			"/>
			<polygon points="380.319,18.19 318.119,1.97 255.92,18.19 193.802,1.97 131.601,18.19 61.933,0 61.933,512 134.357,512 
				134.357,496.905 77.028,496.905 77.028,19.542 131.598,33.79 193.799,17.57 255.917,33.79 318.119,17.57 380.319,33.79 
				434.972,19.539 434.972,66.538 450.067,66.538 450.067,0.003 			"/>
			<polygon points="224.124,228.728 224.124,260.604 248.452,260.604 248.452,285.495 263.547,285.495 263.547,260.604 
				287.876,260.604 287.876,180.633 239.219,180.633 239.219,130.852 272.781,130.852 272.781,147.634 287.876,147.634 
				287.876,115.757 263.547,115.757 263.547,90.866 248.452,90.866 248.452,115.757 224.124,115.757 224.124,195.728 
				272.781,195.728 272.781,245.51 239.219,245.51 239.219,228.728 			"/>
			<rect x="110.031" y="375.258" width="16.222" height="15.095"/>
			<rect x="142.465" y="375.258" width="16.222" height="15.095"/>
			<rect x="183.01" y="375.258" width="48.656" height="15.095"/>
			<rect x="110.031" y="407.702" width="113.533" height="15.095"/>
			<rect x="280.331" y="375.258" width="16.222" height="15.095"/>
			<rect x="312.765" y="375.258" width="16.222" height="15.095"/>
			<rect x="353.31" y="375.258" width="48.656" height="15.095"/>
			<rect x="280.331" y="407.702" width="113.533" height="15.095"/>
			<path d="M110.591,357.919h120.518v-47.533H110.591V357.919z M125.686,325.481h90.329v17.343h-90.329V325.481z"/>
			<path d="M280.891,357.919H401.41v-47.533H280.891V357.919z M295.986,325.481h90.33v17.343h-90.33V325.481z"/>
			<rect x="101.92" y="448.246" width="308.166" height="15.095"/>
		</g>
	</g>
</g>
<g>
</g>
<g>
</g>
<g>
</g>
<g>
</g>
<g>
</g>
<g>
</g>
<g>
</g>
<g>
</g>
<g>
</g>
<g>
</g>
<g>
</g>
<g>
</g>
<g>
</g>
<g>
</g>
<g>
</g>
</svg>
