<?xml version="1.0" encoding="iso-8859-1"?>
<!-- Generator: Adobe Illustrator 19.0.0, SVG Export Plug-In . SVG Version: 6.00 Build 0)  -->
<svg version="1.1" id="Capa_1" xmlns="http://www.w3.org/2000/svg" xmlns:xlink="http://www.w3.org/1999/xlink" x="0px" y="0px"
	 viewBox="0 0 512.001 512.001" style="enable-background:new 0 0 512.001 512.001;" xml:space="preserve">
<g>
	<g>
		<g>
			<path d="M512,228.439h-32.061V123.487l-0.075-0.529c-0.16-1.125-4.113-27.852-19.572-54.907
				c-20.946-36.654-52.88-56.028-92.352-56.028H144.061c-39.471,0-71.406,19.374-92.352,56.028
				c-15.46,27.055-19.411,53.781-19.573,54.907l-0.075,0.529v104.952H0v63.137h24.047v32.556h15.044v-32.556h433.82v181.733
				l-11.624,11.624h-93.07v15.044h99.301l20.436-20.436V291.576h24.047L512,228.439L512,228.439z M47.105,124.611
				c0.597-3.607,4.808-26.766,17.881-49.471c18.366-31.9,44.972-48.074,79.074-48.074h223.879c34.103,0,60.708,16.174,79.075,48.074
				c13.08,22.716,17.288,45.887,17.881,49.47v103.829h-34.767c1.139-5.413,1.719-10.94,1.719-16.524
				c0-41.387-31.729-75.492-72.139-79.296v-16.889c0-0.022,0.109-2.45,1.21-4.652c0.954-1.908,2.567-3.857,7.299-3.857h8.015V92.178
				h-8.015c-17.28,0-23.552,14.085-23.552,23.553v16.889c-23.47,2.209-43.998,14.645-57.095,32.791v-35.413
				c0-25.274-20.562-45.836-45.836-45.836h-17.794v15.044h17.794c16.979,0,30.793,13.813,30.793,30.793v98.441H159.321v-98.441
				c0-16.979,13.813-30.793,30.792-30.793h9.778V84.162h-9.778c-25.273,0-45.835,20.562-45.835,45.836v26.304H80.154v72.139H47.105
				V124.611z M416.802,211.915c0,5.61-0.717,11.147-2.128,16.524H289.695c-1.41-5.376-2.127-10.913-2.127-16.524
				c0-35.63,28.987-64.617,64.617-64.617S416.802,176.286,416.802,211.915z M144.278,171.344v57.095h-49.08v-57.095H144.278z
				 M496.956,276.532H15.044v-33.049h481.912V276.532z"/>
			<polygon points="39.091,473.308 39.091,348.178 24.047,348.178 24.047,479.54 44.483,499.976 344.169,499.976 344.169,484.932 
				50.714,484.932 			"/>
			<path d="M63.63,420.81v15.044h24.539v24.539h15.044v-24.539h65.11v24.539h15.044v-24.539h65.11v24.539h15.044v-24.539h65.11
				v24.539h15.044v-24.539h65.11v24.539h15.044v-24.539h24.539V420.81H423.83v-25.034h24.539v-15.044H423.83v-25.033h24.539v-15.044
				H423.83v-24.539h-15.044v24.539h-65.11v-24.539h-15.044v24.539h-65.11v-24.539h-15.044v24.539h-65.11v-24.539h-15.044v24.539
				h-65.11v-24.539H88.169v24.539H63.63v15.044h24.539v25.033H63.63v15.044h24.539v25.034H63.63z M343.677,355.699h65.11v25.033
				h-65.11V355.699z M343.677,395.776h65.11v25.034h-65.11V395.776z M263.521,355.699h65.11v25.033h-65.11V355.699z
				 M263.521,395.776h65.11v25.034h-65.11V395.776z M183.367,355.699h65.11v25.033h-65.11V355.699z M183.367,395.776h65.11v25.034
				h-65.11V395.776z M103.213,355.699h65.11v25.033h-65.11V355.699z M103.213,395.776h65.11v25.034h-65.11V395.776z"/>
			<path d="M183.862,139.777l-5.319,5.318c1.046,1.046,10.531,10.219,21.35,10.219c6.971,0,17.205-4.107,23.15-6.792
				c4.666,2.988,12.959,6.792,24.943,6.792V140.27c-11.97,0-18.123-5.27-18.761-5.848l-3.642-3.877l-5.008,2.504
				c-5.825,2.912-16.426,7.221-20.683,7.221c-3.636,0-8.8-3.929-10.731-5.832L183.862,139.777z"/>
			<path d="M225.582,178.638l-5.008,2.504c-5.825,2.912-16.426,7.221-20.683,7.221c-3.636,0-8.8-3.928-10.731-5.832l-5.299,5.339
				l-5.319,5.318c1.046,1.046,10.531,10.219,21.35,10.219c6.971,0,17.205-4.107,23.15-6.792c4.666,2.988,12.959,6.792,24.943,6.792
				v-15.044c-11.97,0-18.123-5.27-18.761-5.848L225.582,178.638z"/>
			<rect x="352.184" y="172.331" width="16.031" height="15.044"/>
			<rect x="368.211" y="188.358" width="16.031" height="15.044"/>
			<rect x="112.216" y="187.866" width="15.044" height="24.047"/>
		</g>
	</g>
</g>
<g>
</g>
<g>
</g>
<g>
</g>
<g>
</g>
<g>
</g>
<g>
</g>
<g>
</g>
<g>
</g>
<g>
</g>
<g>
</g>
<g>
</g>
<g>
</g>
<g>
</g>
<g>
</g>
<g>
</g>
</svg>
