<?xml version="1.0" encoding="iso-8859-1"?>
<!-- Generator: Adobe Illustrator 19.0.0, SVG Export Plug-In . SVG Version: 6.00 Build 0)  -->
<svg version="1.1" id="Capa_1" xmlns="http://www.w3.org/2000/svg" xmlns:xlink="http://www.w3.org/1999/xlink" x="0px" y="0px"
	 viewBox="0 0 512 512" style="enable-background:new 0 0 512 512;" xml:space="preserve">
<g>
	<g>
		<g>
			<polygon points="463.914,48.086 426.77,48.086 442.798,0 247.985,0 247.985,15.112 421.832,15.112 410.841,48.086 
				239.971,48.086 239.971,63.198 448.802,63.198 448.802,448.803 405.804,448.803 421.832,496.888 215.928,496.888 215.928,512 
				442.798,512 426.77,463.915 463.914,463.915 			"/>
			<polygon points="101.159,463.915 272.028,463.915 272.028,448.803 63.198,448.803 63.198,63.198 106.197,63.198 90.169,15.112 
				223.943,15.112 223.943,0 69.202,0 85.23,48.086 48.086,48.086 48.086,463.915 85.23,463.915 69.202,512 191.885,512 
				191.885,496.888 90.169,496.888 			"/>
			<rect x="288.059" y="448.803" width="16.028" height="15.112"/>
			<rect x="320.117" y="448.803" width="16.028" height="15.112"/>
			<rect x="207.914" y="48.086" width="16.028" height="15.112"/>
			<rect x="175.856" y="48.086" width="16.028" height="15.112"/>
			<polygon points="103.269,103.27 135.785,103.27 135.785,88.158 88.157,88.158 88.157,183.871 103.269,183.871 			"/>
			<rect x="88.155" y="207.914" width="15.112" height="16.029"/>
			<path d="M205.901,139.208l-6.003-7.844l-6.001,7.846c-0.642,0.839-15.862,20.832-29.025,45.815
				c-18.468,35.053-23.376,61.844-14.587,79.627c6.796,13.755,21.101,21.362,42.52,22.709c0.14,8.189-0.913,22.595-8.952,31.864
				c-5.465,6.3-13.324,9.362-24.025,9.362H143.8v15.112h16.028c15.13,0,27.055-4.903,35.441-14.574
				c11.272-12.995,12.844-31.274,12.674-41.81c6.065-0.443,11.56-1.407,16.458-2.885v75.298h24.043v24.043h95.255v-24.043h24.043
				v-159.37H242.39C228.509,168.92,206.859,140.46,205.901,139.208z M224.401,200.358v68.006
				c-4.544,2.019-10.213,3.299-16.945,3.832v-64.282h-15.112v64.281c-14.82-1.166-24.404-5.932-28.509-14.234
				c-11.96-24.19,17.887-75.373,36.032-101.291c6.571,9.444,17.337,25.896,25.885,43.687H224.401z M280.503,264.473h-0.002h-24.042
				v55.184h63.198v-55.184h-24.043V215.47h57.016v129.146h-24.043v24.043h-65.031v-8.93h48.544v-15.112h-72.587V215.47h40.988
				V264.473z M304.544,279.585v24.959h-32.974v-24.959H304.544z"/>
			<rect x="272.03" y="168.3" width="16.029" height="15.112"/>
			<rect x="288.059" y="152.271" width="16.028" height="15.112"/>
			<rect x="320.117" y="168.3" width="16.028" height="15.112"/>
			<rect x="312.098" y="128.232" width="16.029" height="15.112"/>
		</g>
	</g>
</g>
<g>
</g>
<g>
</g>
<g>
</g>
<g>
</g>
<g>
</g>
<g>
</g>
<g>
</g>
<g>
</g>
<g>
</g>
<g>
</g>
<g>
</g>
<g>
</g>
<g>
</g>
<g>
</g>
<g>
</g>
</svg>
