<?xml version="1.0" encoding="iso-8859-1"?>
<!-- Generator: Adobe Illustrator 19.0.0, SVG Export Plug-In . SVG Version: 6.00 Build 0)  -->
<svg version="1.1" id="Capa_1" xmlns="http://www.w3.org/2000/svg" xmlns:xlink="http://www.w3.org/1999/xlink" x="0px" y="0px"
	 viewBox="0 0 512 512" style="enable-background:new 0 0 512 512;" xml:space="preserve">
<g>
	<g>
		<g>
			<path d="M419.455,218.805c-44.67-40.802-87.478-71.767-127.319-92.088l-6.835,13.403c40.13,20.468,83.552,52.244,129.06,94.445
				l5.118,4.745l77.475-71.91v177.195l-77.475-71.91l-5.118,4.745c-74.892,69.45-143.117,109.917-202.779,120.28
				c-45.984,7.986-86.942-1.965-121.734-29.578l-9.352,11.785c29.789,23.642,63.606,35.532,100.882,35.532
				c10.646,0,21.585-0.971,32.779-2.916c61.182-10.625,130.23-50.77,205.299-119.343L512,379.089V132.908L419.455,218.805z"/>
			<path d="M118.425,125.8c41.187-19.936,89.302-18.826,143.003,3.298l5.732-13.911c-57.835-23.827-110.082-24.811-155.29-2.929
				c-42.598,20.621-70.593,58.077-86.577,85.869c-17.2,29.909-24.403,54.761-24.701,55.805L0,255.999l0.592,2.067
				c0.709,2.484,17.903,61.356,62.96,106.668l10.669-10.608c-37.691-37.905-55.092-87.48-58.522-98.129
				C20.252,241.849,49.408,159.209,118.425,125.8z"/>
			<path d="M127.109,330.452l2.844,6.964l2.793,6.985c1.855-0.742,45.439-18.974,45.439-88.403s-43.583-87.66-45.439-88.403
				l-5.637,13.949c1.471,0.613,36.031,15.694,36.031,74.453S128.581,329.839,127.109,330.452z"/>
			<path d="M65.438,231.572c0,13.127,10.678,23.806,23.805,23.806s23.806-10.678,23.806-23.806
				c0-13.127-10.679-23.806-23.806-23.806S65.438,218.446,65.438,231.572z M98.004,231.572c0,4.831-3.93,8.761-8.761,8.761
				c-4.83,0-8.76-3.93-8.76-8.761s3.93-8.761,8.76-8.761C94.074,222.812,98.004,226.742,98.004,231.572z"/>
			<polygon points="226.388,179.668 212.637,185.775 227.565,219.38 211.281,256.041 228.923,295.729 242.672,289.618 
				227.745,256.039 244.029,219.38 			"/>
			<polygon points="269.632,326.217 283.38,332.333 301.022,292.675 284.738,256.039 299.665,222.435 285.914,216.327 
				268.274,256.041 284.556,292.672 			"/>
			<rect x="285.267" y="182.725" width="15.046" height="16.284"/>
			<rect x="464.391" y="280.422" width="15.046" height="16.283"/>
			<rect x="464.391" y="247.853" width="15.046" height="16.283"/>
			<rect x="464.391" y="215.284" width="15.046" height="16.284"/>
			<rect x="228.274" y="312.991" width="15.046" height="16.284"/>
		</g>
	</g>
</g>
<g>
</g>
<g>
</g>
<g>
</g>
<g>
</g>
<g>
</g>
<g>
</g>
<g>
</g>
<g>
</g>
<g>
</g>
<g>
</g>
<g>
</g>
<g>
</g>
<g>
</g>
<g>
</g>
<g>
</g>
</svg>
