<?xml version="1.0" encoding="iso-8859-1"?>
<!-- Generator: Adobe Illustrator 19.0.0, SVG Export Plug-In . SVG Version: 6.00 Build 0)  -->
<svg version="1.1" id="Capa_1" xmlns="http://www.w3.org/2000/svg" xmlns:xlink="http://www.w3.org/1999/xlink" x="0px" y="0px"
	 viewBox="0 0 512 512" style="enable-background:new 0 0 512 512;" xml:space="preserve">
<g>
	<g>
		<g>
			<polygon points="15.059,15.059 191.879,15.059 191.879,0 0,0 0,512 103.711,512 103.711,496.941 15.059,496.941 			"/>
			<path d="M215.924,0v15.059h184.834v481.881h-273V512H512V288.061h-15.059v198.232l-40.562-40.562l-40.562,40.562V25.707
				l33.032,33.032V256h15.059V58.739l33.032-33.032v238.308H512V0H215.924z M456.379,467.028l29.914,29.913h-59.826L456.379,467.028
				z M456.38,44.972l-29.914-29.913h59.826L456.38,44.972z"/>
			<rect x="448.846" y="272.031" width="15.059" height="16.03"/>
			<rect x="448.846" y="304.087" width="15.059" height="16.03"/>
			<rect x="448.846" y="336.153" width="15.059" height="16.03"/>
			<rect x="448.846" y="368.209" width="15.059" height="16.03"/>
			<path d="M200.38,399.787v32.546h15.059v-32.546h72.622c17.286,0,23.56-14.089,23.56-23.56v-55.621h-79.667
				c-6.685,0-12.136,1.579-16.516,4.121v-21.123h72.622c17.286,0,23.56-14.09,23.56-23.561v-55.62h-79.667
				c-6.685,0-12.136,1.579-16.516,4.121v-21.123h72.622c17.286,0,23.56-14.089,23.56-23.56v-55.621h-79.667
				c-11.263,0-19.029,4.469-24.046,10.513c-5.016-6.046-12.782-10.513-24.046-10.513h-79.667v55.621c0,9.47,6.275,23.56,23.56,23.56
				h72.622v21.123c-4.38-2.543-9.831-4.122-16.516-4.122h-79.667v55.62c0,9.47,6.275,23.561,23.56,23.561h72.622v21.123
				c-4.38-2.543-9.831-4.122-16.516-4.122h-79.667v55.621c0,9.47,6.275,23.56,23.56,23.56h72.628V399.787z M215.439,352.182
				c0-1.691,0.463-16.516,16.516-16.516h64.607v40.478c-0.075,3.206-1.28,8.584-8.501,8.584h-72.622V352.182z M215.439,256.053
				c0.04-2.766,1.027-16.568,16.516-16.568h64.607v40.478c-0.075,3.206-1.28,8.584-8.501,8.584h-72.622V256.053z M215.439,159.87
				c0.04-2.766,1.027-16.568,16.516-16.568h64.607v40.478c-0.075,3.206-1.28,8.584-8.501,8.584h-72.622V159.87z M127.758,192.364
				c-7.221,0-8.426-5.378-8.5-8.5v-40.562h64.607c15.489,0,16.476,13.802,16.516,16.568v32.494H127.758z M127.758,288.547
				c-7.221,0-8.426-5.378-8.5-8.501v-40.561h64.607c15.489,0,16.476,13.802,16.516,16.568v32.494H127.758z M127.758,384.728
				c-7.221,0-8.426-5.378-8.501-8.5v-40.562h64.607c15.489,0,16.476,13.802,16.516,16.569v32.493H127.758z"/>
			<polygon points="55.135,55.135 111.727,55.135 111.727,40.076 40.076,40.076 40.076,215.925 55.135,215.925 			"/>
			<rect x="40.076" y="231.953" width="15.059" height="16.03"/>
			<rect x="368.701" y="464.398" width="15.059" height="16.03"/>
			<rect x="368.701" y="432.331" width="15.059" height="16.03"/>
		</g>
	</g>
</g>
<g>
</g>
<g>
</g>
<g>
</g>
<g>
</g>
<g>
</g>
<g>
</g>
<g>
</g>
<g>
</g>
<g>
</g>
<g>
</g>
<g>
</g>
<g>
</g>
<g>
</g>
<g>
</g>
<g>
</g>
</svg>
