<?xml version="1.0" encoding="iso-8859-1"?>
<!-- Generator: Adobe Illustrator 19.0.0, SVG Export Plug-In . SVG Version: 6.00 Build 0)  -->
<svg version="1.1" id="Capa_1" xmlns="http://www.w3.org/2000/svg" xmlns:xlink="http://www.w3.org/1999/xlink" x="0px" y="0px"
	 viewBox="0 0 512 512" style="enable-background:new 0 0 512 512;" xml:space="preserve">
<g>
	<g>
		<g>
			<path d="M255.999,111.242c38.725,0,76.068,11.423,107.991,33.035l8.442-12.47c-32.35-21.901-69.856-34.098-108.905-35.489V79.181
				V47.605c0-1.329,0.37-32.546,32.547-32.546h72.137V0h-72.137c-18.505,0-29.725,7.478-36.494,15.89
				C255.065,7.31,246.367,0,231.955,0h-79.667v55.621c0,9.47,6.275,23.56,23.56,23.56h72.622v17.15
				c-52.72,1.863-102.009,23.255-139.493,60.738c-39.263,39.264-60.886,91.476-60.886,147.023
				c0,52.626,19.693,102.836,55.451,141.38l11.04-10.242c-33.167-35.75-51.432-82.323-51.432-131.138
				C63.151,197.753,149.662,111.242,255.999,111.242z M175.848,64.121c-7.221,0-8.426-5.378-8.5-8.5V15.059h64.607
				c15.489,0,16.476,13.802,16.516,16.516v0.485h-56.592v15.059h56.592v0.486v16.516H175.848z"/>
			<path d="M391.146,146.078l-9.793,11.441c42.895,36.719,67.496,90.143,67.496,146.573c0,106.338-86.512,192.85-192.85,192.85
				c-45.055,0-88.888-15.855-123.423-44.647l-9.643,11.567C160.17,494.904,207.427,512,255.999,512
				c55.547,0,107.759-21.623,147.024-60.887c39.263-39.263,60.886-91.477,60.886-147.023
				C463.91,243.255,437.388,185.662,391.146,146.078z"/>
			<path d="M119.256,296.077c0-75.402,61.343-136.744,136.743-136.744v-15.059c-83.704,0-151.802,68.099-151.802,151.803H119.256z"
				/>
			<rect x="104.2" y="312.108" width="15.059" height="16.03"/>
			<rect x="392.746" y="320.12" width="15.059" height="16.03"/>
			<rect x="376.713" y="336.153" width="15.059" height="16.03"/>
			<rect x="360.68" y="320.12" width="15.059" height="16.03"/>
		</g>
	</g>
</g>
<g>
</g>
<g>
</g>
<g>
</g>
<g>
</g>
<g>
</g>
<g>
</g>
<g>
</g>
<g>
</g>
<g>
</g>
<g>
</g>
<g>
</g>
<g>
</g>
<g>
</g>
<g>
</g>
<g>
</g>
</svg>
