<?xml version="1.0" encoding="iso-8859-1"?>
<!-- Generator: Adobe Illustrator 19.0.0, SVG Export Plug-In . SVG Version: 6.00 Build 0)  -->
<svg version="1.1" id="Capa_1" xmlns="http://www.w3.org/2000/svg" xmlns:xlink="http://www.w3.org/1999/xlink" x="0px" y="0px"
	 viewBox="0 0 512.001 512.001" style="enable-background:new 0 0 512.001 512.001;" xml:space="preserve">
<g>
	<g>
		<g>
			<path d="M296.077,0h-80.151c-57.187,0-103.712,46.525-103.712,103.712v24.046h15.059v-24.046
				c0-48.883,39.77-88.653,88.653-88.653h80.151c48.882,0,88.653,39.77,88.653,88.653v216.41h15.059v-216.41
				C399.788,46.525,353.264,0,296.077,0z"/>
			<path d="M384.729,408.289c0,48.883-39.769,88.653-88.653,88.653h-80.151c-48.882,0-88.653-39.77-88.653-88.653V151.803h-15.059
				v256.485c0,57.187,46.525,103.712,103.712,103.712h80.151c57.187,0,103.712-46.525,103.712-103.712v-64.121h-15.059V408.289z"/>
			<polygon points="352.181,240.455 352.181,240.455 352.182,240.455 			"/>
			<path d="M304.091,256.485c-9.797,0-14.281-2.985-19.959-6.764c-6.526-4.343-13.923-9.266-28.213-9.266
				c-14.302,0-21.697,4.93-28.222,9.28c-5.657,3.771-10.126,6.751-19.868,6.751v15.059c14.302,0,21.696-4.93,28.221-9.279
				c5.657-3.772,10.126-6.751,19.869-6.751c9.736,0,14.208,2.976,19.869,6.744c6.541,4.352,13.952,9.286,28.301,9.286
				c14.302,0,21.697-4.93,28.222-9.279c5.657-3.771,10.126-6.751,19.869-6.751v-15.059c-14.302,0-21.697,4.931-28.221,9.28
				C318.303,253.506,313.835,256.485,304.091,256.485z"/>
			<path d="M159.817,175.363h0.001c9.75,0,14.216,2.982,19.869,6.758c6.509,4.346,13.887,9.272,28.142,9.272
				c14.302,0,21.696-4.93,28.221-9.279c5.657-3.772,10.126-6.751,19.869-6.751c9.736,0,14.208,2.976,19.869,6.744
				c6.54,4.353,13.952,9.287,28.301,9.287v-15.059c-9.797,0-14.281-2.985-19.959-6.764c-6.526-4.343-13.923-9.266-28.213-9.266
				c-14.302,0-21.697,4.93-28.222,9.281c-5.657,3.771-10.126,6.751-19.868,6.751c-9.689,0-14.142-2.973-19.779-6.738
				c-6.523-4.356-13.916-9.293-28.232-9.293V175.363z"/>
			<path d="M304.091,96.182c-9.797,0-14.281-2.985-19.959-6.764c-6.526-4.343-13.923-9.266-28.213-9.266
				c-14.302,0-21.697,4.93-28.222,9.28c-5.657,3.772-10.126,6.751-19.868,6.751v15.059c14.302,0,21.696-4.93,28.221-9.279
				c5.657-3.772,10.126-6.751,19.869-6.751c9.736,0,14.208,2.976,19.869,6.744c6.54,4.353,13.952,9.286,28.301,9.286
				c14.302,0,21.697-4.93,28.222-9.279c5.657-3.772,10.126-6.751,19.869-6.751V80.151c-14.302,0-21.697,4.931-28.221,9.28
				C318.303,93.203,313.835,96.182,304.091,96.182z"/>
			<polygon points="352.181,80.151 352.181,80.151 352.182,80.151 			"/>
			<path d="M159.817,335.666h0.001c9.75,0,14.216,2.982,19.869,6.758c6.509,4.346,13.887,9.272,28.142,9.272
				c14.302,0,21.696-4.93,28.221-9.28c5.657-3.772,10.126-6.751,19.869-6.751c9.736,0,14.208,2.976,19.869,6.744
				c6.54,4.353,13.952,9.287,28.301,9.287v-15.059c-9.797,0-14.281-2.985-19.959-6.764c-6.526-4.343-13.923-9.266-28.213-9.266
				c-14.302,0-21.697,4.93-28.222,9.28c-5.657,3.772-10.126,6.751-19.868,6.751c-9.689,0-14.142-2.973-19.779-6.737
				c-6.523-4.356-13.916-9.293-28.232-9.293V335.666z"/>
			<path d="M284.133,410.026c-6.526-4.343-13.923-9.266-28.213-9.266c-14.302,0-21.697,4.93-28.222,9.28
				c-5.657,3.771-10.126,6.751-19.868,6.751v15.059c14.302,0,21.696-4.93,28.221-9.28c5.657-3.772,10.126-6.751,19.869-6.751
				c9.736,0,14.208,2.976,19.869,6.744c6.54,4.353,13.952,9.287,28.301,9.287c14.302,0,21.697-4.93,28.222-9.28
				c5.657-3.772,10.126-6.751,19.869-6.751V400.76c-14.302,0-21.697,4.93-28.222,9.279c-5.657,3.772-10.126,6.751-19.869,6.751
				C294.295,416.789,289.81,413.805,284.133,410.026z"/>
			<rect x="175.853" y="96.179" width="16.031" height="15.059"/>
			<rect x="320.12" y="176.334" width="16.03" height="15.059"/>
			<rect x="175.853" y="256.489" width="16.031" height="15.059"/>
			<rect x="320.12" y="336.635" width="16.03" height="15.059"/>
			<rect x="175.853" y="416.79" width="16.031" height="15.059"/>
		</g>
	</g>
</g>
<g>
</g>
<g>
</g>
<g>
</g>
<g>
</g>
<g>
</g>
<g>
</g>
<g>
</g>
<g>
</g>
<g>
</g>
<g>
</g>
<g>
</g>
<g>
</g>
<g>
</g>
<g>
</g>
<g>
</g>
</svg>
