<?xml version="1.0" standalone="no"?>
<!DOCTYPE svg PUBLIC "-//W3C//DTD SVG 20010904//EN"
 "http://www.w3.org/TR/2001/REC-SVG-20010904/DTD/svg10.dtd">
<svg version="1.0" xmlns="http://www.w3.org/2000/svg"
 width="700.000000pt" height="700.000000pt" viewBox="0 0 700.000000 700.000000"
 preserveAspectRatio="xMidYMid meet">
<metadata>
Created by potrace 1.14, written by Peter Selinger 2001-2017
</metadata>
<g transform="translate(0.000000,700.000000) scale(0.100000,-0.100000)"
fill="#000000" stroke="none">
<path d="M3176 6980 c-160 -51 -266 -190 -266 -350 0 -127 60 -250 266 -540
265 -373 314 -472 381 -775 24 -110 45 -204 47 -210 1 -5 24 78 50 185 73 305
123 408 366 760 238 344 273 417 274 565 1 77 -3 98 -26 147 -112 239 -455
304 -633 120 l-40 -42 -22 29 c-35 45 -123 99 -188 116 -77 20 -136 18 -209
-5z"/>
<path d="M110 4971 l0 -89 283 -4 c379 -6 401 -14 413 -148 6 -74 -200 -4037
-217 -4175 -31 -248 -101 -295 -441 -295 l-148 0 0 -90 0 -90 815 0 815 0 0
90 0 90 -243 0 c-373 0 -481 20 -513 97 -14 32 -15 58 -5 203 7 91 50 911 96
1824 47 912 86 1660 88 1662 1 2 477 -908 1057 -2022 l1055 -2025 53 3 54 3
634 1235 c349 679 838 1631 1087 2115 253 493 453 871 455 860 4 -34 162
-3659 162 -3726 0 -89 -15 -134 -53 -163 -64 -49 -128 -58 -434 -63 l-283 -5
0 -89 0 -89 1080 0 1080 0 0 90 0 90 -176 0 c-382 0 -448 38 -474 271 -8 71
-129 2556 -196 4020 -8 168 -3 207 33 249 53 63 147 80 442 80 l211 0 0 90 0
90 -633 0 -634 0 -1014 -1952 c-558 -1074 -1030 -1987 -1049 -2031 l-34 -78
-36 69 c-19 38 -496 952 -1060 2031 l-1025 1961 -622 0 -623 0 0 -89z"/>
</g>
</svg>
