<?xml version="1.0" encoding="iso-8859-1"?>
<!-- Generator: Adobe Illustrator 21.0.0, SVG Export Plug-In . SVG Version: 6.00 Build 0)  -->
<svg version="1.1" id="Capa_1" xmlns="http://www.w3.org/2000/svg" xmlns:xlink="http://www.w3.org/1999/xlink" x="0px" y="0px"
	 viewBox="0 0 512 512" style="enable-background:new 0 0 512 512;" xml:space="preserve">
<g>
	<g>
		<path d="M495.998,156.573L512,144.383l-16.261-11.842c-29.414-21.421-55.047-33.182-76.608-35.216
			c5.136-10.46,9.865-22.264,14.162-35.385l-28.479-9.328c-16.068,49.061-34.231,64.45-42.615,69.14
			c-27.042-21.292-61.446-32.731-98.721-31.519c-40.232,1.295-78.932,18.63-111.914,50.133
			c-27.123,25.907-50.377,61.561-65.473,100.395C74.6,270.317,56.952,293.999,25.175,322.5c-7.47,6.699-16.764,15.036-21.599,27.191
			c-5.856,14.733-9.577,43.807,31.298,72.993c33.932,24.227,75.37,36.705,120.144,36.705c17.947,0,36.431-2.005,55.18-6.061
			c60.967-13.19,117.942-46.934,156.316-92.58c35.968-42.782,61.898-108.874,45.045-166.841c0.196,0.002,0.389,0.013,0.585,0.013
			C435.278,193.92,463.373,181.423,495.998,156.573z M343.577,341.465c-43.54,51.789-117.72,87.958-188.916,87.954
			c-36.403-0.002-72.034-9.461-102.373-31.122c-18.495-13.207-25.514-25.835-20.864-37.532c2.233-5.617,8.357-11.109,13.76-15.955
			c26.003-23.324,52.341-50.756,68.838-93.191c24.094-61.974,76.261-129.048,150.421-131.434c1.435-0.046,2.862-0.069,4.285-0.069
			c48.319,0,90.037,26.479,109.547,69.866C400.579,239.586,376.919,301.805,343.577,341.465z M403.038,162.423
			c-8.855-3.364-12.784-12.29-14.229-16.714c1.351-4.455,5.085-13.462,13.867-17.015c7.617-3.081,24.647-4.341,57.92,16.243
			C427.773,166.233,410.722,165.341,403.038,162.423z"/>
	</g>
</g>
<g>
</g>
<g>
</g>
<g>
</g>
<g>
</g>
<g>
</g>
<g>
</g>
<g>
</g>
<g>
</g>
<g>
</g>
<g>
</g>
<g>
</g>
<g>
</g>
<g>
</g>
<g>
</g>
<g>
</g>
</svg>
