<?xml version="1.0" encoding="iso-8859-1"?>
<!-- Generator: Adobe Illustrator 21.0.0, SVG Export Plug-In . SVG Version: 6.00 Build 0)  -->
<svg version="1.1" id="Capa_1" xmlns="http://www.w3.org/2000/svg" xmlns:xlink="http://www.w3.org/1999/xlink" x="0px" y="0px"
	 viewBox="0 0 512 512" style="enable-background:new 0 0 512 512;" xml:space="preserve">
<g>
	<g>
		<path d="M466.664,159.897c-10.98-19.75-27.699-34.759-49.719-44.619l-2.87-1.43h-0.52l-2.14-0.9
			c-28.059-11.02-55.189-10.45-60.929-10.18c-4.33-0.21-20.54-0.6-40.219,3.85c-0.002,0-0.004,0.001-0.006,0.001L329.647,0h-92.302
			l-21.011,106.499c-2.479,0.55-4.997,1.179-7.566,1.889c-22.71-6.28-42.419-5.85-47.209-5.62
			c-8.68-0.42-65.329-1.56-101.668,37.169c-24.71,26.339-33.919,64.169-27.389,112.438c10.65,78.768,20.57,136.207,37.089,179.127
			c20.37,52.959,50.309,79.278,91.518,80.478l0.44,0.02l0.43-0.02c17.43-0.51,33.119-5.7,46.769-15.46
			c13.63,9.84,29.199,14.95,46.819,15.46l0.44,0.02l0.44-0.02c17.43-0.51,33.119-5.7,46.769-15.45
			c13.64,9.83,29.189,14.94,46.819,15.45l0.43,0.02l0.44-0.02c20.99-0.61,39.449-8.01,54.869-21.99
			c20.57-18.67,35.869-48.659,48.129-94.378c10.45-38.949,17.8-85.428,25.609-143.237
			C484.523,215.376,480.193,184.256,466.664,159.897z M262.005,29.999H293.7l-13.431,73.87c-0.001,0-0.002,0-0.003,0
			c-12.08-1.47-21.19-1.24-24.25-1.1c-1.49-0.07-4.38-0.17-8.35-0.08c-0.001,0-0.002,0-0.003,0L262.005,29.999z M161.55,481.981
			c-63.039-2.28-81.608-102.668-99.328-233.625c-5.24-38.799,1.29-68.319,19.42-87.758c24.08-25.79,62.929-27.919,75.089-27.919
			c2.33,0,3.68,0.07,3.76,0.08l1.06,0.07l0.21-0.01c-2.54,2.21-5.02,4.58-7.4,7.12c-24.71,26.339-33.929,64.169-27.399,112.438
			c10.65,78.768,20.58,136.207,37.089,179.127c6.64,17.26,14.3,31.699,23.04,43.349C179.459,479.291,171.02,481.641,161.55,481.981z
			 M291.157,467.771c-3.06,2.77-6.26,5.13-9.61,7.08c-7.63,4.44-16.07,6.79-25.539,7.13c-9.38-0.34-17.78-2.85-25.339-7.32
			c-8.19-4.84-15.4-11.98-21.8-21.13c-27.339-39.079-39.969-114.858-52.179-205.176c-5.25-38.799,1.28-68.319,19.42-87.758
			c9.46-10.13,21.19-16.61,32.699-20.74c17.78-6.39,34.999-7.18,42.379-7.18c2.33,0,3.69,0.07,3.76,0.08l0.86,0.06
			c0.07,0.05,0.14,0.11,0.21,0.18c0.07-0.07,0.13-0.12,0.2-0.18l0.81-0.06c0.23-0.01,22.77-1.37,46.239,7.09
			c0.85,0.31,1.71,0.63,2.56,0.96l4.29,1.81c37.239,16.62,52.449,52.199,45.209,105.738c-11.53,85.198-24.34,164.837-51.989,205.176
			C299.567,459.041,295.517,463.811,291.157,467.771z M449.794,248.355c-13.1,96.828-27.869,186.476-64.179,219.416
			c-10,9.07-21.5,13.72-35.139,14.21c-9.39-0.34-17.79-2.85-25.35-7.32c13.88-18.52,24.98-44.219,34.319-79.048
			c10.44-38.949,17.79-85.428,25.61-143.237c5.01-36.999,0.68-68.119-12.86-92.478c-5.75-10.35-13.08-19.4-21.92-27.079l0.19,0.01
			l1.02-0.07c0.24-0.01,24.45-1.47,48.799,8.05l4.3,1.81C441.824,159.237,457.034,194.816,449.794,248.355z"/>
	</g>
</g>
<g>
</g>
<g>
</g>
<g>
</g>
<g>
</g>
<g>
</g>
<g>
</g>
<g>
</g>
<g>
</g>
<g>
</g>
<g>
</g>
<g>
</g>
<g>
</g>
<g>
</g>
<g>
</g>
<g>
</g>
</svg>
