<?xml version="1.0" encoding="iso-8859-1"?>
<!-- Generator: Adobe Illustrator 21.0.0, SVG Export Plug-In . SVG Version: 6.00 Build 0)  -->
<svg version="1.1" id="Capa_1" xmlns="http://www.w3.org/2000/svg" xmlns:xlink="http://www.w3.org/1999/xlink" x="0px" y="0px"
	 viewBox="0 0 512 512" style="enable-background:new 0 0 512 512;" xml:space="preserve">
<g>
	<g>
		<path d="M330.5,210.93c-15.45,0-29.11,7.81-37.23,19.69c-4.83-4.01-9.7-7.57-14.6-10.65c-24.71-15.53-51.19-19.54-76.58-11.58
			c-33.1,10.38-53.53,37.52-54.38,38.67l-6.64,8.94l6.63,8.94c1.21,1.63,30.14,39.94,75.44,42.56c1.65,0.09,3.3,0.14,4.95,0.14
			c22.36,0,44.2-8.8,65.19-26.24c8.13,11.87,21.78,19.67,37.22,19.67h36.75v-90.14H330.5z M201.629,271.179
			c-8.999-4.41-16.359-10.32-21.519-15.179c5.17-4.88,12.549-10.8,21.559-15.219C203.982,247.791,205.842,258.74,201.629,271.179z
			 M231.12,277.54c-0.001,0-0.002,0-0.004,0c4.972-16.961,3.09-32.132-0.07-43.11c0.001,0,0.002,0,0.003,0
			c10.451,0.57,20.931,4.2,31.651,10.94c4.68,2.95,9.4,6.5,14.11,10.63C261.5,269.43,246.19,276.65,231.12,277.54z M337.25,271.07
			h-6.75c-7.18,0-13.2-5.04-14.71-11.76c-0.24-1.06-0.37-2.17-0.37-3.31c0-1.14,0.13-2.25,0.37-3.31
			c1.51-6.72,7.53-11.76,14.71-11.76h6.75V271.07z"/>
	</g>
</g>
<g>
	<g>
		<path d="M434.87,97.07V0H77.13v97.07h20.12v317.86H77.13V512h357.74v-97.07h-20.12V97.07H434.87z M404.87,482H107.13v-37.07
			h297.74V482z M384.75,177.923v156.154h-257.5V177.923H384.75z M127.25,147.923V97.07h257.5v50.853H127.25z M384.75,364.077v50.853
			h-257.5v-50.853H384.75z M404.87,67.07H107.13V30h297.74V67.07z"/>
	</g>
</g>
<g>
</g>
<g>
</g>
<g>
</g>
<g>
</g>
<g>
</g>
<g>
</g>
<g>
</g>
<g>
</g>
<g>
</g>
<g>
</g>
<g>
</g>
<g>
</g>
<g>
</g>
<g>
</g>
<g>
</g>
</svg>
