<?xml version="1.0" encoding="iso-8859-1"?>
<!-- Generator: Adobe Illustrator 21.0.0, SVG Export Plug-In . SVG Version: 6.00 Build 0)  -->
<svg version="1.1" id="Capa_1" xmlns="http://www.w3.org/2000/svg" xmlns:xlink="http://www.w3.org/1999/xlink" x="0px" y="0px"
	 viewBox="0 0 512 512" style="enable-background:new 0 0 512 512;" xml:space="preserve">
<g>
	<g>
		<path d="M270.15,114.178c-1.067-23.067-15.761-42.307-36.106-50.144V0h-98.815v64.034c-20.345,7.837-35.04,27.078-36.106,50.145
			L80.732,511.95h207.809L270.15,114.178z M165.229,30h38.815v30.25h-38.815V30z M129.091,115.563
			c0.656-14.194,12.301-25.313,26.511-25.313h58.069c14.21,0,25.855,11.119,26.512,25.313l3.015,65.206H126.076L129.091,115.563z
			 M124.689,210.77h119.895l4.656,100.697H120.033L124.689,210.77z M118.645,341.467h131.982l3.931,85.033H114.714L118.645,341.467z
			 M112.151,481.95l1.177-25.45h142.618l1.177,25.45H112.151z"/>
	</g>
</g>
<g>
	<g>
		<path d="M320.272,0v512h30V190.667h80.996V0H320.272z M401.268,160.667h-50.996v-24.084h50.996V160.667z M401.268,106.583h-50.996
			v-23.5h50.996V106.583z M401.268,53.083h-50.996V30h50.996V53.083z"/>
	</g>
</g>
<g>
</g>
<g>
</g>
<g>
</g>
<g>
</g>
<g>
</g>
<g>
</g>
<g>
</g>
<g>
</g>
<g>
</g>
<g>
</g>
<g>
</g>
<g>
</g>
<g>
</g>
<g>
</g>
<g>
</g>
</svg>
