<?xml version="1.0" encoding="iso-8859-1"?>
<!-- Generator: Adobe Illustrator 21.0.0, SVG Export Plug-In . SVG Version: 6.00 Build 0)  -->
<svg version="1.1" id="Capa_1" xmlns="http://www.w3.org/2000/svg" xmlns:xlink="http://www.w3.org/1999/xlink" x="0px" y="0px"
	 viewBox="0 0 512 512" style="enable-background:new 0 0 512 512;" xml:space="preserve">
<g>
	<g>
		<path d="M485.6,192.403c-18.67-36.73-44.65-56.96-73.18-56.96c-13.35,0-26.15,4.43-37.89,12.91
			c-11.75-8.48-24.54-12.91-37.9-12.91c-14.27,0-27.91,5.06-40.31,14.73c-1.482-1.155-2.983-2.239-4.499-3.262
			c-0.863-27.581,27.071-62.399,38.762-74.251l12.764-12.882L274.74,13.627l-8.637,7.155
			c-52.803,43.751-58.357,97.995-57.423,124.505c-10.466-6.475-21.671-9.844-33.309-9.844c-13.36,0-26.14,4.43-37.89,12.91
			c-11.74-8.48-24.55-12.91-37.9-12.91c-28.53,0-54.51,20.23-73.18,56.96C9.38,225.913,0,270.123,0,316.913
			c0,46.78,9.38,90.99,26.4,124.5c18.67,36.73,44.65,56.96,73.18,56.96c13.35,0,26.16-4.43,37.9-12.91
			c11.75,8.48,24.53,12.91,37.89,12.91c14.28,0,27.91-5.07,40.32-14.73c12.4,9.67,26.04,14.73,40.31,14.73
			c14.28,0,27.92-5.07,40.32-14.73c12.4,9.67,26.04,14.73,40.31,14.73c13.36,0,26.15-4.43,37.9-12.91
			c11.74,8.48,24.54,12.91,37.89,12.91c28.53,0,54.51-20.23,73.18-56.96c17.02-33.51,26.4-77.72,26.4-124.5
			C512,270.123,502.62,225.913,485.6,192.403z M276.973,51.285l20.438,13.748c-4.399,5.438-9.526,12.265-14.478,20
			c-11.598,18.12-18.446,35.109-20.496,50.771c-2.13-0.231-4.275-0.361-6.437-0.361c-5.916,0-11.721,0.883-17.377,2.59
			C239.042,117.48,245.098,82.129,276.973,51.285z M99.58,468.373c-16.41,0-33.34-14.78-46.43-40.55
			C38.22,398.443,30,359.053,30,316.913c0-42.15,8.22-81.54,23.15-110.92c13.09-25.77,30.02-40.55,46.43-40.55
			c5.42,0,10.9,1.61,16.28,4.7c-4.89,6.55-9.47,13.99-13.67,22.26c-17.03,33.51-26.4,77.72-26.4,124.51
			c0,46.78,9.37,90.99,26.4,124.5c4.2,8.27,8.77,15.7,13.67,22.25C110.48,466.753,105,468.373,99.58,468.373z M175.37,468.373
			c-5.42,0-10.91-1.62-16.29-4.7c-7.54-4.34-14.89-11.59-21.6-21.36c-2.99-4.34-5.85-9.18-8.55-14.49
			c-14.93-29.38-23.14-68.77-23.14-110.91c0-42.15,8.21-81.54,23.14-110.92c2.7-5.3,5.55-10.14,8.55-14.48
			c6.71-9.79,14.06-17.04,21.61-21.37c5.38-3.09,10.86-4.7,16.28-4.7c6.54,0,13.16,2.34,19.59,6.8
			c-4.32,6.03-8.38,12.76-12.14,20.16c-1.76,3.46-3.44,7.04-5.03,10.72c-6.57,15.17-11.72,32.13-15.31,50.25
			c-3.98,20.05-6.06,41.5-6.06,63.54c0,22.03,2.08,43.49,6.06,63.53c3.59,18.12,8.74,35.08,15.31,50.25
			c1.59,3.68,3.27,7.26,5.03,10.72c3.76,7.4,7.82,14.13,12.14,20.16C188.53,466.023,181.91,468.373,175.37,468.373z M296.32,438.623
			c-6.39,10.13-13.43,17.9-20.73,22.95c-6.43,4.45-13.05,6.8-19.59,6.8c-6.54,0-13.16-2.35-19.59-6.8
			c-7.3-5.05-14.34-12.82-20.73-22.95c-2.12-3.35-4.16-6.95-6.12-10.8c-7.03-13.84-12.56-29.89-16.45-47.41
			c-4.39-19.68-6.69-41.21-6.69-63.5c0-22.3,2.3-43.83,6.69-63.51c3.89-17.52,9.42-33.57,16.45-47.41c1.96-3.85,4-7.46,6.12-10.8
			c6.39-10.13,13.43-17.9,20.73-22.95c6.43-4.46,13.05-6.8,19.59-6.8c6.54,0,13.16,2.34,19.59,6.8c7.3,5.05,14.34,12.82,20.73,22.95
			c2.12,3.34,4.16,6.95,6.12,10.8c7.03,13.84,12.56,29.89,16.45,47.41c4.39,19.68,6.69,41.21,6.69,63.51
			c0,22.29-2.3,43.82-6.69,63.5c-3.89,17.52-9.42,33.57-16.45,47.41C300.48,431.673,298.44,435.273,296.32,438.623z M374.53,442.313
			c-6.72,9.77-14.07,17.02-21.61,21.36c-5.38,3.08-10.87,4.7-16.29,4.7c-6.54,0-13.16-2.35-19.59-6.8
			c4.32-6.03,8.38-12.76,12.14-20.16c1.76-3.46,3.44-7.04,5.03-10.72c6.57-15.17,11.72-32.13,15.31-50.25
			c3.98-20.04,6.06-41.5,6.06-63.53c0-22.04-2.08-43.49-6.06-63.54c-3.59-18.12-8.74-35.08-15.31-50.25
			c-1.59-3.68-3.27-7.26-5.03-10.72c-3.76-7.4-7.82-14.13-12.14-20.16c6.43-4.46,13.05-6.8,19.59-6.8c5.42,0,10.9,1.61,16.28,4.7
			c7.55,4.33,14.9,11.58,21.62,21.37c2.99,4.34,5.84,9.18,8.54,14.48c14.93,29.38,23.14,68.77,23.14,110.92
			c0,42.14-8.21,81.53-23.14,110.91C380.37,433.133,377.51,437.973,374.53,442.313z M458.85,427.823
			c-13.09,25.77-30.02,40.55-46.43,40.55c-5.42,0-10.9-1.62-16.28-4.71c4.9-6.55,9.47-13.98,13.67-22.25
			c17.03-33.51,26.4-77.72,26.4-124.5c0-46.79-9.37-91-26.4-124.51c-4.2-8.27-8.78-15.71-13.67-22.26c5.38-3.09,10.86-4.7,16.28-4.7
			c16.41,0,33.34,14.78,46.43,40.55c14.93,29.38,23.15,68.77,23.15,110.92C482,359.053,473.78,398.443,458.85,427.823z"/>
	</g>
</g>
<g>
</g>
<g>
</g>
<g>
</g>
<g>
</g>
<g>
</g>
<g>
</g>
<g>
</g>
<g>
</g>
<g>
</g>
<g>
</g>
<g>
</g>
<g>
</g>
<g>
</g>
<g>
</g>
<g>
</g>
</svg>
