<?xml version="1.0" encoding="iso-8859-1"?>
<!-- Generator: Adobe Illustrator 21.0.0, SVG Export Plug-In . SVG Version: 6.00 Build 0)  -->
<svg version="1.1" id="Capa_1" xmlns="http://www.w3.org/2000/svg" xmlns:xlink="http://www.w3.org/1999/xlink" x="0px" y="0px"
	 viewBox="0 0 512 512" style="enable-background:new 0 0 512 512;" xml:space="preserve">
<g>
	<g>
		<path d="M465,246.265v-108.05h-74V8.165H155v62.48H89.33v67.57H0v365.62h465v-108.06h47v-149.51H465z M185,38.165h176v100.05
			h-35.67v-67.57H185V38.165z M119.33,100.645h176v37.57h-176V100.645z M30,168.215h405v29.808H30V168.215z M435,473.835H30v-29.812
			h405V473.835z M435,414.023H30v-186h405v18.242h-22.25c-41.21,0-74.75,33.54-74.75,74.76c0,41.22,33.54,74.75,74.75,74.75H435
			V414.023z M482,365.775h-69.25c-24.67,0-44.75-20.07-44.75-44.75s20.08-44.76,44.75-44.76H482V365.775z"/>
	</g>
</g>
<g>
	<g>
		<rect x="398.33" y="305.77" width="30.5" height="30.5"/>
	</g>
</g>
<g>
</g>
<g>
</g>
<g>
</g>
<g>
</g>
<g>
</g>
<g>
</g>
<g>
</g>
<g>
</g>
<g>
</g>
<g>
</g>
<g>
</g>
<g>
</g>
<g>
</g>
<g>
</g>
<g>
</g>
</svg>
