<?xml version="1.0" encoding="iso-8859-1"?>
<!-- Generator: Adobe Illustrator 21.0.0, SVG Export Plug-In . SVG Version: 6.00 Build 0)  -->
<svg version="1.1" id="Capa_1" xmlns="http://www.w3.org/2000/svg" xmlns:xlink="http://www.w3.org/1999/xlink" x="0px" y="0px"
	 viewBox="0 0 512.001 512.001" style="enable-background:new 0 0 512.001 512.001;" xml:space="preserve">
<g>
	<g>
		<path d="M493.406,191.993c-8.901-11.8-20.65-21.359-33.908-27.744c0.712-4.643,1.071-9.348,1.071-14.079
			c0-50.96-41.459-92.419-92.419-92.419c-8.534,0-17.055,1.201-25.251,3.527c-5.31-14.646-14.298-27.843-26.223-38.233
			C299.867,8.399,278.318,0.332,256,0.332s-43.867,8.066-60.677,22.713C183.398,33.436,174.41,46.631,169.1,61.277
			c-8.196-2.326-16.717-3.527-25.251-3.527c-50.96,0-92.419,41.459-92.419,92.419c0,4.732,0.359,9.436,1.071,14.079
			c-13.258,6.385-25.007,15.944-33.908,27.744C6.43,208.118,0,227.342,0,247.589c0,50.96,41.459,92.419,92.419,92.419
			c12.243,0,24.327-2.477,35.518-7.133l31.72,51.065c12.332,19.854,18.852,42.703,18.852,66.075v61.655h154.984v-61.655
			c0-23.372,6.519-46.221,18.852-66.075l31.719-51.065c11.191,4.656,23.275,7.133,35.518,7.133c50.96,0,92.419-41.459,92.419-92.419
			C512,227.342,505.57,208.118,493.406,191.993z M326.86,368.108c-15.288,24.611-23.368,52.934-23.368,81.905v31.655h-94.984
			v-31.655c0-28.972-8.081-57.294-23.368-81.905l-31.747-51.108c8.558-7.536,15.654-16.588,20.908-26.615
			c4.967,3.519,10.253,6.67,15.779,9.479L256,427.113l65.92-127.248c5.526-2.809,10.811-5.96,15.779-9.479
			c5.254,10.027,12.35,19.08,20.908,26.615L326.86,368.108z M230.706,313.069c8.224,1.371,16.683,2.1,25.294,2.1
			s17.069-0.73,25.294-2.1L256,361.895L230.706,313.069z M419.581,310.007c-29.239,0-54.242-19.877-60.802-48.336l-6.294-27.304
			l-19.232,20.377c-17.979,19.051-46.859,30.424-77.253,30.424s-59.274-11.373-77.253-30.424l-19.232-20.377l-6.294,27.304
			c-6.561,28.459-31.563,48.336-60.802,48.336C58.001,310.007,30,282.007,30,247.589c0-27.296,18.235-51.867,44.344-59.752
			l14.536-4.39l-4.566-14.48c-1.913-6.066-2.883-12.391-2.883-18.797c0-34.418,28.001-62.419,62.419-62.419
			c10.087,0,19.732,2.348,28.664,6.978l18.686,9.686l3.057-20.824c4.458-30.362,31.002-53.258,61.743-53.258
			c30.741,0,57.285,22.896,61.743,53.258l3.057,20.824l18.686-9.686c8.933-4.63,18.577-6.978,28.664-6.978
			c34.418,0,62.419,28.001,62.419,62.419c0,6.406-0.97,12.73-2.883,18.797l-4.566,14.48l14.536,4.39
			C463.765,195.722,482,220.293,482,247.589C482,282.007,453.999,310.007,419.581,310.007z"/>
	</g>
</g>
<g>
	<g>
		<path d="M352.363,138.626c-21.254-17.016-48.098-14.47-51.088-14.125l3.449,29.801c0.169-0.02,17.31-1.527,28.89,7.743
			c6.738,5.395,10.598,13.55,11.802,24.935l29.834-3.156C373.189,164.342,365.489,149.134,352.363,138.626z"/>
	</g>
</g>
<g>
	<g>
		<path d="M210.889,124.519c-2.922-0.37-29.185-3.148-50.438,13.475c-13.385,10.469-21.353,25.83-23.682,45.657l29.795,3.5
			c1.83-15.575,8.512-25.403,20.429-30.047c10.013-3.901,20.118-2.821,20.218-2.811l-0.102-0.012L210.889,124.519z"/>
	</g>
</g>
<g>
</g>
<g>
</g>
<g>
</g>
<g>
</g>
<g>
</g>
<g>
</g>
<g>
</g>
<g>
</g>
<g>
</g>
<g>
</g>
<g>
</g>
<g>
</g>
<g>
</g>
<g>
</g>
<g>
</g>
</svg>
