<?xml version="1.0" encoding="iso-8859-1"?>
<!-- Generator: Adobe Illustrator 21.0.0, SVG Export Plug-In . SVG Version: 6.00 Build 0)  -->
<svg version="1.1" id="Capa_1" xmlns="http://www.w3.org/2000/svg" xmlns:xlink="http://www.w3.org/1999/xlink" x="0px" y="0px"
	 viewBox="0 0 512 512" style="enable-background:new 0 0 512 512;" xml:space="preserve">
<g>
	<g>
		<path d="M313.461,90.254V0H198.54v90.254c-34.185,10.36-59.145,42.151-59.145,79.674V512h233.209V169.928
			C372.605,132.405,347.645,100.614,313.461,90.254z M228.54,30h54.92v56.684h-54.92V30z M342.605,482H169.396v-32.681h173.209V482z
			 M342.605,419.32h-173.21V169.928c0-29.36,23.886-53.244,53.245-53.244h66.72c29.359,0,53.245,23.885,53.245,53.244V419.32z"/>
	</g>
</g>
<g>
	<g>
		<path d="M256.001,216c-31.336,0-56.83,25.494-56.83,56.83s25.494,56.829,56.83,56.829s56.83-25.493,56.83-56.829
			S287.337,216,256.001,216z M256.001,299.659c-14.794,0-26.83-12.035-26.83-26.829c0-14.794,12.036-26.83,26.83-26.83
			s26.83,12.036,26.83,26.83C282.831,287.624,270.795,299.659,256.001,299.659z"/>
	</g>
</g>
<g>
</g>
<g>
</g>
<g>
</g>
<g>
</g>
<g>
</g>
<g>
</g>
<g>
</g>
<g>
</g>
<g>
</g>
<g>
</g>
<g>
</g>
<g>
</g>
<g>
</g>
<g>
</g>
<g>
</g>
</svg>
