<?xml version="1.0" encoding="iso-8859-1"?>
<!-- Generator: Adobe Illustrator 21.0.0, SVG Export Plug-In . SVG Version: 6.00 Build 0)  -->
<svg version="1.1" id="Capa_1" xmlns="http://www.w3.org/2000/svg" xmlns:xlink="http://www.w3.org/1999/xlink" x="0px" y="0px"
	 viewBox="0 0 512 512" style="enable-background:new 0 0 512 512;" xml:space="preserve">
<g>
	<g>
		<path d="M313.628,143.037V80.614h-42.627V45.707c3.788-2.054,7.601-4.59,11.409-7.715c9.022-7.402,18.923-9.679,30.273-6.955
			c9.503,2.278,16.356,7.298,16.424,7.349l-0.081-0.062l18.194-23.855c-14.957-11.408-51.732-26.021-83.842,0.333
			c-8.816,7.233-17.612,9.562-26.891,7.117c-7.682-2.023-12.96-6.619-13.012-6.665l0.111,0.102l-20.308,22.083
			c7.351,6.761,21.173,14.637,37.721,15.374v27.802h-42.626v62.424c-43.495,12.643-75.377,52.851-75.377,100.371V512h266.011
			V243.407C389.006,195.888,357.124,155.68,313.628,143.037z M228.373,110.615h55.253v28.286h-55.253V110.615z M227.5,168.903H284.5
			c38.576,0,70.395,29.472,74.133,67.081H153.368C157.105,198.375,188.924,168.903,227.5,168.903z M359.004,481.998H152.996v-58.003
			h206.008V481.998z M359.004,393.993H152.996V265.986h206.008V393.993z"/>
	</g>
</g>
<g>
	<g>
		<path d="M256,281.987c-26.745,0-48.503,21.758-48.503,48.503c0,26.744,21.758,48.503,48.503,48.503s48.503-21.758,48.503-48.503
			C304.503,303.745,282.745,281.987,256,281.987z M256,348.991c-10.202,0-18.501-8.299-18.501-18.501
			c0-10.203,8.299-18.501,18.501-18.501c10.202,0,18.501,8.299,18.501,18.501C274.501,340.691,266.202,348.991,256,348.991z"/>
	</g>
</g>
<g>
</g>
<g>
</g>
<g>
</g>
<g>
</g>
<g>
</g>
<g>
</g>
<g>
</g>
<g>
</g>
<g>
</g>
<g>
</g>
<g>
</g>
<g>
</g>
<g>
</g>
<g>
</g>
<g>
</g>
</svg>
