<?xml version="1.0" encoding="iso-8859-1"?>
<!-- Generator: Adobe Illustrator 21.0.0, SVG Export Plug-In . SVG Version: 6.00 Build 0)  -->
<svg version="1.1" id="Capa_1" xmlns="http://www.w3.org/2000/svg" xmlns:xlink="http://www.w3.org/1999/xlink" x="0px" y="0px"
	 viewBox="0 0 512 512" style="enable-background:new 0 0 512 512;" xml:space="preserve">
<g>
	<g>
		<path d="M9.46,0v512h493.08V0H9.46z M353.266,482H39.46V30h313.806V482z M383.266,30h29.637v393.354l-29.637,33.793V30z
			 M401.373,482l26.53-30.251L454.433,482H401.373z M472.54,457.147l-29.637-33.793V30h29.637V457.147z"/>
	</g>
</g>
<g>
	<g>
		<path d="M269.712,80.207v43.645c0,40.445-32.904,73.35-73.349,73.35s-73.349-32.904-73.349-73.35V80.207h-30v43.645
			c0,56.987,46.362,103.349,103.349,103.349s103.349-46.362,103.349-103.35V80.207H269.712z"/>
	</g>
</g>
<g>
</g>
<g>
</g>
<g>
</g>
<g>
</g>
<g>
</g>
<g>
</g>
<g>
</g>
<g>
</g>
<g>
</g>
<g>
</g>
<g>
</g>
<g>
</g>
<g>
</g>
<g>
</g>
<g>
</g>
</svg>
