<?xml version="1.0" encoding="iso-8859-1"?>
<!-- Generator: Adobe Illustrator 21.0.0, SVG Export Plug-In . SVG Version: 6.00 Build 0)  -->
<svg version="1.1" id="Capa_1" xmlns="http://www.w3.org/2000/svg" xmlns:xlink="http://www.w3.org/1999/xlink" x="0px" y="0px"
	 viewBox="0 0 512.001 512.001" style="enable-background:new 0 0 512.001 512.001;" xml:space="preserve">
<g>
	<g>
		<path d="M419.574,203.386c-17.022-28.004-40.696-49.317-67.28-60.779c-6.951-21.653-24.484-36.135-44.906-36.135
			c-19.583,0-36.815,13.672-44.226,34.175c-2.43,0.92-4.821,1.91-7.181,2.99c-0.77-0.35-1.54-0.7-2.31-1.03
			c-5.03-15.68-15.62-27.601-28.83-32.983c2.748-14.053,12.232-37.883,44.612-50.91l-5.599-13.918l-5.599-13.918
			c-8.094,3.255-15.143,7.045-21.304,11.158c-0.001-0.004-0.002-0.008-0.003-0.013c-2.67-9.391-7.961-19.773-18.203-28.034
			c-23.533-19.003-63.269-18.643-118.087,1.06l-18.963,6.821l11.962,16.202c32.725,44.376,63.869,66.83,92.653,66.83
			c1.63,0,3.26-0.08,4.871-0.22c1.43-0.13,2.83-0.31,4.191-0.54c0.002,0,0.005-0.001,0.007-0.001c-0.328,1.695-0.59,3.3-0.802,4.811
			c-0.001,0.001-0.003,0.001-0.005,0.002c-13.422,4.821-24.483,16.342-30.034,31.695c-59.799,22.663-100.884,91.033-100.884,169.654
			c0,40.226,10.531,78.141,30.454,109.636c18.193,28.754,43.326,49.947,71.4,60.389c7.891,19.243,24.474,31.674,43.256,31.674
			c19.273,0,36.465-13.472,44.006-33.625c1.08-0.45,2.15-0.93,3.22-1.42c2.68,1.23,5.401,2.35,8.141,3.37
			c7.891,19.243,24.474,31.674,43.256,31.674c19.273,0,36.465-13.472,44.006-33.625c26.874-11.322,50.817-32.695,68.02-60.899
			c18.923-31.014,28.934-68.07,28.934-107.175C448.348,271.326,438.397,234.351,419.574,203.386z M188.511,74.798
			c-9.351,0.84-28.464-3.521-57.678-37.995c43.236-12.312,61.549-5.421,68.9,0.4c8.791,6.961,9.821,18.463,9.811,23.573
			C206.774,64.967,199.673,73.808,188.511,74.798z M256.051,442.91c-6.461,4.111-13.292,7.451-20.433,9.931l-7.861,2.73l-0.75,3.31
			l-1.1,4.801c-2.41,10.612-9.621,18.313-17.142,18.313c-7.301,0-14.252-7.111-16.902-17.302l-2.13-8.191l-8.111-2.41
			c-50.967-15.162-87.963-75.641-87.963-143.791c0-67.84,36.795-128.248,87.492-143.641l8.511-2.58l1.82-8.701
			c2.29-10.952,9.551-18.903,17.282-18.903c7.941,0,15.452,8.561,17.473,19.913l0.91,5.081l0.63,3.531l8.241,2.91
			c7.001,2.47,13.702,5.761,20.043,9.791c38.315,24.353,63.649,75.561,63.649,132.599C319.71,367.41,294.396,418.577,256.051,442.91
			z M334.242,452.842l-7.861,2.73l-1.84,8.111c-2.42,10.612-9.631,18.313-17.152,18.313c-7.301,0-14.252-7.111-16.902-17.302
			l-2.13-8.191l-0.39-0.12c12.482-10.682,23.613-23.813,32.825-38.906c18.923-31.014,28.924-68.07,28.924-107.175
			c0-38.976-9.941-75.951-28.764-106.915c-9.241-15.212-20.453-28.444-33.025-39.196l0.36-0.11l1.82-8.701
			c2.29-10.952,9.561-18.903,17.282-18.903c7.941,0,15.452,8.561,17.473,19.913l1.54,8.611l8.251,2.91
			c49.277,17.352,83.692,75.911,83.692,142.39C418.344,377.041,383.759,435.66,334.242,452.842z"/>
	</g>
</g>
<g>
	<g>
		<path d="M177.099,389.283c-23.033-19.893-24.824-45.586-24.934-47.747l-29.994,0.82c0.06,1.98,1.84,48.897,46.897,78.361
			l13.062-19.973l3.36-5.141C182.42,393.593,179.63,391.473,177.099,389.283z"/>
	</g>
</g>
<g>
</g>
<g>
</g>
<g>
</g>
<g>
</g>
<g>
</g>
<g>
</g>
<g>
</g>
<g>
</g>
<g>
</g>
<g>
</g>
<g>
</g>
<g>
</g>
<g>
</g>
<g>
</g>
<g>
</g>
</svg>
