<?xml version="1.0" encoding="iso-8859-1"?>
<!-- Generator: Adobe Illustrator 21.0.0, SVG Export Plug-In . SVG Version: 6.00 Build 0)  -->
<svg version="1.1" id="Capa_1" xmlns="http://www.w3.org/2000/svg" xmlns:xlink="http://www.w3.org/1999/xlink" x="0px" y="0px"
	 viewBox="0 0 512 512" style="enable-background:new 0 0 512 512;" xml:space="preserve">
<g>
	<g>
		<path d="M440.75,95.15c-5.5-26.02-28.64-49.38-66.51-66.73C334.25,10.09,281.41,0,225.45,0s-108.8,10.09-148.8,28.42
			c-43.72,20.03-67.8,48.07-67.8,78.95c0,24.62,15.81,48,44.74,66.5v273.97h61.1V512h343.72V238.03
			c28.93-18.5,44.74-41.87,44.74-66.49C503.15,141.96,481.05,114.98,440.75,95.15z M83.59,417.84V210.07v-53.42l-7.61-4.31
			c-0.79-0.45-1.57-0.9-2.34-1.36c-22.46-13.27-34.79-28.69-34.79-43.61c0-18.19,18.33-37.03,50.3-51.68
			C125.3,39.12,173.71,30,225.45,30c51.73,0,100.14,9.12,136.3,25.69c15.08,6.92,27.13,14.77,35.65,23.04
			c9.53,9.25,14.64,19.04,14.64,28.64c0,2.49-0.34,5-1.03,7.51c-3.51,13.02-16.03,26.08-36.1,37.46l-7.6,4.31v261.19H83.59z
			 M436.02,216.51l-7.61,4.31V482H144.69v-34.16h252.62V173.87c20.74-13.27,34.74-29.05,41-45.99
			c22.35,13.17,34.84,28.64,34.84,43.66C473.15,186.96,459.96,202.93,436.02,216.51z"/>
	</g>
</g>
<g>
	<g>
		<polygon points="144.69,347.33 128,347.33 128,377.33 144.69,377.33 158,377.33 158,347.33 		"/>
	</g>
</g>
<g>
	<g>
		<rect x="226" y="296.33" width="30" height="30"/>
	</g>
</g>
<g>
	<g>
		<rect x="296.45" y="347.33" width="30" height="30"/>
	</g>
</g>
<g>
	<g>
		<rect x="296.45" y="237" width="30" height="30"/>
	</g>
</g>
<g>
	<g>
		<rect x="153.22" y="246.67" width="30" height="30"/>
	</g>
</g>
<g>
	<g>
		<rect x="230.33" y="166.92" width="30" height="30"/>
	</g>
</g>
<g>
	<g>
		<rect x="109.33" y="151.83" width="30" height="30"/>
	</g>
</g>
<g>
	<g>
		<rect x="311.45" y="99.25" width="30" height="30"/>
	</g>
</g>
<g>
	<g>
		<polygon points="222.11,64.16 222.11,68.8 222.11,94.16 252.11,94.16 252.11,65.46 252.11,64.16 		"/>
	</g>
</g>
<g>
	<g>
		<polygon points="133.89,79.16 133.89,94.4 133.89,109.16 163.89,109.16 163.89,82.38 163.89,79.16 		"/>
	</g>
</g>
<g>
</g>
<g>
</g>
<g>
</g>
<g>
</g>
<g>
</g>
<g>
</g>
<g>
</g>
<g>
</g>
<g>
</g>
<g>
</g>
<g>
</g>
<g>
</g>
<g>
</g>
<g>
</g>
<g>
</g>
</svg>
