<?xml version="1.0" encoding="iso-8859-1"?>
<!-- Generator: Adobe Illustrator 21.0.0, SVG Export Plug-In . SVG Version: 6.00 Build 0)  -->
<svg version="1.1" id="Capa_1" xmlns="http://www.w3.org/2000/svg" xmlns:xlink="http://www.w3.org/1999/xlink" x="0px" y="0px"
	 viewBox="0 0 512 512" style="enable-background:new 0 0 512 512;" xml:space="preserve">
<g>
	<g>
		<path d="M386.232,101.559h13.011V0H112.757v101.559h13.01l-49.009,86.747V512h358.484V188.306L386.232,101.559z M142.757,30
			h226.486v41.559H142.757V30z M160.224,101.559h191.551l42.764,75.691H117.461L160.224,101.559z M405.242,482H106.758v-68.457
			h298.484V482z M405.242,383.543H106.758V207.25h298.484V383.543z"/>
	</g>
</g>
<g>
	<g>
		<path d="M273.932,261.045c2.144-4.394,5.828-8.982,12.162-11.27l-10.189-28.217c-20.481,7.395-29.852,24.444-33.28,38.107
			C219.02,265.644,201.5,287.062,201.5,312.5c0,30.052,24.448,54.5,54.5,54.5s54.5-24.448,54.5-54.5
			C310.5,288.73,295.198,268.478,273.932,261.045z M256,337c-13.51,0-24.5-10.99-24.5-24.5S242.49,288,256,288
			c13.51,0,24.5,10.99,24.5,24.5S269.51,337,256,337z"/>
	</g>
</g>
<g>
</g>
<g>
</g>
<g>
</g>
<g>
</g>
<g>
</g>
<g>
</g>
<g>
</g>
<g>
</g>
<g>
</g>
<g>
</g>
<g>
</g>
<g>
</g>
<g>
</g>
<g>
</g>
<g>
</g>
</svg>
