<?xml version="1.0" encoding="iso-8859-1"?>
<!-- Generator: Adobe Illustrator 21.0.0, SVG Export Plug-In . SVG Version: 6.00 Build 0)  -->
<svg version="1.1" id="Capa_1" xmlns="http://www.w3.org/2000/svg" xmlns:xlink="http://www.w3.org/1999/xlink" x="0px" y="0px"
	 viewBox="0 0 511.999 511.999" style="enable-background:new 0 0 511.999 511.999;" xml:space="preserve">
<g>
	<g>
		<path d="M493.395,225.316c-46.393-42.033-125.237-92.138-237.396-92.138c-112.16,0.001-191.004,50.105-237.395,92.138
			C1.21,241.076-4.512,264.046,3.67,285.261c8.786,22.783,31.251,37.504,57.231,37.504h390.198c25.98,0,48.444-14.722,57.231-37.504
			C516.512,264.045,510.789,241.076,493.395,225.316z M480.343,274.469c-3.412,8.847-12.886,18.301-29.243,18.301h-390.2
			c-16.357,0-25.83-9.453-29.242-18.301c-1.762-4.569-4.598-16.335,7.086-26.921c23.981-21.728,57.428-45.81,100.467-62.665
			l-18.193,44.382l27.757,11.378l27.767-67.738c12.437-3.144,25.517-5.629,39.234-7.302l-26.096,63.662l27.757,11.378l31.723-77.388
			c2.266-0.045,4.543-0.076,6.839-0.076c9.926,0,19.566,0.434,28.923,1.245l-26.579,64.842l27.756,11.378l29.541-72.066
			c11.484,2.126,22.474,4.819,32.976,7.967l-21.61,52.72l27.756,11.378l22.177-54.102c41.045,16.753,73.113,39.983,96.318,61.008
			C484.941,258.135,482.104,269.901,480.343,274.469z"/>
	</g>
</g>
<g>
	<g>
		<rect x="0.019" y="348.823" width="511.962" height="29.998"/>
	</g>
</g>
<g>
</g>
<g>
</g>
<g>
</g>
<g>
</g>
<g>
</g>
<g>
</g>
<g>
</g>
<g>
</g>
<g>
</g>
<g>
</g>
<g>
</g>
<g>
</g>
<g>
</g>
<g>
</g>
<g>
</g>
</svg>
