<?xml version="1.0" encoding="iso-8859-1"?>
<!-- Generator: Adobe Illustrator 21.0.0, SVG Export Plug-In . SVG Version: 6.00 Build 0)  -->
<svg version="1.1" id="Capa_1" xmlns="http://www.w3.org/2000/svg" xmlns:xlink="http://www.w3.org/1999/xlink" x="0px" y="0px"
	 viewBox="0 0 512 512" style="enable-background:new 0 0 512 512;" xml:space="preserve">
<g>
	<g>
		<rect x="83.661" y="254.623" width="28.392" height="28.392"/>
	</g>
</g>
<g>
	<g>
		<path d="M512,236.891v-28.236h-74.234c-28.235,0-52.224,18.469-60.559,43.955c-17.815-16.573-35.91-30.672-54.039-42.07v0.001
			c-10.701-6.729-21.445-12.545-32.222-17.486v-79.58l-15.619,0.642c-85.483,3.509-140.182,56.307-157.941,76.325
			C49.622,219.521,8.523,274.108,6.636,276.651L0,285.592l6.635,8.941c0.742,1,18.543,24.788,49.715,49.394
			c41.635,32.865,87.7,51.629,133.213,54.26c3.888,0.225,7.761,0.337,11.642,0.337c59.936-0.003,118.987-26.847,176.002-79.941
			c8.335,25.486,32.324,43.955,60.559,43.955H512v-28.237c0-19.521-8.833-37.01-22.703-48.705
			C503.167,273.901,512,256.412,512,236.891z M260.938,145.401v36.22c-25.518-7.738-51.171-10.495-76.834-8.267
			C208.225,158.184,233.966,148.81,260.938,145.401z M124.529,351.011c-19.537-8.96-36.097-20.061-48.85-30.057
			c-17.211-13.492-30.052-26.88-37.508-35.347c13.488-15.272,44.603-46.588,87.598-66.034
			C135.732,241.283,152.628,292.764,124.529,351.011z M191.527,368.245c-13.626-0.769-26.595-3.191-38.775-6.705
			c20.953-45.06,19.178-86.297,13.485-113.982c-3.239-15.753-8.033-28.83-12.228-38.309c50.872-14.211,102.379-5.25,153.185,26.695
			l0.001,0.001c20.39,12.818,40.859,29.486,60.989,49.651C310.123,343.797,250.743,371.599,191.527,368.245z M437.765,238.663
			h44.181c-0.924,17.763-15.667,31.931-33.655,31.931h-44.181C405.033,252.829,419.775,238.663,437.765,238.663z M437.766,332.533
			c-17.989,0-32.733-14.167-33.655-31.932h44.182c17.988,0,32.731,14.168,33.654,31.932H437.766z"/>
	</g>
</g>
<g>
</g>
<g>
</g>
<g>
</g>
<g>
</g>
<g>
</g>
<g>
</g>
<g>
</g>
<g>
</g>
<g>
</g>
<g>
</g>
<g>
</g>
<g>
</g>
<g>
</g>
<g>
</g>
<g>
</g>
</svg>
