<?xml version="1.0" encoding="iso-8859-1"?>
<!-- Generator: Adobe Illustrator 21.0.0, SVG Export Plug-In . SVG Version: 6.00 Build 0)  -->
<svg version="1.1" id="Capa_1" xmlns="http://www.w3.org/2000/svg" xmlns:xlink="http://www.w3.org/1999/xlink" x="0px" y="0px"
	 viewBox="0 0 512 512" style="enable-background:new 0 0 512 512;" xml:space="preserve">
<g>
	<g>
		<path d="M435.26,144.845h-75.94v-46.24H0v266.86h46.97c2.83,26.9,25.65,47.93,53.28,47.93c27.64,0,50.46-21.03,53.29-47.93h213.84
			c2.83,26.9,25.64,47.93,53.28,47.93c27.64,0,50.46-21.03,53.29-47.93H512v-130.47L435.26,144.845z M359.32,174.845h62.08
			l45.81,53.82H359.32V174.845z M123.15,365.465c-2.54,10.28-11.84,17.93-22.9,17.93c-11.05,0-20.35-7.65-22.89-17.93
			c-0.45-1.81-0.69-3.7-0.69-5.65c0-13.01,10.58-23.59,23.58-23.59c13.01,0,23.59,10.58,23.59,23.59
			C123.84,361.765,123.6,363.655,123.15,365.465z M329.32,335.465H147.98c-8.89-17.35-26.94-29.24-47.73-29.24
			c-20.78,0-38.84,11.89-47.72,29.24H30v-206.86h299.32V335.465z M443.56,365.465c-2.54,10.28-11.84,17.93-22.9,17.93
			c-11.05,0-20.35-7.65-22.89-17.93c-0.45-1.81-0.69-3.7-0.69-5.65c0-13.01,10.58-23.59,23.58-23.59
			c13.01,0,23.59,10.58,23.59,23.59C444.25,361.765,444.01,363.655,443.56,365.465z M482,335.465h-13.61
			c-8.89-17.35-26.94-29.24-47.73-29.24c-20.79,0-38.84,11.89-47.72,29.24h-13.62v-76.8H482V335.465z"/>
	</g>
</g>
<g>
	<g>
		<rect x="64.4" y="155.66" width="71.71" height="30"/>
	</g>
</g>
<g>
	<g>
		<rect x="64.4" y="205.16" width="71.71" height="30"/>
	</g>
</g>
<g>
	<g>
		<rect x="64.4" y="254.66" width="71.71" height="30"/>
	</g>
</g>
<g>
</g>
<g>
</g>
<g>
</g>
<g>
</g>
<g>
</g>
<g>
</g>
<g>
</g>
<g>
</g>
<g>
</g>
<g>
</g>
<g>
</g>
<g>
</g>
<g>
</g>
<g>
</g>
<g>
</g>
</svg>
