<?xml version="1.0" encoding="iso-8859-1"?>
<!-- Generator: Adobe Illustrator 21.0.0, SVG Export Plug-In . SVG Version: 6.00 Build 0)  -->
<svg version="1.1" id="Capa_1" xmlns="http://www.w3.org/2000/svg" xmlns:xlink="http://www.w3.org/1999/xlink" x="0px" y="0px"
	 viewBox="0 0 512 512" style="enable-background:new 0 0 512 512;" xml:space="preserve">
<g>
	<g>
		<path d="M305.999,288.761c-1.959-4.418-4.734-8.173-8.333-11.268c-3.598-3.092-7.986-5.681-13.161-7.764
			c-5.179-2.084-10.984-4.007-17.423-5.776c-4.673-1.261-8.777-2.397-12.311-3.409c-3.536-1.009-6.471-2.112-8.806-3.313
			c-2.338-1.199-4.104-2.557-5.303-4.072c-1.201-1.515-1.799-3.409-1.799-5.682c0-7.447,5.554-11.173,16.665-11.173
			c4.039,0,8.078,0.568,12.12,1.704c4.039,1.137,7.765,2.462,11.174,3.978c3.409,1.515,6.249,2.968,8.522,4.355
			c2.273,1.391,3.599,2.338,3.978,2.841l13.636-25.756c-3.03-1.767-6.345-3.533-9.943-5.303c-3.598-1.767-7.48-3.344-11.646-4.734
			c-3.974-1.324-8.127-2.412-12.446-3.278V185.46h-30v25.065c-1.171,0.293-2.333,0.609-3.479,0.971
			c-5.998,1.894-11.268,4.704-15.813,8.427c-4.546,3.726-8.144,8.304-10.795,13.73c-2.651,5.43-3.978,11.68-3.978,18.748
			c0,5.052,0.726,9.47,2.179,13.257c1.449,3.788,3.66,7.135,6.628,10.037c2.965,2.906,6.723,5.463,11.268,7.67
			c4.546,2.211,9.91,4.261,16.098,6.155c4.67,1.391,8.995,2.651,12.973,3.787c3.977,1.137,7.415,2.367,10.321,3.693
			c2.902,1.325,5.175,2.81,6.817,4.45c1.64,1.643,2.462,3.726,2.462,6.249c-0.002,6.695-5.495,10.038-16.478,10.038
			c-5.179,0-10.292-0.693-15.34-2.084c-5.052-1.388-9.629-2.965-13.73-4.734c-4.104-1.767-7.545-3.533-10.321-5.303
			c-2.778-1.767-4.421-2.965-4.924-3.598L201.176,329.1c3.911,2.651,8.173,4.989,12.783,7.007c4.606,2.021,9.374,3.758,14.298,5.208
			c4.131,1.219,8.354,2.177,12.663,2.906v27.155h30v-26.545c2.151-0.329,4.281-0.74,6.386-1.244
			c6.061-1.449,11.426-3.787,16.098-7.007c4.67-3.22,8.428-7.448,11.269-12.689c2.84-5.237,4.261-11.647,4.261-19.222
			C308.934,298.485,307.955,293.182,305.999,288.761z"/>
	</g>
</g>
<g>
	<g>
		<path d="M374.449,0H137.551L79.039,116.443V512h353.922V116.443L374.449,0z M256,81.573c10.201,0,18.5,8.299,18.5,18.5
			s-8.299,18.5-18.5,18.5s-18.5-8.299-18.5-18.5S245.799,81.573,256,81.573z M402.961,482H109.039v-44h293.922V482z M402.961,408
			H109.039V123.557L156.051,30H241v23.959c-19.422,6.333-33.5,24.606-33.5,46.115c0,26.743,21.757,48.5,48.5,48.5
			s48.5-21.757,48.5-48.5c0-21.509-14.078-39.781-33.5-46.115V30h84.949l47.012,93.557V408z"/>
	</g>
</g>
<g>
</g>
<g>
</g>
<g>
</g>
<g>
</g>
<g>
</g>
<g>
</g>
<g>
</g>
<g>
</g>
<g>
</g>
<g>
</g>
<g>
</g>
<g>
</g>
<g>
</g>
<g>
</g>
<g>
</g>
</svg>
