<?xml version="1.0" encoding="iso-8859-1"?>
<!-- Generator: Adobe Illustrator 21.0.0, SVG Export Plug-In . SVG Version: 6.00 Build 0)  -->
<svg version="1.1" id="Capa_1" xmlns="http://www.w3.org/2000/svg" xmlns:xlink="http://www.w3.org/1999/xlink" x="0px" y="0px"
	 viewBox="0 0 512 512" style="enable-background:new 0 0 512 512;" xml:space="preserve">
<g>
	<g>
		<path d="M387.745,0h-263.46l-37.65,116.55v60.17c0,18.948,8.418,36.017,21.806,47.846V512h294.628V224.977
			c13.668-11.84,22.296-29.089,22.296-48.257v-58.73L387.745,0z M365.825,30l26.16,82.07h-69.53h-1.209L314.367,30H365.825z
			 M227.73,30h56.532l6.88,82.07H220.85L227.73,30z M292.455,142.07v34.65c0,19.1-16.36,34.65-36.46,34.65
			c-20.1,0-36.45-15.55-36.45-34.65v-34.65H292.455z M197.657,224.628c2.469-2.169,4.778-4.529,6.888-7.048
			c12.19,14.51,30.73,23.79,51.45,23.79c20.72,0,39.27-9.28,51.46-23.79c1.969,2.349,4.109,4.569,6.398,6.618v174.469H197.657
			V224.628z M146.125,30h51.499l-6.88,82.07h-1.2h-69.94L146.125,30z M116.635,176.72v-34.65h72.91v34.65
			c0,19.1-16.36,34.65-36.46,34.65S116.635,195.82,116.635,176.72z M373.067,482H138.441V239.779c0.001,0,0.003,0.001,0.004,0.001
			c4.71,1.04,9.61,1.59,14.64,1.59c5,0,9.88-0.54,14.57-1.57c0.001,0,0.002,0,0.002-0.001v188.868h176.195V239.699
			c0,0,0.001,0,0.002,0.001c4.84,1.09,9.88,1.67,15.05,1.67c4.86,0,9.6-0.51,14.16-1.49c0.001,0,0.002-0.001,0.003-0.001V482z
			 M395.365,176.72c0,19.1-16.36,34.65-36.46,34.65c-20.1,0-36.45-15.55-36.45-34.65v-34.65h72.91V176.72z"/>
	</g>
</g>
<g>
	<g>
		<rect x="241.75" y="441.08" width="29.5" height="29.5"/>
	</g>
</g>
<g>
</g>
<g>
</g>
<g>
</g>
<g>
</g>
<g>
</g>
<g>
</g>
<g>
</g>
<g>
</g>
<g>
</g>
<g>
</g>
<g>
</g>
<g>
</g>
<g>
</g>
<g>
</g>
<g>
</g>
</svg>
