<?xml version="1.0" encoding="iso-8859-1"?>
<!-- Generator: Adobe Illustrator 21.0.0, SVG Export Plug-In . SVG Version: 6.00 Build 0)  -->
<svg version="1.1" id="Capa_1" xmlns="http://www.w3.org/2000/svg" xmlns:xlink="http://www.w3.org/1999/xlink" x="0px" y="0px"
	 viewBox="0 0 512 512" style="enable-background:new 0 0 512 512;" xml:space="preserve">
<g>
	<g>
		<path d="M495.66,260.07c-1.02-23.08-9.91-53.27-23.22-78.38c-16.81-31.73-37.92-50.27-59.95-52.88
			c-4.07-14.98-10.09-30.49-17.48-44.43c-18.18-34.31-41.39-53.2-65.34-53.2c-23.96,0-47.17,18.89-65.35,53.2
			c-3.79,7.15-7.22,14.71-10.2,22.4c-2.99-7.69-6.42-15.25-10.21-22.4c-18.18-34.31-41.39-53.2-65.34-53.2
			c-23.96,0-47.17,18.89-65.35,53.2c-7.49,14.14-13.58,29.89-17.66,45.07c-20.6,4.24-40.19,22.41-56,52.24
			c-13.31,25.11-22.2,55.3-23.22,78.38H0v88.17h26.05l24.73,132.58h109.11l12.37-66.29h17.06l12.36,66.29h109.11l12.37-66.29h16.58
			l12.37,66.29h109.11l24.73-132.58H512v-88.17H495.66z M388.32,167.91c6.5-6.11,12.95-9.42,18.78-9.42c3.51,0,7.24,1.2,11.08,3.49
			c9.22,5.5,19.03,17.29,27.76,33.76c10.78,20.35,18.56,46.01,19.69,64.33H348.57c0.12-2.06,0.34-4.21,0.63-6.44
			c1.39-10.7,4.6-23.13,9.07-35.29c2.86-7.82,6.24-15.53,9.99-22.6C374.59,183.8,381.49,174.32,388.32,167.91z M290.83,98.42
			c12.36-23.32,26.88-37.24,38.84-37.24c11.95,0,26.47,13.92,38.83,37.24c5.97,11.27,11.02,24.15,14.53,36.52
			c-15.12,8.22-29.29,24.13-41.27,46.75c-3.8,7.16-7.22,14.73-10.21,22.43c-2.99-7.7-6.41-15.27-10.21-22.43
			c-12.85-24.24-28.2-40.79-44.55-48.41C280.26,121.43,285.13,109.18,290.83,98.42z M237.22,167.91c1.28-1.2,2.55-2.3,3.82-3.27
			c5.19-4.01,10.27-6.15,14.96-6.15c3.51,0,7.24,1.2,11.08,3.49c1.31,0.78,2.63,1.69,3.97,2.73c8.02,6.22,16.3,16.9,23.79,31.03
			c4.12,7.77,7.79,16.31,10.82,24.92c4.14,11.71,7.09,23.55,8.34,33.75c0.24,1.95,0.42,3.84,0.53,5.66H197.47
			c0.12-2.06,0.34-4.21,0.63-6.44c1.39-10.7,4.6-23.13,9.07-35.29c2.86-7.82,6.24-15.53,9.99-22.6
			C223.49,183.8,230.39,174.32,237.22,167.91z M139.73,98.42c12.36-23.32,26.88-37.24,38.84-37.24c11.95,0,26.47,13.92,38.83,37.24
			c5.97,11.27,11.02,24.15,14.53,36.52c-15.12,8.22-29.29,24.13-41.27,46.75c-3.8,7.16-7.22,14.73-10.21,22.43
			c-2.99-7.7-6.41-15.27-10.21-22.43c-12.85-24.24-28.2-40.79-44.55-48.41C129.16,121.43,134.03,109.18,139.73,98.42z M66.06,195.74
			c7.52-14.18,15.83-24.89,23.88-31.1c5.19-4.01,10.27-6.15,14.96-6.15c4.71,0,9.83,2.16,15.05,6.22
			c8.02,6.22,16.3,16.9,23.79,31.03c4.12,7.77,7.79,16.31,10.82,24.92c4.14,11.71,7.09,23.55,8.34,33.75
			c0.24,1.95,0.42,3.84,0.53,5.66H46.37C47.5,241.75,55.28,216.09,66.06,195.74z M436.29,450.82h-59.26l-12.37-66.29h-66.42
			l-12.37,66.29H226.6l-12.36-66.29h-66.9l-12.37,66.29H75.71L56.57,348.24h398.86L436.29,450.82z M482,318.24H30v-28.17h452V318.24
			z"/>
	</g>
</g>
<g>
</g>
<g>
</g>
<g>
</g>
<g>
</g>
<g>
</g>
<g>
</g>
<g>
</g>
<g>
</g>
<g>
</g>
<g>
</g>
<g>
</g>
<g>
</g>
<g>
</g>
<g>
</g>
<g>
</g>
</svg>
