<?xml version="1.0" encoding="iso-8859-1"?>
<!-- Generator: Adobe Illustrator 21.0.0, SVG Export Plug-In . SVG Version: 6.00 Build 0)  -->
<svg version="1.1" id="Capa_1" xmlns="http://www.w3.org/2000/svg" xmlns:xlink="http://www.w3.org/1999/xlink" x="0px" y="0px"
	 viewBox="0 0 512 512" style="enable-background:new 0 0 512 512;" xml:space="preserve">
<g>
	<g>
		<path d="M333.221,323.307c-1.567-3.537-3.791-6.546-6.674-9.026c-2.883-2.477-6.399-4.552-10.546-6.221
			c-4.149-1.669-8.801-3.21-13.96-4.628c-3.743-1.01-7.032-1.921-9.863-2.731c-2.833-0.809-5.185-1.693-7.056-2.656
			c-1.873-0.96-3.289-2.048-4.248-3.263c-0.963-1.214-1.441-2.731-1.441-4.552c0-5.967,4.45-8.953,13.353-8.953
			c3.236,0,6.472,0.456,9.711,1.365c3.236,0.911,6.221,1.973,8.953,3.187c2.731,1.214,5.007,2.378,6.828,3.49
			c1.821,1.115,2.883,1.873,3.187,2.276l10.925-20.636c-2.428-1.415-5.083-2.83-7.966-4.248c-2.883-1.415-5.993-2.679-9.332-3.794
			c-2.261-0.753-4.599-1.406-7-1.974v-20.402H278.11v20.922c-4.728,1.517-8.891,3.746-12.484,6.689
			c-3.642,2.985-6.525,6.652-8.649,11.001c-2.124,4.35-3.187,9.358-3.187,15.021c0,4.047,0.581,7.587,1.745,10.621
			c1.162,3.035,2.933,5.716,5.311,8.042c2.376,2.329,5.387,4.377,9.028,6.146c3.642,1.771,7.94,3.414,12.897,4.932
			c3.741,1.113,7.208,2.124,10.394,3.034c3.187,0.911,5.941,1.897,8.269,2.959c2.326,1.062,4.147,2.253,5.463,3.565
			c1.314,1.317,1.973,2.986,1.973,5.008c0,5.363-4.401,8.042-13.201,8.042c-4.149,0-8.246-0.554-12.291-1.669
			c-4.047-1.113-7.714-2.375-11.001-3.794c-3.289-1.415-6.046-2.831-8.27-4.248c-2.226-1.415-3.542-2.375-3.945-2.883
			l-10.925,21.698c3.134,2.125,6.548,3.998,10.242,5.615c3.691,1.619,7.511,3.011,11.456,4.172c2.354,0.695,4.748,1.277,7.173,1.773
			v22.316h29.982v-21.822c0.716-0.145,1.435-0.276,2.144-0.446c4.855-1.161,9.154-3.035,12.897-5.615
			c3.741-2.579,6.752-5.967,9.028-10.166c2.276-4.197,3.414-9.332,3.414-15.402C335.573,331.097,334.788,326.849,333.221,323.307z"
			/>
	</g>
</g>
<g>
	<g>
		<rect x="209.341" y="90" width="93.32" height="29.982"/>
	</g>
</g>
<g>
	<g>
		<path d="M332.98,27.014L294.61,7.589l-38.369,19.425L217.892,7.6l-38.631,19.435l-53.6-26.967v511.863l53.6-26.967l38.631,19.435
			l38.349-19.414l38.369,19.425l38.37-19.425L386.34,512V0L332.98,27.014z M356.357,463.217l-23.377-11.835l-38.37,19.425
			l-38.369-19.425l-38.391,19.435l-38.589-19.414l-23.618,11.882V174.781h200.714V463.217z M356.358,144.799H155.644V48.714
			l23.618,11.883l38.589-19.414l38.391,19.435l38.369-19.425l38.37,19.425l23.378-11.836V144.799z"/>
	</g>
</g>
<g>
	<g>
		<rect x="179.051" y="219.35" width="49.3" height="29.982"/>
	</g>
</g>
<g>
	<g>
		<rect x="179.051" y="273.99" width="49.3" height="29.982"/>
	</g>
</g>
<g>
	<g>
		<rect x="179.051" y="328.62" width="49.3" height="29.982"/>
	</g>
</g>
<g>
	<g>
		<rect x="179.051" y="383.25" width="49.3" height="29.982"/>
	</g>
</g>
<g>
</g>
<g>
</g>
<g>
</g>
<g>
</g>
<g>
</g>
<g>
</g>
<g>
</g>
<g>
</g>
<g>
</g>
<g>
</g>
<g>
</g>
<g>
</g>
<g>
</g>
<g>
</g>
<g>
</g>
</svg>
