<?xml version="1.0" encoding="iso-8859-1"?>
<!-- Generator: Adobe Illustrator 21.0.0, SVG Export Plug-In . SVG Version: 6.00 Build 0)  -->
<svg version="1.1" id="Capa_1" xmlns="http://www.w3.org/2000/svg" xmlns:xlink="http://www.w3.org/1999/xlink" x="0px" y="0px"
	 viewBox="0 0 512.001 512.001" style="enable-background:new 0 0 512.001 512.001;" xml:space="preserve">
<g>
	<g>
		<path d="M439.848,67.047h-23.194V0H95.347v67.047H72.153L19.847,197.307v50.073c0,21.55,11.566,40.447,28.81,50.813v213.809
			h414.687V298.192c17.244-10.365,28.81-29.263,28.81-50.813v-50.073L439.848,67.047z M419.538,97.091l36.553,91.042h-52.386h-3.163
			l-21.7-91.042H419.538z M125.391,30.044h261.22v37.004h-261.22V30.044z M315.247,218.177h58.415v29.202
			c0,16.103-13.109,29.212-29.212,29.212c-16.103,0-29.202-13.109-29.202-29.212V218.177z M314.288,188.133l-6.023-91.042h39.693
			l21.7,91.042h-54.411H314.288z M285.203,218.177v29.202c0,16.103-13.099,29.212-29.202,29.212
			c-16.103,0-29.202-13.109-29.202-29.212v-29.202H285.203z M227.823,188.133l6.023-91.042h44.309l6.023,91.042H227.823z
			 M142.343,188.133l21.7-91.042h39.693l-6.023,91.042h-0.958H142.343z M196.754,218.177v29.202
			c0,16.103-13.099,29.212-29.202,29.212s-29.212-13.109-29.212-29.212v-29.202H196.754z M92.463,97.091h40.694l-21.7,91.042h-3.163
			H55.909L92.463,97.091z M49.891,247.379v-29.202h58.405v29.202c0,16.103-13.099,29.212-29.202,29.212
			C62.99,276.592,49.891,263.483,49.891,247.379z M240.979,481.956H186.24V377.198h54.739V481.956z M325.761,481.956h-54.739
			V377.198h54.739V481.956z M433.3,481.957h-77.496v-0.001V347.154H156.196v134.802H78.701V306.626c0.001,0,0.001,0,0.002,0
			c0.13,0.01,0.26,0.01,0.391,0.01c17.566,0,33.379-7.691,44.224-19.879c10.846,12.188,26.659,19.879,44.234,19.879
			c17.566,0,33.379-7.691,44.224-19.879c10.846,12.188,26.659,19.879,44.224,19.879s33.378-7.691,44.224-19.879
			c10.846,12.188,26.659,19.879,44.224,19.879c17.576,0,33.389-7.691,44.234-19.879c10.846,12.188,26.659,19.879,44.224,19.879
			c0.13,0,0.26,0,0.391-0.01c0.001,0,0.001,0,0.002,0V481.957z M462.11,247.379c0,16.103-13.099,29.212-29.202,29.212
			s-29.202-13.109-29.202-29.212v-29.202h58.405V247.379z"/>
	</g>
</g>
<g>
</g>
<g>
</g>
<g>
</g>
<g>
</g>
<g>
</g>
<g>
</g>
<g>
</g>
<g>
</g>
<g>
</g>
<g>
</g>
<g>
</g>
<g>
</g>
<g>
</g>
<g>
</g>
<g>
</g>
</svg>
