<?xml version="1.0" encoding="iso-8859-1"?>
<!-- Generator: Adobe Illustrator 21.0.0, SVG Export Plug-In . SVG Version: 6.00 Build 0)  -->
<svg version="1.1" id="Capa_1" xmlns="http://www.w3.org/2000/svg" xmlns:xlink="http://www.w3.org/1999/xlink" x="0px" y="0px"
	 viewBox="0 0 512 512" style="enable-background:new 0 0 512 512;" xml:space="preserve">
<g>
	<g>
		<ellipse transform="matrix(0.7071 -0.7071 0.7071 0.7071 17.9667 307.3715)" cx="380.014" cy="131.998" rx="14.395" ry="36.359"/>
	</g>
</g>
<g>
	<g>
		<path d="M501.17,172.483c-13.143-30.373-37.101-63.82-67.46-94.179c-30.358-30.359-63.806-54.316-94.18-67.459
			c-33.652-14.562-61.011-14.421-77.373,0.317l-0.039-0.039l-61.909,61.909c-56.916,56.916-70.022,140.426-37.87,205.081
			l-56.695,56.695c-24.68-22.727-63.25-22.119-87.191,1.819C6.553,348.526,0,364.346,0,381.172c0,16.827,6.553,32.646,18.451,44.545
			c13.563,13.564,31.832,19.633,49.596,18.22c-0.133,1.682-0.2,3.377-0.2,5.082c0,16.827,6.553,32.646,18.451,44.545
			c12.281,12.281,28.413,18.421,44.544,18.421s32.264-6.14,44.544-18.421c11.898-11.898,18.451-27.718,18.451-44.545
			c0-15.948-5.887-30.991-16.63-42.648l56.636-56.635c22.587,11.295,47.873,17.233,74.381,17.233c2.088,0,4.189-0.037,6.29-0.111
			c46.396-1.632,90.601-21.184,124.469-55.052l60.418-60.418c0.003-0.003,0.006-0.006,0.009-0.009
			c0.003-0.003,0.006-0.006,0.009-0.01l1.473-1.473l-0.039-0.039C515.591,233.494,515.732,206.137,501.17,172.483z M130.41,410.684
			l16.916,9.796c2.492,1.443,4.786,3.205,6.818,5.237c6.224,6.223,9.652,14.499,9.652,23.302c0,8.803-3.428,17.078-9.652,23.302
			c-12.85,12.849-33.755,12.849-46.605,0c-6.224-6.224-9.652-14.499-9.652-23.302c0-8.802,3.428-17.078,9.652-23.302l-21.242-21.243
			c-12.85,12.849-33.755,12.849-46.605,0c-6.224-6.223-9.652-14.499-9.652-23.302s3.428-17.078,9.652-23.303
			c12.85-12.849,33.755-12.849,46.605,0c2.032,2.033,3.794,4.326,5.236,6.817l9.795,16.918l77.351-77.351
			c4.147,5.387,8.672,10.564,13.594,15.486h0.001c4.9,4.9,10.068,9.437,15.471,13.609L130.41,410.684z M417.74,290.564
			c-28.475,28.475-65.509,44.907-104.283,46.272c-38.353,1.353-73.875-12.277-99.948-38.346
			c-54.109-54.119-50.548-145.727,7.94-204.215l28.8-28.8c1.786,8.146,4.652,16.85,8.624,26.028
			c13.143,30.373,37.101,63.82,67.46,94.179c30.358,30.359,63.806,54.317,94.179,67.46c9.176,3.97,17.879,6.84,26.023,8.627
			L417.74,290.564z M478.168,230.137c-6.452,6.453-24.4,4.659-45.725-4.567c-26.981-11.675-57.121-33.384-84.867-61.13
			c-27.746-27.746-49.456-57.886-61.131-84.868c-9.227-21.324-11.02-39.273-4.568-45.725c2.575-2.575,6.982-3.837,12.703-3.837
			c8.614,0,20.209,2.86,33.022,8.405c26.982,11.675,57.122,33.385,84.868,61.13c27.746,27.746,49.456,57.886,61.131,84.867
			C482.826,205.737,484.62,223.685,478.168,230.137z"/>
	</g>
</g>
<g>
</g>
<g>
</g>
<g>
</g>
<g>
</g>
<g>
</g>
<g>
</g>
<g>
</g>
<g>
</g>
<g>
</g>
<g>
</g>
<g>
</g>
<g>
</g>
<g>
</g>
<g>
</g>
<g>
</g>
</svg>
