<?xml version="1.0" encoding="iso-8859-1"?>
<!-- Generator: Adobe Illustrator 21.0.0, SVG Export Plug-In . SVG Version: 6.00 Build 0)  -->
<svg version="1.1" id="Capa_1" xmlns="http://www.w3.org/2000/svg" xmlns:xlink="http://www.w3.org/1999/xlink" x="0px" y="0px"
	 viewBox="0 0 512 512" style="enable-background:new 0 0 512 512;" xml:space="preserve">
<g>
	<g>
		<path d="M512,226.281l-37.418-44.115l4.341-57.683l-52.125-25.081L407.303,44.94l-57.822-1.711L309.518,1.403L256,23.357
			L202.481,1.403l-39.962,41.824l-57.822,1.711L85.202,99.4l-52.126,25.081l4.342,57.683L0,226.281l27.428,50.93l-16.24,55.52
			l45.773,35.371l7.746,57.326l56.202,13.695l30.393,49.22l56.914-10.348L256,510.597l47.784-32.601l56.913,10.348l30.393-49.22
			l56.202-13.695l7.747-57.326l45.772-35.371l-16.239-55.52L512,226.281z M466.262,321.506l-39.313,30.38l-6.653,49.236
			l-48.27,11.763l-26.105,42.273l-48.881-8.887L256,474.271l-41.04-28.001l-48.883,8.887l-26.104-42.273l-48.27-11.763
			l-6.653-49.236l-39.313-30.38l13.949-47.685l-23.558-43.743l32.137-37.889l-3.729-49.544l44.77-21.542l16.743-46.777l49.662-1.469
			l34.322-35.922l45.966,18.856l45.966-18.856l34.322,35.922l49.661,1.469l16.744,46.777l44.77,21.542l-3.73,49.544l32.137,37.889
			l-23.557,43.743L466.262,321.506z"/>
	</g>
</g>
<g>
	<g>
		<path d="M256,86.425c-93.395,0-169.376,75.982-169.376,169.376S162.606,425.177,256,425.177s169.376-75.982,169.376-169.376
			S349.393,86.425,256,86.425z M256,395.171c-76.849,0-139.369-62.521-139.369-139.369S179.152,116.433,256,116.433
			s139.369,62.521,139.369,139.369S332.847,395.171,256,395.171z"/>
	</g>
</g>
<g>
	<g>
		<path d="M198.822,159.554c-25.465,0-46.182,20.717-46.182,46.182c0,25.466,20.717,46.182,46.182,46.182
			c25.464,0,46.182-20.717,46.182-46.182S224.286,159.554,198.822,159.554z M198.822,221.91c-8.919,0-16.174-7.256-16.174-16.174
			s7.256-16.174,16.174-16.174c8.918,0,16.174,7.256,16.174,16.174C214.996,214.655,207.74,221.91,198.822,221.91z"/>
	</g>
</g>
<g>
	<g>
		<path d="M313.177,259.686c-25.465,0-46.182,20.717-46.182,46.182c0,25.465,20.717,46.182,46.182,46.182
			s46.182-20.717,46.182-46.182C359.359,280.403,338.642,259.686,313.177,259.686z M313.177,322.042
			c-8.918,0-16.174-7.256-16.174-16.174c0-8.919,7.256-16.174,16.174-16.174s16.174,7.256,16.174,16.174
			S322.095,322.042,313.177,322.042z"/>
	</g>
</g>
<g>
	<g>
		
			<rect x="146.456" y="240.808" transform="matrix(0.6437 -0.7653 0.7653 0.6437 -104.5525 287.0665)" width="219.1" height="30.008"/>
	</g>
</g>
<g>
</g>
<g>
</g>
<g>
</g>
<g>
</g>
<g>
</g>
<g>
</g>
<g>
</g>
<g>
</g>
<g>
</g>
<g>
</g>
<g>
</g>
<g>
</g>
<g>
</g>
<g>
</g>
<g>
</g>
</svg>
