<?xml version="1.0" encoding="iso-8859-1"?>
<!-- Generator: Adobe Illustrator 21.0.0, SVG Export Plug-In . SVG Version: 6.00 Build 0)  -->
<svg version="1.1" id="Capa_1" xmlns="http://www.w3.org/2000/svg" xmlns:xlink="http://www.w3.org/1999/xlink" x="0px" y="0px"
	 viewBox="0 0 512 512" style="enable-background:new 0 0 512 512;" xml:space="preserve">
<g>
	<g>
		<path d="M398.257,195.227l-95.698-80.504c0.755-3.365,1.166-6.859,1.166-10.449c0-26.316-21.41-47.726-47.726-47.726
			c-26.316,0-47.726,21.41-47.726,47.726c0,3.59,0.412,7.084,1.166,10.449l-95.698,80.504H0v260.225h512V195.227H398.257z
			 M256,86.548c9.774,0,17.726,7.952,17.726,17.726S265.774,122,256,122c-9.774,0-17.726-7.952-17.726-17.726
			S246.226,86.548,256,86.548z M225.188,140.679C233.509,147.733,244.263,152,256,152s22.491-4.267,30.812-11.321l64.843,54.548
			h-191.31L225.188,140.679z M482,425.452H30V225.227h452V425.452z"/>
	</g>
</g>
<g>
	<g>
		<path d="M164.381,307.078c-2.438-6.213-5.904-11.758-10.396-16.633c-4.494-4.875-9.894-8.793-16.203-11.758
			c-6.309-2.961-13.335-4.445-21.078-4.445c-7.553,0-14.507,1.412-20.863,4.23c-6.358,2.821-11.854,6.596-16.489,11.327
			c-4.638,4.732-8.245,10.205-10.826,16.418c-2.581,6.215-3.872,12.667-3.872,19.357c0,6.596,1.241,13.001,3.728,19.214
			c2.485,6.215,5.973,11.735,10.468,16.561c4.492,4.828,9.894,8.724,16.203,11.686c6.309,2.964,13.335,4.445,21.078,4.445
			c7.55,0,14.504-1.434,20.863-4.302c6.356-2.868,11.829-6.667,16.417-11.399s8.173-10.181,10.754-16.346
			c2.581-6.165,3.872-12.593,3.872-19.285C168.037,319.649,166.818,313.293,164.381,307.078z M138.284,335.468
			c-0.91,3.251-2.294,6.143-4.158,8.675c-1.864,2.534-4.279,4.588-7.241,6.165c-2.964,1.578-6.452,2.366-10.467,2.366
			c-4.015,0-7.48-0.764-10.395-2.294c-2.917-1.528-5.33-3.535-7.241-6.022c-1.913-2.485-3.347-5.328-4.302-8.532
			c-0.956-3.201-1.434-6.524-1.434-9.965c-0.001-3.345,0.452-6.618,1.361-9.822c0.907-3.202,2.316-6.069,4.229-8.603
			c1.911-2.532,4.324-4.564,7.241-6.094c2.915-1.528,6.381-2.294,10.396-2.294c3.919,0,7.335,0.742,10.252,2.223
			c2.915,1.483,5.353,3.441,7.313,5.879c1.958,2.438,3.417,5.258,4.374,8.459c0.955,3.204,1.434,6.524,1.434,9.965
			C139.646,328.921,139.191,332.219,138.284,335.468z"/>
	</g>
</g>
<g>
	<g>
		<path d="M255.501,297.255c-1.721-4.252-4.087-8.029-7.098-11.327c-3.011-3.298-6.621-5.973-10.826-8.03
			c-4.208-2.054-8.796-3.083-13.765-3.083h-43.876V376.62h27.96v-31.259h16.633c4.969,0,9.535-0.979,13.693-2.939
			c4.158-1.958,7.694-4.588,10.611-7.886c2.915-3.298,5.184-7.073,6.811-11.328c1.625-4.252,2.437-8.625,2.437-13.12
			C258.081,305.786,257.221,301.509,255.501,297.255z M227.468,318.619c-1.483,1.577-3.083,2.366-4.803,2.366h-14.769v-21.794
			h14.052c1.72,0,3.441,0.766,5.162,2.294c1.721,1.53,2.581,4.398,2.581,8.603C229.691,314.199,228.949,317.042,227.468,318.619z"/>
	</g>
</g>
<g>
	<g>
		<polygon points="297.224,352.244 297.224,336.185 334.217,336.185 334.217,313.53 297.224,313.53 297.224,299.191 
			340.526,299.191 340.526,274.816 269.264,274.816 269.264,376.62 341.817,376.62 341.817,352.244 		"/>
	</g>
</g>
<g>
	<g>
		<polygon points="417.522,274.816 417.522,326.578 376.657,274.816 354.863,274.816 354.863,376.62 382.823,376.62 
			382.823,326.578 423.258,376.62 445.482,376.62 445.482,274.816 		"/>
	</g>
</g>
<g>
</g>
<g>
</g>
<g>
</g>
<g>
</g>
<g>
</g>
<g>
</g>
<g>
</g>
<g>
</g>
<g>
</g>
<g>
</g>
<g>
</g>
<g>
</g>
<g>
</g>
<g>
</g>
<g>
</g>
</svg>
