<?xml version="1.0" encoding="iso-8859-1"?>
<!-- Generator: Adobe Illustrator 21.0.0, SVG Export Plug-In . SVG Version: 6.00 Build 0)  -->
<svg version="1.1" id="Capa_1" xmlns="http://www.w3.org/2000/svg" xmlns:xlink="http://www.w3.org/1999/xlink" x="0px" y="0px"
	 viewBox="0 0 512 512" style="enable-background:new 0 0 512 512;" xml:space="preserve">
<g>
	<g>
		<path d="M345.097,270.312c2.771-10.604,9.638-25.53,26.685-33.823l-13.124-26.978c-29.985,14.588-40.183,41.293-43.651,58.059
			c-5.209,0.16-10.328,0.65-15.347,1.45v-36.44l-41.12-89.75V84h17.85V0H94.05v84h17.85v58.83l-41.12,89.75V512h228.88v-1.52
			c6.29,1,12.74,1.52,19.31,1.52c67.41,0,122.25-54.84,122.25-122.25C441.22,331.302,399.993,282.304,345.097,270.312z M124.05,30
			h122.34v24H124.05V30z M228.54,84v47.11H141.9V84H228.54z M102.62,235.11l33.91-74h97.38l33.91,74l0.001,0.001H102.619
			L102.62,235.11z M100.78,265.111h168.88v12.779c-38.62,17.09-66.8,53.62-72.05,97.11h-96.83V265.111z M100.78,482v-77h96.88
			c3.83,30.6,19.01,57.72,41.18,77H100.78z M318.97,482c-6.62,0-13.08-0.7-19.31-2.04c-10.82-2.3-20.94-6.52-30-12.27
			c-21.7-13.78-37.28-36.36-41.68-62.69c-0.83-4.96-1.26-10.06-1.26-15.25c0-5.02,0.4-9.95,1.18-14.75
			c4.28-26.54,19.92-49.32,41.76-63.19c9.06-5.75,19.18-9.97,30-12.27c6.23-1.34,12.69-2.04,19.31-2.04
			c50.87,0,92.25,41.38,92.25,92.25S369.84,482,318.97,482z"/>
	</g>
</g>
<g>
	<g>
		<polygon points="269.66,407.67 262.22,407.67 262.22,437 269.66,437 291.55,437 291.55,407.67 		"/>
	</g>
</g>
<g>
	<g>
		<rect x="304.3" y="429" width="29.34" height="29.33"/>
	</g>
</g>
<g>
</g>
<g>
</g>
<g>
</g>
<g>
</g>
<g>
</g>
<g>
</g>
<g>
</g>
<g>
</g>
<g>
</g>
<g>
</g>
<g>
</g>
<g>
</g>
<g>
</g>
<g>
</g>
<g>
</g>
</svg>
