<?xml version="1.0" encoding="iso-8859-1"?>
<!-- Generator: Adobe Illustrator 21.0.0, SVG Export Plug-In . SVG Version: 6.00 Build 0)  -->
<svg version="1.1" id="Capa_1" xmlns="http://www.w3.org/2000/svg" xmlns:xlink="http://www.w3.org/1999/xlink" x="0px" y="0px"
	 viewBox="0 0 512 512" style="enable-background:new 0 0 512 512;" xml:space="preserve">
<g>
	<g>
		<path d="M0,73.128v307.833h512V73.128H0z M482,103.128v54.391c-27.129-5.86-48.531-27.262-54.391-54.391H482z M30,103.128h54.391
			C78.531,130.256,57.13,151.659,30,157.518V103.128z M30,350.96v-54.391c27.129,5.86,48.531,27.262,54.391,54.391H30z M482,350.961
			h-54.391c5.86-27.129,27.262-48.531,54.391-54.391V350.961z M482.001,266.076c-43.709,6.535-78.35,41.177-84.886,84.884h-282.23
			c-6.536-43.707-41.177-78.349-84.885-84.885v-78.063c43.707-6.536,78.349-41.177,84.885-84.885h282.231
			c6.536,43.708,41.177,78.349,84.885,84.885V266.076z"/>
	</g>
</g>
<g>
	<g>
		<path d="M250.5,117.044c-60.654,0-110,49.346-110,110s49.346,110,110,110s110-49.346,110-110S311.154,117.044,250.5,117.044z
			 M250.5,307.044c-44.112,0-80-35.888-80-80s35.888-80,80-80s80,35.888,80,80S294.612,307.044,250.5,307.044z"/>
	</g>
</g>
<g>
	<g>
		<path d="M285.473,229.087c-1.295-3.019-3.151-5.585-5.565-7.699c-2.416-2.112-5.326-3.946-8.732-5.498
			c-3.408-1.552-7.224-2.976-11.449-4.269c-2.674-0.861-5.067-1.595-7.18-2.2c-2.114-0.602-3.903-1.229-5.369-1.875
			c-1.467-0.647-2.587-1.358-3.363-2.135c-0.776-0.776-1.165-1.767-1.165-2.976c0-1.637,0.667-2.802,2.005-3.493
			c1.336-0.69,3.125-1.035,5.369-1.035c2.759,0,5.583,0.453,8.474,1.358c2.889,0.906,5.499,1.876,7.827,2.911
			c2.759,1.209,5.434,2.587,8.021,4.14l10.867-20.829c-2.07-1.035-4.398-2.135-6.986-3.299c-2.587-1.164-5.369-2.242-8.344-3.234
			c-1.419-0.472-2.864-0.903-4.332-1.298v-12.303h-30v13.003c-3.193,1.277-6.091,2.959-8.684,5.062
			c-3.192,2.587-5.715,5.822-7.568,9.703c-1.855,3.881-2.781,8.367-2.781,13.455c0,3.363,0.453,6.339,1.358,8.926
			c0.905,2.587,2.306,4.896,4.205,6.921c1.896,2.027,4.311,3.838,7.245,5.434c2.931,1.597,6.424,3.085,10.479,4.463
			c2.759,0.95,5.369,1.769,7.827,2.458c2.458,0.691,4.635,1.381,6.533,2.07c1.896,0.691,3.384,1.487,4.463,2.393
			c1.078,0.906,1.617,2.005,1.617,3.299c0,1.209-0.539,2.179-1.617,2.911c-1.079,0.733-2.998,1.1-5.757,1.1
			c-3.622,0-7.18-0.518-10.673-1.553c-3.493-1.035-6.62-2.199-9.379-3.493c-3.279-1.466-6.426-3.147-9.444-5.045l-10.867,22.122
			c2.759,1.639,5.757,3.105,8.991,4.398c3.234,1.294,6.598,2.415,10.091,3.364c1.317,0.358,2.639,0.675,3.962,0.972v15.537h30
			v-15.138c3.998-0.999,7.601-2.573,10.8-4.734c3.319-2.242,5.994-5.239,8.021-8.991c2.025-3.751,3.04-8.387,3.04-13.907
			C287.413,235.771,286.766,232.106,285.473,229.087z"/>
	</g>
</g>
<g>
	<g>
		<rect y="408.872" width="512" height="30"/>
	</g>
</g>
<g>
</g>
<g>
</g>
<g>
</g>
<g>
</g>
<g>
</g>
<g>
</g>
<g>
</g>
<g>
</g>
<g>
</g>
<g>
</g>
<g>
</g>
<g>
</g>
<g>
</g>
<g>
</g>
<g>
</g>
</svg>
