<?xml version="1.0" encoding="iso-8859-1"?>
<!-- Generator: Adobe Illustrator 21.0.0, SVG Export Plug-In . SVG Version: 6.00 Build 0)  -->
<svg version="1.1" id="Capa_1" xmlns="http://www.w3.org/2000/svg" xmlns:xlink="http://www.w3.org/1999/xlink" x="0px" y="0px"
	 viewBox="0 0 512 512" style="enable-background:new 0 0 512 512;" xml:space="preserve">
<g>
	<g>
		<path d="M489.565,393.667l-27-268h-85.898V100h73.667V0h-232v100h69.333v25.667H52.435l-27,268H0V512h512V393.667H489.565z
			 M287.666,70h-39.333V30h172v40h-43.667H287.666z M346.667,100v24h-29v-24H346.667z M79.565,155.667h355.87l23.978,238H55.587
			L79.565,155.667z M482,482H30v-58.333h452V482z"/>
	</g>
</g>
<g>
	<g>
		<path d="M227.833,180.666v90.667h182v-90.667H227.833z M379.833,241.334h-122v-30.667h122V241.334z"/>
	</g>
</g>
<g>
	<g>
		<rect x="245.33" y="294.17" width="30" height="30"/>
	</g>
</g>
<g>
	<g>
		<rect x="303.83" y="294.17" width="30" height="30"/>
	</g>
</g>
<g>
	<g>
		<rect x="362.33" y="294.17" width="30" height="30"/>
	</g>
</g>
<g>
	<g>
		<rect x="245.33" y="340.83" width="30" height="30"/>
	</g>
</g>
<g>
	<g>
		<rect x="303.83" y="340.83" width="30" height="30"/>
	</g>
</g>
<g>
	<g>
		<rect x="362.33" y="340.83" width="30" height="30"/>
	</g>
</g>
<g>
	<g>
		<path d="M200.5,289.667v-109h-99v109H92v30h9.5h99h9.5v-30H200.5z M170.5,289.667h-39v-79h39V289.667z"/>
	</g>
</g>
<g>
</g>
<g>
</g>
<g>
</g>
<g>
</g>
<g>
</g>
<g>
</g>
<g>
</g>
<g>
</g>
<g>
</g>
<g>
</g>
<g>
</g>
<g>
</g>
<g>
</g>
<g>
</g>
<g>
</g>
</svg>
