<?xml version="1.0" encoding="iso-8859-1"?>
<!-- Generator: Adobe Illustrator 21.0.0, SVG Export Plug-In . SVG Version: 6.00 Build 0)  -->
<svg version="1.1" id="Capa_1" xmlns="http://www.w3.org/2000/svg" xmlns:xlink="http://www.w3.org/1999/xlink" x="0px" y="0px"
	 viewBox="0 0 512 512" style="enable-background:new 0 0 512 512;" xml:space="preserve">
<g>
	<g>
		<path d="M414.005,138h-13.792V86.372c0-19.504-15.868-35.372-35.372-35.372h-58.756c-1.871,0-3.707,0.149-5.5,0.43
			C298.737,22.762,274.841,0,245.714,0c-26.103,0-48,18.284-53.599,42.713C184.308,38.436,175.355,36,165.842,36
			c-30.257,0-54.872,24.616-54.872,54.872V138H97.995L68.008,512h375.985L414.005,138z M300.714,86.372
			c0-2.962,2.411-5.372,5.372-5.372h58.756c2.962,0,5.372,2.41,5.372,5.372V138h-69.5V86.372z M220.714,110h29V80h-29V55
			c0-13.785,11.215-25,25-25c13.785,0,25,11.215,25,25v83h-50V110z M140.969,90.872c0-13.714,11.157-24.872,24.872-24.872
			c13.715,0,24.872,11.158,24.872,24.872V138h-49.744V90.872z M125.686,168h260.628l18.949,236.329H106.738L125.686,168z
			 M100.51,482l3.822-47.671h303.337L411.492,482H100.51z"/>
	</g>
</g>
<g>
</g>
<g>
</g>
<g>
</g>
<g>
</g>
<g>
</g>
<g>
</g>
<g>
</g>
<g>
</g>
<g>
</g>
<g>
</g>
<g>
</g>
<g>
</g>
<g>
</g>
<g>
</g>
<g>
</g>
</svg>
