<?xml version="1.0" encoding="iso-8859-1"?>
<!-- Generator: Adobe Illustrator 21.0.0, SVG Export Plug-In . SVG Version: 6.00 Build 0)  -->
<svg version="1.1" id="Capa_1" xmlns="http://www.w3.org/2000/svg" xmlns:xlink="http://www.w3.org/1999/xlink" x="0px" y="0px"
	 viewBox="0 0 512.001 512.001" style="enable-background:new 0 0 512.001 512.001;" xml:space="preserve">
<g>
	<g>
		<path d="M256.21,0L2.316,439.872l13.029,7.522c73.278,42.303,156.346,64.607,240.487,64.607c1.309,0,2.623-0.005,3.932-0.017
			c83.004-0.686,164.91-22.899,236.863-64.237l13.057-7.502L256.21,0z M370.626,259.028l36.388,63.2
			c-5.89,3.862-12.826,5.983-20.021,5.983c-20.138,0-36.52-16.382-36.52-36.52C350.473,277.576,358.531,265.082,370.626,259.028z
			 M141.425,259.057c12.063,6.063,20.1,18.544,20.1,32.634c0,20.138-16.382,36.52-36.52,36.52c-7.203,0-14.144-2.125-20.036-5.995
			L141.425,259.057z M89.917,348.294c10.425,6.466,22.537,10.009,35.088,10.009c36.729,0,66.61-29.882,66.61-66.61
			c0-25.086-13.976-47.39-35.13-58.728L256.177,60.25l99.416,172.667c-21.201,11.325-35.21,33.647-35.21,58.775
			c0,36.729,29.882,66.61,66.61,66.61c12.531,0,24.627-3.533,35.044-9.981l15.035,26.114
			c-115.819,50.445-246.909,50.325-362.056-0.326L89.917,348.294z M43.544,428.636l16.347-28.32
			c62.429,27.973,129.319,41.967,196.309,41.967c66.69,0,133.472-13.88,195.975-41.619l16.28,28.275
			C335.936,499.27,175.775,499.155,43.544,428.636z"/>
	</g>
</g>
<g>
	<g>
		<path d="M259.008,135.673c-25.287,0-45.859,20.572-45.859,45.859c0,25.287,20.573,45.859,45.859,45.859
			c25.287,0,45.859-20.572,45.859-45.859C304.867,156.245,284.295,135.673,259.008,135.673z M259.008,197.3
			c-8.694,0-15.768-7.074-15.768-15.768c0-8.695,7.074-15.768,15.768-15.768c8.694,0,15.768,7.074,15.768,15.768
			C274.776,190.227,267.702,197.3,259.008,197.3z"/>
	</g>
</g>
<g>
	<g>
		
			<rect x="184.556" y="355.059" transform="matrix(0.9407 -0.3393 0.3393 0.9407 -113.6631 89.5771)" width="29.586" height="29.586"/>
	</g>
</g>
<g>
	<g>
		<rect x="274.305" y="253.282" width="29.585" height="29.585"/>
	</g>
</g>
<g>
	<g>
		<rect x="199.325" y="238.483" transform="matrix(0.9579 -0.287 0.287 0.9579 -63.6837 72.1093)" width="29.584" height="29.584"/>
	</g>
</g>
<g>
	<g>
		
			<rect x="293.612" y="355.057" transform="matrix(0.2681 -0.9634 0.9634 0.2681 -130.5878 567.8084)" width="29.585" height="29.585"/>
	</g>
</g>
<g>
	<g>
		
			<rect x="236.106" y="292.92" transform="matrix(0.6732 -0.7394 0.7394 0.6732 -156.7751 291.2587)" width="30.089" height="60.178"/>
	</g>
</g>
<g>
</g>
<g>
</g>
<g>
</g>
<g>
</g>
<g>
</g>
<g>
</g>
<g>
</g>
<g>
</g>
<g>
</g>
<g>
</g>
<g>
</g>
<g>
</g>
<g>
</g>
<g>
</g>
<g>
</g>
</svg>
