<?xml version="1.0" encoding="iso-8859-1"?>
<!-- Generator: Adobe Illustrator 21.0.0, SVG Export Plug-In . SVG Version: 6.00 Build 0)  -->
<svg version="1.1" id="Capa_1" xmlns="http://www.w3.org/2000/svg" xmlns:xlink="http://www.w3.org/1999/xlink" x="0px" y="0px"
	 viewBox="0 0 512 512" style="enable-background:new 0 0 512 512;" xml:space="preserve">
<g>
	<g>
		<path d="M255.999,0c-71.541,0-129.744,58.203-129.744,129.744v270.933h84.014V512h91.461V400.677h84.014V129.744
			C385.744,58.203,327.541,0,255.999,0z M271.731,482L271.731,482H240.27v-81.323h31.461V482z M355.744,370.677H156.255v-65.995
			h199.488V370.677z M355.744,274.682H156.255V129.744c0-54.999,44.745-99.744,99.744-99.744c54.999,0,99.744,44.745,99.744,99.744
			V274.682z"/>
	</g>
</g>
<g>
	<g>
		<rect x="192.02" y="217" width="29.75" height="29.75"/>
	</g>
</g>
<g>
	<g>
		<rect x="289.02" y="202.12" width="29.75" height="29.75"/>
	</g>
</g>
<g>
	<g>
		<rect x="228.52" y="154.62" width="29.75" height="29.75"/>
	</g>
</g>
<g>
	<g>
		<rect x="293.52" y="99.62" width="29.75" height="29.75"/>
	</g>
</g>
<g>
	<g>
		<rect x="195.52" y="84.75" width="29.75" height="29.75"/>
	</g>
</g>
<g>
</g>
<g>
</g>
<g>
</g>
<g>
</g>
<g>
</g>
<g>
</g>
<g>
</g>
<g>
</g>
<g>
</g>
<g>
</g>
<g>
</g>
<g>
</g>
<g>
</g>
<g>
</g>
<g>
</g>
</svg>
