<?xml version="1.0" encoding="iso-8859-1"?>
<!-- Generator: Adobe Illustrator 21.0.0, SVG Export Plug-In . SVG Version: 6.00 Build 0)  -->
<svg version="1.1" id="Capa_1" xmlns="http://www.w3.org/2000/svg" xmlns:xlink="http://www.w3.org/1999/xlink" x="0px" y="0px"
	 viewBox="0 0 512 512" style="enable-background:new 0 0 512 512;" xml:space="preserve">
<g>
	<g>
		<path d="M385.32,271.839c-12.319-28.358-36.147-49.266-69.195-60.835l49.166-46.256C376.711,153.998,383,139.479,383,123.85
			c0-20.288-10.959-39.087-28.588-49.036c-8.909-5.04-18.769-7.469-28.608-7.289C325.605,30.258,295.177,0,257.79,0
			c-21.848,0-41.807,10.089-54.746,27.688c-8.709,11.839-13.239,25.688-13.289,39.847c-9.809-0.17-19.638,2.26-28.518,7.269
			c-17.639,9.959-28.598,28.748-28.598,49.046c0,15.619,6.289,30.138,17.699,40.897l48.206,45.346
			c-34.437,11.369-59.215,32.627-71.864,61.745c-15.109,34.737-8.329,78.324,19.588,126.04
			c23.578,40.317,60.445,79.724,101.152,108.132L256,512l8.579-5.99c40.707-28.408,77.574-67.815,101.152-108.132
			C393.649,350.163,400.429,306.576,385.32,271.839z M319.465,98.572c2.4-0.7,4.86-1.05,7.319-1.05c4.43,0,8.859,1.14,12.879,3.41
			c8.349,4.72,13.339,13.289,13.339,22.918c0,7.269-2.94,14.029-8.269,19.049l-55.266,51.996L319.465,98.572z M227.202,45.466
			c7.229-9.829,18.379-15.469,30.588-15.469c20.958,0,38.017,16.999,38.017,37.887c0,3.3-0.44,6.599-1.31,9.839
			c-0.13,0.51-0.28,1.03-0.44,1.54L260.21,187.975l-2.41,7.729l-2.39-7.659L221.533,79.274c-0.16-0.52-0.31-1.05-0.45-1.58
			C218.103,66.515,220.293,54.856,227.202,45.466z M170.897,142.899c-5.33-5.02-8.259-11.779-8.259-19.049
			c0-9.639,4.99-18.199,13.349-22.918c4.01-2.26,8.429-3.4,12.869-3.4c2.44,0,4.89,0.35,7.269,1.04l29.988,96.282L170.897,142.899z
			 M256,475.193c-33.917-25.468-64.715-59.355-84.473-93.553c-0.001-0.001-0.001-0.002-0.002-0.003h36.146V351.64h-50.514
			c-4.419-11.758-7.198-23.266-7.998-34.164h73.844v-29.998h-70.264c0.44-1.24,0.92-2.47,1.45-3.68
			c22.058-50.746,89.823-52.686,99.972-52.686c0.78,0,1.22,0.01,1.27,0.01l0.57,0.02l0.54-0.02c0.41-0.01,22.588-0.57,46.756,7.289
			c20.988,6.82,43.477,19.988,54.516,45.386C380.91,336.944,324.905,423.457,256,475.193z"/>
	</g>
</g>
<g>
</g>
<g>
</g>
<g>
</g>
<g>
</g>
<g>
</g>
<g>
</g>
<g>
</g>
<g>
</g>
<g>
</g>
<g>
</g>
<g>
</g>
<g>
</g>
<g>
</g>
<g>
</g>
<g>
</g>
</svg>
