<?xml version="1.0" encoding="iso-8859-1"?>
<!-- Generator: Adobe Illustrator 21.0.0, SVG Export Plug-In . SVG Version: 6.00 Build 0)  -->
<svg version="1.1" id="Capa_1" xmlns="http://www.w3.org/2000/svg" xmlns:xlink="http://www.w3.org/1999/xlink" x="0px" y="0px"
	 viewBox="0 0 512 512" style="enable-background:new 0 0 512 512;" xml:space="preserve">
<g>
	<g>
		<path d="M366.229,127.4c0-33.398-23.248-61.452-54.407-68.875V0H200.178v58.525c-31.158,7.423-54.407,35.477-54.407,68.875v12.109
			c0,19.195,7.678,36.632,20.123,49.399c-12.161,8.559-20.123,22.703-20.123,38.67V512h220.457V227.579
			c0-15.967-7.962-30.111-20.122-38.67c12.444-12.767,20.122-30.205,20.122-49.399V127.4z M230.178,30h51.644v26.585h-51.644V30z
			 M336.229,482H175.771v-49h160.457V482z M336.229,403H175.771V271h160.457V403z M336.229,139.509
			c0,22.505-18.31,40.814-40.815,40.814v30h23.559c9.515,0,17.255,7.741,17.255,17.255V241H175.771v-13.421
			c0-9.515,7.741-17.255,17.255-17.255h23.559v-30c-22.504,0-40.814-18.309-40.814-40.815V127.4
			c0-22.505,18.31-40.815,40.815-40.815h78.827c22.505,0,40.815,18.31,40.815,40.815V139.509z"/>
	</g>
</g>
<g>
	<g>
		<path d="M256,291.767c-25.181,0-45.667,20.486-45.667,45.667c0,25.181,20.486,45.666,45.667,45.666
			c25.181,0,45.667-20.486,45.667-45.667C301.667,312.252,281.182,291.767,256,291.767z M256,353.1
			c-8.639,0-15.667-7.028-15.667-15.667c0-8.639,7.028-15.666,15.667-15.666c8.639,0,15.667,7.028,15.667,15.667
			C271.667,346.073,264.64,353.1,256,353.1z"/>
	</g>
</g>
<g>
</g>
<g>
</g>
<g>
</g>
<g>
</g>
<g>
</g>
<g>
</g>
<g>
</g>
<g>
</g>
<g>
</g>
<g>
</g>
<g>
</g>
<g>
</g>
<g>
</g>
<g>
</g>
<g>
</g>
</svg>
