<?xml version="1.0" encoding="iso-8859-1"?>
<!-- Generator: Adobe Illustrator 21.0.0, SVG Export Plug-In . SVG Version: 6.00 Build 0)  -->
<svg version="1.1" id="Capa_1" xmlns="http://www.w3.org/2000/svg" xmlns:xlink="http://www.w3.org/1999/xlink" x="0px" y="0px"
	 viewBox="0 0 512 512" style="enable-background:new 0 0 512 512;" xml:space="preserve">
<g>
	<g>
		<path d="M451,128.5v-62H0v317h61v62h451v-317H451z M30,96.5h391v32H30V96.5z M30,158.5h391v34H30V158.5z M30,353.5v-131h391v131
			H30z M482,415.5H91v-32h360v-225h31V415.5z"/>
	</g>
</g>
<g>
	<g>
		<path d="M335.1,241.83c-11.58,0-22.16,4.39-30.16,11.59c-8-7.2-18.58-11.59-30.17-11.59c-24.91,0-45.17,20.27-45.17,45.17
			c0,24.9,20.26,45.17,45.17,45.17c11.59,0,22.17-4.39,30.17-11.59c8,7.2,18.58,11.59,30.16,11.59c24.9,0,45.17-20.27,45.17-45.17
			S360,241.83,335.1,241.83z M274.77,302.17c-8.37,0-15.17-6.81-15.17-15.17c0-8.36,6.8-15.17,15.17-15.17
			c8.36,0,15.16,6.81,15.16,15.17C289.93,295.36,283.13,302.17,274.77,302.17z M335.1,302.17c-8.36,0-15.17-6.81-15.17-15.17
			c0-8.36,6.81-15.17,15.17-15.17c8.36,0,15.17,6.81,15.17,15.17C350.27,295.36,343.46,302.17,335.1,302.17z"/>
	</g>
</g>
<g>
</g>
<g>
</g>
<g>
</g>
<g>
</g>
<g>
</g>
<g>
</g>
<g>
</g>
<g>
</g>
<g>
</g>
<g>
</g>
<g>
</g>
<g>
</g>
<g>
</g>
<g>
</g>
<g>
</g>
</svg>
