<?xml version="1.0" encoding="iso-8859-1"?>
<!-- Generator: Adobe Illustrator 21.0.0, SVG Export Plug-In . SVG Version: 6.00 Build 0)  -->
<svg version="1.1" id="Capa_1" xmlns="http://www.w3.org/2000/svg" xmlns:xlink="http://www.w3.org/1999/xlink" x="0px" y="0px"
	 viewBox="0 0 512.001 512.001" style="enable-background:new 0 0 512.001 512.001;" xml:space="preserve">
<g>
	<g>
		<path d="M256,0C154.978,0,72.791,82.187,72.791,183.209c0,41.483,29.113,107.209,86.531,195.355
			c41.948,64.398,84.496,118.099,84.921,118.634L256,512.001l11.757-14.802c0.424-0.536,42.973-54.237,84.921-118.634
			c57.418-88.145,86.531-153.872,86.531-195.355C439.21,82.187,357.023,0,256,0z M256,463.42
			c-51.677-67.523-153.18-213.849-153.18-280.211c0-84.464,68.716-153.18,153.18-153.18s153.18,68.716,153.18,153.18
			C409.18,249.571,307.678,395.897,256,463.42z"/>
	</g>
</g>
<g>
	<g>
		<path d="M256,89.638c-48.503,0-87.964,39.46-87.964,87.964c0,48.504,39.46,87.964,87.964,87.964s87.964-39.46,87.964-87.964
			S304.504,89.638,256,89.638z M256,235.537c-31.945,0-57.934-25.989-57.934-57.934s25.989-57.934,57.934-57.934
			s57.934,25.989,57.934,57.934S287.946,235.537,256,235.537z"/>
	</g>
</g>
<g>
</g>
<g>
</g>
<g>
</g>
<g>
</g>
<g>
</g>
<g>
</g>
<g>
</g>
<g>
</g>
<g>
</g>
<g>
</g>
<g>
</g>
<g>
</g>
<g>
</g>
<g>
</g>
<g>
</g>
</svg>
