<?xml version="1.0" encoding="iso-8859-1"?>
<!-- Generator: Adobe Illustrator 21.0.0, SVG Export Plug-In . SVG Version: 6.00 Build 0)  -->
<svg version="1.1" id="Capa_1" xmlns="http://www.w3.org/2000/svg" xmlns:xlink="http://www.w3.org/1999/xlink" x="0px" y="0px"
	 viewBox="0 0 512 512" style="enable-background:new 0 0 512 512;" xml:space="preserve">
<g>
	<g>
		<path d="M504.032,122.158c-6.917-11.701-17.587-20.389-30.039-24.834c0.571-15.875-5.445-31.25-16.756-42.561
			s-26.675-17.327-42.561-16.756c-4.444-12.452-13.133-23.132-24.844-30.049c-22.542-13.293-51.209-9.659-69.707,8.838
			c-5.786,5.786-10.18,12.622-13.083,20.339l-30.94,82.128c-6.086-1.181-12.392-1.471-18.728-0.841
			c-19.499,1.942-36.895,12.422-47.746,28.737L6.327,453.014c-4.244,6.386-6.326,13.703-6.326,20.98
			c0,9.829,3.784,19.589,11.101,26.906C18.419,508.227,28.168,512,37.997,512c7.287,0,14.604-2.072,20.99-6.326L364.85,302.36
			c16.306-10.84,26.786-28.237,28.727-47.736c0.631-6.336,0.33-12.632-0.841-18.728l82.118-30.93
			c7.727-2.913,14.564-7.307,20.349-13.093C513.702,173.377,517.335,144.71,504.032,122.158z M335.141,47.717
			c1.391-3.693,3.483-6.947,6.216-9.679c8.818-8.818,22.481-10.55,33.212-4.214c5.185,3.063,9.129,7.667,11.361,13.083
			c-6.266,3.974-11.771,9.189-16.155,15.435l-55.623,79.126l-4.304-4.304c-2.002-2.002-4.104-3.844-6.306-5.545L335.141,47.717z
			 M363.698,251.653c-1.051,10.49-6.686,19.869-15.475,25.705l-56.473,37.536l-34.905-34.905l-21.233,21.233l30.63,30.63
			l-113.946,75.74L130.605,385.9l-21.233,21.233l17.417,17.417l-84.427,56.121c-1.341,0.891-2.873,1.321-4.394,1.321
			c-2.062,0-4.104-0.791-5.635-2.322c-2.673-2.673-3.093-6.887-1.001-10.03L134.55,314.352l0.002-0.003l31.551,31.55l21.233-21.233
			l-35.823-35.823l0.004-0.006l57.915-87.133l31.559,31.559l21.233-21.233l-35.834-35.833l8.256-12.418
			c5.836-8.788,15.215-14.424,25.705-15.475c1.181-0.11,2.352-0.17,3.523-0.17c9.249,0,18.117,3.643,24.744,10.27l64.982,64.992
			C361.066,230.852,364.739,241.153,363.698,251.653z M348.974,176.29l-13.263-13.263l58.636-83.42
			c4.644-6.616,11.931-10.81,19.989-11.511c0.911-0.08,1.822-0.11,2.723-0.09c7.087,0.09,13.873,2.923,18.948,7.988
			c5.065,5.075,7.898,11.861,7.988,18.948c0.02,0.901-0.01,1.812-0.09,2.723c-0.701,8.058-4.895,15.345-11.511,19.999
			L348.974,176.29z M473.964,170.644c-2.733,2.733-5.986,4.825-9.689,6.216l-83.89,31.6c-1.702-2.202-3.553-4.304-5.545-6.306
			l-4.304-4.304l79.126-55.623c6.246-4.384,11.471-9.889,15.445-16.165c5.405,2.252,10.02,6.186,13.073,11.361
			C484.514,148.163,482.782,161.827,473.964,170.644z"/>
	</g>
</g>
<g>
</g>
<g>
</g>
<g>
</g>
<g>
</g>
<g>
</g>
<g>
</g>
<g>
</g>
<g>
</g>
<g>
</g>
<g>
</g>
<g>
</g>
<g>
</g>
<g>
</g>
<g>
</g>
<g>
</g>
</svg>
