<?xml version="1.0" encoding="iso-8859-1"?>
<!-- Generator: Adobe Illustrator 21.0.0, SVG Export Plug-In . SVG Version: 6.00 Build 0)  -->
<svg version="1.1" id="Capa_1" xmlns="http://www.w3.org/2000/svg" xmlns:xlink="http://www.w3.org/1999/xlink" x="0px" y="0px"
	 viewBox="0 0 512 512" style="enable-background:new 0 0 512 512;" xml:space="preserve">
<g>
	<g>
		<path d="M18.508,0v512h347.984V0H18.508z M336.492,482H48.508V30h287.984V482z"/>
	</g>
</g>
<g>
	<g>
		<path d="M394.492,94.416v354.423L435.285,512h17.414l40.793-63.161V94.416H394.492z M463.492,439.994l-19.5,30.191l-19.5-30.192
			V197h39V439.994z M463.492,167h-39v-42.584h39V167z"/>
	</g>
</g>
<g>
	<g>
		<polygon points="145.908,70.395 113.2,100.095 98.304,84.604 76.679,105.396 111.783,141.905 166.075,92.605 		"/>
	</g>
</g>
<g>
	<g>
		<polygon points="145.908,165.624 113.2,195.324 98.304,179.832 76.679,200.625 111.783,237.133 166.075,187.833 		"/>
	</g>
</g>
<g>
	<g>
		<polygon points="145.908,260.852 113.2,290.552 98.304,275.06 76.679,295.853 111.783,332.362 166.075,283.062 		"/>
	</g>
</g>
<g>
	<g>
		<polygon points="145.908,356.081 113.2,385.781 98.304,370.289 76.679,391.082 111.783,427.59 166.075,378.29 		"/>
	</g>
</g>
<g>
	<g>
		<rect x="189.16" y="97" width="118" height="30"/>
	</g>
</g>
<g>
	<g>
		<rect x="189.16" y="192" width="118" height="30"/>
	</g>
</g>
<g>
	<g>
		<rect x="189.16" y="287" width="118" height="30"/>
	</g>
</g>
<g>
	<g>
		<rect x="189.16" y="382" width="118" height="30"/>
	</g>
</g>
<g>
</g>
<g>
</g>
<g>
</g>
<g>
</g>
<g>
</g>
<g>
</g>
<g>
</g>
<g>
</g>
<g>
</g>
<g>
</g>
<g>
</g>
<g>
</g>
<g>
</g>
<g>
</g>
<g>
</g>
</svg>
