<?xml version="1.0" encoding="iso-8859-1"?>
<!-- Generator: Adobe Illustrator 21.0.0, SVG Export Plug-In . SVG Version: 6.00 Build 0)  -->
<svg version="1.1" id="Capa_1" xmlns="http://www.w3.org/2000/svg" xmlns:xlink="http://www.w3.org/1999/xlink" x="0px" y="0px"
	 viewBox="0 0 512 512" style="enable-background:new 0 0 512 512;" xml:space="preserve">
<g>
	<g>
		<path d="M395.333,140.5V74h-79.671V0H201.831v48h-83.831v92.5H96.258V512h319.485V140.5H395.333z M315.663,104h49.671v36.5
			h-49.671V104z M231.831,30h53.831v52h-53.831V30z M231.831,112h53.831v28.5h-53.831V112z M148.001,78h53.831v62.5h-53.831V78z
			 M385.742,482H126.258v-41.298h259.485V482z M385.744,410.702H126.258V170.5h259.486V410.702z"/>
	</g>
</g>
<g>
	<g>
		<path d="M309,200v28.35c0,29.224-23.776,53-53,53s-53-23.775-53-53V200h-30v28.35c0,45.766,37.233,83,83,83
			c45.767,0,83-37.233,83-83V200H309z"/>
	</g>
</g>
<g>
</g>
<g>
</g>
<g>
</g>
<g>
</g>
<g>
</g>
<g>
</g>
<g>
</g>
<g>
</g>
<g>
</g>
<g>
</g>
<g>
</g>
<g>
</g>
<g>
</g>
<g>
</g>
<g>
</g>
</svg>
