<?xml version="1.0" encoding="iso-8859-1"?>
<!-- Generator: Adobe Illustrator 21.0.0, SVG Export Plug-In . SVG Version: 6.00 Build 0)  -->
<svg version="1.1" id="Capa_1" xmlns="http://www.w3.org/2000/svg" xmlns:xlink="http://www.w3.org/1999/xlink" x="0px" y="0px"
	 viewBox="0 0 512 512" style="enable-background:new 0 0 512 512;" xml:space="preserve">
<g>
	<g>
		<path d="M448.377,168.65c-6.642-37.457-39.414-66-78.748-66c-19.327,0-37.074,6.89-50.917,18.341V48.65H192.545v31H89.332v89H0v96
			h25.087l61.328,198.7h338.959l61.329-198.7H512v-96H448.377z M369.628,132.65c22.71,0,41.92,15.225,47.991,36h-95.982
			C327.708,147.875,346.918,132.65,369.628,132.65z M288.712,78.65v90h-66.167v-89v-1H288.712z M119.332,109.65h73.212v59h-73.212
			V109.65z M403.236,433.35H108.551l-52.068-168.7h398.822L403.236,433.35z M482,234.65H30v-36h452V234.65z"/>
	</g>
</g>
<g>
	<g>
		<rect x="140.17" y="305" width="30" height="88"/>
	</g>
</g>
<g>
	<g>
		<rect x="207.83" y="305" width="30" height="88"/>
	</g>
</g>
<g>
	<g>
		<rect x="275.5" y="305" width="30" height="88"/>
	</g>
</g>
<g>
	<g>
		<rect x="341.83" y="305" width="30" height="88"/>
	</g>
</g>
<g>
</g>
<g>
</g>
<g>
</g>
<g>
</g>
<g>
</g>
<g>
</g>
<g>
</g>
<g>
</g>
<g>
</g>
<g>
</g>
<g>
</g>
<g>
</g>
<g>
</g>
<g>
</g>
<g>
</g>
</svg>
