<?xml version="1.0" encoding="iso-8859-1"?>
<!-- Generator: Adobe Illustrator 17.1.0, SVG Export Plug-In . SVG Version: 6.00 Build 0)  -->
<!DOCTYPE svg PUBLIC "-//W3C//DTD SVG 1.1//EN" "http://www.w3.org/Graphics/SVG/1.1/DTD/svg11.dtd">
<svg version="1.1" id="Capa_1" xmlns="http://www.w3.org/2000/svg" xmlns:xlink="http://www.w3.org/1999/xlink" x="0px" y="0px"
	 viewBox="0 0 480.496 480.496" style="enable-background:new 0 0 480.496 480.496;" xml:space="preserve">
<path d="M472.233,124.876c-4.768-5.876-11.213-10.104-18.359-12.201c-0.406-2.043-0.859-4.077-1.377-6.077
	c-7.232-27.954-21.927-33.821-32.981-33.821s-25.75,5.867-32.981,33.821c-0.457,1.768-0.865,3.562-1.234,5.364
	c-12.535,2.627-22.992,11.663-27.331,23.814c-3.717-10.353-11.95-18.732-22.496-22.478c-0.435-2.252-0.925-4.497-1.496-6.701
	c-7.232-27.954-21.927-33.821-32.981-33.821s-25.75,5.867-32.981,33.821c-0.511,1.974-0.96,3.98-1.361,5.996
	c-13.713,3.931-24.323,15.662-26.505,30.084c-2.161-14.255-12.595-25.934-26.134-29.976c-0.411-2.079-0.871-4.15-1.398-6.186
	c-7.232-27.954-21.927-33.821-32.981-33.821s-25.75,5.867-32.981,33.821c-0.559,2.16-1.041,4.36-1.47,6.567
	c-10.863,3.618-19.317,12.059-23.084,22.629c-4.286-11.935-14.481-20.852-26.741-23.625c-0.376-1.845-0.794-3.681-1.262-5.49
	C86.865,78.644,72.17,72.776,61.115,72.776s-25.749,5.867-32.981,33.821c-0.514,1.987-0.966,4.007-1.369,6.036
	c-7.173,2.073-13.648,6.29-18.445,12.172c-6.543,8.024-9.434,18.505-7.931,28.753l26.616,181.589
	c-0.009,0.539,0.013,1.084,0.094,1.635c0.158,1.075,0.365,2.134,0.612,3.177l5.305,36.195c2.644,18.042,18.389,31.646,36.623,31.646
	h341.219c18.234,0,33.979-13.604,36.623-31.646l5.306-36.201c0.246-1.041,0.453-2.097,0.61-3.17c0.081-0.55,0.103-1.094,0.094-1.633
	l26.617-181.592C481.605,143.344,478.735,132.89,472.233,124.876z M419.516,92.776c11.955,0,17.4,27.992,17.4,54
	c0,9.595-7.806,17.4-17.4,17.4c-9.595,0-17.4-7.806-17.4-17.4C402.115,120.769,407.561,92.776,419.516,92.776z M300.996,92.776
	c11.955,0,17.4,27.992,17.4,54c0,9.595-7.806,17.4-17.4,17.4s-17.4-7.806-17.4-17.4C283.596,120.769,289.041,92.776,300.996,92.776z
	 M179.635,92.695c11.955,0,17.4,27.992,17.4,54c0,9.595-7.806,17.4-17.4,17.4s-17.4-7.806-17.4-17.4
	c0-7.536,0.46-15.234,1.401-22.374c0.314-1,0.473-2.061,0.454-3.155C166.587,105.154,171.661,92.695,179.635,92.695z M61.115,92.776
	c11.955,0,17.4,27.992,17.4,54c0,9.595-7.806,17.4-17.4,17.4c-9.594,0-17.4-7.806-17.4-17.4
	C43.716,120.769,49.16,92.776,61.115,92.776z M460.319,150.658l-27.161,185.305c-2.086,7.629-9.123,13.159-17.185,13.159
	c-5.523,0-10,4.478-10,10s4.477,10,10,10c4.408,0,8.67-0.787,12.65-2.219l-0.931,6.35c-1.215,8.293-8.453,14.547-16.834,14.547
	H69.639c-8.381,0-15.619-6.254-16.834-14.547l-0.931-6.35c3.98,1.432,8.242,2.219,12.65,2.219h294.974c5.523,0,10-4.478,10-10
	s-4.477-10-10-10H64.524c-8.062,0-15.099-5.53-17.185-13.159L20.177,150.658c-0.701-4.78,0.593-9.473,3.644-13.214
	c0.036-0.045,0.078-0.083,0.115-0.127c-0.168,3.678-0.221,6.924-0.221,9.459c0,20.623,16.777,37.4,37.4,37.4s37.4-16.777,37.4-37.4
	c0-3.015-0.074-7.029-0.33-11.592c2.871,2.412,4.96,5.759,5.744,9.631l22.648,111.903c0.954,4.715,5.1,8.018,9.791,8.018
	c0.432,0,0.869-0.028,1.308-0.086c5.209-0.682,9.002-5.277,8.684-10.521l-6.37-104.907c-0.216-3.556,0.679-6.918,2.375-9.761
	c-0.097,2.762-0.13,5.224-0.13,7.235c0,20.623,16.777,37.4,37.4,37.4s37.4-16.777,37.4-37.4c0-2.444-0.05-5.552-0.203-9.066
	c2.041,2.556,3.379,5.696,3.67,9.122l9.243,108.83c0.438,5.16,4.745,9.133,9.924,9.153c0.014,0,0.027,0,0.041,0
	c5.162,0,9.478-3.931,9.957-9.074l10.143-109.045c0.333-3.582,1.798-6.842,4.015-9.437c-0.173,3.736-0.227,7.029-0.227,9.597
	c0,20.623,16.777,37.4,37.4,37.4s37.4-16.777,37.4-37.4c0-1.757-0.026-3.862-0.097-6.205c1.312,2.604,1.988,5.561,1.801,8.65
	l-6.37,104.907c-0.318,5.244,3.475,9.84,8.684,10.521c0.439,0.058,0.875,0.086,1.308,0.086c4.691,0,8.837-3.303,9.791-8.018
	l22.648-111.903c0.834-4.121,3.149-7.642,6.309-10.079c-0.276,4.75-0.354,8.925-0.354,12.04c0,20.623,16.778,37.4,37.4,37.4
	s37.4-16.777,37.4-37.4c0-2.499-0.052-5.688-0.214-9.3C459.733,141.213,461.017,145.894,460.319,150.658z"/>
<g>
</g>
<g>
</g>
<g>
</g>
<g>
</g>
<g>
</g>
<g>
</g>
<g>
</g>
<g>
</g>
<g>
</g>
<g>
</g>
<g>
</g>
<g>
</g>
<g>
</g>
<g>
</g>
<g>
</g>
</svg>
