<?xml version="1.0" encoding="iso-8859-1"?>
<!-- Generator: Adobe Illustrator 17.1.0, SVG Export Plug-In . SVG Version: 6.00 Build 0)  -->
<!DOCTYPE svg PUBLIC "-//W3C//DTD SVG 1.1//EN" "http://www.w3.org/Graphics/SVG/1.1/DTD/svg11.dtd">
<svg version="1.1" id="Capa_1" xmlns="http://www.w3.org/2000/svg" xmlns:xlink="http://www.w3.org/1999/xlink" x="0px" y="0px"
	 viewBox="0 0 480.8 480.8" style="enable-background:new 0 0 480.8 480.8;" xml:space="preserve">
<path d="M371.042,130.642C371.042,58.605,312.436,0,240.4,0S109.758,58.605,109.758,130.642
	c0,63.016,44.848,115.754,104.303,127.973v195.65c0,14.631,11.903,26.535,26.535,26.535s26.535-11.904,26.535-26.535V258.529
	C326.39,246.159,371.042,193.519,371.042,130.642z M247.131,454.265c0,3.604-2.932,6.535-6.535,6.535s-6.535-2.932-6.535-6.535
	V261.127c2.101,0.101,4.214,0.156,6.339,0.156c2.258,0,4.502-0.058,6.731-0.172V454.265z M240.4,241.283
	c-61.008,0-110.642-49.634-110.642-110.642S179.392,20,240.4,20c47.552,0,88.19,30.155,103.805,72.345
	c5.633,24.143,1.541,49.038-11.528,70.11c-13.087,21.101-33.607,35.842-57.781,41.508c-5.534,1.297-11.065,1.919-16.52,1.918
	c-32.832-0.003-62.642-22.543-70.451-55.857c-3.407-14.535-0.951-29.527,6.918-42.215c7.868-12.687,20.207-21.551,34.742-24.958
	c22.935-5.375,45.96,8.908,51.335,31.838c1.962,8.366,0.547,16.996-3.982,24.298c-4.528,7.303-11.631,12.404-19.997,14.365
	c-6.174,1.446-12.54,0.404-17.929-2.938c-5.388-3.341-9.152-8.582-10.599-14.755c-1.301-5.548,0.094-12.138,3.471-16.398
	c1.976-2.492,4.301-3.756,6.91-3.756c3.708,0,4.707,1.19,5.036,1.582c2.078,2.475,2.194,8.481,1.63,11.705
	c-1.021,5.428,2.551,10.655,7.978,11.677c5.436,1.021,10.655-2.551,11.677-7.979c0.331-1.758,2.977-17.48-5.875-28.152
	c-3.342-4.029-9.602-8.833-20.445-8.833c-8.771,0-16.791,4.024-22.584,11.333c-7.187,9.066-9.972,21.859-7.27,33.386
	c2.666,11.374,9.603,21.029,19.53,27.187s21.66,8.08,33.034,5.414c13.567-3.181,25.085-11.454,32.43-23.296
	c7.345-11.843,9.638-25.837,6.458-39.404c-7.893-33.668-41.704-54.636-75.372-46.746c-19.736,4.626-36.49,16.662-47.174,33.889
	c-10.685,17.227-14.021,37.584-9.395,57.32c9.969,42.525,48.013,71.295,89.923,71.295c6.958,0,14.024-0.793,21.085-2.448
	c17.792-4.171,33.951-12.394,47.465-23.922C306.636,224.951,275.391,241.283,240.4,241.283z"/>
<g>
</g>
<g>
</g>
<g>
</g>
<g>
</g>
<g>
</g>
<g>
</g>
<g>
</g>
<g>
</g>
<g>
</g>
<g>
</g>
<g>
</g>
<g>
</g>
<g>
</g>
<g>
</g>
<g>
</g>
</svg>
