<?xml version="1.0" encoding="iso-8859-1"?>
<!-- Generator: Adobe Illustrator 17.1.0, SVG Export Plug-In . SVG Version: 6.00 Build 0)  -->
<!DOCTYPE svg PUBLIC "-//W3C//DTD SVG 1.1//EN" "http://www.w3.org/Graphics/SVG/1.1/DTD/svg11.dtd">
<svg version="1.1" id="Capa_1" xmlns="http://www.w3.org/2000/svg" xmlns:xlink="http://www.w3.org/1999/xlink" x="0px" y="0px"
	 viewBox="0 0 480.801 480.801" style="enable-background:new 0 0 480.801 480.801;" xml:space="preserve">
<path d="M445.086,82.286H35.715C16.021,82.286,0,98.308,0,118v244.801c0,19.692,16.021,35.714,35.715,35.714h409.371
	c19.693,0,35.715-16.021,35.715-35.714V118C480.801,98.308,464.779,82.286,445.086,82.286z M445.086,378.515H35.715
	c-8.665,0-15.715-7.049-15.715-15.714v-7.821c4.745,2.335,10.078,3.653,15.715,3.653h348.678c5.522,0,10-4.478,10-10
	s-4.478-10-10-10H35.715c-8.665,0-15.715-7.05-15.715-15.715V118c0-8.665,7.05-15.714,15.715-15.714h409.371
	c8.665,0,15.715,7.049,15.715,15.714v204.918c0,8.665-7.05,15.715-15.715,15.715c-5.522,0-10,4.478-10,10s4.478,10,10,10
	c5.636,0,10.969-1.317,15.715-3.653v7.821C460.801,371.466,453.751,378.515,445.086,378.515z M91.858,157.686
	c0,8.853-7.176,16.029-16.029,16.029c-8.852,0-16.029-7.176-16.029-16.029c0-8.852,7.176-16.029,16.029-16.029
	C84.681,141.657,91.858,148.834,91.858,157.686z M157.686,157.686c0,8.853-7.176,16.029-16.029,16.029
	c-8.852,0-16.029-7.176-16.029-16.029c0-8.852,7.176-16.029,16.029-16.029C150.51,141.657,157.686,148.834,157.686,157.686z
	 M223.515,157.686c0,8.853-7.176,16.029-16.029,16.029s-16.029-7.176-16.029-16.029c0-8.852,7.176-16.029,16.029-16.029
	S223.515,148.834,223.515,157.686z M289.343,157.686c0,8.853-7.176,16.029-16.029,16.029s-16.029-7.176-16.029-16.029
	c0-8.852,7.176-16.029,16.029-16.029S289.343,148.834,289.343,157.686z M355.172,157.686c0,8.853-7.176,16.029-16.029,16.029
	c-8.852,0-16.029-7.176-16.029-16.029c0-8.852,7.176-16.029,16.029-16.029C347.996,141.657,355.172,148.834,355.172,157.686z
	 M421,157.686c0,8.853-7.176,16.029-16.029,16.029c-8.852,0-16.029-7.176-16.029-16.029c0-8.852,7.176-16.029,16.029-16.029
	C413.824,141.657,421,148.834,421,157.686z M91.858,223.515c0,8.852-7.176,16.029-16.029,16.029
	c-8.852,0-16.029-7.176-16.029-16.029s7.176-16.029,16.029-16.029C84.681,207.486,91.858,214.662,91.858,223.515z M157.686,223.515
	c0,8.852-7.176,16.029-16.029,16.029c-8.852,0-16.029-7.176-16.029-16.029s7.176-16.029,16.029-16.029
	C150.51,207.486,157.686,214.662,157.686,223.515z M223.515,223.515c0,8.852-7.176,16.029-16.029,16.029
	s-16.029-7.176-16.029-16.029s7.176-16.029,16.029-16.029S223.515,214.662,223.515,223.515z M289.343,223.515
	c0,8.852-7.176,16.029-16.029,16.029s-16.029-7.176-16.029-16.029s7.176-16.029,16.029-16.029S289.343,214.662,289.343,223.515z
	 M355.172,223.515c0,8.852-7.176,16.029-16.029,16.029c-8.852,0-16.029-7.176-16.029-16.029s7.176-16.029,16.029-16.029
	C347.996,207.486,355.172,214.662,355.172,223.515z M421,223.515c0,8.852-7.176,16.029-16.029,16.029
	c-8.852,0-16.029-7.176-16.029-16.029s7.176-16.029,16.029-16.029C413.824,207.486,421,214.662,421,223.515z M91.858,289.343
	c0,8.852-7.176,16.029-16.029,16.029c-8.852,0-16.029-7.176-16.029-16.029s7.176-16.029,16.029-16.029
	C84.681,273.315,91.858,280.491,91.858,289.343z M157.686,289.343c0,8.852-7.176,16.029-16.029,16.029
	c-8.852,0-16.029-7.176-16.029-16.029s7.176-16.029,16.029-16.029C150.51,273.315,157.686,280.491,157.686,289.343z
	 M223.515,289.343c0,8.852-7.176,16.029-16.029,16.029s-16.029-7.176-16.029-16.029s7.176-16.029,16.029-16.029
	S223.515,280.491,223.515,289.343z M289.343,289.343c0,8.852-7.176,16.029-16.029,16.029s-16.029-7.176-16.029-16.029
	s7.176-16.029,16.029-16.029S289.343,280.491,289.343,289.343z M355.172,289.343c0,8.852-7.176,16.029-16.029,16.029
	c-8.852,0-16.029-7.176-16.029-16.029s7.176-16.029,16.029-16.029C347.996,273.315,355.172,280.491,355.172,289.343z M421,289.343
	c0,8.852-7.176,16.029-16.029,16.029c-8.852,0-16.029-7.176-16.029-16.029s7.176-16.029,16.029-16.029
	C413.824,273.315,421,280.491,421,289.343z"/>
<g>
</g>
<g>
</g>
<g>
</g>
<g>
</g>
<g>
</g>
<g>
</g>
<g>
</g>
<g>
</g>
<g>
</g>
<g>
</g>
<g>
</g>
<g>
</g>
<g>
</g>
<g>
</g>
<g>
</g>
</svg>
