<?xml version="1.0" encoding="iso-8859-1"?>
<!-- Generator: Adobe Illustrator 17.1.0, SVG Export Plug-In . SVG Version: 6.00 Build 0)  -->
<!DOCTYPE svg PUBLIC "-//W3C//DTD SVG 1.1//EN" "http://www.w3.org/Graphics/SVG/1.1/DTD/svg11.dtd">
<svg version="1.1" id="Capa_1" xmlns="http://www.w3.org/2000/svg" xmlns:xlink="http://www.w3.org/1999/xlink" x="0px" y="0px"
	 viewBox="0 0 472.4 472.4" style="enable-background:new 0 0 472.4 472.4;" xml:space="preserve">
<path d="M462.4,142.701c-41.695,0-77.904,20.872-95.622,51.264c-17.855-55.069-69.637-95.001-130.579-95.001
	s-112.723,39.932-130.579,95.001C87.904,163.572,51.695,142.701,10,142.701c-5.523,0-10,4.477-10,10V319.7c0,5.523,4.477,10,10,10
	c41.695,0,77.904-20.872,95.622-51.264c17.855,55.069,69.637,95.001,130.579,95.001s112.723-39.932,130.579-95.001
	c17.718,30.392,53.926,51.264,95.622,51.264c5.523,0,10-4.477,10-10V152.701C472.4,147.178,467.923,142.701,462.4,142.701z
	 M20,309.219V163.181c28.29,2.734,52.498,16.93,65.927,36.919c-7.216-3.235-15.577-6.017-25.012-8.262
	c-5.377-1.277-10.765,2.041-12.043,7.414c-1.278,5.373,2.041,10.765,7.414,12.043c16.298,3.878,27.872,9.444,34.461,14.905H56.175
	c-5.523,0-10,4.477-10,10s4.477,10,10,10h34.571c-6.589,5.462-18.163,11.027-34.46,14.905c-5.373,1.279-8.692,6.671-7.414,12.043
	c1.094,4.595,5.195,7.688,9.72,7.688c0.767,0,1.545-0.089,2.323-0.274c9.435-2.245,17.796-5.028,25.012-8.263
	C72.498,292.289,48.29,306.485,20,309.219z M288.613,341.048V166.388c0-5.523-4.477-10-10-10s-10,4.477-10,10v182.489
	c-10.298,2.967-21.172,4.561-32.413,4.561s-22.114-1.594-32.413-4.561V166.388c0-5.523-4.477-10-10-10s-10,4.477-10,10v174.659
	c-38.403-19.276-64.825-59.031-64.825-104.847c0-64.645,52.592-117.237,117.237-117.237S353.438,171.555,353.438,236.2
	C353.438,282.017,327.016,321.772,288.613,341.048z M452.4,309.219c-28.29-2.734-52.498-16.931-65.927-36.919
	c7.216,3.235,15.577,6.017,25.012,8.263c0.778,0.185,1.557,0.274,2.323,0.274c4.525,0,8.627-3.093,9.72-7.688
	c1.278-5.373-2.041-10.765-7.414-12.043c-16.298-3.878-27.871-9.444-34.46-14.905h34.571c5.523,0,10-4.477,10-10s-4.477-10-10-10
	h-34.571c6.589-5.462,18.163-11.027,34.461-14.905c5.373-1.279,8.692-6.67,7.414-12.043c-1.278-5.373-6.667-8.692-12.043-7.414
	c-9.435,2.245-17.797,5.028-25.012,8.262c13.429-19.989,37.637-34.185,65.927-36.919V309.219z"/>
<g>
</g>
<g>
</g>
<g>
</g>
<g>
</g>
<g>
</g>
<g>
</g>
<g>
</g>
<g>
</g>
<g>
</g>
<g>
</g>
<g>
</g>
<g>
</g>
<g>
</g>
<g>
</g>
<g>
</g>
</svg>
