<?xml version="1.0" encoding="iso-8859-1"?>
<!-- Generator: Adobe Illustrator 17.1.0, SVG Export Plug-In . SVG Version: 6.00 Build 0)  -->
<!DOCTYPE svg PUBLIC "-//W3C//DTD SVG 1.1//EN" "http://www.w3.org/Graphics/SVG/1.1/DTD/svg11.dtd">
<svg version="1.1" id="Capa_1" xmlns="http://www.w3.org/2000/svg" xmlns:xlink="http://www.w3.org/1999/xlink" x="0px" y="0px"
	 viewBox="0 0 481.279 481.279" style="enable-background:new 0 0 481.279 481.279;" xml:space="preserve">
<path d="M481.279,165.989c0-24.773-25.764-46.11-74.505-61.707c-44.521-14.245-103.521-22.09-166.134-22.09
	s-121.614,7.845-166.134,22.09C25.764,119.879,0,141.216,0,165.989v41.498c0,10.583,4.717,20.535,13.903,29.684
	C4.681,246.357,0,256.284,0,266.788v48.502c0,24.773,25.764,46.111,74.505,61.707c44.521,14.245,103.521,22.09,166.134,22.09
	s121.614-7.845,166.134-22.09c48.742-15.596,74.505-36.934,74.505-61.707v-48.502c0-10.512-4.679-20.437-13.901-29.619
	c9.184-9.148,13.901-19.1,13.901-29.682V165.989z M80.6,123.331c42.604-13.632,99.44-21.139,160.04-21.139
	s117.436,7.507,160.04,21.139c37.379,11.961,60.6,28.306,60.6,42.658v41.498c0,14.353-23.221,30.697-60.6,42.658
	c-42.604,13.632-99.44,21.139-160.04,21.139s-117.436-7.507-160.04-21.139C43.221,238.185,20,221.84,20,207.487v-6.385
	c12.516,10.046,30.78,19.002,54.505,26.594c44.521,14.245,103.521,22.09,166.134,22.09c78.855,0,152.328-12.703,196.539-33.98
	c4.977-2.395,7.069-8.371,4.674-13.348c-2.395-4.977-8.373-7.069-13.347-4.674c-41.637,20.039-111.868,32.002-187.866,32.002
	c-60.6,0-117.436-7.507-160.04-21.139C43.221,196.687,20,180.342,20,165.989S43.221,135.292,80.6,123.331z M435.439,266.861
	c-39.364,21.709-114.737,35.576-194.8,35.576S85.204,288.57,45.84,266.861v-8.705c8.436,3.938,18,7.626,28.666,11.038
	c44.521,14.245,103.521,22.09,166.134,22.09s121.614-7.845,166.134-22.09c10.665-3.413,20.23-7.1,28.666-11.038V266.861z
	 M25.84,253.688v18.918c0,0.022,0.003,0.043,0.003,0.066c0.002,0.283,0.017,0.564,0.043,0.845c0.005,0.061,0.01,0.122,0.017,0.183
	c0.029,0.259,0.069,0.516,0.118,0.771c0.014,0.076,0.027,0.152,0.043,0.227c0.051,0.24,0.115,0.478,0.183,0.714
	c0.023,0.079,0.044,0.159,0.068,0.237c0.076,0.238,0.164,0.471,0.257,0.703c0.026,0.065,0.05,0.132,0.078,0.197
	c0.107,0.249,0.226,0.492,0.353,0.733c0.021,0.039,0.04,0.08,0.061,0.119c0.141,0.259,0.296,0.511,0.46,0.758
	c0.011,0.017,0.021,0.034,0.033,0.051c0.171,0.252,0.354,0.497,0.549,0.734c0.008,0.01,0.016,0.021,0.025,0.032
	c0.187,0.226,0.385,0.442,0.593,0.653c0.023,0.023,0.044,0.046,0.067,0.069c0.187,0.186,0.385,0.363,0.589,0.535
	c0.053,0.045,0.105,0.091,0.159,0.135c0.178,0.144,0.363,0.28,0.553,0.413c0.091,0.064,0.181,0.128,0.274,0.189
	c0.076,0.05,0.145,0.105,0.223,0.153c41.369,25.483,121.856,41.313,210.051,41.313c88.192,0,168.677-15.83,210.047-41.312
	c0.073-0.045,0.138-0.097,0.209-0.144c0.107-0.07,0.211-0.143,0.315-0.217c0.174-0.123,0.345-0.249,0.51-0.381
	c0.072-0.058,0.141-0.119,0.212-0.18c0.184-0.157,0.364-0.318,0.535-0.486c0.045-0.044,0.087-0.091,0.131-0.136
	c0.184-0.189,0.362-0.381,0.529-0.582c0.034-0.041,0.065-0.083,0.098-0.124c0.167-0.208,0.328-0.419,0.477-0.638
	c0.038-0.055,0.071-0.113,0.108-0.168c0.136-0.208,0.267-0.418,0.386-0.635c0.047-0.084,0.087-0.172,0.132-0.257
	c0.1-0.195,0.198-0.39,0.285-0.591c0.049-0.112,0.09-0.228,0.135-0.342c0.071-0.183,0.142-0.366,0.202-0.553
	c0.041-0.126,0.075-0.255,0.111-0.384c0.052-0.186,0.103-0.372,0.144-0.561c0.027-0.123,0.048-0.247,0.07-0.372
	c0.037-0.206,0.07-0.411,0.094-0.619c0.012-0.108,0.021-0.217,0.029-0.326c0.019-0.231,0.032-0.463,0.035-0.695
	c0.001-0.043,0.006-0.085,0.006-0.128v-18.917c3.369,3.919,5.84,8.39,5.84,13.097c0,14.352-23.221,30.697-60.6,42.657
	c-42.604,13.632-99.44,21.139-160.04,21.139s-117.436-7.507-160.04-21.139C43.221,297.485,20,281.14,20,266.788
	C20,262.064,22.498,257.579,25.84,253.688z M400.679,357.948c-42.604,13.631-99.44,21.139-160.04,21.139
	s-117.436-7.508-160.04-21.139C43.221,345.987,20,329.643,20,315.29v-13.389c12.516,10.046,30.78,19.001,54.505,26.593
	c44.521,14.245,103.521,22.09,166.134,22.09s121.614-7.845,166.134-22.09c23.726-7.591,41.99-16.547,54.505-26.593v13.389
	C461.279,329.643,438.059,345.987,400.679,357.948z M222.306,121.938c0-4.271,8.208-7.733,18.333-7.733s18.333,3.462,18.333,7.733
	s-8.208,7.733-18.333,7.733S222.306,126.209,222.306,121.938z M222.306,160.338c0-4.271,8.208-7.733,18.333-7.733
	s18.333,3.462,18.333,7.733s-8.208,7.733-18.333,7.733S222.306,164.609,222.306,160.338z M285.056,134.738
	c0-4.271,8.208-7.733,18.333-7.733s18.333,3.462,18.333,7.733s-8.208,7.733-18.333,7.733S285.056,139.009,285.056,134.738z
	 M285.056,185.938c0-4.271,8.208-7.733,18.333-7.733s18.333,3.462,18.333,7.733s-8.208,7.733-18.333,7.733
	S285.056,190.209,285.056,185.938z M158.306,134.738c0-4.271,8.208-7.733,18.333-7.733s18.333,3.462,18.333,7.733
	s-8.208,7.733-18.333,7.733S158.306,139.009,158.306,134.738z M158.306,185.938c0-4.271,8.208-7.733,18.333-7.733
	s18.333,3.462,18.333,7.733s-8.208,7.733-18.333,7.733S158.306,190.209,158.306,185.938z M222.306,211.538
	c0-4.271,8.208-7.733,18.333-7.733s18.333,3.462,18.333,7.733s-8.208,7.733-18.333,7.733S222.306,215.809,222.306,211.538z
	 M94.306,160.338c0-4.271,8.208-7.733,18.333-7.733s18.333,3.462,18.333,7.733s-8.208,7.733-18.333,7.733
	S94.306,164.609,94.306,160.338z M350.306,160.338c0-4.271,8.208-7.733,18.333-7.733s18.333,3.462,18.333,7.733
	s-8.208,7.733-18.333,7.733S350.306,164.609,350.306,160.338z"/>
<g>
</g>
<g>
</g>
<g>
</g>
<g>
</g>
<g>
</g>
<g>
</g>
<g>
</g>
<g>
</g>
<g>
</g>
<g>
</g>
<g>
</g>
<g>
</g>
<g>
</g>
<g>
</g>
<g>
</g>
</svg>
