<?xml version="1.0" encoding="iso-8859-1"?>
<!-- Generator: Adobe Illustrator 17.1.0, SVG Export Plug-In . SVG Version: 6.00 Build 0)  -->
<!DOCTYPE svg PUBLIC "-//W3C//DTD SVG 1.1//EN" "http://www.w3.org/Graphics/SVG/1.1/DTD/svg11.dtd">
<svg version="1.1" id="Capa_1" xmlns="http://www.w3.org/2000/svg" xmlns:xlink="http://www.w3.org/1999/xlink" x="0px" y="0px"
	 viewBox="0 0 480.801 480.801" style="enable-background:new 0 0 480.801 480.801;" xml:space="preserve">
<path d="M240.4,0C133.252,0,46.08,87.172,46.08,194.32v204.432c0,1.183,0.216,2.313,0.594,3.367
	c5.096,44.226,42.763,78.682,88.332,78.682h210.789c49.034,0,88.926-39.892,88.926-88.995V194.32C434.721,87.172,347.549,0,240.4,0z
	 M345.795,460.801H240.4c-41.674,0-75.577-33.904-75.577-75.578c0-41.673,33.903-75.576,75.577-75.576s75.577,33.903,75.577,75.577
	c0,18.079-14.709,32.788-32.789,32.788c-18.079,0-32.788-14.709-32.788-32.788v-28.526c0-5.522-4.478-10-10-10s-10,4.478-10,10
	v28.526c0,29.107,23.681,52.788,52.789,52.788c29.107,0,52.788-23.681,52.788-52.788c0-52.701-42.876-95.577-95.577-95.577
	s-95.577,42.876-95.577,95.577c0,30.71,14.563,58.079,37.141,75.577h-46.958c-38.006,0-68.926-30.92-68.926-68.995
	c0-96.12,78.2-174.319,174.32-174.319c51.618,0,100.287,22.69,133.528,62.252c3.554,4.229,9.861,4.777,14.089,1.224
	c4.229-3.553,4.776-9.86,1.224-14.089c-37.051-44.097-91.301-69.387-148.841-69.387c-76.368,0-142.576,44.288-174.32,108.549V194.32
	C66.08,98.2,144.28,20,240.4,20s174.32,78.2,174.32,174.32v112.172c-2.842-3.482-7.782-4.723-12.027-2.711
	c-4.988,2.37-7.111,8.335-4.742,13.324c11.128,23.426,16.77,48.559,16.77,74.77C414.721,429.881,383.801,460.801,345.795,460.801z"
	/>
<g>
</g>
<g>
</g>
<g>
</g>
<g>
</g>
<g>
</g>
<g>
</g>
<g>
</g>
<g>
</g>
<g>
</g>
<g>
</g>
<g>
</g>
<g>
</g>
<g>
</g>
<g>
</g>
<g>
</g>
</svg>
