<?xml version="1.0" encoding="iso-8859-1"?>
<!-- Generator: Adobe Illustrator 17.1.0, SVG Export Plug-In . SVG Version: 6.00 Build 0)  -->
<!DOCTYPE svg PUBLIC "-//W3C//DTD SVG 1.1//EN" "http://www.w3.org/Graphics/SVG/1.1/DTD/svg11.dtd">
<svg version="1.1" id="Capa_1" xmlns="http://www.w3.org/2000/svg" xmlns:xlink="http://www.w3.org/1999/xlink" x="0px" y="0px"
	 viewBox="0 0 480.715 480.715" style="enable-background:new 0 0 480.715 480.715;" xml:space="preserve">
<path d="M480.176,288.802l-16.588-48.44l16.588-48.443c0.719-2.1,0.719-4.379,0-6.479l-16.588-48.442l16.588-48.448
	c0.024-0.071,0.039-0.142,0.061-0.213c0.064-0.2,0.123-0.401,0.174-0.605c0.033-0.13,0.061-0.26,0.088-0.39
	c0.038-0.184,0.073-0.369,0.101-0.556c0.023-0.158,0.042-0.315,0.058-0.472c0.016-0.158,0.029-0.317,0.037-0.476
	c0.01-0.188,0.013-0.376,0.012-0.563c0-0.134-0.002-0.267-0.008-0.401c-0.009-0.21-0.027-0.419-0.049-0.627
	c-0.008-0.074-0.008-0.148-0.018-0.222c-0.006-0.05-0.02-0.097-0.027-0.146c-0.029-0.201-0.067-0.4-0.108-0.598
	c-0.028-0.137-0.056-0.274-0.09-0.409c-0.041-0.163-0.09-0.323-0.139-0.483c-0.05-0.164-0.1-0.328-0.157-0.487
	c-0.045-0.124-0.097-0.245-0.147-0.367c-0.075-0.184-0.15-0.367-0.236-0.545c-0.048-0.101-0.103-0.198-0.155-0.297
	c-0.098-0.187-0.196-0.373-0.304-0.552c-0.06-0.099-0.126-0.193-0.189-0.29c-0.11-0.169-0.22-0.337-0.34-0.498
	c-0.083-0.112-0.174-0.219-0.262-0.327c-0.11-0.136-0.218-0.273-0.335-0.402c-0.113-0.126-0.234-0.244-0.354-0.365
	c-0.104-0.104-0.205-0.209-0.312-0.308c-0.136-0.125-0.28-0.242-0.423-0.359c-0.105-0.086-0.208-0.174-0.317-0.256
	c-0.143-0.108-0.294-0.208-0.444-0.309c-0.123-0.083-0.245-0.167-0.371-0.244c-0.136-0.083-0.278-0.159-0.419-0.236
	c-0.154-0.084-0.308-0.168-0.467-0.244c-0.123-0.059-0.248-0.112-0.374-0.166c-0.187-0.081-0.375-0.158-0.568-0.227
	c-0.048-0.017-0.092-0.04-0.14-0.056c-0.071-0.024-0.143-0.039-0.215-0.062c-0.198-0.063-0.398-0.121-0.601-0.172
	c-0.13-0.033-0.261-0.061-0.391-0.088c-0.185-0.038-0.371-0.073-0.559-0.101c-0.154-0.023-0.307-0.041-0.461-0.057
	c-0.165-0.017-0.329-0.03-0.496-0.039c-0.177-0.009-0.353-0.012-0.529-0.012c-0.149,0-0.297,0.003-0.447,0.009
	c-0.188,0.009-0.375,0.025-0.562,0.044c-0.089,0.009-0.177,0.009-0.265,0.021l-73.188,9.495c-2.954-0.351-10.867-1.265-22.352-2.395
	c-0.208-0.027-0.416-0.047-0.624-0.061c-15.146-1.483-36.327-3.322-60.492-4.749c-0.368-0.041-0.736-0.064-1.104-0.064
	c-22.109-1.289-46.649-2.225-71.31-2.225c-73.237,0-145.451,8.254-155.883,9.494l-73.188-9.495c-0.076-0.01-0.151-0.01-0.227-0.018
	c-0.205-0.022-0.409-0.039-0.616-0.049c-0.139-0.006-0.276-0.008-0.414-0.009c-0.182-0.001-0.365,0.003-0.548,0.012
	c-0.166,0.008-0.329,0.022-0.493,0.039c-0.151,0.016-0.302,0.033-0.454,0.056c-0.194,0.029-0.386,0.064-0.576,0.104
	c-0.123,0.026-0.246,0.053-0.37,0.083c-0.212,0.053-0.42,0.114-0.627,0.18c-0.067,0.021-0.134,0.035-0.2,0.057
	c-0.045,0.015-0.086,0.036-0.13,0.052c-0.2,0.072-0.395,0.152-0.589,0.236c-0.12,0.052-0.24,0.102-0.356,0.158
	c-0.163,0.078-0.321,0.164-0.48,0.25c-0.138,0.076-0.277,0.15-0.411,0.232c-0.127,0.078-0.25,0.162-0.373,0.245
	c-0.15,0.101-0.301,0.201-0.444,0.31c-0.107,0.081-0.208,0.167-0.311,0.252c-0.146,0.12-0.292,0.238-0.43,0.365
	c-0.104,0.095-0.201,0.197-0.301,0.297c-0.124,0.124-0.25,0.247-0.366,0.377c-0.112,0.124-0.215,0.254-0.32,0.384
	c-0.093,0.115-0.189,0.228-0.277,0.347c-0.115,0.155-0.22,0.316-0.326,0.478c-0.068,0.103-0.139,0.205-0.202,0.31
	c-0.105,0.174-0.2,0.355-0.295,0.536c-0.055,0.104-0.112,0.207-0.163,0.313c-0.083,0.174-0.157,0.354-0.23,0.534
	c-0.052,0.125-0.105,0.25-0.151,0.377c-0.057,0.158-0.106,0.319-0.155,0.481c-0.05,0.162-0.099,0.323-0.141,0.488
	c-0.034,0.134-0.061,0.271-0.089,0.407c-0.042,0.198-0.079,0.397-0.109,0.599c-0.007,0.049-0.02,0.097-0.027,0.146
	c-0.01,0.075-0.01,0.148-0.018,0.222c-0.022,0.208-0.04,0.416-0.049,0.627c-0.006,0.134-0.008,0.268-0.008,0.401
	C0.007,85.46,0.01,85.648,0.02,85.836c0.008,0.16,0.021,0.318,0.037,0.476c0.016,0.157,0.035,0.314,0.058,0.472
	c0.028,0.187,0.062,0.372,0.1,0.556c0.027,0.13,0.055,0.26,0.088,0.39c0.051,0.205,0.11,0.406,0.174,0.605
	c0.023,0.071,0.037,0.143,0.061,0.213l16.588,48.448L0.539,185.44c-0.719,2.1-0.719,4.379,0,6.479l16.588,48.443l-16.588,48.44
	c-0.719,2.1-0.719,4.379,0,6.479l16.588,48.44L0.539,392.154c-0.025,0.073-0.04,0.146-0.063,0.219
	c-0.063,0.197-0.121,0.396-0.171,0.597c-0.033,0.132-0.062,0.264-0.09,0.397c-0.038,0.182-0.072,0.365-0.099,0.55
	c-0.024,0.159-0.043,0.317-0.059,0.476c-0.016,0.158-0.029,0.316-0.037,0.475c-0.01,0.188-0.013,0.375-0.012,0.562
	c0,0.135,0.002,0.269,0.008,0.405c0.009,0.209,0.027,0.415,0.049,0.622c0.008,0.075,0.008,0.15,0.018,0.225
	c0.007,0.05,0.02,0.098,0.027,0.148c0.029,0.199,0.067,0.396,0.107,0.592c0.029,0.139,0.057,0.278,0.091,0.415
	c0.041,0.162,0.089,0.32,0.138,0.479c0.05,0.164,0.1,0.329,0.158,0.489c0.045,0.125,0.097,0.246,0.147,0.369
	c0.075,0.183,0.15,0.366,0.234,0.543c0.049,0.103,0.105,0.202,0.158,0.304c0.096,0.184,0.193,0.367,0.299,0.544
	c0.063,0.104,0.133,0.204,0.199,0.305c0.107,0.163,0.213,0.326,0.329,0.482c0.088,0.119,0.184,0.232,0.277,0.347
	c0.105,0.129,0.208,0.259,0.319,0.383c0.119,0.133,0.247,0.258,0.374,0.385c0.097,0.096,0.191,0.195,0.291,0.288
	c0.143,0.132,0.295,0.255,0.447,0.379c0.097,0.079,0.192,0.161,0.292,0.237c0.151,0.114,0.309,0.22,0.467,0.326
	c0.115,0.077,0.229,0.156,0.347,0.228c0.143,0.087,0.291,0.167,0.439,0.247c0.148,0.081,0.296,0.161,0.448,0.234
	c0.127,0.061,0.258,0.116,0.389,0.172c0.183,0.078,0.366,0.154,0.554,0.221c0.049,0.018,0.094,0.041,0.144,0.057
	c0.094,0.032,0.189,0.055,0.284,0.084c0.139,0.043,0.278,0.087,0.419,0.124c0.179,0.047,0.358,0.084,0.538,0.121
	c0.112,0.023,0.222,0.051,0.335,0.07c0.301,0.051,0.602,0.088,0.903,0.111c0.042,0.003,0.085,0.003,0.127,0.005
	c0.212,0.014,0.424,0.026,0.635,0.026c0.063,0,0.126-0.006,0.189-0.007c0.065-0.001,0.13-0.005,0.195-0.008
	c0.265-0.01,0.528-0.031,0.789-0.062c0.038-0.004,0.075-0.004,0.113-0.009l73.382-9.527c12.507,1.018,118.191,9.521,155.688,9.521
	c37.497,0,143.183-8.503,155.689-9.521l73.382,9.527c0.028,0.004,0.055,0.002,0.083,0.005c0.398,0.049,0.799,0.081,1.203,0.081
	c0.292,0,0.587-0.016,0.881-0.042c0.103-0.009,0.205-0.026,0.307-0.038c0.177-0.021,0.354-0.043,0.531-0.074
	c0.144-0.025,0.284-0.058,0.426-0.089c0.134-0.03,0.269-0.059,0.403-0.094c0.154-0.041,0.305-0.087,0.456-0.135
	c0.079-0.025,0.158-0.043,0.237-0.07c0.041-0.014,0.078-0.033,0.118-0.047c0.206-0.074,0.408-0.156,0.608-0.243
	c0.103-0.044,0.207-0.086,0.308-0.133c0.177-0.084,0.348-0.177,0.519-0.271c0.113-0.062,0.229-0.119,0.339-0.184
	c0.129-0.077,0.25-0.164,0.375-0.247c0.284-0.187,0.555-0.387,0.815-0.6c0.091-0.075,0.186-0.145,0.275-0.223
	c0.125-0.11,0.241-0.227,0.359-0.342c0.107-0.104,0.216-0.206,0.318-0.314c0.097-0.104,0.188-0.212,0.281-0.319
	c0.115-0.133,0.23-0.266,0.338-0.405c0.074-0.096,0.144-0.195,0.215-0.293c0.115-0.16,0.228-0.322,0.333-0.489
	c0.057-0.091,0.112-0.183,0.166-0.275c0.106-0.179,0.207-0.362,0.302-0.549c0.047-0.093,0.092-0.186,0.136-0.281
	c0.087-0.185,0.168-0.372,0.244-0.564c0.043-0.109,0.085-0.219,0.124-0.329c0.062-0.173,0.118-0.349,0.17-0.527
	c0.041-0.137,0.079-0.275,0.114-0.414c0.037-0.151,0.07-0.304,0.1-0.457c0.034-0.169,0.065-0.338,0.09-0.509
	c0.008-0.053,0.021-0.105,0.028-0.158c0.01-0.075,0.01-0.149,0.018-0.224c0.022-0.207,0.04-0.414,0.049-0.624
	c0.006-0.135,0.008-0.269,0.008-0.403c0.001-0.187-0.002-0.374-0.012-0.562c-0.008-0.159-0.021-0.317-0.037-0.475
	c-0.016-0.159-0.035-0.317-0.059-0.476c-0.028-0.185-0.062-0.368-0.099-0.55c-0.028-0.133-0.056-0.265-0.09-0.397
	c-0.051-0.202-0.109-0.4-0.171-0.597c-0.023-0.073-0.038-0.146-0.063-0.219l-16.588-48.433l16.588-48.44
	C480.895,293.181,480.895,290.902,480.176,288.802z M125.978,378.915L316.732,97.958c14.043,0.878,26.945,1.882,38.055,2.849
	L163.965,381.602C150.687,380.714,137.581,379.775,125.978,378.915z M84.429,104.966c0.413,0,0.825-0.025,1.236-0.077
	c0.762-0.095,77.133-9.495,154.692-9.495c18.061,0,36.062,0.511,53.062,1.295L102.988,377.17c-0.703-0.055-1.39-0.108-2.059-0.16
	V137.045c0-5.522-4.478-10-10-10s-10,4.478-10,10v239.056l-56.253,7.303l12.481-36.443c0.719-2.101,0.719-4.38,0-6.479
	l-16.588-48.44l16.588-48.44c0.719-2.1,0.719-4.379,0-6.479L20.57,188.679l16.588-48.442c0.719-2.1,0.719-4.379,0-6.479
	L24.675,97.298l58.467,7.586C83.569,104.939,83.999,104.966,84.429,104.966z M187.143,383.078l190.366-280.122
	c10.886,1.115,17.324,1.907,17.542,1.934c0.837,0.104,1.684,0.103,2.522-0.007l58.467-7.586l-12.484,36.461
	c-0.719,2.1-0.719,4.379,0,6.479l16.588,48.442l-16.588,48.443c-0.719,2.1-0.719,4.379,0,6.479l16.588,48.44l-16.588,48.44
	c-0.719,2.1-0.719,4.379,0,6.479l12.481,36.443l-56.253-7.303V137.045c0-5.522-4.478-10-10-10s-10,4.478-10,10V377.01
	c-33.149,2.586-109.713,8.294-139.429,8.294C228.313,385.304,208.57,384.366,187.143,383.078z"/>
<g>
</g>
<g>
</g>
<g>
</g>
<g>
</g>
<g>
</g>
<g>
</g>
<g>
</g>
<g>
</g>
<g>
</g>
<g>
</g>
<g>
</g>
<g>
</g>
<g>
</g>
<g>
</g>
<g>
</g>
</svg>
