<?xml version="1.0" encoding="iso-8859-1"?>
<!-- Generator: Adobe Illustrator 17.1.0, SVG Export Plug-In . SVG Version: 6.00 Build 0)  -->
<!DOCTYPE svg PUBLIC "-//W3C//DTD SVG 1.1//EN" "http://www.w3.org/Graphics/SVG/1.1/DTD/svg11.dtd">
<svg version="1.1" id="Capa_1" xmlns="http://www.w3.org/2000/svg" xmlns:xlink="http://www.w3.org/1999/xlink" x="0px" y="0px"
	 viewBox="0 0 479.887 479.887" style="enable-background:new 0 0 479.887 479.887;" xml:space="preserve">
<path d="M479.718,282.877l-11.26-60.529c-0.001-0.006-0.002-0.013-0.004-0.02l-11.383-61.189c-0.001-0.005-0.002-0.01-0.003-0.015
	l-10.406-55.939c-0.032-1.052-0.226-2.061-0.56-3.008l-7.164-38.513c-1.926-12.827-13.099-22.469-26.093-22.469H67.061
	c-13.013,0-24.188,9.659-26.099,22.509l-17.785,96.61c-0.191,0.648-0.316,1.323-0.372,2.018L0.165,285.32
	C0.056,285.918,0,286.523,0,287.131v125.176c0,14.549,11.836,26.385,26.385,26.385h427.118c14.548,0,26.384-11.836,26.384-26.385
	V284.706C479.887,284.093,479.83,283.48,479.718,282.877z M60.667,67.135c0.026-0.144,0.05-0.288,0.069-0.434
	c0.437-3.139,3.155-5.506,6.324-5.506h345.786c3.164,0,5.883,2.363,6.323,5.497c0.021,0.146,0.044,0.293,0.071,0.438l5.276,28.362
	H55.447L60.667,67.135z M51.765,115.493h376.473l7.004,37.65H44.834L51.765,115.493z M41.152,173.144h397.81l7.666,41.206H33.566
	L41.152,173.144z M459.887,412.307c0,3.521-2.864,6.385-6.384,6.385H26.385c-3.521,0-6.385-2.864-6.385-6.385V297.13h386.801
	c5.522,0,10-4.478,10-10s-4.478-10-10-10H22.009l7.875-42.78h420.463l9.539,51.278V412.307z"/>
<g>
</g>
<g>
</g>
<g>
</g>
<g>
</g>
<g>
</g>
<g>
</g>
<g>
</g>
<g>
</g>
<g>
</g>
<g>
</g>
<g>
</g>
<g>
</g>
<g>
</g>
<g>
</g>
<g>
</g>
</svg>
