<?xml version="1.0" encoding="iso-8859-1"?>
<!-- Generator: Adobe Illustrator 17.1.0, SVG Export Plug-In . SVG Version: 6.00 Build 0)  -->
<!DOCTYPE svg PUBLIC "-//W3C//DTD SVG 1.1//EN" "http://www.w3.org/Graphics/SVG/1.1/DTD/svg11.dtd">
<svg version="1.1" id="Capa_1" xmlns="http://www.w3.org/2000/svg" xmlns:xlink="http://www.w3.org/1999/xlink" x="0px" y="0px"
	 viewBox="0 0 455.2 455.2" style="enable-background:new 0 0 455.2 455.2;" xml:space="preserve">
<path d="M388.538,66.663C345.55,23.675,288.395,0,227.601,0C166.806,0,109.65,23.675,66.663,66.663
	C23.675,109.651,0,166.806,0,227.6c0,60.794,23.675,117.949,66.663,160.937C109.65,431.526,166.807,455.2,227.601,455.2
	s117.949-23.674,160.938-66.663C431.525,345.55,455.2,288.394,455.2,227.6S431.525,109.651,388.538,66.663z M227.601,435.2
	c-0.424,0-0.844-0.014-1.267-0.016c106.513-9.141,190.4-98.743,190.4-207.583c0-35.269-8.977-70.123-25.959-100.793
	c-2.675-4.832-8.76-6.579-13.592-3.905c-4.832,2.675-6.58,8.761-3.904,13.593c15.345,27.713,23.455,59.217,23.455,91.105
	c0,103.866-84.501,188.367-188.366,188.367C104.501,415.967,20,331.466,20,227.6S104.501,39.234,208.367,39.234
	c51.036,0,98.819,20.078,134.546,56.536c3.866,3.944,10.195,4.008,14.142,0.144c3.944-3.866,4.009-10.197,0.144-14.142
	c-35.269-35.991-81.164-57.535-130.756-61.757c0.387-0.002,0.771-0.015,1.159-0.015c114.471,0,207.6,93.129,207.6,207.6
	C435.2,342.071,342.071,435.2,227.601,435.2z M112.4,150.961c0,7.128-5.779,12.907-12.907,12.907s-12.907-5.779-12.907-12.907
	c0-7.128,5.779-12.907,12.907-12.907S112.4,143.833,112.4,150.961z M277.803,137.491c0-10.718,8.689-19.407,19.407-19.407
	c10.718,0,19.407,8.689,19.407,19.407c0,10.718-8.689,19.407-19.407,19.407C286.492,156.898,277.803,148.209,277.803,137.491z
	 M185.278,346.213c0,10.518-8.527,19.045-19.045,19.045s-19.045-8.527-19.045-19.045s8.527-19.045,19.045-19.045
	S185.278,335.695,185.278,346.213z M181.769,97.08c0-11.68,9.469-21.149,21.149-21.149c11.68,0,21.149,9.469,21.149,21.149
	s-9.469,21.149-21.149,21.149C191.238,118.229,181.769,108.76,181.769,97.08z M98.299,245.254c0,11.064-8.969,20.033-20.033,20.033
	c-11.064,0-20.033-8.969-20.033-20.033s8.969-20.033,20.033-20.033C89.33,225.22,98.299,234.19,98.299,245.254z M192.155,205.5
	c-11.064,0-20.033-8.969-20.033-20.033c0-11.064,8.969-20.033,20.033-20.033c11.064,0,20.033,8.969,20.033,20.033
	C212.188,196.531,203.219,205.5,192.155,205.5z M311.732,326.076c0,13.05-10.579,23.63-23.63,23.63s-23.63-10.579-23.63-23.63
	s10.579-23.63,23.63-23.63S311.732,313.026,311.732,326.076z M341.4,238.346c0,8.432-6.836,15.268-15.268,15.268
	s-15.268-6.836-15.268-15.268c0-8.432,6.836-15.268,15.268-15.268S341.4,229.914,341.4,238.346z M233.571,270.413
	c0,8.63-6.996,15.626-15.626,15.626c-8.63,0-15.626-6.996-15.626-15.626c0-8.63,6.996-15.626,15.626-15.626
	C226.575,254.787,233.571,261.783,233.571,270.413z"/>
<g>
</g>
<g>
</g>
<g>
</g>
<g>
</g>
<g>
</g>
<g>
</g>
<g>
</g>
<g>
</g>
<g>
</g>
<g>
</g>
<g>
</g>
<g>
</g>
<g>
</g>
<g>
</g>
<g>
</g>
</svg>
