<?xml version="1.0" encoding="iso-8859-1"?>
<!-- Generator: Adobe Illustrator 17.1.0, SVG Export Plug-In . SVG Version: 6.00 Build 0)  -->
<!DOCTYPE svg PUBLIC "-//W3C//DTD SVG 1.1//EN" "http://www.w3.org/Graphics/SVG/1.1/DTD/svg11.dtd">
<svg version="1.1" id="Capa_1" xmlns="http://www.w3.org/2000/svg" xmlns:xlink="http://www.w3.org/1999/xlink" x="0px" y="0px"
	 viewBox="0 0 480.8 480.8" style="enable-background:new 0 0 480.8 480.8;" xml:space="preserve">
<path d="M391.748,0H89.052c-5.523,0-10,4.477-10,10v460.8c0,5.523,4.477,10,10,10h302.695c5.523,0,10-4.477,10-10V10
	C401.748,4.477,397.271,0,391.748,0z M381.748,460.8H99.052V20h282.695V460.8z M121.484,168.645h104.051c5.523,0,10-4.477,10-10
	V54.593c0-5.523-4.477-10-10-10H121.484c-5.523,0-10,4.477-10,10v104.052C111.484,164.168,115.961,168.645,121.484,168.645z
	 M131.484,64.593h9.729v64.323c0,5.523,4.477,10,10,10h44.593c5.523,0,10-4.477,10-10s-4.477-10-10-10h-34.593V64.593h54.322v84.052
	h-84.051V64.593z M255.265,168.645h104.051c5.523,0,10-4.477,10-10V54.593c0-5.523-4.477-10-10-10H255.265c-5.523,0-10,4.477-10,10
	v104.052C245.265,164.168,249.742,168.645,255.265,168.645z M265.265,64.593h9.729v64.323c0,5.523,4.477,10,10,10h44.593
	c5.523,0,10-4.477,10-10s-4.477-10-10-10h-34.593V64.593h54.322v84.052h-84.051V64.593z M121.484,302.426h104.051
	c5.523,0,10-4.477,10-10V188.374c0-5.523-4.477-10-10-10H121.484c-5.523,0-10,4.477-10,10v104.052
	C111.484,297.949,115.961,302.426,121.484,302.426z M131.484,198.374h9.729v64.32c0,5.523,4.477,10,10,10h44.593
	c5.523,0,10-4.477,10-10s-4.477-10-10-10h-34.593v-54.32h54.322v84.052h-84.051V198.374z M255.265,302.426h104.051
	c5.523,0,10-4.477,10-10V188.374c0-5.523-4.477-10-10-10H255.265c-5.523,0-10,4.477-10,10v104.052
	C245.265,297.949,249.742,302.426,255.265,302.426z M265.265,198.374h9.729v64.32c0,5.523,4.477,10,10,10h44.593
	c5.523,0,10-4.477,10-10s-4.477-10-10-10h-34.593v-54.32h54.322v84.052h-84.051V198.374z M121.484,436.207h104.051
	c5.523,0,10-4.477,10-10V322.155c0-5.523-4.477-10-10-10H121.484c-5.523,0-10,4.477-10,10v104.052
	C111.484,431.729,115.961,436.207,121.484,436.207z M131.484,332.155h9.729v64.323c0,5.523,4.477,10,10,10h44.593
	c5.523,0,10-4.477,10-10s-4.477-10-10-10h-34.593v-54.323h54.322v84.052h-84.051V332.155z M255.265,436.207h104.051
	c5.523,0,10-4.477,10-10V322.155c0-5.523-4.477-10-10-10H255.265c-5.523,0-10,4.477-10,10v104.052
	C245.265,431.729,249.742,436.207,255.265,436.207z M265.265,332.155h9.729v64.323c0,5.523,4.477,10,10,10h44.593
	c5.523,0,10-4.477,10-10s-4.477-10-10-10h-34.593v-54.323h54.322v84.052h-84.051V332.155z"/>
<g>
</g>
<g>
</g>
<g>
</g>
<g>
</g>
<g>
</g>
<g>
</g>
<g>
</g>
<g>
</g>
<g>
</g>
<g>
</g>
<g>
</g>
<g>
</g>
<g>
</g>
<g>
</g>
<g>
</g>
</svg>
