<?xml version="1.0" encoding="iso-8859-1"?>
<!-- Generator: Adobe Illustrator 17.1.0, SVG Export Plug-In . SVG Version: 6.00 Build 0)  -->
<!DOCTYPE svg PUBLIC "-//W3C//DTD SVG 1.1//EN" "http://www.w3.org/Graphics/SVG/1.1/DTD/svg11.dtd">
<svg version="1.1" id="Capa_1" xmlns="http://www.w3.org/2000/svg" xmlns:xlink="http://www.w3.org/1999/xlink" x="0px" y="0px"
	 viewBox="0 0 481.145 481.145" style="enable-background:new 0 0 481.145 481.145;" xml:space="preserve">
<path d="M350.821,174.563v-51.151c0-0.016,0-0.032,0-0.048v-13.115c0-13.36-2.391-26.172-6.763-38.033
	c-0.121-0.392-0.27-0.778-0.441-1.158c-5.608-14.695-14.266-27.894-25.207-38.812c-0.446-0.534-0.936-1.012-1.464-1.43
	C297.117,11.744,270.192,0,240.572,0c-29.451,0-56.242,11.608-76.038,30.489c-0.473,0.383-0.916,0.812-1.322,1.291
	c-20.29,20.006-32.889,47.792-32.889,78.469v50.125c0,22.097,17.978,40.075,40.075,40.075c19.814,0,36.305-14.457,39.504-33.375
	c0.506-1.443,0.671-2.957,0.503-4.431c0.042-0.752,0.068-1.508,0.068-2.27v-50.125c0-10.844,5.766-20.365,14.392-25.664
	c0.986-0.345,1.917-0.856,2.766-1.506c3.923-1.876,8.311-2.929,12.942-2.929c4.637,0,9.031,1.056,12.958,2.936
	c0.712,0.507,1.476,0.921,2.281,1.222c8.884,5.239,14.861,14.902,14.861,25.941v53.483c0,0.016,0,0.032,0,0.048v51.151
	c0,0.016,0,0.032,0,0.048v51.152c0,0.016,0,0.032,0,0.048v51.151c0,0.016,0,0.032,0,0.048v51.152c0,0.016,0,0.032,0,0.048v51.152
	c0,0.016,0,0.032,0,0.048v21.29c0,22.097,17.978,40.075,40.075,40.075s40.075-17.978,40.075-40.075v-61.658c0-0.016,0-0.032,0-0.048
	v-51.152c0-0.016,0-0.032,0-0.048v-51.151c0-0.016,0-0.032,0-0.048v-51.152c0-0.016,0-0.032,0-0.048v-51.152
	C350.821,174.595,350.821,174.579,350.821,174.563z M309.349,51.884c5.061,5.955,9.366,12.572,12.761,19.703l-33.792,23.491
	c-2.409-7.563-6.568-14.348-12-19.885L309.349,51.884z M330.821,322.841l-40.149,26.968v-27.107l40.149-26.967V322.841z
	 M290.672,169.102l40.149-26.968v27.107l-40.149,26.968V169.102z M330.821,271.642l-40.149,26.967v-27.107l40.149-26.968V271.642z
	 M330.821,220.441l-40.149,26.968v-27.107l40.149-26.968V220.441z M330.821,110.249v7.793l-40.149,26.968V117.8l38.139-26.513
	C330.124,97.403,330.821,103.745,330.821,110.249z M290.672,373.902l40.149-26.968v27.107l-40.149,26.968V373.902z M294.47,37.905
	L258.327,63.41c-2.498-0.95-5.086-1.714-7.755-2.256V40.572c0-5.523-4.477-10-10-10s-10,4.477-10,10v20.582
	c-2.763,0.562-5.438,1.362-8.017,2.36L187.011,37.66C202.003,26.568,220.534,20,240.572,20C260.76,20,279.42,26.663,294.47,37.905z
	 M150.323,118.444v-8.196c0-5.187,0.446-10.27,1.29-15.22l38.859,23.571v26.521L150.323,118.444z M192.435,96.399l-35.012-21.237
	c3.661-8.644,8.635-16.6,14.666-23.625l32.649,23.748C199.038,81.126,194.755,88.349,192.435,96.399z M170.398,180.448
	c-11.069,0-20.075-9.005-20.075-20.075v-17.916l38.597,25.646C185.887,175.345,178.729,180.448,170.398,180.448z M310.747,461.145
	c-11.069,0-20.075-9.005-20.075-20.075v-15.968l40.149-26.968v42.936C330.821,452.139,321.816,461.145,310.747,461.145z"/>
<g>
</g>
<g>
</g>
<g>
</g>
<g>
</g>
<g>
</g>
<g>
</g>
<g>
</g>
<g>
</g>
<g>
</g>
<g>
</g>
<g>
</g>
<g>
</g>
<g>
</g>
<g>
</g>
<g>
</g>
</svg>
