<?xml version="1.0" encoding="iso-8859-1"?>
<!-- Generator: Adobe Illustrator 17.1.0, SVG Export Plug-In . SVG Version: 6.00 Build 0)  -->
<!DOCTYPE svg PUBLIC "-//W3C//DTD SVG 1.1//EN" "http://www.w3.org/Graphics/SVG/1.1/DTD/svg11.dtd">
<svg version="1.1" id="Capa_1" xmlns="http://www.w3.org/2000/svg" xmlns:xlink="http://www.w3.org/1999/xlink" x="0px" y="0px"
	 viewBox="0 0 480.801 480.801" style="enable-background:new 0 0 480.801 480.801;" xml:space="preserve">
<path d="M480.52,176.617c-2.866-41.819-28.037-80.607-71.617-109.954c-2.893-1.948-5.848-3.838-8.858-5.673
	c-1.378-1.576-3.248-2.712-5.386-3.178C351.522,33.031,297.444,19.515,240.4,19.515c-7.078,0-14.106,0.22-21.078,0.631
	c-1.104-0.113-2.227-0.054-3.323,0.206c-54.322,3.722-104.784,19.834-144.102,46.312C27.525,96.544,2.249,136.214,0.158,178.904
	C0.061,179.464,0,180.037,0,180.625v115.509c0,44.875,25.533,86.782,71.897,118.004c45.149,30.404,104.992,47.148,168.503,47.148
	s123.354-16.744,168.503-47.148c46.364-31.222,71.897-73.129,71.897-118.004v-117.2C480.801,178.135,480.697,177.362,480.52,176.617
	z M456.658,156.613c-43.618-27.286-106.381-44.042-165.632-26.437c-0.034,0.01-0.067,0.021-0.102,0.03
	c-23.45,7.238-36.999,19.584-47.783,33.011c-3.474-8.378-5.263-16.277-2.724-24.399c7.746-25.43,34.175-40.091,54.982-47.911
	c26.532-9.973,60.283-14.837,93.138-13.497c3.131,1.884,6.202,3.827,9.194,5.841C428.226,103.787,448.448,129.173,456.658,156.613z
	 M400.666,284.066c-30.085,21.042-68.816,35.642-111.153,42.063c7.074-6.688,13.349-13.83,18.64-21.283
	c12.614-17.772,18.935-36.384,18.275-53.821c-0.691-18.318-9.422-44.216-47.088-63.573c-1.418-0.728-2.852-1.437-4.296-2.133
	c12.194-1.751,24.61-2.164,37.953,0.276C375.911,198.224,402.041,243.394,400.666,284.066z M219.908,222.163
	c7.714-6.168,13.777-12.883,19.139-19.722c0.45,1.345,0.863,2.687,1.195,4.027c0.019,0.077,0.039,0.153,0.06,0.229
	c3.872,14.195,0.917,27.516-8.781,39.59c-23.071,28.724-81.45,47.646-139.595,45.436c-3.015-1.822-5.972-3.698-8.857-5.641
	c-29.07-19.576-48.799-43.563-57.691-69.533c24.578,13.755,53.796,23.847,81.969,27.982c8.932,1.311,19.003,2.228,29.71,2.228
	c26.239,0,56.261-5.516,82.433-24.276C219.632,222.379,219.771,222.273,219.908,222.163z M247.113,258.812
	c13.714-17.073,18.039-36.873,12.515-57.263c-0.125-0.503-0.277-0.994-0.413-1.492c3.769,1.659,7.46,3.375,10.991,5.187
	c23.333,11.99,35.524,27.647,36.238,46.536c0.985,26.077-20.122,56.429-53.928,77.808c-4.022,0.147-8.06,0.232-12.115,0.232
	c-39.302,0-76.992-6.765-110.12-19.464C180.524,304.935,225.466,285.764,247.113,258.812z M349.522,58.598
	c-21.941,2.166-43.052,6.782-61.159,13.587c-35.873,13.484-59.068,34.51-67.056,60.734c-3.441,11.007-2.293,21.203,0.702,30.691
	c-21.001-8.886-38.602-19.099-44.751-36.178c-9.772-28.293,5.191-57.686,44.445-87.393c6.184-0.342,12.418-0.525,18.697-0.525
	C279.309,39.515,316.636,46.144,349.522,58.598z M186.856,43.834c-35.917,36.239-36.071,68.282-28.477,90.2
	c0.012,0.033,0.023,0.066,0.036,0.1c7.893,22.021,26.968,34.835,48.874,44.845c-2.652,0.385-5.319,0.732-8.013,0.991
	c-37.568,3.854-71.345-6.133-95.103-28.109c-18.31-16.938-29.363-39.904-30.104-62.168c2.896-2.194,5.888-4.346,9-6.442
	C112.088,63.71,147.827,50.258,186.856,43.834z M55.839,105.53c4.399,22.434,16.646,44.263,34.753,61.013
	c28.035,25.934,67.354,37.767,110.661,33.33c5.345-0.514,10.533-1.272,15.61-2.169c-2.812,3.036-5.845,5.942-9.241,8.676
	c-55.815,39.791-143.069,14.188-187.473-16.643c-0.089-1.686-0.149-3.375-0.149-5.07C20,156.249,32.524,128.947,55.839,105.53z
	 M397.732,397.549c-41.884,28.204-97.759,43.737-157.332,43.737s-115.448-15.533-157.332-43.737
	C42.398,370.161,20,334.145,20,296.134v-45.065c12.139,19.098,29.601,36.588,51.897,51.603c3.496,2.354,7.09,4.616,10.757,6.805
	c0.661,0.519,1.39,0.954,2.173,1.296c43.349,25.263,97.951,39.048,155.573,39.048c77.633,0,150.824-25.812,195.786-69.046
	c3.98-3.828,4.104-10.158,0.276-14.14c-3.826-3.979-10.157-4.105-14.14-0.276c-0.751,0.723-1.531,1.428-2.3,2.14
	c-2.194-19.497-9.528-38.201-21.454-54.157c-18.408-24.628-46.668-41.355-81.725-48.374c-0.052-0.01-0.104-0.021-0.156-0.03
	c-17.793-3.269-33.971-2.261-49.342,0.336c7.428-7.081,16.502-12.942,29.426-16.938c60.362-17.912,124.997,4.064,164.013,34.509
	c0.002,0.275,0.015,0.549,0.015,0.824c0,14.152-3.121,28.146-9.276,41.594c-2.299,5.021-0.091,10.956,4.931,13.255
	c1.41,0.645,2.892,0.923,4.346,0.895v55.723C460.801,334.145,438.402,370.161,397.732,397.549z"/>
<g>
</g>
<g>
</g>
<g>
</g>
<g>
</g>
<g>
</g>
<g>
</g>
<g>
</g>
<g>
</g>
<g>
</g>
<g>
</g>
<g>
</g>
<g>
</g>
<g>
</g>
<g>
</g>
<g>
</g>
</svg>
