<?xml version="1.0" encoding="iso-8859-1"?>
<!-- Generator: Adobe Illustrator 17.1.0, SVG Export Plug-In . SVG Version: 6.00 Build 0)  -->
<!DOCTYPE svg PUBLIC "-//W3C//DTD SVG 1.1//EN" "http://www.w3.org/Graphics/SVG/1.1/DTD/svg11.dtd">
<svg version="1.1" id="Capa_1" xmlns="http://www.w3.org/2000/svg" xmlns:xlink="http://www.w3.org/1999/xlink" x="0px" y="0px"
	 viewBox="0 0 480.855 480.855" style="enable-background:new 0 0 480.855 480.855;" xml:space="preserve">
<path d="M407.712,152.283c-12.018-15.843-28.515-28.117-47.018-35.11C359.025,52.279,305.716,0,240.427,0
	C175.139,0,121.83,52.279,120.161,117.173c-18.503,6.994-35,19.268-47.018,35.11c-14.019,18.481-21.429,40.54-21.429,63.793
	c0,58.261,47.399,105.66,105.66,105.66c6.271,0,12.469-0.567,18.533-1.655l29.574,89.668c0.007,0.024,0.016,0.047,0.023,0.071
	l19.827,60.116c2.153,6.53,8.219,10.917,15.095,10.918c0,0,0,0,0,0c6.875,0,12.942-4.387,15.096-10.917l49.425-149.856
	c6.064,1.087,12.262,1.655,18.533,1.655c58.261,0,105.66-47.399,105.66-105.66C429.142,192.823,421.731,170.764,407.712,152.283z
	 M240.427,451.855L228.865,416.8h9.096c5.523,0,10-4.477,10-10s-4.477-10-10-10h-15.692l-6.069-18.4h31.427c5.523,0,10-4.477,10-10
	s-4.477-10-10-10h-38.024l-6.069-18.4h62.492c5.523,0,10-4.477,10-10s-4.477-10-10-10h-69.089l-1.749-5.303
	c17.663-6.794,33.368-18.256,45.238-33.308c11.87,15.052,27.575,26.514,45.238,33.308L240.427,451.855z M323.481,301.737
	c-30.629,0-59.129-16.529-74.378-43.137c-1.782-3.11-5.092-5.028-8.676-5.028s-6.894,1.918-8.676,5.028
	c-15.249,26.608-43.748,43.137-74.377,43.137c-47.233,0-85.66-38.427-85.66-85.66c0-33.515,19.949-63.924,49.756-77.761
	c8.717,57.825,58.74,102.298,118.958,102.298c42.815,0,82.744-23.046,104.205-60.144c2.766-4.78,1.132-10.898-3.648-13.663
	c-4.78-2.766-10.898-1.132-13.663,3.648c-17.898,30.939-51.194,50.159-86.893,50.159c-54.076,0-98.287-43.016-100.232-96.625
	c0-0.003,0-0.007,0-0.01c-0.021-0.595-0.037-1.14-0.049-1.662c-0.013-0.668-0.026-1.337-0.026-2.009
	C140.121,64.998,185.118,20,240.427,20c55.31,0,100.307,44.998,100.307,100.307c0,1.082-0.024,2.249-0.075,3.674
	c-0.163,4.561,2.782,8.653,7.158,9.947c36.107,10.678,61.324,44.459,61.324,82.149C409.142,263.31,370.715,301.737,323.481,301.737z
	"/>
<g>
</g>
<g>
</g>
<g>
</g>
<g>
</g>
<g>
</g>
<g>
</g>
<g>
</g>
<g>
</g>
<g>
</g>
<g>
</g>
<g>
</g>
<g>
</g>
<g>
</g>
<g>
</g>
<g>
</g>
</svg>
