<?xml version="1.0" encoding="iso-8859-1"?>
<!-- Generator: Adobe Illustrator 17.1.0, SVG Export Plug-In . SVG Version: 6.00 Build 0)  -->
<!DOCTYPE svg PUBLIC "-//W3C//DTD SVG 1.1//EN" "http://www.w3.org/Graphics/SVG/1.1/DTD/svg11.dtd">
<svg version="1.1" id="Capa_1" xmlns="http://www.w3.org/2000/svg" xmlns:xlink="http://www.w3.org/1999/xlink" x="0px" y="0px"
	 viewBox="0 0 480.801 480.801" style="enable-background:new 0 0 480.801 480.801;" xml:space="preserve">
<path d="M410.389,70.412C364.983,25.006,304.613,0,240.4,0S115.817,25.006,70.412,70.412C25.006,115.817,0,176.187,0,240.4
	s25.006,124.583,70.412,169.988C115.817,455.794,176.188,480.8,240.4,480.8s124.583-25.006,169.988-70.412
	c45.406-45.405,70.412-105.775,70.412-169.988S455.795,115.817,410.389,70.412z M240.4,460.8C118.871,460.8,20,361.929,20,240.4
	S118.871,20,240.4,20s220.4,98.871,220.4,220.4S361.93,460.8,240.4,460.8z M240.4,40C158.979,40,88.749,88.813,57.421,158.709
	c-0.323,0.574-0.592,1.182-0.797,1.819c-7.266,16.653-12.333,34.475-14.831,53.101c-0.007,0.057-0.018,0.111-0.024,0.168
	C40.609,222.504,40,231.382,40,240.4s0.609,17.896,1.769,26.602c0.006,0.057,0.017,0.112,0.024,0.168
	c2.498,18.627,7.565,36.448,14.831,53.101c0.206,0.637,0.474,1.245,0.797,1.819C88.749,391.987,158.979,440.8,240.4,440.8
	c110.501,0,200.4-89.899,200.4-200.4S350.901,40,240.4,40z M72.827,173.601h111.097c-9.987,8.457-18.061,19.106-23.467,31.2H63.535
	C65.7,194.025,68.829,183.594,72.827,173.601z M230.604,173.601h19.593c32.602,4.76,57.722,32.897,57.722,66.8
	s-25.12,62.039-57.722,66.8h-19.593c-32.602-4.76-57.722-32.897-57.722-66.8S198.002,178.361,230.604,173.601z M60,240.4
	c0-5.256,0.239-10.457,0.682-15.6h93.594c-0.915,5.064-1.394,10.277-1.394,15.6s0.479,10.536,1.394,15.6H60.682
	C60.239,250.857,60,245.656,60,240.4z M63.535,276h96.922c5.407,12.094,13.48,22.743,23.467,31.2H72.827
	C68.829,297.207,65.7,286.776,63.535,276z M240.4,420.8c-44.16,0-84.657-15.959-116.049-42.4h191.64c5.522,0,10-4.477,10-10
	s-4.478-10-10-10h-211.94c-8.296-9.573-15.595-20.03-21.752-31.2h146.865c3.68,0.474,7.43,0.719,11.237,0.719
	s7.557-0.246,11.237-0.719h102.755c5.522,0,10-4.477,10-10s-4.478-10-10-10h-57.515c9.987-8.457,18.061-19.106,23.467-31.2h59.647
	c5.522,0,10-4.477,10-10s-4.478-10-10-10h-53.466c0.915-5.064,1.394-10.277,1.394-15.6s-0.479-10.536-1.394-15.6h53.466
	c5.522,0,10-4.477,10-10s-4.478-10-10-10h-59.647c-5.407-12.094-13.48-22.743-23.467-31.2h57.515c5.522,0,10-4.477,10-10
	s-4.478-10-10-10H251.637c-3.68-0.474-7.43-0.719-11.237-0.719s-7.557,0.246-11.237,0.719H82.299
	c6.157-11.171,13.456-21.627,21.752-31.2h211.94c5.522,0,10-4.477,10-10s-4.478-10-10-10h-191.64C155.743,75.959,196.24,60,240.4,60
	c99.473,0,180.4,80.927,180.4,180.4S339.873,420.8,240.4,420.8z"/>
<g>
</g>
<g>
</g>
<g>
</g>
<g>
</g>
<g>
</g>
<g>
</g>
<g>
</g>
<g>
</g>
<g>
</g>
<g>
</g>
<g>
</g>
<g>
</g>
<g>
</g>
<g>
</g>
<g>
</g>
</svg>
