<?xml version="1.0" encoding="iso-8859-1"?>
<!-- Generator: Adobe Illustrator 17.1.0, SVG Export Plug-In . SVG Version: 6.00 Build 0)  -->
<!DOCTYPE svg PUBLIC "-//W3C//DTD SVG 1.1//EN" "http://www.w3.org/Graphics/SVG/1.1/DTD/svg11.dtd">
<svg version="1.1" id="Capa_1" xmlns="http://www.w3.org/2000/svg" xmlns:xlink="http://www.w3.org/1999/xlink" x="0px" y="0px"
	 viewBox="0 0 480.801 480.801" style="enable-background:new 0 0 480.801 480.801;" xml:space="preserve">
<path d="M459.291,94.475c0-0.003,0-0.005,0-0.008c0-26.91-23.948-51.415-67.434-68.998C351.24,9.045,297.451,0,240.4,0
	S129.561,9.045,88.943,25.47C45.458,43.053,21.51,67.558,21.51,94.468v62.707c0,0.338,0.018,0.671,0.051,1
	c-0.033,0.329-0.051,0.663-0.051,1c0,1.767,0.104,3.601,0.34,5.49v221.805c0,26.874,23.913,51.343,67.334,68.901
	c40.554,16.397,94.256,25.429,151.217,25.429s110.663-9.031,151.217-25.429c43.421-17.559,67.334-42.027,67.334-68.89l0.262-225.036
	c0.044-0.737,0.078-1.486,0.078-2.271c0-0.396-0.029-0.785-0.074-1.168l0.074-63.528C459.291,94.478,459.291,94.477,459.291,94.475z
	 M96.441,44.011C134.732,28.527,185.858,20,240.4,20s105.668,8.527,143.959,24.011c34.91,14.116,54.931,32.507,54.932,50.457v0.001
	c0,10.645-7.044,21.446-20.058,31.417c-5.775-17.977-24.564-34.041-54.351-46.085C331.471,66.29,287.262,58.85,240.4,58.85
	s-91.07,7.44-124.482,20.951c-29.787,12.044-48.575,28.108-54.35,46.085c-13.014-9.972-20.058-20.773-20.058-31.418
	C41.51,76.518,61.531,58.127,96.441,44.011z M384.359,144.924c-0.228,0.092-0.463,0.181-0.692,0.273
	c-5.591-13.703-20.367-25.842-42.985-34.988c-26.478-10.707-61.467-16.604-98.522-16.604c-5.522,0-10,4.478-10,10s4.478,10,10,10
	c64.319,0,113.906,19.156,122.655,38.273c-35.373,11.06-78.691,17.056-124.415,17.056c-54.542,0-105.668-8.527-143.959-24.011
	c-6.046-2.445-11.634-5.02-16.76-7.697c1.035-27.753,66.74-58.378,160.719-58.378s159.684,30.625,160.719,58.378
	C395.993,139.904,390.405,142.479,384.359,144.924z M384.119,436.83c-38.227,15.458-89.268,23.971-143.719,23.971
	s-105.492-8.513-143.719-23.971c-34.847-14.09-54.832-32.445-54.832-50.359V198.462c10.347,8.839,25.566,17.446,47.64,24.911
	c38.639,13.067,92.233,20.264,150.911,20.264c50.146,0,98.978-7.208,137.503-20.295c5.229-1.776,8.028-7.456,6.252-12.686
	s-7.453-8.03-12.686-6.252c-36.507,12.402-83.055,19.232-131.069,19.232c-109.321,0-192.71-25.762-198.551-60.545v-5.917
	c0-0.882-0.125-1.732-0.34-2.547v-19.631c11.322,10.677,27.274,20.317,47.434,28.469c40.617,16.424,94.406,25.469,151.457,25.469
	s110.84-9.045,151.457-25.469c20.132-8.141,36.067-17.767,47.386-28.426l-0.03,25.983c-0.305,2.952-1.785,4.346-8.367,9.377
	c-2.54,1.94-5.419,4.141-8.651,6.937c-4.177,3.613-4.634,9.929-1.021,14.105c1.979,2.286,4.765,3.458,7.567,3.458
	c2.318,0,4.647-0.802,6.538-2.437c1.357-1.174,2.649-2.23,3.901-3.223l-0.229,197.23C438.951,404.385,418.966,422.74,384.119,436.83
	z"/>
<g>
</g>
<g>
</g>
<g>
</g>
<g>
</g>
<g>
</g>
<g>
</g>
<g>
</g>
<g>
</g>
<g>
</g>
<g>
</g>
<g>
</g>
<g>
</g>
<g>
</g>
<g>
</g>
<g>
</g>
</svg>
