<?xml version="1.0" encoding="iso-8859-1"?>
<!-- Generator: Adobe Illustrator 17.1.0, SVG Export Plug-In . SVG Version: 6.00 Build 0)  -->
<!DOCTYPE svg PUBLIC "-//W3C//DTD SVG 1.1//EN" "http://www.w3.org/Graphics/SVG/1.1/DTD/svg11.dtd">
<svg version="1.1" id="Capa_1" xmlns="http://www.w3.org/2000/svg" xmlns:xlink="http://www.w3.org/1999/xlink" x="0px" y="0px"
	 viewBox="0 0 481.388 481.388" style="enable-background:new 0 0 481.388 481.388;" xml:space="preserve">
<path d="M296.605,170.754c0-14.803-11.163-27.743-28.792-33.831c-2.776-12.649-14.063-22.147-27.534-22.147
	c-13.471,0-24.758,9.498-27.534,22.148c-17.602,6.095-28.792,19.1-28.792,33.831v16.982c0,5.523,4.477,10,10,10h68.972
	c5.522,0,10-4.477,10-10s-4.478-10-10-10h-58.972v-6.982c0-5.059,4.72-10.229,11.987-13.581c4.897,8.359,13.97,13.989,24.339,13.989
	c10.367,0,19.439-5.629,24.337-13.986c7.28,3.345,11.989,8.481,11.989,13.578c0,5.523,4.478,10,10,10
	S296.605,176.277,296.605,170.754z M240.279,151.162c-4.518,0-8.193-3.675-8.193-8.193s3.675-8.193,8.193-8.193
	c4.518,0,8.193,3.675,8.193,8.193S244.797,151.162,240.279,151.162z M348.307,322.279c32.405,0,58.769-26.364,58.769-58.769
	s-26.363-58.769-58.769-58.769c-7.979,0-15.767,1.6-22.987,4.672c19.676-21.266,30.966-49.431,30.966-78.873
	c0-4.734-0.299-9.431-0.86-14.077c21.938-9.48,36.627-31.277,36.627-55.741C392.052,27.24,364.812,0,331.33,0
	c-17.832,0-34.587,7.794-46.06,21.148c-10.427-2.356-31.178-6.614-44.991-6.614c-14.212,0-36.014,4.327-46.741,6.662
	C182.064,7.814,165.29,0,147.438,0c-33.482,0-60.722,27.24-60.722,60.723c0,25.091,15.449,47.38,38.325,56.449
	c-0.506,4.414-0.768,8.876-0.768,13.369c0,29.494,10.866,57.082,30.346,78.278c-6.808-2.683-14.09-4.076-21.537-4.076
	c-32.405,0-58.769,26.363-58.769,58.769s26.364,58.769,58.769,58.769c1.77,0,3.519-0.093,5.25-0.247v52.482
	c-15.557,10.936-25.004,28.864-25.004,48.105c0,32.405,26.364,58.769,58.769,58.769c28.995,0,53.137-21.112,57.9-48.769h20.752
	c4.763,27.656,28.906,48.769,57.901,48.769c32.405,0,58.769-26.363,58.769-58.769c0-20.042-10.252-38.657-26.98-49.431v-51.451
	C343.014,322.084,345.637,322.279,348.307,322.279z M323.86,385.183c0.867,1.443,2.104,2.689,3.679,3.57
	c12.262,6.858,19.879,19.835,19.879,33.866c0,21.377-17.392,38.769-38.769,38.769c-21.378,0-38.77-17.392-38.77-38.769
	c0-9.326,3.358-18.337,9.456-25.374c3.616-4.174,3.165-10.489-1.009-14.106c-4.173-3.617-10.489-3.166-14.106,1.008
	c-7.042,8.126-11.666,17.989-13.476,28.472H230c-1.81-10.483-6.434-20.345-13.475-28.471c-3.616-4.174-9.932-4.625-14.106-1.009
	c-4.174,3.617-4.626,9.932-1.009,14.106c6.098,7.038,9.456,16.049,9.456,25.375c0,21.377-17.392,38.769-38.769,38.769
	s-38.769-17.392-38.769-38.769c0-13.962,7.546-26.874,19.701-33.758c0.95-0.506,1.804-1.165,2.539-1.937
	c0.017-0.018,0.033-0.037,0.051-0.056c0.205-0.218,0.4-0.445,0.585-0.681c0.018-0.022,0.034-0.046,0.051-0.068
	c0.182-0.237,0.354-0.481,0.515-0.734c0.008-0.013,0.016-0.026,0.024-0.039c0.666-1.058,1.139-2.247,1.369-3.523
	c0.004-0.021,0.006-0.042,0.01-0.063c0.05-0.287,0.091-0.576,0.116-0.87c0.006-0.071,0.006-0.142,0.011-0.213
	c0.014-0.213,0.032-0.425,0.032-0.642v-63.466c19.803-9.462,33.519-29.687,33.519-53.058c0-5.523-4.477-10-10-10s-10,4.477-10,10
	c0,21.377-17.392,38.769-38.769,38.769s-38.769-17.392-38.769-38.769c0-21.377,17.392-38.769,38.769-38.769
	c7.77,0,15.263,2.288,21.669,6.615c2.625,1.775,5.787,2.128,8.592,1.249c1.401,0.698,2.928,1.057,4.46,1.057
	c2.532,0,5.066-0.956,7.013-2.872l3.592-3.535c17.394,7.919,36.457,12.086,55.579,12.086h24.461c5.522,0,10-4.477,10-10
	s-4.478-10-10-10h-24.461c-18.082,0-36.102-4.38-52.179-12.658c-23.862-18.344-37.535-46.044-37.535-76.143
	c0-19.339,5.722-37.979,16.547-53.902c3.105-4.567,1.919-10.787-2.648-13.892c-4.566-3.105-10.788-1.92-13.892,2.648
	c-6.684,9.832-11.748,20.521-15.114,31.736c-13.536-6.796-22.45-20.794-22.45-36.408c0-22.455,18.268-40.723,40.722-40.723
	c13.55,0,26.176,6.714,33.774,17.961c2.333,3.453,6.561,5.099,10.614,4.127c0.316-0.075,31.769-7.554,48.454-7.554
	c16.228,0,46.265,7.456,46.565,7.531c4.079,1.018,8.357-0.621,10.711-4.104C305.154,26.714,317.78,20,331.33,20
	c22.454,0,40.723,18.268,40.723,40.723c0,15.01-8.237,28.527-20.899,35.588c-3.365-10.917-8.353-21.323-14.874-30.917
	c-3.106-4.567-9.324-5.752-13.893-2.648c-4.567,3.105-5.753,9.325-2.648,13.892c10.826,15.924,16.548,34.563,16.548,53.902
	c0,30.894-15.018,60.094-40.172,78.11c-2.734,1.959-4.301,5.161-4.169,8.522c0.132,3.361,1.945,6.431,4.825,8.169l11.401,6.881
	c1.616,0.976,3.397,1.44,5.157,1.44c1.586,0,3.149-0.392,4.561-1.113c2.843,0.942,6.074,0.612,8.747-1.194
	c6.406-4.328,13.899-6.615,21.67-6.615c21.377,0,38.769,17.392,38.769,38.769c0,21.377-17.392,38.769-38.769,38.769
	s-38.769-17.392-38.769-38.769c0-5.523-4.478-10-10-10s-10,4.477-10,10c0,22.326,12.516,41.782,30.898,51.727v62.426
	C320.437,380.665,321.766,383.35,323.86,385.183z M191.286,123.823c-8.986,0-16.27-7.284-16.27-16.27s7.284-16.27,16.27-16.27
	c8.985,0,16.27,7.284,16.27,16.27S200.271,123.823,191.286,123.823z M272.446,107.554c0-8.985,7.284-16.27,16.27-16.27
	c8.985,0,16.27,7.284,16.27,16.27s-7.284,16.27-16.27,16.27C279.731,123.823,272.446,116.539,272.446,107.554z"/>
<g>
</g>
<g>
</g>
<g>
</g>
<g>
</g>
<g>
</g>
<g>
</g>
<g>
</g>
<g>
</g>
<g>
</g>
<g>
</g>
<g>
</g>
<g>
</g>
<g>
</g>
<g>
</g>
<g>
</g>
</svg>
