<?xml version="1.0" encoding="iso-8859-1"?>
<!-- Generator: Adobe Illustrator 17.1.0, SVG Export Plug-In . SVG Version: 6.00 Build 0)  -->
<!DOCTYPE svg PUBLIC "-//W3C//DTD SVG 1.1//EN" "http://www.w3.org/Graphics/SVG/1.1/DTD/svg11.dtd">
<svg version="1.1" id="Capa_1" xmlns="http://www.w3.org/2000/svg" xmlns:xlink="http://www.w3.org/1999/xlink" x="0px" y="0px"
	 viewBox="0 0 480.801 480.801" style="enable-background:new 0 0 480.801 480.801;" xml:space="preserve">
<path d="M406.337,426.831L302.961,47.784C295.288,19.649,269.561,0,240.4,0c-29.162,0-54.888,19.649-62.561,47.784L74.463,426.831
	c-3.533,12.955-0.885,26.506,7.266,37.178c8.151,10.672,20.527,16.792,33.956,16.792h249.431c13.429,0,25.805-6.12,33.955-16.792
	C407.223,453.337,409.871,439.785,406.337,426.831z M383.178,451.869c-4.336,5.676-10.919,8.932-18.062,8.932H115.685
	c-7.143,0-13.726-3.256-18.061-8.932c-4.336-5.677-5.745-12.885-3.866-19.776l11.825-43.359H346.4c5.522,0,10-4.478,10-10
	s-4.478-10-10-10H111.038L174.729,135.2H274.4c5.522,0,10-4.478,10-10s-4.478-10-10-10h-94.217l16.951-62.154
	C202.441,33.589,220.232,20,240.4,20c20.167,0,37.959,13.589,43.266,33.046l103.376,379.048
	C388.922,438.984,387.513,446.192,383.178,451.869z M250.4,167.395v179.2c0,5.522-4.478,10-10,10c-5.523,0-10-4.478-10-10v-179.2
	c0-5.522,4.477-10,10-10C245.923,157.395,250.4,161.872,250.4,167.395z M198.978,169.49l-38.4,179.2
	c-1.006,4.693-5.154,7.906-9.768,7.906c-0.694,0-1.399-0.072-2.105-0.224c-5.4-1.157-8.84-6.474-7.683-11.874l38.4-179.2
	c1.157-5.399,6.477-8.843,11.873-7.683C196.696,158.773,200.135,164.09,198.978,169.49z M339.778,344.499
	c1.157,5.4-2.283,10.717-7.683,11.874c-0.706,0.151-1.411,0.224-2.105,0.224c-4.614,0-8.763-3.213-9.769-7.906l-38.399-179.2
	c-1.157-5.4,2.283-10.717,7.683-11.874c5.399-1.16,10.717,2.283,11.874,7.683L339.778,344.499z"/>
<g>
</g>
<g>
</g>
<g>
</g>
<g>
</g>
<g>
</g>
<g>
</g>
<g>
</g>
<g>
</g>
<g>
</g>
<g>
</g>
<g>
</g>
<g>
</g>
<g>
</g>
<g>
</g>
<g>
</g>
</svg>
