<?xml version="1.0" encoding="iso-8859-1"?>
<!-- Generator: Adobe Illustrator 17.1.0, SVG Export Plug-In . SVG Version: 6.00 Build 0)  -->
<!DOCTYPE svg PUBLIC "-//W3C//DTD SVG 1.1//EN" "http://www.w3.org/Graphics/SVG/1.1/DTD/svg11.dtd">
<svg version="1.1" id="Capa_1" xmlns="http://www.w3.org/2000/svg" xmlns:xlink="http://www.w3.org/1999/xlink" x="0px" y="0px"
	 viewBox="0 0 480.801 480.801" style="enable-background:new 0 0 480.801 480.801;" xml:space="preserve">
<path d="M414.819,142.121c-0.05-0.076-0.101-0.152-0.153-0.227c-1.674-2.445-3.398-4.857-5.177-7.23l-6.348-8.463
	c1.29-3.056,1.942-6.238,1.942-9.546V54.782c0-17.296-17.672-31.181-52.524-41.271C322.464,4.798,282.632,0,240.4,0
	s-82.063,4.798-112.158,13.511C93.39,23.602,75.718,37.486,75.718,54.782v61.872c0,3.308,0.652,6.49,1.942,9.546l-6.348,8.463
	c-1.781,2.375-3.506,4.79-5.182,7.237c-0.049,0.07-0.096,0.141-0.143,0.213c-23.703,34.722-36.674,76.462-36.674,118.546v10.152
	c0,55.43,21.353,107.76,60.125,147.351c38.87,39.69,90.735,61.925,146.041,62.606c1.628,0.021,3.269,0.031,4.922,0.031
	s3.293-0.011,4.922-0.031c55.306-0.682,107.17-22.916,146.041-62.606c38.772-39.591,60.125-91.921,60.125-147.351V260.66
	C451.487,218.579,438.519,176.842,414.819,142.121z M164.743,186.035c-5.455-0.872-10.583,2.84-11.455,8.293
	c-0.01,0.063-0.012,0.126-0.021,0.189c-0.136,0.657-0.208,1.338-0.208,2.036v81.707c0,7.279-5.922,13.202-13.202,13.202
	s-13.202-5.923-13.202-13.202v-93.587c0-0.065-0.009-0.128-0.01-0.193c-0.004-0.225-0.014-0.448-0.034-0.671
	c-0.011-0.126-0.026-0.25-0.041-0.374c-0.024-0.19-0.052-0.379-0.086-0.566c-0.028-0.154-0.06-0.305-0.095-0.456
	c-0.036-0.153-0.074-0.305-0.117-0.456c-0.049-0.173-0.102-0.344-0.16-0.514c-0.044-0.128-0.09-0.255-0.139-0.381
	c-0.069-0.178-0.142-0.354-0.221-0.527c-0.054-0.119-0.111-0.235-0.169-0.352c-0.085-0.168-0.173-0.334-0.267-0.496
	c-0.069-0.121-0.142-0.239-0.217-0.357c-0.093-0.147-0.189-0.292-0.29-0.434c-0.09-0.127-0.184-0.251-0.28-0.375
	c-0.097-0.124-0.196-0.247-0.299-0.366c-0.11-0.129-0.225-0.253-0.342-0.376c-0.103-0.108-0.207-0.213-0.314-0.316
	c-0.125-0.12-0.252-0.235-0.384-0.349c-0.116-0.1-0.234-0.198-0.354-0.293c-0.127-0.1-0.257-0.197-0.39-0.292
	c-0.142-0.101-0.287-0.198-0.434-0.292c-0.117-0.074-0.235-0.147-0.356-0.216c-0.18-0.104-0.363-0.201-0.55-0.294
	c-0.098-0.049-0.196-0.097-0.296-0.142c-0.218-0.1-0.44-0.19-0.666-0.274c-0.052-0.019-0.1-0.044-0.153-0.063
	c-18.722-6.623-31.836-19.398-34.938-25.506c0.742-1.033,1.495-2.06,2.259-3.078l3.785-5.047
	c8.714,6.214,21.105,11.664,37.146,16.308c30.094,8.713,69.926,13.511,112.158,13.511s82.063-4.798,112.158-13.511
	c16.04-4.644,28.431-10.094,37.146-16.308l3.785,5.047c0.789,1.052,1.565,2.112,2.331,3.179
	c-2.797,5.648-15.213,15.651-42.502,24.894c-31.756,10.756-72.913,16.925-112.917,16.925
	C213.894,191.662,187.732,189.716,164.743,186.035z M133.805,32.722C162.142,24.518,199.998,20,240.4,20
	s78.259,4.518,106.596,12.722c27.943,8.09,38.086,17.625,38.086,22.061v61.872c0,4.436-10.143,13.971-38.086,22.061
	c-28.337,8.203-66.193,12.722-106.596,12.722s-78.259-4.519-106.596-12.722c-27.943-8.09-38.086-17.625-38.086-22.061V82.762
	c8.29,4.975,19.134,9.414,32.524,13.291c30.094,8.713,69.926,13.511,112.158,13.511c34.486,0,67.313-3.175,94.934-9.182
	c5.397-1.174,8.82-6.5,7.646-11.896c-1.173-5.396-6.498-8.826-11.896-7.646c-26.247,5.708-57.604,8.725-90.684,8.725
	c-40.402,0-78.259-4.518-106.596-12.722c-27.943-8.09-38.086-17.625-38.086-22.06C95.718,50.347,105.861,40.812,133.805,32.722z
	 M431.487,270.813c0,103.477-83.624,188.691-186.411,189.959c-3.095,0.037-6.257,0.037-9.352,0
	c-102.788-1.268-186.411-86.482-186.411-189.959V260.66c0-32.38,8.491-64.532,24.218-92.749c8.084,9.427,20.503,17.98,33.123,23.542
	v86.807c0,18.308,14.895,33.202,33.202,33.202s33.202-14.895,33.202-33.202v-70.815c21.061,2.764,44.093,4.217,67.341,4.217
	c67.499,0,141.242-17.291,166.757-43.951c15.799,28.265,24.33,60.492,24.33,92.949V270.813z M385.115,278.429
	c-1.786-3.094-5.087-5-8.66-5h-44.129c-3.573,0-6.874,1.906-8.66,5l-19.178,33.217h-38.447c-3.573,0-6.874,1.906-8.66,5
	l-22.064,38.217c-1.787,3.094-1.787,6.906,0,10l22.064,38.217c1.786,3.094,5.087,5,8.66,5h44.129c3.573,0,6.874-1.906,8.66-5
	l19.178-33.217h38.447c3.573,0,6.874-1.906,8.66-5l22.064-38.217c1.787-3.094,1.787-6.906,0-10L385.115,278.429z M304.396,388.079
	h-32.582l-16.291-28.217l16.291-28.217h32.582l16.291,28.217L304.396,388.079z M370.682,349.862H338.1l-16.291-28.217l16.291-28.217
	h32.582l16.291,28.217L370.682,349.862z"/>
<g>
</g>
<g>
</g>
<g>
</g>
<g>
</g>
<g>
</g>
<g>
</g>
<g>
</g>
<g>
</g>
<g>
</g>
<g>
</g>
<g>
</g>
<g>
</g>
<g>
</g>
<g>
</g>
<g>
</g>
</svg>
