<?xml version="1.0" encoding="iso-8859-1"?>
<!-- Generator: Adobe Illustrator 17.1.0, SVG Export Plug-In . SVG Version: 6.00 Build 0)  -->
<!DOCTYPE svg PUBLIC "-//W3C//DTD SVG 1.1//EN" "http://www.w3.org/Graphics/SVG/1.1/DTD/svg11.dtd">
<svg version="1.1" id="Capa_1" xmlns="http://www.w3.org/2000/svg" xmlns:xlink="http://www.w3.org/1999/xlink" x="0px" y="0px"
	 viewBox="0 0 474.59 474.59" style="enable-background:new 0 0 474.59 474.59;" xml:space="preserve">
<path d="M237.295,0c-55.773,0-101.148,45.375-101.148,101.148v204.847c0,16.542,13.458,30,30,30c0.007,0,0.015,0,0.021,0
	l34.112-0.074v101.653c0,20.41,16.604,37.015,37.015,37.015s37.015-16.605,37.015-37.015V335.761l34.134-0.074
	c16.542,0,30-13.458,30-30V101.148C338.443,45.375,293.068,0,237.295,0z M254.31,437.575c0,9.382-7.633,17.015-17.015,17.015
	s-17.015-7.633-17.015-17.015V335.878l34.029-0.074V437.575z M318.443,305.688c0,5.514-4.486,10-10.021,10l-142.291,0.308
	c-5.507-0.009-9.984-4.491-9.984-10v-30.552h128.697c5.523,0,10-4.477,10-10s-4.477-10-10-10H156.146V101.148
	c0-44.746,36.403-81.148,81.148-81.148s81.148,36.403,81.148,81.148V305.688z"/>
<g>
</g>
<g>
</g>
<g>
</g>
<g>
</g>
<g>
</g>
<g>
</g>
<g>
</g>
<g>
</g>
<g>
</g>
<g>
</g>
<g>
</g>
<g>
</g>
<g>
</g>
<g>
</g>
<g>
</g>
</svg>
