<?xml version="1.0" encoding="iso-8859-1"?>
<!-- Generator: Adobe Illustrator 17.1.0, SVG Export Plug-In . SVG Version: 6.00 Build 0)  -->
<!DOCTYPE svg PUBLIC "-//W3C//DTD SVG 1.1//EN" "http://www.w3.org/Graphics/SVG/1.1/DTD/svg11.dtd">
<svg version="1.1" id="Capa_1" xmlns="http://www.w3.org/2000/svg" xmlns:xlink="http://www.w3.org/1999/xlink" x="0px" y="0px"
	 viewBox="0 0 480.801 480.801" style="enable-background:new 0 0 480.801 480.801;" xml:space="preserve">
<path d="M461.693,303.279c0-0.628-0.06-1.254-0.177-1.871L414.702,55.631c-0.78-17.336-19.386-31.313-55.359-41.55
	C327.438,5.001,285.196,0,240.4,0c-13.348,0-26.465,0.448-39.153,1.311c-0.607-0.07-1.227-0.092-1.858-0.047
	c-40.815,2.94-83.393,10.845-109.142,24.84c-0.192,0.103-0.382,0.207-0.572,0.311c-0.227,0.125-0.453,0.251-0.677,0.378
	c-13.835,7.698-21.453,16.673-22.737,26.849c-0.005,0.037-0.006,0.074-0.011,0.11c-0.057,0.472-0.107,0.945-0.137,1.422
	c-0.01,0.154-0.009,0.31-0.016,0.464l-46.813,245.77c-0.118,0.617-0.177,1.243-0.177,1.871c0,15.322,16.046,27.542,49.055,37.357
	c4.995,1.485,10.319,2.896,15.933,4.233c-21.415,14.179-32.919,31.279-32.919,49.601c0,24.651,20.802,47.086,58.575,63.174
	c35.062,14.933,81.46,23.156,130.648,23.156c49.188,0,95.587-8.224,130.648-23.156c37.772-16.088,58.575-38.522,58.575-63.174
	c0-18.205-11.373-35.216-32.544-49.348c5.701-1.357,11.089-2.795,16.136-4.31C445.836,331.02,461.693,318.742,461.693,303.279z
	 M409.624,394.471c0,15.892-16.916,32.211-46.412,44.772c-32.64,13.901-76.256,21.558-122.812,21.558
	c-46.556,0-90.171-7.656-122.812-21.558c-29.495-12.562-46.412-28.881-46.412-44.772c0-15.37,15.837-31.15,43.573-43.535
	c18.356,3.004,38.719,5.363,60.579,6.98c5.622,0.417,10.997-0.84,15.623-3.358c2.835,4.39,6.615,8.411,11.285,11.899
	c10.312,7.702,23.865,11.943,38.164,11.943c5.522,0,10-4.478,10-10s-4.478-10-10-10c-18.376,0-34.019-10.016-35.399-22.24
	c0.226-0.961,0.407-1.942,0.534-2.943l12.491-98.397c1.457-11.207,11.079-19.659,22.381-19.659c11.295,0,20.917,8.446,22.378,19.646
	l12.864,98.564c1.852,14.185,13.991,24.678,28.094,24.678c0.669,0,1.343-0.023,2.021-0.072c21.961-1.555,42.383-3.864,60.743-6.836
	C393.954,363.493,409.624,379.198,409.624,394.471z M304.352,338.028c-4.39,0.3-8.297-2.87-8.868-7.244l-12.864-98.564
	c-2.758-21.127-20.904-37.059-42.211-37.059c-21.317,0-39.465,15.941-42.218,37.11l-12.457,98.131
	c-0.38,0.866-0.637,1.797-0.757,2.771c-1.427,3.06-4.629,5.05-8.171,4.797c-40.725-3.014-77.284-8.875-102.942-16.505
	c-29.049-8.638-33.913-16.214-34.638-17.857L81.44,81.978c9.227,6.677,22.579,12.52,40.018,17.483
	c31.905,9.08,74.146,14.081,118.942,14.081c48.614,0,94.974-6.05,127.191-16.599c5.249-1.719,8.11-7.367,6.393-12.615
	c-1.72-5.25-7.366-8.109-12.615-6.393c-30.291,9.918-74.383,15.606-120.969,15.606c-42.997,0-83.293-4.729-113.468-13.317
	c-32.329-9.201-40.871-19.365-40.871-23.454c0-1.869,1.796-5.01,6.822-8.746c4.55-3.319,11.433-6.934,20.817-10.437
	c3.891-1.429,8.279-2.861,13.231-4.271C157.107,24.729,197.404,20,240.4,20c42.996,0,83.293,4.729,113.468,13.317
	c32.329,9.2,40.871,19.364,40.871,23.453c0,0.115,0.013,0.226,0.017,0.34c0.007,0.199,0.011,0.397,0.03,0.598
	c0.02,0.209,0.053,0.413,0.086,0.618c0.017,0.105,0.024,0.21,0.044,0.316l0.022,0.117c0.003,0.014,0.005,0.029,0.008,0.043
	l46.654,244.935c-0.841,2.405-7.724,9.991-34.136,17.921C381.977,329.31,345.357,335.123,304.352,338.028z"/>
<g>
</g>
<g>
</g>
<g>
</g>
<g>
</g>
<g>
</g>
<g>
</g>
<g>
</g>
<g>
</g>
<g>
</g>
<g>
</g>
<g>
</g>
<g>
</g>
<g>
</g>
<g>
</g>
<g>
</g>
</svg>
