<?xml version="1.0" encoding="iso-8859-1"?>
<!-- Generator: Adobe Illustrator 17.1.0, SVG Export Plug-In . SVG Version: 6.00 Build 0)  -->
<!DOCTYPE svg PUBLIC "-//W3C//DTD SVG 1.1//EN" "http://www.w3.org/Graphics/SVG/1.1/DTD/svg11.dtd">
<svg version="1.1" id="Capa_1" xmlns="http://www.w3.org/2000/svg" xmlns:xlink="http://www.w3.org/1999/xlink" x="0px" y="0px"
	 viewBox="0 0 480.881 480.881" style="enable-background:new 0 0 480.881 480.881;" xml:space="preserve">
<path d="M311.744,109.129c0-4.923-1.81-9.687-4.964-13.386c2.747-3.423,4.401-7.757,4.401-12.475V67.445
	c0-4.534-1.571-8.906-4.334-12.401c2.705-3.41,4.334-7.709,4.334-12.387V19.974C311.181,8.96,302.221,0,291.207,0h-30.75
	c-6.589,0-12.426,3.034-16.09,8.073L238.71,3.9c-3.458-2.552-7.559-3.9-11.857-3.9h-18.29c-7.864,0-14.675,4.36-17.975,11.282
	c-0.084-0.001-0.167-0.01-0.251-0.01c-11.379,0-20.638,9.247-20.638,20.612v34.338c0,4.663,1.625,9.186,4.478,12.796
	c-3.132,3.615-5.041,8.314-5.041,13.458v14.378c0,4.965,1.842,9.769,5.047,13.482c-3.135,3.616-5.047,8.317-5.047,13.464v34.338
	c0,4.845,1.751,9.539,4.814,13.213c-3.001,3.58-4.814,8.185-4.814,13.208v14.378c0,4.905,1.797,9.653,4.93,13.347
	c-3.068,3.598-4.93,8.251-4.93,13.336v34.339c0,4.929,1.815,9.7,4.977,13.401c-3.095,3.606-4.977,8.277-4.977,13.388v14.378
	c0,4.912,1.802,9.668,4.945,13.364c-3.076,3.601-4.945,8.259-4.945,13.352v34.338c0,4.676,1.633,9.211,4.499,12.825
	c-2.809,3.443-4.499,7.83-4.499,12.607v15.823c0,4.534,1.571,8.906,4.334,12.401c-2.705,3.41-4.334,7.709-4.334,12.387v22.683
	c0,11.014,8.96,19.974,19.974,19.974h30.75c6.589,0,12.426-3.034,16.09-8.073l5.656,4.173c3.458,2.552,7.559,3.9,11.857,3.9h18.29
	c7.714,0,14.418-4.191,17.787-10.883c0.334,0.016,0.666,0.041,1.003,0.041c11.379,0,20.638-9.247,20.638-20.612v-34.338
	c0-4.911-1.802-9.667-4.945-13.364c3.076-3.601,4.945-8.259,4.945-13.352v-14.378c0-4.928-1.815-9.699-4.977-13.401
	c3.095-3.606,4.977-8.278,4.977-13.388v-34.338c0-4.905-1.797-9.654-4.93-13.348c3.068-3.598,4.93-8.251,4.93-13.336v-14.378
	c0-4.845-1.751-9.539-4.814-13.213c3.001-3.58,4.814-8.185,4.814-13.208v-34.339c0-4.964-1.842-9.769-5.047-13.482
	c3.135-3.616,5.047-8.317,5.047-13.464v-14.378c0-4.663-1.625-9.186-4.478-12.796c3.132-3.615,5.041-8.314,5.041-13.458V109.129z
	 M291.181,449.427c0,0.595-0.631,0.612-0.638,0.612c-0.049,0-0.13,0-0.314-0.141l-6.329-4.847c0,0-0.001-0.001-0.001-0.001
	l-12.087-9.257l-82.443-63.141c-0.145-0.111-0.231-0.286-0.231-0.469v-34.338c0-0.595,0.631-0.612,0.637-0.612
	c0.049,0,0.13,0,0.314,0.142l100.86,77.245c0.146,0.112,0.233,0.288,0.233,0.471V449.427z M189.7,31.884
	c0-0.595,0.631-0.612,0.638-0.612c0.049,0,0.13,0,0.314,0.141l5.742,4.398c0.009,0.007,0.016,0.014,0.025,0.021l82.643,63.294
	c0.005,0.004,0.011,0.008,0.017,0.012l12.434,9.523c0.145,0.111,0.231,0.286,0.231,0.469v34.338c0,0.595-0.631,0.612-0.637,0.612
	c-0.049,0-0.13,0-0.314-0.142l-100.86-77.245c-0.146-0.112-0.233-0.288-0.233-0.471V31.884z M291.181,245.385
	c0,0.394-0.274,0.532-0.463,0.582l-88.468-67.755c-0.773-0.592-1.582-1.111-2.411-1.583l-10.47-8.019
	c-0.145-0.111-0.232-0.288-0.232-0.471V133.8c0-0.595,0.631-0.612,0.637-0.612c0.049,0,0.13,0,0.314,0.142l100.86,77.245
	c0.146,0.112,0.233,0.288,0.233,0.471V245.385z M291.181,388.373c0,0.595-0.631,0.612-0.638,0.612c-0.049,0-0.13,0-0.314-0.141
	l-100.86-77.246c-0.145-0.111-0.232-0.287-0.232-0.47v-14.378c0-0.595,0.631-0.612,0.637-0.612c0.049,0,0.13,0,0.314,0.142
	l100.86,77.245c0.146,0.112,0.233,0.288,0.233,0.471V388.373z M291.181,347.206c0,0.595-0.631,0.612-0.638,0.612
	c-0.048,0-0.13,0-0.314-0.142l-100.86-77.246c-0.145-0.111-0.232-0.287-0.232-0.47v-34.339c0-0.595,0.631-0.611,0.638-0.611
	c0.048,0,0.129,0,0.314,0.141l100.861,77.247c0.145,0.111,0.232,0.287,0.232,0.47V347.206z M291.181,286.184
	c0,0.595-0.631,0.611-0.638,0.611c-0.049,0-0.13,0-0.314-0.141l-30.59-23.428l-57.39-43.953c-0.001-0.001-0.003-0.002-0.005-0.003
	l-12.876-9.862c-0.145-0.111-0.232-0.287-0.232-0.47V194.56c0-0.393,0.274-0.532,0.463-0.582l88.469,67.756
	c0.772,0.591,1.579,1.109,2.407,1.581l10.474,8.022c0.145,0.111,0.232,0.287,0.232,0.47V286.184z M291.181,184.1
	c0,0.595-0.631,0.612-0.638,0.612c-0.048,0-0.13,0-0.314-0.142l-100.86-77.246c-0.145-0.111-0.232-0.287-0.232-0.47V92.476
	c0-0.595,0.631-0.612,0.637-0.612c0.049,0,0.13,0,0.314,0.142l100.86,77.245c0.146,0.112,0.233,0.288,0.233,0.471V184.1z
	 M291.181,19.974l-0.003,22.629L260.536,20L291.181,19.974z M248.521,35.985c0.027,0.02,0.051,0.042,0.078,0.063l30.75,22.683
	c0.06,0.044,0.123,0.081,0.183,0.124l11.648,8.59l-0.004,15.766L208.643,20l18.195-0.005L248.521,35.985z M189.137,460.907
	l0.003-22.629l30.641,22.603L189.137,460.907z M231.794,444.894c-0.026-0.02-0.05-0.041-0.076-0.061l-30.75-22.683
	c-0.06-0.044-0.123-0.081-0.184-0.125l-11.647-8.589l0.004-15.767l24.443,18.72l58.094,44.493l-18.197,0.005L231.794,444.894z"/>
<g>
</g>
<g>
</g>
<g>
</g>
<g>
</g>
<g>
</g>
<g>
</g>
<g>
</g>
<g>
</g>
<g>
</g>
<g>
</g>
<g>
</g>
<g>
</g>
<g>
</g>
<g>
</g>
<g>
</g>
</svg>
