<?xml version="1.0" encoding="iso-8859-1"?>
<!-- Generator: Adobe Illustrator 17.1.0, SVG Export Plug-In . SVG Version: 6.00 Build 0)  -->
<!DOCTYPE svg PUBLIC "-//W3C//DTD SVG 1.1//EN" "http://www.w3.org/Graphics/SVG/1.1/DTD/svg11.dtd">
<svg version="1.1" id="Capa_1" xmlns="http://www.w3.org/2000/svg" xmlns:xlink="http://www.w3.org/1999/xlink" x="0px" y="0px"
	 viewBox="0 0 482.969 482.969" style="enable-background:new 0 0 482.969 482.969;" xml:space="preserve">
<path d="M251.485,22.036V10c0-5.523-4.478-10-10-10s-10,4.477-10,10v12.036c-42.873,1.626-85.47,13.764-85.47,38.299
	c0,0.579,0.032,1.149,0.079,1.714c-0.047,0.395-0.079,0.795-0.079,1.203v150.828c0,24.535,42.597,36.673,85.47,38.299v220.592
	c0,5.523,4.478,10,10,10s10-4.477,10-10V252.378c42.873-1.626,85.47-13.764,85.47-38.299V60.334
	C336.954,35.8,294.358,23.662,251.485,22.036z M297.192,225.246c-14.982,4.723-34.767,7.323-55.707,7.323
	s-40.725-2.601-55.707-7.323c-15.476-4.878-19.579-10.16-19.763-11.167V85.123c18.654,9.306,47.699,13.701,75.47,13.701
	c13.201,0,25.932-0.945,37.837-2.808c5.457-0.854,9.188-5.97,8.334-11.426c-0.854-5.456-5.966-9.181-11.426-8.333
	c-10.887,1.704-22.576,2.568-34.745,2.568c-20.94,0-40.724-2.601-55.706-7.323c-15.476-4.878-19.58-10.16-19.767-11.128
	c0.187-1.046,4.29-6.328,19.766-11.206c12.571-3.963,28.528-6.424,45.707-7.116v18.283c0,5.523,4.478,10,10,10s10-4.477,10-10
	V42.052c17.179,0.692,33.136,3.153,45.707,7.116c15.476,4.878,19.579,10.16,19.763,11.167l0.003,153.706
	C316.771,215.086,312.667,220.368,297.192,225.246z"/>
<g>
</g>
<g>
</g>
<g>
</g>
<g>
</g>
<g>
</g>
<g>
</g>
<g>
</g>
<g>
</g>
<g>
</g>
<g>
</g>
<g>
</g>
<g>
</g>
<g>
</g>
<g>
</g>
<g>
</g>
</svg>
