<?xml version="1.0" encoding="iso-8859-1"?>
<!-- Generator: Adobe Illustrator 17.1.0, SVG Export Plug-In . SVG Version: 6.00 Build 0)  -->
<!DOCTYPE svg PUBLIC "-//W3C//DTD SVG 1.1//EN" "http://www.w3.org/Graphics/SVG/1.1/DTD/svg11.dtd">
<svg version="1.1" id="Capa_1" xmlns="http://www.w3.org/2000/svg" xmlns:xlink="http://www.w3.org/1999/xlink" x="0px" y="0px"
	 viewBox="0 0 478.361 478.361" style="enable-background:new 0 0 478.361 478.361;" xml:space="preserve">
<path d="M478.361,246.628c0-19.112-11.954-35.474-28.774-42.033C445.918,91.703,352.95,0.99,239.181,0.99
	c-113.769,0-206.738,90.713-210.407,203.606C11.954,211.154,0,227.516,0,246.628c0,20.457,13.695,37.767,32.394,43.27
	l45.308,146.794c6.238,23.966,27.842,40.68,52.628,40.68H348.03c24.786,0,46.391-16.714,52.629-40.68l45.308-146.794
	C464.667,284.395,478.361,267.086,478.361,246.628z M381.479,431.017c-0.048,0.157-0.093,0.316-0.134,0.476
	c-3.89,15.237-17.59,25.879-33.315,25.879h-17.527l32.011-130.344c1.317-5.363-1.963-10.779-7.326-12.096
	c-5.355-1.319-10.778,1.962-12.096,7.326L309.91,457.372h-60.73V324.643c0-5.522-4.478-10-10-10c-5.523,0-10,4.478-10,10v132.729
	h-60.729l-33.182-135.113c-1.317-5.364-6.732-8.646-12.097-7.326c-5.363,1.316-8.644,6.732-7.326,12.096l32.011,130.344h-17.526
	c-15.726,0-29.425-10.642-33.315-25.879c-0.041-0.159-0.085-0.318-0.134-0.476l-42.99-139.283H424.47L381.479,431.017z
	 M433.256,271.734H45.105C31.262,271.734,20,260.471,20,246.628s11.262-25.105,25.105-25.105h320.966c5.522,0,10-4.478,10-10
	s-4.478-10-10-10H48.909C54.128,101.092,137.474,20.99,239.181,20.99c101.956,0,185.459,80.498,190.305,181.274
	c-3.653,1.489-6.23,5.071-6.23,9.259c0,5.522,4.478,10,10,10c13.843,0,25.105,11.263,25.105,25.105S447.099,271.734,433.256,271.734
	z M167.562,96.933c0,7.878-6.446,14.324-14.324,14.324c-7.878,0-14.324-6.446-14.324-14.324s6.446-14.324,14.324-14.324
	C161.116,82.609,167.562,89.055,167.562,96.933z M124.59,154.228c0,7.878-6.446,14.324-14.324,14.324h0
	c-7.878,0-14.324-6.446-14.324-14.324c0-7.878,6.446-14.324,14.324-14.324h0C118.145,139.904,124.59,146.35,124.59,154.228z
	 M239.181,139.904c0,7.878-6.446,14.324-14.324,14.324s-14.324-6.446-14.324-14.324s6.446-14.324,14.324-14.324
	S239.181,132.026,239.181,139.904z M321.308,174.481L321.308,174.481c0,7.878-6.446,14.324-14.324,14.324h0
	c-7.878,0-14.324-6.446-14.324-14.324v0c0-7.878,6.446-14.324,14.324-14.324h0C314.862,160.157,321.308,166.603,321.308,174.481z
	 M292.66,93.807L292.66,93.807c-7.878,0-14.324-6.446-14.324-14.324s6.446-14.324,14.324-14.324h0
	c7.878,0,14.324,6.446,14.324,14.324S300.538,93.807,292.66,93.807z M210.533,75.224c-7.878,0-14.324-6.446-14.324-14.324
	c0-7.878,6.446-14.324,14.324-14.324s14.324,6.446,14.324,14.324C224.857,68.778,218.411,75.224,210.533,75.224z M396.742,154.228
	c0,7.878-6.446,14.324-14.324,14.324h0c-7.878,0-14.324-6.446-14.324-14.324c0-7.878,6.446-14.324,14.324-14.324h0
	C390.297,139.904,396.742,146.35,396.742,154.228z"/>
<g>
</g>
<g>
</g>
<g>
</g>
<g>
</g>
<g>
</g>
<g>
</g>
<g>
</g>
<g>
</g>
<g>
</g>
<g>
</g>
<g>
</g>
<g>
</g>
<g>
</g>
<g>
</g>
<g>
</g>
</svg>
