<?xml version="1.0" encoding="iso-8859-1"?>
<!-- Generator: Adobe Illustrator 17.1.0, SVG Export Plug-In . SVG Version: 6.00 Build 0)  -->
<!DOCTYPE svg PUBLIC "-//W3C//DTD SVG 1.1//EN" "http://www.w3.org/Graphics/SVG/1.1/DTD/svg11.dtd">
<svg version="1.1" id="Capa_1" xmlns="http://www.w3.org/2000/svg" xmlns:xlink="http://www.w3.org/1999/xlink" x="0px" y="0px"
	 viewBox="0 0 484.126 484.126" style="enable-background:new 0 0 484.126 484.126;" xml:space="preserve">
<path d="M372.705,130.642c0-1.467-0.033-2.927-0.081-4.383c0.001-0.167-0.012-0.334-0.019-0.501
	c-1.336-36.16-17.432-68.611-42.434-91.489c-1.03-1.633-2.52-2.953-4.308-3.769C303.162,11.474,273.929,0,242.063,0
	c-3.692,0-7.346,0.162-10.962,0.464c-1.034-0.062-2.073,0.036-3.08,0.292c-65.457,7.028-116.599,62.593-116.599,129.885
	c0,38.623,16.853,73.38,43.585,97.318c0.683,0.822,1.494,1.535,2.41,2.105c16.438,14.016,36.377,24.043,58.308,28.551V457.59
	c0,14.632,11.904,26.536,26.536,26.536c14.631,0,26.535-11.904,26.535-26.536V258.53
	C328.053,246.159,372.705,193.519,372.705,130.642z M339.275,183.438c-5.529-30.803-22.99-59.674-55.362-69.297
	c-0.072-0.022-0.146-0.043-0.218-0.063c-7.047-1.922-13.651-2.163-19.877-1.464c2.863-3.198,6.198-5.855,10.351-7.77
	c28.477-12.52,59.43,3.25,78.527,25.089c0.001,0.236,0.009,0.471,0.009,0.708C352.705,149.748,347.836,167.738,339.275,183.438z
	 M245.807,241.214c-1.244,0.042-2.491,0.07-3.745,0.07c-18.078,0-35.157-4.359-50.242-12.08
	c19.186-4.374,36.859-14.069,48.933-27.538c12.941-14.437,18.762-31.867,17.079-50.756c8.763,8.152,13.475,18.526,14.014,30.909
	C272.701,201.46,262.324,224.929,245.807,241.214z M348.036,98.83c-23.268-16.738-53.232-24.951-82.01-12.254
	c-0.043,0.02-0.086,0.039-0.13,0.059c-8.522,3.906-14.748,9.521-19.66,15.851c-0.099-2.566,0.072-5.136,0.622-7.75
	c6.498-31.677,39.538-46.484,70.167-45.391C331.402,62.61,342.261,79.629,348.036,98.83z M291.43,31.645
	c-30.173,6.408-57.361,25.912-64.153,59.02c-1.152,5.472-1.286,10.7-0.811,15.702c-6.078-5.136-10.565-11.214-12.665-19.914
	c-5.06-21.684,2.142-43.951,21.391-66.233c2.273-0.14,4.563-0.22,6.871-0.22C259.794,20,276.56,24.199,291.43,31.645z
	 M206.365,25.911c-12.895,21.435-17.057,43.587-12.023,65.161c3.863,16.005,13.074,26.195,23.601,33.973
	c-12.805,1.539-24.239-1.978-33.994-10.502c-14.196-12.402-23.705-35.279-24.212-57.737C172.259,42.86,188.26,32.099,206.365,25.911
	z M143.012,81.383c4.817,19.262,14.646,36.75,27.778,48.222c14.595,12.75,32.5,17.943,51.687,15.02
	c0.008-0.001,0.015-0.003,0.023-0.004c-0.615,0.839-1.25,1.66-1.913,2.456c-8.857,9.331-19.865,14.06-32.73,14.06
	c-0.132,0-0.267,0-0.4-0.001c-18.569-0.141-40.198-10.472-55.957-26.537c-0.046-1.314-0.078-2.632-0.078-3.957
	C131.421,112.954,135.6,96.226,143.012,81.383z M136.762,164.608c15.938,10.372,33.843,16.4,50.543,16.527
	c0.184,0.001,0.364,0.002,0.547,0.002c18.439,0,34.855-7.104,47.5-20.564c0.124-0.132,0.244-0.267,0.36-0.405
	c0.827-0.982,1.616-1.979,2.375-2.988c-0.053,11.539-4.184,22.167-12.225,31.136c-13.31,14.847-36.635,24.021-58.951,23.449
	C153.168,199.023,142.658,182.844,136.762,164.608z M248.794,457.59c0,3.604-2.932,6.536-6.535,6.536
	c-3.604,0-6.536-2.932-6.536-6.536V261.128c2.101,0.101,4.214,0.156,6.339,0.156c2.258,0,4.502-0.058,6.731-0.172V457.59z
	 M275.476,236.123c11.033-17.256,17.139-37.087,16.352-55.173c-0.855-19.664-9.473-36.418-24.914-48.543
	c3.745-0.329,7.508-0.114,11.41,0.936c30.825,9.238,43.587,43.463,42.893,74.52C308.662,220.729,293.01,230.557,275.476,236.123z"/>
<g>
</g>
<g>
</g>
<g>
</g>
<g>
</g>
<g>
</g>
<g>
</g>
<g>
</g>
<g>
</g>
<g>
</g>
<g>
</g>
<g>
</g>
<g>
</g>
<g>
</g>
<g>
</g>
<g>
</g>
</svg>
