<?xml version="1.0" encoding="iso-8859-1"?>
<!-- Generator: Adobe Illustrator 17.1.0, SVG Export Plug-In . SVG Version: 6.00 Build 0)  -->
<!DOCTYPE svg PUBLIC "-//W3C//DTD SVG 1.1//EN" "http://www.w3.org/Graphics/SVG/1.1/DTD/svg11.dtd">
<svg version="1.1" id="Capa_1" xmlns="http://www.w3.org/2000/svg" xmlns:xlink="http://www.w3.org/1999/xlink" x="0px" y="0px"
	 viewBox="0 0 480.801 480.801" style="enable-background:new 0 0 480.801 480.801;" xml:space="preserve">
<path d="M410.389,70.412C364.983,25.006,304.614,0,240.4,0S115.817,25.006,70.412,70.412C25.006,115.817,0,176.188,0,240.4
	s25.006,124.583,70.412,169.988c45.405,45.406,105.775,70.412,169.988,70.412s124.583-25.006,169.988-70.412
	C455.794,364.983,480.8,304.613,480.8,240.4S455.794,115.817,410.389,70.412z M240.4,460.801C118.872,460.801,20,361.93,20,240.4
	S118.872,20,240.4,20s220.4,98.871,220.4,220.4S361.929,460.801,240.4,460.801z M432.621,244.196
	c-5.506-0.4-10.291,3.758-10.682,9.268c-1.335,18.833-5.581,36.89-12.271,53.736H404v-53.091c0-5.522-4.477-10-10-10
	c-0.294,0-0.583,0.019-0.87,0.044h-75.06c-0.287-0.025-0.576-0.044-0.87-0.044s-0.583,0.019-0.87,0.044h-62.057
	c-0.287-0.025-0.576-0.044-0.87-0.044c-5.523,0-10,4.478-10,10v177.227c-0.027,0.428-0.036,0.86-0.007,1.299
	c0.006,0.097,0.024,0.191,0.033,0.287c0.273,5.279,4.627,9.478,9.974,9.478c1.28,0,2.499-0.249,3.623-0.687
	c22.119-1.807,43.621-7.246,63.707-15.958c0.34-0.129,0.672-0.273,0.993-0.437c22.615-9.954,43.413-24.055,61.23-41.802
	c6.79-6.763,13.045-13.967,18.753-21.535c0.211-0.255,0.409-0.52,0.594-0.795c9.183-12.301,16.908-25.565,23.047-39.526
	c0.136-0.271,0.26-0.549,0.371-0.834c9.017-20.76,14.545-43.037,16.169-65.948C442.279,249.369,438.13,244.586,432.621,244.196z
	 M307.2,409.664c-13.861,5.505-28.543,9.348-43.797,11.281V404H307.2V409.664z M263.403,384v-56.8H307.2V384H263.403z
	 M263.403,307.2v-43.047H307.2V307.2H263.403z M327.2,264.153H384V307.2h-56.8V264.153z M351.972,384H327.2v-56.8H384v24.778
	C374.687,363.926,363.919,374.688,351.972,384z M235.873,47.897c-0.264-5.287-4.622-9.497-9.975-9.497
	c-1.432,0-2.791,0.306-4.022,0.848c-21.476,1.958-42.354,7.343-61.888,15.826c-0.316,0.123-0.624,0.26-0.923,0.412
	c-13.929,6.133-27.164,13.843-39.437,23.003c-0.285,0.191-0.56,0.396-0.823,0.615c-7.541,5.688-14.719,11.918-21.458,18.677
	c-6.624,6.644-12.737,13.709-18.323,21.125c-0.187,0.231-0.366,0.469-0.532,0.717c-9.145,12.253-16.842,25.465-22.969,39.368
	c-0.18,0.346-0.337,0.706-0.476,1.075c-8.986,20.716-14.502,42.938-16.129,65.779c-0.393,5.509,3.755,10.293,9.264,10.686
	c0.234,0.017,0.466,0.024,0.697,0.025c0.417,0.053,0.84,0.09,1.272,0.09h36.631c0.007,0,0.013,0.001,0.019,0.001
	s0.013-0.001,0.019-0.001h138.328c0.127,0,0.25-0.014,0.375-0.019c0.126,0.005,0.249,0.019,0.375,0.019c5.523,0,10-4.478,10-10
	V49.686c0.036-0.491,0.049-0.987,0.012-1.493C235.902,48.093,235.883,47.997,235.873,47.897z M71.174,173.601H76.8v43.047H59.953
	C61.92,201.669,65.74,187.24,71.174,173.601z M96.8,173.601h56.8v43.047H96.8V173.601z M173.601,173.601h42.297v43.047h-42.297
	V173.601z M173.601,71.169c13.41-5.342,27.585-9.123,42.297-11.117v16.749h-42.297V71.169z M215.898,96.801v56.8h-42.297v-56.8
	H215.898z M128.946,96.801h24.654v56.8H96.8v-24.646C106.147,116.96,116.953,106.149,128.946,96.801z M235.898,254.109
	c0-5.522-4.477-10-10-10s-10,4.478-10,10V307.2h-42.297v-43.086l14.802-0.005c5.523-0.002,9.999-4.48,9.997-10.003
	s-4.479-9.997-10-9.997c-0.001,0-0.002,0-0.003,0l-138.25,0.044c-0.462,0-0.913,0.042-1.358,0.103
	c-0.202,0.002-0.404-0.002-0.608,0.013c-5.509,0.393-9.656,5.177-9.264,10.686c1.627,22.842,7.143,45.063,16.13,65.779
	c0.139,0.368,0.295,0.726,0.475,1.071c6.128,13.904,13.825,27.117,22.971,39.371c0.16,0.238,0.332,0.466,0.511,0.688
	c5.592,7.427,11.712,14.501,18.344,21.154c6.739,6.76,13.917,12.99,21.458,18.677c0.263,0.218,0.536,0.423,0.821,0.614
	c12.273,9.159,25.506,16.87,39.436,23.003c0.3,0.153,0.609,0.291,0.926,0.414c19.534,8.483,40.412,13.867,61.887,15.826
	c1.232,0.542,2.59,0.848,4.022,0.848c5.35,0,9.706-4.205,9.974-9.488c0.011-0.102,0.03-0.202,0.038-0.305
	c0.038-0.505,0.025-1.001-0.012-1.492V254.109z M173.601,404h42.297v16.749c-14.712-1.994-28.887-5.775-42.297-11.117V404z
	 M215.898,327.2V384h-42.297v-56.8H215.898z M153.601,307.2H96.8v-43.062l56.8-0.018V307.2z M71.174,307.2
	c-5.435-13.641-9.255-28.07-11.222-43.05l16.848-0.005V307.2H71.174z M96.8,351.847V327.2h56.8V384h-24.655
	C116.953,374.651,106.147,363.84,96.8,351.847z M243.403,226.647c0,5.522,4.477,10,10,10c0.014,0,0.027-0.002,0.04-0.002
	s0.027,0.002,0.04,0.002h140.498c0.007,0,0.013,0.001,0.019,0.001s0.013-0.001,0.019-0.001h37.63c0.148,0,0.293-0.016,0.439-0.022
	c0.177-0.003,0.353-0.006,0.532-0.019c5.509-0.39,9.658-5.173,9.268-10.682c-1.624-22.911-7.151-45.187-16.168-65.947
	c-0.112-0.288-0.237-0.569-0.375-0.843c-6.139-13.959-13.862-27.22-23.043-39.518c-0.186-0.276-0.385-0.543-0.597-0.799
	c-5.708-7.567-11.962-14.769-18.751-21.532c-6.823-6.796-14.088-13.05-21.719-18.751c-0.013-0.009-0.024-0.019-0.037-0.028
	c-12.282-9.171-25.526-16.884-39.462-23.019c-0.327-0.167-0.665-0.314-1.012-0.445c-20.084-8.711-41.584-14.149-63.7-15.956
	c-1.125-0.438-2.344-0.688-3.624-0.688c-5.345,0-9.697,4.197-9.973,9.472c-0.009,0.099-0.028,0.194-0.034,0.293
	c-0.029,0.443-0.02,0.878,0.008,1.309V226.647z M307.2,76.801h-43.797V59.855c15.255,1.934,29.936,5.776,43.797,11.281V76.801z
	 M409.668,173.601c5.414,13.632,9.219,28.059,11.182,43.047H404v-43.047H409.668z M384,216.647h-56.8v-43.047H384V216.647z
	 M307.2,216.647h-43.797v-43.047H307.2V216.647z M263.403,153.601v-56.8H307.2v56.8H263.403z M384,128.822v24.778h-56.8v-56.8
	h24.771C363.919,106.113,374.687,116.875,384,128.822z"/>
<g>
</g>
<g>
</g>
<g>
</g>
<g>
</g>
<g>
</g>
<g>
</g>
<g>
</g>
<g>
</g>
<g>
</g>
<g>
</g>
<g>
</g>
<g>
</g>
<g>
</g>
<g>
</g>
<g>
</g>
</svg>
