<?xml version="1.0" encoding="iso-8859-1"?>
<!-- Generator: Adobe Illustrator 17.1.0, SVG Export Plug-In . SVG Version: 6.00 Build 0)  -->
<!DOCTYPE svg PUBLIC "-//W3C//DTD SVG 1.1//EN" "http://www.w3.org/Graphics/SVG/1.1/DTD/svg11.dtd">
<svg version="1.1" id="Capa_1" xmlns="http://www.w3.org/2000/svg" xmlns:xlink="http://www.w3.org/1999/xlink" x="0px" y="0px"
	 viewBox="0 0 476.96 476.96" style="enable-background:new 0 0 476.96 476.96;" xml:space="preserve">
<path d="M476.946,143.781c-0.006-0.204-0.013-0.407-0.031-0.61c-0.014-0.156-0.036-0.308-0.057-0.462
	c-0.022-0.162-0.044-0.325-0.074-0.486c-0.033-0.178-0.074-0.353-0.117-0.527c-0.033-0.135-0.065-0.27-0.104-0.403
	c-0.052-0.182-0.112-0.361-0.175-0.539c-0.045-0.127-0.089-0.254-0.139-0.38c-0.067-0.169-0.14-0.334-0.216-0.498
	c-0.062-0.135-0.125-0.269-0.193-0.401c-0.074-0.144-0.153-0.284-0.234-0.423c-0.085-0.147-0.172-0.293-0.265-0.437
	c-0.076-0.117-0.156-0.23-0.236-0.344c-0.11-0.155-0.222-0.307-0.341-0.456c-0.079-0.098-0.161-0.193-0.243-0.289
	c-0.129-0.149-0.26-0.296-0.398-0.438c-0.091-0.093-0.185-0.182-0.279-0.271c-0.137-0.13-0.274-0.258-0.419-0.381
	c-0.118-0.1-0.241-0.194-0.363-0.288c-0.13-0.1-0.258-0.2-0.393-0.294c-0.16-0.111-0.326-0.213-0.492-0.316
	c-0.085-0.052-0.164-0.111-0.251-0.161L282.166,26.834c-3.385-1.937-7.584-1.729-10.762,0.532L4.204,217.445
	c-0.113,0.08-0.217,0.169-0.325,0.253c-0.098,0.076-0.199,0.149-0.295,0.229c-0.189,0.158-0.369,0.324-0.544,0.494
	c-0.04,0.039-0.083,0.074-0.122,0.113c-0.219,0.219-0.426,0.448-0.622,0.684c-0.033,0.041-0.063,0.084-0.096,0.125
	c-0.155,0.193-0.304,0.39-0.444,0.593c-0.063,0.092-0.12,0.188-0.181,0.282c-0.1,0.156-0.198,0.313-0.288,0.475
	c-0.067,0.118-0.129,0.24-0.191,0.361c-0.073,0.143-0.143,0.288-0.209,0.434c-0.061,0.134-0.119,0.27-0.174,0.407
	c-0.057,0.144-0.109,0.289-0.159,0.435c-0.048,0.14-0.098,0.279-0.14,0.421c-0.052,0.174-0.093,0.35-0.135,0.527
	c-0.028,0.116-0.061,0.23-0.084,0.348c-0.059,0.294-0.103,0.592-0.136,0.891c-0.009,0.082-0.011,0.165-0.018,0.247
	c-0.02,0.237-0.033,0.474-0.036,0.713c0,0.039-0.006,0.077-0.006,0.116v215.853c0,2.927,1.282,5.707,3.509,7.606
	c1.823,1.556,4.128,2.394,6.491,2.394c0.522,0,1.049-0.041,1.572-0.124l456.96-72.76c4.855-0.773,8.428-4.96,8.428-9.876V144.06
	C476.96,143.966,476.948,143.875,476.946,143.781z M20,272.968l436.96-79.233v43.628L20,316.596V272.968z M277.786,47.37
	l179.174,102.49v23.547L20,252.641V234.02l386.576-66.524c5.443-0.937,9.096-6.108,8.159-11.552
	c-0.937-5.442-6.105-9.095-11.551-8.159L51.572,208.292L277.786,47.37z M20,429.728v-57.492l349.28-63.333v16.638
	c0,13.289,10.811,24.101,24.1,24.101s24.1-10.812,24.1-24.101l0-25.378l24.391-4.422c5.434-0.985,9.041-6.189,8.055-11.624
	s-6.193-9.043-11.624-8.056l-32.606,5.912c-4.757,0.863-8.216,5.005-8.216,9.84l0,33.728c0,2.261-1.839,4.101-4.1,4.101
	s-4.1-1.84-4.1-4.101v-28.614c0-2.965-1.315-5.776-3.591-7.676c-2.275-1.9-5.277-2.69-8.193-2.164L20,351.91v-14.987l436.96-79.233
	v102.462L20,429.728z"/>
<g>
</g>
<g>
</g>
<g>
</g>
<g>
</g>
<g>
</g>
<g>
</g>
<g>
</g>
<g>
</g>
<g>
</g>
<g>
</g>
<g>
</g>
<g>
</g>
<g>
</g>
<g>
</g>
<g>
</g>
</svg>
