<?xml version="1.0" encoding="iso-8859-1"?>
<!-- Generator: Adobe Illustrator 17.1.0, SVG Export Plug-In . SVG Version: 6.00 Build 0)  -->
<!DOCTYPE svg PUBLIC "-//W3C//DTD SVG 1.1//EN" "http://www.w3.org/Graphics/SVG/1.1/DTD/svg11.dtd">
<svg version="1.1" id="Capa_1" xmlns="http://www.w3.org/2000/svg" xmlns:xlink="http://www.w3.org/1999/xlink" x="0px" y="0px"
	 viewBox="0 0 480.8 480.8" style="enable-background:new 0 0 480.8 480.8;" xml:space="preserve">
<path d="M350.207,80.054C335.014,32.6,290.798,0,240.4,0s-94.614,32.6-109.807,80.054c-12.412,3.426-21.558,14.811-21.558,28.298
	v13.947c0,13.487,9.145,24.872,21.558,28.298c12.262,38.3,43.425,66.92,81.495,76.535v225.356c0,15.611,12.701,28.312,28.312,28.312
	s28.312-12.701,28.312-28.312V227.133c38.07-9.615,69.233-38.236,81.495-76.535c12.412-3.426,21.558-14.811,21.558-28.298v-13.947
	C371.765,94.865,362.62,83.48,350.207,80.054z M240.4,20c43.525,0,81.49,29.396,92.323,71.487c0.02,0.077,0.047,0.15,0.069,0.226
	c0.042,0.149,0.086,0.297,0.134,0.443c0.052,0.156,0.109,0.307,0.168,0.459c0.05,0.128,0.097,0.256,0.152,0.381
	c0.085,0.195,0.179,0.384,0.275,0.571c0.039,0.076,0.074,0.154,0.115,0.229c0.298,0.544,0.644,1.053,1.029,1.524
	c0.038,0.046,0.079,0.09,0.118,0.136c0.156,0.183,0.316,0.362,0.484,0.532c0.063,0.064,0.128,0.126,0.192,0.188
	c0.15,0.145,0.303,0.285,0.462,0.419c0.081,0.069,0.161,0.137,0.244,0.203c0.151,0.12,0.305,0.234,0.462,0.346
	c0.093,0.066,0.184,0.134,0.279,0.196c0.164,0.108,0.333,0.208,0.504,0.306c0.091,0.053,0.179,0.11,0.272,0.16
	c0.25,0.134,0.506,0.257,0.766,0.369c0.112,0.048,0.227,0.088,0.341,0.133c0.169,0.066,0.339,0.13,0.511,0.187
	c0.117,0.038,0.236,0.072,0.355,0.106c0.185,0.053,0.372,0.102,0.561,0.144c0.105,0.023,0.21,0.047,0.316,0.067
	c0.232,0.044,0.465,0.079,0.701,0.107c0.069,0.008,0.136,0.019,0.206,0.026c0.318,0.031,0.638,0.051,0.962,0.051
	c0.008,0,0.016-0.002,0.025-0.002c5.151,0.01,9.34,4.203,9.34,9.357v13.947c0,5.16-4.198,9.358-9.357,9.358
	c-0.026,0-0.052,0.004-0.078,0.004c-0.026,0-0.052-0.004-0.078-0.004h-0.071H138.393c-5.16,0-9.357-4.198-9.357-9.358v-13.947
	c0-5.16,4.198-9.358,9.357-9.358h157.543h0c5.523,0,10-4.477,10-10s-4.477-10-10-10h0H152.227C166.731,43.694,201.325,20,240.4,20z
	 M248.712,452.488c0,4.583-3.729,8.312-8.312,8.312s-8.312-3.729-8.312-8.312V230.333c2.751,0.197,5.519,0.319,8.312,0.319
	s5.561-0.121,8.312-0.319V452.488z M240.4,210.651c-39.075,0-73.669-23.694-88.173-58.994h176.346
	C314.069,186.958,279.475,210.651,240.4,210.651z"/>
<g>
</g>
<g>
</g>
<g>
</g>
<g>
</g>
<g>
</g>
<g>
</g>
<g>
</g>
<g>
</g>
<g>
</g>
<g>
</g>
<g>
</g>
<g>
</g>
<g>
</g>
<g>
</g>
<g>
</g>
</svg>
