<?xml version="1.0" encoding="iso-8859-1"?>
<!-- Generator: Adobe Illustrator 17.1.0, SVG Export Plug-In . SVG Version: 6.00 Build 0)  -->
<!DOCTYPE svg PUBLIC "-//W3C//DTD SVG 1.1//EN" "http://www.w3.org/Graphics/SVG/1.1/DTD/svg11.dtd">
<svg version="1.1" id="Capa_1" xmlns="http://www.w3.org/2000/svg" xmlns:xlink="http://www.w3.org/1999/xlink" x="0px" y="0px"
	 viewBox="0 0 481.316 481.316" style="enable-background:new 0 0 481.316 481.316;" xml:space="preserve">
<path d="M470.783,254.828c-5.027-5.349-11.476-9.13-18.482-10.971c-1.054-25.039-6.686-47.661-16.78-67.35
	c-10.642-20.757-26.274-38.36-46.464-52.32C352.773,99.1,301.458,85.839,240.658,85.839S128.543,99.1,92.259,124.188
	c-20.189,13.959-35.822,31.562-46.464,52.319c-10.095,19.689-15.727,42.311-16.78,67.35c-7.007,1.84-13.455,5.621-18.482,10.97
	c-7.415,7.89-11.128,18.206-10.455,29.049c1.084,17.462,13.735,31.8,30.375,35.459l9.825,49.135
	c2.693,15.659,16.146,27.005,32.053,27.005h336.654c15.907,0,29.359-11.346,32.053-27.005l9.825-49.135
	c16.64-3.659,29.291-17.997,30.375-35.459C481.911,273.034,478.198,262.718,470.783,254.828z M421.338,365.01
	c-1.01,6.064-6.206,10.466-12.354,10.466H72.331c-6.147,0-11.344-4.401-12.354-10.466c-0.018-0.106-0.037-0.212-0.059-0.317
	l-9.253-46.273c5.434-1.731,10.459-4.661,14.758-8.702c0.786-0.739,1.529-1.516,2.247-2.314c7.112,7.882,17.4,12.846,28.828,12.846
	c11.43,0,21.72-4.966,28.832-12.851c7.112,7.885,17.402,12.851,28.832,12.851s21.72-4.966,28.832-12.851
	c7.112,7.885,17.402,12.851,28.832,12.851s21.72-4.966,28.832-12.851c7.112,7.885,17.402,12.851,28.832,12.851
	s21.72-4.966,28.832-12.851c7.112,7.885,17.402,12.851,28.832,12.851s21.72-4.966,28.832-12.851
	c7.112,7.885,17.402,12.851,28.832,12.851c11.427,0,21.716-4.964,28.828-12.846c0.717,0.798,1.46,1.575,2.247,2.314
	c4.3,4.042,9.324,6.973,14.758,8.705l-9.253,46.271C421.376,364.798,421.356,364.904,421.338,365.01z M461.277,282.637
	c-0.576,9.279-8.296,16.998-17.574,17.574c-5.277,0.327-10.289-1.472-14.114-5.068c-3.829-3.599-5.938-8.474-5.938-13.726
	c0-5.523-4.478-10-10-10s-10,4.477-10,10c0,10.384-8.448,18.832-18.832,18.832s-18.832-8.448-18.832-18.832c0-5.523-4.478-10-10-10
	s-10,4.477-10,10c0,10.384-8.448,18.832-18.832,18.832s-18.832-8.448-18.832-18.832c0-5.523-4.478-10-10-10s-10,4.477-10,10
	c0,10.384-8.448,18.832-18.832,18.832s-18.832-8.448-18.832-18.832c0-5.523-4.478-10-10-10s-10,4.477-10,10
	c0,10.384-8.448,18.832-18.832,18.832s-18.832-8.448-18.832-18.832c0-5.523-4.478-10-10-10s-10,4.477-10,10
	c0,10.384-8.448,18.832-18.832,18.832s-18.832-8.448-18.832-18.832c0-5.523-4.478-10-10-10s-10,4.477-10,10
	c0,10.384-8.448,18.832-18.832,18.832s-18.832-8.448-18.832-18.832c0-5.523-4.478-10-10-10s-10,4.477-10,10
	c0,5.252-2.109,10.127-5.938,13.726c-3.826,3.595-8.841,5.392-14.113,5.068c-9.279-0.576-16.999-8.295-17.575-17.574
	c-0.327-5.275,1.473-10.287,5.068-14.113c3.599-3.829,8.472-5.938,13.722-5.939c0.002,0,0.003,0,0.005,0h360.4
	c5.522,0,10-4.477,10-10s-4.478-10-10-10H49.106c2.366-44.271,20.674-78.539,54.528-101.947
	c32.926-22.766,80.308-34.799,137.024-34.799s104.099,12.033,137.024,34.799c36.362,25.143,54.8,62.807,54.8,111.947
	c0,5.523,4.478,10,10,10c5.252,0,10.127,2.109,13.727,5.939C459.804,272.35,461.604,277.362,461.277,282.637z M255.074,188.629
	c0,7.962-6.454,14.416-14.416,14.416s-14.416-6.454-14.416-14.416s6.454-28.832,14.416-28.832S255.074,180.667,255.074,188.629z
	 M350.049,184.81c2.518,7.553-1.564,15.717-9.118,18.235s-15.717-1.564-18.235-9.117c-2.518-7.553-2.995-29.393,4.559-31.911
	C334.809,159.498,347.532,177.256,350.049,184.81z M158.619,193.927c-2.518,7.553-10.682,11.635-18.235,9.117
	c-7.553-2.518-11.635-10.682-9.118-18.235s15.241-25.311,22.794-22.794C161.613,164.534,161.137,186.374,158.619,193.927z"/>
<g>
</g>
<g>
</g>
<g>
</g>
<g>
</g>
<g>
</g>
<g>
</g>
<g>
</g>
<g>
</g>
<g>
</g>
<g>
</g>
<g>
</g>
<g>
</g>
<g>
</g>
<g>
</g>
<g>
</g>
</svg>
