<?xml version="1.0" encoding="iso-8859-1"?>
<!-- Generator: Adobe Illustrator 17.1.0, SVG Export Plug-In . SVG Version: 6.00 Build 0)  -->
<!DOCTYPE svg PUBLIC "-//W3C//DTD SVG 1.1//EN" "http://www.w3.org/Graphics/SVG/1.1/DTD/svg11.dtd">
<svg version="1.1" id="Capa_1" xmlns="http://www.w3.org/2000/svg" xmlns:xlink="http://www.w3.org/1999/xlink" x="0px" y="0px"
	 viewBox="0 0 472.4 472.4" style="enable-background:new 0 0 472.4 472.4;" xml:space="preserve">
<path d="M462.4,142.7c-36.029,0-67.964,15.583-87.41,39.428c-2.271-25.482-23.727-45.528-49.79-45.528H147.199
	c-26.062,0-47.519,20.046-49.79,45.528C77.964,158.284,46.029,142.7,10,142.7c-5.523,0-10,4.478-10,10v167c0,5.522,4.477,10,10,10
	c36.029,0,67.964-15.583,87.41-39.428c2.271,25.482,23.727,45.528,49.79,45.528h178.002c26.062,0,47.519-20.046,49.79-45.528
	c19.446,23.845,51.381,39.428,87.41,39.428c5.522,0,10-4.478,10-10v-167C472.4,147.178,467.923,142.7,462.4,142.7z M20,309.22
	V163.181c28.29,2.734,52.498,16.93,65.927,36.92c-7.216-3.235-15.578-6.018-25.013-8.263c-5.375-1.28-10.765,2.041-12.043,7.414
	c-1.278,5.372,2.041,10.765,7.414,12.043c16.298,3.878,27.871,9.444,34.461,14.905H56.175c-5.523,0-10,4.478-10,10s4.477,10,10,10
	h34.571c-6.589,5.462-18.163,11.027-34.46,14.905c-5.373,1.278-8.692,6.671-7.414,12.043c1.093,4.595,5.195,7.688,9.72,7.688
	c0.766,0,1.545-0.089,2.323-0.273c9.435-2.245,17.797-5.028,25.012-8.262C72.498,292.289,48.29,306.486,20,309.22z M325.201,315.8
	H147.199c-16.542,0-30-13.458-30-30v-2.61c8.699,8.037,19.675,14.866,32.493,19.942c1.208,0.479,2.454,0.705,3.679,0.705
	c3.981,0,7.746-2.395,9.301-6.321c2.033-5.135-0.481-10.946-5.616-12.979c-20.177-7.989-34.433-20.884-39.856-35.336v-3h38.599
	c5.523,0,10-4.478,10-10s-4.477-10-10-10h-38.599v-2.999c5.424-14.452,19.68-27.347,39.856-35.337
	c5.135-2.034,7.649-7.845,5.616-12.979c-2.033-5.135-7.845-7.648-12.979-5.616c-12.818,5.076-23.794,11.906-32.493,19.942v-2.61
	c0-16.542,13.458-30,30-30h178.002c16.542,0,30,13.458,30,30v6.056c-9.178-9.535-21.394-17.601-36.006-23.388
	c-5.133-2.034-10.944,0.48-12.979,5.616c-2.033,5.135,0.481,10.945,5.616,12.979c21.562,8.538,36.361,22.68,40.844,38.336h-39.588
	c-5.522,0-10,4.478-10,10s4.478,10,10,10h39.588c-4.483,15.657-19.282,29.798-40.845,38.336c-5.135,2.033-7.649,7.845-5.616,12.979
	c1.556,3.927,5.319,6.321,9.301,6.321c1.225,0,2.471-0.227,3.679-0.705c14.612-5.786,26.829-13.852,36.007-23.387v6.055
	C355.201,302.342,341.743,315.8,325.201,315.8z M452.4,309.22c-28.29-2.734-52.498-16.931-65.927-36.92
	c7.216,3.235,15.578,6.018,25.013,8.263c0.778,0.186,1.556,0.273,2.323,0.273c4.524,0,8.626-3.093,9.72-7.688
	c1.278-5.372-2.041-10.765-7.414-12.043c-16.298-3.878-27.871-9.444-34.46-14.905h34.571c5.522,0,10-4.478,10-10s-4.478-10-10-10
	h-34.571c6.589-5.462,18.163-11.027,34.46-14.905c5.373-1.278,8.692-6.671,7.414-12.043c-1.279-5.373-6.679-8.689-12.043-7.414
	c-9.436,2.245-17.797,5.028-25.013,8.263c13.429-19.989,37.637-34.186,65.927-36.92V309.22z"/>
<g>
</g>
<g>
</g>
<g>
</g>
<g>
</g>
<g>
</g>
<g>
</g>
<g>
</g>
<g>
</g>
<g>
</g>
<g>
</g>
<g>
</g>
<g>
</g>
<g>
</g>
<g>
</g>
<g>
</g>
</svg>
