<?xml version="1.0" encoding="iso-8859-1"?>
<!-- Generator: Adobe Illustrator 17.1.0, SVG Export Plug-In . SVG Version: 6.00 Build 0)  -->
<!DOCTYPE svg PUBLIC "-//W3C//DTD SVG 1.1//EN" "http://www.w3.org/Graphics/SVG/1.1/DTD/svg11.dtd">
<svg version="1.1" id="Capa_1" xmlns="http://www.w3.org/2000/svg" xmlns:xlink="http://www.w3.org/1999/xlink" x="0px" y="0px"
	 viewBox="0 0 481.845 481.845" style="enable-background:new 0 0 481.845 481.845;" xml:space="preserve">
<path d="M294.931,235.987h-44.009V10c0-5.522-4.478-10-10-10c-5.523,0-10,4.478-10,10v225.987h-43.967
	c-0.06,0-0.12,0.003-0.18,0.003c-40.646,0.075-73.692,33.162-73.692,73.826v78.354c0,26.415,14.655,50.766,41.264,68.565
	c23.854,15.957,55.41,25.108,86.574,25.108c31.165,0,62.719-9.151,86.574-25.108c26.61-17.799,41.265-42.149,41.265-68.565v-78.354
	C368.76,269.106,335.641,235.987,294.931,235.987z M230.923,255.987v19.59c-0.343-0.308-0.684-0.631-1.016-0.987
	c-2.167-2.32-3.922-5.654-5.955-9.515c-1.492-2.834-3.138-5.957-5.203-9.089H230.923z M348.76,388.171
	c0,19.526-11.501,37.973-32.385,51.942c-20.646,13.811-48.148,21.731-75.454,21.731s-54.807-7.921-75.454-21.732
	c-20.883-13.969-32.384-32.415-32.384-51.941v-78.354c0-29.338,23.595-53.252,52.803-53.803
	c12.125,2.784,15.617,9.358,20.367,18.379c2.477,4.704,5.038,9.569,9.037,13.851c6.793,7.271,15.977,11.209,26.035,11.209
	c0.646,0,1.297-0.016,1.951-0.049c13.937-0.697,27.762-8.748,37.93-22.086c3.348-4.393,2.502-10.667-1.891-14.016
	c-4.394-3.349-10.669-2.501-14.016,1.891c-4.168,5.468-9.207,9.609-14.378,11.985v-21.19h44.009
	c29.682,0,53.829,24.147,53.829,53.829V388.171z"/>
<g>
</g>
<g>
</g>
<g>
</g>
<g>
</g>
<g>
</g>
<g>
</g>
<g>
</g>
<g>
</g>
<g>
</g>
<g>
</g>
<g>
</g>
<g>
</g>
<g>
</g>
<g>
</g>
<g>
</g>
</svg>
