<?xml version="1.0" encoding="iso-8859-1"?>
<!-- Generator: Adobe Illustrator 17.1.0, SVG Export Plug-In . SVG Version: 6.00 Build 0)  -->
<!DOCTYPE svg PUBLIC "-//W3C//DTD SVG 1.1//EN" "http://www.w3.org/Graphics/SVG/1.1/DTD/svg11.dtd">
<svg version="1.1" id="Capa_1" xmlns="http://www.w3.org/2000/svg" xmlns:xlink="http://www.w3.org/1999/xlink" x="0px" y="0px"
	 viewBox="0 0 480.801 480.801" style="enable-background:new 0 0 480.801 480.801;" xml:space="preserve">
<path d="M480.704,266.33l-18.805-133.911c-1.378-9.816-9.893-17.219-19.806-17.219H96.364c-0.001,0-0.002,0-0.002,0H38.72
	c-9.926,0-18.442,7.414-19.811,17.247L0.095,267.824C0.032,268.28,0,268.74,0,269.201v76.399c0,11.028,8.972,20,20,20h440.801
	c11.028,0,20-8.972,20-20v-77.88C480.801,267.256,480.769,266.791,480.704,266.33z M460.801,345.601H20v-66.4h393.2
	c5.522,0,10-4.478,10-10s-4.478-10-10-10H21.486l17.234-124h46.639l-8.915,89.813c-0.546,5.495,3.468,10.393,8.963,10.938
	c0.337,0.033,0.67,0.05,1,0.05c5.078,0,9.427-3.854,9.939-9.013l9.111-91.788h38.035l-4.482,90.304
	c-0.274,5.517,3.976,10.21,9.491,10.483c0.169,0.009,0.337,0.013,0.504,0.013c5.295,0,9.715-4.157,9.979-9.504l4.531-91.296H201.4
	l-1.799,90.602c-0.109,5.521,4.277,10.087,9.8,10.196c0.067,0.001,0.135,0.002,0.202,0.002c5.431,0,9.886-4.348,9.994-9.802
	l1.806-90.998h37.993l1.806,90.998c0.108,5.454,4.563,9.802,9.994,9.802c0.067,0,0.135-0.001,0.202-0.002
	c5.522-0.109,9.909-4.675,9.8-10.196l-1.799-90.602h37.885l4.531,91.296c0.265,5.347,4.684,9.504,9.979,9.504
	c0.167,0,0.335-0.004,0.504-0.013c5.516-0.273,9.766-4.967,9.491-10.483l-4.482-90.304h38.035l9.111,91.788
	c0.513,5.159,4.861,9.013,9.939,9.013c0.33,0,0.664-0.017,1-0.05c5.495-0.546,9.509-5.443,8.963-10.938l-8.915-89.813h46.652
	l18.707,133.22l0.013,77.18C460.813,345.6,460.81,345.601,460.801,345.601z"/>
<g>
</g>
<g>
</g>
<g>
</g>
<g>
</g>
<g>
</g>
<g>
</g>
<g>
</g>
<g>
</g>
<g>
</g>
<g>
</g>
<g>
</g>
<g>
</g>
<g>
</g>
<g>
</g>
<g>
</g>
</svg>
