<?xml version="1.0" encoding="iso-8859-1"?>
<!-- Generator: Adobe Illustrator 17.1.0, SVG Export Plug-In . SVG Version: 6.00 Build 0)  -->
<!DOCTYPE svg PUBLIC "-//W3C//DTD SVG 1.1//EN" "http://www.w3.org/Graphics/SVG/1.1/DTD/svg11.dtd">
<svg version="1.1" id="Capa_1" xmlns="http://www.w3.org/2000/svg" xmlns:xlink="http://www.w3.org/1999/xlink" x="0px" y="0px"
	 viewBox="0 0 485.287 485.287" style="enable-background:new 0 0 485.287 485.287;" xml:space="preserve">
<path d="M411.936,70.112C366.552,45.357,306.43,31.725,242.644,31.725S118.735,45.357,73.352,70.112
	C26.05,95.913,0,130.897,0,168.621v148.045c0,37.724,26.05,72.708,73.352,98.509c45.384,24.755,105.506,38.388,169.292,38.388
	s123.908-13.633,169.292-38.388c47.302-25.801,73.352-60.785,73.352-98.509V168.621C485.287,130.897,459.237,95.913,411.936,70.112z
	 M465.287,316.666c0,30.067-22.349,58.816-62.929,80.95c-42.497,23.181-99.218,35.946-159.715,35.946
	s-117.218-12.766-159.715-35.946C42.349,375.482,20,346.733,20,316.666v-92.943c12.399,16.144,30.355,30.862,53.352,43.405
	c45.384,24.755,105.507,38.388,169.292,38.388c71.396,0,138.716-17.355,184.698-47.615c4.613-3.036,5.893-9.237,2.856-13.851
	c-3.036-4.612-9.235-5.893-13.851-2.856c-42.803,28.167-106.115,44.322-173.704,44.322c-60.497,0-117.218-12.766-159.715-35.946
	C42.349,227.437,20,198.688,20,168.621c0-30.067,22.349-58.815,62.929-80.95c42.497-23.181,99.218-35.946,159.715-35.946
	S359.861,64.49,402.358,87.671c40.58,22.135,62.929,50.883,62.929,80.95V316.666z M121.642,163.05c0,15.66,12.74,28.4,28.4,28.4
	h28.399v-18.4h-15.6c-5.522,0-10-4.478-10-10s4.478-10,10-10h25.6c5.522,0,10,4.478,10,10v28.4c0,11.028-8.972,20-20,20h-28.399
	c-26.688,0-48.4-21.712-48.4-48.4s21.712-48.4,48.4-48.4h38.399c5.522,0,10,4.478,10,10s-4.478,10-10,10h-38.399
	C134.382,134.649,121.642,147.39,121.642,163.05z M249.642,124.649v76.801c0,5.522-4.478,10-10,10s-10-4.478-10-10v-76.801
	c0-5.522,4.478-10,10-10S249.642,119.127,249.642,124.649z M377.642,124.649v76.801c0,4.045-2.437,7.691-6.173,9.239
	c-1.237,0.512-2.537,0.761-3.825,0.761c-2.603,0-5.16-1.016-7.073-2.929l-59.729-59.729v52.658c0,5.522-4.478,10-10,10
	s-10-4.478-10-10v-76.801c0-4.045,2.437-7.691,6.173-9.239c3.737-1.546,8.038-0.692,10.898,2.168l59.729,59.729v-52.658
	c0-5.522,4.478-10,10-10S377.642,119.127,377.642,124.649z"/>
<g>
</g>
<g>
</g>
<g>
</g>
<g>
</g>
<g>
</g>
<g>
</g>
<g>
</g>
<g>
</g>
<g>
</g>
<g>
</g>
<g>
</g>
<g>
</g>
<g>
</g>
<g>
</g>
<g>
</g>
</svg>
