<?xml version="1.0" encoding="iso-8859-1"?>
<!-- Generator: Adobe Illustrator 19.0.0, SVG Export Plug-In . SVG Version: 6.00 Build 0)  -->
<svg xmlns="http://www.w3.org/2000/svg" xmlns:xlink="http://www.w3.org/1999/xlink" version="1.1" id="Layer_1" x="0px" y="0px" viewBox="0 0 496.195 496.195" style="enable-background:new 0 0 496.195 496.195;" xml:space="preserve" width="512" height="512">
<g>
	<path d="M481.18,81.687H125.59c-7.73-30.29-34.8-51.65-66.65-51.65H15c-8.29,0-15,6.71-15,15c0,8.28,6.71,15,15,15h43.94   c37.327,0,38.845,38.793,40.22,42.21l36.93,184.27l-11.43,56.05c-30.99,3.39-55.17,29.73-55.17,61.61   c0,34.18,27.8,61.98,61.98,61.98c29.01,0,53.43-20.02,60.15-46.98h100.02c6.72,26.96,31.14,46.98,60.14,46.98   c34.18,0,61.99-27.8,61.99-61.98c0-34.18-27.81-61.99-61.99-61.99c-29,0-53.42,20.03-60.14,46.99H191.62   c-4.84-19.42-18.86-35.24-37.17-42.57l9.19-45.06h247.94c6.29,0,11.91-3.93,14.08-9.84l69.61-189.86   C498.851,92.042,491.581,81.687,481.18,81.687z M351.78,372.187c17.64,0,31.99,14.35,31.99,31.99c0,17.64-14.35,31.98-31.99,31.98   c-17.705,0-31.98-14.433-31.98-31.98C319.8,386.544,334.14,372.187,351.78,372.187z M163.46,404.177   c0,17.557-14.282,31.98-31.99,31.98c-17.63,0-31.98-14.34-31.98-31.98c0-17.61,14.316-31.99,31.98-31.99   C149.07,372.187,163.46,386.495,163.46,404.177z M401.1,271.547H163.69l-32.03-159.86h328.05L401.1,271.547z"/>
	<path d="M207.21,206.797h33.7v28.48c0,8.29,6.72,15,15,15c8.29,0,15-6.71,15-15v-28.48h36.45v28.48c0,8.29,6.71,15,15,15   c8.28,0,15-6.71,15-15v-28.48h33.7c8.29,0,15-6.71,15-15c0-8.28-6.71-15-15-15h-33.7v-25.88c0-8.29-6.72-15-15-15   c-8.29,0-15,6.71-15,15v25.88h-36.45v-25.88c0-8.29-6.71-15-15-15c-8.28,0-15,6.71-15,15v25.88h-33.7c-8.29,0-15,6.72-15,15   C192.21,200.087,198.92,206.797,207.21,206.797z"/>
</g>















</svg>
