<?xml version="1.0" encoding="iso-8859-1"?>
<!-- Generator: Adobe Illustrator 19.0.0, SVG Export Plug-In . SVG Version: 6.00 Build 0)  -->
<svg xmlns="http://www.w3.org/2000/svg" xmlns:xlink="http://www.w3.org/1999/xlink" version="1.1" id="Layer_1" x="0px" y="0px" viewBox="0 0 493.334 493.334" style="enable-background:new 0 0 493.334 493.334;" xml:space="preserve" width="512" height="512">
<g>
	<path d="M478.334,334.601h-8.105c5.074-53.372-30.805-100.777-77.466-97.01c20.525-60.264-19.491-127.216-75.773-119.728   C329.322,63.097,295.542,7.733,246.667,7.733c-48.763,0-82.688,55.218-70.324,110.129c-56.494-7.516-96.291,59.734-75.73,119.848   c-47.106-4.829-83.941,42.806-78.798,96.89H15c-8.284,0-15,6.716-15,15v47.816c0,8.284,6.716,15,15,15h9.536l4.75,48.8   c1.337,13.901,12.885,24.383,26.861,24.383h76.92c13.973,0,25.516-10.483,26.85-24.364l4.759-48.819h10.45l4.753,48.822   c1.356,13.889,12.902,24.362,26.858,24.362h76.92c13.956,0,25.502-10.473,26.859-24.367l4.752-48.817h12.089l4.758,48.798   c1.336,13.902,12.884,24.385,26.862,24.385h76.92c13.973,0,25.516-10.483,26.849-24.364l4.761-48.819h10.827   c8.284,0,15-6.716,15-15v-47.816C493.334,341.316,486.618,334.601,478.334,334.601z M397.847,267.361   c26.865,0,46.867,32.582,42.206,67.24h-84.401C350.959,299.635,371.214,267.361,397.847,267.361z M325.29,147.295   c23.636,0,42.865,25.666,42.865,57.214c0,31.548-19.229,57.214-42.865,57.214s-42.865-25.666-42.865-57.214   C282.425,172.961,301.654,147.295,325.29,147.295z M325.475,334.601h-7.076c1.401-14.736-0.234-29.846-5.253-44.081   c6.378,1.259,11.843,1.409,17.23,0.974C325.804,304.924,324.054,319.657,325.475,334.601z M238.368,181.594   c5.676,0.755,10.917,0.756,16.599,0c-4.268,18.954-3.135,39.003,3.2,56.971c-7.651-1.51-15.241-1.602-22.901-0.271   C241.457,220.564,242.652,200.623,238.368,181.594z M246.017,267.361c26.865,0,46.867,32.582,42.206,67.24h-84.401   C199.129,299.635,219.384,267.361,246.017,267.361z M246.667,37.733c23.636,0,42.865,25.666,42.865,57.214   c0,31.548-19.229,57.214-42.865,57.214s-42.865-25.666-42.865-57.214C203.802,63.399,223.031,37.733,246.667,37.733z    M168.044,147.295c23.636,0,42.865,25.666,42.865,57.214c0,31.548-19.229,57.214-42.865,57.214s-42.865-25.666-42.865-57.214   C125.179,172.961,144.408,147.295,168.044,147.295z M173.645,334.601h-7.075c1.369-14.399-0.156-29.221-4.946-43.226   c5.519,0.565,11.027,0.483,17.175-0.585C174.108,304.224,172.179,319.178,173.645,334.601z M94.187,267.361   c26.672,0,46.893,32.313,42.207,67.24H51.991c-0.441-3.29-0.664-6.639-0.664-10.03C51.327,293.025,70.554,267.361,94.187,267.361z    M130.324,455.601H58.881l-4.202-43.18h79.855L130.324,455.601z M280.923,455.601h-71.451l-4.203-43.18h79.857L280.923,455.601z    M433.154,455.601H361.71l-4.21-43.18h79.864L433.154,455.601z M463.334,382.417H30v-17.816c20.233,0,412.657,0,433.334,0V382.417z   "/>
</g>















</svg>
