<?xml version="1.0" encoding="iso-8859-1"?>
<!-- Generator: Adobe Illustrator 19.0.0, SVG Export Plug-In . SVG Version: 6.00 Build 0)  -->
<svg xmlns="http://www.w3.org/2000/svg" xmlns:xlink="http://www.w3.org/1999/xlink" version="1.1" id="Layer_1" x="0px" y="0px" viewBox="0 0 492.175 492.175" style="enable-background:new 0 0 492.175 492.175;" xml:space="preserve" width="512" height="512">
<g>
	<path d="M487.777,106.565L385.607,4.395c-5.86-5.86-15.36-5.86-21.21,0l-32.06,32.06l-61.31,10.48   c-3.563,0.612-6.131,2.247-8.46,4.57l-211.06,211.06c-2.446,2.447-3.711,5.268-4.26,8.56l-10.41,60.83l-32.44,32.44   c-5.86,5.86-5.86,15.35,0,21.21l102.17,102.17c5.844,5.844,15.322,5.889,21.21,0l32.82-32.82h0l60.29-10.32   c3.26-0.525,6.09-1.879,8.45-4.24c0.101-0.101,211.167-211.161,211.26-211.27c2.26-2.17,3.82-5.05,4.37-8.25l10.37-60.66   l32.44-32.44C493.637,121.915,493.637,112.425,487.777,106.565z M218.737,408.575c-2.307-2.303-131.012-131.009-135.41-135.4   l189.85-189.85c10.683,10.701,117.873,117.883,135.4,135.41L218.737,408.575z M51.137,360.085l80.96,80.96l-14.92,14.91   l-80.96-80.96L51.137,360.085z M158.377,424.895c-7.473-7.473-87.934-87.935-91.37-91.37c2.674-15.663,1.542-9.043,5-29.24   c7.141,7.141,110.992,110.992,115.61,115.61C168.222,423.207,174.834,422.076,158.377,424.895z M420.277,187.235   c-7.987-7.987-112.124-112.124-115.61-115.61c20.163-3.442,13.562-2.314,29.25-5c9.35,9.332-5.657-5.664,91.37,91.36   C422.527,174.103,423.078,170.883,420.277,187.235z M441.428,131.705l-80.96-80.96l14.53-14.53l80.96,80.96L441.428,131.705z"/>
	<path d="M291.017,217.665c-20.836,8.153-43.766-3.721-49.86-24.4c-2.485-8.507-11.772-12.905-19.85-9.73   c-50.53,19.746-58.128,87.432-14.268,118.372c52.055,36.722,121.944-13.112,103.818-74.522   C308.378,218.988,299.226,214.474,291.017,217.665z M220.267,218.955c13.18,20.519,37.1,33.315,63.2,31.01   c-2.491,27.779-33.184,42.734-56.335,29.371C206.652,267.515,200.657,237.106,220.267,218.955z"/>
</g>















</svg>
