<?xml version="1.0" encoding="iso-8859-1"?>
<!-- Generator: Adobe Illustrator 19.0.0, SVG Export Plug-In . SVG Version: 6.00 Build 0)  -->
<svg xmlns="http://www.w3.org/2000/svg" xmlns:xlink="http://www.w3.org/1999/xlink" version="1.1" id="Layer_1" x="0px" y="0px" viewBox="0 0 492.14 492.14" style="enable-background:new 0 0 492.14 492.14;" xml:space="preserve" width="512" height="512">
<g>
	<path d="M308.12,150.44c6.15-8.44,9.78-18.83,9.78-30.05c0-17.46-8.8-32.91-22.2-42.14V15c0-8.29-6.71-15-15-15h-69.26   c-8.29,0-15,6.71-15,15v63.25c-13.4,9.23-22.2,24.68-22.2,42.14c0,11.22,3.63,21.61,9.78,30.05   c-40.97,22.15-68.87,65.5-68.87,115.25c0,1.065,0,176.534,0,180.71c0,25.22,20.52,45.74,45.74,45.74h170.36   c25.22,0,45.74-20.52,45.74-45.74c0-41.619,0-142.389,0-180.71C376.99,215.94,349.09,172.59,308.12,150.44z M226.44,30h39.26v39.26   h-39.26V30z M225.37,99.26h41.4c11.65,0,21.13,9.48,21.13,21.13c0,7.74-4.18,14.52-10.41,18.2c-20.53-5.076-42.265-5.087-62.84,0   c-6.23-3.68-10.41-10.46-10.41-18.2C204.24,108.74,213.72,99.26,225.37,99.26z M346.99,446.4c0,8.68-7.06,15.74-15.74,15.74H160.89   c-8.68,0-15.74-7.06-15.74-15.74v-29.13h201.84V446.4z M346.99,387.27H145.15v-79.53h201.84V387.27z M346.99,277.74H145.15v-12.05   c0-44.28,28.67-81.99,68.43-95.54c20.979-7.157,43.968-7.169,64.98,0c39.76,13.55,68.43,51.26,68.43,95.54V277.74z"/>
</g>















</svg>
