<?xml version="1.0" encoding="iso-8859-1"?>
<!-- Generator: Adobe Illustrator 19.0.0, SVG Export Plug-In . SVG Version: 6.00 Build 0)  -->
<svg xmlns="http://www.w3.org/2000/svg" xmlns:xlink="http://www.w3.org/1999/xlink" version="1.1" id="Layer_1" x="0px" y="0px" viewBox="0 0 494 494" style="enable-background:new 0 0 494 494;" xml:space="preserve" width="512" height="512">
<g>
	<path d="M247,0C121.916,0,16.437,69,16.437,159.484c0,37.207,18.437,72.947,52.09,101.325V449c0,24.813,20.187,45,45,45h266.947   c24.813,0,45-20.187,45-45V260.809c33.653-28.378,52.09-64.118,52.09-101.325C477.563,58.132,355.208,0,247,0z M401.255,241.829   c-3.648,2.842-5.781,7.208-5.781,11.833V449c0,8.271-6.729,15-15,15H113.527c-8.271,0-15-6.729-15-15V253.661   c0-4.625-2.133-8.991-5.781-11.833c-29.863-23.267-46.309-52.51-46.309-82.345C46.437,88.108,137.549,30,247,30   c98.269,0,200.563,51.327,200.563,129.484C447.563,189.318,431.117,218.562,401.255,241.829z"/>
	<path d="M289.088,274.5c-8.284,0-15,6.716-15,15v13c0,8.284,6.716,15,15,15s15-6.716,15-15v-13   C304.088,281.216,297.372,274.5,289.088,274.5z"/>
	<path d="M335.586,388.772c-8.284,0-15,6.716-15,15v13c0,8.284,6.716,15,15,15s15-6.716,15-15v-13   C350.586,395.488,343.87,388.772,335.586,388.772z"/>
	<path d="M193,232c-8.284,0-15,6.716-15,15v13c0,8.284,6.716,15,15,15s15-6.716,15-15v-13C208,238.716,201.284,232,193,232z"/>
	<path d="M361,149.526c-8.284,0-15,6.716-15,15v10.563c0,8.284,6.716,15,15,15s15-6.716,15-15v-10.563   C376,156.242,369.284,149.526,361,149.526z"/>
	<path d="M288.333,128.807v-10.563c0-8.284-6.716-15-15-15s-15,6.716-15,15v10.563c0,8.284,6.716,15,15,15   S288.333,137.091,288.333,128.807z"/>
	<path d="M148,118c-8.284,0-15,6.716-15,15v10.563c0,8.284,6.716,15,15,15s15-6.716,15-15V133C163,124.716,156.284,118,148,118z"/>
	<path d="M193,373c-8.284,0-15,6.716-15,15v10.563c0,8.284,6.716,15,15,15s15-6.716,15-15V388C208,379.716,201.284,373,193,373z"/>
</g>















</svg>
