<?xml version="1.0" encoding="iso-8859-1"?>
<!-- Generator: Adobe Illustrator 19.0.0, SVG Export Plug-In . SVG Version: 6.00 Build 0)  -->
<svg xmlns="http://www.w3.org/2000/svg" xmlns:xlink="http://www.w3.org/1999/xlink" version="1.1" id="Layer_1" x="0px" y="0px" viewBox="0 0 489.221 489.221" style="enable-background:new 0 0 489.221 489.221;" xml:space="preserve" width="512" height="512">
<g>
	<path d="M319.757,0H177.255c-8.284,0-15,6.716-15,15v18.098h-26.359V15c0-8.284-6.716-15-15-15H65.588c-8.284,0-15,6.716-15,15   v126.647c0,8.284,6.716,15,15,15h55.308c8.284,0,15-6.716,15-15V123.55h26.359v18.097c0,8.284,6.716,15,15,15h26.168   l-5.913,272.318c-0.72,33.099,25.858,60.255,58.96,60.255c33.107,0,59.678-27.163,58.959-60.254l-5.913-272.319h114.117   c8.284,0,15-6.716,15-15v-22.771C438.633,53.328,385.306,0,319.757,0z M105.896,126.647H80.588V30h25.308   C105.896,42.546,105.896,115.675,105.896,126.647z M162.255,93.55h-26.359V63.098h26.359V93.55z M256.47,459.221   c-16.266,0-29.321-13.345-28.968-29.603l5.928-272.97h46.079l5.928,272.971C285.79,445.879,272.732,459.221,256.47,459.221z    M408.633,126.647c-9.556,0-208.515,0-216.378,0c0-12.546,0-85.675,0-96.647h127.502c49.007,0,88.876,39.87,88.876,88.876V126.647z   "/>
</g>















</svg>
