<?xml version="1.0" encoding="iso-8859-1"?>
<!-- Generator: Adobe Illustrator 19.0.0, SVG Export Plug-In . SVG Version: 6.00 Build 0)  -->
<svg xmlns="http://www.w3.org/2000/svg" xmlns:xlink="http://www.w3.org/1999/xlink" version="1.1" id="Layer_1" x="0px" y="0px" viewBox="0 0 496.477 496.477" style="enable-background:new 0 0 496.477 496.477;" xml:space="preserve" width="512" height="512">
<g>
	<path d="M451.477,89.996H45c-24.813,0-45,20.187-45,45c0,9.378,0,216.728,0,226.485c0,24.813,20.187,45,45,45h406.477   c24.813,0,45-20.187,45-45c0-11.283,0-217.876,0-226.485C496.477,110.183,476.29,89.996,451.477,89.996z M45,119.996h406.477   c8.271,0,15,6.729,15,15v20.85H30v-20.85C30,126.725,36.729,119.996,45,119.996z M466.477,224.238H30v-38.393h436.477V224.238z    M451.477,376.481H45c-8.271,0-15-6.729-15-15V254.238h436.477v107.243C466.477,369.752,459.748,376.481,451.477,376.481z"/>
	<path d="M189.238,303.238h-117c-8.284,0-15,6.716-15,15s6.716,15,15,15h117c8.284,0,15-6.716,15-15   S197.522,303.238,189.238,303.238z"/>
	<path d="M394.238,272.238c-25.364,0-46,20.636-46,46s20.636,46,46,46s46-20.636,46-46S419.603,272.238,394.238,272.238z    M394.238,334.238c-8.822,0-16-7.178-16-16s7.178-16,16-16s16,7.178,16,16S403.061,334.238,394.238,334.238z"/>
</g>















</svg>
