<?xml version="1.0" encoding="iso-8859-1"?>
<!-- Generator: Adobe Illustrator 19.0.0, SVG Export Plug-In . SVG Version: 6.00 Build 0)  -->
<svg xmlns="http://www.w3.org/2000/svg" xmlns:xlink="http://www.w3.org/1999/xlink" version="1.1" id="Layer_1" x="0px" y="0px" viewBox="0 0 492.88 492.88" style="enable-background:new 0 0 492.88 492.88;" xml:space="preserve" width="512" height="512">
<g>
	<path d="M397.22,71.02V15c0-8.29-6.71-15-15-15H110.66c-8.29,0-15,6.71-15,15v56.02c-18.96,116.4-18.96,234.44,0,350.84v56.02   c0,8.29,6.71,15,15,15h271.56c8.29,0,15-6.71,15-15v-56.02C416.18,305.46,416.18,187.42,397.22,71.02z M123.47,405.61   c-16.03-105.69-16.03-212.65,0-318.34c2.865,0,243.105,0,245.94,0c16.03,105.69,16.03,212.65,0,318.34   C366.545,405.61,126.305,405.61,123.47,405.61z M125.66,30h241.56v27.27H125.66V30z M367.22,462.88H125.66v-27.27h241.56V462.88z"/>
	<path d="M336.83,185.3c-19.255-16.676-51.738-1.6-90.39-1.6c-38.649,0-71.136-15.076-90.39,1.6   c-16.252,14.082-11.484,42.399-1.55,61.69c-6.01,6.06-9.06,14.67-9.06,25.62c0,42.887,45.209,91.66,101,91.66   c55.553,0,101-48.554,101-91.66c0-10.95-3.05-19.56-9.06-25.62C348.316,227.694,353.065,199.368,336.83,185.3z M246.44,334.27   c-38.541,0-69.252-33.794-70.93-59.52c19.91,18.88,45.09,29.28,70.93,29.28s51.02-10.4,70.93-29.28   C315.689,300.524,284.935,334.27,246.44,334.27z M246.44,213.7c30.659,0,62.449-8.781,70.52-5.76c0.19,0.59,0.48,1.93,0.48,4.42   c0,23.237-26.838,60.214-71.001,61.514c-36.632,1.079-70.999-33.763-70.999-61.514c0-2.49,0.29-3.83,0.48-4.42   C183.916,204.94,216.021,213.7,246.44,213.7z"/>
</g>















</svg>
