<?xml version="1.0" encoding="iso-8859-1"?>
<!-- Generator: Adobe Illustrator 19.0.0, SVG Export Plug-In . SVG Version: 6.00 Build 0)  -->
<svg xmlns="http://www.w3.org/2000/svg" xmlns:xlink="http://www.w3.org/1999/xlink" version="1.1" id="Layer_1" x="0px" y="0px" viewBox="0 0 488.12 488.12" style="enable-background:new 0 0 488.12 488.12;" xml:space="preserve" width="512" height="512">
<g>
	<path d="M434.55,205.66h-61.72L290.81,93.62c7.37-9.78,11.75-21.96,11.75-35.12c0-32.26-26.24-58.5-58.5-58.5   s-58.5,26.24-58.5,58.5c0,13.16,4.38,25.34,11.75,35.12l-82.02,112.04H53.57c-24.81,0-45,20.19-45,45v192.46   c0,24.82,20.19,45,45,45h380.98c24.81,0,45-20.18,45-45V250.66C479.55,225.85,459.36,205.66,434.55,205.66z M215.56,58.5   c0-15.72,12.79-28.5,28.5-28.5s28.5,12.78,28.5,28.5c0,15.742-12.809,28.5-28.5,28.5C228.417,87,215.56,74.288,215.56,58.5z    M220.88,112.21c14.472,6.269,31.338,6.508,46.36,0l68.41,93.45H152.47L220.88,112.21z M449.55,443.12c0,8.27-6.73,15-15,15H53.57   c-8.27,0-15-6.73-15-15V250.66c0-8.27,6.73-15,15-15c11.062,0,365.843,0,380.98,0c8.27,0,15,6.73,15,15V443.12z"/>
	<path d="M96.41,292.22c-24.04,0-43.6,19.56-43.6,43.6v22.15c0,24.04,19.56,43.6,43.6,43.6c24.04,0,43.6-19.56,43.6-43.6v-22.15   C140.01,311.78,120.45,292.22,96.41,292.22z M110.01,357.97c0,7.5-6.1,13.6-13.6,13.6s-13.6-6.1-13.6-13.6v-22.15   c0-7.5,6.1-13.6,13.6-13.6s13.6,6.1,13.6,13.6V357.97z"/>
	<path d="M321.88,322.22c8.28,0,15-6.72,15-15c0-8.29-6.72-15-15-15h-57.2c-8.29,0-15,6.71-15,15v79.35c0,8.28,6.71,15,15,15h57.2   c8.28,0,15-6.72,15-15c0-8.29-6.72-15-15-15h-42.2v-9.68h25.05c8.28,0,15-6.71,15-15c0-8.28-6.72-15-15-15h-25.05v-9.67H321.88z"/>
	<path d="M420.31,292.22c-8.28,0-15,6.71-15,15v32.89l-30.03-41.66c-8.522-11.81-27.17-5.717-27.17,8.77v79.35c0,8.28,6.72,15,15,15   c8.29,0,15-6.72,15-15v-32.89l30.03,41.66c8.55,11.816,27.17,5.681,27.17-8.77v-79.35C435.31,298.93,428.59,292.22,420.31,292.22z"/>
	<path d="M203.6,292.22h-37.36c-8.28,0-15,6.71-15,15c0,24.657,0,54.732,0,79.35c0,8.28,6.72,15,15,15c8.29,0,15-6.72,15-15v-24.68   h22.36c19.21,0,34.84-15.62,34.84-34.83S222.81,292.22,203.6,292.22z M203.6,331.89h-22.36v-9.67h22.36c2.67,0,4.84,2.17,4.84,4.84   C208.44,329.72,206.27,331.89,203.6,331.89z"/>
</g>















</svg>
