<?xml version="1.0" encoding="iso-8859-1"?>
<!-- Generator: Adobe Illustrator 19.0.0, SVG Export Plug-In . SVG Version: 6.00 Build 0)  -->
<svg xmlns="http://www.w3.org/2000/svg" xmlns:xlink="http://www.w3.org/1999/xlink" version="1.1" id="Layer_1" x="0px" y="0px" viewBox="0 0 499.885 499.885" style="enable-background:new 0 0 499.885 499.885;" xml:space="preserve" width="512" height="512">
<g>
	<path d="M380.57,147.042l-25.373-80.728V15c0-8.284-6.716-15-15-15h-180.51c-8.284,0-15,6.716-15,15v51.315l-25.373,80.728   c-0.462,1.454-0.706,3.251-0.706,4.546c0,7.2,0,326.083,0,333.296c0,8.284,6.716,15,15,15h232.666c8.284,0,15-6.716,15-15   c0-7.215,0-326.096,0-333.296C381.275,150.32,381.038,148.517,380.57,147.042z M351.275,372.929H148.609v-93.404h202.666V372.929z    M148.609,249.524v-82.936h202.666v82.936H148.609z M170.696,83.616h158.492l16.649,52.973H154.047L170.696,83.616z M174.688,30   h150.51v23.616h-150.51V30z M148.609,469.885v-66.956h202.666v66.956H148.609z"/>
	<path d="M191.261,341.227h116.677c8.284,0,15-6.716,15-15s-6.716-15-15-15H191.261c-8.284,0-15,6.716-15,15   S182.977,341.227,191.261,341.227z"/>
</g>















</svg>
