<?xml version="1.0" encoding="iso-8859-1"?>
<!-- Generator: Adobe Illustrator 19.0.0, SVG Export Plug-In . SVG Version: 6.00 Build 0)  -->
<svg xmlns="http://www.w3.org/2000/svg" xmlns:xlink="http://www.w3.org/1999/xlink" version="1.1" id="Layer_1" x="0px" y="0px" viewBox="0 0 499.96 499.96" style="enable-background:new 0 0 499.96 499.96;" xml:space="preserve" width="512" height="512">
<g>
	<path d="M484.96,218.828h-39.313V106.219c0-8.284-6.716-15-15-15h-132c-8.284,0-15,6.716-15,15v112.609h-97.978v-79.184h67   c8.284,0,15-6.716,15-15V22.312c0-8.284-6.716-15-15-15H32.413c-8.284,0-15,6.716-15,15v102.333c0,8.284,6.716,15,15,15h67v79.184   H15c-8.284,0-15,6.716-15,15v243.82c0,8.284,6.716,15,15,15h469.96c8.284,0,15-6.716,15-15v-243.82   C499.96,225.544,493.244,218.828,484.96,218.828z M415.646,121.219c0,5.283,0.003,138.787,0.003,144.049h-102   c0-4.258-0.003-138.478-0.003-144.049H415.646z M47.413,109.645V37.312h190.256v72.333   C230.763,109.645,55.823,109.645,47.413,109.645z M155.669,139.645v79.184h-26.256v-79.184H155.669z M469.96,462.648H30v-213.82   c10.55,0,241.922,0,253.65,0v31.44c0,8.284,6.716,15,15,15h132c8.284,0,15-6.716,15-15v-31.44h24.31V462.648z"/>
	<path d="M335.461,333.978h-13.628c-8.284,0-15,6.716-15,15s6.716,15,15,15h13.628c8.284,0,15-6.716,15-15   S343.745,333.978,335.461,333.978z"/>
	<path d="M402.127,333.978h-13.628c-8.284,0-15,6.716-15,15s6.716,15,15,15h13.628c8.284,0,15-6.716,15-15   S410.412,333.978,402.127,333.978z"/>
	<path d="M335.461,391.978h-13.628c-8.284,0-15,6.716-15,15s6.716,15,15,15h13.628c8.284,0,15-6.716,15-15   S343.745,391.978,335.461,391.978z"/>
	<path d="M402.127,391.978h-13.628c-8.284,0-15,6.716-15,15s6.716,15,15,15h13.628c8.284,0,15-6.716,15-15   S410.412,391.978,402.127,391.978z"/>
	<path d="M342.313,181.585h44.667c8.284,0,15-6.716,15-15s-6.716-15-15-15h-44.667c-8.284,0-15,6.716-15,15   S334.029,181.585,342.313,181.585z"/>
	<path d="M342.313,231.704h44.667c8.284,0,15-6.716,15-15s-6.716-15-15-15h-44.667c-8.284,0-15,6.716-15,15   S334.029,231.704,342.313,231.704z"/>
	<path d="M199.041,58.478h-113c-8.284,0-15,6.716-15,15s6.716,15,15,15h113c8.284,0,15-6.716,15-15S207.325,58.478,199.041,58.478z"/>
	<path d="M213.145,270.134c-3.058,0-138.149,0-141.207,0c-8.284,0-15,6.716-15,15c0,3.058,0,138.148,0,141.207   c0,8.284,6.716,15,15,15c3.058,0,138.149,0,141.207,0c8.284,0,15-6.716,15-15c0-3.058,0-138.148,0-141.207   C228.145,276.849,221.429,270.134,213.145,270.134z M127.541,411.34H86.938v-40.604h40.604V411.34z M127.541,340.737H86.938   v-40.603h40.604V340.737z M198.145,411.34h-40.604v-40.604h40.604V411.34z M198.145,340.737h-40.604v-40.603h40.604V340.737z"/>
</g>















</svg>
