<?xml version="1.0" encoding="iso-8859-1"?>
<!-- Generator: Adobe Illustrator 19.0.0, SVG Export Plug-In . SVG Version: 6.00 Build 0)  -->
<svg xmlns="http://www.w3.org/2000/svg" xmlns:xlink="http://www.w3.org/1999/xlink" version="1.1" id="Layer_1" x="0px" y="0px" viewBox="0 0 497.266 497.266" style="enable-background:new 0 0 497.266 497.266;" xml:space="preserve" width="512" height="512">
<g>
	<path d="M221.263,234.732h-3.883v-82.923c0-7.956-6.199-14.447-14.027-14.951V35.47c0-26.154-27.351-43.259-50.853-31.896   L95.166,31.296c-12.153,5.875-20.007,18.396-20.007,31.896v73.666c-7.829,0.503-14.027,6.995-14.027,14.951v82.923h-3.884   c-8.284,0-15,6.716-15,15v202.534c0,24.813,20.187,45,45,45h104.015c24.813,0,45-20.187,45-45V249.732   C236.263,241.448,229.547,234.732,221.263,234.732z M105.159,63.193c0-2.069,1.203-3.987,3.065-4.888l57.334-27.722   c3.615-1.749,7.794,0.867,7.794,4.888v101.338h-68.193V63.193z M91.132,166.809h96.248v67.923H91.132V166.809z M206.263,452.266   c0,8.271-6.729,15-15,15H87.248c-8.271,0-15-6.729-15-15V264.732c6.535,0,127.559,0,134.015,0V452.266z"/>
	<path d="M410.018,199.55H306.003c-24.813,0-45,20.187-45,45v237.716c0,8.284,6.716,15,15,15h164.015c8.284,0,15-6.716,15-15V244.55   C455.018,219.737,434.831,199.55,410.018,199.55z M425.018,467.266H291.003V244.55c0-8.271,6.729-15,15-15h104.015   c8.271,0,15,6.729,15,15V467.266z"/>
</g>















</svg>
