<?xml version="1.0" encoding="iso-8859-1"?>
<!-- Generator: Adobe Illustrator 19.0.0, SVG Export Plug-In . SVG Version: 6.00 Build 0)  -->
<svg xmlns="http://www.w3.org/2000/svg" xmlns:xlink="http://www.w3.org/1999/xlink" version="1.1" id="Layer_1" x="0px" y="0px" viewBox="0 0 498.631 498.631" style="enable-background:new 0 0 498.631 498.631;" xml:space="preserve" width="512" height="512">
<g>
	<path d="M463.043,35.578c-52.261-52.24-143.86-46.58-205.07,14.63c-45.75,45.75-83.758,133.72-70.52,195.6l-100.18,100.18   c-22.24-12.85-51.23-9.78-70.23,9.22c-22.727,22.727-22.722,59.497,0,82.22c7.97,7.97,17.78,13.32,28.49,15.66   c2.34,10.7,7.69,20.52,15.66,28.49c22.727,22.727,59.498,22.721,82.22,0c19-19,22.07-47.99,9.22-70.23l100.18-100.18   c61.625,13.274,149.804-24.724,195.6-70.52C508.093,180.969,516.594,89.149,463.043,35.578z M122.193,399.358   c-5.85,5.86-5.85,15.36,0,21.21c10.97,10.97,10.97,28.82,0,39.79c-10.964,10.985-28.758,11.032-39.79,0   c-5.48-5.48-8.4-12.79-8.22-20.57c0.228-9.34-8.081-15.942-15.35-15.35c-7.76,0.18-15.09-2.74-20.57-8.22   c-11.021-11.021-10.997-28.814,0-39.79c10.964-10.985,28.758-11.032,39.79,0c5.85,5.85,15.35,5.85,21.21,0l100.32-100.33   c6.008,9.376,13.788,17.083,22.93,22.94L122.193,399.358z M427.203,219.429c-51.477,51.497-157.961,86.411-196.19,48.18   c-38.257-38.255-3.269-144.761,48.18-196.19c48.882-48.882,121.825-55.426,162.63-14.62   C482.633,97.598,476.073,170.558,427.203,219.429z"/>
</g>















</svg>
