<?xml version="1.0" encoding="iso-8859-1"?>
<!-- Generator: Adobe Illustrator 19.0.0, SVG Export Plug-In . SVG Version: 6.00 Build 0)  -->
<svg xmlns="http://www.w3.org/2000/svg" xmlns:xlink="http://www.w3.org/1999/xlink" version="1.1" id="Layer_1" x="0px" y="0px" viewBox="0 0 493.07 493.07" style="enable-background:new 0 0 493.07 493.07;" xml:space="preserve" width="512" height="512">
<g>
	<path d="M315.645,165.32v-26.53c0-19.67-16-35.68-35.68-35.68h-18.43V80.25h17.27c16.101,0,31.409-10.559,35.91-28.58   c10.514,0,13.009-0.674,15.22,2.47c2.707,3.845,0.482,0.688,12.45,17.66c4.755,6.758,14.093,8.418,20.9,3.63   c6.77-4.77,8.4-14.13,3.63-20.9l-12.45-17.67c-6.7-9.51-17.65-15.19-29.29-15.19h-12.8C306.585,8.91,293.715,0,278.805,0h-64.54   c-20.32,0-36.84,16.53-36.84,36.84v6.57c0,20.31,16.52,36.84,36.84,36.84h17.27v22.86h-18.43c-19.68,0-35.68,16.01-35.68,35.68   v26.53c-36.9,18.06-62.36,55.99-62.36,99.76c0,3.848,0,207.382,0,212.99c0,8.28,6.72,15,15,15h232.94c8.28,0,15-6.72,15-15   c0-2.157,0-209.26,0-212.99C378.005,221.31,352.545,183.38,315.645,165.32z M145.065,265.08c0-44.681,36.374-81,81-81h40.94   c44.614,0,81,36.308,81,81V281h-202.94V265.08z M207.425,138.79c0-3.13,2.54-5.68,5.68-5.68c7.625,0,59.845,0,66.86,0   c3.14,0,5.68,2.55,5.68,5.68v16.86c-6.06-1.03-12.29-1.57-18.64-1.57h-40.94c-6.35,0-12.58,0.54-18.64,1.57V138.79z M348.005,311   v78h-202.94v-78H348.005z M348.005,463.07h-202.94V419h202.94V463.07z M207.425,43.41v-6.57c0-3.77,3.07-6.84,6.84-6.84   c7.052,0,57.325,0,64.54,0c3.766,0,6.84,3.071,6.84,6.84v6.57c0,3.705-3.023,6.84-6.84,6.84c-7.243,0-56.899,0-64.54,0   C210.495,50.25,207.425,47.18,207.425,43.41z"/>
	<path d="M208.035,365h77c8.28,0,15-6.72,15-15c0-8.28-6.72-15-15-15h-77c-8.28,0-15,6.72-15,15   C193.035,358.28,199.755,365,208.035,365z"/>
</g>















</svg>
