<?xml version="1.0" encoding="iso-8859-1"?>
<!-- Generator: Adobe Illustrator 19.0.0, SVG Export Plug-In . SVG Version: 6.00 Build 0)  -->
<svg xmlns="http://www.w3.org/2000/svg" xmlns:xlink="http://www.w3.org/1999/xlink" version="1.1" id="Layer_1" x="0px" y="0px" viewBox="0 0 493.065 493.065" style="enable-background:new 0 0 493.065 493.065;" xml:space="preserve" width="512" height="512">
<g>
	<path d="M354.786,0H138.28c-24.813,0-45,20.187-45,45c0,21.085,0,391.632,0,403.065c0,24.813,20.187,45,45,45h216.506   c24.813,0,45-20.187,45-45c0-21.086,0-391.632,0-403.065C399.786,20.187,379.599,0,354.786,0z M369.786,448.065   c0,8.271-6.729,15-15,15H138.28c-8.271,0-15-6.729-15-15v-34.407h246.506V448.065z M369.786,383.658H123.28V109.407h246.506   V383.658z M369.786,79.407H123.28V45c0-8.271,6.729-15,15-15h216.506c8.271,0,15,6.729,15,15V79.407z"/>
	<path d="M217.783,454.033h57.5c8.284,0,15-6.716,15-15s-6.716-15-15-15h-57.5c-8.284,0-15,6.716-15,15   S209.499,454.033,217.783,454.033z"/>
	<path d="M300.783,39.033h-57.5c-8.284,0-15,6.716-15,15s6.716,15,15,15h57.5c8.284,0,15-6.716,15-15S309.067,39.033,300.783,39.033   z"/>
	<path d="M199.033,39.033h-6.75c-8.284,0-15,6.716-15,15s6.716,15,15,15h6.75c8.284,0,15-6.716,15-15S207.317,39.033,199.033,39.033   z"/>
</g>















</svg>
