<?xml version="1.0" encoding="iso-8859-1"?>
<!-- Generator: Adobe Illustrator 19.0.0, SVG Export Plug-In . SVG Version: 6.00 Build 0)  -->
<svg xmlns="http://www.w3.org/2000/svg" xmlns:xlink="http://www.w3.org/1999/xlink" version="1.1" id="Layer_1" x="0px" y="0px" viewBox="0 0 480.445 480.445" style="enable-background:new 0 0 480.445 480.445;" xml:space="preserve" width="512" height="512">
<g>
	<path d="M392.499,314.027h-67.504c-27.134,0-51.768,10.893-69.772,28.529v-57.313h43.835c49.011,0,88.885-39.874,88.885-88.885   c0-8.284-6.716-15-15-15h-58.834c-22.568,0-43.193,8.458-58.886,22.366v-36.354l14.885-14.885   c17.204-17.204,26.679-40.077,26.679-64.407c0-24.33-9.475-47.204-26.679-64.407L250.829,4.392c-5.854-5.854-15.357-5.857-21.213,0   L210.338,23.67c-17.204,17.204-26.679,40.077-26.679,64.407c0,24.33,9.475,47.203,26.679,64.406l14.885,14.885v36.354   c-15.692-13.907-36.318-22.366-58.886-22.366h-58.834c-8.284,0-15,6.716-15,15c0,49.012,39.874,88.885,88.885,88.885h43.835v57.313   c-18.004-17.636-42.638-28.529-69.772-28.529H87.946c-8.284,0-15,6.716-15,15c0,55.015,44.758,99.772,99.772,99.772h52.504v36.647   c0,8.284,6.716,15,15,15s15-6.716,15-15v-36.647h52.504c55.015,0,99.772-44.757,99.772-99.772   C407.499,320.742,400.783,314.027,392.499,314.027z M314.108,211.357h41.898c-6.65,25.227-29.662,43.885-56.949,43.885h-41.899   C263.809,230.015,286.821,211.357,314.108,211.357z M181.388,255.242c-27.287,0-50.299-18.658-56.949-43.885h41.898   c27.287,0,50.3,18.658,56.95,43.885H181.388z M172.719,398.799c-33.325,0-61.269-23.483-68.149-54.772h50.881   c33.325,0,61.269,23.483,68.149,54.772H172.719z M240.223,137.573c-4.829,0-26.563-20.285-26.563-49.496   c0-28.096,16.814-42.117,26.563-51.866c9.409,9.41,26.563,23.513,26.563,51.866C266.786,116.69,245.406,137.573,240.223,137.573z    M307.727,398.799h-50.881c6.881-31.289,34.824-54.772,68.149-54.772h50.881C368.995,375.315,341.052,398.799,307.727,398.799z"/>
</g>















</svg>
