<?xml version="1.0" encoding="iso-8859-1"?>
<!-- Generator: Adobe Illustrator 19.0.0, SVG Export Plug-In . SVG Version: 6.00 Build 0)  -->
<svg xmlns="http://www.w3.org/2000/svg" xmlns:xlink="http://www.w3.org/1999/xlink" version="1.1" id="Layer_1" x="0px" y="0px" viewBox="0 0 494.958 494.958" style="enable-background:new 0 0 494.958 494.958;" xml:space="preserve" width="512" height="512">
<g>
	<path d="M295.359,104.51V84.666h9.63c8.284,0,15-6.716,15-15V15c0-8.284-6.716-15-15-15H189.969c-8.284,0-15,6.716-15,15v54.666   c0,8.284,6.716,15,15,15h9.63v19.844c-37.548,18.203-62.12,56.764-62.12,99.048v276.4c0,8.284,6.716,15,15,15h190   c8.284,0,15-6.716,15-15v-276.4C357.479,161.273,332.907,122.713,295.359,104.51z M204.969,30h85.021v24.666h-85.021V30z    M327.479,464.958h-160v-261.4c0-33.359,21.023-63.531,52.313-75.078c5.893-2.175,9.807-7.791,9.807-14.072v-29.74h35.76v29.74   c0,6.281,3.914,11.897,9.807,14.072c31.29,11.547,52.313,41.719,52.313,75.078V464.958z"/>
	<path d="M260.206,211.544c-5.867-9.409-19.592-9.401-25.454,0c-11.968,19.182-41.884,70.184-41.884,93.322   c0,30.113,24.499,54.611,54.611,54.611s54.611-24.498,54.611-54.611C302.09,281.761,272.055,230.535,260.206,211.544z    M247.479,329.478c-13.571,0-24.611-11.041-24.611-24.611c0-8.274,11.285-32.243,24.611-55.936   c13.326,23.692,24.611,47.661,24.611,55.936C272.09,318.437,261.05,329.478,247.479,329.478z"/>
</g>















</svg>
