<?xml version="1.0" encoding="iso-8859-1"?>
<!-- Generator: Adobe Illustrator 19.0.0, SVG Export Plug-In . SVG Version: 6.00 Build 0)  -->
<svg xmlns="http://www.w3.org/2000/svg" xmlns:xlink="http://www.w3.org/1999/xlink" version="1.1" id="Layer_1" x="0px" y="0px" viewBox="0 0 501.334 501.334" style="enable-background:new 0 0 501.334 501.334;" xml:space="preserve" width="512" height="512">
<g>
	<g>
		<g>
			<path d="M250.667,501.334C112.125,501.334,0,389.223,0,250.667C0,112.126,112.111,0,250.667,0     c138.542,0,250.667,112.111,250.667,250.667C501.333,389.208,389.223,501.334,250.667,501.334z M250.667,30     C128.991,30,30,128.991,30,250.667s98.991,220.667,220.667,220.667s220.667-98.991,220.667-220.667S372.343,30,250.667,30z"/>
		</g>
		<g>
			<path d="M250.667,354.973c-57.514,0-104.306-46.791-104.306-104.306s46.792-104.306,104.306-104.306     s104.306,46.791,104.306,104.306S308.181,354.973,250.667,354.973z M250.667,176.361c-40.972,0-74.306,33.333-74.306,74.306     s33.333,74.306,74.306,74.306s74.306-33.333,74.306-74.306S291.639,176.361,250.667,176.361z"/>
		</g>
	</g>
	<g>
		<path d="M377.194,153.523l-25-25c-5.858-5.857-5.858-15.355,0-21.213c5.857-5.857,15.355-5.857,21.213,0l25,25    c5.858,5.857,5.858,15.355,0,21.213C392.549,159.382,383.052,159.381,377.194,153.523z"/>
	</g>
	<g>
		<path d="M124.194,166.273l-25-25c-5.858-5.857-5.858-15.355,0-21.213c5.857-5.857,15.355-5.857,21.213,0l25,25    c5.858,5.857,5.858,15.355,0,21.213C139.549,172.132,130.052,172.131,124.194,166.273z"/>
	</g>
	<g>
		<path d="M60.444,286.273c-5.858-5.857-5.858-15.355,0-21.213l25-25c5.857-5.857,15.355-5.857,21.213,0    c5.858,5.857,5.858,15.355,0,21.213l-25,25C75.799,292.132,66.302,292.131,60.444,286.273z"/>
	</g>
	<g>
		<path d="M149.194,399.773l-25-25c-5.858-5.857-5.858-15.355,0-21.213c5.857-5.857,15.355-5.857,21.213,0l25,25    c5.858,5.857,5.858,15.355,0,21.213C164.549,405.632,155.052,405.631,149.194,399.773z"/>
	</g>
	<g>
		<path d="M222.194,112.023c-5.858-5.857-5.858-15.355,0-21.213l25-25c5.857-5.857,15.355-5.857,21.213,0    c5.858,5.857,5.858,15.355,0,21.213l-25,25C237.549,117.882,228.052,117.881,222.194,112.023z"/>
	</g>
	<g>
		<path d="M393.694,282.273c-5.858-5.857-5.858-15.355,0-21.213l25-25c5.857-5.857,15.355-5.857,21.213,0    c5.858,5.857,5.858,15.355,0,21.213l-25,25C409.049,288.132,399.552,288.131,393.694,282.273z"/>
	</g>
	<g>
		<path d="M234.694,436.398c-5.858-5.857-5.858-15.355,0-21.213l25-25c5.857-5.857,15.355-5.857,21.213,0    c5.858,5.857,5.858,15.355,0,21.213l-25,25C250.049,442.257,240.552,442.256,234.694,436.398z"/>
	</g>
	<g>
		<path d="M377.444,387.273l-25-25c-5.858-5.857-5.858-15.355,0-21.213c5.857-5.857,15.355-5.857,21.213,0l25,25    c5.858,5.857,5.858,15.355,0,21.213C392.799,393.132,383.302,393.131,377.444,387.273z"/>
	</g>
</g>















</svg>
