<?xml version="1.0" encoding="iso-8859-1"?>
<!-- Generator: Adobe Illustrator 19.0.0, SVG Export Plug-In . SVG Version: 6.00 Build 0)  -->
<svg xmlns="http://www.w3.org/2000/svg" xmlns:xlink="http://www.w3.org/1999/xlink" version="1.1" id="Layer_1" x="0px" y="0px" viewBox="0 0 488.374 488.374" style="enable-background:new 0 0 488.374 488.374;" xml:space="preserve" width="512" height="512">
<g>
	<path d="M467.335,261.231c-8.53-11.209-8.681-26.977-0.364-38.345c25.253-34.523,8.745-83.765-32.229-96.076   c-13.489-4.054-22.879-16.723-22.833-30.808c0.139-42.772-42.158-72.904-82.545-58.783c-13.296,4.648-28.339-0.081-36.581-11.503   c-25.031-34.689-76.961-34.2-101.333,0.962c-8.023,11.577-22.972,16.595-36.356,12.195c-40.642-13.347-82.365,17.57-81.414,60.341   c0.313,14.082-8.834,26.927-22.244,31.235c-40.723,13.086-56.308,62.628-30.398,96.67c8.53,11.209,8.68,26.977,0.364,38.345   c-11.875,16.233-15.146,37.31-8.749,56.379c6.396,19.068,21.715,33.909,40.978,39.697c13.49,4.054,22.879,16.723,22.833,30.808   c-0.139,42.773,42.161,72.904,82.545,58.783c13.297-4.648,28.338,0.08,36.581,11.503c25.077,34.753,76.962,34.198,101.332-0.962   c8.024-11.577,22.977-16.59,36.356-12.195c40.643,13.347,82.365-17.571,81.414-60.34c-0.313-14.083,8.834-26.928,22.244-31.236   C477.659,344.815,493.245,295.273,467.335,261.231z M427.759,329.339c-25.958,8.341-43.665,33.205-43.059,60.464   c0.493,22.154-21.016,38.086-42.059,31.172c-25.905-8.51-54.844,1.198-70.376,23.607c-12.642,18.241-39.414,18.421-52.348,0.497   c-15.966-22.126-45.094-31.261-70.811-22.267c-20.918,7.316-42.714-8.221-42.643-30.367c0.089-27.266-18.086-51.788-44.199-59.636   c-10.099-3.035-17.815-10.51-21.169-20.508s-1.707-20.614,4.52-29.125c16.098-22.007,15.808-52.529-0.705-74.226   c-13.396-17.603-5.425-43.15,15.705-49.94c25.958-8.342,43.665-33.205,43.058-60.464c-0.491-22.154,21.017-38.088,42.059-31.172   c25.904,8.511,54.843-1.199,70.375-23.607c12.667-18.275,39.441-18.384,52.348-0.497c15.955,22.11,45.072,31.271,70.812,22.267   c20.916-7.313,42.714,8.214,42.643,30.367c-0.088,27.266,18.088,51.789,44.199,59.636c21.184,6.366,29.752,31.721,16.649,49.633   c-16.098,22.006-15.809,52.528,0.704,74.227C456.859,297,448.887,322.549,427.759,329.339z"/>
	<path d="M244.187,118.92c-8.284,0-15,6.716-15,15v6c0,8.284,6.716,15,15,15s15-6.716,15-15v-6   C259.187,125.636,252.471,118.92,244.187,118.92z"/>
	<path d="M244.187,333.43c-8.284,0-15,6.716-15,15v6c0,8.284,6.716,15,15,15s15-6.716,15-15v-6   C259.187,340.146,252.471,333.43,244.187,333.43z"/>
	<path d="M317.905,185.456c3.839,0,7.678-1.465,10.606-4.394l4.243-4.243c5.858-5.857,5.858-15.355,0-21.213   c-5.857-5.857-15.355-5.857-21.213,0l-4.243,4.243c-5.858,5.857-5.858,15.355,0,21.213   C310.228,183.991,314.067,185.456,317.905,185.456z"/>
	<path d="M159.86,307.287l-4.243,4.243c-5.857,5.858-5.857,15.356,0.001,21.214c2.929,2.929,6.767,4.393,10.606,4.393   s7.678-1.465,10.607-4.394l4.243-4.243c5.857-5.858,5.857-15.356-0.001-21.214S165.718,301.43,159.86,307.287z"/>
	<path d="M354.442,229.175h-6c-8.284,0-15,6.716-15,15s6.716,15,15,15h6c8.284,0,15-6.716,15-15S362.726,229.175,354.442,229.175z"/>
	<path d="M139.932,229.175h-6c-8.284,0-15,6.716-15,15s6.716,15,15,15h6c8.284,0,15-6.716,15-15S148.216,229.175,139.932,229.175z"/>
	<path d="M328.512,307.287c-5.857-5.857-15.355-5.857-21.213,0c-5.858,5.857-5.858,15.355,0,21.213l4.243,4.243   c2.929,2.929,6.768,4.394,10.606,4.394s7.678-1.465,10.606-4.394c5.858-5.857,5.858-15.355,0-21.213L328.512,307.287z"/>
	<path d="M176.832,155.607c-5.858-5.856-15.355-5.857-21.213-0.001c-5.858,5.857-5.859,15.355-0.001,21.214l4.243,4.243   c2.929,2.929,6.768,4.394,10.607,4.394c3.838,0,7.677-1.465,10.606-4.393c5.858-5.857,5.859-15.355,0.001-21.214L176.832,155.607z"/>
</g>















</svg>
