<?xml version="1.0" encoding="iso-8859-1"?>
<!-- Generator: Adobe Illustrator 19.0.0, SVG Export Plug-In . SVG Version: 6.00 Build 0)  -->
<svg xmlns="http://www.w3.org/2000/svg" xmlns:xlink="http://www.w3.org/1999/xlink" version="1.1" id="Layer_1" x="0px" y="0px" viewBox="0 0 482.984 482.984" style="enable-background:new 0 0 482.984 482.984;" xml:space="preserve" width="512" height="512">
<g>
	<path d="M460.046,22.814l-90.221,56.274h-34.604V50.001c0-8.284-6.716-15-15-15c-10.993,0-238.302,0-248.931,0   C31.98,35.001,0,66.986,0,106.301v84.72c0,39.315,31.98,71.301,71.29,71.301c32.996,0,41.589,0,70.202,0v67.89   c-8.908,5.668-16.482,13.242-22.151,22.149H15.002c-8.284,0-15,6.716-15,15v46.771c0,8.284,6.716,15,15,15H119.34   c12.737,20.014,35.102,33.33,60.532,33.33c39.544,0,71.715-32.171,71.715-71.715c0-25.433-13.318-47.799-33.335-60.535v-67.89   h101.969c8.284,0,15-6.716,15-15v-29.088h34.604l90.221,56.274c9.939,6.196,22.938-0.914,22.938-12.728V35.541   C482.984,23.786,470.027,16.59,460.046,22.814z M108.634,399.131H30.002V382.36h78.632   C107.986,387.946,108.018,393.812,108.634,399.131z M98.49,232.321h-27.2c-22.768,0-41.29-18.527-41.29-41.301v-84.72   c0-22.772,18.522-41.3,41.29-41.3h27.2V232.321z M221.587,390.746c0,23.002-18.713,41.715-41.715,41.715   s-41.716-18.713-41.716-41.715c0-23.039,18.758-41.716,41.716-41.716C202.83,349.03,221.587,367.706,221.587,390.746z    M171.492,319.512v-57.19h16.76v57.19C182.745,318.867,176.775,318.893,171.492,319.512z M305.221,232.321   c-3.749,0-160.646,0-176.73,0V65.001h176.73C305.221,70.039,305.221,227.627,305.221,232.321z M359.12,188.234h-23.899v-79.146   h23.899V188.234z M452.984,234.745l-63.864-39.834V102.41l63.864-39.834V234.745z"/>
	<path d="M203.253,209.387h58.053c8.284,0,15-6.716,15-15s-6.716-15-15-15h-58.053c-8.284,0-15,6.716-15,15   S194.969,209.387,203.253,209.387z"/>
</g>















</svg>
