<?xml version="1.0" encoding="iso-8859-1"?>
<!-- Generator: Adobe Illustrator 19.0.0, SVG Export Plug-In . SVG Version: 6.00 Build 0)  -->
<svg xmlns="http://www.w3.org/2000/svg" xmlns:xlink="http://www.w3.org/1999/xlink" version="1.1" id="Layer_1" x="0px" y="0px" viewBox="0 0 505 505" style="enable-background:new 0 0 505 505;" xml:space="preserve" width="512" height="512">
<g>
	<path d="M433.535,0H71.465c-24.813,0-45,20.187-45,45v415c0,24.813,20.187,45,45,45h362.07c24.813,0,45-20.187,45-45V45   C478.535,20.187,458.349,0,433.535,0z M448.535,460c0,8.271-6.729,15-15,15H71.465c-8.271,0-15-6.729-15-15V45   c0-8.271,6.729-15,15-15h362.07c8.271,0,15,6.729,15,15V460z"/>
	<path d="M409.063,47.006H98.927c-8.284,0-15,6.716-15,15v83.467c0,8.284,6.716,15,15,15h310.137c8.284,0,15-6.716,15-15V62.006   C424.063,53.722,417.348,47.006,409.063,47.006z M394.063,130.473H113.927V77.006h280.137V130.473z"/>
	<path d="M169.627,238.758H98.927c-8.284,0-15,6.716-15,15v70.701c0,8.284,6.716,15,15,15h70.701c8.284,0,15-6.716,15-15v-70.701   C184.627,245.474,177.912,238.758,169.627,238.758z M154.627,309.458h-40.701v-40.701h40.701V309.458z"/>
	<path d="M289.346,238.758h-70.701c-8.284,0-15,6.716-15,15v70.701c0,8.284,6.716,15,15,15h70.701c8.284,0,15-6.716,15-15v-70.701   C304.346,245.474,297.63,238.758,289.346,238.758z M274.346,309.458h-40.701v-40.701h40.701V309.458z"/>
	<path d="M169.627,357.293H98.927c-8.284,0-15,6.716-15,15v70.701c0,8.284,6.716,15,15,15h70.701c8.284,0,15-6.716,15-15v-70.701   C184.627,364.009,177.912,357.293,169.627,357.293z M154.627,427.994h-40.701v-40.701h40.701V427.994z"/>
	<path d="M289.346,357.293h-70.701c-8.284,0-15,6.716-15,15v70.701c0,8.284,6.716,15,15,15h70.701c8.284,0,15-6.716,15-15v-70.701   C304.346,364.009,297.63,357.293,289.346,357.293z M274.346,427.994h-40.701v-40.701h40.701V427.994z"/>
	<path d="M407.85,238.758h-70.7c-8.284,0-15,6.716-15,15v189.236c0,8.284,6.716,15,15,15h70.7c8.284,0,15-6.716,15-15V253.758   C422.85,245.474,416.134,238.758,407.85,238.758z M392.85,427.994h-40.7V268.758h40.7V427.994z"/>
	<path d="M407.85,174.933c-8.284,0-15,6.716-15,15v17.375c0,8.284,6.716,15,15,15s15-6.716,15-15v-17.375   C422.85,181.648,416.134,174.933,407.85,174.933z"/>
	<path d="M387.5,207.308v-17.375c0-8.284-6.716-15-15-15s-15,6.716-15,15v17.375c0,8.284,6.716,15,15,15   S387.5,215.592,387.5,207.308z"/>
	<path d="M337.149,222.308c8.284,0,15-6.716,15-15v-17.375c0-8.284-6.716-15-15-15s-15,6.716-15,15v17.375   C322.149,215.592,328.865,222.308,337.149,222.308z"/>
	<path d="M98.927,207.856h139.128c8.284,0,15-6.716,15-15s-6.716-15-15-15H98.927c-8.284,0-15,6.716-15,15   S90.643,207.856,98.927,207.856z"/>
</g>















</svg>
