<?xml version="1.0" encoding="iso-8859-1"?>
<!-- Generator: Adobe Illustrator 19.0.0, SVG Export Plug-In . SVG Version: 6.00 Build 0)  -->
<svg xmlns="http://www.w3.org/2000/svg" xmlns:xlink="http://www.w3.org/1999/xlink" version="1.1" id="Layer_1" x="0px" y="0px" viewBox="0 0 485.017 485.017" style="enable-background:new 0 0 485.017 485.017;" xml:space="preserve" width="512" height="512">
<g>
	<path d="M381.562,137.543h-73.281c5.863-9.223,9.048-20.284,9.048-32.813C317.329,65.911,286.772,0,242.508,0   c-44.271,0-74.82,65.925-74.82,104.729c0,12.529,3.185,23.59,9.048,32.813h-73.281c-45.699,0-82.878,37.179-82.878,82.878v47.815   c0,23.62,14.604,43.881,35.252,52.262v119.329c0,24.918,20.271,45.189,45.189,45.189h282.98c24.918,0,45.189-20.271,45.189-45.189   V320.498c20.647-8.38,35.252-28.642,35.252-52.262v-47.815C464.44,174.722,427.261,137.543,381.562,137.543z M197.688,104.729   c0-28.366,23.821-74.729,44.82-74.729c21.083,0,44.82,46.488,44.82,74.729c0,28.551-28.081,32.813-44.82,32.813   S197.688,133.28,197.688,104.729z M399.188,439.827c0,8.375-6.813,15.189-15.189,15.189h-282.98   c-8.376,0-15.189-6.814-15.189-15.189V323.938c7.166-1.121,14.301-3.717,20.623-7.61c7.662,22.057,28.655,37.929,53.287,37.929   c24.785,0,45.74-15.985,53.313-37.951c8.578,5.276,18.668,8.321,29.457,8.321c9.352,0,18.356-2.26,26.387-6.521v13.907   c0,31.092,25.295,56.387,56.386,56.387c30.109,0,56.388-19.565,56.388-70.338c5.183,2.757,11.256,4.873,17.52,5.867V439.827z    M434.44,268.236c0,14.04-11.021,25.505-24.759,26.332c-15.267,0.936-28.013-11.231-28.013-26.331   c0-8.283-6.716-15.001-15.001-15.001c-8.284,0-15,6.716-15,15v63.777c0,14.498-11.78,26.384-26.39,26.384   c-14.545,0-26.379-11.834-26.379-26.381v-63.779c0-8.286-6.717-15.001-15.004-15.001c-8.284,0-15,6.716-15,15   c0,14.55-11.837,26.387-26.387,26.387s-26.387-11.837-26.387-26.387c0-8.284-6.716-15-15-15c-8.286,0-15.004,6.715-15.004,15.001   v29.629c0,14.583-11.86,26.387-26.382,26.387c-14.55,0-26.387-11.837-26.387-26.387v-29.63c0-8.284-6.716-15-15-15   c-7.951,0-14.275,5.086-15.069,16.803c-0.969,14.304-13.339,25.424-27.945,24.528c-13.736-0.826-24.759-12.29-24.759-26.332   v-47.815c0-29.157,23.721-52.878,52.878-52.878h278.107c29.157,0,52.878,23.721,52.878,52.878V268.236z"/>
	<path d="M132.736,372.032h-17.026c-8.284,0-15,6.716-15,15s6.716,15,15,15h17.026c8.284,0,15-6.716,15-15   S141.02,372.032,132.736,372.032z"/>
	<path d="M251.021,353.442h-17.025c-8.284,0-15,6.716-15,15s6.716,15,15,15h17.025c8.284,0,15-6.716,15-15   S259.305,353.442,251.021,353.442z"/>
	<path d="M201.736,407.877h-17.026c-8.284,0-15,6.716-15,15s6.716,15,15,15h17.026c8.284,0,15-6.716,15-15   S210.02,407.877,201.736,407.877z"/>
	<path d="M361.161,407.877h-17.026c-8.284,0-15,6.716-15,15s6.716,15,15,15h17.026c8.284,0,15-6.716,15-15   S369.445,407.877,361.161,407.877z"/>
</g>















</svg>
