<?xml version="1.0" encoding="iso-8859-1"?>
<!-- Generator: Adobe Illustrator 19.0.0, SVG Export Plug-In . SVG Version: 6.00 Build 0)  -->
<svg xmlns="http://www.w3.org/2000/svg" xmlns:xlink="http://www.w3.org/1999/xlink" version="1.1" id="Layer_1" x="0px" y="0px" viewBox="0 0 487.475 487.475" style="enable-background:new 0 0 487.475 487.475;" xml:space="preserve" width="512" height="512">
<g>
	<path d="M306.93,207.842h-29.888c-3.396,0-6.242-2.654-6.479-6.042c-0.005-0.079-0.012-0.158-0.019-0.237L258.737,64.355V15   c0-8.284-6.716-15-15-15h-89.88c-8.284,0-15,6.716-15,15v49.241l-17.623,173.67c-1.052,10.368-1.585,20.91-1.585,31.334v203.229   c0,8.284,6.716,15,15,15h218.177c8.284,0,15-6.716,15-15V268.737C367.826,235.159,340.508,207.842,306.93,207.842z M168.857,30   h59.88v20h-59.88V30z M337.826,457.475H149.649V269.245c0-9.416,0.482-18.939,1.432-28.305L167.412,80h62.561l10.673,124.032   c1.4,18.97,17.361,33.81,36.396,33.81h29.888c17.036,0,30.896,13.859,30.896,30.896V457.475z"/>
	<path d="M301.782,287.5H185.693c-8.284,0-15,6.716-15,15v87c0,8.284,6.716,15,15,15h116.089c8.284,0,15-6.716,15-15v-87   C316.782,294.216,310.066,287.5,301.782,287.5z M286.782,374.5h-86.089v-57h86.089V374.5z"/>
</g>















</svg>
