<?xml version="1.0" encoding="iso-8859-1"?>
<!-- Generator: Adobe Illustrator 19.0.0, SVG Export Plug-In . SVG Version: 6.00 Build 0)  -->
<svg xmlns="http://www.w3.org/2000/svg" xmlns:xlink="http://www.w3.org/1999/xlink" version="1.1" id="Layer_1" x="0px" y="0px" viewBox="0 0 501.307 501.307" style="enable-background:new 0 0 501.307 501.307;" xml:space="preserve" width="512" height="512">
<g>
	<path d="M289.486,104.857c13.309-23.877,1.961-54.096-23.832-63.377V15c0-8.284-6.716-15-15-15c-8.284,0-15,6.716-15,15v26.48   c-25.823,9.292-37.123,39.531-23.832,63.377c-62.555,23.817-89.153,97.553-56.816,155.556l81.502,230.914   c4.695,13.3,23.591,13.315,28.29,0l81.504-230.916C378.627,202.427,352.057,128.681,289.486,104.857z M250.654,68.868   c7.957,0,14.431,6.474,14.431,14.431s-6.474,14.431-14.431,14.431c-7.957,0-14.431-6.474-14.431-14.431   S242.697,68.868,250.654,68.868z M250.654,441.267l-60.851-172.403h121.703L250.654,441.267z M323.547,238.859H177.762   c-4.311-9.93-6.561-20.727-6.561-31.673c0-43.811,35.643-79.453,79.453-79.453s79.453,35.643,79.453,79.453   C330.107,218.133,327.857,228.93,323.547,238.859z"/>
	<path d="M219.887,189.531c-5.857-5.857-15.355-5.857-21.213,0c-5.858,5.857-5.858,15.355,0,21.213l7.085,7.085   c5.858,5.858,15.355,5.857,21.213,0c5.858-5.857,5.858-15.355,0-21.213L219.887,189.531z"/>
	<path d="M255.645,147.381c-5.857-5.857-15.355-5.857-21.213,0c-5.858,5.857-5.858,15.355,0,21.213l7.085,7.085   c5.858,5.858,15.355,5.857,21.213,0c5.858-5.857,5.858-15.355,0-21.213L255.645,147.381z"/>
	<path d="M297.777,189.532c-5.856-5.858-15.354-5.86-21.213-0.002c-5.858,5.857-5.859,15.355-0.002,21.213l7.084,7.085   c5.856,5.857,15.354,5.86,21.213,0.002c5.858-5.857,5.859-15.355,0.002-21.213L297.777,189.532z"/>
</g>















</svg>
