<?xml version="1.0" encoding="iso-8859-1"?>
<!-- Generator: Adobe Illustrator 19.0.0, SVG Export Plug-In . SVG Version: 6.00 Build 0)  -->
<svg xmlns="http://www.w3.org/2000/svg" xmlns:xlink="http://www.w3.org/1999/xlink" version="1.1" id="Layer_1" x="0px" y="0px" viewBox="0 0 479.15 479.15" style="enable-background:new 0 0 479.15 479.15;" xml:space="preserve" width="512" height="512">
<g>
	<path d="M461.185,104.645c23.921-23.941,23.986-62.674,0-86.68c-23.98-23.961-62.717-23.943-86.68,0   c-10.402,10.402-34.679,50.044-42.19,62.72l-1.84-1.84c-13.86-13.87-36.43-13.87-50.3,0l-201.33,201.33   c-13.87,13.87-13.87,36.44,0,50.3l1.84,1.84c-12.677,7.511-52.325,31.794-62.72,42.19c-23.915,23.935-23.991,62.667,0,86.68   c23.981,23.961,62.717,23.943,86.68,0c10.402-10.402,34.679-50.044,42.19-62.72l0,0l1.84,1.84c13.869,13.87,36.438,13.863,50.3,0   l201.33-201.33c13.87-13.87,13.87-36.44,0-50.3l-1.84-1.84c0,0,0,0,0,0C411.142,139.324,450.79,115.04,461.185,104.645z    M379.085,177.765l-201.32,201.32c-2.17,2.18-5.71,2.18-7.88,0c-14.598-14.597-56.55-56.549-69.82-69.82   c-2.18-2.17-2.18-5.71,0-7.88l201.32-201.32c2.174-2.175,5.706-2.175,7.88,0l69.82,69.82   C381.26,172.059,381.259,175.591,379.085,177.765z M39.185,439.965c-12.243-12.244-12.23-32.01,0-44.24   c6.25-6.25,37.27-26.22,63.45-41.46l22.25,22.25c-15.24,26.18-35.21,57.2-41.46,63.45C71.18,452.209,51.415,452.194,39.185,439.965   z M354.265,102.635c15.24-26.18,35.21-57.2,41.46-63.45c12.245-12.244,32.01-12.229,44.24,0c12.243,12.244,12.23,32.01,0,44.24   c-6.25,6.25-37.27,26.22-63.45,41.46L354.265,102.635z"/>
</g>















</svg>
