<?xml version="1.0" encoding="iso-8859-1"?>
<!-- Generator: Adobe Illustrator 19.0.0, SVG Export Plug-In . SVG Version: 6.00 Build 0)  -->
<svg xmlns="http://www.w3.org/2000/svg" xmlns:xlink="http://www.w3.org/1999/xlink" version="1.1" id="Layer_1" x="0px" y="0px" viewBox="0 0 490 490" style="enable-background:new 0 0 490 490;" xml:space="preserve" width="512" height="512">
<g>
	<path d="M367.912,117.725h-43.898c0-6.712,0-40.526,0-47.261c0-19.587-15.935-35.521-35.521-35.521h-48.869V15   c0-8.284-6.716-15-15-15s-15,6.716-15,15v19.942h-48.868c-19.587,0-35.521,15.935-35.521,35.521v9.519h-19.295   c-12.424,0-19.467,14.303-11.885,24.151l33.003,42.863v89.051c0,30.903,5.6,57.642,17.413,82.401   C118.5,322.46,97.554,343.29,94.086,370.03c-0.006,0.042-0.011,0.084-0.017,0.127l-12.48,103.038   C80.506,482.123,87.482,490,96.479,490h255.156c8.993,0,15.973-7.873,14.891-16.805l-12.479-103.038   c-0.006-0.043-0.011-0.085-0.017-0.128c-3.348-25.798-22.963-46.095-47.662-51.095c7.356-15.295,12.332-31.346,15.075-48.663h9.609   c42.718,0,77.471-34.753,77.471-77.471v-34.466C408.522,135.942,390.304,117.725,367.912,117.725z M155.234,70.464   c0-3.045,2.477-5.521,5.521-5.521h127.737c3.044,0,5.521,2.477,5.521,5.521v9.519H155.234V70.464z M294.013,109.982v126.065   c0,31.861-6.522,57.4-21.015,81.687h-94.927c-14.492-24.286-21.015-49.826-21.015-81.687v-94.156c0-3.311-1.095-6.528-3.115-9.151   l-17.522-22.758C143.712,109.982,286.668,109.982,294.013,109.982z M113.407,460l2.264-18.678h216.773L334.708,460H113.407z    M324.272,373.83l4.541,37.492h-209.51l4.541-37.49c1.96-14.881,14.741-26.096,29.754-26.096h140.921   C309.53,347.736,322.31,358.95,324.272,373.83z M378.522,192.801c0,26.176-21.295,47.471-47.471,47.471h-6.303v-92.547h43.163   c5.851,0,10.61,4.76,10.61,10.61V192.801z"/>
	<path d="M171.652,362.449c-8.284,0-15,6.716-15,15v9.602c0,8.284,6.716,15,15,15s15-6.716,15-15v-9.602   C186.652,369.165,179.936,362.449,171.652,362.449z"/>
	<path d="M224.056,362.449c-8.284,0-15,6.716-15,15v9.602c0,8.284,6.716,15,15,15s15-6.716,15-15v-9.602   C239.056,369.165,232.341,362.449,224.056,362.449z"/>
	<path d="M276.462,362.449c-8.284,0-15,6.716-15,15v9.602c0,8.284,6.716,15,15,15s15-6.716,15-15v-9.602   C291.462,369.165,284.746,362.449,276.462,362.449z"/>
	<path d="M208.587,175.514h28.557c8.284,0,15-6.716,15-15s-6.716-15-15-15h-28.557c-8.284,0-15,6.716-15,15   S200.303,175.514,208.587,175.514z"/>
	<path d="M208.587,222.893h28.557c8.284,0,15-6.716,15-15s-6.716-15-15-15h-28.557c-8.284,0-15,6.716-15,15   S200.303,222.893,208.587,222.893z"/>
	<path d="M208.587,270.271h28.557c8.284,0,15-6.716,15-15s-6.716-15-15-15h-28.557c-8.284,0-15,6.716-15,15   S200.303,270.271,208.587,270.271z"/>
</g>















</svg>
