<?xml version="1.0" encoding="iso-8859-1"?>
<!-- Generator: Adobe Illustrator 19.0.0, SVG Export Plug-In . SVG Version: 6.00 Build 0)  -->
<svg xmlns="http://www.w3.org/2000/svg" xmlns:xlink="http://www.w3.org/1999/xlink" version="1.1" id="Layer_1" x="0px" y="0px" viewBox="0 0 504.572 504.572" style="enable-background:new 0 0 504.572 504.572;" xml:space="preserve" width="512" height="512">
<g>
	<path d="M501.636,114.858c-1.426-48.264-45.049-84.254-92.69-76.52l-43.38,7.04c-23.714,3.858-41.786,21.313-47.43,43.47   c-11.654-1.02-120.897-0.945-131.7,0c-1.22-4.79-3.06-9.47-5.51-13.92c-8.75-15.87-24.03-26.64-41.92-29.55l-43.38-7.04   c-47.638-7.754-91.264,28.274-92.69,76.52l-2.93,98.89c-0.277,9.919,8.913,17.253,18.37,15.06l17.71-4.09   c-3.564,18.761-2.94,30.11-2.94,57.27c0,58.44,36.31,108.55,87.55,128.97c12.85,32.93,44.92,56.33,82.36,56.33h98.46   c37.44,0,69.51-23.4,82.36-56.33c51.24-20.42,87.55-70.53,87.55-128.97c0-27.127,0.625-38.501-2.94-57.27l17.71,4.09   c9.519,2.208,18.645-5.207,18.37-15.06L501.636,114.858z M30.566,195.208l2.35-79.46c0.901-30.138,28.108-52.618,57.9-47.8   l43.38,7.04c18.313,2.979,28.976,22.335,21.72,39.41C127.616,180.798,67.08,186.789,30.566,195.208z M301.516,437.288h-98.46   c-32.146,0-58.37-26.12-58.37-58.36c0-32.19,26.18-58.37,58.37-58.37h98.46c32.19,0,58.37,26.18,58.37,58.37   C359.886,410.986,333.848,437.288,301.516,437.288z M441.426,281.988c0,39.04-20.68,73.34-51.65,92.53   c-2.3-46.69-41.01-83.96-88.26-83.96h-98.46c-47.25,0-85.96,37.27-88.26,83.96c-30.97-19.19-51.65-53.49-51.65-92.53   c0-26.871-1.109-42.062,5.58-64.8c59.771-13.802,96.093-47.098,114.79-91.05c0.99-2.34,1.83-4.71,2.51-7.11   c11.054-1.213,120.587-1.31,132.52,0c0.68,2.4,1.52,4.77,2.51,7.11c19.07,44.83,58.8,78.13,106.26,89.08l8.53,1.97   C442.541,239.948,441.426,255.153,441.426,281.988z M419.576,181.678c-31.806-11.638-57.611-36.053-70.92-67.28   c-7.28-17.131,3.465-36.44,21.72-39.41l43.38-7.04c29.92-4.82,57.002,17.771,57.9,47.8l2.35,79.46   C429.037,184.839,428.209,184.849,419.576,181.678z"/>
	<path d="M197.396,346.768c-8.29,0-15,6.72-15,15c0,12.875,0,21.178,0,33.93c0,8.297,6.711,15,15,15c8.218,0,15-6.64,15-15   c0-12.771,0-21.052,0-33.93C212.396,353.488,205.676,346.768,197.396,346.768z"/>
	<path d="M307.176,346.768c-8.28,0-15,6.72-15,15c0,12.875,0,21.178,0,33.93c0,8.36,6.783,15,15,15c8.295,0,15-6.708,15-15   c0-12.771,0-21.052,0-33.93C322.176,353.488,315.466,346.768,307.176,346.768z"/>
	<path d="M151.996,215.118c-8.29,0-15,6.72-15,15v21.84c0,8.29,6.71,15,15,15c8.28,0,15-6.71,15-15v-21.84   C166.996,221.838,160.276,215.118,151.996,215.118z"/>
	<path d="M352.576,215.118c-8.28,0-15,6.72-15,15v21.84c0,8.29,6.72,15,15,15c8.29,0,15-6.71,15-15v-21.84   C367.576,221.838,360.866,215.118,352.576,215.118z"/>
</g>















</svg>
