<?xml version="1.0" encoding="iso-8859-1"?>
<!-- Generator: Adobe Illustrator 19.0.0, SVG Export Plug-In . SVG Version: 6.00 Build 0)  -->
<svg xmlns="http://www.w3.org/2000/svg" xmlns:xlink="http://www.w3.org/1999/xlink" version="1.1" id="Layer_1" x="0px" y="0px" viewBox="0 0 492 492" style="enable-background:new 0 0 492 492;" xml:space="preserve" width="512" height="512">
<g>
	<path d="M428.31,476.15l-18.3-322.37c-0.45-7.95-7.02-14.15-14.97-14.15H331.3V86.92C331.3,38.99,292.31,0,244.39,0   c-47.93,0-86.92,38.99-86.92,86.92v52.71H96.96c-7.95,0-14.52,6.2-14.97,14.15l-18.3,322.37C63.191,484.717,70.032,492,78.66,492   h334.68C421.958,492,428.81,484.729,428.31,476.15z M187.47,86.92C187.47,55.53,213,30,244.39,30c31.38,0,56.91,25.53,56.91,56.92   v52.71H187.47V86.92z M94.54,462l16.59-292.37c9.428,0,260.314,0,269.74,0L397.46,462H94.54z"/>
	<path d="M227.65,290.15c16.2-16.2,16.2-42.56,0-58.76c-16.22-16.221-42.587-16.174-58.76,0c-16.222,16.22-16.175,42.584,0,58.76   C185.094,306.354,211.454,306.347,227.65,290.15z M190.11,252.61c4.484-4.504,11.821-4.509,16.33,0c4.5,4.5,4.5,11.83,0,16.33   s-11.83,4.5-16.33,0C185.6,264.44,185.6,257.11,190.11,252.61z"/>
	<path d="M264.35,326.85c-16.2,16.2-16.2,42.56,0,58.76c16.199,16.199,42.56,16.201,58.76,0c16.2-16.2,16.2-42.56,0-58.76   C306.91,310.65,280.55,310.65,264.35,326.85z M301.89,364.39c-4.5,4.51-11.83,4.51-16.33,0c-4.5-4.5-4.5-11.83,0-16.33   c4.502-4.502,11.821-4.509,16.33,0C306.4,352.56,306.4,359.89,301.89,364.39z"/>
	<path d="M304.33,250.17c-5.85-5.86-15.35-5.86-21.21,0l-95.45,95.45c-5.86,5.86-5.86,15.36,0,21.21   c5.841,5.86,15.337,5.873,21.21,0l95.45-95.45C310.19,265.52,310.19,256.02,304.33,250.17z"/>
</g>















</svg>
