<?xml version="1.0" encoding="iso-8859-1"?>
<!-- Generator: Adobe Illustrator 19.0.0, SVG Export Plug-In . SVG Version: 6.00 Build 0)  -->
<svg xmlns="http://www.w3.org/2000/svg" xmlns:xlink="http://www.w3.org/1999/xlink" version="1.1" id="Layer_1" x="0px" y="0px" viewBox="0 0 485.82 485.82" style="enable-background:new 0 0 485.82 485.82;" xml:space="preserve" width="512" height="512">
<g>
	<path d="M461.41,172.24L347.6,263.98l-8.48-80.95c-0.4-48.62-34.03-89.48-79.24-100.92l3.74-17.69   c5.396-25.552-14.106-49.56-40.18-49.56c-26.114,0-45.567,24.049-40.18,49.56L187,82.11c-45.21,11.44-78.84,52.3-79.24,100.92   l-2.98,28.41h-26.6C35.07,211.44,0,246.51,0,289.62c0,43.12,35.07,78.19,78.18,78.19H88.4l-4.29,40.97   c-3.482,33.223,22.623,62.18,56.01,62.18h166.65c33.327,0,59.487-28.907,56-62.18l-1.61-15.38l120.83-134.68   c2.47-2.75,3.83-6.32,3.83-10.02v-64.78C485.82,171.348,471.214,164.352,461.41,172.24z M91.54,337.81H78.18   c-26.56,0-48.18-21.62-48.18-48.19c0-26.56,21.62-48.18,48.18-48.18h23.46L91.54,337.81z M223.44,44.86   c7.044,0,12.288,6.475,10.83,13.35l-4.38,20.7h-12.9l-4.37-20.7C211.166,51.354,216.387,44.86,223.44,44.86z M206.68,109.16h33.52   c33.5,2.69,60.85,27.49,67.43,59.76H139.26C145.83,136.65,173.19,111.85,206.68,109.16z M306.77,440.96   c-7.195,0-159.619,0-166.65,0c-15.646,0-27.807-13.501-26.17-29.06c2.124-20.266,20.12-192.054,22.31-212.98h174.36   c0.811,7.737,22.096,210.838,22.32,212.98C334.552,427.424,322.396,440.96,306.77,440.96z M455.82,242.96l-98.88,110.21   l-5.62-53.66l104.5-84.23V242.96z"/>
</g>















</svg>
