<?xml version="1.0" encoding="iso-8859-1"?>
<!-- Generator: Adobe Illustrator 19.0.0, SVG Export Plug-In . SVG Version: 6.00 Build 0)  -->
<svg xmlns="http://www.w3.org/2000/svg" xmlns:xlink="http://www.w3.org/1999/xlink" version="1.1" id="Layer_1" x="0px" y="0px" viewBox="0 0 492 492" style="enable-background:new 0 0 492 492;" xml:space="preserve" width="512" height="512">
<g>
	<path d="M391.377,59.754H139.535C62.595,59.754,0,122.349,0,199.289v110.769c0,67.375,54.813,122.188,122.188,122.188h69.981   c27.017,0,53.115-9.772,73.488-27.517c20.372-17.744,33.634-42.254,37.343-69.016C308.901,293.12,345.779,261,388.78,261h2.597   C446.86,261,492,215.861,492,160.377S446.86,59.754,391.377,59.754z M391.377,231h-2.597c-28.154,0-55.352,10.184-76.582,28.675   c-21.23,18.492-35.051,44.034-38.915,71.921c-5.581,40.277-40.453,70.65-81.114,70.65h-69.981   C71.355,402.246,30,360.891,30,310.058V199.289c0-60.398,49.138-109.535,109.535-109.535h251.842   c38.941,0,70.623,31.681,70.623,70.623C462,199.318,430.318,231,391.377,231z"/>
	<path d="M104.514,199.297c-30.032,0-54.466,24.433-54.466,54.465c0,30.033,24.434,54.466,54.466,54.466   s54.465-24.433,54.465-54.466C158.979,223.73,134.546,199.297,104.514,199.297z M104.514,278.229   c-13.49,0-24.466-10.975-24.466-24.466c0-13.49,10.976-24.465,24.466-24.465s24.465,10.975,24.465,24.465   C128.979,267.253,118.004,278.229,104.514,278.229z"/>
	<path d="M207.09,106.786c-8.284,0-15,6.716-15,15v215.025c0,8.284,6.716,15,15,15s15-6.716,15-15V121.786   C222.09,113.502,215.374,106.786,207.09,106.786z"/>
	<path d="M274.964,106.786c-8.284,0-15,6.716-15,15v111.258c0,8.284,6.716,15,15,15s15-6.716,15-15V121.786   C289.964,113.502,283.248,106.786,274.964,106.786z"/>
	<path d="M342.838,110.532c-8.284,0-15,6.716-15,15v80.907c0,8.284,6.716,15,15,15s15-6.716,15-15v-80.907   C357.838,117.248,351.122,110.532,342.838,110.532z"/>
	<path d="M410.712,118.461c-8.284,0-15,6.716-15,15v51.199c0,8.284,6.716,15,15,15s15-6.716,15-15v-51.199   C425.712,125.177,418.996,118.461,410.712,118.461z"/>
</g>















</svg>
