<?xml version="1.0" encoding="iso-8859-1"?>
<!-- Generator: Adobe Illustrator 19.0.0, SVG Export Plug-In . SVG Version: 6.00 Build 0)  -->
<svg xmlns="http://www.w3.org/2000/svg" xmlns:xlink="http://www.w3.org/1999/xlink" version="1.1" id="Layer_1" x="0px" y="0px" viewBox="0 0 502.76 502.76" style="enable-background:new 0 0 502.76 502.76;" xml:space="preserve" width="512" height="512">
<g>
	<path d="M457.76,138.38h-54.73l5.58-44.12c1.134-8.963-5.866-16.88-14.88-16.88h-62.94c-9.033,0-16.011,7.937-14.88,16.88   l5.58,44.12h-54.73c-24.81,0-45,20.19-45,45v19H45c-24.81,0-45,20.19-45,45s20.19,45,45,45h176.76v94c0,21.5,17.5,39,39,39h203   c21.5,0,39-17.5,39-39c0-8.842,0-193.498,0-203C502.76,158.57,482.57,138.38,457.76,138.38z M221.76,262.38H45   c-8.27,0-15-6.73-15-15s6.73-15,15-15h176.76V262.38z M376.71,107.38l-3.92,31h-21.06l-3.92-31H376.71z M472.76,386.38   c0,4.96-4.04,9-9,9h-203c-4.96,0-9-4.04-9-9c0-6.753,0-147.236,0-154c8.219,0,206.618,0,221,0V386.38z M472.76,202.38   c-6.831,0-204.767,0-221,0v-19c0-8.27,6.73-15,15-15c7.824,0,183.176,0,191,0c8.27,0,15,6.73,15,15V202.38z"/>
</g>















</svg>
