<?xml version="1.0" encoding="iso-8859-1"?>
<!-- Generator: Adobe Illustrator 19.0.0, SVG Export Plug-In . SVG Version: 6.00 Build 0)  -->
<svg xmlns="http://www.w3.org/2000/svg" xmlns:xlink="http://www.w3.org/1999/xlink" version="1.1" id="Layer_1" x="0px" y="0px" viewBox="0 0 479.16 479.16" style="enable-background:new 0 0 479.16 479.16;" xml:space="preserve" width="512" height="512">
<g>
	<path d="M337.56,141.5h-5.48v-11.14c0-29.93-20.78-55.1-48.67-61.85V15c0-8.29-6.71-15-15-15h-57.66c-8.29,0-15,6.71-15,15v53.51   c-27.89,6.75-48.67,31.92-48.67,61.85v11.14h-5.48c-8.28,0-15,6.71-15,15c0,13.116,0,295.12,0,307.66c0,8.29,6.72,15,15,15h195.96   c8.28,0,15-6.71,15-15c0-13.116,0-295.12,0-307.66C352.56,148.21,345.84,141.5,337.56,141.5z M225.75,30h27.66v36.73h-27.66V30z    M177.08,130.36c0-18.54,15.09-33.63,33.63-33.63h57.74c18.54,0,33.63,15.09,33.63,33.63v11.14h-125V130.36z M322.56,449.16H156.6   v-63.83h165.96V449.16z M322.56,355.33H156.6v-90h165.96V355.33z M322.56,235.33H156.6c0-15.582,0-60.857,0-63.83   c0,0,159.996,0,165.96,0C322.56,174.475,322.56,219.788,322.56,235.33z"/>
	<path d="M200.08,325.33h79c8.28,0,15-6.72,15-15c0-8.28-6.72-15-15-15h-79c-8.28,0-15,6.72-15,15   C185.08,318.61,191.8,325.33,200.08,325.33z"/>
</g>















</svg>
