<?xml version="1.0" encoding="iso-8859-1"?>
<!-- Generator: Adobe Illustrator 19.0.0, SVG Export Plug-In . SVG Version: 6.00 Build 0)  -->
<svg xmlns="http://www.w3.org/2000/svg" xmlns:xlink="http://www.w3.org/1999/xlink" version="1.1" id="Layer_1" x="0px" y="0px" viewBox="0 0 486.238 486.238" style="enable-background:new 0 0 486.238 486.238;" xml:space="preserve" width="512" height="512">
<g>
	<path d="M373.442,84.782V30c0-16.542-13.458-30-30-30H142.796c-16.542,0-30,13.458-30,30v54.782   c-14.361,24.856-37.657,59.283-37.657,115.603v240.854c0,24.813,20.187,45,45,45h245.96c24.813,0,45-20.187,45-45V200.385   C411.099,144.051,387.737,109.523,373.442,84.782z M142.796,30h200.646v43.804H142.796V30z M136.453,103.804h213.332   c11.736,20.313,29.537,46.769,31.192,90.651H105.261C106.906,150.834,124.461,124.561,136.453,103.804z M105.144,224.455h275.95   v160.446h-275.95V224.455z M381.099,441.238c0,8.271-6.729,15-15,15h-245.96c-8.271,0-15-6.729-15-15v-26.337h275.96V441.238z"/>
	<path d="M294.731,255.29c-5.857-5.857-15.355-5.857-21.213,0l-8.682,8.682c-6.075-4.192-12.204-6.975-18.325-8.295   c-13.133-2.833-25.978,1.213-36.161,11.398c-18.722,18.721-32.524,61.756-10.842,83.438c21.822,21.822,64.674,7.923,83.439-10.843   h0c10.184-10.183,14.232-23.025,11.398-36.161c-1.321-6.121-4.104-12.25-8.295-18.325l8.682-8.682   C300.589,270.646,300.589,261.147,294.731,255.29z M261.733,318.458C261.733,318.458,261.733,318.458,261.733,318.458   c-11.191,11.191-35.416,16.437-41.012,10.843c-5.683-5.683-0.209-29.963,10.842-41.013c2.821-2.821,5.237-4.018,8.622-3.286   c8.667,1.871,22.964,16.167,24.833,24.834C265.477,311.96,265.638,314.553,261.733,318.458z"/>
</g>















</svg>
