<?xml version="1.0" encoding="iso-8859-1"?>
<!-- Generator: Adobe Illustrator 19.0.0, SVG Export Plug-In . SVG Version: 6.00 Build 0)  -->
<svg xmlns="http://www.w3.org/2000/svg" xmlns:xlink="http://www.w3.org/1999/xlink" version="1.1" id="Layer_1" x="0px" y="0px" viewBox="0 0 500.051 500.051" style="enable-background:new 0 0 500.051 500.051;" xml:space="preserve" width="512" height="512">
<g>
	<path d="M485.736,285.532c-11.1-16.85-31.3-23.6-50.26-16.8c-66.85,23.767-135.58,14.748-191.34-18.7   c-50.21-30.11-86.03-77.57-101.19-133.94l21.43-89.6c2.119-8.855-4.068-17.538-13.14-18.42l-82.45-8   c-7.77-0.76-14.83,4.59-16.21,12.29l-16.36,91.48c-19.07,37.88-29.1,80.15-29.1,122.82c0,73.07,28.42,141.72,80.02,193.32   c92.454,92.455,235.234,105.301,341.89,36.15h0.01c28.845-18.722,25.475-58.64,0.01-75.31c19.286-11.917,36.858-26.334,52.33-42.93   c0,0,0,0,0.01,0C494.996,323.282,496.746,302.242,485.736,285.532z M79.666,31.272l51.53,5c-10.347,43.241-15.36,64.16-15.36,64.16   c-24.783-2.613-40.963-4.31-47.64-5.01C68.196,95.422,70.244,83.987,79.666,31.272z M368.526,453.582   c-159.143,61.907-331.41-56.3-331.41-226.92c0-34.284,7.297-69.37,22.35-101.99c0,0,41.893,4.405,42.61,4.48   c-1.591,67.571,25.056,140.836,80.06,195.84c48.631,48.631,114.106,78.229,186.39,79.979   C368.526,414.504,368.526,443.295,368.526,453.582z M412.716,430.952c-6.354,4.115-12.899,7.848-14.19,8.52v-35.38   c3.336-0.28,15.415-3.005,20,9.67C419.426,416.322,421.666,425.142,412.716,430.952z M372.466,375.032   c-63.88-0.74-123.85-25.98-169.12-71.25c-34.1-34.1-56.84-76.53-66.3-122.69c21.38,38.73,52.69,71.3,91.66,94.67   c55.15,33.079,120.546,44.558,185.19,30.33l10.48,41.88C408.316,359.282,390.946,368.332,372.466,375.032z M459.436,317.432   c-3.039,3.263-6.471,6.717-9.4,9.5l-7.25-28.97c7.757-3.784,14.224-1.504,17.9,4.08   C463.844,306.801,463.886,312.663,459.436,317.432z"/>
</g>















</svg>
