<?xml version="1.0" encoding="iso-8859-1"?>
<!-- Generator: Adobe Illustrator 19.0.0, SVG Export Plug-In . SVG Version: 6.00 Build 0)  -->
<svg xmlns="http://www.w3.org/2000/svg" xmlns:xlink="http://www.w3.org/1999/xlink" version="1.1" id="Layer_1" x="0px" y="0px" viewBox="0 0 498.001 498.001" style="enable-background:new 0 0 498.001 498.001;" xml:space="preserve" width="512" height="512">
<g>
	<g>
		<path d="M136.662,498.001c-60.689,0-109.598-49.45-108.925-110.163c0.621-56.025,44.1-102.271,99.122-107.256l0.633-0.056    c7.851-0.655,13.227-7.301,12.566-14.438c-5.682-61.299,42.7-118.956,108.643-118.883c63.462,0.07,110.776,51.598,108.938,112.145    c-0.227,7.438,5.223,13.554,12.674,14.226c57.546,5.188,103.031,55.797,99.133,115.707    c-3.715,57.063-51.461,101.763-108.699,101.763c-46.483,0-87.88-29.514-103.011-73.44c-2.734-7.939-13.784-7.743-16.082,0.563    C228.652,465.173,185.478,498.001,136.662,498.001z M248.268,177.161c-47.474,0-82.416,42.159-78.339,86.16    c2.219,23.934-15.668,45.074-39.855,47.094l-0.51,0.045c-39.834,3.609-71.386,37.744-71.829,77.71    c-0.487,43.976,34.922,79.831,78.927,79.831c35.375,0,66.66-23.781,76.078-57.831c4.624-16.717,19.854-28.392,37.035-28.392    c16.358,0,30.957,10.472,36.325,26.057c10.964,31.827,40.961,53.211,74.646,53.211c41.476,0,76.072-32.378,78.762-73.712    c2.762-42.429-29.487-80.057-71.89-83.879c0,0,0,0-0.001,0c-23.114-2.085-40.669-21.857-39.965-45.016    C328.963,215.288,295.703,177.161,248.268,177.161z"/>
	</g>
	<g>
		<g>
			<path d="M159.48,138.924c-28.645-5.052-47.74-32.318-42.689-60.966c4.013-22.752,32.865-83.578,67.111-77.539     c33.993,5.997,40.64,72.58,36.544,95.815C215.414,124.774,188.103,143.964,159.48,138.924z M178.658,30.162     c-10.959,4.2-29.512,37.069-32.322,53.005c-2.167,12.287,6.066,24.046,18.354,26.212c12.285,2.171,24.046-6.065,26.212-18.354     C193.721,75.029,187.479,37.824,178.658,30.162z"/>
		</g>
		<g>
			<path d="M277.555,96.235c-4.013-22.763,2.303-89.774,36.543-95.815c34.232-6.038,63.097,54.774,67.112,77.539     c5.05,28.646-14.042,55.914-42.689,60.966C309.91,143.963,282.591,124.788,277.555,96.235z M319.343,30.162     c-8.858,7.693-15.053,44.925-12.243,60.863c2.166,12.286,13.915,20.516,26.212,18.354c12.287-2.166,20.521-13.925,18.354-26.212     C348.797,66.899,330.108,34.288,319.343,30.162z"/>
		</g>
	</g>
	<g>
		<g>
			<path d="M60.771,246.748c-29.019,0-52.627-23.608-52.627-52.626c0-23.132,17.862-88.015,52.627-88.015     c34.52,0,52.627,64.429,52.627,88.015C113.398,223.14,89.79,246.748,60.771,246.748z M60.771,136.309     c-10.076,6.051-22.627,41.653-22.627,57.813c0,12.476,10.15,22.626,22.627,22.626s22.627-10.15,22.627-22.626     C83.398,177.711,70.726,142.287,60.771,136.309z"/>
		</g>
		<g>
			<path d="M437.23,246.748c-29.019,0-52.627-23.608-52.627-52.626c0-23.132,17.862-88.015,52.627-88.015     c34.52,0,52.627,64.429,52.627,88.015C489.857,223.14,466.249,246.748,437.23,246.748z M437.23,136.309     c-10.076,6.051-22.627,41.653-22.627,57.813c0,12.476,10.15,22.626,22.627,22.626s22.627-10.15,22.627-22.626     C459.857,177.711,447.185,142.287,437.23,136.309z"/>
		</g>
	</g>
</g>















</svg>
