<?xml version="1.0" encoding="iso-8859-1"?>
<!-- Generator: Adobe Illustrator 19.0.0, SVG Export Plug-In . SVG Version: 6.00 Build 0)  -->
<svg xmlns="http://www.w3.org/2000/svg" xmlns:xlink="http://www.w3.org/1999/xlink" version="1.1" id="Layer_1" x="0px" y="0px" viewBox="0 0 498.999 498.999" style="enable-background:new 0 0 498.999 498.999;" xml:space="preserve" width="512" height="512">
<g>
	<path d="M300.85,189.599l46.64-46.63c5.86-5.86,5.86-15.36,0-21.22l-8.45-8.44h0l32.533-32.533c5.858-5.857,5.858-15.355,0-21.213   c-5.857-5.857-15.355-5.857-21.213,0l-32.528,32.528l-0.002-0.002l-33.96-33.95h0l32.533-32.533c5.858-5.857,5.858-15.355,0-21.213   c-5.857-5.857-15.355-5.857-21.213,0l-32.528,32.528l-0.002-0.002l-8.45-8.44c-5.873-5.893-15.395-5.835-21.21,0L186.36,75.12   c-28.408,28.408-30.899,71.983-9.62,102.899L31.98,322.779c-5.86,5.851-5.86,15.351,0,21.211c5.83,5.829,15.333,5.876,21.21,0   l144.76-144.761C228.796,220.41,272.316,218.133,300.85,189.599z M207.58,96.33l36.03-36.03l72.06,72.06l-36.03,36.03   c-19.809,19.788-52.021,20.04-72.06,0C187.592,148.401,187.719,116.169,207.58,96.33z"/>
	<path d="M467.02,155.009c-5.86-5.86-15.35-5.86-21.21,0l-144.76,144.76c-30.846-21.181-74.366-18.904-102.9,9.63l-46.64,46.63   c-5.86,5.86-5.86,15.36,0,21.221l8.45,8.439l0,0.001l-32.533,32.533c-5.858,5.857-5.858,15.355,0,21.213   c5.858,5.858,15.355,5.857,21.213,0l32.528-32.528l0.002,0.002l33.96,33.949l0,0.001l-32.533,32.533   c-5.858,5.857-5.858,15.355,0,21.213c5.858,5.858,15.355,5.857,21.213,0l32.528-32.528l0.002,0.002l8.45,8.439   c5.873,5.894,15.395,5.835,21.21,0l46.64-46.64c28.441-28.442,30.878-72.015,9.62-102.9l144.76-144.76   C472.88,170.37,472.88,160.87,467.02,155.009z M291.42,402.669l-36.03,36.03c-9.821-9.821-62.197-62.197-72.06-72.061l36.03-36.03   c20.014-19.992,52.212-19.847,72.06,0C311.409,350.599,311.28,382.83,291.42,402.669z"/>
</g>















</svg>
