<?xml version="1.0" encoding="iso-8859-1"?>
<!-- Generator: Adobe Illustrator 19.0.0, SVG Export Plug-In . SVG Version: 6.00 Build 0)  -->
<svg xmlns="http://www.w3.org/2000/svg" xmlns:xlink="http://www.w3.org/1999/xlink" version="1.1" id="Layer_1" x="0px" y="0px" viewBox="0 0 494.18 494.18" style="enable-background:new 0 0 494.18 494.18;" xml:space="preserve" width="512" height="512">
<g>
	<path d="M339.22,196.67c2.33-4.16,3.66-8.96,3.66-14.06v-32.67c0-15.58-12.35-28.31-27.77-28.92   c-0.15-22.05-10.84-42.31-28.5-54.88V39.52C286.61,17.73,268.88,0,247.09,0s-39.52,17.73-39.52,39.52v26.62   c-17.66,12.57-28.35,32.83-28.5,54.88c-15.42,0.61-27.77,13.34-27.77,28.92v32.67c0,5.1,1.33,9.9,3.66,14.06   c-14.45,12-23.66,30.1-23.66,50.31v211.8c0,19.52,15.88,35.4,35.4,35.4h160.78c19.52,0,35.4-15.88,35.4-35.4v-211.8   C362.88,226.77,353.67,208.67,339.22,196.67z M288.59,150.99c9.855,0,15.695,0,24.29,0v30.57c-9.528,0-16.165,0-24.29,0   C288.59,154.489,288.59,163.781,288.59,150.99z M229.51,87.79c4.95-2.58,8.06-7.71,8.06-13.29V39.52c0-5.25,4.27-9.52,9.52-9.52   s9.52,4.27,9.52,9.52V74.5c0,5.58,3.11,10.71,8.06,13.29c12.45,6.52,20.25,19.2,20.44,33.2c-16.599,0-58.675,0-76.04,0   C209.26,106.99,217.06,94.31,229.51,87.79z M258.59,150.99c0,12.791,0,3.502,0,30.57h-23c0-27.07,0-17.779,0-30.57H258.59z    M181.3,150.99c0.963,0,1.295,0,1.396,0c0.028,0,0.039,0,0.04,0c0.333,0,3.187,0,22.854,0c0,12.791,0,3.502,0,30.57   c-8.08,0-14.849,0-24.29,0V150.99z M332.88,271.85h-66.79c-8.28,0-15,6.72-15,15c0,8.29,6.72,15,15,15h66.79v27.33h-66.79   c-8.28,0-15,6.72-15,15c0,8.29,6.72,15,15,15h66.79v27.34h-66.79c-8.28,0-15,6.71-15,15c0,8.28,6.72,15,15,15h66.79v42.26   c0,2.98-2.43,5.4-5.4,5.4H166.7c-2.97,0-5.4-2.42-5.4-5.4v-211.8c0-19.53,15.89-35.42,35.43-35.42c11.186,0,89.13,0,100.72,0   c19.54,0,35.43,15.89,35.43,35.42V271.85z"/>
</g>















</svg>
