<?xml version="1.0" encoding="iso-8859-1"?>
<!-- Generator: Adobe Illustrator 19.0.0, SVG Export Plug-In . SVG Version: 6.00 Build 0)  -->
<svg xmlns="http://www.w3.org/2000/svg" xmlns:xlink="http://www.w3.org/1999/xlink" version="1.1" id="Layer_1" x="0px" y="0px" viewBox="0 0 497.24 497.24" style="enable-background:new 0 0 497.24 497.24;" xml:space="preserve" width="512" height="512">
<g>
	<path d="M423.863,110.28h-97.91c-0.81-21.8-18.8-39.28-40.78-39.28h-7.14V15c0-8.28-6.72-15-15-15h-141.7c-8.28,0-15,6.72-15,15v56   h-7.14c-22.51,0-40.81,18.31-40.81,40.82c0,182.398-0.035,172.745,0.07,173.8l12.3,122.51v48.29c0,22.51,18.31,40.82,40.82,40.82   h161.22c22.51,0,40.82-18.31,40.82-40.82v-48.29l8.98-89.49h101.27c8.29,0,15-6.71,15-15V125.28   C438.863,117,432.153,110.28,423.863,110.28z M408.863,288.64h-83.25l0.3-3.02c0.104-1.043,0.07,8.48,0.07-145.34h82.88V288.64z    M283.683,405.88c-0.05,0.5-0.07,1-0.07,1.5v49.04c0,5.97-4.86,10.82-10.82,10.82h-161.22c-5.97,0-10.82-4.85-10.82-10.82v-49.04   c0-0.5-0.02-1-0.07-1.5l-12.3-122.51V111.82c0-5.97,4.85-10.82,10.81-10.82h7.14v20.67c0,8.28,6.72,15,15,15h141.7   c8.305,0,15-6.736,15-15c0-7.21,0-1.829,0-20.67h7.14c5.987,0,10.81,4.88,10.81,10.82c0,6.133,0,163.243,0,171.55   C295.979,283.407,283.786,404.851,283.683,405.88z M136.333,30h111.7c0,36.845,0,39.06,0,76.67h-111.7   C136.333,99.209,136.333,37.901,136.333,30z"/>
	<path d="M374.513,277.38c8.29,0,15-6.71,15-15v-95.84c0-8.28-6.71-15-15-15c-8.28,0-15,6.72-15,15v95.84   C359.513,270.67,366.233,277.38,374.513,277.38z"/>
	<path d="M263.033,150.16h-141.7c-8.28,0-15,6.71-15,15v109.28c0,8.28,6.72,15,15,15h141.7c8.275,0,15-6.719,15-15V165.16   C278.033,156.86,271.305,150.16,263.033,150.16z M248.033,259.44h-111.7v-79.28h111.7V259.44z"/>
	<path d="M139.683,312.36h-12.61c-8.29,0-15,6.72-15,15c0,8.28,6.71,15,15,15h12.61c8.28,0,15-6.72,15-15   C154.683,319.08,147.963,312.36,139.683,312.36z"/>
	<path d="M139.683,358.4h-12.61c-8.29,0-15,6.71-15,15c0,8.28,6.71,15,15,15h12.61c8.28,0,15-6.72,15-15   C154.683,365.11,147.963,358.4,139.683,358.4z"/>
	<path d="M139.683,404.43h-12.61c-8.29,0-15,6.72-15,15c0,8.29,6.71,15,15,15h12.61c8.28,0,15-6.71,15-15   C154.683,411.15,147.963,404.43,139.683,404.43z"/>
	<path d="M198.483,312.36h-12.61c-8.28,0-15,6.72-15,15c0,8.28,6.72,15,15,15h12.61c8.29,0,15-6.72,15-15   C213.483,319.08,206.773,312.36,198.483,312.36z"/>
	<path d="M198.483,358.4h-12.61c-8.28,0-15,6.71-15,15c0,8.28,6.72,15,15,15h12.61c8.29,0,15-6.72,15-15   C213.483,365.11,206.773,358.4,198.483,358.4z"/>
	<path d="M198.483,404.43h-12.61c-8.28,0-15,6.72-15,15c0,8.29,6.72,15,15,15h12.61c8.29,0,15-6.71,15-15   C213.483,411.15,206.773,404.43,198.483,404.43z"/>
	<path d="M257.293,312.36h-12.61c-8.29,0-15,6.72-15,15c0,8.28,6.71,15,15,15h12.61c8.28,0,15-6.72,15-15   C272.293,319.08,265.573,312.36,257.293,312.36z"/>
	<path d="M257.293,358.4h-12.61c-8.29,0-15,6.71-15,15c0,8.28,6.71,15,15,15h12.61c8.28,0,15-6.72,15-15   C272.293,365.11,265.573,358.4,257.293,358.4z"/>
	<path d="M257.293,404.43h-12.61c-8.29,0-15,6.72-15,15c0,8.29,6.71,15,15,15h12.61c8.28,0,15-6.71,15-15   C272.293,411.15,265.573,404.43,257.293,404.43z"/>
	<path d="M181.613,247.36c5.862,5.862,15.34,5.87,21.21,0l31.37-31.37c5.86-5.86,5.86-15.35,0-21.21c-5.85-5.86-15.35-5.86-21.21,0   c-5.072,5.07-18.938,18.928-20.77,20.76c-0.9-0.899-5.454-5.454-6.35-6.35c-5.86-5.86-15.35-5.86-21.21,0   c-5.86,5.86-5.86,15.36,0,21.21L181.613,247.36z"/>
</g>















</svg>
