<?xml version="1.0" encoding="iso-8859-1"?>
<!-- Generator: Adobe Illustrator 19.0.0, SVG Export Plug-In . SVG Version: 6.00 Build 0)  -->
<svg xmlns="http://www.w3.org/2000/svg" xmlns:xlink="http://www.w3.org/1999/xlink" version="1.1" id="Layer_1" x="0px" y="0px" viewBox="0 0 492 492" style="enable-background:new 0 0 492 492;" xml:space="preserve" width="512" height="512">
<g>
	<path d="M415.62,79.16V15c0-8.28-6.72-15-15-15H91.38c-8.28,0-15,6.72-15,15v64.16c-21.64,132.81-21.57,267.47,0.2,400.27   c1.19,7.25,7.46,12.57,14.8,12.57h309.24c7.34,0,13.61-5.32,14.8-12.57C437.19,346.63,437.26,211.97,415.62,79.16z M106.38,30   h279.24v35.35H106.38V30z M387.81,462H104.19c-18.641-121.648-18.659-245.835,0-366.65h283.62   C406.438,215.966,406.479,340.165,387.81,462z"/>
	<path d="M349.67,327.79h-45.96c-15.95,0-30.71,5.16-42.71,13.9v-23.91h25.05c36.01,0,65.3-29.3,65.3-65.3c0-8.29-6.71-15-15-15   H296.3c-12.99,0-25.12,3.81-35.3,10.39v-13.14l8.73-8.74c27.139-27.128,29.321-65.117-13.12-107.59   c-5.86-5.858-15.372-5.846-21.22,0c-42.658,42.69-39.637,81.094-13.12,107.59l8.73,8.74v13.14c-10.18-6.58-22.31-10.39-35.3-10.39   h-40.05c-8.29,0-15,6.71-15,15c0,36,29.29,65.3,65.3,65.3H231v23.91c-12-8.74-26.76-13.9-42.71-13.9h-45.96c-8.28,0-15,6.72-15,15   c0,40.1,32.62,72.72,72.71,72.72H231v20.16c0,8.28,6.72,15,15,15s15-6.72,15-15v-20.16h30.96c40.09,0,72.71-32.62,72.71-72.72   C364.67,334.51,357.95,327.79,349.67,327.79z M296.3,267.48h21.71c-5.65,11.98-17.85,20.3-31.96,20.3h-21.7   C270,275.79,282.2,267.48,296.3,267.48z M205.95,287.78c-14.11,0-26.31-8.32-31.96-20.3h21.71c14.1,0,26.3,8.31,31.95,20.3H205.95z    M200.04,385.51c-18.27,0-33.9-11.54-39.99-27.72h28.24c18.27,0,33.91,11.54,39.99,27.72H200.04z M246,207.3   c-19.182-19.182-16.191-40.886,0-57.08C261.786,166.009,265.507,187.792,246,207.3z M291.96,385.51h-28.24   c6.08-16.18,21.72-27.72,39.99-27.72h28.24C325.86,373.97,310.23,385.51,291.96,385.51z"/>
</g>















</svg>
