<?xml version="1.0" encoding="iso-8859-1"?>
<!-- Generator: Adobe Illustrator 19.0.0, SVG Export Plug-In . SVG Version: 6.00 Build 0)  -->
<svg xmlns="http://www.w3.org/2000/svg" xmlns:xlink="http://www.w3.org/1999/xlink" version="1.1" id="Layer_1" x="0px" y="0px" viewBox="0 0 492.224 492.224" style="enable-background:new 0 0 492.224 492.224;" xml:space="preserve" width="512" height="512">
<g>
	<path d="M492.2,476.262l-18.3-322.37c-0.45-7.95-7.02-14.15-14.98-14.15h-63.73v-52.71c0-47.93-38.99-86.92-86.92-86.92   c-47.93,0-86.92,38.99-86.92,86.92v52.71h-60.5c-7.96,0-14.53,6.2-14.98,14.15l-18.3,322.37c-0.482,8.642,6.396,15.85,14.98,15.85   h334.67C485.83,492.112,492.681,484.865,492.2,476.262z M251.35,87.032c0-31.39,25.54-56.92,56.92-56.92   c31.38,0,56.92,25.53,56.92,56.92v52.71H251.35V87.032z M158.42,462.112l16.6-292.37h46.33v53.83c0,8.28,6.72,15,15,15   c8.29,0,15-6.72,15-15v-53.83h113.84v53.83c0,8.28,6.71,15,15,15c8.28,0,15-6.72,15-15v-53.83h49.56l16.59,292.37H158.42z"/>
	<path d="M94.298,231.112H15c-8.284,0-15,6.716-15,15s6.716,15,15,15h79.298c8.284,0,15-6.716,15-15S102.582,231.112,94.298,231.112   z"/>
	<path d="M94.298,305.529H45.749c-8.284,0-15,6.716-15,15s6.716,15,15,15h48.549c8.284,0,15-6.716,15-15   S102.582,305.529,94.298,305.529z"/>
	<path d="M94.298,379.946H15c-8.284,0-15,6.716-15,15s6.716,15,15,15h79.298c8.284,0,15-6.716,15-15S102.582,379.946,94.298,379.946   z"/>
</g>















</svg>
