<?xml version="1.0" encoding="iso-8859-1"?>
<!-- Generator: Adobe Illustrator 19.0.0, SVG Export Plug-In . SVG Version: 6.00 Build 0)  -->
<svg xmlns="http://www.w3.org/2000/svg" xmlns:xlink="http://www.w3.org/1999/xlink" version="1.1" id="Layer_1" x="0px" y="0px" viewBox="0 0 493.929 493.929" style="enable-background:new 0 0 493.929 493.929;" xml:space="preserve" width="512" height="512">
<g>
	<path d="M463.204,186.893l-68.017-97.151V45c0-24.813-20.187-45-45-45H143.742c-24.813,0-45,20.187-45,45v44.741l-68.017,97.151   c-1.7,2.428-2.712,5.484-2.712,8.631c0,0.001,0,0.002,0,0.004v283.402c0,8.284,6.716,15,15,15h407.902c8.284,0,15-6.716,15-15   V195.527C465.916,192.443,464.944,189.379,463.204,186.893z M128.742,45c0-8.271,6.729-15,15-15h206.445c8.271,0,15,6.729,15,15   v33.559H128.742V45z M122.189,108.559H371.74l50.363,71.937H71.826L122.189,108.559z M435.916,463.929H58.013V210.496h377.902   V463.929z"/>
	<path d="M85.965,395.002c8.284,0,15-6.716,15-15v-45.847c6.014,6.81,9.381,12.307,17.634,12.307   c8.283,0,11.669-5.553,17.633-12.306v45.846c0,8.284,6.716,15,15,15s15-6.716,15-15v-85.491c0-6.236-3.859-11.822-9.691-14.029   c-5.834-2.207-12.423-0.574-16.552,4.1l-21.39,24.22l-21.391-24.221c-4.129-4.674-10.72-6.305-16.552-4.1   c-5.833,2.207-9.691,7.793-9.691,14.029v85.491C70.965,388.287,77.68,395.002,85.965,395.002z"/>
	<path d="M201.325,395.002c8.284,0,15-6.716,15-15v-85.491c0-8.284-6.716-15-15-15s-15,6.716-15,15v85.491   C186.325,388.287,193.041,395.002,201.325,395.002z"/>
	<path d="M251.223,395.199h45.144c8.284,0,15-6.716,15-15s-6.716-15-15-15h-30.144v-70.492c0-8.284-6.716-15-15-15s-15,6.716-15,15   v85.492C236.223,388.483,242.939,395.199,251.223,395.199z"/>
	<path d="M339.902,395.002c8.284,0,15-6.716,15-15v-19.16l10.959-11.747l30.128,39.94c4.988,6.614,14.395,7.931,21.008,2.942   c6.613-4.989,7.931-14.395,2.941-21.008l-33.3-44.144l20.868-22.367c5.651-6.058,5.322-15.549-0.735-21.201   c-6.057-5.651-15.549-5.322-21.2,0.735l-30.67,32.873v-22.354c0-8.284-6.716-15-15-15s-15,6.716-15,15v85.491   C324.902,388.287,331.618,395.002,339.902,395.002z"/>
</g>















</svg>
