<?xml version="1.0" encoding="iso-8859-1"?>
<!-- Generator: Adobe Illustrator 19.0.0, SVG Export Plug-In . SVG Version: 6.00 Build 0)  -->
<svg xmlns="http://www.w3.org/2000/svg" xmlns:xlink="http://www.w3.org/1999/xlink" version="1.1" id="Layer_1" x="0px" y="0px" viewBox="0 0 475.944 475.944" style="enable-background:new 0 0 475.944 475.944;" xml:space="preserve" width="512" height="512">
<g>
	<path d="M471.552,373.795C465.808,368.05,104.88,7.123,102.171,4.414c-5.852-5.854-15.357-5.858-21.213,0   C-26.98,112.353-26.992,287.058,80.959,395.007c107.819,107.821,282.644,107.95,390.593,0.001   C477.405,389.156,477.41,379.651,471.552,373.795z M391.374,336.044c-69.56,58.933-174.648,56.461-241.281-10.171   c-65.995-65.995-69.385-171.249-10.165-241.274L391.374,336.044z M102.172,373.794C8.427,280.049,7.166,132.022,91.88,36.55   l26.771,26.771c-70.148,80.814-68.596,204.939,10.23,283.766c77.635,77.637,201.896,81.164,283.757,10.222l26.778,26.778   C343.88,468.857,195.861,467.483,102.172,373.794z"/>
	<path d="M177.629,196.577l4.373-4.373c5.858-5.857,5.858-15.355,0-21.213c-5.857-5.857-15.355-5.857-21.213,0l-4.373,4.373   c-5.858,5.857-5.858,15.355,0,21.213C162.275,202.436,171.771,202.435,177.629,196.577z"/>
	<path d="M300.602,319.55l4.373-4.373c5.858-5.857,5.858-15.355,0-21.213c-5.857-5.857-15.355-5.857-21.213,0l-4.373,4.373   c-5.858,5.857-5.858,15.355,0,21.213C285.247,325.408,294.744,325.407,300.602,319.55z"/>
	<path d="M180.738,274.016c-5.858,5.857-5.858,15.355,0,21.213c5.858,5.858,15.355,5.857,21.213,0l4.373-4.373   c5.858-5.857,5.858-15.355,0-21.213c-5.857-5.857-15.355-5.857-21.213,0L180.738,274.016z"/>
</g>















</svg>
