<?xml version="1.0" encoding="iso-8859-1"?>
<!-- Generator: Adobe Illustrator 19.0.0, SVG Export Plug-In . SVG Version: 6.00 Build 0)  -->
<svg xmlns="http://www.w3.org/2000/svg" xmlns:xlink="http://www.w3.org/1999/xlink" version="1.1" id="Layer_1" x="0px" y="0px" viewBox="0 0 498.34 498.34" style="enable-background:new 0 0 498.34 498.34;" xml:space="preserve" width="512" height="512">
<g>
	<path d="M327.115,163.75c42.641-32.877,61.117-88.273,33.09-116.3c-15.707-15.707-39.858-16.072-61.06-8.43   C288.495,15.32,270.275,0,249.175,0s-39.32,15.32-49.97,39.02c-21.218-7.647-45.381-7.249-61.06,8.43   c-28.124,28.124-9.393,83.545,33.09,116.3c-23.03,16.98-33.76,46.31-33.76,92.19c0,80.912,40.07,242.4,111.7,242.4   c71.428,0,111.7-160.742,111.7-242.4C360.875,210.06,350.145,180.73,327.115,163.75z M307.525,67.92   c9.605-3.792,24.177-6.529,31.47,0.74c4.58,4.58,5.77,13.17,3.26,23.56c-8.219,34.085-45.834,57.878-49.33,57.34   C307.642,126.512,311.77,95.039,307.525,67.92z M249.175,30c14.161,0,29.92,25.113,29.92,58.5c0,28.694-12.798,57.91-29.92,57.91   c-17.114,0-29.92-29.195-29.92-57.91C219.255,55.058,235.041,30,249.175,30z M159.355,68.66c7.282-7.258,21.86-4.534,31.47-0.74   c-4.245,27.119-0.118,58.591,14.6,81.64C190.953,151.788,137.899,90.114,159.355,68.66z M329.145,287.89h-54.71   c-8.29,0-15,6.72-15,15c0,8.29,6.71,15,15,15h50.58c-14.594,84.189-49.244,150.45-75.84,150.45c-24.25,0-47.184-51.115-55.56-73.88   h45.08c8.29,0,15-6.72,15-15c0-8.28-6.71-15-15-15h-54.8c-9.95-35.28-16.07-73.91-16.4-105.78h36.76c8.28,0,15-6.72,15-15   s-6.72-15-15-15h-35.05c4.16-28.72,15.74-41.72,33.3-47.55c12.863-4.3,29.006-4.72,46.67-4.72c17.905,0,33.873,0.454,46.67,4.72   c22.36,7.43,35.03,26.47,35.03,74.81C330.875,265.98,330.285,276.74,329.145,287.89z"/>
</g>















</svg>
