<?xml version="1.0" encoding="iso-8859-1"?>
<!-- Generator: Adobe Illustrator 19.0.0, SVG Export Plug-In . SVG Version: 6.00 Build 0)  -->
<svg xmlns="http://www.w3.org/2000/svg" xmlns:xlink="http://www.w3.org/1999/xlink" version="1.1" id="Layer_1" x="0px" y="0px" viewBox="0 0 499.96 499.96" style="enable-background:new 0 0 499.96 499.96;" xml:space="preserve" width="512" height="512">
<g>
	<path d="M352.59,113.31c-9.48-46.15-50.4-80.95-99.31-80.95c-8.28,0-15,6.72-15,15v71.36   c-38.973,10.709-77.659,32.284-101.19,64.67c-13.68-30.09-44.02-51.07-79.18-51.07H15c-8.28,0-15,6.71-15,15v22.15   c0,29.87,15.15,56.27,38.17,71.92C15.15,257.04,0,283.44,0,313.31v22.16c0,8.28,6.72,15,15,15h42.91   c32.41,0,60.73-17.83,75.67-44.2c23.038,35.16,63.73,58.472,104.7,69.73v76.6c0,8.29,6.72,15,15,15   c50.8,0,92.98-37.55,100.26-86.35c85.55-14.84,146.42-69.81,146.42-133.89C499.96,183.04,438.64,127.91,352.59,113.31z    M114.83,263.55c0,31.38-25.53,56.92-56.92,56.92H30v-7.16c0-31.39,25.54-56.92,56.92-56.92h27.91V263.55z M114.83,226.39H86.92   c-31.38,0-56.92-25.53-56.92-56.92v-7.15h27.91c31.39,0,56.92,25.53,56.92,56.91V226.39z M268.28,63.95   c24.31,5.22,44.06,22.85,52.26,45.91c-17.416-0.815-35.075,0.025-52.26,2.57V63.95z M268.28,436.02v-53.73   c17.63,2.611,35.953,3.45,53.93,2.48C315.31,410.42,294.43,430.4,268.28,436.02z M324.65,354.56   c-94.711,6.755-179.19-43.504-179.19-107.2c0-61.29,80.479-114.074,179.19-107.21C324.65,144.167,324.65,344.521,324.65,354.56z    M354.65,350.51c0-2.7,0-200.768,0-206.3c54.242,10.833,115.31,47.822,115.31,103.15C469.96,302.945,408.321,339.924,354.65,350.51   z"/>
	<path d="M410.67,222.88c-8.28,0-15,6.72-15,15v18.96c0,8.28,6.72,15,15,15c8.29,0,15-6.72,15-15v-18.96   C425.67,229.6,418.96,222.88,410.67,222.88z"/>
	<path d="M212.13,238.47c8.28,0,15-6.72,15-15c0-8.29-6.72-15-15-15c-21.45,0-38.89,17.44-38.89,38.89   c0,21.45,17.44,38.89,38.89,38.89c8.28,0,15-6.71,15-15c0-8.28-6.72-15-15-15c-4.9,0-8.89-3.99-8.89-8.89   S207.23,238.47,212.13,238.47z"/>
	<path d="M284.62,190.8c8.28,0,15-6.72,15-15c0-8.311-6.745-15-15-15c-21.484,0-38.9,17.486-38.9,38.89   c0,21.45,17.45,38.9,38.9,38.9c8.28,0,15-6.72,15-15c0-8.29-6.72-15-15-15c-4.91,0-8.9-3.99-8.9-8.9   C275.72,194.79,279.71,190.8,284.62,190.8z"/>
	<path d="M281.28,286.13c8.29,0,15-6.71,15-15c0-8.28-6.71-15-15-15c-21.44,0-38.89,17.45-38.89,38.9   c0,17.16,11.18,31.77,26.64,36.91c18.057,6.051,27.25-2.95,27.25-13.02c0-8.28-6.71-15-15-15c-4.9,0-8.89-3.99-8.89-8.89   C272.39,290.12,276.38,286.13,281.28,286.13z"/>
</g>















</svg>
