<?xml version="1.0" encoding="iso-8859-1"?>
<!-- Generator: Adobe Illustrator 19.0.0, SVG Export Plug-In . SVG Version: 6.00 Build 0)  -->
<svg xmlns="http://www.w3.org/2000/svg" xmlns:xlink="http://www.w3.org/1999/xlink" version="1.1" id="Layer_1" x="0px" y="0px" viewBox="0 0 494.486 494.486" style="enable-background:new 0 0 494.486 494.486;" xml:space="preserve" width="512" height="512">
<g>
	<path d="M339.27,70.359c-8.709,0-224.5,0-243.03,0c-53.07,0-96.24,43.18-96.24,96.25c0,38.85,23.13,72.4,56.35,87.59l-34.44,152.07   c-2.117,9.422,5.051,18.32,14.63,18.32h92.55c7.01,0,13.09-4.85,14.63-11.69l17.45-77.06h60.84c12.269,0,19.358-13.987,12.09-23.88   c-9.91-13.49-13.2-30.72-13.63-49.1c3.455,0,116.216,0,118.8,0c8.28,0,15-6.72,15-15v-162.5   C354.27,77.079,347.55,70.359,339.27,70.359z M324.27,232.859h-40.51v-132.5h40.51V232.859z M197.36,305.839h-29.39l9.73-42.98   h12.74C190.7,277.649,192.52,292.189,197.36,305.839z M117.11,394.589H55.32l29.97-132.36c6.966,0.815,5.51,0.63,61.65,0.63   C118.979,386.321,145.526,269.142,117.11,394.589z M96.24,232.859c-36.557,0-66.24-29.756-66.24-66.25   c0-36.53,29.71-66.25,66.24-66.25h157.52v132.5C237.619,232.859,113.29,232.859,96.24,232.859z"/>
	<path d="M406.835,99.897h72.65c8.284,0,15-6.716,15-15s-6.716-15-15-15h-72.65c-8.284,0-15,6.716-15,15   S398.551,99.897,406.835,99.897z"/>
	<path d="M479.486,124.216h-72.65c-8.284,0-15,6.716-15,15s6.716,15,15,15h72.65c8.284,0,15-6.716,15-15   S487.77,124.216,479.486,124.216z"/>
	<path d="M479.486,178.536h-72.65c-8.284,0-15,6.716-15,15s6.716,15,15,15h72.65c8.284,0,15-6.716,15-15   S487.77,178.536,479.486,178.536z"/>
	<path d="M479.486,232.855h-72.65c-8.284,0-15,6.716-15,15s6.716,15,15,15h72.65c8.284,0,15-6.716,15-15   S487.77,232.855,479.486,232.855z"/>
</g>















</svg>
