<?xml version="1.0" encoding="iso-8859-1"?>
<!-- Generator: Adobe Illustrator 19.0.0, SVG Export Plug-In . SVG Version: 6.00 Build 0)  -->
<svg xmlns="http://www.w3.org/2000/svg" xmlns:xlink="http://www.w3.org/1999/xlink" version="1.1" id="Layer_1" x="0px" y="0px" viewBox="0 0 478.667 478.667" style="enable-background:new 0 0 478.667 478.667;" xml:space="preserve" width="512" height="512">
<g>
	<path d="M369.077,0H109.59c-8.284,0-15,6.716-15,15v329.43c0,4.198,1.759,8.204,4.85,11.044l129.743,119.237   c5.74,5.274,14.56,5.274,20.301,0l129.743-119.237c3.091-2.841,4.85-6.847,4.85-11.044V15C384.077,6.716,377.361,0,369.077,0z    M354.077,337.843L239.333,443.294L124.59,337.843V30h229.486V337.843z"/>
	<path d="M220.986,189.985c16.199-16.2,16.199-42.559,0-58.759c-16.2-16.2-42.561-16.198-58.759,0   c-16.239,16.239-16.24,42.52,0,58.759C178.426,206.185,204.787,206.186,220.986,189.985z M183.44,152.44   c4.502-4.502,11.829-4.504,16.333,0c4.502,4.503,4.502,11.83,0,16.333c-4.505,4.504-11.83,4.501-16.333,0   C178.926,164.26,178.926,156.954,183.44,152.44z"/>
	<path d="M257.681,226.682c-16.199,16.2-16.199,42.559,0,58.759c16.199,16.199,42.559,16.2,58.759,0   c16.239-16.239,16.24-42.52,0-58.759C300.24,210.48,273.879,210.482,257.681,226.682z M295.227,247.895   c4.513,4.512,4.514,11.818,0,16.332c-4.503,4.503-11.83,4.503-16.333,0c-4.502-4.503-4.502-11.83,0-16.333   C283.398,243.392,290.723,243.392,295.227,247.895z"/>
	<path d="M180.999,266.667c5.857,5.858,15.355,5.858,21.213,0l95.455-95.454c5.858-5.857,5.858-15.355,0-21.213   c-5.856-5.858-15.354-5.858-21.213,0l-95.455,95.454C175.141,251.312,175.141,260.809,180.999,266.667z"/>
</g>















</svg>
