<?xml version="1.0" encoding="iso-8859-1"?>
<!-- Generator: Adobe Illustrator 21.0.0, SVG Export Plug-In . SVG Version: 6.00 Build 0)  -->
<svg version="1.1" id="Capa_1" xmlns="http://www.w3.org/2000/svg" xmlns:xlink="http://www.w3.org/1999/xlink" x="0px" y="0px"
	 viewBox="0 0 511.998 511.998" style="enable-background:new 0 0 511.998 511.998;" xml:space="preserve">
<g>
	<g>
		<path d="M495.738,132.541c-32.132-23.401-59.033-32.899-80.145-28.351c6.52-12.071,12.434-26.172,17.701-42.252l-28.479-9.328
			c-16.068,49.061-34.23,64.45-42.615,69.14c-27.042-21.292-61.446-32.731-98.721-31.519c-40.232,1.295-78.932,18.63-111.914,50.133
			c-27.123,25.907-50.377,61.561-65.473,100.395c-11.49,29.557-29.139,53.239-60.916,81.739
			c-7.47,6.699-16.764,15.036-21.599,27.191c-5.856,14.733-9.576,43.807,31.298,72.993c33.932,24.227,75.37,36.705,120.144,36.705
			c17.947,0,36.431-2.005,55.18-6.061c60.967-13.19,117.942-46.934,156.316-92.58c37.977-45.172,64.768-116.335,41.814-176.479
			c0.078,0.031,0.153,0.066,0.232,0.097c5.405,2.117,11.223,3.174,17.448,3.174c19.489,0,42.938-10.361,69.989-30.966l16.003-12.189
			L495.738,132.541z"/>
	</g>
</g>
<g>
</g>
<g>
</g>
<g>
</g>
<g>
</g>
<g>
</g>
<g>
</g>
<g>
</g>
<g>
</g>
<g>
</g>
<g>
</g>
<g>
</g>
<g>
</g>
<g>
</g>
<g>
</g>
<g>
</g>
</svg>
