<?xml version="1.0" encoding="iso-8859-1"?>
<!-- Generator: Adobe Illustrator 21.0.0, SVG Export Plug-In . SVG Version: 6.00 Build 0)  -->
<svg version="1.1" id="Capa_1" xmlns="http://www.w3.org/2000/svg" xmlns:xlink="http://www.w3.org/1999/xlink" x="0px" y="0px"
	 viewBox="0 0 512 512" style="enable-background:new 0 0 512 512;" xml:space="preserve">
<g>
	<g>
		<path d="M237.345,0l-14.765,74.84c11.926-1.809,21.899-2.175,27.977-2.174c2.304,0,4.143,0.05,5.452,0.103
			c1.307-0.053,3.144-0.102,5.445-0.102c11.021,0,31.287,1.138,53.538,7.94L329.648,0H237.345z"/>
	</g>
</g>
<g>
	<g>
		<path d="M320.821,114.731c0,0-0.002-0.001-0.003-0.001l-4.964-2.088c-22.49-8.832-44.501-9.977-54.401-9.977
			c-3.464,0-5.445,0.14-5.445,0.14s-1.984-0.14-5.451-0.14c-26.072,0-136.062,7.937-117.764,143.199
			c20.731,153.249,42.438,263.776,123.215,266.128c19.412-0.565,35.405-7.394,48.8-19.545
			c42.345-38.413,58.666-130.162,74.415-246.584C390.06,165.756,355.898,130.32,320.821,114.731z"/>
	</g>
</g>
<g>
	<g>
		<path d="M143.885,446.288c-18.303-47.57-29.19-110.417-40.82-196.402c-3.785-27.981-2.891-53.392,2.659-75.529
			c5.201-20.748,14.501-38.891,27.64-53.927c5.734-6.562,12.149-12.467,19.188-17.731c-13.238-0.349-65.448,0.776-99.655,37.238
			c-24.711,26.339-33.929,64.17-27.399,112.442c10.655,78.767,20.576,136.206,37.091,179.127
			c20.375,52.954,50.312,79.28,91.522,80.479l0.437,0.014l0.436-0.014c8.779-0.255,17.112-1.707,24.969-4.323
			C165.743,492.467,153.901,472.32,143.885,446.288z"/>
	</g>
</g>
<g>
	<g>
		<path d="M473.661,159.9c-10.975-19.751-27.701-34.76-49.714-44.617l-2.875-1.437h-0.515l-2.142-0.896
			c-25.61-10.058-50.438-10.46-58.945-10.247c14.058,10.476,25.448,23.453,33.993,38.827c16.088,28.951,21.3,65.407,15.49,108.356
			c-8.51,62.904-16.526,113.556-27.988,156.294c-12.557,46.823-28.235,79.427-48.936,101.522c7.827,2.596,16.153,4.027,25.006,4.285
			l0.437,0.014l0.437-0.014c20.989-0.61,39.448-8.011,54.865-21.996c20.578-18.667,35.872-48.653,48.133-94.371
			c10.446-38.95,17.795-85.433,25.614-143.239C491.525,215.377,487.199,184.262,473.661,159.9z"/>
	</g>
</g>
<g>
</g>
<g>
</g>
<g>
</g>
<g>
</g>
<g>
</g>
<g>
</g>
<g>
</g>
<g>
</g>
<g>
</g>
<g>
</g>
<g>
</g>
<g>
</g>
<g>
</g>
<g>
</g>
<g>
</g>
</svg>
