<?xml version="1.0" encoding="iso-8859-1"?>
<!-- Generator: Adobe Illustrator 21.0.0, SVG Export Plug-In . SVG Version: 6.00 Build 0)  -->
<svg version="1.1" id="Capa_1" xmlns="http://www.w3.org/2000/svg" xmlns:xlink="http://www.w3.org/1999/xlink" x="0px" y="0px"
	 viewBox="0 0 512 512" style="enable-background:new 0 0 512 512;" xml:space="preserve">
<g>
	<g>
		<path d="M511.843,209.964c-1.095-23.169-9.9-44.408-25.128-61.219c2.615-3.091,5.444-6.985,8.168-11.841
			c10.101-17.999,14.272-40.57,12.401-67.086l-29.973,2.117c2.428,34.393-8.092,51.294-13.89,57.873
			c-31.23-17.942-70.704-15.027-108.251,8.706c-5.294,3.346-10.308,6.969-15.107,10.796l72.394,13.525l-3.232,65.388l68.343-19.222
			l25.778,58.348C509.478,249.049,512.776,229.708,511.843,209.964z"/>
	</g>
</g>
<g>
	<g>
		<path d="M460.616,244.981l-83.464,23.474l4-80.902l-67.93-12.69c-10.404,11.466-19.933,23.623-29.304,35.602
			c-8.63,11.03-16.781,21.449-25.552,31.327c-33.404,37.617-75.888,55.624-133.703,56.672c-6.765,0.128-15.955-0.893-25.678-1.97
			c-29.987-3.319-67.306-7.449-88.745,14.969c-19.401,20.29-8.629,50.592,10.654,71.623c29.554,32.231,69.735,42.368,108.359,49.988
			c30.74,6.066,60.778,9.108,89.747,9.108c14.062,0,27.877-0.718,41.391-2.154c64.773-6.884,125.075-31.132,169.799-68.277
			c19.684-16.349,40.729-39.903,56.546-67.645L460.616,244.981z"/>
	</g>
</g>
<g>
</g>
<g>
</g>
<g>
</g>
<g>
</g>
<g>
</g>
<g>
</g>
<g>
</g>
<g>
</g>
<g>
</g>
<g>
</g>
<g>
</g>
<g>
</g>
<g>
</g>
<g>
</g>
<g>
</g>
</svg>
