<?xml version="1.0" encoding="iso-8859-1"?>
<!-- Generator: Adobe Illustrator 21.0.0, SVG Export Plug-In . SVG Version: 6.00 Build 0)  -->
<svg version="1.1" id="Capa_1" xmlns="http://www.w3.org/2000/svg" xmlns:xlink="http://www.w3.org/1999/xlink" x="0px" y="0px"
	 viewBox="0 0 512 512" style="enable-background:new 0 0 512 512;" xml:space="preserve">
<g>
	<g>
		<path d="M330.5,240.93c-7.18,0-13.2,5.04-14.71,11.76c-0.24,1.06-0.37,2.17-0.37,3.31s0.13,2.25,0.37,3.31
			c1.51,6.72,7.53,11.76,14.71,11.76h6.75v-30.14H330.5z"/>
	</g>
</g>
<g>
	<g>
		<path d="M201.671,240.788c-9.009,4.411-16.39,10.335-21.561,15.212c5.156,4.862,12.521,10.767,21.519,15.18
			C205.84,258.745,203.982,247.799,201.671,240.788z"/>
	</g>
</g>
<g>
	<g>
		<rect x="77.13" width="357.74" height="67.06"/>
	</g>
</g>
<g>
	<g>
		<path d="M276.81,256c-4.71-4.13-9.43-7.68-14.11-10.63c-10.719-6.735-21.196-10.362-31.653-10.939
			c3.159,10.977,5.041,26.144,0.072,43.102C246.189,276.64,261.5,269.433,276.81,256z"/>
	</g>
</g>
<g>
	<g>
		<rect x="97.25" y="364.08" width="317.5" height="50.857"/>
	</g>
</g>
<g>
	<g>
		<rect x="77.13" y="444.94" width="357.74" height="67.06"/>
	</g>
</g>
<g>
	<g>
		<rect x="97.25" y="97.06" width="317.5" height="50.857"/>
	</g>
</g>
<g>
	<g>
		<path d="M97.252,177.923v156.154h317.495V177.923H97.252z M367.25,301.07H330.5c-15.44,0-29.09-7.8-37.22-19.67
			c-20.99,17.44-42.83,26.24-65.19,26.24c-1.65,0-3.3-0.05-4.95-0.14c-45.3-2.62-74.23-40.93-75.44-42.56l-6.63-8.94l6.64-8.94
			c0.85-1.15,21.28-28.29,54.38-38.67c25.39-7.96,51.87-3.95,76.58,11.58c4.9,3.08,9.77,6.64,14.6,10.65
			c8.12-11.88,21.78-19.69,37.23-19.69h36.75V301.07z"/>
	</g>
</g>
<g>
</g>
<g>
</g>
<g>
</g>
<g>
</g>
<g>
</g>
<g>
</g>
<g>
</g>
<g>
</g>
<g>
</g>
<g>
</g>
<g>
</g>
<g>
</g>
<g>
</g>
<g>
</g>
<g>
</g>
</svg>
