<?xml version="1.0" encoding="iso-8859-1"?>
<!-- Generator: Adobe Illustrator 21.0.0, SVG Export Plug-In . SVG Version: 6.00 Build 0)  -->
<svg version="1.1" id="Capa_1" xmlns="http://www.w3.org/2000/svg" xmlns:xlink="http://www.w3.org/1999/xlink" x="0px" y="0px"
	 viewBox="0 0 512 512" style="enable-background:new 0 0 512 512;" xml:space="preserve">
<g>
	<g>
		<polygon points="280.66,341.467 88.616,341.467 83.96,442.165 285.316,442.165 		"/>
	</g>
</g>
<g>
	<g>
		<polygon points="274.618,210.77 94.659,210.77 90.003,311.467 279.273,311.467 		"/>
	</g>
</g>
<g>
	<g>
		<path d="M270.152,114.178c-1.067-23.066-15.762-42.307-36.106-50.144V0h-98.815v64.034c-20.345,7.837-35.04,27.078-36.106,50.145
			l-3.079,66.591h177.185L270.152,114.178z"/>
	</g>
</g>
<g>
	<g>
		<polygon points="286.703,472.165 82.573,472.165 80.733,511.95 288.543,511.95 		"/>
	</g>
</g>
<g>
	<g>
		<polygon points="431.267,44.67 431.267,0 320.277,0 320.277,512 350.277,512 350.277,190.67 431.267,190.67 431.267,145.67 
			350.277,145.67 350.277,115.67 431.267,115.67 431.267,74.67 350.277,74.67 350.277,44.67 		"/>
	</g>
</g>
<g>
</g>
<g>
</g>
<g>
</g>
<g>
</g>
<g>
</g>
<g>
</g>
<g>
</g>
<g>
</g>
<g>
</g>
<g>
</g>
<g>
</g>
<g>
</g>
<g>
</g>
<g>
</g>
<g>
</g>
</svg>
