<?xml version="1.0" encoding="iso-8859-1"?>
<!-- Generator: Adobe Illustrator 21.0.0, SVG Export Plug-In . SVG Version: 6.00 Build 0)  -->
<svg version="1.1" id="Capa_1" xmlns="http://www.w3.org/2000/svg" xmlns:xlink="http://www.w3.org/1999/xlink" x="0px" y="0px"
	 viewBox="0 0 512 512" style="enable-background:new 0 0 512 512;" xml:space="preserve">
<g>
	<g>
		<path d="M400.55,185.964c-3.53-6.94-7.31-13.18-11.27-18.68c-6.75-9.38-14.05-16.57-21.58-21.3c-6.91-4.36-14-6.64-21.03-6.64
			c-8.26,0-16.6,3.15-24.63,9.1c5.21,7.08,10.09,15.07,14.59,23.93c2.6,5.12,5.05,10.47,7.32,16.02
			c6.48,15.78,11.62,33.18,15.31,51.68c4.5,22.52,6.85,46.67,6.85,71.46c0,24.79-2.35,48.93-6.85,71.45
			c-3.69,18.5-8.83,35.9-15.31,51.68c-2.27,5.55-4.72,10.9-7.32,16.02c-4.5,8.86-9.38,16.85-14.59,23.93
			c8.03,5.95,16.37,9.1,24.63,9.1c7.03,0,14.13-2.29,21.04-6.64c7.52-4.74,14.82-11.93,21.57-21.29c3.96-5.5,7.74-11.75,11.27-18.69
			c16.92-33.29,26.23-77.88,26.23-125.56C426.78,263.844,417.47,219.253,400.55,185.964z"/>
	</g>
</g>
<g>
	<g>
		<path d="M328.63,240.073c-4.41-20-10.73-38.32-18.75-54.11c-2.71-5.33-5.56-10.25-8.54-14.74
			c-6.017-9.082-12.535-16.356-19.287-21.664c-6.456-42.048,42.541-91.503,42.541-91.503l-44.255-29.77
			c-55.99,46.391-53.177,106.067-51.273,121.963c-6.438,5.243-12.65,12.287-18.397,20.974c-2.99,4.49-5.84,9.41-8.55,14.74
			c-8.02,15.79-14.34,34.11-18.75,54.11c-4.91,22.16-7.48,46.38-7.48,71.46c0,25.07,2.57,49.28,7.48,71.45
			c4.41,19.99,10.73,38.33,18.75,54.11c2.71,5.34,5.57,10.26,8.55,14.75c6.44,9.71,13.44,17.39,20.7,22.77
			c8.02,5.95,16.36,9.1,24.63,9.1c8.27,0,16.61-3.15,24.63-9.1c7.26-5.38,14.26-13.06,20.71-22.77c2.97-4.49,5.83-9.41,8.54-14.75
			c8.02-15.78,14.34-34.12,18.75-54.11c4.911-22.17,7.481-46.38,7.481-71.45C336.11,286.453,333.54,262.233,328.63,240.073z"/>
	</g>
</g>
<g>
	<g>
		<path d="M84.7,450.683c-19.01-37.42-29.48-86.839-29.48-139.15c0-52.32,10.47-101.74,29.48-139.16
			c5.03-9.9,10.54-18.71,16.44-26.39c-6.91-4.36-14-6.64-21.03-6.64c-19.19,0-38.83,16.99-53.88,46.62
			C9.32,219.253,0,263.844,0,311.533c0,47.68,9.32,92.27,26.23,125.56c15.05,29.63,34.69,46.62,53.88,46.62
			c7.03,0,14.13-2.29,21.04-6.64C95.24,469.403,89.73,460.583,84.7,450.683z"/>
	</g>
</g>
<g>
	<g>
		<path d="M168.05,434.663c-6.48-15.78-11.62-33.18-15.31-51.68c-4.5-22.52-6.85-46.66-6.85-71.45c0-24.79,2.35-48.94,6.85-71.46
			c3.69-18.5,8.83-35.9,15.31-51.68c2.27-5.55,4.72-10.9,7.32-16.02c4.5-8.86,9.38-16.85,14.59-23.93
			c-8.03-5.95-16.37-9.1-24.63-9.1c-7.03,0-14.12,2.28-21.03,6.64c-7.53,4.73-14.83,11.92-21.58,21.3
			c-3.96,5.5-7.74,11.74-11.27,18.68c-16.92,33.29-26.23,77.88-26.23,125.57c0,47.68,9.31,92.27,26.23,125.56
			c3.53,6.94,7.31,13.19,11.27,18.69c6.75,9.36,14.05,16.55,21.57,21.29c6.91,4.35,14.01,6.64,21.04,6.64
			c8.26,0,16.6-3.15,24.63-9.1c-5.21-7.08-10.09-15.07-14.59-23.93C172.77,445.563,170.32,440.214,168.05,434.663z"/>
	</g>
</g>
<g>
	<g>
		<path d="M485.77,185.964c-15.05-29.63-34.69-46.62-53.88-46.62c-7.03,0-14.12,2.28-21.03,6.64c5.9,7.68,11.41,16.49,16.44,26.39
			c19.01,37.42,29.48,86.84,29.48,139.16c0,52.31-10.47,101.73-29.48,139.15c-5.03,9.9-10.54,18.72-16.45,26.39
			c6.91,4.35,14.01,6.64,21.04,6.64c19.19,0,38.83-16.99,53.88-46.62c16.91-33.29,26.23-77.88,26.23-125.56
			C512,263.844,502.68,219.253,485.77,185.964z"/>
	</g>
</g>
<g>
</g>
<g>
</g>
<g>
</g>
<g>
</g>
<g>
</g>
<g>
</g>
<g>
</g>
<g>
</g>
<g>
</g>
<g>
</g>
<g>
</g>
<g>
</g>
<g>
</g>
<g>
</g>
<g>
</g>
</svg>
