<?xml version="1.0" encoding="iso-8859-1"?>
<!-- Generator: Adobe Illustrator 21.0.0, SVG Export Plug-In . SVG Version: 6.00 Build 0)  -->
<svg version="1.1" id="Capa_1" xmlns="http://www.w3.org/2000/svg" xmlns:xlink="http://www.w3.org/1999/xlink" x="0px" y="0px"
	 viewBox="0 0 511.996 511.996" style="enable-background:new 0 0 511.996 511.996;" xml:space="preserve">
<g>
	<g>
		<rect x="118.298" y="75.64" width="214.96" height="49.825"/>
	</g>
</g>
<g>
	<g>
		<path d="M429.054,287.975c-24.865,0-45.094,20.229-45.094,45.095c0,24.865,20.229,45.094,45.094,45.094h69.77v-90.189H429.054z
			 M445.251,348.433h-30.728v-30.728h30.728V348.433z"/>
	</g>
</g>
<g>
	<g>
		<path d="M429.054,257.747h52.641V233.09H13.172v200.966h468.523V408.39h-52.641c-41.532,0-75.321-33.789-75.321-75.321
			C353.733,291.536,387.522,257.747,429.054,257.747z"/>
	</g>
</g>
<g>
	<g>
		<rect x="13.172" y="464.28" width="468.52" height="47.716"/>
	</g>
</g>
<g>
	<g>
		<rect x="13.172" y="155.691" width="468.523" height="47.172"/>
	</g>
</g>
<g>
	<g>
		<polygon points="169.346,0 169.346,45.411 363.476,45.411 363.476,125.463 407.133,125.463 407.133,0 		"/>
	</g>
</g>
<g>
</g>
<g>
</g>
<g>
</g>
<g>
</g>
<g>
</g>
<g>
</g>
<g>
</g>
<g>
</g>
<g>
</g>
<g>
</g>
<g>
</g>
<g>
</g>
<g>
</g>
<g>
</g>
<g>
</g>
</svg>
