<?xml version="1.0" encoding="iso-8859-1"?>
<!-- Generator: Adobe Illustrator 21.0.0, SVG Export Plug-In . SVG Version: 6.00 Build 0)  -->
<svg version="1.1" id="Capa_1" xmlns="http://www.w3.org/2000/svg" xmlns:xlink="http://www.w3.org/1999/xlink" x="0px" y="0px"
	 viewBox="0 0 512.001 512.001" style="enable-background:new 0 0 512.001 512.001;" xml:space="preserve">
<g>
	<g>
		<path d="M266.674,117.739c0.559-10.165,5.535-42.887,45.651-59.026l-5.6-13.918l-5.6-13.918
			c-8.098,3.257-15.151,7.05-21.314,11.165c-2.669-9.399-7.947-19.783-18.193-28.053c-23.54-19.001-63.274-18.645-118.094,1.064
			l-18.954,6.814l11.956,16.208c32.729,44.374,63.871,66.823,92.66,66.823c1.628,0,3.251-0.072,4.864-0.216
			c1.44-0.128,2.833-0.328,4.203-0.561c-1.176,6.074-1.535,11.049-1.623,14.277c-99.719,9.765-177.906,94.084-177.906,196.326
			c0,108.779,88.498,197.277,197.276,197.277s197.277-88.498,197.277-197.276C453.277,209.527,370.509,123.304,266.674,117.739z
			 M179.989,382.493h-30.004v-30.004h30.004V382.493z M212.661,435.501h-30.004v-30.004h30.004V435.501z M242.666,385.16h-30.004
			v-30.004h30.004V385.16z"/>
	</g>
</g>
<g>
</g>
<g>
</g>
<g>
</g>
<g>
</g>
<g>
</g>
<g>
</g>
<g>
</g>
<g>
</g>
<g>
</g>
<g>
</g>
<g>
</g>
<g>
</g>
<g>
</g>
<g>
</g>
<g>
</g>
</svg>
