<?xml version="1.0" encoding="iso-8859-1"?>
<!-- Generator: Adobe Illustrator 21.0.0, SVG Export Plug-In . SVG Version: 6.00 Build 0)  -->
<svg version="1.1" id="Capa_1" xmlns="http://www.w3.org/2000/svg" xmlns:xlink="http://www.w3.org/1999/xlink" x="0px" y="0px"
	 viewBox="0 0 512 512" style="enable-background:new 0 0 512 512;" xml:space="preserve">
<g>
	<g>
		<path d="M313.457,90.254V0H198.538v90.254c-34.185,10.36-59.145,42.151-59.145,79.674V419.32h233.209v-0.001V169.928
			C372.602,132.405,347.642,100.614,313.457,90.254z M255.998,329.659c-31.336,0-56.83-25.493-56.83-56.829S224.662,216,255.998,216
			s56.83,25.494,56.83,56.83S287.334,329.659,255.998,329.659z"/>
	</g>
</g>
<g>
	<g>
		<path d="M255.998,246c-14.794,0-26.83,12.036-26.83,26.83s12.036,26.829,26.83,26.829s26.83-12.035,26.83-26.829
			S270.792,246,255.998,246z"/>
	</g>
</g>
<g>
	<g>
		<rect x="139.398" y="449.32" width="233.21" height="62.68"/>
	</g>
</g>
<g>
</g>
<g>
</g>
<g>
</g>
<g>
</g>
<g>
</g>
<g>
</g>
<g>
</g>
<g>
</g>
<g>
</g>
<g>
</g>
<g>
</g>
<g>
</g>
<g>
</g>
<g>
</g>
<g>
</g>
</svg>
