<?xml version="1.0" encoding="iso-8859-1"?>
<!-- Generator: Adobe Illustrator 21.0.0, SVG Export Plug-In . SVG Version: 6.00 Build 0)  -->
<svg version="1.1" id="Capa_1" xmlns="http://www.w3.org/2000/svg" xmlns:xlink="http://www.w3.org/1999/xlink" x="0px" y="0px"
	 viewBox="0 0 512 512" style="enable-background:new 0 0 512 512;" xml:space="preserve">
<g>
	<g>
		<path d="M196.031,66.18c-30.661,0-48.65,8.505-52.822,13.07c4.172,4.565,22.161,13.07,52.822,13.07s48.65-8.505,52.822-13.07
			C244.681,74.685,226.692,66.18,196.031,66.18z"/>
	</g>
</g>
<g>
	<g>
		<path d="M341.62,164.718c-40.217,19.345-93.354,29.998-149.625,29.998c-7.253,0-14.454-0.18-21.582-0.53v34.133h-30v-36.67
			c-36.666-4.448-70.406-13.637-98.043-26.931c-14.952-7.192-27.603-15.348-37.782-24.249v289.174
			c0,19.635,18.511,39.8,50.786,55.324c23.871,11.482,53.069,19.565,85.039,23.746v-38.031h30v40.75
			c7.113,0.373,14.313,0.568,21.582,0.568c51.859,0,100.379-9.601,136.621-27.033c32.274-15.524,50.785-35.689,50.785-55.324
			V140.469C369.222,149.37,356.571,157.526,341.62,164.718z M170.413,441.08h-30v-41.319h30V441.08z M170.413,370.159h-30v-41.318
			h30V370.159z M170.413,299.239h-30V257.92h30V299.239z"/>
	</g>
</g>
<g>
	<g>
		<path d="M341.624,0c43.707,21.024,67.777,50.272,67.777,82.357v347.285c0,6.24-0.922,12.371-2.711,18.357h100.723V0H341.624z"/>
	</g>
</g>
<g>
	<g>
		<path d="M328.616,27.033C292.374,9.601,243.854,0,191.995,0C140.135,0,91.616,9.601,55.374,27.033
			C23.098,42.558,4.587,62.723,4.587,82.357c0,19.636,18.511,39.801,50.786,55.325c36.242,17.433,84.762,27.033,136.621,27.033
			s100.379-9.601,136.621-27.033c32.274-15.524,50.785-35.689,50.785-55.325C379.401,62.723,360.89,42.558,328.616,27.033z
			 M250.081,112.976c-14.681,6.025-33.876,9.345-54.05,9.345s-39.369-3.319-54.05-9.345c-25.521-10.477-29.332-25.627-29.332-33.726
			s3.811-23.249,29.332-33.726c14.681-6.025,33.876-9.345,54.05-9.345s39.369,3.319,54.05,9.345
			c25.522,10.477,29.332,25.627,29.332,33.726S275.602,102.499,250.081,112.976z"/>
	</g>
</g>
<g>
</g>
<g>
</g>
<g>
</g>
<g>
</g>
<g>
</g>
<g>
</g>
<g>
</g>
<g>
</g>
<g>
</g>
<g>
</g>
<g>
</g>
<g>
</g>
<g>
</g>
<g>
</g>
<g>
</g>
</svg>
