<?xml version="1.0" encoding="iso-8859-1"?>
<!-- Generator: Adobe Illustrator 21.0.0, SVG Export Plug-In . SVG Version: 6.00 Build 0)  -->
<svg version="1.1" id="Capa_1" xmlns="http://www.w3.org/2000/svg" xmlns:xlink="http://www.w3.org/1999/xlink" x="0px" y="0px"
	 viewBox="0 0 511.999 511.999" style="enable-background:new 0 0 511.999 511.999;" xml:space="preserve">
<g>
	<g>
		<g>
			<path d="M389.002,258.986H122.991v143.008h266.011V258.986z M255.996,378.993c-26.745,0-48.503-21.758-48.503-48.503
				c0-26.746,21.758-48.503,48.503-48.503s48.503,21.758,48.503,48.503C304.499,357.234,282.741,378.993,255.996,378.993z"/>
			<path d="M255.996,311.989c-10.202,0-18.501,8.299-18.501,18.501c0,10.202,8.299,18.501,18.501,18.501
				c10.202,0,18.501-8.299,18.501-18.501C274.497,320.288,266.198,311.989,255.996,311.989z"/>
			<rect x="122.994" y="431.995" width="266.015" height="80.005"/>
			<path d="M313.625,143.037V80.614h-42.627V45.707c3.788-2.054,7.601-4.59,11.409-7.715c9.021-7.402,18.923-9.679,30.273-6.955
				c9.504,2.278,16.356,7.298,16.424,7.349l-0.081-0.062l18.194-23.855c-14.958-11.408-51.733-26.021-83.843,0.333
				c-8.816,7.233-17.612,9.562-26.891,7.117c-7.682-2.023-12.96-6.619-13.012-6.665l0.111,0.102l-20.308,22.083
				c7.351,6.761,21.173,14.637,37.721,15.374v27.802h-42.626v62.424c-39.015,11.341-68.668,44.866-74.366,85.947h263.99
				C382.292,187.904,352.64,154.378,313.625,143.037z"/>
		</g>
	</g>
</g>
<g>
</g>
<g>
</g>
<g>
</g>
<g>
</g>
<g>
</g>
<g>
</g>
<g>
</g>
<g>
</g>
<g>
</g>
<g>
</g>
<g>
</g>
<g>
</g>
<g>
</g>
<g>
</g>
<g>
</g>
</svg>
