<?xml version="1.0" encoding="iso-8859-1"?>
<!-- Generator: Adobe Illustrator 21.0.0, SVG Export Plug-In . SVG Version: 6.00 Build 0)  -->
<svg version="1.1" id="Capa_1" xmlns="http://www.w3.org/2000/svg" xmlns:xlink="http://www.w3.org/1999/xlink" x="0px" y="0px"
	 viewBox="0 0 512 512" style="enable-background:new 0 0 512 512;" xml:space="preserve">
<g>
	<g>
		<path d="M417.188,203.386c-17.022-28.003-40.691-49.32-67.28-60.777c-6.951-21.657-24.484-36.139-44.904-36.139
			c-12.773,0-24.541,5.826-33.238,15.562c10.38,5.516,20.286,12.295,29.599,20.308c14.624,12.582,27.451,27.863,38.122,45.419
			c21.641,35.601,33.079,78.006,33.079,122.631c0,44.759-11.502,87.267-33.262,122.928c-10.732,17.588-23.625,32.878-38.325,45.449
			c-8.785,7.513-18.092,13.93-27.822,19.23C281.7,506.828,292.893,512,305.005,512c19.277,0,36.464-13.468,44.002-33.62
			c26.874-11.328,50.817-32.701,68.024-60.901c18.926-31.016,28.93-68.077,28.93-107.174
			C445.96,271.324,436.01,234.352,417.188,203.386z"/>
	</g>
</g>
<g>
	<g>
		<path d="M241.362,141.332c-2.382-13.365-9.562-24.463-19.161-30.336c2.393-13.824,11.405-38.822,44.865-52.284l-5.599-13.918
			l-5.599-13.918c-8.098,3.257-15.152,7.05-21.315,11.166c-2.669-9.399-7.947-19.783-18.193-28.053
			C192.822-5.013,153.089-4.655,98.269,15.053l-18.954,6.814l11.956,16.208c32.729,44.374,63.871,66.823,92.66,66.823
			c1.628,0,3.251-0.072,4.865-0.216c1.44-0.128,2.832-0.328,4.203-0.561c-0.432,2.228-0.751,4.305-0.99,6.206
			c-9.78,5.461-17.233,16.263-19.988,29.439C111.233,158.218,66.039,227.602,66.039,310.39c0,83.056,45.486,152.627,106.57,170.806
			C177.259,499.073,190.69,512,206.543,512c16.314,0,30.061-13.692,34.315-32.38c58.617-20.343,101.703-88.397,101.703-169.23
			C342.561,229.788,299.723,161.889,241.362,141.332z M166.685,420.713c-45.059-29.462-46.843-76.375-46.898-78.358l29.993-0.816
			l-0.003-0.107c0.057,1.359,1.76,33.528,33.328,54.169L166.685,420.713z"/>
	</g>
</g>
<g>
</g>
<g>
</g>
<g>
</g>
<g>
</g>
<g>
</g>
<g>
</g>
<g>
</g>
<g>
</g>
<g>
</g>
<g>
</g>
<g>
</g>
<g>
</g>
<g>
</g>
<g>
</g>
<g>
</g>
</svg>
