<?xml version="1.0" encoding="iso-8859-1"?>
<!-- Generator: Adobe Illustrator 21.0.0, SVG Export Plug-In . SVG Version: 6.00 Build 0)  -->
<svg version="1.1" id="Capa_1" xmlns="http://www.w3.org/2000/svg" xmlns:xlink="http://www.w3.org/1999/xlink" x="0px" y="0px"
	 viewBox="0 0 512 512" style="enable-background:new 0 0 512 512;" xml:space="preserve">
<g>
	<g>
		<path d="M456.315,103.89c-1.67,14.96-7.9,29.6-18.26,42.77c-7.24,9.2-16.49,17.78-27.62,25.63v290.55h-296.01V512h343.72V238.03
			c28.93-18.5,44.74-41.87,44.74-66.49C502.885,146.09,486.525,122.58,456.315,103.89z"/>
	</g>
</g>
<g>
	<g>
		<path d="M217.945,0C102.615,0,9.115,42.84,9.115,95.69c0,22.77,17.36,43.67,46.34,60.1v277.05h324.98V155.79
			c28.98-16.43,46.34-37.33,46.34-60.1C426.775,42.84,333.275,0,217.945,0z M221.845,35.78h30v29.68c-1.33,0.09-2.65,0.2-3.97,0.32
			h-26.03V35.78z M131.805,95.29V71.78h30v11.21v18.79h-30V95.29z M103.625,149.89h30v30h-30V149.89z M148.625,377.33h-30v-30h30
			V377.33z M167.955,279.58h-30v-30h30V279.58z M245.065,326.33h-30v-30h30V326.33z M260.065,196.92h-30v-30h30V196.92z
			 M326.185,385.33h-30v-30h30V385.33z M326.185,267h-30v-30h30V267z M341.185,129.25h-30v-30h30V129.25z"/>
	</g>
</g>
<g>
</g>
<g>
</g>
<g>
</g>
<g>
</g>
<g>
</g>
<g>
</g>
<g>
</g>
<g>
</g>
<g>
</g>
<g>
</g>
<g>
</g>
<g>
</g>
<g>
</g>
<g>
</g>
<g>
</g>
</svg>
