<?xml version="1.0" encoding="iso-8859-1"?>
<!-- Generator: Adobe Illustrator 21.0.0, SVG Export Plug-In . SVG Version: 6.00 Build 0)  -->
<svg version="1.1" id="Capa_1" xmlns="http://www.w3.org/2000/svg" xmlns:xlink="http://www.w3.org/1999/xlink" x="0px" y="0px"
	 viewBox="0 0 512 512" style="enable-background:new 0 0 512 512;" xml:space="preserve">
<g>
	<g>
		<path d="M256,288c-13.51,0-24.5,10.99-24.5,24.5S242.49,337,256,337s24.5-10.99,24.5-24.5S269.51,288,256,288z"/>
	</g>
</g>
<g>
	<g>
		<rect x="112.76" width="286.49" height="71.78"/>
	</g>
</g>
<g>
	<g>
		<path d="M76.758,207.25v179.47h358.484V207.25H76.758z M256,367.001c-30.052,0-54.5-24.448-54.5-54.5
			c0-25.438,17.52-46.856,41.125-52.835c3.428-13.663,12.799-30.712,33.28-38.107l10.189,28.217
			c-6.335,2.288-10.018,6.876-12.162,11.27c21.266,7.433,36.568,27.685,36.568,51.455C310.5,342.553,286.052,367.001,256,367.001z"
			/>
	</g>
</g>
<g>
	<g>
		<rect x="76.76" y="416.72" width="358.48" height="95.28"/>
	</g>
</g>
<g>
	<g>
		<polygon points="386.357,101.779 125.642,101.779 83.004,177.25 428.996,177.25 		"/>
	</g>
</g>
<g>
</g>
<g>
</g>
<g>
</g>
<g>
</g>
<g>
</g>
<g>
</g>
<g>
</g>
<g>
</g>
<g>
</g>
<g>
</g>
<g>
</g>
<g>
</g>
<g>
</g>
<g>
</g>
<g>
</g>
</svg>
