<?xml version="1.0" encoding="iso-8859-1"?>
<!-- Generator: Adobe Illustrator 21.0.0, SVG Export Plug-In . SVG Version: 6.00 Build 0)  -->
<svg version="1.1" id="Capa_1" xmlns="http://www.w3.org/2000/svg" xmlns:xlink="http://www.w3.org/1999/xlink" x="0px" y="0px"
	 viewBox="0 0 512 512" style="enable-background:new 0 0 512 512;" xml:space="preserve">
<g>
	<g>
		<path d="M493.395,225.316c-27.03-24.49-65.081-51.716-114.316-70.181l-24.32,59.33l-27.756-11.378l23.473-57.262
			c-10.618-2.945-21.681-5.456-33.189-7.447l-31.19,76.087l-27.756-11.378l28.141-68.65c-9.873-0.823-20.034-1.259-30.484-1.259
			c-1.761,0-3.513,0.012-5.257,0.037l-33.306,81.25l-27.757-11.378l27.827-67.884c-13.502,1.433-26.45,3.585-38.84,6.341
			l-29.892,72.922l-27.757-11.378l20.993-51.214c-53.666,18.411-94.738,47.466-123.41,73.444
			C1.21,241.076-4.512,264.046,3.67,285.261c8.786,22.783,31.251,37.504,57.231,37.504h390.198c25.98,0,48.444-14.722,57.231-37.504
			C516.512,264.045,510.789,241.076,493.395,225.316z"/>
	</g>
</g>
<g>
	<g>
		<rect x="0.019" y="348.823" width="511.962" height="29.998"/>
	</g>
</g>
<g>
</g>
<g>
</g>
<g>
</g>
<g>
</g>
<g>
</g>
<g>
</g>
<g>
</g>
<g>
</g>
<g>
</g>
<g>
</g>
<g>
</g>
<g>
</g>
<g>
</g>
<g>
</g>
<g>
</g>
</svg>
