<?xml version="1.0" encoding="iso-8859-1"?>
<!-- Generator: Adobe Illustrator 21.0.0, SVG Export Plug-In . SVG Version: 6.00 Build 0)  -->
<svg version="1.1" id="Capa_1" xmlns="http://www.w3.org/2000/svg" xmlns:xlink="http://www.w3.org/1999/xlink" x="0px" y="0px"
	 viewBox="0 0 512.001 512.001" style="enable-background:new 0 0 512.001 512.001;" xml:space="preserve">
<g>
	<g>
		<path d="M116.336,190.901c-67.135,29.19-107.823,83.22-109.7,85.75L0,285.593l6.635,8.941c0.742,1,18.543,24.788,49.715,49.394
			c18.805,14.844,38.513,26.8,58.666,35.703C158.333,293.896,129.686,218.044,116.336,190.901z M96.116,268.825H67.724v-28.392
			h28.392V268.825z"/>
	</g>
</g>
<g>
	<g>
		<path d="M489.298,285.598C503.167,273.902,512,256.413,512,236.892v-28.236h-74.234c-28.235,0-52.224,18.469-60.559,43.955
			c-17.815-16.573-35.91-30.672-54.039-42.07v0.001c-10.701-6.729-21.445-12.545-32.222-17.486v-79.58l-15.619,0.642
			c-63.02,2.587-109.305,31.96-136.396,55.241c5.669,10.161,17.488,34.021,24.232,66.817c7.648,37.195,9.898,93.056-19.808,153.87
			c15.338,4.508,30.805,7.253,46.208,8.143c3.888,0.225,7.761,0.337,11.642,0.337c59.936-0.003,118.987-26.847,176.002-79.941
			c8.335,25.486,32.324,43.955,60.559,43.955h74.234v-28.237C512.001,314.782,503.168,297.293,489.298,285.598z"/>
	</g>
</g>
<g>
</g>
<g>
</g>
<g>
</g>
<g>
</g>
<g>
</g>
<g>
</g>
<g>
</g>
<g>
</g>
<g>
</g>
<g>
</g>
<g>
</g>
<g>
</g>
<g>
</g>
<g>
</g>
<g>
</g>
</svg>
