<?xml version="1.0" encoding="iso-8859-1"?>
<!-- Generator: Adobe Illustrator 21.0.0, SVG Export Plug-In . SVG Version: 6.00 Build 0)  -->
<svg version="1.1" id="Capa_1" xmlns="http://www.w3.org/2000/svg" xmlns:xlink="http://www.w3.org/1999/xlink" x="0px" y="0px"
	 viewBox="0 0 512 512" style="enable-background:new 0 0 512 512;" xml:space="preserve">
<g>
	<g>
		<circle cx="427.04" cy="367.311" r="38.586"/>
	</g>
</g>
<g>
	<g>
		<polygon points="435.263,152.351 359.324,152.351 359.324,236.168 506.612,236.168 		"/>
	</g>
</g>
<g>
	<g>
		<path d="M0,106.103v266.866h26.971c-0.154-1.867-0.252-3.75-0.252-5.656c0-37.818,30.767-68.586,68.586-68.586
			c37.818,0,68.586,30.768,68.586,68.586c0,1.906-0.099,3.789-0.252,5.657h165.686V106.103H0z M111.313,275.668H39.605v-30h71.708
			V275.668z M111.313,223.918H39.605v-30h71.708V223.918z M111.313,172.168H39.605v-30h71.708V172.168z"/>
	</g>
</g>
<g>
	<g>
		<path d="M359.324,266.168v90.28c5.223-32.672,33.596-57.721,67.716-57.721c37.818,0,68.586,30.768,68.586,68.586
			c0,1.906-0.099,3.789-0.252,5.657H512V266.168H359.324z"/>
	</g>
</g>
<g>
	<g>
		<circle cx="95.3" cy="367.311" r="38.586"/>
	</g>
</g>
<g>
</g>
<g>
</g>
<g>
</g>
<g>
</g>
<g>
</g>
<g>
</g>
<g>
</g>
<g>
</g>
<g>
</g>
<g>
</g>
<g>
</g>
<g>
</g>
<g>
</g>
<g>
</g>
<g>
</g>
</svg>
