<?xml version="1.0" encoding="iso-8859-1"?>
<!-- Generator: Adobe Illustrator 21.0.0, SVG Export Plug-In . SVG Version: 6.00 Build 0)  -->
<svg version="1.1" id="Capa_1" xmlns="http://www.w3.org/2000/svg" xmlns:xlink="http://www.w3.org/1999/xlink" x="0px" y="0px"
	 viewBox="0 0 512 512" style="enable-background:new 0 0 512 512;" xml:space="preserve">
<g>
	<g>
		<path d="M256,81.573c-10.201,0-18.5,8.299-18.5,18.5s8.299,18.5,18.5,18.5s18.5-8.299,18.5-18.5S266.201,81.573,256,81.573z"/>
	</g>
</g>
<g>
	<g>
		<path d="M374.449,0H271v53.959c19.422,6.333,33.5,24.606,33.5,46.115c0,26.743-21.757,48.5-48.5,48.5
			c-26.743,0-48.5-21.757-48.5-48.5c0-21.509,14.078-39.781,33.5-46.115V0H137.551L79.039,116.443V408h353.922V116.443L374.449,0z
			 M304.671,323.891c-2.841,5.24-6.599,9.469-11.269,12.689c-4.672,3.22-10.037,5.558-16.098,7.007
			c-2.105,0.504-4.235,0.915-6.386,1.244v26.545h-30v-27.155c-4.309-0.729-8.532-1.687-12.663-2.906
			c-4.924-1.45-9.691-3.187-14.298-5.208c-4.61-2.018-8.872-4.355-12.783-7.007l13.635-27.081c0.503,0.633,2.146,1.831,4.924,3.598
			c2.776,1.77,6.217,3.536,10.321,5.303c4.102,1.77,8.679,3.347,13.73,4.734c5.048,1.391,10.161,2.084,15.34,2.084
			c10.983,0,16.476-3.344,16.476-10.038c0.002-2.524-0.821-4.607-2.46-6.25c-1.642-1.64-3.915-3.125-6.817-4.45
			c-2.906-1.326-6.345-2.557-10.321-3.693c-3.978-1.136-8.303-2.396-12.973-3.787c-6.188-1.895-11.552-3.944-16.098-6.155
			c-4.545-2.207-8.303-4.764-11.268-7.67c-2.968-2.902-5.179-6.249-6.628-10.037c-1.453-3.787-2.179-8.205-2.179-13.257
			c0-7.068,1.326-13.318,3.978-18.748c2.651-5.427,6.249-10.005,10.795-13.73c4.545-3.723,9.814-6.533,15.813-8.427
			c1.145-0.362,2.308-0.678,3.479-0.971V185.46h30v24.651c4.319,0.866,8.472,1.954,12.446,3.278
			c4.166,1.391,8.049,2.968,11.646,4.734c3.599,1.77,6.913,3.536,9.943,5.303l-13.636,25.756c-0.379-0.503-1.704-1.45-3.978-2.841
			c-2.272-1.388-5.112-2.841-8.522-4.355c-3.409-1.516-7.135-2.841-11.174-3.978c-4.042-1.136-8.081-1.704-12.12-1.704
			c-11.111,0-16.665,3.726-16.665,11.173c0,2.272,0.598,4.167,1.799,5.682c1.198,1.516,2.965,2.873,5.303,4.072
			c2.335,1.201,5.27,2.305,8.806,3.313c3.533,1.012,7.638,2.148,12.311,3.409c6.438,1.77,12.244,3.692,17.423,5.776
			c5.175,2.083,9.564,4.672,13.161,7.764c3.599,3.096,6.374,6.851,8.333,11.268c1.956,4.421,2.935,9.724,2.935,15.908
			C308.932,312.244,307.511,318.653,304.671,323.891z"/>
	</g>
</g>
<g>
	<g>
		<rect x="79.04" y="438" width="353.92" height="74"/>
	</g>
</g>
<g>
</g>
<g>
</g>
<g>
</g>
<g>
</g>
<g>
</g>
<g>
</g>
<g>
</g>
<g>
</g>
<g>
</g>
<g>
</g>
<g>
</g>
<g>
</g>
<g>
</g>
<g>
</g>
<g>
</g>
</svg>
