<?xml version="1.0" encoding="iso-8859-1"?>
<!-- Generator: Adobe Illustrator 21.0.0, SVG Export Plug-In . SVG Version: 6.00 Build 0)  -->
<svg version="1.1" id="Capa_1" xmlns="http://www.w3.org/2000/svg" xmlns:xlink="http://www.w3.org/1999/xlink" x="0px" y="0px"
	 viewBox="0 0 512 512" style="enable-background:new 0 0 512 512;" xml:space="preserve">
<g>
	<g>
		<path d="M317.11,230.07C303.227,248.218,281.005,260,256,260s-47.227-11.782-61.11-29.93c-3.448,4.507-7.42,8.611-11.812,12.25
			v156.347h145.363V241.915C324.24,238.376,320.431,234.412,317.11,230.07z"/>
	</g>
</g>
<g>
	<g>
		<path d="M209.89,142.07v43.965C209.89,210.277,230.575,230,256,230s46.11-19.723,46.11-43.965V142.07H209.89z"/>
	</g>
</g>
<g>
	<g>
		<path d="M332.11,142.07v43.965c0,24.242,20.685,43.965,46.11,43.965c25.426,0,46.111-19.723,46.111-43.965V142.07H332.11z"/>
	</g>
</g>
<g>
	<g>
		<path d="M87.669,142.07v43.965c0,24.242,20.685,43.965,46.11,43.965s46.111-19.723,46.111-43.965V142.07H87.669z"/>
	</g>
</g>
<g>
	<g>
		<polygon points="279.791,0 232.21,0 212.723,112.07 299.277,112.07 		"/>
	</g>
</g>
<g>
	<g>
		<polygon points="387.753,0 310.241,0 329.727,112.07 332.11,112.07 423.481,112.07 		"/>
	</g>
</g>
<g>
	<g>
		<path d="M378.221,260c-6.841,0-13.468-0.896-19.779-2.548v171.215H153.078V257.585c-6.166,1.572-12.632,2.415-19.298,2.415
			c-8.88,0-17.404-1.5-25.334-4.229V512h294.627V255.93C395.279,258.555,386.922,260,378.221,260z M271.259,484.99h-29.5v-29.5h29.5
			V484.99z"/>
	</g>
</g>
<g>
	<g>
		<polygon points="124.292,0 88.083,112.07 179.89,112.07 182.273,112.07 201.76,0 		"/>
	</g>
</g>
<g>
</g>
<g>
</g>
<g>
</g>
<g>
</g>
<g>
</g>
<g>
</g>
<g>
</g>
<g>
</g>
<g>
</g>
<g>
</g>
<g>
</g>
<g>
</g>
<g>
</g>
<g>
</g>
<g>
</g>
</svg>
