<?xml version="1.0" encoding="iso-8859-1"?>
<!-- Generator: Adobe Illustrator 21.0.0, SVG Export Plug-In . SVG Version: 6.00 Build 0)  -->
<svg version="1.1" id="Capa_1" xmlns="http://www.w3.org/2000/svg" xmlns:xlink="http://www.w3.org/1999/xlink" x="0px" y="0px"
	 viewBox="0 0 512 512" style="enable-background:new 0 0 512 512;" xml:space="preserve">
<g>
	<g>
		<path d="M445.94,188.24c-12.36-23.32-26.88-37.25-38.84-37.25c-11.96,0-26.48,13.93-38.84,37.25
			c-10.78,20.35-18.56,46.01-19.69,64.33h117.06C464.5,234.25,456.72,208.591,445.94,188.24z"/>
	</g>
</g>
<g>
	<g>
		<rect y="282.57" width="512" height="43.93"/>
	</g>
</g>
<g>
	<g>
		<path d="M294.84,188.24c-12.36-23.32-26.88-37.25-38.84-37.25s-26.48,13.93-38.84,37.25c-10.78,20.35-18.56,46.01-19.69,64.33
			h117.06C313.4,234.25,305.62,208.591,294.84,188.24z"/>
	</g>
</g>
<g>
	<g>
		<path d="M143.74,188.24c-12.36-23.32-26.88-37.25-38.84-37.25c-11.96,0-26.48,13.93-38.84,37.25
			c-10.78,20.35-18.56,46.01-19.69,64.33h117.06C162.3,234.25,154.52,208.591,143.74,188.24z"/>
	</g>
</g>
<g>
	<g>
		<polygon points="28.992,356.5 50.785,473.323 159.894,473.323 172.26,407.033 189.316,407.033 201.682,473.323 310.791,473.323 
			323.157,407.033 339.74,407.033 352.106,473.323 461.215,473.323 483.008,356.5 		"/>
	</g>
</g>
<g>
	<g>
		<path d="M178.567,38.677c-29.971,0-55.758,43.562-67.262,82.771c21.663,3.051,42.38,21.501,58.935,52.743
			c3.79,7.15,7.22,14.71,10.21,22.41c2.99-7.7,6.42-15.26,10.21-22.41c15.641-29.518,34.998-47.609,55.358-52.091
			C234.61,82.724,208.705,38.677,178.567,38.677z"/>
	</g>
</g>
<g>
	<g>
		<path d="M329.667,38.677c-29.971,0-55.758,43.562-67.262,82.771c21.663,3.05,42.38,21.5,58.935,52.742
			c3.79,7.16,7.22,14.72,10.21,22.42c2.99-7.7,6.42-15.26,10.21-22.42c15.641-29.518,34.998-47.609,55.358-52.09
			C385.71,82.724,359.805,38.677,329.667,38.677z"/>
	</g>
</g>
<g>
</g>
<g>
</g>
<g>
</g>
<g>
</g>
<g>
</g>
<g>
</g>
<g>
</g>
<g>
</g>
<g>
</g>
<g>
</g>
<g>
</g>
<g>
</g>
<g>
</g>
<g>
</g>
<g>
</g>
</svg>
