<?xml version="1.0" encoding="iso-8859-1"?>
<!-- Generator: Adobe Illustrator 21.0.0, SVG Export Plug-In . SVG Version: 6.00 Build 0)  -->
<svg version="1.1" id="Capa_1" xmlns="http://www.w3.org/2000/svg" xmlns:xlink="http://www.w3.org/1999/xlink" x="0px" y="0px"
	 viewBox="0 0 512 512" style="enable-background:new 0 0 512 512;" xml:space="preserve">
<g>
	<g>
		<path d="M332.98,27.014L294.61,7.589l-38.369,19.425L217.892,7.6l-38.631,19.435l-53.6-26.967v144.731H386.34V0L332.98,27.014z
			 M302.66,100.225h-93.317V70.243h93.317V100.225z"/>
	</g>
</g>
<g>
	<g>
		<path d="M125.662,174.781v337.151l53.6-26.967l38.631,19.435l38.349-19.414l38.369,19.425l38.37-19.425L386.34,512V174.781
			H125.662z M226.16,431.893h-54.915v-29.982h54.915V431.893z M226.16,371.041h-54.915v-29.982h54.915V371.041z M226.16,310.19
			h-54.915v-29.982h54.915V310.19z M226.16,249.337h-54.915v-29.982h54.915V249.337z M341.655,351.456
			c-2.276,4.199-5.287,7.586-9.028,10.166c-3.743,2.579-8.042,4.453-12.897,5.615c-0.709,0.17-1.428,0.301-2.144,0.446v21.822
			h-29.982v-22.316c-2.426-0.496-4.82-1.079-7.173-1.773c-3.945-1.161-7.765-2.553-11.456-4.172
			c-3.694-1.617-7.108-3.49-10.242-5.615l10.925-21.698c0.403,0.508,1.719,1.468,3.945,2.883c2.224,1.417,4.981,2.833,8.27,4.248
			c3.286,1.418,6.954,2.681,11.001,3.794c4.045,1.115,8.142,1.669,12.291,1.669c8.8,0,13.201-2.679,13.201-8.042
			c0-2.022-0.659-3.691-1.973-5.008c-1.316-1.313-3.136-2.503-5.463-3.565c-2.328-1.062-5.083-2.049-8.269-2.959
			c-3.187-0.91-6.653-1.921-10.394-3.034c-4.957-1.518-9.256-3.16-12.897-4.932c-3.641-1.768-6.653-3.817-9.028-6.146
			c-2.378-2.326-4.149-5.007-5.311-8.042c-1.164-3.034-1.745-6.574-1.745-10.621c0-5.664,1.062-10.671,3.186-15.021
			c2.124-4.349,5.007-8.017,8.649-11.001c3.594-2.943,7.756-5.173,12.484-6.689v-20.922h29.982v20.402
			c2.401,0.568,4.738,1.221,7,1.974c3.338,1.115,6.449,2.378,9.332,3.794c2.883,1.418,5.539,2.833,7.966,4.248l-10.925,20.636
			c-0.304-0.403-1.366-1.161-3.187-2.276c-1.821-1.112-4.097-2.276-6.828-3.49c-2.731-1.213-5.716-2.276-8.953-3.187
			c-3.239-0.91-6.475-1.365-9.711-1.365c-8.903,0-13.353,2.986-13.353,8.953c0,1.821,0.479,3.338,1.441,4.552
			c0.96,1.214,2.376,2.302,4.248,3.263c1.87,0.962,4.223,1.847,7.056,2.656c2.831,0.81,6.119,1.721,9.863,2.731
			c5.159,1.418,9.811,2.959,13.96,4.628c4.147,1.669,7.663,3.744,10.546,6.221c2.883,2.48,5.107,5.489,6.676,9.029
			c1.567,3.542,2.352,7.79,2.352,12.745C345.07,342.124,343.932,347.26,341.655,351.456z"/>
	</g>
</g>
<g>
</g>
<g>
</g>
<g>
</g>
<g>
</g>
<g>
</g>
<g>
</g>
<g>
</g>
<g>
</g>
<g>
</g>
<g>
</g>
<g>
</g>
<g>
</g>
<g>
</g>
<g>
</g>
<g>
</g>
</svg>
