<?xml version="1.0" encoding="iso-8859-1"?>
<!-- Generator: Adobe Illustrator 21.0.0, SVG Export Plug-In . SVG Version: 6.00 Build 0)  -->
<svg version="1.1" id="Capa_1" xmlns="http://www.w3.org/2000/svg" xmlns:xlink="http://www.w3.org/1999/xlink" x="0px" y="0px"
	 viewBox="0 0 512.004 512.004" style="enable-background:new 0 0 512.004 512.004;" xml:space="preserve">
<g>
	<g>
		<path d="M22.329,212.665v34.717c0,19.143,15.574,34.716,34.716,34.716s34.717-15.574,34.717-34.716v-34.717H22.329z"/>
	</g>
</g>
<g>
	<g>
		<path d="M121.807,212.665v34.717c0,19.143,15.575,34.716,34.717,34.716s34.716-15.574,34.716-34.716v-34.717H121.807z"/>
	</g>
</g>
<g>
	<g>
		<path d="M221.285,212.665v34.717c0,19.143,15.575,34.716,34.717,34.716s34.717-15.574,34.717-34.716v-34.717H221.285z"/>
	</g>
</g>
<g>
	<g>
		<polygon points="149.612,97.095 129.23,182.621 198.079,182.621 203.737,97.095 		"/>
	</g>
</g>
<g>
	<g>
		<polygon points="362.391,97.095 308.267,97.095 313.925,182.621 382.774,182.621 		"/>
	</g>
</g>
<g>
	<g>
		<polygon points="278.156,97.095 233.847,97.095 228.19,182.621 283.814,182.621 		"/>
	</g>
</g>
<g>
	<g>
		<polygon points="60.089,97.095 25.747,182.621 98.345,182.621 118.728,97.095 		"/>
	</g>
</g>
<g>
	<g>
		<rect x="186.243" y="384.839" width="54.739" height="127.165"/>
	</g>
</g>
<g>
	<g>
		<path d="M454.958,312.143c-18.625,0-35.432-7.906-47.258-20.534h-4.963c-11.825,12.628-28.633,20.534-47.258,20.534
			c-18.621,0-35.419-7.911-47.244-20.534h-4.989c-11.825,12.623-28.624,20.534-47.245,20.534c-18.621,0-35.419-7.911-47.245-20.534
			h-4.989c-11.824,12.623-28.624,20.534-47.244,20.534c-18.625,0-35.432-7.906-47.258-20.534h-4.963
			c-11.825,12.628-28.633,20.534-47.258,20.534c-2.844,0-5.639-0.204-8.387-0.561V512h107.539V354.792h199.608V512h107.539V311.582
			C460.597,311.939,457.801,312.143,454.958,312.143z"/>
	</g>
</g>
<g>
	<g>
		<rect x="271.026" y="384.839" width="54.739" height="127.165"/>
	</g>
</g>
<g>
	<g>
		<path d="M320.763,212.665v34.717c0,19.143,15.574,34.716,34.716,34.716s34.717-15.574,34.717-34.716v-34.717H320.763z"/>
	</g>
</g>
<g>
	<g>
		<path d="M420.241,212.665v34.717c0,19.143,15.575,34.716,34.717,34.716s34.716-15.574,34.716-34.716v-34.717H420.241z"/>
	</g>
</g>
<g>
	<g>
		<polygon points="451.914,97.095 393.276,97.095 413.659,182.621 486.257,182.621 		"/>
	</g>
</g>
<g>
	<g>
		<rect x="95.351" width="321.307" height="67.051"/>
	</g>
</g>
<g>
</g>
<g>
</g>
<g>
</g>
<g>
</g>
<g>
</g>
<g>
</g>
<g>
</g>
<g>
</g>
<g>
</g>
<g>
</g>
<g>
</g>
<g>
</g>
<g>
</g>
<g>
</g>
<g>
</g>
</svg>
