<?xml version="1.0" encoding="iso-8859-1"?>
<!-- Generator: Adobe Illustrator 21.0.0, SVG Export Plug-In . SVG Version: 6.00 Build 0)  -->
<svg version="1.1" id="Capa_1" xmlns="http://www.w3.org/2000/svg" xmlns:xlink="http://www.w3.org/1999/xlink" x="0px" y="0px"
	 viewBox="0 0 511.999 511.999" style="enable-background:new 0 0 511.999 511.999;" xml:space="preserve">
<g>
	<g>
		<path d="M435.74,76.243C388.374,28.876,336.244-0.004,303.368,0c-10.112,0.001-18.409,2.735-24.178,8.504
			c-24.525,24.525,5.803,94.615,67.74,156.552c47.366,47.367,99.497,76.243,132.373,76.243c10.112,0,18.409-2.735,24.178-8.504
			C528.006,208.27,497.677,138.18,435.74,76.243z M417.842,147.157c-5.797,5.797-22.363-1.372-37.002-16.011
			c-14.639-14.64-21.808-31.206-16.011-37.003c5.797-5.797,22.363,1.372,37.002,16.011
			C416.47,124.793,423.639,141.36,417.842,147.157z"/>
	</g>
</g>
<g>
	<g>
		<path d="M479.303,271.314c-21.57,0-47.715-8.401-75.612-24.295c-26.223-14.94-53.19-35.944-77.985-60.74
			c-32.567-32.566-58.356-68.652-72.616-101.61c-7.724-17.85-11.886-34.362-12.371-49.079c-0.117-3.571-0.011-6.933,0.271-10.111
			l-34.717,34.717c-34.835,34.834-54.944,80.297-56.623,128.014c-1.047,29.727,5.131,58.122,17.764,83.252l-58.972,58.972
			c-25.245-23.578-64.967-23.058-89.574,1.551c-25.138,25.138-25.138,66.039,0,91.178c14.024,14.024,32.946,20.226,51.324,18.599
			c-0.168,1.906-0.253,3.83-0.253,5.766c0,17.221,6.706,33.412,18.884,45.588c12.177,12.177,28.368,18.883,45.588,18.883
			c17.22,0,33.412-6.706,45.588-18.883c12.178-12.177,18.884-28.368,18.884-45.589c0-16.476-6.138-32.009-17.333-43.986
			l59.032-59.032c23.827,11.912,50.153,17.843,76.837,17.843c47.807,0,96.744-19.017,134.369-56.642l34.734-34.734
			C484.212,271.185,481.82,271.314,479.303,271.314z"/>
	</g>
</g>
<g>
</g>
<g>
</g>
<g>
</g>
<g>
</g>
<g>
</g>
<g>
</g>
<g>
</g>
<g>
</g>
<g>
</g>
<g>
</g>
<g>
</g>
<g>
</g>
<g>
</g>
<g>
</g>
<g>
</g>
</svg>
