<?xml version="1.0" encoding="iso-8859-1"?>
<!-- Generator: Adobe Illustrator 21.0.0, SVG Export Plug-In . SVG Version: 6.00 Build 0)  -->
<svg version="1.1" id="Capa_1" xmlns="http://www.w3.org/2000/svg" xmlns:xlink="http://www.w3.org/1999/xlink" x="0px" y="0px"
	 viewBox="0 0 512 512" style="enable-background:new 0 0 512 512;" xml:space="preserve">
<g>
	<g>
		<path d="M313.177,289.694c-8.918,0-16.174,7.256-16.174,16.174c0,8.918,7.256,16.174,16.174,16.174s16.174-7.256,16.174-16.174
			C329.351,296.948,322.095,289.694,313.177,289.694z"/>
	</g>
</g>
<g>
	<g>
		<path d="M256,103.763c-83.834,0-152.039,68.204-152.039,152.039S172.165,407.841,256,407.841s152.039-68.204,152.039-152.039
			S339.835,103.763,256,103.763z M152.64,205.736c0-25.465,20.717-46.182,46.182-46.182c25.464,0,46.182,20.717,46.182,46.182
			c0,25.466-20.717,46.182-46.182,46.182C173.357,251.918,152.64,231.201,152.64,205.736z M196.967,349.299l-22.965-19.316
			l141.029-167.679l22.965,19.316L196.967,349.299z M313.177,352.05c-25.465,0-46.182-20.717-46.182-46.182
			c0-25.464,20.717-46.182,46.182-46.182s46.182,20.717,46.182,46.182C359.359,331.332,338.642,352.05,313.177,352.05z"/>
	</g>
</g>
<g>
	<g>
		<path d="M512,226.281l-37.418-44.115l4.341-57.683l-52.125-25.081L407.303,44.94l-57.822-1.711L309.518,1.403L256,23.357
			L202.481,1.403l-39.962,41.824l-57.822,1.711L85.202,99.4l-52.126,25.081l4.342,57.683L0,226.281l27.428,50.93l-16.24,55.52
			l45.773,35.371l7.746,57.326l56.202,13.695l30.393,49.22l56.914-10.348L256,510.597l47.784-32.601l56.913,10.348l30.393-49.22
			l56.202-13.695l7.747-57.326l45.772-35.371l-16.239-55.52L512,226.281z M256,437.849c-100.381,0-182.047-81.666-182.047-182.047
			S155.619,73.755,256,73.755s182.047,81.666,182.047,182.047S356.381,437.849,256,437.849z"/>
	</g>
</g>
<g>
	<g>
		<path d="M198.822,189.562c-8.919,0-16.174,7.256-16.174,16.174c0,8.919,7.256,16.174,16.174,16.174
			c8.918,0,16.174-7.256,16.174-16.174S207.74,189.562,198.822,189.562z"/>
	</g>
</g>
<g>
</g>
<g>
</g>
<g>
</g>
<g>
</g>
<g>
</g>
<g>
</g>
<g>
</g>
<g>
</g>
<g>
</g>
<g>
</g>
<g>
</g>
<g>
</g>
<g>
</g>
<g>
</g>
<g>
</g>
</svg>
