<?xml version="1.0" encoding="iso-8859-1"?>
<!-- Generator: Adobe Illustrator 21.0.0, SVG Export Plug-In . SVG Version: 6.00 Build 0)  -->
<svg version="1.1" id="Capa_1" xmlns="http://www.w3.org/2000/svg" xmlns:xlink="http://www.w3.org/1999/xlink" x="0px" y="0px"
	 viewBox="0 0 512 512" style="enable-background:new 0 0 512 512;" xml:space="preserve">
<g>
	<g>
		<path d="M227.111,301.485c-1.721-1.528-3.442-2.294-5.162-2.294h-14.052v21.794h14.769c1.721,0,3.32-0.789,4.803-2.366
			c1.481-1.577,2.223-4.42,2.223-8.531C229.692,305.882,228.832,303.015,227.111,301.485z"/>
	</g>
</g>
<g>
	<g>
		<path d="M398.257,195.227l-95.698-80.504c0.755-3.365,1.166-6.859,1.166-10.449c0-26.316-21.41-47.726-47.726-47.726
			c-26.316,0-47.726,21.41-47.726,47.726c0,3.59,0.412,7.084,1.166,10.449l-95.698,80.504H0v260.225h512V195.227H398.257z
			 M256,86.548c9.774,0,17.726,7.952,17.726,17.726S265.774,122,256,122c-9.774,0-17.726-7.952-17.726-17.726
			S246.226,86.548,256,86.548z M164.164,345.433c-2.581,6.165-6.166,11.614-10.754,16.346c-4.588,4.731-10.062,8.531-16.417,11.399
			c-6.358,2.868-13.313,4.302-20.863,4.302c-7.743,0-14.769-1.481-21.078-4.445c-6.309-2.962-11.71-6.858-16.203-11.686
			c-4.494-4.826-7.982-10.346-10.467-16.561c-2.487-6.213-3.728-12.618-3.728-19.214c0-6.69,1.29-13.142,3.872-19.357
			c2.581-6.213,6.188-11.686,10.826-16.418c4.635-4.731,10.131-8.506,16.489-11.327c6.356-2.818,13.31-4.23,20.863-4.23
			c7.743,0,14.769,1.483,21.078,4.445c6.309,2.964,11.708,6.883,16.203,11.758c4.492,4.875,7.958,10.42,10.396,16.633
			c2.438,6.215,3.656,12.571,3.656,19.07C168.036,332.84,166.745,339.268,164.164,345.433z M255.644,323.208
			c-1.626,4.254-3.896,8.029-6.811,11.328c-2.917,3.298-6.453,5.928-10.611,7.886c-4.158,1.96-8.724,2.939-13.693,2.939h-16.633
			v31.258h-27.96V274.816h43.876c4.969,0,9.558,1.028,13.765,3.083c4.205,2.057,7.814,4.732,10.826,8.03
			c3.011,3.298,5.377,7.075,7.098,11.327c1.72,4.255,2.58,8.532,2.58,12.833C258.081,314.583,257.269,318.956,255.644,323.208z
			 M269.264,376.62V274.816h71.263v24.376h-43.303v14.338h36.994v22.655h-36.994v16.059h44.593v24.376H269.264z M160.345,195.227
			l64.843-54.548C233.509,147.733,244.263,152,256,152s22.491-4.267,30.812-11.321l64.843,54.548H160.345z M423.257,376.62
			l-40.435-50.042v50.042h-27.96V274.816h21.794l40.865,51.762v-51.762h27.96V376.62H423.257z"/>
	</g>
</g>
<g>
	<g>
		<path d="M138.211,315.608c-0.956-3.201-2.415-6.021-4.373-8.459c-1.96-2.438-4.397-4.396-7.313-5.879
			c-2.917-1.481-6.333-2.223-10.252-2.223c-4.015,0-7.481,0.766-10.396,2.294c-2.917,1.53-5.33,3.562-7.241,6.094
			c-1.913,2.534-3.322,5.401-4.229,8.603c-0.91,3.204-1.362,6.477-1.362,9.822c0,3.441,0.477,6.764,1.434,9.965
			c0.955,3.204,2.389,6.047,4.302,8.532c1.911,2.487,4.324,4.494,7.241,6.022c2.915,1.53,6.38,2.294,10.395,2.294
			s7.503-0.789,10.467-2.366c2.962-1.577,5.377-3.631,7.241-6.165c1.864-2.531,3.248-5.424,4.158-8.675
			c0.907-3.249,1.362-6.546,1.362-9.894C139.645,322.132,139.166,318.812,138.211,315.608z"/>
	</g>
</g>
<g>
</g>
<g>
</g>
<g>
</g>
<g>
</g>
<g>
</g>
<g>
</g>
<g>
</g>
<g>
</g>
<g>
</g>
<g>
</g>
<g>
</g>
<g>
</g>
<g>
</g>
<g>
</g>
<g>
</g>
</svg>
