<?xml version="1.0" encoding="iso-8859-1"?>
<!-- Generator: Adobe Illustrator 21.0.0, SVG Export Plug-In . SVG Version: 6.00 Build 0)  -->
<svg version="1.1" id="Capa_1" xmlns="http://www.w3.org/2000/svg" xmlns:xlink="http://www.w3.org/1999/xlink" x="0px" y="0px"
	 viewBox="0 0 512 512" style="enable-background:new 0 0 512 512;" xml:space="preserve">
<g>
	<g>
		<polygon points="94.05,0 94.05,78 111.9,78 111.9,131.11 258.54,131.11 258.54,78 276.39,78 276.39,0 		"/>
	</g>
</g>
<g>
	<g>
		<polygon points="266.91,161.11 103.53,161.11 70.78,232.58 70.78,235.11 299.66,235.11 299.66,232.58 		"/>
	</g>
</g>
<g>
	<g>
		<path d="M211.31,497.41c-13.97-13.98-24.94-30.25-32.61-48.39c-5.97-14.1-9.72-28.85-11.22-44.02h-96.7v107h157.41
			C222.25,507.58,216.61,502.71,211.31,497.41z"/>
	</g>
</g>
<g>
	<g>
		<path d="M70.78,265.11V375h96.65c1.46-15.34,5.24-30.26,11.27-44.52c7.67-18.14,18.64-34.41,32.61-48.39
			c6.28-6.28,13.02-11.94,20.18-16.98H70.78z"/>
	</g>
</g>
<g>
	<g>
		<path d="M345.09,270.3c1.11-4.23,2.88-9.16,5.68-14.08c2.53-4.44,5.92-8.88,10.44-12.78c3-2.6,6.49-4.97,10.57-6.95l-13.12-26.98
			c-14.98,7.29-25.03,17.61-31.76,28.2c-1.86,2.92-3.46,5.87-4.85,8.78c-0.97,2.03-1.83,4.04-2.6,6.01c-1.74,4.48-3,8.76-3.9,12.61
			c-0.03,0.13-0.06,0.26-0.09,0.39c-0.09,0.41-0.19,0.82-0.27,1.22c-0.07,0.29-0.13,0.57-0.18,0.85c-5.2,0.16-10.33,0.65-15.35,1.45
			c-53.57,8.5-95.54,51.78-102.06,105.98c-0.58,4.84-0.88,9.76-0.88,14.75c0,5.16,0.32,10.25,0.94,15.25
			c6.72,53.97,48.6,97.01,102,105.48c6.29,1,12.74,1.52,19.31,1.52c67.52,0,122.25-54.73,122.25-122.25
			C441.22,331.19,400.06,282.26,345.09,270.3z M291.55,437h-29.33v-29.33h29.33V437z M333.64,458.33H304.3V429h29.34V458.33z"/>
	</g>
</g>
<g>
</g>
<g>
</g>
<g>
</g>
<g>
</g>
<g>
</g>
<g>
</g>
<g>
</g>
<g>
</g>
<g>
</g>
<g>
</g>
<g>
</g>
<g>
</g>
<g>
</g>
<g>
</g>
<g>
</g>
</svg>
