<?xml version="1.0" encoding="iso-8859-1"?>
<!-- Generator: Adobe Illustrator 21.0.0, SVG Export Plug-In . SVG Version: 6.00 Build 0)  -->
<svg version="1.1" id="Capa_1" xmlns="http://www.w3.org/2000/svg" xmlns:xlink="http://www.w3.org/1999/xlink" x="0px" y="0px"
	 viewBox="0 0 512 512" style="enable-background:new 0 0 512 512;" xml:space="preserve">
<g>
	<g>
		<rect x="333.07" y="32.896" width="91.42" height="88.86"/>
	</g>
</g>
<g>
	<g>
		<rect x="183.98" y="59.934" width="118.81" height="61.827"/>
	</g>
</g>
<g>
	<g>
		<path d="M176.49,351.643h284.605L512,152.041H96.843l49.367,186.434v80.793h27.978c-2.661,6.122-4.145,12.869-4.145,19.958
			c0,27.701,22.537,50.238,50.238,50.238s50.237-22.536,50.237-50.238c0-7.089-1.484-13.836-4.145-19.958h83.507
			c-2.661,6.122-4.145,12.869-4.145,19.958c0,27.701,22.537,50.238,50.238,50.238s50.237-22.536,50.237-50.238
			c0-7.089-1.484-13.836-4.145-19.958h22.816v-30.279H176.49V351.643z M383.773,202.422h30.279v96.022h-30.279V202.422z
			 M321.106,202.422h30.279v96.022h-30.279V202.422z M258.439,202.422h30.28v96.022h-30.28V202.422z M195.771,202.422h30.279v96.022
			h-30.279V202.422z"/>
	</g>
</g>
<g>
	<g>
		<polygon points="93.874,22.536 0,22.536 0,52.815 70.569,52.815 88.826,121.76 120.148,121.76 		"/>
	</g>
</g>
<g>
</g>
<g>
</g>
<g>
</g>
<g>
</g>
<g>
</g>
<g>
</g>
<g>
</g>
<g>
</g>
<g>
</g>
<g>
</g>
<g>
</g>
<g>
</g>
<g>
</g>
<g>
</g>
<g>
</g>
</svg>
