<?xml version="1.0" encoding="iso-8859-1"?>
<!-- Generator: Adobe Illustrator 21.0.0, SVG Export Plug-In . SVG Version: 6.00 Build 0)  -->
<svg version="1.1" id="Capa_1" xmlns="http://www.w3.org/2000/svg" xmlns:xlink="http://www.w3.org/1999/xlink" x="0px" y="0px"
	 viewBox="0 0 512 512" style="enable-background:new 0 0 512 512;" xml:space="preserve">
<g>
	<g>
		<path d="M425.362,234.994h-87.061c-0.077,1.065-0.129,2.134-0.129,3.208c0,24.074,19.586,43.659,43.66,43.659
			c24.074,0,43.659-19.585,43.659-43.659C425.491,237.128,425.44,236.059,425.362,234.994z"/>
	</g>
</g>
<g>
	<g>
		<path d="M334.534,410.934c-24.968,0-45.28,20.313-45.28,45.28c0,0.197,0.016,0.392,0.018,0.588h90.524
			c0.002-0.197,0.018-0.392,0.018-0.588C379.814,431.246,359.502,410.934,334.534,410.934z"/>
	</g>
</g>
<g>
	<g>
		<path d="M428.978,84.849c-35.87-22.718-69.847-28.66-71.277-28.902l-4.424-0.749L11.85,204.977h498.154
			C501.079,154.249,473.275,112.904,428.978,84.849z"/>
	</g>
</g>
<g>
	<g>
		<path d="M455.43,234.994c0.046,1.068,0.078,2.137,0.078,3.208c0,40.625-33.051,73.676-73.676,73.676s-73.677-33.051-73.677-73.676
			c0-1.071,0.032-2.141,0.078-3.208H0v66.249h15.008c13.748,0,24.932,11.185,24.932,24.933c0,13.748-11.184,24.932-24.932,24.932H0
			v105.694h259.246c-0.001-0.196-0.009-0.392-0.009-0.588c0-41.519,33.778-75.297,75.297-75.297
			c41.519,0,75.297,33.778,75.297,75.297c0,0.196-0.008,0.392-0.009,0.588H512V234.994H455.43z M189.28,372.961
			c-30.299,0-54.949-24.65-54.949-54.949s24.65-54.949,54.949-54.949s54.949,24.65,54.949,54.949S219.579,372.961,189.28,372.961z"
			/>
	</g>
</g>
<g>
	<g>
		<path d="M189.28,293.079c-13.748,0-24.933,11.185-24.933,24.932s11.185,24.933,24.933,24.933
			c13.748,0,24.932-11.185,24.932-24.933C214.212,304.263,203.028,293.079,189.28,293.079z"/>
	</g>
</g>
<g>
</g>
<g>
</g>
<g>
</g>
<g>
</g>
<g>
</g>
<g>
</g>
<g>
</g>
<g>
</g>
<g>
</g>
<g>
</g>
<g>
</g>
<g>
</g>
<g>
</g>
<g>
</g>
<g>
</g>
</svg>
