<?xml version="1.0" encoding="iso-8859-1"?>
<!-- Generator: Adobe Illustrator 21.0.0, SVG Export Plug-In . SVG Version: 6.00 Build 0)  -->
<svg version="1.1" id="Capa_1" xmlns="http://www.w3.org/2000/svg" xmlns:xlink="http://www.w3.org/1999/xlink" x="0px" y="0px"
	 viewBox="0 0 512 512" style="enable-background:new 0 0 512 512;" xml:space="preserve">
<g>
	<g>
		<path d="M250.5,147.044c-44.112,0-80,35.888-80,80s35.888,80,80,80s80-35.888,80-80S294.612,147.044,250.5,147.044z
			 M284.372,253.988c-2.027,3.752-4.702,6.75-8.021,8.991c-3.199,2.161-6.802,3.735-10.8,4.734v15.138h-30v-15.537
			c-1.323-0.296-2.645-0.613-3.962-0.972c-3.493-0.948-6.856-2.07-10.091-3.364c-3.234-1.294-6.232-2.759-8.991-4.398l10.867-22.122
			c3.018,1.898,6.165,3.58,9.444,5.045c2.759,1.293,5.886,2.458,9.379,3.493c3.493,1.035,7.051,1.553,10.673,1.553
			c2.759,0,4.678-0.366,5.757-1.1c1.078-0.732,1.617-1.702,1.617-2.911c0-1.293-0.539-2.393-1.617-3.299
			c-1.079-0.906-2.567-1.702-4.463-2.393c-1.898-0.689-4.075-1.379-6.533-2.07c-2.458-0.689-5.068-1.508-7.827-2.458
			c-4.055-1.378-7.548-2.866-10.479-4.463c-2.933-1.595-5.349-3.406-7.245-5.434c-1.899-2.025-3.299-4.334-4.205-6.921
			c-0.906-2.587-1.358-5.563-1.358-8.926c0-5.088,0.926-9.574,2.781-13.455c1.853-3.881,4.376-7.115,7.568-9.703
			c2.592-2.103,5.491-3.785,8.684-5.062v-13.002h30v12.304c1.468,0.395,2.913,0.826,4.332,1.298c2.976,0.993,5.757,2.07,8.344,3.234
			c2.587,1.164,4.916,2.264,6.986,3.299l-10.867,20.829c-2.587-1.553-5.262-2.931-8.021-4.14c-2.329-1.035-4.938-2.005-7.827-2.911
			c-2.89-0.906-5.714-1.358-8.474-1.358c-2.244,0-4.033,0.346-5.369,1.035c-1.338,0.691-2.005,1.855-2.005,3.493
			c0,1.209,0.388,2.199,1.165,2.976c0.776,0.776,1.896,1.488,3.363,2.135c1.466,0.646,3.255,1.273,5.369,1.875
			c2.112,0.605,4.505,1.338,7.18,2.2c4.225,1.293,8.042,2.717,11.449,4.269c3.406,1.552,6.317,3.386,8.732,5.498
			c2.414,2.114,4.269,4.68,5.563,7.698c1.294,3.02,1.94,6.685,1.94,10.996C287.412,245.602,286.397,250.237,284.372,253.988z"/>
	</g>
</g>
<g>
	<g>
		<path d="M396.178,73.128H115.947C114.15,136.258,63.131,187.279,0,189.075v74.971c63.453,1.806,114.669,53.339,115.969,116.915
			h280.188c1.299-63.534,52.448-115.04,115.843-116.91V189.07C448.927,187.209,397.974,136.216,396.178,73.128z M250.5,337.044
			c-60.654,0-110-49.346-110-110s49.346-110,110-110s110,49.346,110,110S311.154,337.044,250.5,337.044z"/>
	</g>
</g>
<g>
	<g>
		<path d="M426.198,73.128c1.772,46.544,39.274,84.087,85.802,85.923V73.128H426.198z"/>
	</g>
</g>
<g>
	<g>
		<path d="M0,294.065v86.895h85.964C84.679,333.927,46.909,295.85,0,294.065z"/>
	</g>
</g>
<g>
	<g>
		<path d="M0,73.128v85.927c46.586-1.773,84.154-39.341,85.927-85.927H0z"/>
	</g>
</g>
<g>
	<g>
		<path d="M426.161,380.961H512v-86.89C465.149,295.918,427.445,333.969,426.161,380.961z"/>
	</g>
</g>
<g>
	<g>
		<rect y="408.872" width="512" height="30"/>
	</g>
</g>
<g>
</g>
<g>
</g>
<g>
</g>
<g>
</g>
<g>
</g>
<g>
</g>
<g>
</g>
<g>
</g>
<g>
</g>
<g>
</g>
<g>
</g>
<g>
</g>
<g>
</g>
<g>
</g>
<g>
</g>
</svg>
