<?xml version="1.0" encoding="iso-8859-1"?>
<!-- Generator: Adobe Illustrator 21.0.0, SVG Export Plug-In . SVG Version: 6.00 Build 0)  -->
<svg version="1.1" id="Capa_1" xmlns="http://www.w3.org/2000/svg" xmlns:xlink="http://www.w3.org/1999/xlink" x="0px" y="0px"
	 viewBox="0 0 512 512" style="enable-background:new 0 0 512 512;" xml:space="preserve">
<g>
	<g>
		<rect x="218.33" width="232" height="70"/>
	</g>
</g>
<g>
	<g>
		<rect x="267.83" y="201.67" width="122" height="30.667"/>
	</g>
</g>
<g>
	<g>
		<rect x="126.5" y="201.67" width="39" height="79"/>
	</g>
</g>
<g>
	<g>
		<path d="M462.565,125.667h-85.898V100h-89v25.667H52.435l-27,268h464.129L462.565,125.667z M205,310.667h-9.5h-99H87v-30h9.5v-109
			h99v109h9.5V310.667z M285.333,361.833h-30v-30h30V361.833z M285.333,315.167h-30v-30h30V315.167z M343.833,361.833h-30v-30h30
			V361.833z M343.833,315.167h-30v-30h30V315.167z M402.333,361.833h-30v-30h30V361.833z M402.333,315.167h-30v-30h30V315.167z
			 M419.833,262.333h-182v-90.667h182V262.333z"/>
	</g>
</g>
<g>
	<g>
		<rect y="423.67" width="512" height="88.33"/>
	</g>
</g>
<g>
</g>
<g>
</g>
<g>
</g>
<g>
</g>
<g>
</g>
<g>
</g>
<g>
</g>
<g>
</g>
<g>
</g>
<g>
</g>
<g>
</g>
<g>
</g>
<g>
</g>
<g>
</g>
<g>
</g>
</svg>
