<?xml version="1.0" encoding="iso-8859-1"?>
<!-- Generator: Adobe Illustrator 21.0.0, SVG Export Plug-In . SVG Version: 6.00 Build 0)  -->
<svg version="1.1" id="Capa_1" xmlns="http://www.w3.org/2000/svg" xmlns:xlink="http://www.w3.org/1999/xlink" x="0px" y="0px"
	 viewBox="0 0 512 512" style="enable-background:new 0 0 512 512;" xml:space="preserve">
<g>
	<g>
		<path d="M243.543,0c-18.642,0-33.808,15.166-33.808,33.808v33.807h38.687v29.971h-38.687v40.779h67.615V33.808
			C277.35,15.166,262.184,0,243.543,0z"/>
	</g>
</g>
<g>
	<g>
		<path d="M154.917,43.914h-17.608c-13.702,0-24.848,11.147-24.848,24.848v69.603h67.303V68.762
			C179.764,55.061,168.618,43.914,154.917,43.914z"/>
	</g>
</g>
<g>
	<g>
		<rect x="307.32" y="62.21" width="91.4" height="76.15"/>
	</g>
</g>
<g>
	<g>
		<polygon points="416.254,168.336 95.746,168.336 76.815,404.434 435.185,404.434 		"/>
	</g>
</g>
<g>
	<g>
		<polygon points="437.588,434.404 74.412,434.404 68.191,512 443.809,512 		"/>
	</g>
</g>
<g>
</g>
<g>
</g>
<g>
</g>
<g>
</g>
<g>
</g>
<g>
</g>
<g>
</g>
<g>
</g>
<g>
</g>
<g>
</g>
<g>
</g>
<g>
</g>
<g>
</g>
<g>
</g>
<g>
</g>
</svg>
