<?xml version="1.0" encoding="iso-8859-1"?>
<!-- Generator: Adobe Illustrator 21.0.0, SVG Export Plug-In . SVG Version: 6.00 Build 0)  -->
<svg version="1.1" id="Capa_1" xmlns="http://www.w3.org/2000/svg" xmlns:xlink="http://www.w3.org/1999/xlink" x="0px" y="0px"
	 viewBox="0 0 512 512" style="enable-background:new 0 0 512 512;" xml:space="preserve">
<g>
	<g>
		<path d="M463.773,185.085c-20.236-50.314-63.246-81.516-115.065-83.472c-14.648-0.552-30.128,0.813-48.689,4.274
			c-6.29,1.184-12.451,2.94-18.4,4.635c-3.601,1.033-7.092,2.026-10.472,2.859c1.568-23.314,9.925-66.507,48.951-86.63L306.306,0
			c-30.213,15.579-51.093,43.454-60.384,80.615c-3.1,12.401-4.41,23.878-4.914,32.797c-0.001,0-0.001,0-0.001,0
			c-3.431-0.833-6.983-1.846-10.635-2.889c-5.949-1.696-12.099-3.451-18.4-4.635c-18.55-3.461-34.021-4.826-48.689-4.274
			c-51.809,1.956-94.829,33.158-115.055,83.472C15.652,266.08,33.871,362.363,95.763,436.354
			c18.48,22.102,38.837,40.572,60.507,54.909c12.521,8.287,31.452,20.788,51.518,20.737c21.079-0.06,38.465-6.872,48.207-11.748
			c9.752,4.876,27.128,11.688,48.217,11.748h0.141c20.025,0,38.877-12.471,51.367-20.737c21.671-14.337,42.037-32.807,60.517-54.909
			c41.576-49.702,63.447-109.477,63.447-167.907C479.685,239.894,474.468,211.672,463.773,185.085z"/>
	</g>
</g>
<g>
</g>
<g>
</g>
<g>
</g>
<g>
</g>
<g>
</g>
<g>
</g>
<g>
</g>
<g>
</g>
<g>
</g>
<g>
</g>
<g>
</g>
<g>
</g>
<g>
</g>
<g>
</g>
<g>
</g>
</svg>
