<?xml version="1.0" encoding="iso-8859-1"?>
<!-- Generator: Adobe Illustrator 21.0.0, SVG Export Plug-In . SVG Version: 6.00 Build 0)  -->
<svg version="1.1" id="Capa_1" xmlns="http://www.w3.org/2000/svg" xmlns:xlink="http://www.w3.org/1999/xlink" x="0px" y="0px"
	 viewBox="0 0 512 512" style="enable-background:new 0 0 512 512;" xml:space="preserve">
<g>
	<g>
		<path d="M402.152,89.275c24.878,0,45.119-20.24,45.119-45.118V0H64.74v44.157c0,24.879,20.24,45.118,45.119,45.118h102.096v39.154
			H184.43c-42.631,0-78.831,31.892-84.204,74.183L72.542,420.511h366.927l-27.684-217.899
			c-5.373-42.291-41.573-74.183-84.204-74.183h-27.526V89.275H402.152z M360.005,280c0,57.346-46.654,104-104,104
			s-104-46.654-104-104s46.654-104,104-104S360.005,222.654,360.005,280z"/>
	</g>
</g>
<g>
	<g>
		<path d="M256.005,206c-40.804,0-74,33.196-74,74s33.196,74,74,74s74-33.196,74-74S296.809,206,256.005,206z M271.005,280h-30v-49
			h30V280z"/>
	</g>
</g>
<g>
	<g>
		<rect x="42.335" y="450.51" width="427.33" height="61.49"/>
	</g>
</g>
<g>
</g>
<g>
</g>
<g>
</g>
<g>
</g>
<g>
</g>
<g>
</g>
<g>
</g>
<g>
</g>
<g>
</g>
<g>
</g>
<g>
</g>
<g>
</g>
<g>
</g>
<g>
</g>
<g>
</g>
</svg>
