<?xml version="1.0" encoding="iso-8859-1"?>
<!-- Generator: Adobe Illustrator 21.0.0, SVG Export Plug-In . SVG Version: 6.00 Build 0)  -->
<svg version="1.1" id="Capa_1" xmlns="http://www.w3.org/2000/svg" xmlns:xlink="http://www.w3.org/1999/xlink" x="0px" y="0px"
	 viewBox="0 0 512 512" style="enable-background:new 0 0 512 512;" xml:space="preserve">
<g>
	<g>
		<path d="M385.253,271.782c-12.322-28.364-36.156-49.278-69.211-60.849l49.178-46.267c11.422-10.752,17.713-25.274,17.713-40.906
			c0-20.293-10.962-39.096-28.594-49.048c-5.971-3.381-12.382-5.591-18.913-6.621c-0.43,1.84-0.92,3.671-1.49,5.491l-1.44,4.611
			l-39.396,126.5c-12.642-2.54-23.514-3.341-30.305-3.571L305.291,64.66c1.52-4.891,2.29-9.912,2.29-14.922
			C307.581,22.313,285.198,0,257.693,0c-16.023,0-30.645,7.401-40.146,20.303c-9.492,12.902-12.202,29.075-7.431,44.367l1.41,4.551
			l41.056,131.821c-5.631,0.05-16.843,0.53-30.485,3l-40.626-130.44c-0.57-1.82-1.07-3.661-1.5-5.491
			c-6.511,1.03-12.892,3.231-18.853,6.591c-17.643,9.962-28.604,28.755-28.604,49.058c0,15.622,6.291,30.145,17.703,40.906
			l48.218,45.357c-34.445,11.372-59.229,32.635-71.881,61.76c-2.19,5.031-3.921,10.252-5.181,15.642h83.293v30.005h-85.773
			c0.6,10.932,2.73,22.354,6.381,34.175h59.219v30.005h-47.107c2.64,5.361,5.561,10.772,8.761,16.243
			c23.584,40.326,60.459,79.742,101.176,108.157l8.581,5.991l8.581-5.991c40.716-28.414,77.592-67.831,101.176-108.157
			C393.585,350.125,400.366,306.528,385.253,271.782z"/>
	</g>
</g>
<g>
</g>
<g>
</g>
<g>
</g>
<g>
</g>
<g>
</g>
<g>
</g>
<g>
</g>
<g>
</g>
<g>
</g>
<g>
</g>
<g>
</g>
<g>
</g>
<g>
</g>
<g>
</g>
<g>
</g>
</svg>
