<?xml version="1.0" encoding="iso-8859-1"?>
<!-- Generator: Adobe Illustrator 21.0.0, SVG Export Plug-In . SVG Version: 6.00 Build 0)  -->
<svg version="1.1" id="Capa_1" xmlns="http://www.w3.org/2000/svg" xmlns:xlink="http://www.w3.org/1999/xlink" x="0px" y="0px"
	 viewBox="0 0 512 512" style="enable-background:new 0 0 512 512;" xml:space="preserve">
<g>
	<g>
		<path d="M0,103.5v305h512v-305H0z M80,352.522H50V160.478h30V352.522z M143.666,352.522h-30v-29.224h30V352.522z M143.666,296.857
			h-30V160.478h30V296.857z M207.333,352.522h-30v-29.224h30V352.522z M207.333,296.857h-30V160.478h30V296.857z M271,352.522h-30
			v-29.224h30V352.522z M271,296.857h-30V160.478h30V296.857z M334.667,352.522h-30V160.478h30V352.522z M398.333,352.522h-30
			v-29.224h30V352.522z M398.333,296.857h-30V160.478h30V296.857z M462,352.522h-30V160.478h30V352.522z"/>
	</g>
</g>
<g>
</g>
<g>
</g>
<g>
</g>
<g>
</g>
<g>
</g>
<g>
</g>
<g>
</g>
<g>
</g>
<g>
</g>
<g>
</g>
<g>
</g>
<g>
</g>
<g>
</g>
<g>
</g>
<g>
</g>
</svg>
