<?xml version="1.0" encoding="iso-8859-1"?>
<!-- Generator: Adobe Illustrator 21.0.0, SVG Export Plug-In . SVG Version: 6.00 Build 0)  -->
<svg version="1.1" id="Capa_1" xmlns="http://www.w3.org/2000/svg" xmlns:xlink="http://www.w3.org/1999/xlink" x="0px" y="0px"
	 viewBox="0 0 512 512" style="enable-background:new 0 0 512 512;" xml:space="preserve">
<g>
	<g>
		<path d="M256,318.451c-10.467,0-18.983,8.516-18.983,18.983c0,10.467,8.516,18.983,18.983,18.983
			c10.467,0,18.983-8.516,18.983-18.983C274.983,326.967,266.467,318.451,256,318.451z"/>
	</g>
</g>
<g>
	<g>
		<path d="M145.771,266v142h220.457V266H145.771z M256,386.416c-27.009,0-48.983-21.974-48.983-48.983
			c0-27.009,21.973-48.983,48.983-48.983s48.983,21.974,48.983,48.983C304.983,364.442,283.009,386.416,256,386.416z"/>
	</g>
</g>
<g>
	<g>
		<rect x="145.77" y="438" width="220.46" height="74"/>
	</g>
</g>
<g>
	<g>
		<path d="M366.228,127.4c0-33.398-23.248-61.452-54.407-68.875V0H200.178v58.525c-31.158,7.423-54.407,35.477-54.407,68.875v12.109
			c0,19.195,7.678,36.632,20.123,49.399c-12.161,8.56-20.123,22.704-20.123,38.671V236h220.457v-8.421
			c0-15.967-7.962-30.111-20.122-38.67c12.444-12.767,20.122-30.205,20.122-49.399V127.4z"/>
	</g>
</g>
<g>
</g>
<g>
</g>
<g>
</g>
<g>
</g>
<g>
</g>
<g>
</g>
<g>
</g>
<g>
</g>
<g>
</g>
<g>
</g>
<g>
</g>
<g>
</g>
<g>
</g>
<g>
</g>
<g>
</g>
</svg>
