<?xml version="1.0" encoding="iso-8859-1"?>
<!-- Generator: Adobe Illustrator 21.0.0, SVG Export Plug-In . SVG Version: 6.00 Build 0)  -->
<svg version="1.1" id="Capa_1" xmlns="http://www.w3.org/2000/svg" xmlns:xlink="http://www.w3.org/1999/xlink" x="0px" y="0px"
	 viewBox="0 0 512.002 512.002" style="enable-background:new 0 0 512.002 512.002;" xml:space="preserve">
<g>
	<g>
		<path d="M504.035,122.157c-2.124-3.595-4.613-6.891-7.389-9.876c-5.164,15.051-14.958,28.235-28.269,37.585l-71.989,50.588
			l24.747,24.747l53.72-20.236c7.721-2.904,14.566-7.306,20.343-13.084C513.701,173.377,517.337,144.71,504.035,122.157z"/>
	</g>
</g>
<g>
	<g>
		<path d="M470.699,85.586c-0.01-0.257-0.02-0.513-0.035-0.771c-0.036-0.635-0.088-1.269-0.15-1.903
			c-0.024-0.249-0.045-0.498-0.073-0.748c-0.076-0.662-0.171-1.321-0.275-1.98c-0.034-0.215-0.061-0.432-0.099-0.648
			c-0.133-0.77-0.288-1.537-0.46-2.302c-0.022-0.099-0.039-0.199-0.062-0.298c-0.202-0.873-0.431-1.741-0.686-2.603
			c-0.043-0.146-0.096-0.29-0.141-0.437c-0.211-0.69-0.434-1.377-0.679-2.06c-0.111-0.309-0.236-0.616-0.354-0.924
			c-0.196-0.513-0.395-1.025-0.611-1.532c-0.152-0.357-0.316-0.712-0.478-1.066c-0.205-0.449-0.413-0.899-0.634-1.343
			c-0.187-0.377-0.383-0.752-0.582-1.126c-0.218-0.412-0.443-0.822-0.676-1.229c-0.221-0.386-0.447-0.772-0.681-1.154
			s-0.475-0.761-0.722-1.137c-0.255-0.391-0.511-0.783-0.78-1.168c-0.245-0.353-0.505-0.701-0.761-1.048
			c-0.292-0.396-0.582-0.793-0.889-1.182c-0.249-0.315-0.513-0.624-0.772-0.934c-0.338-0.406-0.671-0.817-1.025-1.215
			c-0.19-0.214-0.396-0.419-0.593-0.631c-0.42-0.454-0.837-0.911-1.279-1.352c-0.254-0.254-0.518-0.491-0.777-0.739
			c-0.365-0.349-0.73-0.701-1.103-1.036c-0.336-0.301-0.681-0.589-1.023-0.878c-0.339-0.286-0.679-0.57-1.023-0.846
			c-0.351-0.28-0.705-0.555-1.062-0.823c-0.356-0.267-0.716-0.526-1.078-0.782c-0.35-0.248-0.7-0.498-1.055-0.736
			c-0.435-0.29-0.877-0.564-1.319-0.837c-0.482-0.298-0.969-0.589-1.459-0.867c-0.501-0.285-1.005-0.568-1.513-0.832
			c-0.34-0.176-0.685-0.339-1.028-0.507c-0.434-0.212-0.869-0.42-1.308-0.617c-0.349-0.157-0.7-0.308-1.052-0.456
			c-0.458-0.192-0.92-0.374-1.383-0.552c-0.328-0.125-0.656-0.253-0.987-0.371c-0.608-0.216-1.22-0.414-1.834-0.604
			c-0.193-0.06-0.384-0.128-0.579-0.185c-0.783-0.23-1.572-0.435-2.362-0.623c-0.28-0.066-0.563-0.122-0.843-0.183
			c-0.555-0.12-1.11-0.234-1.668-0.333c-0.302-0.054-0.605-0.104-0.908-0.152c-0.568-0.09-1.136-0.168-1.706-0.236
			c-0.269-0.033-0.539-0.068-0.809-0.096c-0.764-0.079-1.529-0.14-2.294-0.181c-0.068-0.004-0.137-0.011-0.205-0.015
			c-0.842-0.041-1.685-0.055-2.527-0.05c-0.368,0.002-0.737,0.021-1.105,0.032c-0.542,0.016-1.084,0.029-1.626,0.063
			c-0.357,0.023-0.713,0.062-1.069,0.093c-0.55,0.048-1.101,0.094-1.651,0.162c-0.348,0.043-0.696,0.101-1.043,0.152
			c-0.552,0.081-1.104,0.16-1.654,0.26c-11.421,2.091-22.135,8.454-29.457,18.878l-53.601,76.263l41.74,41.74l76.263-53.601
			c10.369-7.28,16.723-17.911,18.851-29.26c0.159-0.85,0.292-1.705,0.404-2.561c0.021-0.159,0.035-0.318,0.054-0.477
			c0.085-0.711,0.157-1.423,0.209-2.137c0.016-0.218,0.027-0.437,0.039-0.656c0.039-0.658,0.066-1.315,0.077-1.975
			c0.004-0.247,0.005-0.494,0.006-0.742C470.738,86.857,470.725,86.222,470.699,85.586z"/>
	</g>
</g>
<g>
	<g>
		<path d="M389.836,7.961c-22.545-13.298-51.212-9.661-69.714,8.841c-5.777,5.778-10.18,12.622-13.08,20.336l-20.239,53.727
			l24.736,24.737l50.588-71.979c7.137-10.15,16.536-18.247,27.256-23.813c3.334-1.728,6.797-3.211,10.359-4.436
			C396.747,12.59,393.443,10.093,389.836,7.961z"/>
	</g>
</g>
<g>
	<g>
		<path d="M393.362,239.908L272.095,118.641c-4.83-0.617-9.761-0.707-14.722-0.212c-19.494,1.943-36.892,12.415-47.738,28.729
			l-4.531,6.816l41.325,41.324l-21.233,21.233l-37.048-37.048l-58.297,87.7l43.372,43.372l-21.233,21.233l-39.096-39.096
			L6.323,453.016c-9.976,15.007-7.968,35.148,4.775,47.89c7.319,7.319,17.076,11.097,26.903,11.097
			c7.281,0,14.601-2.076,20.988-6.321l86.291-57.361l-27.035-27.035l21.233-21.233l31.311,31.311l115.54-76.803l-36.893-36.893
			l21.233-21.233l41.169,41.169l53.008-35.236c16.315-10.844,26.786-28.244,28.729-47.738
			C394.069,249.67,393.978,244.737,393.362,239.908z"/>
	</g>
</g>
<g>
</g>
<g>
</g>
<g>
</g>
<g>
</g>
<g>
</g>
<g>
</g>
<g>
</g>
<g>
</g>
<g>
</g>
<g>
</g>
<g>
</g>
<g>
</g>
<g>
</g>
<g>
</g>
<g>
</g>
</svg>
