<?xml version="1.0" encoding="iso-8859-1"?>
<!-- Generator: Adobe Illustrator 21.0.0, SVG Export Plug-In . SVG Version: 6.00 Build 0)  -->
<svg version="1.1" id="Capa_1" xmlns="http://www.w3.org/2000/svg" xmlns:xlink="http://www.w3.org/1999/xlink" x="0px" y="0px"
	 viewBox="0 0 512 512" style="enable-background:new 0 0 512 512;" xml:space="preserve">
<g>
	<g>
		<rect x="394.49" y="94.42" width="99" height="73.58"/>
	</g>
</g>
<g>
	<g>
		<polygon points="394.492,198 394.492,448.839 435.285,512 452.699,512 493.492,448.839 493.492,198 		"/>
	</g>
</g>
<g>
	<g>
		<path d="M18.508,0v512h347.984V0H18.508z M111.783,427.591l-35.104-36.508l21.625-20.794l14.896,15.492l32.708-29.7l20.167,22.21
			L111.783,427.591z M111.783,332.362l-35.104-36.508l21.625-20.794l14.896,15.492l32.708-29.7l20.167,22.21L111.783,332.362z
			 M111.783,237.134l-35.104-36.508l21.625-20.794l14.896,15.492l32.708-29.7l20.167,22.21L111.783,237.134z M111.783,141.906
			l-35.104-36.508l21.625-20.794l14.896,15.492l32.708-29.7l20.167,22.21L111.783,141.906z M307.159,412H189.158v-30h118.001V412z
			 M307.159,317H189.158v-30h118.001V317z M307.159,222H189.158v-30h118.001V222z M307.159,127H189.158V97h118.001V127z"/>
	</g>
</g>
<g>
</g>
<g>
</g>
<g>
</g>
<g>
</g>
<g>
</g>
<g>
</g>
<g>
</g>
<g>
</g>
<g>
</g>
<g>
</g>
<g>
</g>
<g>
</g>
<g>
</g>
<g>
</g>
<g>
</g>
</svg>
