<svg id="Capa_1" enable-background="new 0 0 513.008 513.008" height="512" viewBox="0 0 513.008 513.008" width="512" xmlns="http://www.w3.org/2000/svg"><path d="m508.36 438.123-132.908-296.813c-29.345-65.533-86.163-86.446-89.668-88.948-54.052-27.026-116.924-23.832-167.117 6.078v-37.942c0-11.046-8.954-20-20-20s-20 8.954-20 20v30.382l-44.524-44.524c-7.811-7.811-20.475-7.811-28.285 0s-7.81 20.474.001 28.284l44.525 44.524h-30.384c-11.046 0-20 8.954-20 20s8.954 20 20 20h37.942c-29.63 49.724-34.98 113.266-1.596 176.07 17.988 35.717 47.967 64.371 84.472 80.716l294.688 131.938c12.836 5.747 22.574 4.427 24.666 4.609 38.989.001 63.586-39.978 48.188-74.374zm-48.187 34.375c-2.08-.117-4.808.455-8.319-1.117l-142.809-63.938 40.992-40.992c7.81-7.811 7.81-20.474 0-28.284-7.811-7.811-20.475-7.811-28.285 0l-51.782 51.782-112.806-50.506c-23.918-10.709-44.177-28.292-58.236-50.23l54.591-54.591c7.81-7.811 7.81-20.474 0-28.284-7.811-7.811-20.475-7.811-28.285 0l-44.764 44.762c-16.132-47.861-4.149-101.305 32.34-137.794 40.578-40.579 102.823-51.298 155.086-25.167 3.996 2.679 40.682 15.457 64.879 57.485l-58.505 58.505c-7.81 7.811-7.81 20.474 0 28.284s20.474 7.811 28.285 0l48.256-48.256c127.749 286.423 122.323 270.361 122.153 275.928-.209 6.961-5.827 12.413-12.791 12.413z"/></svg>