<svg id="Capa_1" enable-background="new 0 0 512 512" height="512" viewBox="0 0 512 512" width="512" xmlns="http://www.w3.org/2000/svg"><path d="m434.096 39.083c-41.574 0-321.472 0-356.192 0-42.957 0-77.904 34.947-77.904 77.903v41.692c0 36.431 25.133 67.1 58.972 75.578-.147 195.226-.133 177.51-.134 178.661 0 33.084 26.916 60 60 60h274.325c33.084 0 60-26.916 60-60-.001-1.151.012 16.567-.135-178.661 33.84-8.478 58.972-39.147 58.972-75.578v-41.692c0-42.956-34.947-77.903-77.904-77.903zm-335.258 373.834c0-.135.245-196.086.245-196.209.07-11.09-8.91-20.125-20-20.125h-1.18c-20.9 0-37.904-17.003-37.904-37.904v-41.692c0-20.9 17.003-37.904 37.904-37.904h237.451.742c20.9 0 37.904 17.003 37.904 37.904v41.692c0 20.9-17.003 37.904-37.904 37.904-11.091 0-20.07 9.036-20 20.125 0 .123.245 196.074.245 196.209 0 11.028-8.972 20-20 20h-157.503c-11.028 0-20-8.972-20-20zm373.162-254.238c0 20.9-17.003 37.904-37.904 37.904h-1.18c-11.091 0-20.07 9.036-20 20.125 0 .123.245 196.074.246 196.209 0 11.028-8.972 20-20 20h-60.261c2.22-6.26 3.44-12.989 3.44-20-.001-1.105.012 16.26-.136-178.966 33.243-8.888 57.795-39.266 57.795-75.272v-41.692c0-13.753-3.597-26.677-9.877-37.904h49.973c20.9 0 37.904 17.003 37.904 37.904z"/></svg>