<svg id="Capa_1" enable-background="new 0 0 512.003 512.003" height="512" viewBox="0 0 512.003 512.003" width="512" xmlns="http://www.w3.org/2000/svg"><path d="m492.002 354.333h-92.391l12.918-51.724c30.569-122.408-80.534-233.724-203.126-203.075l-51.4 12.85v-92.384c0-11.046-8.954-20-20-20-30.707 0-59.576 11.958-81.288 33.671l-23.042 23.041c-21.713 21.712-33.671 50.581-33.671 81.288 0 11.046 8.954 20 20 20h92.384l-12.933 51.732c-30.694 122.772 80.791 234.079 203.535 203.13l51.014-12.861v91.999c0 10.299 7.938 20.003 20.774 20.003 30.207 0 59.714-12.207 81.084-33.578l22.564-22.564c36.388-36.388 33.276-80.016 33.578-81.528 0-11.045-8.954-20-20-20zm-430.045-269.337 23.041-23.041c9.312-9.312 20.642-15.872 33.004-19.272v75.317h-75.317c3.4-12.362 9.96-23.692 19.272-33.004zm231.253 289.081c-93.11 23.474-178.387-60.897-154.951-154.643l16.235-64.941 64.609-16.152c93.188-23.301 177.877 61.441 154.617 154.578l-16.221 64.95zm156.93 53.501-22.564 22.564c-9.306 9.306-20.978 15.942-33.574 19.318v-75.126h75.432c-3.355 12.457-9.926 23.875-19.294 33.244z"/></svg>