<svg id="Capa_1" enable-background="new 0 0 512 512" height="512" viewBox="0 0 512 512" width="512" xmlns="http://www.w3.org/2000/svg"><path d="m452 0h-392c-33.084 0-60 26.916-60 60v234.667c0 33.084 26.916 60 60 60h18.667v1.918c0 30.497 16.945 57.915 44.222 71.553l34.445 17.224v46.638c0 11.046 8.954 20 20 20h236c11.046 0 20-8.954 20-20v-137.333h18.666c33.084 0 60-26.916 60-60v-234.667c0-33.084-26.916-60-60-60zm-18.667 197.333h38.667v38.667h-38.667zm-373.333-157.333h392c11.028 0 20 8.972 20 20v97.333h-38.701c-.717-43.498-36.301-78.667-79.966-78.667h-116c-43.665 0-79.249 35.169-79.966 78.667h-117.367v-97.333c0-11.028 8.972-20 20-20zm-20 157.333h117.333v38.667h-117.333zm0 97.334v-18.667h117.333v38.667h-97.333c-11.028 0-20-8.973-20-20zm353.333 177.333h-196v-38.999c0-7.575-4.28-14.5-11.055-17.888l-45.501-22.752c-13.639-6.819-22.111-20.528-22.111-35.776v-1.918h58.667c11.046 0 20-8.954 20-20v-176c0-22.056 17.944-40 40-40h116c22.056 0 40 17.944 40 40zm58.667-157.333h-18.667v-38.667h38.667v18.667c0 11.027-8.972 20-20 20z"/></svg>