<svg id="Capa_1" enable-background="new 0 0 506.625 506.625" height="512" viewBox="0 0 506.625 506.625" width="512" xmlns="http://www.w3.org/2000/svg"><path d="m505.252 353.472c-17.951-108.368-76.858-165.366-186.529-159.002-10.279-9.651-22.305-17.331-35.603-22.65l-111.869-44.749c-16.691-6.675-35.044-5.716-50.587 1.953l-41.331-41.33v-31.048c0-11.046-8.954-20-20-20s-20 8.954-20 20v19.333h-19.333c-11.046 0-20 8.954-20 20s8.954 20 20 20h31.048l41.332 41.331c-7.669 15.544-8.629 33.897-1.953 50.587l24.182 60.454c-62.138 43.126-89.931 88.276-102.339 119.461-15.661 39.36 13.4 82.167 55.764 82.167h338.584c61.746 0 108.742-55.478 98.634-116.507zm-348.856-189.261 111.869 44.749c27.915 11.166 46.402 37.906 46.402 68.537 0 40.703-33.114 73.816-73.816 73.816-30.359 0-57.262-18.214-68.537-46.402-2.407-6.018-42.155-105.388-44.748-111.87-7.232-18.076 10.71-36.074 28.83-28.83zm250.221 265.768h-338.584c-14.142 0-23.832-14.224-18.598-27.378 13.486-33.895 41.706-67.4 80.479-95.985l5.26 13.151c17.294 43.235 59.114 71.546 105.676 71.546 80.728 0 136.018-82.271 105.295-157.018 68.854 3.817 105.95 43.036 119.644 125.713 6.064 36.609-22.059 69.971-59.172 69.971z"/></svg>