<svg id="Capa_1" enable-background="new 0 0 512 512" height="512" viewBox="0 0 512 512" width="512" xmlns="http://www.w3.org/2000/svg"><path d="m492 0h-236c-5.305 0-10.392 2.107-14.143 5.858l-236 236c-7.811 7.811-7.811 20.474 0 28.284l236 236c7.81 7.81 20.474 7.811 28.285 0l236-236c3.75-3.75 5.857-8.838 5.857-14.142v-236c.001-11.046-8.953-20-19.999-20zm-20 247.716-216 216-207.715-207.716 216-216h207.715zm-234.087-57.538 55.625-55.625c7.81-7.809 20.48-7.806 28.284 0l13.671 13.671 13.671-13.671c7.811-7.811 20.475-7.811 28.285 0s7.811 20.474 0 28.284l-13.671 13.671 13.671 13.67c7.81 7.811 7.811 20.474 0 28.284s-20.474 7.811-28.284 0l-41.484-41.483-27.341 27.341 41.483 41.484c7.81 7.811 7.81 20.474 0 28.284l-55.625 55.625c-7.81 7.809-20.48 7.806-28.284 0l-13.671-13.671-13.671 13.671c-7.811 7.811-20.474 7.81-28.284 0-7.811-7.81-7.812-20.474-.001-28.284l13.671-13.671-13.671-13.67c-7.81-7.811-7.811-20.474 0-28.284s20.474-7.811 28.284 0l41.484 41.483 27.341-27.341-41.483-41.484c-7.81-7.81-7.81-20.473 0-28.284z"/></svg>