<svg id="Capa_1" enable-background="new 0 0 512 512" height="512" viewBox="0 0 512 512" width="512" xmlns="http://www.w3.org/2000/svg"><path d="m472.667 98.667v-78.667c0-11.046-8.954-20-20-20h-393.334c-11.046 0-20 8.954-20 20v78.667c0 11.046 8.954 20 20 20h13.718l-33.12 132.483c-.396 1.586-.597 3.215-.597 4.851v236c0 11.046 8.954 20 20 20h393.333c11.046 0 20-8.954 20-20v-236.001c0-1.635-.201-3.264-.597-4.851l-33.12-132.483h13.718c11.044.001 19.999-8.954 19.999-19.999zm-393.334-58.667h353.333v38.667h-353.333zm353.334 218.462v213.538h-353.334v-213.538l34.949-139.796h283.436zm-176.667 174.871c69.202 0 118.333-66.071 118.333-138 0-72.406-49.533-138-118.333-138-69.201 0-118.333 66.068-118.333 138 0 72.392 49.51 138 118.333 138zm78.333-138c0 45.392-24.797 83.67-58.333 94.758v-189.515c33.536 11.087 58.333 49.365 58.333 94.757zm-98.333-94.757v189.516c-33.536-11.088-58.333-49.366-58.333-94.758s24.797-83.671 58.333-94.758z"/></svg>