<svg id="Capa_1" enable-background="new 0 0 512 512" height="512" viewBox="0 0 512 512" width="512" xmlns="http://www.w3.org/2000/svg"><path d="m411.025 40h2.308c11.046 0 20-8.954 20-20s-8.954-20-20-20c-3.742 0-305.035 0-314.667 0-11.046 0-20 8.954-20 20s8.954 20 20 20h2.308l-19.034 29.035c-2.136 3.258-3.274 7.069-3.274 10.965v352c0 3.896 1.138 7.707 3.274 10.965l19.035 29.035h-2.308c-11.046 0-20 8.954-20 20s8.954 20 20 20h314.667c11.046 0 20-8.954 20-20s-8.954-20-20-20h-2.308l19.034-29.035c2.136-3.258 3.274-7.069 3.274-10.965v-352c0-3.896-1.138-7.707-3.274-10.965zm-292.358 386.029v-340.058l30.136-45.971h165.665c2.897 51.833-24.81 86.636-24.762 86.536-72.413 103.421-100.592 226.495-85.358 345.464h-55.545zm126.036 45.971c-15.415-110.632 10.003-225.742 77.774-322.528 22.7-32.419 33.743-70.584 32.04-109.472h8.68l30.137 45.971v340.058l-30.137 45.971z"/></svg>