<svg id="Capa_1" enable-background="new 0 0 512 512" height="512" viewBox="0 0 512 512" width="512" xmlns="http://www.w3.org/2000/svg"><path d="m492 393.333h-19.333v-216c0-11.046-8.954-20-20-20h-137.334v-38.667h58.667c11.046 0 20-8.954 20-20v-78.666c0-11.046-8.954-20-20-20h-157.333c-11.046 0-20 8.954-20 20v78.667c0 11.046 8.954 20 20 20h58.666v38.667h-216c-11.046 0-20 8.954-20 20v216h-19.333c-11.046 0-20 8.954-20 20v78.666c0 11.046 8.954 20 20 20h472c11.046 0 20-8.954 20-20v-78.667c0-11.045-8.954-20-20-20zm-255.333-353.333h117.333v38.667h-117.333zm-157.334 157.333h353.334v196h-353.334zm392.667 274.667h-432v-38.667h432zm-98-236h-157.333c-11.046 0-20 8.954-20 20v78.667c0 11.046 8.954 20 20 20h157.333c11.046 0 20-8.954 20-20v-78.667c0-11.046-8.954-20-20-20zm-20 78.667h-117.333v-38.667h117.333zm-196-58.667v78.667c0 11.046-8.954 20-20 20s-20-8.954-20-20v-78.667c0-11.046 8.954-20 20-20s20 8.954 20 20z"/></svg>