<svg id="Capa_1" enable-background="new 0 0 512.004 512.004" height="512" viewBox="0 0 512.004 512.004" width="512" xmlns="http://www.w3.org/2000/svg"><path d="m452.667 354.669c9.777 0 18.121-7.068 19.728-16.712l39.333-236c2.027-12.166-7.356-23.288-19.728-23.288h-377.718l-15.879-63.517c-2.226-8.904-10.226-15.15-19.403-15.15h-59c-11.046 0-20 8.954-20 20s8.954 20 20 20h43.384l15.685 62.74 38.931 233.583v60.488c-22.905 8.226-39.333 30.155-39.333 55.856 0 32.717 26.617 59.334 59.333 59.334 40.606 0 69.392-40.168 56.082-78.667h163.169c-13.321 38.53 15.504 78.667 56.082 78.667 32.716 0 59.333-26.617 59.333-59.334 0-32.716-26.617-59.333-59.333-59.333h-255.333v-38.667zm15.724-236-32.667 196h-280.782l-32.667-196zm-311.058 334c0 10.661-8.673 19.333-19.333 19.333s-19.333-8.673-19.333-19.333 8.673-19.333 19.333-19.333 19.333 8.673 19.333 19.333zm256 19.333c-10.661 0-19.333-8.673-19.333-19.333s8.673-19.333 19.333-19.333 19.333 8.673 19.333 19.333c.001 10.66-8.672 19.333-19.333 19.333z"/></svg>