<svg id="Capa_1" enable-background="new 0 0 512 512" height="512" viewBox="0 0 512 512" width="512" xmlns="http://www.w3.org/2000/svg"><path d="m442.214 217.998-8.881 5.445v-124.776c0-54.405-44.262-98.667-98.667-98.667-47.554 0-87.357 33.818-96.627 78.667h-139.372c-11.046 0-20 8.954-20 20v124.539l-9.21-5.406c-13.309-7.808-30.124 1.797-30.124 17.249v256.951c0 11.046 8.954 20 20 20h393.334c11.046 0 20-8.954 20-20v-256.952c0-15.577-17.115-25.229-30.453-17.05zm-107.547-177.998c25.328 0 46.956 16.136 55.151 38.667h-55.151c-11.046 0-20 8.954-20 20s8.954 20 20 20h58.666v38.667h-58.666c-11.046 0-20 8.954-20 20s8.954 20 20 20h58.666v50.632l-6.221 3.814c-.107-.066-55.23-33.857-55.126-33.794-6.405-3.908-14.34-3.83-20.554-.185l-35.432 20.795v-139.929c0-32.349 26.318-58.667 58.667-58.667zm-216 78.667h117.333v119.929l-35.432-20.796c-6.335-3.718-14.258-3.64-20.495.145l-55.186 32.39-6.221-3.651v-128.017zm314 353.333h-353.334v-202.022l35.431 20.796c6.252 3.669 13.999 3.668 20.247 0l55.433-32.535 55.432 32.535c6.062 3.553 13.843 3.754 20.248 0l55.208-32.403 55.327 33.919c6.414 3.933 14.492 3.933 20.906 0l35.102-21.52z"/></svg>