<svg id="Capa_1" enable-background="new 0 0 512 512" height="512" viewBox="0 0 512 512" width="512" xmlns="http://www.w3.org/2000/svg"><path d="m392.274 254.755c-37.999-65.821-51.347-109.664-55.545-136.195 10.077-1.032 17.938-9.545 17.938-19.894v-78.666c0-11.046-8.954-20-20-20h-157.334c-11.046 0-20 8.954-20 20v78.667c0 10.349 7.861 18.862 17.938 19.894-4.198 26.531-17.546 70.374-55.545 136.195-13.995 24.242-21.393 51.875-21.393 79.911v157.333c0 11.046 8.954 20 20 20h275.333c11.046 0 20-8.954 20-20 0-42.246 0-131.725 0-157.333.001-28.037-7.397-55.669-21.392-79.912zm-18.607 138.578h-137v-38.667h137zm-176.334-353.333h117.333v38.667h-117.333zm-59 432v-137.333c0-21.025 5.544-41.742 16.034-59.912 25.257-43.749 54.784-104.083 61.3-156.088h80.664c6.517 52.005 36.043 112.338 61.3 156.088 7.136 12.36 11.976 25.9 14.347 39.912h-155.311c-11.046 0-20 8.954-20 20v78.667c0 11.046 8.954 20 20 20h157v38.666z"/></svg>