<svg id="Capa_1" enable-background="new 0 0 512 512" height="512" viewBox="0 0 512 512" width="512" xmlns="http://www.w3.org/2000/svg"><path d="m492 354h-137.333v-156.667h98c11.046 0 20-8.954 20-20v-157.333c0-11.046-8.954-20-20-20h-236c-11.046 0-20 8.954-20 20v157.333c0 11.046 8.954 20 20 20h98v156.667h-294.667c-11.046 0-20 8.954-20 20s8.954 20 20 20h19.333v58.667c0 11.046 8.954 20 20 20h19.333v19.333c0 11.046 8.954 20 20 20s20-8.954 20-20v-19.333h274.667v19.333c0 11.046 8.954 20 20 20s20-8.954 20-20v-19.333h19.333c11.046 0 20-8.954 20-20v-58.667h19.334c11.046 0 20-8.954 20-20s-8.954-20-20-20zm-255.333-314h196v117.333h-196zm196 392.667h-353.334v-38.667h353.333v38.667z"/></svg>