<svg id="Capa_1" enable-background="new 0 0 512 512" height="512" viewBox="0 0 512 512" width="512" xmlns="http://www.w3.org/2000/svg"><path d="m348.809 191.476-157.333 157.333c-7.811 7.811-20.474 7.81-28.284 0-7.811-7.811-7.811-20.474 0-28.284l157.333-157.333c7.811-7.811 20.475-7.811 28.285 0s7.809 20.473-.001 28.284zm-171.476 45.191c-32.717 0-59.333-26.617-59.333-59.333 0-32.717 26.617-59.334 59.333-59.334s59.333 26.617 59.333 59.333c.001 32.717-26.616 59.334-59.333 59.334zm0-40c10.66 0 19.333-8.673 19.333-19.333 0-10.661-8.673-19.333-19.333-19.333-10.66-.001-19.333 8.672-19.333 19.332 0 10.661 8.673 19.334 19.333 19.334zm216.667 138c0 32.716-26.616 59.333-59.333 59.333s-59.334-26.617-59.334-59.333 26.617-59.333 59.334-59.333 59.333 26.616 59.333 59.333zm-40 0c0-10.66-8.673-19.333-19.333-19.333-10.661 0-19.334 8.673-19.334 19.333 0 10.661 8.673 19.333 19.334 19.333 10.66 0 19.333-8.673 19.333-19.333zm158-78.667c0 141.503-114.517 256-256 256-141.503 0-256-114.516-256-256 0-141.503 114.516-256 256-256 141.503 0 256 114.516 256 256zm-40 0c0-119.393-96.623-216-216-216-119.393 0-216 96.623-216 216 0 119.393 96.623 216 216 216 119.393 0 216-96.623 216-216z"/></svg>