<svg id="Capa_1" enable-background="new 0 0 512.028 512.028" height="512" viewBox="0 0 512.028 512.028" width="512" xmlns="http://www.w3.org/2000/svg"><path d="m472.681 83.962v-44.281c0-7.576-4.28-14.501-11.056-17.889l-39.333-19.667c-5.063-2.531-10.96-2.799-16.233-.736l-45.154 17.671-45.158-17.67c-4.501-1.763-9.49-1.834-14.04-.201l-45.692 16.388-45.693-16.389c-4.365-1.565-9.139-1.565-13.504 0l-45.693 16.388-45.692-16.388c-5.024-1.803-10.563-1.521-15.381.783l-39.334 18.81c-6.948 3.323-11.371 10.341-11.371 18.043v45.138c-52.202 96.483-52.723 246.658 0 344.104v43.425c0 7.451 4.143 14.285 10.748 17.731l39.334 20.523c5.126 2.675 11.158 3.001 16.541.893l45.154-17.671 45.157 17.671c4.5 1.762 9.489 1.833 14.04.201l45.692-16.388 45.692 16.388c4.323 1.55 9.095 1.581 13.504 0l45.693-16.388 45.691 16.388c5.025 1.802 10.563 1.521 15.381-.783l39.334-18.81c6.948-3.323 11.371-10.341 11.371-18.043v-45.138c52.205-96.483 52.725-246.657.002-344.103zm-37.383 329.038c-4.389 7.715-1.889 11.599-2.617 47.599l-20.436 9.772-44.59-15.993c-4.365-1.565-9.139-1.566-13.504 0l-45.693 16.388-45.692-16.388c-4.323-1.55-9.095-1.581-13.504 0l-45.387 16.278-45.463-17.791c-4.686-1.834-9.89-1.834-14.577 0l-43.97 17.208-20.519-10.707c-.703-33.799 1.781-38.635-2.617-46.367-49.008-86.126-48.996-227.869 0-313.973 4.389-7.715 1.889-11.599 2.617-47.599l20.436-9.772 44.59 15.993c4.364 1.564 9.138 1.565 13.504 0l45.693-16.388 45.692 16.388c4.365 1.565 9.139 1.565 13.504 0l45.387-16.278 45.463 17.791c4.686 1.834 9.89 1.834 14.577 0l44.163-17.283 20.325 10.163c.708 34.506-1.787 39.246 2.617 46.986 49.01 86.126 48.997 227.87.001 313.973zm-127.268-271.847-166.878 166.877c-7.806 7.807-7.808 20.475 0 28.284 53.798 53.797 141.347 53.816 195.162 0 53.932-53.93 53.937-141.225.001-195.161-7.811-7.811-20.473-7.81-28.285 0zm0 166.877c-33.943 33.943-85.656 37.29-123.016 12.707l135.723-135.722c24.646 37.454 21.162 89.147-12.707 123.015z"/></svg>