<svg id="Capa_1" enable-background="new 0 0 512.026 512.026" height="512" viewBox="0 0 512.026 512.026" width="512" xmlns="http://www.w3.org/2000/svg"><path d="m374.021 39.346c-56.966 0-97.574 59.382-118 113.073-20.456-53.769-61.078-113.073-118-113.073-84.72 0-138 130.054-138 216.914.191 40.359-.446 39.765.597 43.937l39.333 157.333c2.227 8.903 10.226 15.149 19.403 15.149h157.334c8.608 0 16.251-5.509 18.974-13.675l20.359-61.079 20.359 61.079c2.723 8.167 10.365 13.675 18.974 13.675h157.334c9.178 0 17.177-6.246 19.403-15.149 41.273-165.952 39.93-157.639 39.93-162.184v-39.086c0-94.424-57.523-216.914-138-216.914zm-65.963 95.599c19.665-35.334 43.708-55.599 65.963-55.599 46.129 0 89.951 82.844 97.009 156.914h-194.018c3.277-34.389 14.55-71.677 31.046-101.315zm-236 0c19.665-35.334 43.708-55.599 65.963-55.599 46.129 0 89.951 82.844 97.009 156.914h-194.018c3.277-34.389 14.55-71.677 31.046-101.315zm399.963 157.939-34.948 139.796h-127.304l-34.774-104.325c-6.062-18.181-31.884-18.187-37.947 0l-34.775 104.325h-127.303l-34.949-139.796v-16.624h432z"/></svg>