<svg id="Capa_1" enable-background="new 0 0 512 512" height="512" viewBox="0 0 512 512" width="512" xmlns="http://www.w3.org/2000/svg"><path d="m364.956 159.792-35.948-11.982c-8.179-2.727-13.675-10.352-13.675-18.974v-10.186c21.748-.359 39.333-18.151 39.333-39.983v-38.667c0-22.056-17.944-40-40-40h-117.333c-22.056 0-40 17.944-40 40v38.667c0 21.832 17.585 39.624 39.333 39.983v10.186c0 8.622-5.496 16.247-13.675 18.974l-35.947 11.982c-40.899 13.634-68.377 51.759-68.377 94.869v197.339c0 33.084 26.916 60 60 60h234.667c33.084 0 60-26.916 60-60v-197.339c-.001-43.11-27.479-81.235-68.378-94.869zm-246.289 135.205h274.667v79.339h-274.667zm78.666-254.997h117.333v38.667h-117.333zm-37.64 157.739 35.947-11.982c24.539-8.18 41.026-31.054 41.026-56.921v-10.169h38.667v10.169c0 25.867 16.487 48.741 41.026 56.921l35.947 11.982c24.54 8.18 41.027 31.056 41.027 56.922v.336h-274.666v-.336c0-25.866 16.487-48.742 41.026-56.922zm213.64 274.261h-234.666c-11.028 0-20-8.972-20-20v-37.664h274.667v37.664c-.001 11.028-8.973 20-20.001 20z"/></svg>