<svg id="Capa_1" enable-background="new 0 0 512.016 512.016" height="512" viewBox="0 0 512.016 512.016" width="512" xmlns="http://www.w3.org/2000/svg"><path d="m472.082 15.157c-2.226-8.903-10.226-15.149-19.403-15.149h-393.333c-9.177 0-17.177 6.246-19.403 15.149-41.817 167.318-39.93 158.624-39.93 162.184v314.667c0 11.046 8.954 20 20 20h472c11.046 0 20-8.954 20-20v-314.667c0-4.307 1.093 2.388-39.931-162.184zm-157.403 142.184h-117.333v-117.333h117.333zm-3.514 40c-8.196 22.531-29.824 38.667-55.152 38.667s-46.956-16.136-55.152-38.667zm-133.819 39.482c32.776 43.24 93.972 51.969 137.333 19.798v136.72h-274.666v-136.72c43.392 32.194 104.583 23.409 137.333-19.798zm-133.818-39.482h110.304c-8.196 22.531-29.824 38.667-55.152 38.667-25.329 0-46.957-16.136-55.152-38.667zm422.869-40h-111.718v-117.333h82.384zm2.101 40c-8.196 22.531-29.824 38.667-55.152 38.667-25.329 0-46.956-16.136-55.152-38.667zm-393.536-157.333h82.384v117.333h-111.718zm-34.949 393.333h274.667v38.667h-274.667zm314.666 38.667v-215.387c34.428 25.544 82.083 26.154 117.333 0v215.387z"/></svg>