<svg id="Capa_1" enable-background="new 0 0 512 512" height="512" viewBox="0 0 512 512" width="512" xmlns="http://www.w3.org/2000/svg"><path d="m413.333 0h-314.666c-11.046 0-20 8.954-20 20v472c0 11.046 8.954 20 20 20h314.667c11.046 0 20-8.954 20-20v-472c-.001-11.046-8.955-20-20.001-20zm-20 236h-117.333v-78h117.333zm-157.333 0h-117.333v-78h117.333zm92.612 40-144.431 72.216-48.144-72.216zm64.721-158h-117.333v-78h117.333zm-157.333-78v78h-117.333v-78zm-117.333 432v-149.945l42.026 63.039c5.613 8.42 16.593 11.291 25.585 6.795l207.055-103.528v183.639z"/></svg>