<svg id="Capa_1" enable-background="new 0 0 512 512" height="512" viewBox="0 0 512 512" width="512" xmlns="http://www.w3.org/2000/svg"><path d="m467.777 103.527-34.444-17.222v-26.305c0-33.084-26.916-60-60-60h-234.666c-33.084 0-60 26.916-60 60v26.306l-34.444 17.222c-27.278 13.639-44.223 41.057-44.223 71.554v51.129c0 11.046 8.954 20 20 20 6.56 0 13.024-.614 19.333-1.8v207.589c0 33.084 26.916 60 60 60h313.334c33.084 0 60-26.916 60-60v-207.589c6.309 1.186 12.773 1.8 19.333 1.8 11.046 0 20-8.954 20-20v-51.129c0-30.497-16.945-57.915-44.223-71.555zm-329.11-63.527h234.666c11.028 0 20 8.972 20 20v18.667h-274.666v-18.667c0-11.028 8.972-20 20-20zm-98.667 135.082c0-15.249 8.473-28.958 22.111-35.777l41.277-20.638h305.223l41.277 20.638c13.639 6.819 22.112 20.528 22.112 35.777v27.928c-9.142-3.025-17.668-8.191-24.858-15.381-40.33-40.328-105.952-40.329-146.284.001-24.734 24.734-64.979 24.735-89.716-.001-40.331-40.329-105.951-40.33-146.284.001-7.199 7.198-15.728 12.359-24.858 15.38zm392.667 218.251h-235.334v-78h235.334zm0-118h-255.334c-11.046 0-20 8.954-20 20v118c0 11.046 8.954 20 20 20h255.334v18.667c0 11.028-8.972 20-20 20h-313.334c-11.028 0-20-8.972-20-20v-224.467c4.881-3.433 9.502-7.312 13.809-11.619 24.735-24.735 64.982-24.735 89.716 0 20.168 20.167 46.651 30.25 73.143 30.248 26.485-.003 52.979-10.086 73.142-30.248 24.735-24.735 64.982-24.734 89.716-.001 4.307 4.307 8.928 8.187 13.81 11.619v47.801z"/></svg>