<svg id="Capa_1" enable-background="new 0 0 512 512" height="512" viewBox="0 0 512 512" width="512" xmlns="http://www.w3.org/2000/svg"><path d="m468.121 164.641c-1.198-1.457 3.189 3.102-74.121-74.259v-70.382c0-11.046-8.954-20-20-20h-236c-11.046 0-20 8.954-20 20v70.382l-72.809 72.809c-3.751 3.75-5.858 8.838-5.858 14.142v314.667c0 11.046 8.954 20 20 20h393.333c11.046 0 20-8.954 20-20v-314.667c.001-4.392-1.498-8.981-4.545-12.692zm-243.17-7.308-38.667-38.667h179.432l38.667 38.667zm129.049-117.333v38.667h-196v-38.667zm-274.667 145.618 58.667-58.667 58.667 58.667v286.382h-117.334zm157.334 286.382v-274.667h196v274.667z"/></svg>