<svg id="Capa_1" enable-background="new 0 0 512.055 512.055" height="512" viewBox="0 0 512.055 512.055" width="512" xmlns="http://www.w3.org/2000/svg"><path d="m442.241 2.978-55.101 33.782-55.104-33.782c-6.297-3.86-14.206-3.935-20.577-.198l-55.432 32.535-55.431-32.535c-6.252-3.668-13.996-3.668-20.248 0l-55.433 32.535-55.43-32.534c-13.306-7.812-30.124 1.798-30.124 17.248v472c0 15.578 17.113 25.227 30.453 17.051l55.102-33.782 55.104 33.782c6.298 3.86 14.207 3.935 20.577.198l55.432-32.535 55.432 32.535c6.252 3.668 13.996 3.668 20.248 0l55.433-32.535 55.431 32.534c13.217 7.759 30.124-1.702 30.124-17.248v-472c-.002-15.571-17.109-25.234-30.456-17.051zm-9.546 454.121-35.431-20.795c-6.25-3.669-13.997-3.669-20.247-.001l-55.434 32.535-55.432-32.535c-6.252-3.668-13.996-3.668-20.248 0l-55.208 32.403-55.327-33.919c-6.414-3.932-14.492-3.932-20.906 0l-35.102 21.521v-401.35l35.431 20.795c6.251 3.67 13.998 3.67 20.247.001l55.434-32.535 55.432 32.535c6.252 3.668 13.996 3.668 20.248 0l55.208-32.403 55.327 33.919c6.414 3.932 14.492 3.932 20.906 0l35.102-21.521zm-235.334-279.737c0 11.046-8.954 20-20 20h-39.333c-11.046 0-20-8.954-20-20s8.954-20 20-20h39.333c11.045 0 20 8.954 20 20zm196.667 0c0 11.046-8.954 20-20 20h-118c-11.046 0-20-8.954-20-20s8.954-20 20-20h118c11.045 0 20 8.954 20 20zm-196.667 78.667c0 11.046-8.954 20-20 20h-39.333c-11.046 0-20-8.954-20-20s8.954-20 20-20h39.333c11.045 0 20 8.954 20 20zm196.667 0c0 11.046-8.954 20-20 20h-118c-11.046 0-20-8.954-20-20s8.954-20 20-20h118c11.045 0 20 8.954 20 20zm-196.667 78.667c0 11.046-8.954 20-20 20h-39.333c-11.046 0-20-8.954-20-20s8.954-20 20-20h39.333c11.045 0 20 8.954 20 20zm196.667 0c0 11.046-8.954 20-20 20h-118c-11.046 0-20-8.954-20-20s8.954-20 20-20h118c11.045 0 20 8.954 20 20z"/></svg>