<svg id="Capa_1" enable-background="new 0 0 512.517 512.517" height="512" viewBox="0 0 512.517 512.517" width="512" xmlns="http://www.w3.org/2000/svg"><path d="m467.067 242.116c-1.821-1.821-195.324-195.325-196.667-196.667-60.546-60.546-164.3-60.651-224.951 0-60.548 60.547-60.652 164.301 0 224.952l196.667 196.667c60.546 60.546 164.3 60.651 224.951 0 60.548-60.547 60.652-164.301 0-224.952zm-28.284 196.667c-44.932 44.932-123.347 45.035-168.382 0l-196.667-196.667c-44.931-44.929-45.036-123.348 0-168.382 44.932-44.932 123.347-45.035 168.382 0l12.632 12.632c-15.001 5.691-28.76 14.545-40.445 26.229l-50.854 50.854c-7.811 7.811-7.811 20.475 0 28.285 7.809 7.809 20.473 7.811 28.284 0l50.854-50.854c12.286-12.286 28.087-19.773 45.135-21.54l45.692 45.692c-15.001 5.691-28.76 14.545-40.444 26.23l-50.854 50.854c-7.811 7.811-7.811 20.474 0 28.284 7.81 7.81 20.473 7.812 28.284.001l50.854-50.854c12.286-12.286 28.087-19.773 45.134-21.54l45.693 45.693c-15 5.691-28.76 14.545-40.444 26.23l-50.854 50.854c-7.811 7.81-7.811 20.474 0 28.284 7.81 7.81 20.473 7.81 28.284-.001l50.854-50.854c12.189-12.189 27.84-19.648 44.732-21.491 29.119 33.778 46.23 109.963-5.87 162.061z"/></svg>