<svg id="Capa_1" enable-background="new 0 0 512.02 512.02" height="512" viewBox="0 0 512.02 512.02" width="512" xmlns="http://www.w3.org/2000/svg"><path d="m413.344 0h-314.667c-57.896 0-98.667 80.585-98.667 177.333 0 97.016 40.898 177.334 98.667 177.334h58.667v137.333c0 15.12 16.056 24.619 29.251 17.731l69.415-36.218 69.415 36.218c5.689 2.969 12.457 3.026 18.196.157l69.723-34.861 69.722 34.861c13.283 6.639 28.944-3.033 28.944-17.889v-314.666c0-97.153-40.962-177.333-98.666-177.333zm58.666 177.333c0 78.602-30.973 137.334-58.667 137.334s-58.667-58.732-58.667-137.334 30.974-137.333 58.668-137.333 58.666 58.731 58.666 137.333zm-432 0c0-78.602 30.973-137.333 58.667-137.333h251.069c-46.915 70.092-46.622 205.013 0 274.667h-251.069c-25.61 0-58.667-54.133-58.667-137.334zm382.278 257.445c-5.631-2.814-12.258-2.815-17.889 0l-69.529 34.764-69.609-36.318c-5.797-3.025-12.706-3.025-18.503 0l-49.415 25.782v-104.339h216c21.886 0 42.13-11.578 58.667-33.111v138.084z"/></svg>