<svg id="Capa_1" enable-background="new 0 0 512 512" height="512" viewBox="0 0 512 512" width="512" xmlns="http://www.w3.org/2000/svg"><path d="m492 393.333h-39.917c24.504-49.14 16.305-110.563-24.608-151.476l-157.332-157.333c-40.913-40.912-102.337-49.111-151.476-24.607v-39.917c0-11.046-8.954-20-20-20s-20 8.954-20 20v58.667h-58.667c-11.046 0-20 8.954-20 20s8.954 20 20 20h39.917c-24.504 49.14-16.305 110.563 24.608 151.476l157.333 157.333c41.113 41.112 102.574 48.993 151.475 24.607v39.917c0 11.046 8.954 20 20 20s20-8.954 20-20v-58.667h58.667c11.046 0 20-8.954 20-20s-8.954-20-20-20zm-221.857 5.857-157.334-157.333c-35.579-35.578-35.579-93.47 0-129.048 35.579-35.58 93.47-35.581 129.049 0l157.332 157.334c35.579 35.578 35.579 93.47 0 129.048-35.576 35.58-93.467 35.58-129.047-.001z"/></svg>