<svg id="Capa_1" enable-background="new 0 0 512 512" height="512" viewBox="0 0 512 512" width="512" xmlns="http://www.w3.org/2000/svg"><path d="m506.143 477.857-156.486-156.486c27.703-33.939 44.343-77.246 44.343-124.371 0-108.622-88.366-196.992-196.986-197-.009 0-.019 0-.028 0-108.62.008-196.986 88.378-196.986 197 0 108.626 88.374 197 197 197 47.125 0 90.432-16.64 124.372-44.343l156.486 156.486c7.812 7.811 20.474 7.809 28.285 0 7.809-7.811 7.809-20.475 0-28.286zm-300.63-124.09c-31.267-36.581-33.345-89.702-6.234-128.481 43.567 32.206 101.202 36.917 148.891 14.146-17.819 63.398-74.538 110.677-142.657 114.335zm148.254-165.28c-36.58 31.267-89.702 33.345-128.481 6.234 32.206-43.566 36.917-101.201 14.146-148.891 63.398 17.819 110.677 74.538 114.335 142.657zm-165.28-148.254c31.267 36.581 33.345 89.702 6.234 128.481-43.566-32.205-101.201-36.917-148.891-14.145 17.819-63.399 74.538-110.678 142.657-114.336zm-148.254 165.279c36.58-31.267 89.702-33.345 128.481-6.234-32.206 43.566-36.917 101.201-14.146 148.891-63.398-17.818-110.677-74.537-114.335-142.657z"/></svg>