<svg id="Capa_1" enable-background="new 0 0 512 512" height="512" viewBox="0 0 512 512" width="512" xmlns="http://www.w3.org/2000/svg"><path d="m413.333 0h-314.666c-11.046 0-20 8.954-20 20v393.333c0 10.933 8.776 19.803 19.666 19.983v58.684c0 11.046 8.954 20 20 20h275.334c11.046 0 20-8.954 20-20v-58.684c10.89-.18 19.666-9.05 19.666-19.983v-393.333c0-11.046-8.954-20-20-20zm-78.666 340.889c-11.046 0-20 8.954-20 20v32.444h-38.667v-32.444c0-11.046-8.954-20-20-20s-20 8.954-20 20v32.444h-38.667v-32.444c0-11.046-8.954-20-20-20s-20 8.954-20 20v32.444h-38.666v-91.11h274.666v91.11h-38.666v-32.444c0-11.046-8.954-20-20-20zm58.666-169.778v91.111h-38.666v-32.445c0-11.046-8.954-20-20-20s-20 8.954-20 20v32.445h-38.667v-32.445c0-11.046-8.954-20-20-20s-20 8.954-20 20v32.445h-38.667v-32.445c0-11.046-8.954-20-20-20s-20 8.954-20 20v32.445h-38.666v-91.111zm0-131.111v91.111h-38.666v-32.444c0-11.046-8.954-20-20-20s-20 8.954-20 20v32.444h-38.667v-32.444c0-11.046-8.954-20-20-20s-20 8.954-20 20v32.444h-38.667v-32.444c0-11.046-8.954-20-20-20s-20 8.954-20 20v32.444h-38.666v-91.111zm-255 432v-38.667h235.334v38.667z"/></svg>