<svg id="Capa_1" enable-background="new 0 0 512 512" height="512" viewBox="0 0 512 512" width="512" xmlns="http://www.w3.org/2000/svg"><path d="m158 138v147.5c0 11.046-8.954 20-20 20s-20-8.954-20-20v-147.5c0-11.046 8.954-20 20-20s20 8.954 20 20zm-20 196.333c-11.046 0-20 8.954-20 20v19.667c0 11.046 8.954 20 20 20s20-8.954 20-20v-19.667c0-11.046-8.954-20-20-20zm78.667-216.333c-11.046 0-20 8.954-20 20v147.5c0 11.046 8.954 20 20 20s20-8.954 20-20v-147.5c0-11.046-8.955-20-20-20zm0 216.333c-11.046 0-20 8.954-20 20v19.667c0 11.046 8.954 20 20 20s20-8.954 20-20v-19.667c0-11.046-8.955-20-20-20zm78.666-216.333c-11.046 0-20 8.954-20 20v147.5c0 11.046 8.954 20 20 20s20-8.954 20-20v-147.5c0-11.046-8.954-20-20-20zm0 216.333c-11.046 0-20 8.954-20 20v19.667c0 11.046 8.954 20 20 20s20-8.954 20-20v-19.667c0-11.046-8.954-20-20-20zm78.667-216.333c-11.046 0-20 8.954-20 20v147.5c0 11.046 8.954 20 20 20s20-8.954 20-20v-147.5c0-11.046-8.954-20-20-20zm0 216.333c-11.046 0-20 8.954-20 20v19.667c0 11.046 8.954 20 20 20s20-8.954 20-20v-19.667c0-11.046-8.954-20-20-20zm138-235v313.334c0 33.084-26.916 60-60 60h-392c-33.084 0-60-26.916-60-60v-313.334c0-33.084 26.916-60 60-60h392c33.084 0 60 26.916 60 60zm-40 0c0-11.028-8.972-20-20-20h-392c-11.028 0-20 8.972-20 20v313.334c0 11.028 8.972 20 20 20h392c11.028 0 20-8.972 20-20z"/></svg>