<svg id="Capa_1" enable-background="new 0 0 512 512" height="512" viewBox="0 0 512 512" width="512" xmlns="http://www.w3.org/2000/svg"><path d="m452.667 157.333h-58.667v-18.666c0-33.084-26.916-60-60-60h-18.667v-58.667c0-11.046-8.954-20-20-20h-157.333c-11.046 0-20 8.954-20 20v58.667h-18.667c-33.084 0-60 26.916-60 60v313.333c0 33.084 26.916 60 60 60h234.667c33.084 0 60-26.916 60-60v-97.333h58.667c11.046 0 20-8.954 20-20v-157.334c0-11.046-8.954-20-20-20zm-294.667-117.333h117.333v117.333h-117.333zm196 412c0 11.028-8.972 20-20 20h-234.667c-11.028 0-20-8.972-20-20v-313.333c0-11.028 8.972-20 20-20h18.667v58.666c0 11.046 8.954 20 20 20h157.333c11.046 0 20-8.954 20-20v-58.666h18.667c11.028 0 20 8.972 20 20zm78.667-137.333h-38.667v-117.334h38.667zm-137.334-78.667h-157.333c-11.046 0-20 8.954-20 20v78.667c0 11.046 8.954 20 20 20h157.333c11.046 0 20-8.954 20-20v-78.667c0-11.046-8.954-20-20-20zm-20 78.667h-117.333v-38.667h117.333zm40 98.666c0 11.046-8.954 20-20 20h-157.333c-11.046 0-20-8.954-20-20s8.954-20 20-20h157.333c11.046 0 20 8.954 20 20z"/></svg>