<svg id="Capa_1" enable-background="new 0 0 512.009 512.009" height="512" viewBox="0 0 512.009 512.009" width="512" xmlns="http://www.w3.org/2000/svg"><path d="m442.313 150.933c-18.734-37.546-57.891-32.87-59.166-33.201 6.47-11.452 10.182-24.66 10.182-38.725 0-72.178-89.342-106.427-137.66-52.851-48.313-53.572-137.66-19.337-137.66 52.851 0 14.292 3.834 27.697 10.499 39.276l-5.237.011c-22.796.049-43.301 12.74-53.513 33.12-72.122 143.958-69.749 136.987-69.749 143.925v56.667c0 88.225 71.776 160 160 160h192c88.225 0 160-71.775 160-160v-56.667c0-9.521-2.269-6.965-69.696-144.406zm-127.984-110.927c21.505 0 39 17.495 39 39 0 20.469-15.854 37.293-35.926 38.867l-41.394.09c-.091-39.949.194-38.921-.24-44.808 2.832-18.739 19.044-33.149 38.56-33.149zm-117.32 0c19.516 0 35.728 14.41 38.56 33.149-.433 5.881-.149 4.846-.24 44.851h-38.32c-21.505 0-39-17.495-39-39s17.495-39 39-39zm-91.49 129.326c3.404-6.793 10.238-11.022 17.837-11.039 57.171-.086 173.301-.171 265.225-.573h.045c7.632 0 14.485 4.239 17.894 11.07l53.16 106.549h-21.759c-7.58 0-14.417-4.201-17.843-10.963l-17.747-35.043c-10.285-20.308-30.773-32.891-53.52-32.891-.088 0-.179 0-.267 0l-186.117.804c-22.674.099-43.102 12.736-53.312 32.98l-17.208 34.119c-3.42 6.781-10.263 10.993-17.857 10.993h-21.649zm246.49 302.674h-192c-66.168 0-120-53.832-120-120v-36.667h34.042c22.784 0 43.311-12.637 53.572-32.979l17.209-34.12c3.403-6.748 10.213-10.961 17.771-10.993 92.419-.399 186.042-.804 186.205-.804 7.582 0 14.412 4.194 17.841 10.963l17.748 35.044c10.275 20.287 30.785 32.89 53.526 32.89h34.088v36.667c-.002 66.167-53.834 119.999-120.002 119.999z"/></svg>