<svg id="Capa_1" enable-background="new 0 0 512 512" height="512" viewBox="0 0 512 512" width="512" xmlns="http://www.w3.org/2000/svg"><path d="m256 0c-5.305 0-10.392 2.107-14.143 5.857l-236 236c-3.843 3.846-5.857 9.041-5.857 14.143v236c0 11.046 8.954 20 20 20h472c11.046 0 20-8.954 20-20v-236c0-141.483-114.497-256-256-256zm8.135 40.149c109.104 4.011 197.193 88.798 206.958 195.851h-402.809zm-141.953 431.851c8.196-22.531 29.823-38.667 55.151-38.667s46.956 16.136 55.152 38.667zm151.779 0c-9.27-44.849-49.073-78.667-96.628-78.667-47.554 0-87.357 33.818-96.627 78.667h-40.706v-196h432v196zm100.039-157.333c-32.717 0-59.333 26.616-59.333 59.333s26.616 59.333 59.333 59.333 59.333-26.616 59.333-59.333-26.616-59.333-59.333-59.333zm0 78.666c-10.66 0-19.333-8.673-19.333-19.333s8.673-19.333 19.333-19.333 19.333 8.673 19.333 19.333-8.673 19.333-19.333 19.333zm-78.667-314.666c-32.717 0-59.333 26.616-59.333 59.333s26.616 59.333 59.333 59.333 59.334-26.616 59.334-59.333-26.617-59.333-59.334-59.333zm0 78.666c-10.66 0-19.333-8.673-19.333-19.333s8.673-19.333 19.333-19.333c10.661 0 19.334 8.673 19.334 19.333s-8.673 19.333-19.334 19.333z"/></svg>