<svg id="Capa_1" enable-background="new 0 0 512 512" height="512" viewBox="0 0 512 512" width="512" xmlns="http://www.w3.org/2000/svg"><path d="m452 78.667h-392c-33.084 0-60 26.916-60 60v234.667c0 33.084 26.916 60 60 60h392c33.084 0 60-26.916 60-60v-234.667c0-33.084-26.916-60-60-60zm-412 118.666h432v38.667h-432zm20-78.666h392c11.028 0 20 8.972 20 20v18.667h-432v-18.667c0-11.028 8.972-20 20-20zm392 274.666h-392c-11.028 0-20-8.972-20-20v-97.333h432v97.333c0 11.028-8.972 20-20 20zm-18.667-58.666c0 11.046-8.954 20-20 20h-78.666c-11.046 0-20-8.954-20-20s8.954-20 20-20h78.666c11.046 0 20 8.954 20 20z"/></svg>