<svg id="Capa_1" enable-background="new 0 0 512 512" height="512" viewBox="0 0 512 512" width="512" xmlns="http://www.w3.org/2000/svg"><path d="m492 118c-32.349 0-58.667-26.318-58.667-58.667 0-11.046-8.954-20-20-20h-314.666c-11.046 0-20 8.954-20 20 0 32.349-26.318 58.667-58.667 58.667-11.046 0-20 8.954-20 20v236c0 11.046 8.954 20 20 20 32.349 0 58.667 26.318 58.667 58.667 0 11.046 8.954 20 20 20h314.667c11.046 0 20-8.954 20-20-.001-32.349 26.317-58.667 58.666-58.667 11.046 0 20-8.954 20-20v-236c0-11.046-8.954-20-20-20zm-20 238.037c-38.388 7.935-68.695 38.241-76.629 76.63h-278.742c-7.935-38.389-38.241-68.695-76.629-76.63v-200.074c38.388-7.935 68.695-38.241 76.629-76.63h278.741c7.935 38.389 38.241 68.695 76.629 76.63v200.074zm-137.333-80.704c-32.716 0-59.333 26.617-59.333 59.334s26.616 59.333 59.333 59.333c32.716 0 59.333-26.616 59.333-59.333s-26.617-59.334-59.333-59.334zm0 78.667c-10.66 0-19.333-8.673-19.333-19.333 0-10.661 8.673-19.334 19.333-19.334 10.661 0 19.333 8.673 19.333 19.334 0 10.66-8.673 19.333-19.333 19.333zm-98-176.667c0-32.717-26.617-59.333-59.333-59.333-32.717 0-59.334 26.616-59.334 59.333s26.617 59.334 59.333 59.334c32.717 0 59.334-26.617 59.334-59.334zm-78.667 0c0-10.66 8.673-19.333 19.333-19.333s19.333 8.673 19.333 19.333c0 10.661-8.673 19.334-19.333 19.334s-19.333-8.673-19.333-19.334zm193.308-28.239-157.333 236c-6.153 9.23-18.584 11.648-27.735 5.547-9.191-6.127-11.674-18.544-5.547-27.734l157.333-236c6.127-9.19 18.544-11.674 27.735-5.547 9.19 6.126 11.674 18.543 5.547 27.734z"/></svg>