<svg id="Capa_1" enable-background="new 0 0 512 512" height="512" viewBox="0 0 512 512" width="512" xmlns="http://www.w3.org/2000/svg"><path d="m439.323 357.93-59.773-58.543c31.6-93.691-39.859-223.979-109.408-293.53-3.75-3.75-8.838-5.857-14.142-5.857-129.196 0-256 126.804-256 256 0 5.339 2.134 10.456 5.928 14.212 69.124 68.441 195.504 138.558 288.622 110.876l60.881 59.628c-8.299 36.647 20.118 71.284 57.902 71.284 26.552 0 49.087-17.295 56.636-41.063 24.303-7.321 42.03-29.65 42.03-55.986.001-37.367-35.334-65.514-72.676-57.021zm-399.107-110.21c5.268-101.515 106.038-202.275 207.553-207.507 67.049 70.676 140.09 213.359 72.755 280.312-67.581 67.582-209.193-5.812-280.308-72.805zm412.451 185.756c-11.046 0-20 8.954-20 20 0 10.215-8.673 18.524-19.333 18.524-14.553 0-23.788-14.858-17.167-27.045 4.267-7.853 2.805-17.583-3.579-23.836l-59.858-58.626c10.434-7.488 19.808-16.704 27.221-26.313l60.273 59.034c6.185 6.057 15.562 7.449 23.239 3.447 12.656-6.595 28.537 2.132 28.537 16.29 0 10.215-8.673 18.525-19.333 18.525z"/></svg>