<svg id="Capa_1" enable-background="new 0 0 512.11 512.11" height="512" viewBox="0 0 512.11 512.11" width="512" xmlns="http://www.w3.org/2000/svg"><path d="m512.01 177.576v-39.521c0-27.193-18.396-50.157-43.392-57.14 15.21-38.919-13.737-80.86-55.275-80.86h-314.667c-41.605 0-70.455 42.017-55.274 80.86-24.996 6.983-43.392 29.947-43.392 57.14v39.521c0 27.341 19.002 48.472 44.097 53.578l-31.57 71.111c-23.573 53.094-14.108 117.826 30.125 162.06 2.912 2.01 38.973 47.73 108.049 47.73h210.598c68.79 0 105.417-45.913 108.05-47.73 45.124-45.126 52.11-109.813 32.235-159.493l-29.841-74.603c23.592-6.577 40.257-27.065 40.257-52.653zm-413.334-137.521h314.667c10.661 0 19.334 8.673 19.334 19.333 0 10.661-8.673 19.334-19.334 19.334h-314.667c-10.66 0-19.333-8.673-19.333-19.334 0-10.66 8.673-19.333 19.333-19.333zm342.397 395.984c-2.567 1.793-28.893 36.016-79.765 36.016h-210.597c-50.53 0-77.239-34.251-79.765-36.016-32.074-32.074-38.952-79.022-21.85-117.544l46.574-104.905c16.872-15.141 39.966-19.649 60.543-13.521-24.3 25.392-38.203 59.31-38.203 95.319 0 76.094 61.907 138 138 138 76.094 0 138-61.906 138-138 0-36.009-13.903-69.927-38.203-95.319 39.409-11.735 62.537 16.267 69.362 21.4l39.286 98.218c14.814 37.036 8.873 84.099-23.382 116.352zm-119.335-213.343c20.429 18.448 32.272 44.684 32.272 72.692 0 54.037-43.963 98-98 98-54.038 0-98-43.963-98-98 0-28.008 11.843-54.244 32.272-72.691 38.057 31.368 93.412 31.352 131.456-.001zm150.272-45.12c0 12.629-15.273 19.54-24.495 10.468l-.363-.36c-40.33-40.328-105.952-40.328-146.284 0-24.734 24.736-64.981 24.736-89.715 0-39.48-39.477-104.275-41.288-146.66.373-9.174 9.023-24.482 2.162-24.482-10.48v-39.521c0-10.66 8.673-19.334 19.333-19.334 31.561 0 376.14.001 393.334.001 10.66 0 19.333 8.673 19.333 19.333v39.52z"/></svg>