<svg id="Capa_1" enable-background="new 0 0 512 512" height="512" viewBox="0 0 512 512" width="512" xmlns="http://www.w3.org/2000/svg"><path d="m452.667 157.333c-32.717 0-59.334 26.617-59.334 59.334s26.617 59.333 59.334 59.333h19.333v137.333c0 32.349-26.318 58.667-58.667 58.667s-58.666-26.318-58.666-58.667v-275.333c0-76.094-61.906-138-138-138s-138 61.906-138 138v109.715l-72.81 72.81c-3.75 3.75-5.857 8.837-5.857 14.142v157.333c0 11.046 8.954 20 20 20h157.333c11.046 0 20-8.954 20-20v-157.333c0-5.305-2.107-10.392-5.857-14.142l-72.809-72.81v-109.715c0-54.037 43.963-98 98-98s98 43.963 98 98v275.333c0 54.405 44.262 98.667 98.666 98.667 54.405 0 98.667-44.262 98.667-98.667v-157.333-39.333c0-32.717-26.616-59.334-59.333-59.334zm-295.334 314.667h-117.333v-129.049l58.667-58.667 58.666 58.667zm276-255.333c0-10.661 8.673-19.334 19.334-19.334 10.66 0 19.333 8.673 19.333 19.334v19.333h-19.333c-10.661 0-19.334-8.673-19.334-19.333z"/></svg>