<svg id="Capa_1" enable-background="new 0 0 512.759 512.759" height="512" viewBox="0 0 512.759 512.759" width="512" xmlns="http://www.w3.org/2000/svg"><path d="m472.697 53.975c-6.803-52.181-106.737-68.42-162.888-40.347-45.561 22.783-45.646 68.579.001 91.403 39.721 19.862 103.631 18.076 139.007-5.727 12.034 31.349 19.596 64.441 22.364 97.903-102.454-53.125-327.052-53.174-429.603 0 2.767-33.462 10.33-66.554 22.364-97.903 35.406 23.822 99.317 25.572 139.008 5.727 45.554-22.778 45.655-68.575 0-91.403-56.391-28.195-156.111-11.63-162.888 40.346-45.647 93.717-39.01 176.025-39.683 182.355 0 42.36 10.229 83.145 29.5 119.548l-23.642 23.643c-7.81 7.811-7.81 20.475 0 28.285 7.809 7.809 20.474 7.811 28.285 0l17.388-17.388c7.133 9.423 14.948 18.428 23.45 26.931.609.609 1.232 1.199 1.846 1.802l-25.606 25.606c-7.81 7.811-7.81 20.475 0 28.285 7.809 7.809 20.474 7.811 28.285 0l28.071-28.071c11.019 7.874 22.585 14.821 34.604 20.797l-12.85 12.85c-7.81 7.811-7.81 20.475 0 28.285 7.809 7.809 20.474 7.811 28.285 0l25.157-25.157c47.542 14.116 98.898 14.12 146.454 0l25.157 25.157c7.809 7.809 20.474 7.811 28.285 0 7.81-7.811 7.81-20.475 0-28.285l-12.85-12.85c12.019-5.976 23.584-12.922 34.604-20.797l28.071 28.071c7.809 7.809 20.474 7.811 28.285 0 7.81-7.811 7.81-20.475 0-28.285l-25.606-25.606c.614-.602 1.237-1.192 1.846-1.802 8.502-8.502 16.318-17.507 23.45-26.931l17.388 17.388c7.809 7.809 20.474 7.811 28.285 0 7.81-7.811 7.81-20.475 0-28.285l-23.643-23.643c19.271-36.404 29.5-77.188 29.5-119.548-.645-6.085 5.829-88.921-39.681-182.354zm-51.636 15.279c-25.03 12.515-68.255 12.554-93.362 0-9.775-4.888-11.985-9.312-11.985-9.924s2.21-5.037 11.985-9.925c25.107-12.553 68.33-12.516 93.362 0 9.775 4.888 11.985 9.313 11.985 9.925s-2.21 5.036-11.985 9.924zm-329.363-19.849c25.073-12.536 68.299-12.532 93.363 0 9.775 4.888 11.985 9.313 11.985 9.924s-2.21 5.037-11.985 9.925c-25.03 12.515-68.256 12.554-93.363 0-9.775-4.888-11.985-9.313-11.985-9.925s2.209-5.036 11.985-9.924zm164.681 402.924c-116.276 0-211.253-91.84-215.827-207.243 79.059-63.566 352.998-63.243 431.654 0-4.566 115.226-99.34 207.243-215.827 207.243z"/></svg>