<svg id="Capa_1" enable-background="new 0 0 512 512" height="512" viewBox="0 0 512 512" width="512" xmlns="http://www.w3.org/2000/svg"><path d="m492 0h-78.667c-5.701 0-5.965 1.056-397.255 79.056-9.349 1.869-16.078 10.078-16.078 19.611v157.333c0 9.533 6.729 17.742 16.078 19.611l65.297 13.06 36.937 206.845c1.703 9.539 9.999 16.484 19.688 16.484h118c13.989 0 23.714-14.056 18.667-27.18l-65.621-170.615c213.117 42.579 200.959 40.462 204.287 40.462h78.667c11.046 0 20-8.954 20-20v-314.667c0-11.046-8.954-20-20-20zm-452 115.063 353.333-70.667v265.875l-353.333-70.667zm186.879 356.937h-72.134l-31.233-174.902 39.105 7.821zm245.121-157.333h-38.667v-274.667h38.667z"/></svg>