<svg id="Capa_1" enable-background="new 0 0 512.005 512.005" height="512" viewBox="0 0 512.005 512.005" width="512" xmlns="http://www.w3.org/2000/svg"><path d="m492.005 393.338h-58.667v-294.666c0-11.046-8.954-20-20-20h-236c-11.046 0-20 8.954-20 20v294.666h-10.058c-6.9-11.83-16.779-21.709-28.609-28.608v-305.392c0-7.575-4.28-14.501-11.056-17.889l-78.666-39.332c-9.883-4.942-21.893-.936-26.833 8.944s-.935 21.893 8.944 26.833l67.611 33.805v282.315c-43.407.181-78.667 35.543-78.667 78.992 0 43.561 35.439 79 79 79 43.449 0 78.811-35.26 78.992-78.667h235.341v58.667c0 11.046 8.954 20 20 20s20-8.954 20-20v-58.667h58.667c11.046 0 20-8.954 20-20s-8.953-20.001-19.999-20.001zm-294.667-274.666h196v274.666h-196zm-118.333 353.333c-21.505 0-39-17.495-39-39s17.495-39 39-39 39 17.495 39 39-17.495 39-39 39z"/></svg>