<svg id="Capa_1" enable-background="new 0 0 512.011 512.011" height="512" viewBox="0 0 512.011 512.011" width="512" xmlns="http://www.w3.org/2000/svg"><path d="m492.006 157.341h-164.307l64.195-128.389c4.939-9.879.936-21.893-8.944-26.833-9.88-4.939-21.894-.935-26.833 8.944l-73.139 146.278h-53.944l-73.14-146.278c-4.94-9.879-16.95-13.883-26.833-8.944-9.88 4.94-13.884 16.954-8.944 26.833l64.195 128.389h-164.306c-12.511 0-21.965 11.38-19.657 23.686l52.881 282.039c5.318 28.359 30.119 48.942 58.973 48.942h287.605c28.854 0 53.654-20.583 58.973-48.943l52.882-282.038c2.306-12.298-7.139-23.686-19.657-23.686zm-72.54 298.352c-1.772 9.454-10.04 16.315-19.658 16.315h-287.605c-9.618 0-17.886-6.861-19.658-16.314l-48.44-258.353h423.803zm-143.46-199.685v157.333c0 11.046-8.954 20-20 20s-20-8.954-20-20v-157.333c0-11.046 8.954-20 20-20 11.045 0 20 8.954 20 20zm58.487 154.852 19.667-157.333c1.369-10.96 11.369-18.73 22.326-17.365 10.961 1.37 18.735 11.366 17.365 22.326l-19.667 157.333c-1.368 10.942-11.344 18.735-22.326 17.365-10.961-1.369-18.735-11.366-17.365-22.326zm-156.975 0c1.37 10.96-6.404 20.957-17.365 22.327-10.986 1.37-20.959-6.425-22.326-17.365l-19.667-157.334c-1.37-10.96 6.404-20.956 17.365-22.326 10.94-1.369 20.956 6.404 22.326 17.365z"/></svg>