<svg id="Capa_1" enable-background="new 0 0 512 512" height="512" viewBox="0 0 512 512" width="512" xmlns="http://www.w3.org/2000/svg"><path d="m0 137.998v236c0 131.673 512 130.864 512 0v-236c0-130.819-512-131.707-512 0zm95.447-36.652c88.152-29.384 232.974-29.377 321.105 0 43.859 14.62 55.448 30.367 55.448 36.652s-11.589 22.032-55.447 36.652c-88.152 29.384-232.974 29.377-321.105 0-43.859-14.62-55.448-30.367-55.448-36.652s11.589-22.032 55.447-36.652zm321.106 309.304c-88.152 29.384-232.974 29.377-321.105 0-43.859-14.62-55.448-30.367-55.448-36.652v-180.252c95.274 56.454 334.339 57.869 432 0v180.252c0 6.285-11.589 22.032-55.447 36.652zm-95.983-121.687c-36.339-18.169-92.764-18.188-129.141 0-45.554 22.777-45.655 68.574 0 91.403 36.339 18.169 92.764 18.188 129.141 0 45.554-22.778 45.656-68.575 0-91.403zm-17.888 55.626c-25.03 12.515-68.256 12.554-93.363 0-9.775-4.888-11.985-9.313-11.985-9.924s2.21-5.037 11.985-9.924c25.07-12.535 68.298-12.532 93.363 0 9.775 4.888 11.985 9.313 11.985 9.924s-2.21 5.036-11.985 9.924z"/></svg>