<svg id="Capa_1" enable-background="new 0 0 512 512" height="512" viewBox="0 0 512 512" width="512" xmlns="http://www.w3.org/2000/svg"><path d="m284.35 46.65c-34.333 10.146-70.667 9.814-105.072-.961-88.785-27.813-179.278 38.826-179.278 131.713v78.666c0 73.783 56.961 131.821 127.013 137.646 34.334 2.854 67.676 16.616 96.421 39.797 31.365 25.294 70.869 39.224 111.233 39.224 98.472 0 177.973-80.013 177.33-178.518v-78.61c-.21-114.925-112.602-202.957-227.647-168.957zm-117.028 37.211c42.005 13.155 86.394 13.553 128.365 1.149 87.899-25.976 175.659 40.239 176.31 130.712v.119c.742 116.825-134.65 179.479-223.453 107.867-34.998-28.224-75.876-45.002-118.216-48.522-49.315-4.1-90.328-44.816-90.328-97.784 0-66.089 64.374-113.26 127.322-93.541zm81.221 318.514c-34.998-28.224-75.876-45.002-118.216-48.522-41.904-3.484-78.979-33.773-88.159-77.178 23.099 22.153 53.014 35.728 84.844 38.374 34.335 2.854 67.677 16.616 96.421 39.797 71.555 57.704 177.965 52.019 242.505-18.891-28.401 92.352-141.939 127.269-217.395 66.42zm-110.543-165.64c32.717 0 59.333-26.617 59.333-59.333 0-32.717-26.617-59.333-59.333-59.333s-59.333 26.617-59.333 59.333 26.616 59.333 59.333 59.333zm0-78.666c10.661 0 19.333 8.673 19.333 19.333s-8.673 19.333-19.333 19.333-19.333-8.673-19.333-19.333 8.672-19.333 19.333-19.333z"/></svg>