<svg id="Capa_1" enable-background="new 0 0 512 512" height="512" viewBox="0 0 512 512" width="512" xmlns="http://www.w3.org/2000/svg"><path d="m492 393.333h-59.143c-2.244-47.468-12.497-93.584-30.563-137.402l29.505-70.915c2.701-6.493 1.794-13.928-2.39-19.581l-78.666-106.293c-3.771-5.096-9.736-8.103-16.076-8.103h-115.548c-61.205-33.649-128.89-51.039-199.119-51.039-11.046 0-20 8.954-20 20 0 70.123 17.339 137.825 51.04 199.119v76.229c0 11.046 8.954 20 20 20s20-8.954 20-20v-16.545c76.021 94.424 186.389 148.575 302.293 154.054v59.143c0 11.046 8.954 20 20 20s20-8.954 20-20v-58.667h58.667c11.046 0 20-8.954 20-20s-8.954-20-20-20zm-167.413-302.293 65.926 89.078-11.636 27.967c-25.525-44.604-59.375-84.277-100.074-117.045zm-133.512-9.717c-14.607 53.145-56.606 95.143-109.751 109.751-23.93-46.316-37.906-97.38-40.771-150.522 53.142 2.865 104.206 16.841 150.522 40.771zm-88.879 145.175c58.406-19.584 104.719-65.897 124.303-124.302 95.375 63.581 159.73 169.044 166.281 290.585-122.137-6.585-227.323-71.388-290.584-166.283z"/></svg>