<svg id="Capa_1" enable-background="new 0 0 512.028 512.028" height="512" viewBox="0 0 512.028 512.028" width="512" xmlns="http://www.w3.org/2000/svg"><path d="m481.561 81.643-48.214 29.559v-91.174c0-15.578-17.117-25.229-30.453-17.051l-55.102 33.781c-.107-.066-55.228-33.857-55.124-33.793-6.378-3.883-14.292-3.861-20.556-.186l-55.432 32.535c-58.83-34.485-55.268-32.537-57.028-33.367-5.837-2.758-12.848-2.622-18.9.979l-55.183 32.388-55.431-32.535c-13.308-7.81-30.124 1.801-30.124 17.249v432.667c0 32.717 26.616 59.333 59.333 59.333h393.334c32.717 0 59.333-26.617 59.333-59.333v-354c0-15.57-17.104-25.236-30.453-17.052zm-422.214 390.385c-10.66 0-19.333-8.673-19.333-19.333v-397.738l35.431 20.796c6.252 3.669 13.999 3.669 20.247 0l55.433-32.535 55.432 32.535c6.252 3.669 13.996 3.669 20.248 0l55.208-32.403 55.326 33.919c6.414 3.933 14.492 3.933 20.906 0l35.102-21.52c-.022 430.997-1.511 402.549 3.233 416.279zm412.667-19.334c0 10.661-8.673 19.333-19.333 19.333-10.661 0-19.334-8.673-19.334-19.333v-295.032c3.346-1.229 2.028-.938 38.667-23.247zm-354-314.666c0-11.046 8.954-20 20-20h157.333c11.046 0 20 8.954 20 20s-8.954 20-20 20h-157.333c-11.046 0-20-8.954-20-20zm118.667 118c0 11.046-8.954 20-20 20h-118c-11.046 0-20-8.954-20-20s8.954-20 20-20h118c11.046 0 20 8.954 20 20zm118 0c0 11.046-8.954 20-20 20h-39.334c-11.046 0-20-8.954-20-20s8.954-20 20-20h39.334c11.046 0 20 8.954 20 20zm-118 118c0 11.046-8.954 20-20 20h-118c-11.046 0-20-8.954-20-20s8.954-20 20-20h118c11.046 0 20 8.954 20 20zm118 0c0 11.046-8.954 20-20 20h-39.334c-11.046 0-20-8.954-20-20s8.954-20 20-20h39.334c11.046 0 20 8.954 20 20z"/></svg>