<svg id="Capa_1" enable-background="new 0 0 512 512" height="512" viewBox="0 0 512 512" width="512" xmlns="http://www.w3.org/2000/svg"><g><path d="m314.32 120.269c-13.016 0-25.825 1.611-38.32 4.786v-60.371c39.492-2.216 78.02-10.987 114.786-26.198 10.207-4.223 15.057-15.92 10.834-26.127-4.223-10.206-15.92-15.058-26.127-10.834-38.076 15.753-78.279 23.741-119.493 23.741-41.213 0-81.417-7.988-119.493-23.741-10.207-4.224-21.904.628-26.127 10.834-4.223 10.207.628 21.904 10.834 26.127 36.767 15.211 75.294 23.982 114.786 26.198v60.371c-12.495-3.175-25.304-4.786-38.319-4.786-99.988 0-173.681 92.186-173.681 195.865 0 104.349 74.271 195.866 173.681 195.866 20.062 0 39.639-3.802 58.319-11.313 18.682 7.511 38.258 11.313 58.32 11.313 99.987 0 173.68-92.184 173.68-195.866 0-104.348-74.27-195.865-173.68-195.865zm0 351.731c-17.206 0-33.966-3.775-49.816-11.222-5.388-2.53-11.621-2.531-17.008 0-15.85 7.446-32.61 11.222-49.815 11.222-73.712 0-133.681-69.921-133.681-155.866s59.969-155.866 133.681-155.866c17.206 0 33.966 3.775 49.815 11.222.147.069.297.129.446.195.15.066.299.134.451.197.467.192.941.364 1.418.519.165.054.33.104.497.154.496.147.995.277 1.498.385.14.03.28.054.421.081.549.105 1.101.194 1.655.253.08.008.16.012.239.02.616.058 1.235.093 1.854.094.009 0 .017.001.025.001.009 0 .018-.001.027-.001.618-.001 1.235-.036 1.851-.093.081-.008.162-.011.242-.02.553-.059 1.103-.147 1.65-.252.143-.027.286-.052.428-.083.501-.108.998-.237 1.491-.384.169-.05.337-.102.504-.156.476-.155.947-.326 1.413-.517.154-.063.305-.132.457-.199.147-.065.296-.124.442-.193 15.85-7.446 32.61-11.222 49.816-11.222 73.711 0 133.68 69.921 133.68 155.866s-59.969 155.865-133.681 155.865z"/></g></svg>