<svg id="Capa_1" enable-background="new 0 0 512 512" height="512" viewBox="0 0 512 512" width="512" xmlns="http://www.w3.org/2000/svg"><g><path d="m255.996 79.992c-53.071 0-96.248 43.061-96.248 95.99s43.176 95.99 96.248 95.99 96.248-43.061 96.248-95.99-43.177-95.99-96.248-95.99zm0 151.984c-30.958 0-56.144-25.118-56.144-55.994s25.186-55.994 56.144-55.994 56.144 25.119 56.144 55.994-25.186 55.994-56.144 55.994zm116.556 76.009c36.702-32.272 59.898-79.484 59.898-132.004 0-97.036-79.157-175.981-176.454-175.981s-176.454 78.945-176.454 175.982c0 52.52 23.196 99.731 59.898 132.004l-58.885 177.687c-5.613 16.936 12.249 32.221 28.189 24.07l147.252-75.312 147.252 75.312c15.773 8.072 33.855-6.972 28.189-24.07zm-136.608 91.753-101.954 52.144 39.836-120.205c18.941 9.983 39.91 16.626 62.119 19.144v48.917zm-116.299-223.756c0-74.983 61.167-135.986 136.351-135.986s136.351 61.003 136.351 135.986-61.167 135.986-136.351 135.986-136.351-61.004-136.351-135.986zm156.402 223.756v-48.917c22.209-2.517 43.178-9.16 62.119-19.144l39.836 120.205z"/></g></svg>