<svg height="512pt" viewBox="0 -31 512 512" width="512pt" xmlns="http://www.w3.org/2000/svg"><path d="m437 0h-362c-41.355469 0-75 33.644531-75 75v272.511719l35.300781 102.488281h81.511719l10-30h78.375l10 30h81.625l10-30h78.375l10 30h81.511719l35.300781-102.488281c0-12.023438 0-263.035157 0-272.511719 0-41.355469-33.644531-75-75-75zm-362 30h362c24.8125 0 45 20.1875 45 45v93.410156c-12.777344-11.542968-28.722656-18.410156-46-18.410156-10.261719 0-20.167969 2.417969-29.285156 7.027344-13.898438-22.960938-36.324219-37.027344-60.714844-37.027344s-46.816406 14.066406-60.714844 37.027344c-9.117187-4.609375-19.023437-7.027344-29.285156-7.027344s-20.167969 2.417969-29.285156 7.027344c-13.898438-22.960938-36.324219-37.027344-60.714844-37.027344s-46.816406 14.066406-60.714844 37.027344c-9.117187-4.609375-19.023437-7.027344-29.285156-7.027344-17.277344 0-33.222656 6.867188-46 18.410156v-93.410156c0-24.8125 20.1875-45 45-45zm55.140625 147.597656c-.394531-.492187-.792969-.976562-1.191406-1.453125 8.359375-16.125 22.246093-26.144531 37.050781-26.144531s28.691406 10.019531 37.054688 26.144531c-.402344.476563-.800782.960938-1.195313 1.453125-13.449219 16.8125-20.859375 38.976563-20.859375 62.402344 0 10.363281 1.449219 20.464844 4.242188 30h-38.484376c2.792969-9.535156 4.242188-19.636719 4.242188-30 0-23.425781-7.40625-45.589844-20.859375-62.402344zm86.960937 92.402344c-4.003906-9.085938-6.101562-19.304688-6.101562-30 0-33.085938 20.1875-60 45-60s45 26.914062 45 60c0 10.695312-2.097656 20.914062-6.101562 30zm93.039063-92.402344c-.394531-.492187-.792969-.976562-1.191406-1.453125 8.359375-16.125 22.246093-26.144531 37.050781-26.144531s28.691406 10.019531 37.054688 26.144531c-.402344.476563-.800782.960938-1.195313 1.453125-13.449219 16.8125-20.859375 38.976563-20.859375 62.402344 0 10.363281 1.449219 20.464844 4.242188 30h-38.484376c2.792969-9.535156 4.242188-19.636719 4.242188-30 0-23.425781-7.40625-45.589844-20.859375-62.402344zm-280.140625 62.402344c0-32.523438 21.066406-60 46-60 24.8125 0 45 26.914062 45 60 0 10.695312-2.097656 20.914062-6.101562 30h-84.898438zm26.699219 180-20.667969-60h79.15625l-20 60zm80.113281-30 10-30h38.375l10 30zm100 30-20-60h78.375l-20 60zm80-30 10-30h38.375l10 30zm100 30-20-60h79.15625l-20.667969 60zm65.1875-90h-452v-30h452zm0-60h-84.898438c-4.003906-9.085938-6.101562-19.304688-6.101562-30 0-33.085938 20.1875-60 45-60 24.933594 0 46 27.476562 46 60zm0 0"/></svg>