<svg height="512pt" viewBox="0 0 512 512" width="512pt" xmlns="http://www.w3.org/2000/svg"><path d="m512 362v-90h-150v90h60v30h-92v-56.710938l-120-30v-6.796874c34.191406-6.96875 60-37.273438 60-73.492188v-17.570312c17.460938-6.191407 30-22.871094 30-42.429688 0-19.554688-12.539062-36.226562-30-42.421875v-47.578125c0-24.8125-20.1875-45-45-45h-17.578125c-6.195313-17.460938-22.867187-30-42.421875-30h-60c-24.8125 0-45 20.1875-45 45 0 8.269531-6.730469 15-15 15h-45v15c0 27.746094 15.160156 52.007812 37.617188 64.976562-4.808594 7.160157-7.617188 15.769532-7.617188 25.023438 0 19.554688 12.539062 36.238281 30 42.429688v17.570312c0 36.21875 25.808594 66.523438 60 73.492188v6.796874l-120 30v176.710938h512v-120h-60v-30zm-272-287v42.429688c-17.460938-6.191407-30-22.871094-30-42.429688v-15h15c8.269531 0 15 6.730469 15 15zm-195 15c24.8125 0 45-20.1875 45-45 0-8.269531 6.730469-15 15-15h60c8.269531 0 15 6.730469 15 15v30c0 24.8125-20.1875 45-45 45h-60c-19.554688 0-36.238281-12.539062-42.429688-30zm45 135v-45h-15c-8.269531 0-15-6.730469-15-15s6.730469-15 15-15h60c24.507812 0 46.304688-11.816406 60-30.050781 13.695312 18.234375 35.492188 30.050781 60 30.050781 8.269531 0 15 6.730469 15 15s-6.730469 15-15 15h-15v45c0 24.8125-20.1875 45-45 45h-15v40.785156l-15 15-15-15v-40.785156h-15c-24.8125 0-45-20.1875-45-45zm-60 257v-123.289062l100.398438-25.097657 19.601562 19.601563v68.785156h30v-68.785156l19.601562-19.601563 100.398438 25.097657v33.289062h-59v90zm452 0h-211v-60h211zm-90-180h90v30h-90zm0 0"/><path d="m210 195h-30c0 8.269531-6.730469 15-15 15s-15-6.730469-15-15h-30c0 24.8125 20.1875 45 45 45s45-20.1875 45-45zm0 0"/><path d="m60 422h60v30h-60zm0 0"/></svg>