<svg height="512pt" viewBox="0 -16 512 512" width="512pt" xmlns="http://www.w3.org/2000/svg"><path d="m512 210h-211v-210h-90v192.976562l-155.398438-129.5-19.203124 23.046876 148.171874 123.476562h-184.570312v90h33.292969l30 180h385.414062l30-180h33.292969zm-271 90v60h-60v-60zm0 90v60h-60v-60zm30 0h60v60h-60zm0-30v-60h60v60zm-30-330h30v225c0 8.269531-6.730469 15-15 15s-15-6.730469-15-15zm-211 210h181v15c0 5.257812.914062 10.304688 2.578125 15h-183.578125zm121 60v60h-77.292969l-10-60zm-72.292969 90h72.292969v60h-62.292969zm282.292969 60v-60h72.292969l-10 60zm77.292969-90h-77.292969v-60h87.292969zm43.707031-90h-183.578125c1.664063-4.695312 2.578125-9.742188 2.578125-15v-15h181zm0 0"/></svg>