<svg height="512pt" viewBox="-91 0 512 512" width="512pt" xmlns="http://www.w3.org/2000/svg"><path d="m330 30v-30h-330v30h30v15c0 8.269531-6.730469 15-15 15h-15v392h15c8.269531 0 15 6.730469 15 15v15h-30v30h330v-30h-30v-15c0-8.269531 6.730469-15 15-15h15v-392h-15c-8.269531 0-15-6.730469-15-15v-15zm-300 392v-89.679688c76.402344 3.023438 127.558594 28.472657 134.792969 30.753907 43.335937 17.332031 88.746093 26.945312 135.207031 28.648437v30.277344zm270-60.320312c-76.402344-3.023438-127.558594-28.472657-134.792969-30.753907-43.335937-17.332031-88.746093-26.945312-135.207031-28.648437v-151.957032c76.402344 3.023438 127.558594 28.472657 134.792969 30.75 43.335937 17.335938 88.746093 26.949219 135.207031 28.652344zm0-271.679688v89.679688c-76.402344-3.023438-127.558594-28.472657-134.792969-30.75-43.335937-17.335938-88.746093-26.949219-135.207031-28.652344v-30.277344zm-30 377v15h-210v-15c0-5.257812-.914062-10.316406-2.578125-15.011719h215.15625c-1.664063 4.695313-2.578125 9.753907-2.578125 15.011719zm2.578125-407h-215.15625c1.664063-4.695312 2.578125-9.742188 2.578125-15v-15h210v15c0 5.257812.914062 10.304688 2.578125 15zm0 0"/><path d="m120 256c0 24.8125 20.1875 45 45 45s45-20.1875 45-45-20.1875-45-45-45-45 20.1875-45 45zm45-15c8.269531 0 15 6.730469 15 15s-6.730469 15-15 15-15-6.730469-15-15 6.730469-15 15-15zm0 0"/></svg>