<svg height="512pt" viewBox="0 0 512 512" width="512pt" xmlns="http://www.w3.org/2000/svg"><path d="m404.429688 152.511719c-11.519532 0-23.039063-4.386719-31.808594-13.15625-2.832032-2.832031-6.601563-4.394531-10.605469-4.394531s-7.769531 1.558593-10.601563 4.390624l-21.210937-21.207031c8.496094-8.496093 19.796875-13.175781 31.8125-13.175781 12.019531 0 23.316406 4.679688 31.8125 13.175781 5.851563 5.847657 15.363281 5.847657 21.210937 0l21.207032 21.207031c-8.773438 8.773438-20.292969 13.160157-31.816406 13.160157zm0 0"/><path d="m340.804688 216.132812c-11.519532 0-23.039063-4.382812-31.808594-13.152343-2.835938-2.835938-6.601563-4.394531-10.605469-4.394531-4.007813 0-7.769531 1.558593-10.601563 4.390624l-21.210937-21.207031c8.496094-8.496093 19.796875-13.175781 31.8125-13.175781s23.316406 4.679688 31.8125 13.175781c5.847656 5.847657 15.359375 5.847657 21.207031 0l21.210938 21.207031c-8.773438 8.773438-20.292969 13.15625-31.816406 13.15625zm0 0"/><path d="m277.183594 279.761719c-11.523438 0-23.042969-4.386719-31.8125-13.15625-2.832032-2.832031-6.601563-4.394531-10.605469-4.394531s-7.769531 1.558593-10.601563 4.390624l-21.210937-21.207031c8.496094-8.496093 19.796875-13.175781 31.8125-13.175781 12.019531 0 23.316406 4.679688 31.8125 13.175781 2.832031 2.832031 6.597656 4.394531 10.605469 4.394531 4.003906 0 7.769531-1.5625 10.601562-4.394531l21.210938 21.207031c-8.773438 8.773438-20.292969 13.160157-31.8125 13.160157zm0 0"/><path d="m213.554688 343.386719c-11.519532 0-23.039063-4.386719-31.808594-13.15625-5.851563-5.847657-15.363282-5.847657-21.210938 0l-21.207031-21.210938c17.539063-17.539062 46.082031-17.539062 63.625 0 5.847656 5.847657 15.359375 5.847657 21.207031 0l21.210938 21.210938c-8.773438 8.769531-20.292969 13.15625-31.816406 13.15625zm0 0"/><path d="m149.929688 407.011719c-11.519532 0-23.039063-4.386719-31.8125-13.15625-5.84375-5.847657-15.359376-5.847657-21.207032 0l-21.207031-21.210938c17.539063-17.539062 46.082031-17.539062 63.625 0 5.847656 5.847657 15.363281 5.847657 21.207031 0l21.210938 21.210938c-8.773438 8.769531-20.292969 13.15625-31.816406 13.15625zm0 0"/><path d="m59.40625 512c-18.492188 0-33.179688-5.308594-43.648438-15.78125-13.476562-13.46875-18.34375-33.714844-14.46875-60.171875 12.007813-82.046875 99.042969-193.929687 169.925782-264.808594 62.113281-62.117187 194.15625-171.238281 281.328125-171.238281 18.496093 0 33.179687 5.308594 43.644531 15.777344.003906.003906.003906.003906.007812.007812 13.488282 13.488282 18.371094 33.734375 14.5 60.171875-12.628906 86.457031-108.28125 203.125-169.964843 264.804688-62.109375 62.117187-194.15625 171.238281-281.324219 171.238281zm393.136719-482.007812c-56.597657 0-165.992188 68.324218-260.121094 162.453124-72.984375 72.980469-151.210937 177.953126-161.453125 247.949219-1.671875 11.390625-1.984375 26.640625 5.996094 34.617188 4.644531 4.644531 12.191406 6.996093 22.441406 6.996093 56.597656 0 165.992188-68.320312 260.117188-162.453124 54.488281-54.484376 149.820312-168.019532 161.496093-247.9375 1.664063-11.382813 1.96875-26.625-6.035156-34.625-4.636719-4.640626-12.191406-7-22.441406-7zm0 0"/></svg>