<svg height="512pt" viewBox="0 0 512 512" width="512pt" xmlns="http://www.w3.org/2000/svg"><path d="m0 0v512h512c0-14.695312 0-506.015625 0-512zm482 482h-452v-60h151v30h150v-30h151zm-271-60v-30h90v30zm271-30h-151v-30h-150v30h-151c0-18.226562 0-42.152344 0-60h452zm-331-212h-30v-30h30zm-30 55.785156v-25.785156h30v25.785156c0 17.6875 6.886719 34.316406 19.394531 46.820313 5.351563 5.351562 8.808594 12.085937 10.066407 19.394531h-88.921876c1.257813-7.308594 4.71875-14.042969 10.066407-19.394531 12.507812-12.503907 19.394531-29.132813 19.394531-46.820313zm150-55.785156h-30v-30h30zm-30 55.785156v-25.785156h30v25.785156c0 17.6875 6.886719 34.316406 19.394531 46.820313 5.351563 5.351562 8.808594 12.085937 10.066407 19.394531h-88.921876c1.257813-7.308594 4.71875-14.042969 10.066407-19.394531 12.507812-12.503907 19.394531-29.132813 19.394531-46.820313zm150-55.785156h-30v-30h30zm-30 55.785156v-25.785156h30v25.785156c0 17.6875 6.886719 34.316406 19.394531 46.820313 5.351563 5.351562 8.808594 12.085937 10.066407 19.394531h-88.921876c1.257813-7.308594 4.71875-14.042969 10.066407-19.394531 12.507812-12.503907 19.394531-29.132813 19.394531-46.820313zm89.707031 66.214844c-1.421875-15.339844-8.070312-29.578125-19.101562-40.605469-6.839844-6.839843-10.605469-15.933593-10.605469-25.609375v-115.785156h-90v115.785156c0 9.675782-3.765625 18.769532-10.605469 25.609375-1.554687 1.550781-3.019531 3.167969-4.394531 4.839844-1.375-1.671875-2.839844-3.289063-4.394531-4.839844-6.839844-6.839843-10.605469-15.933593-10.605469-25.609375v-115.785156h-90v115.785156c0 9.675782-3.765625 18.769532-10.605469 25.609375-1.554687 1.550781-3.019531 3.167969-4.394531 4.839844-1.375-1.671875-2.839844-3.289063-4.394531-4.839844-6.839844-6.839843-10.605469-15.933593-10.605469-25.609375v-115.785156h-90v115.785156c0 9.675782-3.765625 18.769532-10.605469 25.609375-11.03125 11.027344-17.683593 25.265625-19.101562 40.605469h-31.292969v-212h452v212zm-420.707031-242v-30h452v30zm0 0"/></svg>