<svg height="512pt" viewBox="-31 0 512 512" width="512pt" xmlns="http://www.w3.org/2000/svg"><path d="m360 0v15c0 8.269531-6.730469 15-15 15s-15-6.730469-15-15v-15h-90v15c0 8.269531-6.730469 15-15 15s-15-6.730469-15-15v-15h-90v15c0 8.269531-6.730469 15-15 15s-15-6.730469-15-15v-15h-90v512h375c41.355469 0 75-33.644531 75-75 0-26.980469 0-419.035156 0-437zm30 479.429688v-27.441407h27.429688c-4.527344 12.769531-14.660157 22.914063-27.429688 27.441407zm-30-57.429688v60h-330v-452h32.570312c6.191407 17.460938 22.875 30 42.429688 30s36.238281-12.539062 42.429688-30h35.140624c6.191407 17.460938 22.875 30 42.429688 30 19.558594 0 36.238281-12.539062 42.429688-30h35.140624c6.191407 17.460938 22.875 30 42.433594 30 19.554688 0 36.238282-12.539062 42.429688-30h32.566406v392zm0 0"/><path d="m60 182h90v-90h-90zm30-60h30v30h-30zm0 0"/><path d="m60 302h90v-90h-90zm30-60h30v30h-30zm0 0"/><path d="m60 422h90v-90h-90zm30-60h30v30h-30zm0 0"/><path d="m180 92h210v30h-210zm0 0"/><path d="m180 152h120v30h-120zm0 0"/><path d="m180 212h210v30h-210zm0 0"/><path d="m180 272h120v30h-120zm0 0"/><path d="m180 332h210v30h-210zm0 0"/><path d="m180 392h120v30h-120zm0 0"/></svg>