<svg height="512pt" viewBox="-46 0 512 512" width="512pt" xmlns="http://www.w3.org/2000/svg"><path d="m390 72.617188v-72.617188h-270v72.617188l-25.886719 79.382812h-64.113281v45c0 16.175781 8.578125 30.386719 21.425781 38.316406l-51.425781 77.140625v199.542969h420v-347.382812zm-188.101562 227.6875-43.324219-64.984376c12.847656-7.933593 21.425781-22.144531 21.425781-38.320312v-15h90v45c0 8.269531-6.730469 15-15 15-24.8125 0-45 20.1875-45 45 0 5.78125-3.296875 10.804688-8.101562 13.304688zm-21.898438-148.304688h-54.332031l20.21875-62h218.226562l20.21875 62zm180-122v30h-210v-30zm-256.972656 182h-28.027344c-8.269531 0-15-6.730469-15-15v-15h90v15c0 8.269531-6.730469 15-15 15h-28.027344l73.027344 109.542969v40.457031h-11.460938c-19.625 0-39.277343-4.640625-56.832031-13.414062-21.695312-10.851563-45.988281-16.585938-70.246093-16.585938h-11.460938v-10.457031zm-73.027344 270v-120h11.460938c19.625 0 39.277343 4.640625 56.832031 13.417969 21.695312 10.847656 45.988281 16.582031 70.246093 16.582031h11.460938v90zm180-152.578125c17.460938-6.195313 30-22.867187 30-42.421875 0-8.269531 6.730469-15 15-15 24.8125 0 45-20.1875 45-45v-45h90v180h-15c-24.8125 0-45 20.1875-45 45 0 8.269531-6.730469 15-15 15-24.8125 0-45 20.1875-45 45v15h-60zm90 152.578125v-15c0-8.269531 6.730469-15 15-15 24.8125 0 45-20.1875 45-45 0-8.269531 6.730469-15 15-15h15v90zm0 0"/></svg>