<svg height="512pt" viewBox="-31 0 512 512.00063" width="512pt" xmlns="http://www.w3.org/2000/svg"><path d="m449.992188 120.007812h-86.359376l43.179688-43.179687c17.546875-17.546875 17.546875-46.09375 0-63.636719-17.582031-17.585937-46.050781-17.589844-63.636719 0l-106.820312 106.816406h-71.398438c9.4375-12.542968 15.039063-28.128906 15.039063-45 0-41.351562-33.644532-74.9960932-74.996094-74.9960932h-75v30.0000002h75c24.8125 0 44.996094 20.183593 44.996094 44.996093s-20.183594 45-44.996094 45h-105v30h30v60h31.414062l30 301.992188h267.164063l30-301.992188h31.414063v-60h30zm-85.605469-85.605468c5.863281-5.859375 15.351562-5.863282 21.214843 0 5.847657 5.847656 5.847657 15.367187 0 21.214844l-64.390624 64.390624h-42.425782zm-32.976563 447.597656h-212.828125l-27.019531-271.992188h266.867188zm58.582032-301.992188h-329.992188v-30h329.992188zm0 0"/><path d="m224.996094 452c20.453125 0 40.105468-14.179688 55.335937-39.933594 12.128907-20.507812 19.664063-45.4375 19.664063-65.0625 0-13.742187-3.871094-24.546875-11.503906-32.121094-9.925782-9.847656-23.832032-12.285156-39.253907-12.820312l19.171875-38.351562-26.828125-13.414063-16.585937 33.167969-16.582032-33.167969-26.832031 13.414063 19.175781 38.351562c-15.425781.535156-29.328124 2.972656-39.257812 12.820312-7.632812 7.574219-11.5 18.382813-11.5 32.121094 0 19.625 7.53125 44.554688 19.660156 65.0625 15.234375 25.753906 34.886719 39.933594 55.335938 39.933594zm-42.367188-115.820312c3.78125-3.75 15.628906-4.25 27.628906-4.25 5.953126 0 11.339844.125 22.789063.035156 13.980469-.109375 29.832031-.234375 34.316406 4.214844 2.175781 2.160156 2.632813 7.078124 2.632813 10.824218 0 14.121094-6.222656 34.128906-15.484375 49.789063-9.335938 15.785156-20.367188 25.210937-29.515625 25.210937-9.144532 0-20.179688-9.425781-29.515625-25.210937-9.261719-15.660157-15.484375-35.667969-15.484375-49.789063 0-3.746094.457031-8.664062 2.632812-10.824218zm0 0"/></svg>