<svg height="512pt" viewBox="0 0 512 512" width="512pt" xmlns="http://www.w3.org/2000/svg"><path d="m512 0h-512v150h61v323.960938l45 38.039062 30-25.359375 30 25.359375 30-25.359375 30 25.359375 30-25.359375 30 25.359375 30-25.359375 30 25.359375 30-25.359375 30 25.359375 45-38.039062v-323.960938h61zm-106 472.71875-30-25.359375-30 25.359375-30-25.359375-30 25.359375-30-25.359375-30 25.359375-30-25.359375-30 25.359375-30-25.359375-30 25.359375-15-12.679688v-38.039062h60v-30h-60v-302h330v302h-60v30h60v38.039062zm76-352.71875h-31v-60h-390v60h-31v-90h452zm0 0"/><path d="m181 297.417969c17.457031-6.191407 30-22.863281 30-42.417969 0-24.8125-20.1875-45-45-45-8.269531 0-15-6.730469-15-15s6.730469-15 15-15 15 6.730469 15 15h30c0-19.554688-12.542969-36.226562-30-42.421875v-32.578125h-30v32.578125c-17.460938 6.195313-30 22.867187-30 42.421875 0 24.8125 20.1875 45 45 45 8.269531 0 15 6.730469 15 15s-6.730469 15-15 15-15-6.730469-15-15h-30c0 19.554688 12.539062 36.226562 30 42.417969v32.582031h30zm0 0"/><path d="m241 180h60v30h-60zm0 0"/><path d="m331 180h60v30h-60zm0 0"/><path d="m241 240h60v30h-60zm0 0"/><path d="m241 300h150v30h-150zm0 0"/><path d="m241 120h150v30h-150zm0 0"/><path d="m331 240h60v30h-60zm0 0"/><path d="m181 392h60v30h-60zm0 0"/><path d="m271 392h60v30h-60zm0 0"/></svg>