<svg height="512pt" viewBox="-61 0 512 512" width="512pt" xmlns="http://www.w3.org/2000/svg"><path d="m0 0v512h390v-512zm360 482h-330v-452h330zm0 0"/><path d="m330 366.730469c-14.199219-6.738281-39.253906-21.171875-80.53125-35.730469h80.53125v-84.269531c-14.199219-6.738281-39.253906-21.171875-80.53125-35.730469h80.53125v-84.269531c-11.75-4.433594-108.902344-65.730469-255-65.730469h-15v390h270zm-80.617188-3.835938c-8.527343 20.78125-19.527343 40.25-32.835937 58.105469h-38.921875c18.140625-19.863281 32.785156-42.773438 43.320312-67.855469 9.574219 2.957031 19.058594 6.214844 28.4375 9.75zm-71.757812-181.894531c18.136719-19.863281 32.785156-42.773438 43.316406-67.855469 9.578125 2.960938 19.0625 6.214844 28.441406 9.75-8.527343 20.78125-19.527343 40.25-32.835937 58.105469zm-43.492188 0h-44.132812v-6.019531c31.042969-17.636719 55.984375-44.203125 71.609375-76.25 10.109375 1.808593 20.160156 3.933593 30.136719 6.363281-13.0625 29.558594-32.726563 55.503906-57.613282 75.90625zm57.613282 44.09375c-13.0625 29.558594-32.726563 55.503906-57.613282 75.90625h-44.132812v-6.019531c31.042969-17.636719 55.984375-44.203125 71.609375-76.25 10.109375 1.808593 20.160156 3.933593 30.136719 6.363281zm57.636718 17.800781c-8.527343 20.78125-19.527343 40.25-32.835937 58.105469h-38.921875c18.140625-19.863281 32.785156-42.773438 43.320312-67.855469 9.574219 2.957031 19.058594 6.214844 28.4375 9.75zm-159.382812 16.363281v-48.027343c13.402344.414062 26.792969 1.386719 40.121094 2.898437-10.109375 17.679688-23.78125 33.035156-40.121094 45.128906zm210 6.011719v35.730469h-47.035156c9.386718-14.757812 17.457031-30.363281 24.152344-46.683594 12.152343 5.449219 20.21875 9.648438 22.882812 10.953125zm0-120v35.730469h-47.035156c9.386718-14.757812 17.457031-30.363281 24.152344-46.683594 12.152343 5.449219 20.21875 9.648438 22.882812 10.953125zm-169.878906-51.140625c-10.109375 17.679688-23.777344 33.035156-40.121094 45.128906v-48.027343c13.402344.417969 26.792969 1.386719 40.121094 2.898437zm0 240c-10.109375 17.679688-23.777344 33.035156-40.121094 45.128906v-48.027343c13.402344.417969 26.792969 1.386719 40.121094 2.898437zm-40.121094 80.851563c31.042969-17.636719 55.984375-44.203125 71.609375-76.25 10.109375 1.808593 20.160156 3.933593 30.136719 6.363281-13.0625 29.558594-32.726563 55.503906-57.617188 75.90625h-44.128906zm210 6.019531h-47.035156c9.386718-14.757812 17.457031-30.363281 24.152344-46.683594 12.152343 5.445313 20.21875 9.648438 22.882812 10.953125zm0 0"/></svg>