<svg height="512pt" viewBox="-61 0 512 512" width="512pt" xmlns="http://www.w3.org/2000/svg"><path d="m0 0v512h390v-512zm30 482v-31h60v-30h-60v-120h30v-30h-30v-180h30v-30h-30v-31h330v31h-60v30h60v330h-30v30h30v31zm0 0"/><path d="m330 196c0-85.996094-79.660156-151.601562-167.179688-131.261719-48.203124 11.199219-86.945312 49.507813-98.703124 97.597657-11.707032 47.875 2.167968 96.542968 37.109374 130.1875 11.929688 11.484374 18.773438 29.121093 18.773438 48.382812 0 56.992188 42.902344 106.988281 99.375 109.945312 60.433594 3.164063 110.625-44.765624 110.625-104.851562zm-236.738281-26.542969c9.09375-37.199219 39.0625-66.835937 76.347656-75.5 20.898437-4.855469 42.089844-3.554687 61.292969 3.394531l-37.765625 33.570313c-7.710938-6.199219-17.496094-9.921875-28.136719-9.921875-24.8125 0-45 20.1875-45 45 0 8.75 2.519531 16.917969 6.855469 23.835938l-33.949219 30.175781c-3.832031-16.175781-3.835938-33.417969.355469-50.554688zm56.738281-3.457031c0-8.269531 6.730469-15 15-15s15 6.730469 15 15-6.730469 15-15 15-15-6.730469-15-15zm-45.082031 83.476562 45.882812-40.785156c4.464844 1.488282 9.238281 2.308594 14.199219 2.308594 24.8125 0 45-20.1875 45-45 0-3.117188-.320312-6.164062-.929688-9.105469l49.777344-44.246093c.46875.359374.9375.710937 1.398438 1.078124 15.808594 12.558594 27.398437 29 33.859375 47.445313l-153.378907 136.335937c-4.648437-10.101562-10.949218-19.144531-18.691406-26.597656-6.730468-6.484375-12.453125-13.691406-17.117187-21.433594zm45.082031 91.429688c0-3.707031-.195312-7.378906-.5625-11.003906l150.5625-133.832032v79.859376l-131.671875 117.042968c-11.382813-14.132812-18.328125-32.421875-18.328125-52.066406zm126.617188 59.503906c-15.066407 14.300782-34.84375 21.574219-55.671876 20.484375-10.484374-.550781-20.433593-3.546875-29.394531-8.421875l108.449219-96.402344v29.929688c0 20.777344-8.304688 40.101562-23.382812 54.410156zm0 0"/></svg>