<svg height="512pt" viewBox="-61 0 512 512" width="512pt" xmlns="http://www.w3.org/2000/svg"><path d="m370.605469 100.605469c12.507812-12.503907 19.394531-29.132813 19.394531-46.820313v-53.785156h-390v53.785156c0 17.6875 6.886719 34.316406 19.394531 46.820313 6.839844 6.839843 10.605469 15.933593 10.605469 25.609375v259.570312c0 9.675782-3.765625 18.769532-10.605469 25.609375-12.507812 12.503907-19.394531 29.132813-19.394531 46.820313v53.785156h390v-53.785156c0-17.6875-6.886719-34.316406-19.394531-46.820313-6.839844-6.839843-10.605469-15.933593-10.605469-25.609375 0-31.753906 0-232.714844 0-259.570312 0-9.675782 3.765625-18.769532 10.605469-25.609375zm-340.605469-70.605469h330v23.785156c0 2.105469-.1875 4.183594-.539062 6.214844h-328.921876c-.351562-2.03125-.539062-4.109375-.539062-6.214844zm30 259.574219 31.394531-31.394531 11.304688 56.519531-42.699219-8.539063zm300 192.425781h-330v-23.785156c0-2.105469.1875-4.183594.539062-6.214844h328.921876c.351562 2.03125.539062 4.109375.539062 6.214844zm-165.273438-102.699219 56.519532 11.304688-31.390625 31.394531h-16.585938zm56.210938-190.757812-31.125 155.613281 110.1875-22.039062v63.667968c0 13.0625 3.765625 25.542969 10.769531 36.214844h-78.492187l49.820312-49.820312-155.613281-31.121094 16.191406 80.941406h-123.445312c7.003906-10.671875 10.769531-23.152344 10.769531-36.214844v-49.03125l80.941406 16.1875-31.121094-155.613281-49.820312 49.820313v-120.933594c0-13.0625-3.765625-25.542969-10.769531-36.214844h291.539062c-7.003906 10.671875-10.769531 23.152344-10.769531 36.214844v141.390625zm63.636719 106.066406-56.519531 11.300781 11.304687-56.515625zm0 0"/><path d="m76.972656 122 88.027344 132.042969 88.027344-132.042969zm56.054688 30h63.945312l-31.972656 47.957031zm0 0"/></svg>