<svg height="512pt" viewBox="0 -16 512 512" width="512pt" xmlns="http://www.w3.org/2000/svg"><path d="m188.019531 150c14.28125-15.933594 22.980469-36.96875 22.980469-60 0-49.625-40.375-90-90-90s-90 40.375-90 90h30c0-33.085938 26.914062-60 60-60s60 26.914062 60 60-26.914062 60-60 60h-121v330h512v-330zm293.980469 30v60h-152.980469c-19.617187-19.144531-45.863281-30-73.019531-30s-53.402344 10.855469-73.019531 30h-152.980469v-60zm0 90v90h-166.03125c-2.285156 1.769531-21.21875 30-59.96875 30-38.507812 0-57.742188-28.277344-59.96875-30h-166.03125v-90h166.03125c2.285156-1.769531 21.226562-30 59.96875-30 38.507812 0 57.746094 28.277344 59.96875 30zm-452 180v-60h152.980469c19.617187 19.144531 45.863281 30 73.019531 30s53.402344-10.855469 73.019531-30h152.980469v60zm0 0"/><path d="m211 300h90v30h-90zm0 0"/></svg>