<svg height="512pt" viewBox="0 0 512 512" width="512pt" xmlns="http://www.w3.org/2000/svg"><path d="m45 30h467v-30h-467c-24.859375 0-45 21.097656-45 46 0 24.863281 20.097656 46 45 46h17.6875c6.375 70.394531 57.140625 128.164062 124.011719 145.011719-3 6.027343-4.699219 12.8125-4.699219 19.988281 0 24.8125 20.1875 45 45 45v-30c-8.269531 0-15-6.730469-15-15s6.730469-15 15-15h17.53125c-1.648438 4.71875-2.53125 9.769531-2.53125 15 0 24.8125 20.1875 45 45 45v-30c-8.269531 0-15-6.730469-15-15 0-4.832031 2.261719-9.210938 5.980469-11.992188 31.171875 9.101563 54.019531 37.917969 54.019531 71.992188 0 41.355469-33.644531 75-75 75 0 0-32.132812.050781-33.1875.125l-90.355469-30.125c-5.539062 5.792969-39.566406 35.242188-39.566406 75 0 34.878906 24.246094 58.980469 39.566406 75l90.355469-30.125c1.054688.074219 2.113281.125 3.1875.125h75c115.792969 0 210-94.207031 210-210 0-115.796875-94.207031-210-210-210-8.210938 0-243.484375 0-257 0-7.988281 0-15-7.476562-15-16s7.011719-16 15-16zm78.890625 407c0-16.371094 10.878906-32.03125 18.03125-40.554688l47.5 15.835938c-4.683594 7.101562-7.421875 15.59375-7.421875 24.71875s2.738281 17.617188 7.421875 24.71875l-47.5 15.835938c-7.152344-8.523438-18.03125-24.183594-18.03125-40.554688zm103.109375 15c-8.269531 0-15-6.730469-15-15s6.730469-15 15-15h30c10.132812 0 19.933594-1.449219 29.214844-4.140625l22.660156 33.996094c-2.28125.085937-4.570312.144531-6.875.144531zm115.03125-4.492188-28.175781-42.269531c20.496093-13.253906 36.105469-33.449219 43.472656-57.234375l84.292969 37.464844c-24.957032 30.652344-59.78125 52.960938-99.589844 62.039062zm116.785156-87.226562-96.820312-43.03125c0-.082031.003906-.164062.003906-.25 0-19.597656-5.402344-37.960938-14.792969-53.675781l123.234375-54.769531c7.460938 19.742187 11.558594 41.121093 11.558594 63.445312 0 32.058594-8.433594 62.179688-23.183594 88.28125zm-1.292968-178.816406-125.523438 55.789062v-142.75c53.523438 9.019532 99.097656 41.738282 125.523438 86.960938zm-245.523438-74.464844c0 8.269531-6.730469 15-15 15s-15-6.730469-15-15 6.730469-15 15-15 15 6.730469 15 15zm-57.414062-15.011719c-1.667969 4.699219-2.585938 9.75-2.585938 15.011719 0 24.8125 20.1875 45 45 45s45-20.1875 45-45c0-5.261719-.914062-10.3125-2.582031-15.011719h62.582031v130.15625c-13.644531-6.5-28.90625-10.144531-45-10.144531h-30c-69.367188 0-126.6875-52.605469-134.171875-120.011719zm0 0"/></svg>