<svg height="512pt" viewBox="-31 0 512 512.00029" width="512pt" xmlns="http://www.w3.org/2000/svg"><path d="m298.984375 274.285156c.652344 8.867188.984375 18.191406.984375 27.714844 0 20.308594-1.480469 40.269531-4.410156 59.320312l29.652344 4.554688c3.15625-20.554688 4.757812-42.042969 4.757812-63.875 0-10.257812-.359375-20.324219-1.066406-29.921875zm0 0"/><path d="m438.761719 189.742188c-12.886719-34.703126-36.617188-56.746094-66.816407-62.074219-30.652343-5.402344-58.316406 7.886719-79.449218 30.378906-13.382813-17.382813-30.667969-30.054687-51.722656-34.421875 1.550781-10.585938 5.328124-20.457031 10.828124-29.132812 16.8125-23.871094 38.527344-34.957032 63.367188-34.957032h15v-30h-15c-19.90625 0-38.539062 5.570313-54.417969 15.230469-6.761719-25.730469-30.214843-44.765625-58.035156-44.765625-33.085937 0-60 26.914062-60 60h30c0-16.542969 13.457031-30 30-30s30 13.457031 30 30c0 5.507812-1.484375 10.78125-4.28125 15.425781-9.535156 13.945313-15.792969 30.292969-17.667969 47.933594-21.992187 4.140625-39.6875 17.234375-53.121094 34.6875-21.574218-22.960937-49.300781-35.695313-79.453124-30.378906-30.195313 5.328125-53.925782 27.371093-66.816407 62.074219-12.800781 34.46875-14.644531 80.605468-5.332031 133.425781 9.332031 52.910156 28.941406 101.632812 55.21875 137.191406 21.753906 29.441406 53.945312 57.058594 89.863281 50.726563 11.246094-1.984376 21.304688-7.78125 30.074219-17.292969 13.523438 11.957031 28.5 18.203125 43.96875 18.203125s30.445312-6.246094 43.96875-18.203125c8.773438 9.511719 18.832031 15.308593 30.078125 17.292969 35.902344 6.332031 68.097656-21.273438 89.859375-50.726563 26.277344-35.558594 45.886719-84.28125 55.21875-137.191406 9.3125-52.820313 7.46875-98.957031-5.332031-133.425781zm-24.210938 128.214843c-8.539062 48.433594-26.226562 92.675781-49.800781 124.574219-20.339844 27.523438-42.964844 42.109375-60.527344 39.011719-6.085937-1.074219-11.316406-5.523438-15.566406-10.878907 10.625-15.988281 19.699219-36.238281 26.550781-59.417968l-28.769531-8.5c-14.226562 48.144531-38.351562 79.25-61.46875 79.25-23.113281 0-47.238281-31.105469-61.464844-79.25l-28.769531 8.503906c6.847656 23.179688 15.921875 43.425781 26.546875 59.414062-4.25 5.355469-9.480469 9.804688-15.566406 10.878907-17.554688 3.09375-40.1875-11.484375-60.523438-39.007813-23.574218-31.902344-41.261718-76.144531-49.800781-124.578125-8.390625-47.570312-7.035156-88.292969 3.910156-117.765625 6.386719-17.203125 19.191407-38.621094 43.902344-42.976562 20.316406-3.585938 40.710937 6.304687 58.085937 27.953125-5.25 11.421875-9.585937 24.21875-12.960937 38.347656l29.175781 6.96875c6.1875-25.890625 16.207032-46.769531 28.980469-60.378906 11.277344-12.015625 24.226563-18.105469 38.484375-18.105469 14.261719 0 27.210938 6.089844 38.488281 18.105469 12.769531 13.609375 22.792969 34.488281 28.976563 60.378906l29.179687-6.96875c-3.375-14.128906-7.710937-26.925781-12.960937-38.347656 17.375-21.648438 37.765625-31.539063 58.085937-27.953125 24.710938 4.355468 37.511719 25.773437 43.902344 42.976562 10.945313 29.46875 12.296875 70.195313 3.910156 117.765625zm0 0"/></svg>