<svg height="512pt" viewBox="0 0 512.00038 512" width="512pt" xmlns="http://www.w3.org/2000/svg"><path d="m454.820312 141.296875c3.085938-2.59375 6.085938-5.339844 8.976563-8.234375 13.953125-13.949219 25.800781-37.382812 35.214844-69.648438 6.753906-23.148437 9.753906-42.386718 9.875-43.191406l3.113281-20.222656-20.21875 3.113281c-.808594.125-20.046875 3.121094-43.195312 9.875-32.265626 9.414063-55.699219 21.261719-69.652344 35.210938-3.410156 3.414062-6.605469 6.96875-9.582032 10.628906-5.800781-12.453125-13.597656-23.808594-22.996093-33.207031l-25.480469-25.6093752v36.2187502c0 22.507812-9.003906 35.453125-21.285156 53.371093-.878906 1.28125-1.789063 2.609376-2.707032 3.960938-.917968-.988281-1.851562-1.96875-2.8125-2.929688l-47.203124-46.828124v36.21875c0 27.691406-5.742188 55.097656-17.386719 80.132812-27.253907-12.324219-60.933594-7.648438-83.917969 15.339844l-106.082031 106.078125c-52.640625 52.640625-52.640625 138.296875 0 190.941406 52.644531 52.640625 138.300781 52.644531 190.941406 0l106.082031-106.078125c22.648438-22.648438 27.742188-56.292969 15.308594-83.902344 25.042969-11.65625 52.152344-17.503906 79.851562-17.503906h36.21875s-48.457031-48.996094-49.449218-49.914062c1.351562-.921876 2.679687-1.828126 3.964844-2.710938 17.917968-12.277344 30.761718-21.382812 53.273437-21.382812h36.214844l-31.875-31.742188c-7.328125-7.332031-15.839844-13.351562-25.191407-17.984375zm-130.589843-34.734375c7.171875-10.460938 14.128906-20.617188 19.101562-32.554688 11.910157 27.546876 10.007813 60.101563-7.359375 80.695313l-11.320312 11.316406c.167968-15.539062-3.085938-31.105469-9.757813-45.46875 3.117188-4.90625 6.261719-9.503906 9.335938-13.988281zm-49.695313 7.136719c23.964844 25.644531 26.542969 64.132812 7.75 92.550781l-28.214844-28.214844c10.09375-20.28125 16.996094-42.007812 20.464844-64.335937zm40.640625 231.523437-106.078125 106.078125c-40.941406 40.945313-107.566406 40.941407-148.511718 0-40.941407-40.945312-40.941407-107.566406 0-148.511719l106.082031-106.078124c17.585937-17.585938 46.054687-17.589844 63.644531 0l84.863281 84.863281c17.550781 17.546875 17.550781 46.101562 0 63.648437zm18.679688-87.402344-28.226563-28.226562c12.167969-8.078125 26.4375-12.421875 41.375-12.421875 19.171875 0 37.25 7.148437 51.1875 20.179687-22.328125 3.46875-44.058594 10.375-64.335937 20.46875zm71.46875-70.160156c-4.464844 3.0625-9.042969 6.195313-13.929688 9.300782-13.722656-6.410157-28.796875-9.792969-44.394531-9.792969-.359375 0-.71875.015625-1.082031.019531l10.855469-10.859375c24.554687-18 58.015624-20.714844 83.445312-8.710937-12.960938 5.011718-23.753906 12.40625-34.894531 20.042968zm11.242187-56.84375c-2.269531-.191406-4.550781-.34375-6.855468-.398437-10.644532-.261719-21.183594.933593-31.304688 3.441406 2.453125-11.210937 3.09375-23.179687 1.808594-35.546875-.035156-.320312-.085938-.636719-.121094-.957031 4.511719-9.746094 11.347656-19.339844 19.945312-27.941407 15.617188-15.617187 50.023438-26.519531 74.808594-32.363281-5.832031 24.769531-16.722656 59.140625-32.378906 74.796875-7.957031 7.960938-16.847656 14.460938-25.902344 18.96875zm0 0"/><path d="m156.847656 244.027344h27.003906v27.003906h30v-57.007812h-57.003906zm0 0"/><path d="m156.847656 328.039062h27.003906v27.003907h30v-57.007813h-57.003906zm0 0"/><path d="m240.855469 328.039062h27.003906v27.003907h30.003906v-57.007813h-57.007812zm0 0"/><path d="m71.835938 328.039062h27.003906v27.003907h30.003906v-57.007813h-57.007812zm0 0"/><path d="m156.847656 413.050781h27.003906v27h30v-57.003906h-57.003906zm0 0"/><path d="m71.835938 413.050781h27.003906v27h30.003906v-57.003906h-57.007812zm0 0"/></svg>