<svg height="511pt" viewBox="-30 1 511 511.999" width="511pt" xmlns="http://www.w3.org/2000/svg"><path d="m415.558594 185.097656 33.175781 4.710938-46.039063-69.058594c27.253907-5.648438 47.804688-29.84375 47.804688-58.75h-30c0 16.542969-13.457031 30-30 30v-17c0-41.355469-33.644531-75-75-75h-180c-41.355469 0-75 33.644531-75 75v27.457031l-58.933594 88.398438 34.015625-5.550781c2.679688-.4375 5.367188-.691407 8.046875-.796876-27.96875 38.304688-43.128906 84.445313-43.128906 132.492188 0 39.496094 10.382812 78.351562 30.027344 112.367188 19.046875 32.984374 46.367187 60.816406 79.003906 80.480468l3.570312 2.152344h224.796876l3.570312-2.152344c32.636719-19.664062 59.953125-47.496094 79.003906-80.480468 19.644532-34.015626 30.027344-72.871094 30.027344-112.367188 0-48.046875-15.171875-94.222656-43.15625-132.535156 2.734375.042968 5.476562.246094 8.214844.632812zm-325.058594-110.097656c0-24.8125 20.1875-45 45-45h180c24.8125 0 45 20.1875 45 45v17h-270zm-6.972656 47h283.945312l22.542969 33.816406c-13.148437 2.25-25.789063 7.238282-37.085937 14.769532-22.28125 14.855468-51.078126 14.855468-73.359376 0-16.195312-10.796876-34.757812-16.195313-53.320312-16.195313s-37.125 5.398437-53.320312 16.195313c-22.28125 14.855468-51.078126 14.855468-73.359376 0-11.71875-7.8125-24.816406-12.875-38.429687-15.003907zm245.949218 360h-207.953124c-52.824219-33.308594-85.8125-88.363281-90.441407-150h97.335938c7.828125 0 15.707031.355469 23.535156 1.039062 2.738281 16.125 9.203125 33.792969 18.210937 49.023438 15.230469 25.753906 34.882813 39.9375 55.335938 39.9375 26.53125 0 46.753906-23.101562 58.988281-46.535156 31.570313 10.976562 64.503907 16.523437 98.09375 16.523437h23.101563c-15.140625 36.5625-41.347656 68.03125-76.207032 90.011719zm-148.976562-165c0-3.746094.457031-8.664062 2.632812-10.824219 3.777344-3.75 15.625-4.25 27.625-4.25 5.835938 0 11.34375.125 22.792969.035157 13.980469-.109376 29.828125-.234376 34.316407 4.214843 2.175781 2.160157 2.632812 7.078125 2.632812 10.824219 0 14.121094-6.222656 34.132812-15.484375 49.789062-9.335937 15.785157-20.371094 25.210938-29.515625 25.210938s-20.179688-9.425781-29.515625-25.210938c-9.261719-15.65625-15.484375-35.667968-15.484375-49.789062zm240 0c0 15.402344-1.78125 30.472656-5.171875 45h-32.746094c-29.742187 0-58.910156-4.855469-86.902343-14.421875 3.097656-10.695313 4.820312-21.238281 4.820312-30.578125 0-13.738281-3.871094-24.546875-11.503906-32.117188-9.925782-9.851562-23.832032-12.289062-39.253906-12.824218l19.171874-38.351563-26.832031-13.417969-16.582031 33.171876-16.582031-33.167969-26.835938 13.417969 19.175781 38.347656c-15.421874.535156-29.328124 2.972656-39.253906 12.824218-4.804687 4.765626-8.113281 10.8125-9.910156 18.0625-7.882812-.625-15.800781-.945312-23.675781-.945312h-97.335938c3.101563-40.664062 18.78125-79.113281 45.082031-110.386719 2.316407 1.175781 4.578126 2.476563 6.765626 3.9375 32.390624 21.59375 74.25 21.59375 106.640624 0 22.28125-14.855469 51.078126-14.855469 73.359376 0 32.390624 21.589844 74.25 21.59375 106.640624 0 1.855469-1.238281 3.765626-2.363281 5.714844-3.398437 29.226563 35.007812 45.214844 78.9375 45.214844 124.847656zm0 0"/></svg>