<svg height="512pt" viewBox="-91 0 512 512" width="512pt" xmlns="http://www.w3.org/2000/svg"><path d="m310.605469 222.605469c12.507812-12.507813 19.394531-29.132813 19.394531-46.820313v-53.785156h-30v-122h-30v122h-30v-122h-30v122h-30v-122h-30v122h-30v-122h-30v122h-30v-122h-30v122h-30v53.785156c0 17.683594 6.886719 34.3125 19.394531 46.820313 6.839844 6.839843 10.605469 15.933593 10.605469 25.609375v137.570312c0 9.675782-3.765625 18.769532-10.605469 25.609375-12.507812 12.503907-19.394531 29.132813-19.394531 46.820313v53.785156h330v-53.785156c0-17.6875-6.886719-34.316406-19.394531-46.820313-6.839844-6.839843-10.605469-15.933593-10.605469-25.605469v-137.574218c0-9.675782 3.765625-18.769532 10.605469-25.609375zm-10.605469 259.394531h-270v-23.785156c0-2.105469.1875-4.183594.539062-6.214844h59.460938v-30h-40.769531c7.003906-10.675781 10.769531-23.152344 10.769531-36.214844v-137.570312c0-13.0625-3.765625-25.542969-10.769531-36.214844h40.769531v-30h-59.460938c-.351562-2.03125-.539062-4.109375-.539062-6.214844v-23.785156h270v23.785156c0 2.105469-.1875 4.183594-.539062 6.214844h-59.460938v30h40.769531c-7.003906 10.671875-10.769531 23.152344-10.769531 36.214844v137.570312c0 13.0625 3.765625 25.539063 10.769531 36.214844h-40.769531v30h59.460938c.351562 2.03125.539062 4.109375.539062 6.214844zm0 0"/><path d="m120 422h90v30h-90zm0 0"/><path d="m120 182h90v30h-90zm0 0"/><path d="m240 242h-150v150h150zm-120 30h30v90h-30zm90 90h-30v-90h30zm0 0"/></svg>