<svg height="512pt" viewBox="0 0 512 512" width="512pt" xmlns="http://www.w3.org/2000/svg"><path d="m452 242v30h30v90h-30v-60h-62c0-13.296875 0-287.636719 0-302h-390v512h390c0-35.25 0-140.132812 0-180h32v60h90v-150zm-422-212h330v242h-30v-50.148438c0-58.289062-23.085938-114.148437-64.394531-155.457031l-10.605469-10.609375-10.605469 10.609375c-21.054687 21.050781-37.957031 46.332031-49.394531 75.664063-10.839844-27.796875-27.179688-53.449219-49.394531-75.664063l-10.605469-10.609375-10.605469 10.609375c-41.214843 41.214844-64.394531 97.039063-64.394531 155.457031v50.148438h-30zm180 201.863281c13.953125 6.617188 29.300781 10.136719 45 10.136719s31.046875-3.519531 45-10.136719v40.136719h-90zm45-19.863281c-15.683594 0-30.875-4.910156-43.523438-13.929688 4.542969-36.582031 19.535157-70.75 43.523438-98.964843 23.988281 28.214843 38.980469 62.386719 43.523438 98.964843-12.648438 9.019532-27.839844 13.929688-43.523438 13.929688zm-165 19.863281c13.953125 6.617188 29.300781 10.136719 45 10.136719s31.046875-3.519531 45-10.136719v40.136719h-90zm1.476562-33.792969c4.542969-36.578124 19.535157-70.75 43.523438-98.964843 23.988281 28.214843 38.980469 62.386719 43.523438 98.964843-12.648438 9.019532-27.839844 13.929688-43.523438 13.929688s-30.875-4.910156-43.523438-13.929688zm268.523438 103.929688v30h-330v-30zm-330 150h60v30h-60zm240 0v30h-60v-30zm-90 30h-60v-30h60zm120 0v-30h60v30zm60-60h-330v-60h330zm0 0"/><path d="m120 152h30v30h-30zm0 0"/><path d="m240 152h30v30h-30zm0 0"/></svg>