<svg height="511pt" viewBox="0 0 511.99986 511" width="511pt" xmlns="http://www.w3.org/2000/svg"><path d="m472.960938 367.96875c-46.035157-23.101562-76.691407-57.667969-86.320313-97.328125-20.589844-84.808594-96.398437-150.144531-190.625-150.144531-47.6875 0-93.757813 17.535156-129.722656 49.371094-2.363281 2.097656-4.671875 4.246093-6.921875 6.4375-15.898438-14.175782-26.28125-34.265626-28.761719-55.808594h44.410156c57.894531 0 104.996094-47.101563 104.996094-104.996094v-15h-74.996094c-57.894531 0-104.9960935 47.101562-104.9960935 104.996094v4.988281c.0273437.101563-2.5781255 50.777344 39.4765625 88.277344-19.902344 26.238281-32.910156 56.957031-37.46875 89.316406-16.949219 120.261719 75.78125 224.398437 193.984375 224.398437h238.324219c42.261718 0 77.09375-34.183593 77.652344-76.195312.417968-31.667969-13.078126-55.289062-39.03125-68.3125zm-367.941407-337.480469h43.492188c-6.96875 34.191407-37.273438 60.007813-73.492188 60.007813h-43.488281c6.96875-34.1875 37.273438-60.007813 73.488281-60.007813zm329.320313 451.988281h-238.324219c-97.949219 0-178.96875-85.984374-164.28125-190.210937 11.390625-80.824219 82.015625-141.773437 164.28125-141.773437 76.886719 0 143.285156 52.320312 161.472656 127.226562 11.742188 48.367188 47.972657 89.941406 102.015625 117.0625 15.613282 7.832031 22.757813 20.894531 22.492188 41.101562-.339844 25.691407-21.71875 46.59375-47.65625 46.59375zm0 0"/><path d="m91.019531 271.488281h30v30h-30zm0 0"/><path d="m61.023438 331.484375h29.996093v30h-29.996093zm0 0"/><path d="m121.019531 331.484375h29.996094v30h-29.996094zm0 0"/></svg>