<svg height="512pt" viewBox="0 0 512 512" width="512pt" xmlns="http://www.w3.org/2000/svg"><path d="m407.074219 146.25c12.15625 8.070312 26.414062 12.40625 41.339843 12.40625 20.015626 0 38.832032-7.796875 52.988282-21.949219l10.597656-10.597656-74.183594-74.1875c-14.15625-14.152344-32.972656-21.945313-52.988281-21.945313-16.28125 0-31.769531 5.15625-44.597656 14.695313-19.617188-27.941406-50.511719-44.671875-84.230469-44.671875s-64.613281 16.730469-84.230469 44.671875c-12.828125-9.539063-28.316406-14.699219-44.597656-14.699219-20.015625 0-38.835937 7.796875-52.988281 21.949219l-74.183594 74.1875 10.597656 10.597656c14.152344 14.152344 32.972656 21.949219 52.988282 21.949219 14.925781 0 29.183593-4.332031 41.339843-12.40625l1.050781 1.054688c8.3125 8.3125 18.644532 13.871093 29.882813 16.242187-3.484375 5.957031-7.535156 11.753906-12.140625 17.347656-10.558594 12.828125-18.679688 26.917969-24.199219 41.9375-26.351562 20.40625-38.359375 57.972657-38.359375 91.90625 0 15.488281 2.335938 30.375 6.945313 44.242188 15.929687 47.9375 23.03125 84.894531 23.03125 119.828125v32.765625h89.925781v-32.765625c0-19.195313 2.148438-39.003906 6.722656-60.90625 9.425782 10.753906 17.023438 21.949218 22.683594 33.46875 9.074219 18.464844 24.820312 28.226562 45.53125 28.226562s36.457031-9.761718 45.53125-28.226562c5.660156-11.519532 13.257812-22.714844 22.679688-33.46875 4.574218 21.902344 6.726562 41.710937 6.726562 60.90625v32.761718h89.925781v-32.761718c0-34.933594 7.101563-71.890625 23.03125-119.828125 4.605469-13.867188 6.941407-28.753907 6.941407-44.246094 0-34.125-12.121094-71.585937-38.355469-91.90625-5.523438-15.015625-13.640625-29.105469-24.199219-41.933594-4.605469-5.59375-8.65625-11.390625-12.140625-17.347656 11.238281-2.375 21.566406-7.933594 29.878906-16.246094zm-301.097657-41.335938-10.597656 10.597657c-13.816406 13.816406-34.460937 16.742187-51.171875 8.78125l51.171875-51.175781c17.570313-17.570313 46.015625-17.574219 63.585938 0l10.601562 10.601562c11.683594 11.6875 11.683594 30.703125 0 42.390625-11.71875 11.714844-30.675781 11.714844-42.390625 0zm45.109376 376.683594h-29.972657v-2.785156c0-49.074219-13.125-94.867188-24.5625-129.28125-3.59375-10.816406-5.414062-22.519531-5.414062-34.792969 0-40.621093 20.589843-74.9375 44.960937-74.9375 24.375 0 44.964844 34.316407 44.964844 74.9375 0 12.269531-1.820312 23.976563-5.414062 34.792969-11.433594 34.414062-24.5625 80.207031-24.5625 129.28125zm123.542968-43.445312c-4.003906 8.148437-9.402344 11.472656-18.628906 11.472656s-14.625-3.324219-18.632812-11.472656c-9.464844-19.261719-23.230469-37.5625-40.964844-54.511719 2.292968-7.90625 4.847656-16.105469 7.691406-24.660156 4.605469-13.867188 6.941406-28.753907 6.941406-44.242188 0-47.804687-25.316406-102.066406-71.5625-104.804687 2.269532-3.417969 4.726563-6.753906 7.390625-9.988282 10.148438-12.332031 18.164063-25.558593 23.898438-39.402343 7.398437-2.976563 14.191406-7.433594 19.996093-13.238281 22.324219-22.324219 23.3125-58.003907 3-81.53125 13.875-22.289063 36.996094-35.796876 62.242188-35.796876s48.363281 13.507813 62.242188 35.796876c-20.3125 23.527343-19.324219 59.207031 2.996093 81.53125 5.808594 5.804687 12.601563 10.265624 19.996094 13.238281 5.738281 13.84375 13.753906 27.070312 23.902344 39.402343 2.660156 3.234376 5.121093 6.570313 7.386719 9.988282-46.460938 2.753906-71.5625 57.347656-71.5625 104.804687 0 15.488281 2.335937 30.375 6.945312 44.242188 2.84375 8.554687 5.398438 16.753906 7.6875 24.660156-17.734375 16.949219-31.496094 35.25-40.964844 54.511719zm146.234375-123.414063c0 12.273438-1.824219 23.976563-5.414062 34.792969-11.4375 34.414062-24.5625 80.210938-24.5625 129.28125v2.785156h-29.976563v-2.785156c0-49.074219-13.125-94.867188-24.558594-129.28125-3.59375-10.816406-5.414062-22.523438-5.414062-34.792969 0-40.621093 20.589844-74.9375 44.960938-74.9375 24.375 0 44.964843 34.316407 44.964843 74.9375zm-78.425781-188.628906c-11.6875-11.6875-11.6875-30.703125 0-42.390625l10.597656-10.597656c17.570313-17.570313 46.011719-17.574219 63.585938 0l51.171875 51.171875c-16.710938 7.960937-37.355469 5.035156-51.171875-8.78125l-10.597656-10.597657-21.195313 21.195313c-11.714844 11.710937-30.675781 11.714844-42.390625 0zm0 0"/></svg>