<svg height="512pt" viewBox="0 0 512 512" width="512pt" xmlns="http://www.w3.org/2000/svg"><path d="m511.996094 191.667969-92.863282-92.769531-32.25-98.898438h-261.773437l-32.261719 98.933594-92.847656 92.851562 21.214844 21.210938 69.78125-69.78125v368.785156h330v-368.832031l69.800781 69.722656zm-146.886719-161.667969 20.214844 62h-258.65625l20.214843-62zm25.886719 91.988281v300.011719h-270v-300.011719zm-270 360.011719v-30h270v30zm0 0"/><path d="m162.359375 245.023438 20.171875 75.3125c2.035156 7.597656 6.0625 14.5625 11.644531 20.144531 12.796875 12.796875 31.183594 16.140625 46.820313 10.628906v40.890625h30v-40.894531c15.582031 5.496093 33.960937 2.234375 46.820312-10.625 5.578125-5.582031 9.605469-12.546875 11.644532-20.148438l20.171874-75.308593-48.664062 13.035156c.007812-.351563.027344-.703125.027344-1.058594 0-7.894531-2.082032-15.667969-6.015625-22.480469l-38.984375-67.515625-38.988282 67.515625c-3.933593 6.8125-6.011718 14.585938-6.011718 22.480469 0 .355469.019531.707031.027344 1.058594zm74.242187 74.246093c-8.234374 8.234375-22.148437 4.28125-25.09375-6.699219l-6.730468-25.125 25.125 6.730469c2.28125.609375 1.417968.710938 5.53125 2.832031 7.042968 5.742188 7.34375 16.085938 1.167968 22.261719zm63.882813-6.703125c-.6875 2.554688-1.992187 4.8125-3.882813 6.699219-5.859374 5.863281-15.347656 5.863281-21.210937 0s-5.863281-15.351563 0-21.210937c1.261719-1.265626 4.957031-3.414063 6.695313-3.882813l25.125-6.726563zm-57.496094-63.046875 13.007813-22.523437 13.007812 22.523437c1.320313 2.292969 1.992188 4.808594 1.992188 7.480469 0 8.382812-6.878906 15-15 15-8.210938 0-15-6.691406-15-15 0-2.671875.667968-5.191406 1.992187-7.480469zm0 0"/></svg>