<svg height="512pt" viewBox="0 -31 512 512" width="512pt" xmlns="http://www.w3.org/2000/svg"><path d="m181 180c-33.085938 0-60-26.914062-60-60s26.914062-60 60-60 60 26.914062 60 60-26.914062 60-60 60zm0-90c-16.542969 0-30 13.457031-30 30s13.457031 30 30 30 30-13.457031 30-30-13.457031-30-30-30zm0 0"/><path d="m376 150c-24.8125 0-45-20.1875-45-45s20.1875-45 45-45 45 20.1875 45 45-20.1875 45-45 45zm0-60c-8.269531 0-15 6.730469-15 15s6.730469 15 15 15 15-6.730469 15-15-6.730469-15-15-15zm0 0"/><path d="m226 360c-24.8125 0-45-20.1875-45-45s20.1875-45 45-45 45 20.1875 45 45-20.1875 45-45 45zm0-60c-8.269531 0-15 6.730469-15 15s6.730469 15 15 15 15-6.730469 15-15-6.730469-15-15-15zm0 0"/><path d="m512 450h-91v-15c0-24.8125-20.1875-45-45-45s-45 20.1875-45 45v15h-180v-15c0-8.269531-6.730469-15-15-15s-15 6.730469-15 15v15h-121v-180h15c24.8125 0 45-20.1875 45-45s-20.1875-45-45-45h-15v-180h512v210h-15c-8.269531 0-15 6.730469-15 15 0 8.273438 6.730469 15.003906 15 15.003906h15zm-62.507812-30h32.507812v-152.566406c-17.460938-6.191406-30-22.875-30-42.433594 0-19.554688 12.539062-36.238281 30-42.429688v-152.570312h-452v121.507812c34.191406 6.96875 60 37.273438 60 73.492188s-25.808594 66.523438-60 73.492188v121.507812h63.570312c6.191407-17.460938 22.871094-30 42.429688-30s36.238281 12.539062 42.429688 30h124.078124c6.96875-34.191406 37.273438-60 73.492188-60s66.523438 25.808594 73.492188 60zm0 0"/><path d="m391 270h30v30h-30zm0 0"/><path d="m271 180h30v30h-30zm0 0"/><path d="m91 300h30v30h-30zm0 0"/></svg>