<svg height="512pt" viewBox="0 -30 512 512" width="512pt" xmlns="http://www.w3.org/2000/svg"><path d="m512 210.824219c0-33.214844-27.023438-60.234375-60.234375-60.234375-10.617187 0-20.980469 2.863281-30.117187 8.214844-1.035157-.605469-2.089844-1.175782-3.15625-1.71875 2.078124-6.957032 3.15625-14.21875 3.15625-21.554688 0-39.992188-31.335938-72.800781-70.742188-75.160156-17.289062-36.527344-54.132812-60.371094-94.90625-60.371094s-77.617188 23.84375-94.90625 60.371094c-39.40625 2.359375-70.742188 35.167968-70.742188 75.160156 0 7.335938 1.078126 14.597656 3.15625 21.554688-1.066406.542968-2.121093 1.113281-3.15625 1.71875-9.136718-5.351563-19.5-8.214844-30.117187-8.214844-33.210937 0-60.234375 27.019531-60.234375 60.234375 0 21.953125 12.074219 41.796875 30.65625 52.28125-.359375 2.636719-.539062 5.289062-.539062 7.953125 0 33.214844 27.023437 60.234375 60.234374 60.234375 21.960938 0 41.207032-11.816407 51.730469-29.417969 14.875 2.226562 28.441407 9.839844 38.144531 21.671875 11.652344 14.214844 16.273438 32.710937 12.664063 50.734375l-15.496094 77.484375h157.210938l-15.496094-77.480469c-3.609375-18.027344 1.011719-36.519531 12.664063-50.738281 9.703124-11.832031 23.269531-19.445313 38.144531-21.671875 10.523437 17.601562 29.769531 29.417969 51.730469 29.417969 33.210937 0 60.234374-27.019531 60.234374-60.234375 0-2.664063-.179687-5.316406-.539062-7.953125 18.582031-10.484375 30.65625-30.328125 30.65625-52.28125zm-346.382812-120.472657c1.292968.042969-5.359376-.539062 15.75 1.535157l3.867187-11.097657c10.558594-30.308593 38.996094-50.671874 70.765625-50.671874s60.207031 20.363281 70.765625 50.671874l3.867187 11.097657c21.441407-2.136719 14.214844-1.480469 15.71875-1.535157 24.910157 0 45.179688 20.265626 45.179688 45.179688 0 5.183594-.898438 10.296875-2.609375 15.125-32.007813 1.371094-57.628906 27.828125-57.628906 60.167969 0 2.089843.113281 4.164062.328125 6.210937-10.496094 2.964844-20.714844 6.957032-30.445313 11.933594v-33.246094c18.277344-13.75 30.117188-35.613281 30.117188-60.191406h-30.117188c0 24.910156-20.265625 45.175781-45.175781 45.175781s-45.175781-20.265625-45.175781-45.175781h-30.117188c0 24.578125 11.839844 46.441406 30.117188 60.191406v33.246094c-9.730469-4.976562-19.949219-8.96875-30.445313-11.933594.214844-2.046875.328125-4.121094.328125-6.210937 0-32.339844-25.621093-58.796875-57.628906-60.167969-1.710937-4.828125-2.609375-9.941406-2.609375-15.125 0-24.914062 20.269531-45.179688 45.148438-45.179688zm-37.324219 149.371094-16.355469 4.425782 6.3125 15.722656c1.472656 3.671875 2.21875 7.433594 2.21875 11.1875 0 16.605468-13.507812 30.117187-30.117188 30.117187-16.605468 0-30.117187-13.511719-30.117187-30.117187 0-3.753906.746094-7.515625 2.222656-11.1875l6.3125-15.722656-16.355469-4.425782c-13.128906-3.550781-22.296874-15.433594-22.296874-28.898437 0-16.609375 13.511718-30.117188 30.117187-30.117188 9.359375 0 16.0625 4.269531 20.039063 7.851563l10.078124 9.082031 10.078126-9.082031c3.980468-3.582032 10.683593-7.851563 20.039062-7.851563 16.609375 0 30.121094 13.507813 30.121094 30.117188 0 13.464843-9.171875 25.347656-22.296875 28.898437zm180.191406 64.730469c-17.398437 21.222656-24.292969 48.828125-18.910156 75.738281l8.292969 41.457032h-83.734376l8.292969-41.457032c5.382813-26.910156-1.511719-54.515625-18.910156-75.738281-13.613281-16.609375-32.324219-27.671875-52.96875-31.699219.015625-.5625.042969-1.125.042969-1.695312 0-2.664063-.183594-5.316406-.542969-7.949219 7.859375-4.4375 14.550781-10.550781 19.660156-17.785156 16.9375 4.4375 33.0625 12.203125 47.121094 22.78125l24.113281 18.136719v-76.933594c4.867188.992187 9.902344 1.515625 15.058594 1.515625s10.191406-.523438 15.058594-1.515625v76.933594l24.113281-18.140626c14.058594-10.574218 30.183594-18.339843 47.121094-22.777343 5.109375 7.234375 11.800781 13.347656 19.660156 17.78125-.359375 2.636719-.542969 5.289062-.542969 7.953125 0 .570312.027344 1.128906.042969 1.695312-20.644531 4.027344-39.355469 15.089844-52.96875 31.699219zm151.101563-64.730469-16.355469 4.425782 6.3125 15.722656c1.476562 3.671875 2.222656 7.433594 2.222656 11.1875 0 16.605468-13.511719 30.117187-30.117187 30.117187-16.609376 0-30.117188-13.511719-30.117188-30.117187 0-3.753906.746094-7.515625 2.21875-11.1875l6.3125-15.722656-16.355469-4.425782c-13.125-3.550781-22.296875-15.433594-22.296875-28.898437 0-16.609375 13.511719-30.117188 30.121094-30.117188 9.355469 0 16.058594 4.269531 20.035156 7.851563l10.078125 9.082031 10.082031-9.082031c3.976563-3.582032 10.683594-7.851563 20.039063-7.851563 16.605469 0 30.117187 13.507813 30.117187 30.117188 0 13.464843-9.167968 25.347656-22.296874 28.898437zm0 0"/></svg>