<svg height="511pt" viewBox="-10 0 511 511.99953" width="511pt" xmlns="http://www.w3.org/2000/svg"><path d="m112.683594 293.964844c-35.292969 35.292968-54.941406 93.550781-21.214844 127.277344 33.703125 33.699218 91.945312 14.121093 127.277344-21.214844 35.296875-35.292969 54.941406-93.550782 21.214844-127.277344-33.808594-33.808594-92.117188-13.953125-127.277344 21.214844zm84.851562 84.847656c-28.75 28.75-67.605468 38.460938-84.855468 21.214844-17.246094-17.25-7.53125-56.105469 21.214843-84.851563 29.183594-29.183593 67.976563-38.085937 84.851563-21.210937 21.035156 21.027344.113281 63.527344-21.210938 84.847656zm0 0"/><path d="m416.039062 101.753906c5.597657-24.363281-1.058593-50.996094-20-69.9375l-31.820312-31.816406-31.816406 31.820312c-20.574219 20.570313-26.652344 50.214844-18.277344 76.167969-58.609375-7.472656-89.617188 32.554688-91.890625 33.996094-20.589844 20.589844-54.871094 38.386719-81.507813 42.316406-45.421874 6.695313-84.992187 31.46875-111.425781 69.753907-37.441406 54.230468-38.46875 127.429687-2.554687 182.148437 58.882812 89.722656 182.144531 100.957031 255.640625 27.460937 25.261719-25.261718 41.238281-57.394531 46.203125-92.929687 3.585937-25.679687 21.277344-59.402344 42.0625-80.183594l.574218-.578125c37.429688-37.429687 45.074219-98.09375 13.4375-140.714844l.769532-.769531c23.394531-23.394531 61.457031-23.394531 84.851562 0l21.214844-21.214843c-20.554688-20.546876-48.652344-29.042969-75.460938-25.519532zm-62.425781-48.722656 10.605469-10.605469 10.605469 10.605469c17.546875 17.546875 17.546875 46.09375 0 63.640625l-10.605469 10.605469-10.605469-10.605469c-17.546875-17.546875-17.546875-46.09375 0-63.640625zm-3.601562 215.730469-.574219.578125c-25.304688 25.304687-46.097656 65.292968-50.558594 97.246094-4.054687 29.019531-17.09375 55.257812-37.707031 75.867187-60.054687 60.054687-160.890625 51.121094-209.347656-22.710937-29.28125-44.617188-28.414063-104.351563 2.164062-148.640626 21.65625-31.367187 54.011719-51.652343 91.113281-57.121093 32.847657-4.84375 73.289063-25.726563 98.347657-50.785157.101562-.039062 59.921875-60.046874 112.957031-1.15625 26.210938 29.109376 23.34375 76.984376-6.394531 106.722657zm0 0"/></svg>