<svg height="512pt" viewBox="-51 0 511 512" width="512pt" xmlns="http://www.w3.org/2000/svg"><path d="m400.886719 242.820312-30.546875-139.441406v-103.378906h-330v103.375l-30.539063 139.402344c-19.511719 87.808594-8.101562 180.476562 32.125 260.929687l4.144531 8.292969h318.542969l4.144531-8.292969c40.226563-80.453125 51.632813-173.121093 32.128907-260.886719zm-150.546875-212.820312h90v60h-90zm-60 0h30v98.785156l-15-15-15 15zm-120 0h90v60h-90zm275.597656 452h-281.195312c-33.882813-72.347656-43.011719-154.613281-25.644532-232.757812l28.3125-129.242188h92.929688v81.214844l45-45 45 45v-81.214844h92.929687l28.324219 129.285156c17.355469 78.105469 8.226562 160.367188-25.65625 232.714844zm0 0"/><path d="m267.730469 282.113281c-41.207031-41.210937-108.882813-60.824219-148.492188-21.214843-39.804687 39.804687-19.707031 107.570312 21.214844 148.492187 43.613281 43.617187 110.65625 59.050781 148.492187 21.214844 39.796876-39.796875 19.714844-107.5625-21.214843-148.492188zm-106.066407 106.066407c-25.5625-25.5625-35.183593-55-33.667968-76.597657 20.832031 18.96875 44.113281 34.949219 69.386718 47.585938 25.980469 12.988281 49.625 29.894531 70.328126 50.238281-27.378907 27.351562-78.398438 6.417969-106.046876-21.226562zm118.523438-8.257813c-20.835938-18.96875-44.113281-34.949219-69.386719-47.585937-25.980469-12.992188-49.625-29.894532-70.332031-50.242188 27.386719-27.347656 78.402344-6.417969 106.050781 21.230469 25.558594 25.5625 35.183594 54.996093 33.667969 76.597656zm0 0"/></svg>