<svg height="512pt" viewBox="0 0 512 512" width="512pt" xmlns="http://www.w3.org/2000/svg"><path d="m512 93.074219-93.070312-93.074219-32.554688 65.105469c-36.679688-14.035157-80.972656-7-111.828125 23.855469l-185.585937 185.585937c-30.8125 30.8125-37.902344 75.121094-23.855469 111.828125l-65.105469 32.554688 93.070312 93.070312 32.554688-65.105469c36.679688 14.035157 80.972656 7 111.828125-23.855469l185.585937-185.582031c30.8125-30.816406 37.902344-75.117187 23.855469-111.832031zm-84.851562-42.429688 34.207031 34.207031-29.144531 14.574219c-2.804688-3.65625-5.859376-7.152343-9.171876-10.464843s-6.808593-6.367188-10.464843-9.171876zm-342.296876 410.710938-34.207031-34.207031 29.144531-14.574219c2.804688 3.652343 5.859376 7.152343 9.171876 10.460937 3.3125 3.3125 6.808593 6.371094 10.464843 9.175782zm316.972657-245.113281-185.582031 185.582031c-19.574219 19.574219-46.9375 25.898437-71.566407 19.667969 13.238281-7.089844 27.0625-17.59375 39.746094-30.273438l-21.214844-21.214844c-24.894531 24.898438-46.5625 32.292969-52.765625 31.554688-.738281-6.203125 6.65625-27.871094 31.554688-52.765625l-21.214844-21.214844c-12.679688 12.679687-23.179688 26.507813-30.273438 39.746094-6.226562-24.613281.078126-51.976563 19.667969-71.566407l185.582031-185.582031c19.578126-19.574219 46.933594-25.898437 71.566407-19.667969-13.238281 7.09375-27.066407 17.59375-39.746094 30.273438l21.210937 21.214844c24.894532-24.894532 46.554688-32.292969 52.769532-31.554688.738281 6.203125-6.65625 27.871094-31.554688 52.769532l21.214844 21.210937c12.679688-12.679687 23.179688-26.507813 30.273438-39.742187 6.226562 24.605468-.074219 51.96875-19.667969 71.5625zm0 0"/></svg>