<svg height="512pt" viewBox="0 0 512 512" width="512pt" xmlns="http://www.w3.org/2000/svg"><path d="m104.226562 98.984375 41.378907-41.378906-21.210938-21.210938-34.394531 34.390625v-70.785156h-30v70.785156l-34.394531-34.390625-21.210938 21.210938 41.378907 41.378906c-41.683594 22.585937-45.773438 94.890625-45.773438 143.015625 0 54.339844 6.863281 119.882812 17.910156 171.050781 7.21875 33.433594 22.898438 98.949219 57.089844 98.949219 34.183594 0 49.863281-65.484375 57.089844-98.949219 11.046875-51.167969 17.910156-116.710937 17.910156-171.050781 0-47.945312-4.082031-120.425781-45.773438-143.015625zm.183594 299.851563c-11.667968 57.859374-24.246094 78.292968-29.410156 82.605468-5.164062-4.3125-17.742188-24.746094-29.410156-82.605468-.453125-2.257813-.898438-4.539063-1.332032-6.835938h45.742188v-30h-50.800781c-5.855469-39.558594-9.199219-82.3125-9.199219-120 0-10.976562.285156-20.9375.808594-30h59.191406v-30h-56.167969c9.179688-59.988281 32.335938-60 41.167969-60 11.128906 0 45 0 45 120 0 9.710938-.226562 19.757812-.652344 30h-59.347656v30h57.539062c-2.582031 33.183594-7.105468 66.953125-13.128906 96.835938zm0 0"/><path d="m285.226562 98.984375 41.378907-41.378906-21.210938-21.210938-34.394531 34.390625v-70.785156h-30v70.785156l-34.394531-34.390625-21.210938 21.210938 41.378907 41.378906c-41.683594 22.585937-45.773438 94.890625-45.773438 143.015625 0 54.339844 6.863281 119.882812 17.910156 171.050781 7.21875 33.433594 22.898438 98.949219 57.089844 98.949219 34.183594 0 49.863281-65.484375 57.089844-98.949219 11.046875-51.167969 17.910156-116.710937 17.910156-171.050781 0-47.945312-4.082031-120.425781-45.773438-143.015625zm.183594 299.851563c-11.667968 57.859374-24.246094 78.292968-29.410156 82.605468-5.164062-4.3125-17.742188-24.746094-29.410156-82.605468-.453125-2.257813-.898438-4.539063-1.332032-6.835938h45.742188v-30h-50.800781c-5.855469-39.558594-9.199219-82.3125-9.199219-120 0-10.976562.285156-20.9375.808594-30h59.191406v-30h-56.167969c9.179688-59.988281 32.335938-60 41.167969-60 11.128906 0 45 0 45 120 0 9.710938-.226562 19.757812-.652344 30h-59.347656v30h57.539062c-2.582031 33.183594-7.105468 66.953125-13.128906 96.835938zm0 0"/><path d="m466.226562 98.984375 41.378907-41.378906-21.210938-21.210938-34.394531 34.390625v-70.785156h-30v70.785156l-34.394531-34.390625-21.210938 21.210938 41.378907 41.378906c-41.683594 22.585937-45.773438 94.890625-45.773438 143.015625 0 54.339844 6.863281 119.882812 17.910156 171.050781 7.21875 33.433594 22.898438 98.949219 57.089844 98.949219 34.183594 0 49.863281-65.484375 57.089844-98.949219 11.046875-51.167969 17.910156-116.710937 17.910156-171.050781 0-47.945312-4.082031-120.425781-45.773438-143.015625zm.183594 299.851563c-11.667968 57.859374-24.246094 78.292968-29.410156 82.605468-5.164062-4.3125-17.742188-24.746094-29.410156-82.605468-.453125-2.257813-.898438-4.539063-1.332032-6.835938h45.742188v-30h-50.800781c-5.855469-39.558594-9.199219-82.3125-9.199219-120 0-10.976562.285156-20.9375.808594-30h59.191406v-30h-56.167969c9.179688-59.988281 32.335938-60 41.167969-60 11.128906 0 45 0 45 120 0 9.710938-.226562 19.757812-.652344 30h-59.347656v30h57.539062c-2.582031 33.183594-7.105468 66.953125-13.128906 96.835938zm0 0"/></svg>