<svg height="512pt" viewBox="0 0 512 512.001" width="512pt" xmlns="http://www.w3.org/2000/svg"><path d="m462.140625 183.488281c11.773437-33.121093 6.203125-69.976562-14.554687-97.863281l64.414062-64.410156-21.214844-21.214844-64.410156 64.410156c-27.882812-20.753906-64.742188-26.328125-97.863281-14.554687l-49.855469-49.855469-278.65625 278.65625 49.855469 49.855469c-13.453125 37.859375-4.25 80.601562 24.390625 109.242187s71.386718 37.84375 109.242187 24.390625l49.855469 49.855469c16.265625-16.261719 261.46875-261.46875 278.65625-278.65625zm-207.582031 264.871094-21.214844 21.214844-43.203125-43.203125-9.558594 4.546875c-28.679687 13.632812-62.890625 7.855469-85.121093-14.378907-22.238282-22.234374-28.011719-56.441406-14.378907-85.121093l4.546875-9.5625-43.203125-43.199219 21.214844-21.214844 21.210937 21.214844 21.214844-21.214844-21.214844-21.210937 151.375-151.378907 21.214844 21.214844 21.214844-21.214844-21.214844-21.210937 21.214844-21.214844 43.203125 43.203125 9.558594-4.546875c24.023437-11.421875 51.921875-9.214843 73.417969 4.871094l-41.328126 41.328125 21.214844 21.210938 41.324219-41.328126c14.085937 21.496094 16.292969 49.394532 4.871094 73.417969l-4.546875 9.5625 43.203125 43.203125-21.214844 21.210938-21.210937-21.210938-21.214844 21.210938 21.214844 21.214844-151.378907 151.375-21.210937-21.214844-21.214844 21.214844zm0 0"/><path d="m170.003906 242h169.996094v30h-169.996094zm0 0"/><path d="m275.769531 215.015625c11.695313-11.695313 11.699219-30.730469 0-42.425781-11.695312-11.695313-30.726562-11.695313-42.425781 0-11.695312 11.695312-11.695312 30.730468 0 42.425781 11.699219 11.695313 30.730469 11.695313 42.425781 0zm0 0"/><path d="m275.769531 342.296875c11.695313-11.699219 11.699219-30.730469 0-42.429687-11.695312-11.695313-30.726562-11.695313-42.425781 0-11.695312 11.699218-11.695312 30.730468 0 42.425781 11.699219 11.699219 30.730469 11.699219 42.425781.003906zm0 0"/><path d="m299.867188 106.0625 42.425781 42.425781-21.210938 21.214844-42.425781-42.425781zm0 0"/><path d="m405.9375 212.128906-21.214844 21.214844-42.425781-42.425781 21.214844-21.214844zm0 0"/><path d="m106.0625 299.867188 21.214844-21.210938 42.425781 42.421875-21.214844 21.214844zm0 0"/><path d="m212.132812 405.9375-42.425781-42.425781 21.210938-21.210938 42.425781 42.425781zm0 0"/></svg>