<svg height="512pt" viewBox="0 0 512 512.001" width="512pt" xmlns="http://www.w3.org/2000/svg"><path d="m491.070312 169.585938c-32.191406-21.460938-75.449218-21.460938-107.640624 0-11.929688 7.949218-25.960938 11.726562-40.007813 11.015624 3.8125-23.464843-1.15625-47.996093-14.941406-68.671874-14.824219-22.238282-14.824219-52.121094 0-74.359376 8.109375-12.164062 10.199219-20.753906 17.453125-37.570312h-152.421875c-3.054688 6.992188-4.664063 12.9375-9.992188 20.929688-21.460937 32.191406-21.460937 75.449218 0 107.640624 9.292969 13.9375 12.773438 30.421876 10.441407 46.269532-20.707032 9.402344-44.652344 7.570312-63.890626-5.253906-32.191406-21.460938-75.449218-21.460938-107.640624 0-8.765626 5.84375-15.285157 7.386718-22.429688 10.371093v152.164063c16.246094-6.6875 25.886719-8.78125 39.070312-17.574219 22.238282-14.824219 52.121094-14.824219 74.359376 0 23.183593 15.453125 52.183593 19.902344 78.710937 12.707031 5.195313 18.285156 2.328125 38.25-8.621094 54.675782-21.460937 32.191406-21.460937 75.449218 0 107.640624 5.816407 8.722657 7.402344 15.324219 10.371094 22.429688h152.164063c-6.597657-16.03125-8.746094-25.828125-17.574219-39.070312-14.824219-22.238282-14.824219-52.117188 0-74.359376 13.632812-20.449218 18.648437-44.671874 15.066406-67.90625 19.839844.6875 39.554687-4.800781 56.523437-16.117187 22.238282-14.824219 52.121094-14.824219 74.359376 0 12.164062 8.109375 20.75 10.199219 37.570312 17.453125v-152.421875c-6.992188-3.058594-12.9375-4.664063-20.929688-9.992187zm-91 24.960937c22.238282-14.824219 52.121094-14.824219 74.359376 0 2.449218 1.632813 4.976562 3.15625 7.570312 4.558594v25.148437c-30.921875-15.945312-69.316406-14.171875-98.570312 5.332032-18.839844 12.558593-42.605469 14.46875-62.964844 5.648437 3.980468-12.476563 7.964844-15.4375 13.207031-25.429687 23.113281 3.179687 46.722656-2.140626 66.398437-15.257813zm-361 0c22.238282-14.824219 52.121094-14.824219 74.359376 0 18.933593 12.625 41.980468 18.308594 65.3125 15.382813-5.222657 9.738281-8.65625 20.132812-10.289063 30.738281-13.558594.375-26.878906-3.414063-38.382813-11.082031-29.730468-19.820313-68.894531-21.320313-100.070312-4.527344v-25.15625c3.117188-1.617188 6.148438-3.40625 9.070312-5.355469zm91 95.039063c-29.730468-19.820313-68.894531-21.335938-100.070312-4.546876v-25.136718c3.117188-1.617188 6.148438-3.40625 9.070312-5.355469 22.238282-14.824219 52.121094-14.824219 74.359376 0 16.414062 10.945313 35.519531 16.566406 55.164062 16.148437 1.632812 9.972657 4.84375 19.75 9.652344 28.960938-16.542969 2.875-33.953125-.589844-48.175782-10.070312zm78.410157 183.34375c-14.824219-22.238282-14.824219-52.121094 0-74.359376 21.59375-32.390624 21.59375-74.25 0-106.640624-14.855469-22.28125-14.855469-51.078126 0-73.359376 21.59375-32.390624 21.59375-74.25 0-106.640624-14.824219-22.238282-14.824219-52.121094 0-74.359376 1.632812-2.449218 3.15625-4.976562 4.558593-7.570312h25.148438c-15.945312 30.925781-14.171875 69.316406 5.332031 98.570312 14.855469 22.285157 14.855469 51.078126 0 73.359376-21.59375 32.390624-21.59375 74.25 0 106.640624 14.855469 22.285157 14.855469 51.078126 0 73.359376-19.820312 29.734374-21.320312 68.898437-4.527343 100.070312h-25.15625c-1.617188-3.117188-3.40625-6.148438-5.355469-9.070312zm95.039062-91c-19.820312 29.730468-21.335937 68.894531-4.546875 100.070312h-25.136718c-1.617188-3.117188-3.40625-6.148438-5.355469-9.070312-14.824219-22.238282-14.824219-52.121094 0-74.359376 21.59375-32.390624 21.59375-74.25 0-106.640624-14.851563-22.28125-14.851563-51.078126 0-73.359376 21.59375-32.390624 21.59375-74.25 0-106.640624-14.824219-22.238282-14.824219-52.121094 0-74.359376 1.632812-2.445312 3.140625-4.980468 4.542969-7.570312h25.160156c-15.945313 30.921875-14.167969 69.316406 5.335937 98.570312 14.855469 22.285157 14.855469 51.078126 0 73.359376-21.59375 32.390624-21.59375 74.25 0 106.640624 14.855469 22.28125 14.855469 51.078126 0 73.359376zm79.910157-92.34375c-15.011719 10.007812-33.140626 13.378906-50.5625 9.613281-4.585938-8.375-11.734376-16.265625-14.574219-32.832031 27.773437 8.597656 57.78125 4.179687 81.777343-11.820313 22.238282-14.824219 52.121094-14.824219 74.359376 0 2.445312 1.632813 4.980468 3.140625 7.570312 4.542969v25.15625c-30.921875-15.941406-69.316406-14.164063-98.570312 5.339844zm0 0"/></svg>