<svg height="512pt" viewBox="-48 0 512 512" width="512pt" xmlns="http://www.w3.org/2000/svg"><path d="m409.703125 99.324219c-46.996094-60.910157-120.367187-99.324219-201.945313-99.324219-81.429687 0-154.851562 38.296875-201.945312 99.324219l-5.8125 7.535156 207.757812 405.140625 207.761719-405.140625zm-293.894531 167.640625-27.371094-53.378906c4.351562-2.378907 9.25-3.644532 14.351562-3.644532 16.535157 0 29.992188 13.453125 29.992188 29.992188 0 11.726562-6.8125 22.136718-16.972656 27.03125zm13.6875 26.6875c19.949218-9.933594 33.273437-30.539063 33.273437-53.71875 0-33.074219-26.90625-59.984375-59.980469-59.984375-9.945312 0-19.511718 2.40625-28.046874 6.933593l-8.511719-16.59375c16.207031-27.015624 39.453125-48.394531 66.625-62.277343 1.605469 39.9375 34.578125 71.9375 74.902343 71.9375 40.324219 0 73.300782-32 74.902344-71.9375 27.175782 13.882812 50.417969 35.261719 66.625 62.277343l-23.1875 45.21875c-8.945312-3.660156-18.550781-5.566406-28.363281-5.566406-41.34375 0-74.980469 33.636719-74.980469 74.980469 0 26.136719 13.488282 49.980469 35.160156 63.542969l-50.15625 97.808594zm122.34375-197.664063c.59375 2.9375.90625 5.9375.90625 8.984375 0 24.804688-20.179688 44.984375-44.988282 44.984375-24.804687 0-44.988281-20.179687-44.988281-44.984375 0-3.046875.3125-6.046875.90625-8.984375 14.167969-3.941406 28.972657-6.011719 44.082031-6.011719 15.109376 0 29.917969 2.070313 44.082032 6.011719zm.90625 188.933594c0-24.804687 20.183594-44.988281 44.988281-44.988281 5.011719 0 9.933594.828125 14.59375 2.421875l-40.644531 79.257812c-11.734375-8.324219-18.9375-21.894531-18.9375-36.691406zm112.210937-145.191406c-36.488281-49.734375-94.660156-79.746094-157.199219-79.746094-62.535156 0-120.707031 30.011719-157.195312 79.746094l-15.09375-29.429688c42.90625-51.160156 105.171875-80.308593 172.289062-80.308593 67.121094 0 129.386719 29.148437 172.289063 80.308593zm0 0"/><path d="m192.761719 209.941406h29.992187v29.992188h-29.992187zm0 0"/><path d="m282.738281 149.957031h29.992188v29.992188h-29.992188zm0 0"/><path d="m162.769531 299.917969h29.992188v29.992187h-29.992188zm0 0"/></svg>