<svg height="512pt" viewBox="0 -31 512 512" width="512pt" xmlns="http://www.w3.org/2000/svg"><path d="m512 195v-135h-382.292969l-10-60h-119.707031v30h94.292969l56.089843 336.539062-12.175781 6.085938c-8.097656-7.808594-19.097656-12.625-31.207031-12.625-24.8125 0-45 20.1875-45 45s20.1875 45 45 45 45-20.1875 45-45c0-1.882812-.128906-3.730469-.355469-5.550781l18.894531-9.449219h254.039063c-1.664063 4.695312-2.578125 9.742188-2.578125 15 0 24.8125 20.1875 45 45 45s45-20.1875 45-45-20.1875-45-45-45h-287.292969l-10-60h237.292969c57.898438 0 105-47.101562 105-105zm-30 210c0 8.269531-6.730469 15-15 15s-15-6.730469-15-15 6.730469-15 15-15 15 6.730469 15 15zm-375 15c-8.269531 0-15-6.730469-15-15s6.730469-15 15-15 15 6.730469 15 15-6.730469 15-15 15zm27.707031-330h347.292969v105c0 41.355469-33.644531 75-75 75h-242.292969zm0 0"/><path d="m212 120h30v120h-30zm0 0"/><path d="m302 120h30v120h-30zm0 0"/><path d="m392 120h30v120h-30zm0 0"/></svg>