<svg height="512pt" viewBox="-43 0 512 512" width="512pt" xmlns="http://www.w3.org/2000/svg"><path d="m385.8125 272 40-120h-95.8125v-152h-330v512h330v-240zm-21.625-30h-97.476562l-15-60h132.476562zm-334.1875 240v-90h270v90zm270-120h-270v-332h270v122h-55.789062l-7.5-30h-56.710938v30h33.289062l30 120h56.710938zm0 0"/><path d="m240 302h30v30h-30zm0 0"/><path d="m360 302h30v30h-30zm0 0"/><path d="m135 422h75v30h-75zm0 0"/><path d="m60 122h90v30h-90zm0 0"/><path d="m60 182h120v30h-120zm0 0"/><path d="m60 242h150v30h-150zm0 0"/></svg>