<svg height="512pt" viewBox="0 0 512 512" width="512pt" xmlns="http://www.w3.org/2000/svg"><path d="m177.710938 62h-56.710938v30h33.289062l30 120h142.523438l40-120h-181.601562zm147.476562 60-20 60h-97.476562l-15-60zm0 0"/><path d="m181 242h30v30h-30zm0 0"/><path d="m301 242h30v30h-30zm0 0"/><path d="m0 0v422h151c16.542969 0 30 13.457031 30 30s-13.457031 30-30 30h-30v30h270v-30h-30c-16.542969 0-30-13.457031-30-30s13.457031-30 30-30h151c0-42.007812 0-373.464844 0-422zm309.070312 482h-106.140624c5.121093-8.832031 8.070312-19.074219 8.070312-30s-2.949219-21.167969-8.070312-30h106.140624c-5.121093 8.832031-8.070312 19.074219-8.070312 30s2.949219 21.167969 8.070312 30zm172.929688-90h-452v-60h211v30h30v-30h211zm-452-90v-272h452v272zm0 0"/></svg>