<svg height="512pt" viewBox="-61 0 512 512" width="512pt" xmlns="http://www.w3.org/2000/svg"><path d="m150 422h90v30h-90zm0 0"/><path d="m180 60h-90v90h90zm-30 60h-30v-30h30zm0 0"/><path d="m300 60h-90v90h90zm-30 60h-30v-30h30zm0 0"/><path d="m370.609375 411.394531c-6.84375-6.84375-10.609375-15.9375-10.609375-25.609375 0-40.214844 0-343.03125 0-385.785156h-330v385.785156c0 9.671875-3.765625 18.769532-10.605469 25.609375-12.507812 12.503907-19.394531 29.132813-19.394531 46.820313v53.785156h390v-53.785156c0-17.6875-6.886719-34.316406-19.390625-46.820313zm-220.609375-171.394531h-30v-30h30zm158.785156 30-57.210937 57.210938-133.496094-57.210938zm-38.785156-30h-30v-30h30zm-210-210h270v210h-30v-60h-90v60h-30v-60h-90v60h-30zm300 452h-330v-23.785156c0-2.105469.1875-4.183594.539062-6.214844h89.460938v-30h-70.769531c7-10.675781 10.769531-23.152344 10.769531-36.214844v-108.039062l198.425781 85.042968 71.574219-71.574218v94.570312c0 13.0625 3.765625 25.539063 10.769531 36.214844h-70.769531v30h89.460938c.351562 2.03125.539062 4.109375.539062 6.214844zm0 0"/></svg>