<svg height="512pt" viewBox="-91 0 512 512.001" width="512pt" xmlns="http://www.w3.org/2000/svg"><path d="m329.125 316.414062c-6.496094-59.46875-58.4375-103.601562-118.199219-106.363281l62.523438-40.382812c16.546875-11.179688 26.425781-29.765625 26.425781-49.71875 0-33.070313-26.90625-59.972657-59.976562-59.972657-.5 0-1.003907.019532-1.503907.03125-6.949219-34.195312-37.25-60.007812-73.464843-60.007812-36.214844 0-66.511719 25.8125-73.464844 60.007812-.5-.011718-1-.03125-1.503906-.03125-33.070313 0-59.976563 26.902344-59.976563 59.972657 0 19.949219 9.878906 38.539062 26.429687 49.71875l62.523438 40.382812c-59.777344 2.761719-111.707031 46.914063-118.203125 106.363281-5.425781 49.671876 19.554687 96.6875 63.640625 119.769532 25.609375 13.378906 50.625 25.886718 70.527344 45.789062l30.027344 30.027344 30.027343-30.027344c19.996094-19.992187 45.148438-32.527344 70.53125-45.785156 44.085938-23.085938 69.066407-70.101562 63.636719-119.773438zm-269.152344-196.464843c0-16.535157 13.453125-29.988281 29.988282-29.988281.507812 0 1.011718.039062 1.515624.066406 1.042969 5.101562 2.613282 10.089844 4.722657 14.914062l15.714843 36 27.484376-11.996094-15.71875-36.003906c-2.476563-5.667968-3.730469-11.714844-3.730469-17.972656 0-24.800781 20.179687-44.980469 44.980469-44.980469 24.804687 0 44.984374 20.179688 44.984374 44.980469 0 6.257812-1.257812 12.304688-3.734374 17.972656l-15.714844 36.003906 27.480468 11.996094 15.71875-36c2.105469-4.824218 3.679688-9.808594 4.71875-14.914062.507813-.027344 1.007813-.066406 1.515626-.066406 16.535156 0 29.988281 13.453124 29.988281 29.988281 0 9.933593-4.898438 19.1875-13.113281 24.796875l-91.84375 59.3125-91.84375-59.316406c-8.214844-5.605469-13.113282-14.863282-13.113282-24.792969zm191.601563 289.671875c-28.800781 15.042968-54.875 28.203125-77.820313 51.148437l-8.824218 8.820313-8.820313-8.820313c-22.960937-22.957031-49.0625-36.125-77.824219-51.148437-33.078125-17.324219-51.816406-52.628906-47.738281-89.949219.75-6.859375 2.363281-13.484375 4.722656-19.796875h84.679688v-29.988281h-65.6875c17.5625-18.371094 42.992187-29.988281 70.617187-29.988281h80.105469c40.648437 0 76.574219 25.125 89.605469 59.976562h-84.675782v29.988281h89.949219c-.027343 33.445313-18.238281 64.023438-48.289062 79.757813zm0 0"/><path d="m89.960938 359.851562h89.960937v29.984376h-89.960937zm0 0"/></svg>