<svg height="512pt" viewBox="-46 0 512 512" width="512pt" xmlns="http://www.w3.org/2000/svg"><path d="m238.671875 424.128906-29.054687-263.4375-20.347657-40.691406h26.542969l-40-120h-81.625l-40 120h26.542969l-20.34375 40.691406-29.058594 263.4375c-18.148437 5.800782-31.328125 22.824219-31.328125 42.871094v45h270v-45c0-20.046875-13.179688-37.070312-31.328125-42.871094zm-57.109375-244.128906 26.691406 242h-146.507812l26.691406-242zm-65.75-150h38.375l20 60h-78.375zm39.917969 90 15 30h-71.460938l15-30zm84.269531 362h-210v-15c0-8.269531 6.730469-15 15-15h180c8.269531 0 15 6.730469 15 15zm0 0"/><path d="m270 0v210h60v4.484375l-30 62v235.515625h90v-214.484375l30-62v-235.515625c-3.039062 0-145.644531 0-150 0zm60 120h-30v-30h30zm0-90v30h-30v-30zm-30 150v-30h30v30zm90 48.636719-30 62v191.363281h-30v-198.636719l30-62v-191.363281h30zm0 0"/><path d="m135 362c24.8125 0 45-20.1875 45-45s-20.1875-45-45-45-45 20.1875-45 45 20.1875 45 45 45zm0-60c8.269531 0 15 6.730469 15 15s-6.730469 15-15 15-15-6.730469-15-15 6.730469-15 15-15zm0 0"/></svg>