<svg height="512pt" viewBox="-61 0 512 512" width="512pt" xmlns="http://www.w3.org/2000/svg"><path d="m150 66.214844v-36.214844h30v-30h-150v30h30v36.214844c0 52.519531-14.570312 105.644531-42.132812 153.628906-11.6875 20.347656-17.867188 43.570312-17.867188 67.15625v225h210v-225c0-23.589844-6.179688-46.8125-17.867188-67.15625-27.5625-47.984375-42.132812-101.109375-42.132812-153.628906zm-60 235.785156v-15c0-8.269531 6.730469-15 15-15s15 6.730469 15 15v15h60v120h-150v-120zm30-272v36.214844c0 18.609375 1.664062 37.273437 4.917969 55.785156h-39.839844c3.257813-18.511719 4.921875-37.175781 4.921875-55.785156v-36.214844zm-41.621094 122h53.242188c7.761718 28.519531 19.332031 56.382812 34.5 82.785156 6.585937 11.46875 10.910156 24.125 12.792968 37.214844h-31.484374c-6.191407-17.460938-22.871094-30-42.429688-30s-36.238281 12.539062-42.429688 30h-31.484374c1.882812-13.089844 6.207031-25.746094 12.792968-37.214844 15.167969-26.402344 26.738282-54.265625 34.5-82.785156zm-48.378906 330v-30h150v30zm0 0"/><path d="m240 212v135c0 36.21875 25.808594 66.523438 60 73.492188v61.507812h-30v30h90v-30h-30v-61.507812c34.191406-6.96875 60-37.273438 60-73.492188v-135zm120 30v60h-23.785156c-9.675782 0-18.769532-3.765625-25.609375-10.605469-11.027344-11.03125-25.265625-17.679687-40.605469-19.101562v-30.292969zm-45 150c-24.8125 0-45-20.1875-45-45v-44.460938c7.308594 1.257813 14.042969 4.714844 19.394531 10.066407 12.503907 12.507812 29.132813 19.394531 46.820313 19.394531h23.785156v15c0 24.8125-20.1875 45-45 45zm0 0"/></svg>