<svg height="512pt" viewBox="0 0 512 512" width="512pt" xmlns="http://www.w3.org/2000/svg"><path d="m482 313.460938v-191.460938h-121v-32h60v-90h-210v90h60v32h-241v191.460938l-30 60v138.539062h512v-138.539062zm-241-283.460938h150v30h-150zm60 60h30v32h-30zm-241 62h392v168.539062l20.730469 41.460938h-433.460938l20.730469-41.460938zm-30 330v-90h452v90zm0 0"/><path d="m421 182h-150v90h150zm-30 60h-90v-30h90zm0 0"/><path d="m271 302h30v30h-30zm0 0"/><path d="m391 302h30v30h-30zm0 0"/><path d="m331 302h30v30h-30zm0 0"/><path d="m211 422h90v30h-90zm0 0"/><path d="m241 302h-30v-120h-90v120h-30v30h150zm-90-90h30v90h-30zm0 0"/></svg>