<svg height="512pt" viewBox="0 0 512 512" width="512pt" xmlns="http://www.w3.org/2000/svg"><path d="m497 242c-24.8125 0-45-20.1875-45-45v-15h-39.71875l-115.722656-117.519531c2.847656-5.894531 4.441406-12.503907 4.441406-19.480469 0-24.8125-20.1875-45-45-45s-45 20.1875-45 45c0 6.976562 1.59375 13.585938 4.441406 19.480469l-115.722656 117.519531h-39.71875v15c0 24.8125-20.1875 45-45 45h-15v210h15c24.8125 0 45 20.1875 45 45v15h392v-15c0-24.8125 20.1875-45 45-45h15v-210zm-241-212c8.269531 0 15 6.730469 15 15s-6.730469 15-15 15-15-6.730469-15-15 6.730469-15 15-15zm-19.296875 55.644531c5.851563 2.789063 12.394531 4.355469 19.296875 4.355469s13.445312-1.566406 19.296875-4.355469l94.882813 96.355469h-228.359376zm245.296875 337.863281c-29.34375 5.980469-52.511719 29.148438-58.492188 58.492188h-335.015624c-5.980469-29.34375-29.148438-52.511719-58.492188-58.492188v-153.015624c29.34375-5.980469 52.511719-29.148438 58.492188-58.492188h335.015624c5.980469 29.34375 29.148438 52.511719 58.492188 58.492188zm0 0"/><path d="m361 258.972656-105 70-105-70v43.027344h-60v90h60v43.027344l105-70 105 70v-43.027344h60v-90h-60zm-180 120v-16.972656h-60v-30h60v-16.972656l47.957031 31.972656zm210-46.972656v30h-60v16.972656l-47.957031-31.972656 47.957031-31.972656v16.972656zm0 0"/></svg>