<svg height="512pt" viewBox="0 -28 512 512" width="512pt" xmlns="http://www.w3.org/2000/svg"><path d="m91 210h60v30h-60zm0 0"/><path d="m181 210h60v30h-60zm0 0"/><path d="m271 210h60v30h-60zm0 0"/><path d="m361 210h60v30h-60zm0 0"/><path d="m480.695312 8.882812-3.96875-8.882812h-441.453124l-3.96875 8.882812c-1.277344 2.859376-31.304688 71.054688-31.304688 156.117188s30.027344 153.257812 31.304688 156.117188l3.96875 8.882812h25.726562v81.214844l45 45 30-30 30 30 30-30 30 30 30-30 30 30 30-30 30 30 30-30 30 30 45-45v-81.214844h25.726562l3.96875-8.882812c1.277344-2.859376 31.304688-71.054688 31.304688-156.117188s-30.027344-153.257812-31.304688-156.117188zm-59.695312 389.902344-15 15-30-30-30 30-30-30-30 30-30-30-30 30-30-30-30 30-30-30-30 30-15-15v-68.785156h330zm-365.867188-98.785156c-4.269531-11.296875-11.546874-32.667969-17.175781-60h23.042969v-30h-28.054688c-1.8125-14.175781-2.945312-29.300781-2.945312-45 0-61.488281 17.46875-114.617188 25.148438-135h401.71875c7.6875 20.339844 25.132812 73.300781 25.132812 135 0 15.679688-1.140625 30.8125-2.960938 45h-28.039062v30h23.015625c-5.632813 27.296875-12.902344 48.691406-17.164063 60zm0 0"/></svg>