<svg height="512pt" viewBox="0 0 512 512" width="512pt" xmlns="http://www.w3.org/2000/svg"><path d="m437 92c-41.355469 0-75 33.644531-75 75v60c0 24.484375 11.796875 46.261719 30 59.960938v225.039062h90v-225.039062c18.203125-13.699219 30-35.476563 30-59.960938v-60c0-41.355469-33.644531-75-75-75zm0 180c-19.554688 0-36.226562-12.550781-42.421875-30.011719h84.84375c-6.195313 17.460938-22.867187 30.011719-42.421875 30.011719zm-45-60v-30h90v30zm45-90c19.554688 0 36.226562 12.542969 42.421875 30h-84.84375c6.195313-17.457031 22.867187-30 42.421875-30zm15 360h-30v-181.507812c4.847656.988281 9.863281 1.507812 15 1.507812s10.152344-.519531 15-1.507812zm0 0"/><path d="m262.363281 152.359375v-.359375h-7.363281c-8.269531 0-15-6.730469-15-15s6.730469-15 15-15h45v-122h-270v122h45c8.269531 0 15 6.730469 15 15s-6.730469 15-15 15h-7.363281v.359375c-37.914063 3.710937-67.636719 35.769531-67.636719 74.640625v285h330v-285c0-38.871094-29.722656-70.929688-67.636719-74.640625zm-202.363281-60.359375v-62h210v62zm15 90c24.8125 0 45-20.1875 45-45 0-5.257812-.914062-10.304688-2.578125-15h95.15625c-1.664063 4.695312-2.578125 9.742188-2.578125 15 0 24.8125 20.1875 45 45 45s45 20.1875 45 45v195h-270v-195c0-24.8125 20.1875-45 45-45zm-45 300v-30h270v30zm0 0"/><path d="m105 370.027344 60 40 60-40v-45l45-30v-61.054688l-60-40-45 30-45-30-60 40v61.054688l45 30zm90-16.054688-30 20-30-20v-28.945312l30-20 30 20zm45-103.945312v28.945312l-30 20-30-20v-28.945312l30-20zm-150 0 30-20 30 20v28.945312l-30 20-30-20zm0 0"/></svg>