<svg height="512pt" viewBox="-91 0 512 512" width="512pt" xmlns="http://www.w3.org/2000/svg"><path d="m150 60h-90v90h90zm-30 60h-30v-30h30zm0 0"/><path d="m150 240h-90v90h90zm-30 60h-30v-30h30zm0 0"/><path d="m60 180h90v30h-90zm0 0"/><path d="m210 150h60v-90h-30v60h-60v90h30zm0 0"/><path d="m180 60h30v30h-30zm0 0"/><path d="m240 300h30v30h-30zm0 0"/><path d="m240 180h30v30h-30zm0 0"/><path d="m210 270h60v-30h-90v90h30zm0 0"/><path d="m0 0v512h330v-512zm300 30v330h-270v-330zm-270 452v-92h270v92zm0 0"/><path d="m120 421h90v30h-90zm0 0"/></svg>