<svg height="512pt" viewBox="0 0 512 512" width="512pt" xmlns="http://www.w3.org/2000/svg"><path d="m330 302h30v30h-30zm0 0"/><path d="m512 242h-32v-120h-90v-122h-270v122h-120v390h480v-120h32zm-152-120h-150v-92h150zm-210-92h30v92h-30zm300 392h-30v30h30v30h-420v-330h420v30h-30v30h30v30h-105c-41.355469 0-75 33.644531-75 75s33.644531 75 75 75h105zm32-60h-137c-24.8125 0-45-20.1875-45-45s20.1875-45 45-45h137zm0 0"/><path d="m330 182h60v30h-60zm0 0"/><path d="m240 182h60v30h-60zm0 0"/><path d="m150 182h60v30h-60zm0 0"/><path d="m60 182h60v30h-60zm0 0"/><path d="m330 422h60v30h-60zm0 0"/><path d="m240 422h60v30h-60zm0 0"/><path d="m150 422h60v30h-60zm0 0"/><path d="m60 422h60v30h-60zm0 0"/><path d="m60 242h30v60h-30zm0 0"/><path d="m60 332h30v60h-30zm0 0"/></svg>