<svg height="511pt" viewBox="0 0 511 511.99967" width="511pt" xmlns="http://www.w3.org/2000/svg"><path d="m497.125 15.371094c-28.148438-28.148438-79.097656-12.230469-114.882812 4.886718-42.03125 20.101563-88.582032 53.4375-132.878907 94.953126.121094-16.199219-.695312-32.398438-2.480469-48.464844l-4.90625-44.15625-24.765624 41.261718c-40.332032 67.226563-88.890626 129.417969-144.328126 184.855469-42.320312 42.320313-49.9375 104.527344-26.40625 153.679688l-45.976562 45.976562 63.636719 63.636719 46.027343-46.027344c50.148438 23.894532 112.117188 15.15625 153.628907-26.359375 55.433593-55.433593 117.628906-103.992187 184.851562-144.328125l41.277344-24.761718-44.167969-4.90625c-16.070312-1.785157-32.265625-2.601563-48.46875-2.480469 41.519532-44.300781 74.855469-90.851563 94.953125-132.878907 17.125-35.804687 33.03125-86.742187 4.886719-114.886718zm-403.03125 254.546875c46.789062-46.789063 88.828125-98.246094 125.351562-153.390625-.875 100.273437-40.675781 195.988281-112.6875 268l-22.519531 22.523437c-30.5625-40.691406-27.910156-99.367187 9.855469-137.132812zm-29.960938 199.65625-21.210937-21.210938 19.941406-19.941406-.585937.585937c5.097656 5.101563 14.125 14.128907 21.210937 21.210938l.59375-.589844zm178.449219-51.171875c-37.335937 37.335937-96.03125 40.621094-137.125 9.851562l22.511719-22.511718c72.019531-72.019532 167.71875-111.820313 268-112.691407-55.148438 36.527344-106.601562 78.566407-153.386719 125.351563zm222.597657-301.089844c-7.605469 15.898438-17.292969 32.542969-28.726563 49.507812l-34.78125-34.78125-21.210937 21.210938 38.277343 38.273438c-17.265625 22.710937-37.335937 45.632812-59.488281 67.789062-2.195312 2.191406-4.417969 4.375-6.644531 6.546875-8.535157.980469-17.039063 2.230469-25.496094 3.734375l-31.496094-31.496094-21.210937 21.210938 17.992187 17.996094c-33.773437 9.035156-66.101562 22.265624-97.054687 39.855468 27.796875-48.921875 44.921875-101.804687 51.300781-157.265625 8.929687-9.167969 18.023437-18.054687 28.203125-27.414062l41.980469 41.980469 21.214843-21.210938-40.628906-40.625c25.066406-21.074219 50.285156-39.035156 74.359375-52.917969l29.902344 29.90625 21.214844-21.210937-23.1875-23.183594c36.078125-16.445312 65.046875-19.800781 76.214843-8.636719 11.632813 11.632813 7.515626 42.566407-10.734374 80.730469zm0 0"/></svg>