<svg height="512pt" viewBox="0 0 512 512" width="512pt" xmlns="http://www.w3.org/2000/svg"><path d="m481 120h31v-90h-171.601562c-21.683594-20.734375-54.15625-30-84.398438-30-30.269531 0-62.730469 9.28125-84.398438 30h-171.601562v90h31v212h-31v30h31v150h450v-150h31v-30h-31c0-6.167969 0-206.949219 0-212zm1-30h-123.027344c1.335938-4.867188 2.027344-9.882812 2.027344-15s-.691406-10.132812-2.027344-15h123.027344zm-91 75c0 8.269531-6.730469 15-15 15s-15-6.730469-15-15v-45h30zm-270-45h30v45c0 8.269531-6.730469 15-15 15s-15-6.730469-15-15zm210 152h-30v30h30v120h-150v-214.582031c4.695312 1.667969 9.742188 2.582031 15 2.582031 11.515625 0 22.03125-4.347656 30-11.484375 7.96875 7.136719 18.484375 11.484375 30 11.484375s22.03125-4.347656 30-11.484375c7.96875 7.136719 18.484375 11.484375 30 11.484375 5.257812 0 10.304688-.914062 15-2.582031zm-15-92c-8.269531 0-15-6.730469-15-15v-22.105469c10.644531-3.554687 20.832031-8.480469 30-15.105469v37.210938c0 8.269531-6.730469 15-15 15zm-45-15c0 8.269531-6.730469 15-15 15s-15-6.730469-15-15v-15.746094c4.929688.496094 9.941406.746094 15 .746094s10.070312-.25 15-.746094zm-60 0c0 8.269531-6.730469 15-15 15s-15-6.730469-15-15v-37.210938c9.167969 6.625 19.355469 11.550782 30 15.105469zm-30 287h150v30h-150zm75-422c40.652344 0 75 20.605469 75 45s-34.347656 45-75 45-75-20.605469-75-45 34.347656-45 75-45zm-226 29.988281h123.027344c-1.335938 4.871094-2.027344 9.894531-2.027344 15.011719s.691406 10.132812 2.027344 15h-123.027344zm31 60.011719h30v45c0 8.269531-6.730469 15-15 15s-15-6.730469-15-15zm0 87.421875c4.695312 1.664063 9.742188 2.578125 15 2.578125 11.515625 0 22.03125-4.347656 30-11.484375 7.96875 7.136719 18.484375 11.484375 30 11.484375 5.257812 0 10.304688-.914062 15-2.582031v124.582031h-90zm0 154.578125h90v120h-90zm390 120h-90v-120h90zm-90-150v-124.582031c4.695312 1.667969 9.742188 2.582031 15 2.582031 11.515625 0 22.03125-4.355469 30-11.496094 7.96875 7.144532 18.484375 11.496094 30 11.496094 5.257812 0 10.304688-.914062 15-2.578125v124.578125zm75-152c-8.269531 0-15-6.730469-15-15v-45h30v45c0 8.269531-6.730469 15-15 15zm0 0"/><path d="m91 392h30v60h-30zm0 0"/><path d="m391 392h30v60h-30zm0 0"/><path d="m211 60h90v30h-90zm0 0"/></svg>