<?xml version="1.0" encoding="iso-8859-1"?>
<!-- Generator: Adobe Illustrator 19.0.0, SVG Export Plug-In . SVG Version: 6.00 Build 0)  -->
<svg version="1.1" id="Capa_1" xmlns="http://www.w3.org/2000/svg" xmlns:xlink="http://www.w3.org/1999/xlink" x="0px" y="0px"
	 viewBox="0 0 419.177 419.177" style="enable-background:new 0 0 419.177 419.177;" xml:space="preserve">
<path id="XMLID_1_" d="M82.544,197.908v-18H102.7v18H82.544z M125.744,278.829c17.462-18.897,27.08-43.387,27.08-68.96
	c0-25.572-9.617-50.062-27.08-68.959l-13.22,12.217c14.38,15.561,22.299,35.712,22.299,56.743c0,21.03-7.919,41.182-22.299,56.742
	L125.744,278.829z M400.285,210.199c0,18.229,6.603,35.917,18.592,49.805l-5.179,4.471l-7.316,8.986l-51.036-41.553l11.365-13.958
	l18.369,14.956c-1.844-7.382-2.795-15.003-2.795-22.705c0-7.669,1.3-15.717,3.767-23.797L227.255,314.274
	c-5.405,4.352-11.43,7.919-17.852,10.7l8.601,30.897c4.421,15.881,24.302,29.298,43.414,29.298h70.625v18H220.952
	c-27.435,0-54.122-18.655-60.754-42.47l-8.511-30.574c-13.085-2.865-25.486-8.461-35.79-16.778L8.918,227.007
	C3.251,222.434,0,215.937,0,209.181c0-6.626,3.141-12.96,8.617-17.38l105.942-85.503c10.575-8.535,23.419-14.18,37.044-16.946
	l8.594-30.873c6.633-23.816,33.32-42.471,60.755-42.471h111.091v18h-70.625c-19.112,0-38.993,13.417-43.414,29.298l-8.711,31.292
	c7.798,3.179,15.124,7.402,21.647,12.667l97.005,78.292l-11.305,14.007l-97.006-78.292c-25.739-20.774-68.68-21.216-93.771-0.967
	l-98.939,79.852h30.308v18h-30.62l100.59,81.184c24.338,19.643,64.986,20.061,88.764,0.914L406.42,146.891l10.25,12.729l2.507,1.944
	C407.347,176.823,400.285,195.005,400.285,210.199z M170.843,87.358c0.268-0.002,0.537-0.003,0.805-0.003
	c6.844,0,13.704,0.683,20.408,2.048l8.608-30.924c2.518-9.043,7.928-17.343,15.171-24.159
	c-17.415,2.099-34.268,14.521-38.297,28.987L170.843,87.358z M200.664,360.698l-8.44-30.319c-6.932,1.44-14.079,2.096-21.229,1.984
	l6.543,23.507c4.029,14.465,20.882,26.887,38.297,28.986C208.591,378.041,203.181,369.741,200.664,360.698z M179.929,256.286
	c7.373-14.278,11.27-30.329,11.27-46.417c0-16.084-3.897-32.135-11.271-46.417l-15.994,8.257c6.147,11.908,9.265,24.747,9.265,38.16
	c0,13.416-3.117,26.254-9.263,38.158L179.929,256.286z"/>
<g>
</g>
<g>
</g>
<g>
</g>
<g>
</g>
<g>
</g>
<g>
</g>
<g>
</g>
<g>
</g>
<g>
</g>
<g>
</g>
<g>
</g>
<g>
</g>
<g>
</g>
<g>
</g>
<g>
</g>
</svg>
