<?xml version="1.0" encoding="iso-8859-1"?>
<!-- Generator: Adobe Illustrator 19.0.0, SVG Export Plug-In . SVG Version: 6.00 Build 0)  -->
<svg version="1.1" id="Capa_1" xmlns="http://www.w3.org/2000/svg" xmlns:xlink="http://www.w3.org/1999/xlink" x="0px" y="0px"
	 viewBox="0 0 421.478 421.478" style="enable-background:new 0 0 421.478 421.478;" xml:space="preserve">
<path id="XMLID_224_" d="M355.586,343.938c-50.046-18.081-71.398-52.141-71.398-113.888V127.267c0-35.514-21.55-66.087-52.263-79.33
	c14.741-10.618,24.356-27.928,24.356-47.442h-18c0,18.901-13.035,34.814-30.588,39.221c6.357-12.19,9.74-25.784,9.74-39.716h-18
	c0,15.2-5.102,29.899-14.454,41.885c-33.169,4.979-60.228,28.894-69.772,60.353H91.351c-17.315,0-31.401,14.086-31.401,31.401
	v31.401h13.444l5.884,13.924c5.32,12.587,19.325,22.515,32.231,23.008v79.976c0,20.213,7.288,39.938,20.52,55.538
	c11.37,13.405,26.489,23.074,43.161,27.728v38.265h-54.68v18h96.99v-18h-24.31V377.32c15.117,12.998,34.768,20.863,56.221,20.863h9
	v-97.957c0-47.607-38.732-86.339-86.339-86.339h-9v97.957c0,11.289,2.178,22.078,6.135,31.971
	c-23.483-11.179-39.696-35.362-39.696-61.868v-154.68c0-37.683,30.658-68.339,68.341-68.339c37.682,0,68.338,30.657,68.338,68.339
	V230.05c0,38.261,6.757,90.116,60.027,120.236h-51.027v18h86.34v-22.202L355.586,343.938z M111.509,183.94
	c-5.897-0.573-13.133-6.027-15.651-11.984l-2.923-6.917h18.574V183.94z M111.509,127.267v19.772h-33.56v-13.401
	c0-7.39,6.012-13.401,13.401-13.401h20.441C111.604,122.555,111.509,124.902,111.509,127.267z M181.071,232.477
	c33.445,4.418,59.338,33.117,59.338,67.749v79.367c-19.534-2.581-36.493-13.445-47.221-28.936v-0.07l-0.056-0.01
	c-7.606-11.016-12.063-24.363-12.063-38.733L181.071,232.477z M163.068,118.625v-18h20.156v18H163.068z"/>
<g>
</g>
<g>
</g>
<g>
</g>
<g>
</g>
<g>
</g>
<g>
</g>
<g>
</g>
<g>
</g>
<g>
</g>
<g>
</g>
<g>
</g>
<g>
</g>
<g>
</g>
<g>
</g>
<g>
</g>
</svg>
