<?xml version="1.0" encoding="iso-8859-1"?>
<!-- Generator: Adobe Illustrator 19.0.0, SVG Export Plug-In . SVG Version: 6.00 Build 0)  -->
<svg version="1.1" id="Capa_1" xmlns="http://www.w3.org/2000/svg" xmlns:xlink="http://www.w3.org/1999/xlink" x="0px" y="0px"
	 viewBox="0 0 422.187 422.187" style="enable-background:new 0 0 422.187 422.187;" xml:space="preserve">
<path id="XMLID_110_" d="M108.734,365.995l-9.089,15.537c-47.803-27.965-83.17-72.486-99.585-125.364l17.19-5.336
	C32.33,299.406,64.82,340.306,108.734,365.995z M393.086,190.767c0,97.332-76.809,177.063-172.993,181.773v31.646h65.141v18H136.955
	v-18h65.138V372.54c-96.183-4.71-172.991-84.441-172.991-181.773c0-100.351,81.641-181.992,181.991-181.992
	C311.444,8.774,393.086,90.416,393.086,190.767z M220.093,150.942c4.603,1.039,8.914,2.858,12.785,5.311l87.583-87.583
	c-26.95-24.163-61.921-39.563-100.368-41.651V150.942z M101.726,68.67l87.583,87.583c3.871-2.451,8.183-4.271,12.785-5.311V27.019
	C163.641,29.107,128.677,44.501,101.726,68.67z M47.347,181.767h123.921c1.04-4.604,2.859-8.913,5.312-12.786L88.998,81.398
	C64.829,108.35,49.436,143.313,47.347,181.767z M88.997,300.135l87.583-87.582c-2.453-3.872-4.272-8.183-5.312-12.786H47.347
	C49.436,238.214,64.834,273.185,88.997,300.135z M202.093,230.592c-4.604-1.039-8.914-2.858-12.786-5.312l-87.583,87.583
	c26.951,24.169,61.916,39.563,100.368,41.652V230.592z M233.919,190.767c0-12.585-10.24-22.824-22.826-22.824
	c-12.586,0-22.825,10.239-22.825,22.824c0,12.586,10.239,22.825,22.825,22.825C223.68,213.592,233.919,203.353,233.919,190.767z
	 M320.462,312.864l-87.583-87.584c-3.872,2.453-8.183,4.272-12.786,5.313v123.923C258.546,352.427,293.51,337.033,320.462,312.864z
	 M374.842,199.767H250.92c-1.04,4.604-2.859,8.914-5.312,12.786l87.582,87.583C357.359,273.185,372.752,238.22,374.842,199.767z
	 M374.842,181.767c-2.089-38.453-17.483-73.418-41.652-100.369l-87.583,87.583c2.454,3.872,4.273,8.183,5.313,12.786H374.842z
	 M322.542,0l-9.088,15.537c43.907,25.682,76.396,66.581,91.482,115.166l17.19-5.338C405.705,72.479,370.338,27.956,322.542,0z"/>
<g>
</g>
<g>
</g>
<g>
</g>
<g>
</g>
<g>
</g>
<g>
</g>
<g>
</g>
<g>
</g>
<g>
</g>
<g>
</g>
<g>
</g>
<g>
</g>
<g>
</g>
<g>
</g>
<g>
</g>
</svg>
