<?xml version="1.0" encoding="iso-8859-1"?>
<!-- Generator: Adobe Illustrator 19.0.0, SVG Export Plug-In . SVG Version: 6.00 Build 0)  -->
<svg version="1.1" id="Capa_1" xmlns="http://www.w3.org/2000/svg" xmlns:xlink="http://www.w3.org/1999/xlink" x="0px" y="0px"
	 viewBox="0 0 410.258 410.258" style="enable-background:new 0 0 410.258 410.258;" xml:space="preserve">
<path id="XMLID_38_" d="M187.11,174.189h-20.156v-18h20.156V174.189z M113.625,156.189H93.47v18h20.155V156.189z M410.258,254.354
	v130.066c0,7.739-6.296,14.035-14.035,14.035H2.058v-33.559c0-18.504,15.055-33.558,33.559-33.558h43.782v-33.265
	c-24.726-9.309-43.625-30.606-49.582-56.769L0,233.117l4.766-17.357l23.074,6.336v-17.107L0,197.343l4.766-17.357l23.074,6.336
	V176.32c-8.92-6.005-15.406-15.021-17.769-24.975L2.47,119.322c-1.917-8.079-0.316-16.126,4.39-22.08
	c4.591-5.808,11.782-9.138,19.73-9.138H58.61c16.271,0,32.076,11.383,38.213,26.751h86.931c6.13-15.364,21.937-26.751,38.215-26.751
	h32.022c7.947,0,15.138,3.332,19.729,9.14c4.706,5.955,6.306,14.001,4.389,22.078l-7.599,32.023
	c-2.364,9.955-8.852,18.971-17.769,24.975v10.002l23.074-6.336l4.766,17.357l-27.84,7.646v17.107l23.073-6.336l4.768,17.357
	l-29.817,8.188c-8.052,35.361-39.75,61.833-77.514,61.833H107.33c-3.362,0-6.678-0.21-9.932-0.617v28.817h59.761v18H35.616
	c-8.579,0-15.559,6.979-15.559,15.558v15.559h194.106v-15.559c0-18.504,15.055-33.558,33.559-33.558h59.594v18h-59.594
	c-8.579,0-15.559,6.979-15.559,15.558v15.559h130.838c-4.777-3.346-9.282-7.125-13.465-11.307
	c-18.899-18.902-29.307-43.954-29.307-70.542v-85.604h-24.942v-18h24.942v-83.352c0-11.755-4.631-22.861-13.038-31.271
	c-8.406-8.406-19.511-13.036-31.269-13.036c-15.313,0-27.771-12.458-27.771-27.771c0-15.313,12.458-27.771,27.771-27.771
	c26.59,0,51.642,10.408,70.542,29.307c18.898,18.901,29.307,43.953,29.307,70.542v88.841
	C396.533,210.157,410.258,231.378,410.258,254.354z M149.974,230.565v-6.342h-19.368v6.342c0,3.497,2.844,6.341,6.34,6.341h6.689
	C147.13,236.906,149.974,234.062,149.974,230.565z M107.33,285.139h23.961v-30.896c-10.703-2.556-18.686-12.203-18.686-23.678
	v-24.342h55.368v24.342c0,11.475-7.98,21.121-18.683,23.677v30.897h23.96c25.657,0,47.693-15.794,56.898-38.172l-24.41,6.704
	l-4.768-17.357l33.676-9.248c0.063-1.131,0.094-2.271,0.094-3.417v-13.716l-29.003,7.964l-4.766-17.357l33.769-9.273v-25.65
	l4.972-2.488c6.548-3.278,11.763-9.534,13.283-15.939l7.599-32.021c0.647-2.728,0.294-5.128-0.996-6.76
	c-1.19-1.506-3.129-2.302-5.607-2.302h-32.022c-9.626,0-20.09,8.528-22.393,18.249l-2.022,8.502H83.021l-2.017-8.498
	c-2.307-9.724-12.771-18.253-22.395-18.253H26.59c-2.479,0-4.42,0.796-5.609,2.301c-1.29,1.632-1.645,4.033-0.997,6.761
	l7.602,32.023c1.52,6.403,6.733,12.659,13.283,15.938l4.972,2.488v25.65l33.77,9.273l-4.767,17.357l-29.003-7.964v13.716
	c0,1.146,0.031,2.287,0.094,3.417l33.676,9.248l-4.768,17.357l-24.41-6.704C59.636,269.345,81.673,285.139,107.33,285.139z
	 M392.258,354.3c-5.947-3.002-11.458-6.979-16.176-11.696c-11.808-11.811-18.31-27.436-18.31-43.998V111.651
	c0-21.781-8.536-42.313-24.035-57.814c-15.5-15.499-36.031-24.035-57.813-24.035c-5.388,0-9.771,4.383-9.771,9.771
	c0,5.388,4.383,9.771,9.771,9.771c16.566,0,32.191,6.502,43.997,18.309c11.808,11.81,18.31,27.435,18.31,43.998v186.955
	c0,21.781,8.535,42.313,24.034,57.815c8.574,8.573,18.796,15.077,29.993,19.146V354.3z M392.258,254.354
	c0-13.014-6.331-25.224-16.485-32.957v77.209c0,11.754,4.631,22.86,13.039,31.271c1.093,1.093,2.244,2.129,3.446,3.104V254.354z"/>
<g>
</g>
<g>
</g>
<g>
</g>
<g>
</g>
<g>
</g>
<g>
</g>
<g>
</g>
<g>
</g>
<g>
</g>
<g>
</g>
<g>
</g>
<g>
</g>
<g>
</g>
<g>
</g>
<g>
</g>
</svg>
