<?xml version="1.0" encoding="iso-8859-1"?>
<!-- Generator: Adobe Illustrator 19.0.0, SVG Export Plug-In . SVG Version: 6.00 Build 0)  -->
<svg version="1.1" id="Capa_1" xmlns="http://www.w3.org/2000/svg" xmlns:xlink="http://www.w3.org/1999/xlink" x="0px" y="0px"
	 viewBox="0 0 432.406 432.406" style="enable-background:new 0 0 432.406 432.406;" xml:space="preserve">
<path id="XMLID_62_" d="M254.685,171.058v18h-20.155v-18H254.685z M259.478,145.31h20.156v-18h-20.156V145.31z M209.579,213.543v18
	h20.156v-18H209.579z M322.806,310.322h59.968l-23.657,121.119H23.658L0,310.322h258.615c3.313-7.318,7.938-16.832,14.16-29.383
	c2.474-4.99,4.81-9.703,6.682-13.596l2.453-5.099h17.668l2.452,5.1c1.806,3.756,4.042,8.278,6.408,13.065
	C314.768,293.219,319.459,302.897,322.806,310.322z M269.593,331.625c0.13,11.524,9.545,20.858,21.1,20.858
	c11.556,0,20.973-9.336,21.101-20.862c-0.879-5.577-12.972-30.042-19.493-43.234c-0.528-1.068-1.049-2.123-1.562-3.161
	c-0.601,1.214-1.215,2.453-1.838,3.709C282.446,301.956,270.476,326.103,269.593,331.625z M329.471,328.322
	c0.22,1.152,0.324,2.161,0.324,3.06c0,21.561-17.541,39.102-39.102,39.102c-21.561,0-39.101-17.541-39.101-39.102
	c0-0.898,0.104-1.907,0.326-3.06H21.856l16.626,85.119h305.811l16.625-85.119H329.471z M329.534,127.31h-20.156v18h20.156V127.31z
	 M359.279,213.543v18h20.156v-18H359.279z M259.479,231.543h20.156v-18h-20.156V231.543z M411.684,0.965H177.33l-19.285,289.023
	l17.96,1.199l18.164-272.223h200.676l1.865,27.958H219.109v18h178.802l16.494,247.207v75.532h-25.803v18h43.803v-93.833
	L411.684,0.965z M334.329,171.058v18h20.156v-18H334.329z M304.585,171.058H284.43v18h20.156V171.058z M309.378,231.543h20.156v-18
	h-20.156V231.543z"/>
<g>
</g>
<g>
</g>
<g>
</g>
<g>
</g>
<g>
</g>
<g>
</g>
<g>
</g>
<g>
</g>
<g>
</g>
<g>
</g>
<g>
</g>
<g>
</g>
<g>
</g>
<g>
</g>
<g>
</g>
</svg>
