<?xml version="1.0" encoding="iso-8859-1"?>
<!-- Generator: Adobe Illustrator 19.0.0, SVG Export Plug-In . SVG Version: 6.00 Build 0)  -->
<svg version="1.1" id="Capa_1" xmlns="http://www.w3.org/2000/svg" xmlns:xlink="http://www.w3.org/1999/xlink" x="0px" y="0px"
	 viewBox="0 0 442.756 442.756" style="enable-background:new 0 0 442.756 442.756;" xml:space="preserve">
<path id="XMLID_612_" d="M201.367,44.6h-18c0-20.96,17.052-38.012,38.012-38.012S259.392,23.64,259.392,44.6
	c0,17.86-12.382,32.883-29.013,36.936v45.076h24.731v18h-67.463v-18h24.731v-62h9c11.035,0,20.013-8.978,20.013-20.012
	s-8.978-20.012-20.013-20.012C210.345,24.588,201.367,33.565,201.367,44.6z M263.968,221.279h-20.154v18h20.154V221.279z
	 M198.944,221.279h-20.156v18h20.156V221.279z M267.183,306.404v8.193c0,16.919-13.765,30.684-30.684,30.684h-6.12v30.327h-18
	v-30.327h-6.122c-16.919,0-30.684-13.765-30.684-30.684v-8.193c0-16.919,13.765-30.684,30.684-30.684h30.242
	C253.418,275.721,267.183,289.485,267.183,306.404z M249.183,306.404c0-6.994-5.689-12.684-12.684-12.684h-30.242
	c-6.994,0-12.684,5.689-12.684,12.684v8.193c0,6.994,5.689,12.684,12.684,12.684h30.242c6.994,0,12.684-5.689,12.684-12.684V306.404
	z M442.756,209.723l-77.1,77.1l-26.363-26.363v175.709h-235.83V260.46L77.1,286.822L0,209.723L103.942,91.998h91.656v18h-38.274
	l8.931,45.176c0.61,3.089,1.72,4.781,2.225,5.196h105.797c0.505-0.415,1.615-2.107,2.226-5.196l8.931-45.176h-38.273v-18h91.654
	L442.756,209.723z M365.656,261.367l52.41-52.412l-87.372-98.957h-26.913l-9.621,48.666c-2.402,12.155-9.983,19.706-19.784,19.706
	H168.382c-9.801,0-17.382-7.551-19.785-19.706l-9.621-48.666h-26.914l-87.372,98.957l52.41,52.412l24.609-24.608h19.754v181.409
	h199.83V236.759h19.755L365.656,261.367z"/>
<g>
</g>
<g>
</g>
<g>
</g>
<g>
</g>
<g>
</g>
<g>
</g>
<g>
</g>
<g>
</g>
<g>
</g>
<g>
</g>
<g>
</g>
<g>
</g>
<g>
</g>
<g>
</g>
<g>
</g>
</svg>
