<svg width="131" height="44" viewBox="0 0 131 44" fill="none" xmlns="http://www.w3.org/2000/svg">
<g clip-path="url(#clip0_32_39)">
<path d="M109.89 24.6528H121.463V24.3849H118.891C117.23 24.3849 117.07 24.2241 117.07 22.7235V2.57246H119.106C122.427 2.57246 123.499 3.16198 123.767 6.2168L123.874 7.50303L124.517 7.44944L124.035 0.160767L123.66 0.21436L123.82 2.03653H107.693L107.854 0.21436L107.479 0.160767L106.943 7.44944L107.586 7.50303L107.693 6.2168C107.854 3.21558 109.033 2.57246 112.355 2.57246H114.444V22.7235C114.444 24.2241 114.283 24.3849 112.623 24.3849H109.997V24.6528H109.89ZM96.924 24.6528H105.764V24.3849H104.586C102.925 24.3849 102.71 24.2777 102.71 22.7235V3.96588C102.71 2.46527 102.925 2.30449 104.586 2.30449H105.764V2.03653H96.924V2.30449H98.1027C99.7636 2.30449 99.978 2.41168 99.978 3.96588V22.7771C99.978 24.2777 99.7636 24.4385 98.1027 24.4385H96.924V24.6528ZM76.8319 2.03653V2.30449H77.6892C79.3501 2.30449 79.5645 2.46527 79.5645 3.96588V19.5079C79.5645 22.7771 82.3505 24.9208 86.4761 24.9208C90.6017 24.9208 92.7984 23.0451 92.7984 19.5079V4.55541C92.7984 3.0548 93.1199 2.30449 94.7808 2.30449H95.6381V2.03653H88.8871V2.30449H90.173C91.834 2.30449 92.1019 3.0548 92.1019 4.55541V19.5079C92.1019 22.6699 90.0659 24.3849 86.4225 24.3849C83.69 24.3849 82.2434 23.0986 82.2434 20.687V3.96588C82.2434 2.46527 82.4041 2.30449 84.0651 2.30449H85.5653V2.03653H76.8319ZM61.1869 16.9354L61.6156 25.5103H61.937L61.8299 23.5274C61.7763 23.1522 61.7763 22.5091 61.6692 22.1876L61.8299 22.134C61.937 22.4019 62.4193 22.9915 62.6871 23.1522C64.4552 24.2777 66.009 24.8672 68.1522 24.8672C72.9207 24.8672 75.8675 22.8307 75.8675 19.0256C75.8675 11.6297 64.2945 11.6833 64.2945 6.10961C64.2945 3.64432 65.9019 2.2509 68.688 2.2509C72.117 2.2509 73.7244 4.71619 73.8851 7.18147L73.9387 8.5213L74.5816 8.46771L74.2066 1.01826H73.9387L74.0458 2.67965C74.0994 3.10839 74.0994 3.48354 74.153 3.69792L73.9387 3.8587C73.8851 3.75151 73.6172 3.26917 73.3493 3.10839C72.2777 2.35809 70.8311 1.71497 68.7415 1.71497C64.6696 1.71497 61.8835 3.75151 61.8835 6.80632C61.8835 13.827 73.2957 13.827 73.2957 19.5615C73.2957 22.6699 71.2597 24.3313 68.0986 24.3313C64.7767 24.3313 62.0442 21.9196 61.8299 18.2217L61.7763 16.9354H61.1869ZM35.0941 24.6528H47.0422V24.3849H44.4704C42.8094 24.3849 42.5951 24.2241 42.5951 22.7235V13.5055L47.7387 4.50181C48.6495 2.89402 49.0246 2.2509 50.0961 2.2509H50.6855V2.03653H43.9882V2.30449H46.0777C47.2029 2.30449 47.5779 2.62605 47.5779 3.16198C47.5779 3.53714 47.3636 4.01947 47.0957 4.50181L42.863 11.8441C42.7023 12.1656 42.4344 12.648 42.4344 12.8623H42.1665C42.1129 12.648 41.8986 12.112 41.7379 11.8441L37.2372 4.07307C36.6479 3.10839 36.2728 2.46527 35.8442 2.30449V2.2509H37.9874V1.98293H31.4507V2.2509H32.1473C33.4332 2.2509 33.5939 3.0012 34.4512 4.44822L39.8626 13.9878V22.7235C39.8626 24.2241 39.7019 24.3849 38.0409 24.3849H35.0941V24.6528ZM0.160767 24.6528H6.85811V24.3849H5.6258C3.69696 24.3849 3.42907 24.0633 3.42907 23.2594C3.42907 23.0451 3.48265 22.7771 3.48265 22.5091L4.28633 6.00242C4.33991 5.4129 4.33991 5.19852 4.33991 4.93056H4.44707C4.44707 5.03775 4.55422 5.62727 4.82212 6.27039L14.0377 24.8136L14.1448 25.028H14.252L14.3591 24.8136L23.6283 5.89524C23.9497 5.25212 24.164 4.71619 24.164 4.609H24.3784C24.3784 4.93056 24.3784 5.4129 24.4319 6.00242L25.1285 22.6163V23.1522C25.1285 23.9025 24.8606 24.3849 22.9853 24.3849H21.6994V24.6528H30.7542V24.3849H30.0041C28.1289 24.3849 27.861 23.9561 27.8074 22.134L27.0037 4.50181C27.0037 4.18025 26.9501 3.91229 26.9501 3.64432C26.9501 2.73324 27.218 2.2509 28.879 2.2509H30.0577V1.98293H24.8606L15.9129 20.0438C15.6986 20.5262 15.4307 21.2229 15.4307 21.3837H15.27C15.27 21.1693 15.0557 20.6334 14.7342 20.0438L5.73295 1.98293H0.642975V2.2509H2.03602C3.53623 2.2509 3.75054 2.57246 3.75054 3.26917V3.91229L2.8397 22.134C2.73255 23.9025 2.46465 24.3849 0.696554 24.3849H0.160767V24.6528Z" fill="black"/>
<path d="M109.89 24.6528H121.463V24.3849H118.891C117.23 24.3849 117.07 24.2241 117.07 22.7235V2.57246H119.106C122.427 2.57246 123.499 3.16198 123.767 6.2168L123.874 7.50303L124.517 7.44944L124.035 0.160767L123.66 0.21436L123.82 2.03653H107.693L107.854 0.21436L107.479 0.160767L106.943 7.44944L107.586 7.50303L107.693 6.2168C107.854 3.21558 109.033 2.57246 112.355 2.57246H114.444V22.7235C114.444 24.2241 114.283 24.3849 112.623 24.3849H109.997V24.6528H109.89ZM96.924 24.6528H105.764V24.3849H104.586C102.925 24.3849 102.71 24.2777 102.71 22.7235V3.96588C102.71 2.46527 102.925 2.30449 104.586 2.30449H105.764V2.03653H96.924V2.30449H98.1027C99.7636 2.30449 99.978 2.41168 99.978 3.96588V22.7771C99.978 24.2777 99.7636 24.4385 98.1027 24.4385H96.924V24.6528ZM76.8319 2.03653V2.30449H77.6892C79.3501 2.30449 79.5644 2.46527 79.5644 3.96588V19.5079C79.5644 22.7771 82.3505 24.9208 86.4761 24.9208C90.6017 24.9208 92.7984 23.0451 92.7984 19.5079V4.55541C92.7984 3.0548 93.1199 2.30449 94.7808 2.30449H95.6381V2.03653H88.8871V2.30449H90.173C91.834 2.30449 92.1019 3.0548 92.1019 4.55541V19.5079C92.1019 22.6699 90.0659 24.3849 86.4225 24.3849C83.69 24.3849 82.2434 23.0986 82.2434 20.687V3.96588C82.2434 2.46527 82.4041 2.30449 84.0651 2.30449H85.5653V2.03653H76.8319ZM61.1869 16.9354L61.6156 25.5103H61.937L61.8299 23.5274C61.7763 23.1522 61.7763 22.5091 61.6692 22.1876L61.8299 22.134C61.937 22.4019 62.4193 22.9915 62.6871 23.1522C64.4552 24.2777 66.009 24.8672 68.1522 24.8672C72.9207 24.8672 75.8675 22.8307 75.8675 19.0256C75.8675 11.6297 64.2945 11.6833 64.2945 6.10961C64.2945 3.64432 65.9019 2.2509 68.688 2.2509C72.117 2.2509 73.7244 4.71619 73.8851 7.18147L73.9387 8.5213L74.5816 8.46771L74.2066 1.01826H73.9387L74.0458 2.67965C74.0994 3.10839 74.0994 3.48354 74.153 3.69792L73.9387 3.8587C73.8851 3.75151 73.6172 3.26917 73.3493 3.10839C72.2777 2.35809 70.8311 1.71497 68.7415 1.71497C64.6696 1.71497 61.8835 3.75151 61.8835 6.80632C61.8835 13.827 73.2957 13.827 73.2957 19.5615C73.2957 22.6699 71.2597 24.3313 68.0986 24.3313C64.7767 24.3313 62.0442 21.9196 61.8299 18.2217L61.7763 16.9354H61.1869ZM35.0941 24.6528H47.0422V24.3849H44.4704C42.8094 24.3849 42.5951 24.2241 42.5951 22.7235V13.5055L47.7387 4.50181C48.6495 2.89402 49.0246 2.2509 50.0961 2.2509H50.6855V2.03653H43.9882V2.30449H46.0777C47.2029 2.30449 47.5779 2.62605 47.5779 3.16198C47.5779 3.53714 47.3636 4.01948 47.0957 4.50181L42.863 11.8441C42.7023 12.1656 42.4344 12.648 42.4344 12.8623H42.1665C42.1129 12.648 41.8986 12.112 41.7379 11.8441L37.2372 4.07307C36.6479 3.10839 36.2728 2.46527 35.8442 2.30449V2.2509H37.9874V1.98293H31.4507V2.2509H32.1473C33.4332 2.2509 33.5939 3.0012 34.4512 4.44822L39.8626 13.9878V22.7235C39.8626 24.2241 39.7019 24.3849 38.0409 24.3849H35.0941V24.6528V24.6528ZM0.160767 24.6528H6.85811V24.3849H5.6258C3.69696 24.3849 3.42907 24.0633 3.42907 23.2594C3.42907 23.0451 3.48265 22.7771 3.48265 22.5091L4.28633 6.00242C4.33991 5.4129 4.33991 5.19852 4.33991 4.93056H4.44707C4.44707 5.03775 4.55422 5.62727 4.82212 6.27039L14.0377 24.8136L14.1448 25.028H14.252L14.3591 24.8136L23.6283 5.89524C23.9497 5.25212 24.164 4.71619 24.164 4.609H24.3784C24.3784 4.93056 24.3784 5.4129 24.4319 6.00242L25.1285 22.6163V23.1522C25.1285 23.9025 24.8606 24.3849 22.9853 24.3849H21.6994V24.6528H30.7542V24.3849H30.0041C28.1289 24.3849 27.861 23.9561 27.8074 22.134L27.0037 4.50181C27.0037 4.18025 26.9501 3.91229 26.9501 3.64432C26.9501 2.73324 27.218 2.2509 28.879 2.2509H30.0577V1.98293H24.8606L15.9129 20.0438C15.6986 20.5262 15.4307 21.2229 15.4307 21.3837H15.27C15.27 21.1693 15.0557 20.6334 14.7342 20.0438L5.73295 1.98293H0.642975V2.2509H2.03602C3.53623 2.2509 3.75054 2.57246 3.75054 3.26917V3.91229L2.8397 22.134C2.73255 23.9025 2.46465 24.3849 0.696554 24.3849H0.160767V24.6528Z" stroke="black" stroke-width="0.5669" stroke-miterlimit="22.9256"/>
<path d="M79.2965 37.3545V40.2485C79.4572 40.2485 79.5644 40.3021 79.7251 40.3021C79.8859 40.3021 79.993 40.3021 80.1002 40.3021C80.8503 40.3021 81.4397 40.1413 81.7611 39.7662C82.1362 39.391 82.2969 38.9623 82.2969 38.4799C82.2969 37.9976 82.1898 37.676 81.9754 37.4081C81.7611 37.1937 81.5468 37.0329 81.2789 36.9257C81.1182 36.8721 80.9575 36.8185 80.7967 36.8185C80.636 36.8185 80.5288 36.8185 80.4217 36.8185C79.993 36.8185 79.6716 36.8721 79.5108 36.9257C79.3501 36.9793 79.2965 37.1401 79.2965 37.3545ZM80.6896 36.3898C81.4397 36.3898 81.9754 36.497 82.3505 36.765C82.7255 37.0329 82.9399 37.3009 83.1006 37.5689C83.2078 37.7296 83.2613 37.944 83.2613 38.1048C83.2613 38.2656 83.3149 38.4263 83.3149 38.5335C83.3149 39.0695 83.2078 39.4446 82.9399 39.7662C82.672 40.0877 82.4041 40.3021 82.0826 40.4093C82.029 40.4629 81.9219 40.4629 81.8683 40.5165C81.8147 40.5165 81.7076 40.5701 81.654 40.5701L82.9399 42.7674C82.9934 42.821 82.9934 42.821 82.9934 42.8746C82.9934 42.9282 83.047 42.9282 83.047 42.9818C83.047 42.9818 83.047 43.0354 83.1006 43.0354C83.1006 43.0354 83.1006 43.089 83.1542 43.089C83.1542 43.089 83.2078 43.1425 83.2078 43.1961C83.2613 43.2497 83.2613 43.3033 83.3149 43.3033C83.3685 43.3569 83.4757 43.4105 83.5828 43.4641C83.69 43.5177 83.7971 43.5177 83.9579 43.5177V43.7857H81.6004V43.5177H81.7611C81.8683 43.5177 82.029 43.5177 82.0826 43.4641C82.1898 43.4641 82.2433 43.3569 82.2433 43.3033C82.2433 43.3033 82.2433 43.3033 82.2433 43.2497C82.2433 43.1961 82.1898 43.1425 82.1898 43.089C82.1362 43.0354 82.0826 42.9818 82.0826 42.8746C82.0826 42.8746 82.0826 42.821 82.029 42.821V42.7674L80.7967 40.6773C80.7431 40.6773 80.6896 40.6773 80.6896 40.6773C80.636 40.6773 80.636 40.6773 80.5824 40.6773C80.5288 40.6773 80.4752 40.6773 80.4217 40.6773C80.3681 40.6773 80.3145 40.6773 80.2073 40.6773H80.1538H80.1002C80.0466 40.6773 79.993 40.6773 79.9395 40.6773C79.8859 40.6773 79.8323 40.6773 79.8323 40.6773C79.7787 40.6773 79.7251 40.6773 79.618 40.6773C79.5644 40.6773 79.4572 40.6773 79.4037 40.6237V42.4994C79.4037 42.553 79.4037 42.553 79.4037 42.6066C79.4037 42.6602 79.4037 42.6602 79.4037 42.7138C79.4037 42.9282 79.4572 43.0889 79.5644 43.2497C79.6716 43.4105 79.8859 43.5177 80.2073 43.5177V43.7857H77.7427V43.5177C78.1178 43.5177 78.3321 43.4105 78.3857 43.1961C78.4928 42.9818 78.4928 42.7674 78.4928 42.4994V37.6224C78.4928 37.3009 78.4392 37.0865 78.3321 36.9257C78.2249 36.765 78.0106 36.6578 77.6891 36.6042V36.3362H80.6896V36.3898ZM76.1354 36.3898L76.3497 37.8368H76.0818C76.0282 37.5689 75.8675 37.4081 75.7067 37.2473C75.546 37.0865 75.3317 37.0329 75.1709 36.9257C75.0102 36.8721 74.9031 36.8185 74.7423 36.8185C74.5816 36.8185 74.4744 36.8185 74.4208 36.8185H73.135C72.9206 36.8185 72.8135 36.8721 72.7063 36.9257C72.5992 36.9793 72.5456 37.1401 72.5456 37.3545V39.5518H74.2065C74.528 39.5518 74.7423 39.4982 74.9031 39.4446C75.0638 39.3374 75.1174 39.1766 75.1174 38.8551H75.3853V40.7844H75.1174V40.7309V40.6773V40.6237C75.1174 40.4629 75.0102 40.3557 74.9031 40.2485C74.7959 40.1413 74.6352 40.0877 74.4744 40.0877H72.5456V42.821C72.5456 43.1425 72.6527 43.3569 72.8135 43.4105C72.9742 43.4641 73.2421 43.5177 73.6172 43.5177H74.4208C74.903 43.5177 75.2781 43.4105 75.5996 43.2497C75.9211 43.0889 76.1889 42.821 76.4033 42.4458H76.6712L76.4033 43.9464H70.9382V43.6785C71.2597 43.6785 71.4204 43.5713 71.5276 43.4105C71.6348 43.2497 71.6883 43.089 71.6883 42.8746C71.6883 42.821 71.6883 42.7674 71.6883 42.7674C71.6883 42.7138 71.6883 42.7138 71.6883 42.6602V37.7832C71.6883 37.7296 71.6883 37.7296 71.6883 37.676C71.6883 37.6224 71.6883 37.6224 71.6883 37.5689C71.6883 37.4081 71.6348 37.1937 71.5276 37.0329C71.4204 36.8721 71.2061 36.765 70.9382 36.765V36.497H76.1354V36.3898ZM67.5092 36.3898H69.9738V36.6578C69.6523 36.6578 69.438 36.765 69.3309 36.9257C69.2237 37.0865 69.1701 37.3009 69.1701 37.4617C69.1701 37.5153 69.1701 37.5153 69.1701 37.5689C69.1701 37.6224 69.1701 37.6224 69.1701 37.676V42.553C69.1701 42.6066 69.1701 42.6066 69.1701 42.6602C69.1701 42.7138 69.1701 42.7138 69.1701 42.7674C69.1701 42.9818 69.2237 43.1425 69.3309 43.3033C69.438 43.4641 69.6523 43.5713 69.9738 43.5713V43.8393H67.5092V43.5713C67.7771 43.5713 67.9914 43.4641 68.0986 43.3569C68.2057 43.2497 68.2593 43.0889 68.3129 42.9818C68.3129 42.9282 68.3129 42.821 68.3129 42.7674C68.3129 42.7138 68.3129 42.6066 68.3129 42.553V37.676C68.3129 37.6224 68.3129 37.5689 68.3129 37.4617C68.3129 37.4081 68.3129 37.3009 68.3129 37.2473C68.2593 37.0865 68.2057 36.9793 68.0986 36.8721C67.9914 36.765 67.7771 36.6578 67.5092 36.6578V36.3898ZM61.4548 36.3898H63.8123V36.6578C63.5444 36.6578 63.33 36.7114 63.2229 36.8721C63.1157 37.0329 63.0622 37.2473 63.0622 37.5689V42.4994C63.0622 42.821 63.1157 43.0354 63.1693 43.1425C63.2229 43.3033 63.3836 43.3569 63.7051 43.3569H64.6695C65.0981 43.3569 65.5268 43.3033 65.8482 43.1425C66.1697 42.9818 66.4912 42.7138 66.7055 42.2851H66.9734L66.7055 43.7857H61.4548V43.5177C61.8298 43.5177 62.0442 43.4105 62.0977 43.2497C62.2049 43.0889 62.2585 42.821 62.2585 42.553V37.5153C62.2585 37.3009 62.2049 37.1401 62.1513 36.9793C62.0442 36.8721 61.9906 36.765 61.8834 36.765C61.8298 36.765 61.7763 36.7114 61.7227 36.7114C61.6691 36.7114 61.6155 36.7114 61.5619 36.7114V36.3898H61.4548ZM59.8474 36.3898L60.0617 37.8368H59.7938C59.7403 37.5689 59.5795 37.4081 59.4188 37.2473C59.2581 37.0865 59.0437 37.0329 58.883 36.9257C58.7223 36.8721 58.6151 36.8185 58.4544 36.8185C58.2936 36.8185 58.1865 36.8185 58.1329 36.8185H56.847C56.6327 36.8185 56.5255 36.8721 56.4184 36.9257C56.3112 36.9793 56.2577 37.1401 56.2577 37.3545V39.5518H57.9186C58.2401 39.5518 58.4544 39.4982 58.6151 39.4446C58.7759 39.3374 58.8294 39.1766 58.8294 38.8551H59.0973V40.7844H58.8294V40.7309V40.6773V40.6237C58.8294 40.4629 58.7223 40.3557 58.6151 40.2485C58.508 40.1413 58.3472 40.0877 58.1865 40.0877H56.2577V42.821C56.2577 43.1425 56.3648 43.3569 56.5255 43.4105C56.6863 43.4641 56.9542 43.5177 57.3292 43.5177H58.1329C58.6151 43.5177 58.9902 43.4105 59.3116 43.2497C59.6331 43.0889 59.901 42.821 60.1153 42.4458H60.3832L60.1153 43.9464H54.6503V43.6785C54.9718 43.6785 55.1325 43.5713 55.2397 43.4105C55.3468 43.2497 55.4004 43.089 55.4004 42.8746C55.4004 42.821 55.4004 42.7674 55.4004 42.7674C55.4004 42.7138 55.4004 42.7138 55.4004 42.6602V37.7832C55.4004 37.7296 55.4004 37.7296 55.4004 37.676C55.4004 37.6224 55.4004 37.6224 55.4004 37.5689C55.4004 37.4081 55.3468 37.1937 55.2397 37.0329C55.1325 36.8721 54.9182 36.765 54.6503 36.765V36.497H59.8474V36.3898ZM49.7746 43.8928V43.6249C50.0425 43.6249 50.2568 43.5177 50.364 43.3569C50.4711 43.1961 50.5247 42.9282 50.5247 42.6066V37.5689C50.5247 37.2473 50.4711 37.0329 50.364 36.9793C50.2568 36.9257 50.0961 36.8721 49.8818 36.8721C49.7746 36.8721 49.6139 36.8721 49.3996 36.9257C49.2388 36.9793 49.0245 37.0329 48.8638 37.1937C48.7566 37.2473 48.6495 37.3545 48.5423 37.4617C48.4352 37.5689 48.328 37.676 48.2208 37.8368H47.9529L48.2744 36.3898H53.5787L53.9002 37.8368H53.6323C53.4716 37.6224 53.3108 37.4081 53.1501 37.3009C52.9893 37.1401 52.8286 37.0865 52.6143 36.9793C52.5071 36.9257 52.4 36.9257 52.2928 36.8721C52.1857 36.8721 52.0785 36.8721 51.9714 36.8721C51.757 36.8721 51.5963 36.9257 51.4891 36.9793C51.382 37.0329 51.3284 37.2473 51.3284 37.5689V42.6066C51.3284 42.9282 51.382 43.1961 51.4891 43.3569C51.5963 43.5177 51.8106 43.6249 52.1321 43.6249V43.8928H49.7746ZM45.1669 41.106L44.0417 37.5153H43.9881L42.8094 41.106H45.1669ZM42.9165 37.2473V36.9793C43.1844 36.9257 43.3988 36.8185 43.6131 36.6578C43.8274 36.5506 43.9345 36.3362 43.9881 36.0146H44.4703L46.3992 42.3922C46.3992 42.4458 46.3992 42.4458 46.3992 42.4994C46.3992 42.553 46.3992 42.553 46.3992 42.6066C46.5063 42.8746 46.6135 43.1425 46.7742 43.2497C46.935 43.4105 47.1493 43.5177 47.4707 43.5713V43.8393H44.9525V43.5713C45.2204 43.5713 45.4347 43.5177 45.5419 43.4641C45.6491 43.4105 45.7026 43.3033 45.6491 43.1425C45.6491 43.089 45.6491 43.0354 45.6491 42.9818C45.6491 42.9282 45.5955 42.8746 45.5955 42.7674C45.5955 42.7674 45.5955 42.7674 45.5955 42.7138V42.6602L45.274 41.5347H42.5951L42.22 42.6602C42.22 42.7138 42.22 42.7138 42.1664 42.7674C42.1664 42.821 42.1664 42.8746 42.1664 42.8746C42.1664 42.9282 42.1664 42.9818 42.1664 43.0354C42.1664 43.089 42.1664 43.1425 42.1664 43.1425C42.1664 43.2497 42.22 43.3569 42.3272 43.4105C42.4343 43.4641 42.5951 43.5177 42.7022 43.5177V43.7857H40.5591V43.5177C40.8806 43.4641 41.0949 43.3569 41.2556 43.1961C41.4163 43.0354 41.5771 42.821 41.6307 42.6066L43.2916 37.8368C43.2916 37.7832 43.2916 37.7832 43.3452 37.7296C43.3452 37.676 43.3452 37.676 43.3452 37.6224C43.3452 37.5689 43.3452 37.5689 43.3452 37.5153C43.3452 37.4617 43.3452 37.4617 43.3452 37.4081C43.3452 37.3009 43.3452 37.2473 43.2916 37.1937C43.238 37.1401 43.1309 37.0865 43.0237 37.0865C42.9701 37.0865 42.9701 37.0865 42.9165 37.0865C42.9701 37.1937 42.9701 37.2473 42.9165 37.2473Z" fill="black"/>
<path d="M128.107 22.7235C128.428 22.0268 128.803 21.7052 129.5 21.7052C130.25 21.7052 130.893 22.2947 130.893 23.0986C130.893 24.492 128.696 26.3142 128.16 28.6187C127.678 26.2606 125.374 24.4385 125.374 23.045C125.374 22.2947 125.964 21.6516 126.767 21.6516C127.41 21.7052 127.732 22.0268 128.107 22.7235Z" stroke="black" stroke-width="0.6824" stroke-miterlimit="22.9256"/>
</g>
<defs>
<clipPath id="clip0_32_39">
<rect width="131" height="44" fill="white"/>
</clipPath>
</defs>
</svg>
